<svg width="128" height="128" viewBox="0 0 128 128" fill="none" xmlns="http://www.w3.org/2000/svg">
<path d="M48.7305 57.369C49.0789 56.8382 49.2782 56.3871 49.4502 55.8097C49.529 55.5455 49.5924 55.2769 49.6418 55.0049C49.6963 54.7062 49.7032 54.6575 49.7301 54.3336C49.7479 54.122 49.7577 53.9096 49.7607 53.6973C49.2122 54.3018 48.5561 54.7972 47.8297 55.1622C47.7148 55.8518 47.4562 56.5074 47.0264 57.0711C46.6217 57.6009 46.1097 58.0724 45.4717 58.2715C44.7331 58.5022 43.6814 58.4738 43.4806 58.3143C43.1124 58.0217 43.8463 57.5576 44.0136 57.3216C44.3177 56.8913 44.6054 56.4179 44.752 55.9061C44.6477 55.9129 44.3603 55.9174 44.2558 55.923C43.7937 57.2915 42.1035 58.8258 42.105 59.0563C42.1057 59.1972 43.7311 60.1029 45.2814 59.7019C46.6795 59.3401 47.9599 58.5428 48.7305 57.369Z" fill="#868372"/>
<path d="M78.9784 30.0242C78.7264 29.9735 78.4385 30.1313 78.2129 30.2228C77.8949 30.3513 77.5678 30.4601 77.2442 30.5761C76.4988 30.8435 75.7512 31.1065 74.9916 31.3318C74.479 31.4842 73.9619 31.6175 73.4415 31.7396C68.4795 32.9046 63.8914 32.7553 63.9652 32.4048C64.0186 32.1498 67.8376 31.9651 72.3568 30.5421C73.9017 30.0562 75.336 29.1655 76.489 28.014C77.526 26.9775 78.2912 25.721 78.6056 24.3359C78.4466 24.4761 78.2863 24.615 78.1234 24.7518C76.532 26.0819 74.7322 27.2625 72.8209 28.0815C71.6295 28.5926 70.3608 28.8893 69.0946 29.1474C65.7269 29.8319 62.313 30.2578 58.9612 31.0262C55.4954 31.8211 51.9721 32.9214 49.0967 35.0845C49.0614 35.1109 48.454 35.5992 48.2106 35.836C47.4527 36.5731 46.7704 37.3897 46.1588 38.2621C45.408 39.3331 44.7641 40.4886 44.222 41.6848C44.1743 41.7893 44.1283 41.8952 44.0823 42.0012C43.6488 42.9949 43.2831 44.0138 42.9834 45.0347C42.8611 45.4513 42.75 45.8713 42.6512 46.2941C42.5744 46.6228 42.5374 46.9744 42.4286 47.2936C42.271 47.7558 41.9486 48.1217 41.6448 48.4943C41.6081 48.5393 41.5716 48.5843 41.5352 48.6296C41.5239 48.644 41.5131 48.6582 41.5019 48.6722C41.4831 48.6966 41.4645 48.7209 41.4456 48.7453C41.2296 49.0271 41.0337 49.331 40.903 49.661C40.8032 49.9127 40.7345 50.1676 40.689 50.4245C41.028 50.1456 41.3808 49.8826 41.7463 49.6397C41.7925 49.6091 41.838 49.5778 41.8848 49.5477C42.365 49.2383 42.868 48.9665 43.3969 48.7465C44.3705 48.3422 45.4357 48.1729 46.4453 48.4173C46.5889 48.4518 46.731 48.4955 46.8719 48.5474C46.9913 48.5914 47.11 48.6409 47.2269 48.6979C47.8666 49.0103 48.3429 49.5113 48.8051 50.0375C48.9631 50.2178 49.1314 50.415 49.3112 50.606C49.6471 50.9625 50.0241 51.2974 50.4561 51.4596C50.703 51.5518 50.8791 51.7698 50.8566 52.032C50.8497 52.1228 50.8148 52.2087 50.7702 52.2877C50.8999 53.1838 50.8784 54.0982 50.7487 54.9931C50.7441 55.0249 50.7384 55.0562 50.7333 55.0883C50.531 56.3741 50.0158 57.5997 49.1703 58.5966C48.4557 59.4389 47.5053 60.064 46.4695 60.4706C46.8414 60.7083 47.2257 60.9263 47.6203 61.1254C48.1563 61.3968 48.7082 61.6353 49.2721 61.8452C49.7139 62.0098 50.1635 62.1551 50.6183 62.2853C51.4794 62.5321 52.3601 62.7224 53.2482 62.8641C54.4946 63.0625 55.7547 63.1679 56.9936 63.2073C57.8826 63.2347 58.7789 63.2306 59.675 63.186C60.0192 63.1692 60.3635 63.1464 60.7072 63.117C62.1752 62.9937 63.6347 62.7564 65.0524 62.3768C65.3249 62.3041 65.5955 62.2253 65.8649 62.1419C66.0307 62.0905 66.1966 62.0375 66.3615 61.9817C68.1067 61.3899 69.8109 60.6257 71.3315 59.5754C72.4268 58.8195 73.43 57.8576 74.1253 56.7998C74.2907 56.548 74.4436 56.2882 74.583 56.0221C74.7065 55.7865 74.8563 55.4621 74.9106 55.3212C75.1699 54.6506 75.3521 53.9603 75.5019 53.2577C75.884 51.4608 75.9921 49.6096 75.7957 47.7822C75.4573 44.6315 74.1197 41.6134 72.1606 39.1364C71.8788 38.7807 71.5845 38.4351 71.2802 38.0975C70.9369 38.0324 69.7764 37.3491 69.8867 37.0379C69.985 36.7598 72.5376 37.5615 74.3457 36.7348C75.5324 36.1925 75.4111 35.747 75.4155 35.7132C75.4348 35.5674 74.9238 35.5454 74.8724 35.5435C74.4115 35.5278 73.9494 35.565 73.4885 35.5655C71.1412 35.5699 68.7844 34.7689 68.8697 34.4582C68.9637 34.1175 70.8699 34.4808 72.5246 34.3005C73.705 34.1715 74.8161 34.0255 75.9366 33.4582C76.328 33.2595 76.705 33.0323 77.0668 32.7842C77.3024 32.6232 77.3863 32.5589 77.6168 32.3226C78.007 31.9218 78.2888 31.4815 78.5537 30.9949C78.5894 30.9286 79.0508 30.0386 78.9784 30.0242Z" fill="#F6DC61"/>
<path d="M53.2301 53.8983C53.7779 53.8919 56.6144 54.7225 59.7605 53.6972C61.4544 53.1448 63.0526 51.8272 63.9294 50.2764C64.8061 48.7259 64.7917 46.7744 64.0646 45.1481C63.3376 43.5215 61.871 42.2973 60.0915 42.2146C59.4716 42.1858 55.1505 41.9847 53.394 46.6504C52.9508 47.8278 52.6349 49.2715 51.6613 49.9692C50.977 50.4594 50.1357 50.693 49.3115 50.606C49.6474 50.9624 50.0244 51.2973 50.4564 51.4595C50.7033 51.5517 50.8794 51.7697 50.8569 52.0319C50.85 52.1227 50.8151 52.2086 50.7705 52.2876C50.9002 53.1837 50.8787 54.0982 50.749 54.993C50.7444 55.0248 50.7387 55.0562 50.7336 55.0882C51.3403 54.4098 52.0272 53.9127 53.2301 53.8983Z" fill="#868372"/>
<path d="M42.6514 46.294C42.5746 46.6228 42.5376 46.9743 42.4288 47.2936C42.2712 47.7557 41.9488 48.1217 41.6449 48.4943C41.6082 48.5393 41.5718 48.5843 41.5353 48.6296C41.5241 48.644 41.5133 48.6582 41.5021 48.6721C41.4832 48.6966 41.4646 48.7208 41.4458 48.7453C41.5449 49.0741 41.6474 49.3759 41.7465 49.6397C41.7927 49.6091 41.8382 49.5778 41.8849 49.5477C42.3651 49.2382 42.8681 48.9664 43.397 48.7465C44.3707 48.3421 45.4358 48.1728 46.4455 48.4172C46.5891 48.4517 46.7312 48.4955 46.8721 48.5474C46.8655 47.6882 47.0754 46.7745 47.0333 45.9415C46.9736 44.754 46.8653 43.5203 46.1113 42.6017C45.5423 41.9077 44.7986 41.8257 44.0825 42.0011C43.649 42.9948 43.2833 44.0137 42.9836 45.0346C42.8613 45.4512 42.7502 45.8713 42.6514 46.294Z" fill="#868372"/>
<path d="M45.5746 54.7394C46.0712 54.658 46.5661 54.5291 47.0309 54.3343C48.0601 53.9028 48.9075 53.1319 49.5358 52.1994C49.0149 51.8686 48.5694 51.4153 48.1597 50.9586C47.6929 50.4382 47.265 49.9022 46.6082 49.6128C45.4625 49.1081 44.1643 49.5169 43.0993 50.0962C42.1905 50.5911 41.3901 51.213 40.6456 51.9244C40.3893 52.2018 39.9318 52.686 39.8762 52.7743C39.5956 53.2171 39.4518 53.6799 39.3422 54.2103C39.1311 55.2312 39.1433 56.4172 39.3192 57.4011C39.3623 57.6416 39.4156 57.8816 39.4858 58.1157C39.5139 58.2096 39.5648 58.4846 39.6057 58.4582C39.6079 58.4526 39.6101 58.4477 39.6125 58.4413C39.728 58.1526 39.8415 57.8632 39.9726 57.5814C40.3046 56.8676 40.7741 56.2012 41.4047 55.7214C41.9669 55.2938 42.6524 55.0663 43.3418 54.9467C44.0816 54.819 44.8351 54.8603 45.5746 54.7394Z" fill="#868372"/>
<path d="M45.4066 55.8511C45.2983 56.3484 45.0795 56.8169 44.8104 57.2526C44.6771 57.4681 44.5306 57.6748 44.3784 57.8776C44.43 57.8732 44.4748 57.8688 44.5039 57.8671C44.7035 57.852 44.8997 57.8082 45.0898 57.7468C45.471 57.6235 45.824 57.4092 46.1197 57.1401C46.6166 56.6877 46.9503 56.1028 47.1255 55.4665C46.9902 55.5159 46.8537 55.5624 46.715 55.603C46.2829 55.7309 45.8467 55.8041 45.4066 55.8511Z" fill="#E54628"/>
<path d="M50.5818 87.6813C50.9022 86.6274 51.2616 85.5845 51.653 84.5556C52.1034 83.372 52.5526 82.1469 53.1458 81.0259C53.4873 80.3816 53.9054 79.7766 54.3174 79.1753C54.8632 78.3799 55.4202 77.592 55.9731 76.8011C55.0726 75.9781 54.2648 75.0575 53.5783 74.0467C51.623 71.1666 50.7124 67.3788 51.5701 63.9581C51.2467 64.4146 50.9196 64.8693 50.5862 65.3185C48.3832 68.2877 45.9378 71.0332 43.1991 73.517C42.2387 74.3879 41.254 75.2322 40.3045 76.1161C38.9634 77.3635 37.729 78.7212 36.5993 80.1629C35.4365 81.6471 34.4039 83.2367 33.5024 84.892C32.4994 86.7331 31.607 88.654 30.9648 90.6524C30.5971 91.7971 30.3023 92.9784 30.1687 94.1752C30.1017 94.7775 30.0689 95.3832 30.0782 95.9894C30.0807 96.1328 30.0856 96.2757 30.0924 96.419C30.2384 96.2187 30.3774 96.0139 30.5127 95.806C31.9622 93.5803 33.0951 91.1691 34.4171 88.8693C34.8423 87.6419 36.4473 84.8663 36.7152 85.0228C37.0289 85.2063 35.9901 88.1317 35.5945 89.2903C35.5882 89.3133 35.5806 89.336 35.5713 89.359C35.1055 90.5203 34.8063 91.7998 34.7843 93.0523C34.7655 94.1263 34.8628 95.1966 35.0566 96.2356C35.2332 97.1825 35.4752 98.1758 35.9167 98.9285C36.0293 99.1196 36.2218 99.4119 36.3434 99.419C36.4564 99.4251 37.0372 98.5082 37.2246 98.1701C38.1686 96.466 38.8362 94.7156 39.499 92.885C40.0937 91.2423 42.6619 82.1195 43.2563 82.2508C43.5876 82.3242 41.1901 88.4967 42.2947 93.8188C42.3338 94.0067 42.3801 94.1926 42.4304 94.3775C42.4537 94.4627 42.4777 94.5478 42.5036 94.6322C42.507 94.6437 42.5474 94.7645 42.5523 94.7614C42.7744 94.6104 42.9513 94.3792 43.1052 94.162C43.2666 93.9335 43.4058 93.6899 43.535 93.4418C43.7853 92.9613 43.9907 92.4591 44.2006 91.96C44.6109 90.9842 44.9468 89.9804 45.2753 88.9752C45.6641 87.7853 45.9684 86.5633 46.3801 85.3822C46.4486 83.7426 47.433 80.0259 47.7207 80.0814C48.0456 80.144 47.8631 82.9111 47.7577 83.9782C47.6425 85.1461 47.5813 86.3255 47.6334 87.4991C47.6598 88.0916 47.6992 88.6833 47.8389 89.2626C47.9436 89.6979 48.0667 90.1419 48.3737 90.4814C48.4471 90.5622 48.552 90.6385 48.6572 90.6084C48.7098 90.5935 48.7516 90.5546 48.79 90.5159C49.0337 90.2698 49.2421 89.9841 49.4334 89.6873C49.5839 89.4537 49.7236 89.2132 49.8611 88.9796C49.989 88.7629 50.113 88.5437 50.2344 88.3232C50.3442 88.1241 50.5157 87.8985 50.5818 87.6813Z" fill="#868372"/>
<path d="M50.3603 100.42C50.3744 100.522 50.3644 100.452 50.3603 100.42V100.42ZM96.9527 65.676C96.7768 65.3415 96.5513 64.9227 96.1968 64.7505C96.0101 64.6595 95.7897 64.6759 95.5842 64.7084C94.7089 64.8449 93.8671 65.205 93.0674 65.5732C90.5628 66.7281 85.6798 69.8189 85.5088 69.5941C85.0447 68.9835 90.4921 65.2765 93.3428 64.0966C93.9305 63.8529 94.5917 63.5855 95.2549 63.4791C95.0607 63.0356 94.8153 62.618 94.5134 62.2735C93.986 61.6717 93.269 61.1781 92.4612 61.0604C92.0729 61.0041 91.7647 61.1299 91.4259 61.2989C91.1171 61.4525 90.8177 61.6248 90.5253 61.807C88.2106 63.2511 83.8387 67.7427 83.6187 67.523C83.3621 67.2656 86.1852 63.6482 87.6814 62.3712C88.5049 61.669 89.3773 61.0066 90.3198 60.4706C90.3861 60.4329 90.4546 60.394 90.5241 60.3546C89.881 60.121 89.17 60.0652 88.5161 60.29C87.8894 60.5055 87.3703 60.9897 86.8854 61.4242C86.4891 61.7786 86.105 62.1471 85.7275 62.5209C84.8982 63.3402 84.0972 64.1881 83.3056 65.0436C82.6018 65.8032 81.9077 66.5716 81.2108 67.3375C80.8056 67.7823 80.4115 68.2588 79.9607 68.6591C79.6752 68.912 79.1722 68.9101 78.9767 68.5323C78.4789 67.5692 77.9316 66.6286 77.2873 65.7555C76.4318 64.5969 75.4102 63.6332 74.1632 62.9573C72.999 62.3274 71.6513 61.9878 70.2904 61.7693C70.2716 61.7662 70.2535 61.7618 70.2353 61.7561C70.1571 61.7975 70.0793 61.8371 70.0037 61.8741C69.5597 62.0881 68.9603 62.3406 68.3052 62.5923C67.322 62.9372 65.4368 63.5924 64.0164 63.8906C63.4922 64.0002 62.8255 64.113 62.2514 64.1998C61.4822 64.317 60.7048 64.3828 59.9266 64.429C59.8087 64.4361 59.691 64.4423 59.5731 64.4479C57.8878 64.5293 56.1956 64.4711 54.5318 64.2837C54.2334 64.262 53.3825 64.1548 52.8328 64.0817C52.7609 64.3483 52.7 64.6177 52.6515 64.8902C52.5823 65.2789 52.5485 65.5832 52.5248 66.0388C52.3308 69.7511 54.0173 73.2225 56.6947 75.7609C57.1 75.1716 57.5003 74.5778 57.8878 73.976C59.029 72.2031 61.3675 67.9406 61.6275 68.0783C62.1361 68.3484 61.1803 71.65 57.3559 76.9985C57.3302 77.0484 57.2979 77.0942 57.2603 77.135C56.4943 78.2259 55.7203 79.3113 54.9876 80.4159C53.8441 82.1408 53.1215 84.1028 52.4363 86.0462C51.6497 88.2763 51.0203 90.5659 50.6225 92.8987C50.3334 94.5936 50.1746 96.3308 50.1993 98.0699C50.2123 98.9949 50.2644 99.9225 50.4126 100.837C50.5362 101.598 50.6754 102.634 51.1348 103.278C51.2114 103.186 51.273 103.083 51.3342 102.978C52.1571 101.571 52.644 100.021 53.1557 98.4339C53.6724 96.8313 54.1465 95.203 54.4863 93.5514C54.4961 92.2443 55.2435 89.1367 55.5414 89.2189C55.8932 89.3153 55.7553 92.4767 55.742 93.5165C55.745 93.5563 55.7445 93.5977 55.7406 93.639C55.7296 94.7776 55.765 95.9181 55.8179 97.0478C55.8759 98.2891 55.9698 99.5299 56.1261 100.763C56.1479 100.936 56.143 100.901 56.1697 101.087C56.2409 101.587 56.6457 105.453 57.6654 104.736C58.1466 104.398 58.3986 103.793 58.593 103.259C58.9324 102.326 59.1386 101.345 59.3098 100.369C59.8703 97.1757 60.2859 93.8638 60.2123 90.5979C60.1935 89.7532 60.0085 85.2766 60.3696 85.1775C60.6654 85.096 61.0918 88.7761 61.5698 91.657C61.7381 92.6715 61.7787 93.5847 61.9409 94.5623C62.0048 94.9473 62.0738 95.3312 62.1618 95.7113C62.2059 95.9012 62.2545 96.0903 62.3098 96.2769C62.3624 96.4616 62.4184 96.6446 62.5014 96.8181C62.5351 96.8888 62.5877 97.0473 62.6658 97.0774C62.7764 97.1192 62.95 96.9795 63.034 96.9213C63.1553 96.8374 63.2605 96.731 63.35 96.6133C63.5511 96.3484 63.6984 96.0284 63.8117 95.717C63.8735 95.5447 63.9288 95.3701 63.979 95.1942C64.0915 94.7952 64.1774 94.3888 64.2469 93.9805C64.3741 93.2363 64.4529 92.3434 64.4937 91.4747C64.5487 90.2948 64.5255 89.1174 64.4957 87.9375C64.4905 87.9113 64.4856 87.8849 64.4805 87.8587C64.0514 85.6054 63.1286 80.4993 63.3965 80.396C63.7101 80.275 65.2954 85.5383 65.7644 87.9199C65.9234 88.7304 66.4709 90.9685 66.7025 91.2049C66.9711 91.4784 67.4347 91.1126 67.6483 90.9155C67.9118 90.6718 68.1009 90.3587 68.2513 90.0355C68.2533 90.0311 68.2545 90.0279 68.2562 90.0242C68.257 90.0223 68.2575 90.0211 68.2589 90.0194C68.3891 89.6874 68.4881 89.3454 68.5625 88.9965C68.6552 88.565 68.6572 88.3778 68.7142 87.9889C69.0591 85.6372 68.2349 81.2753 68.1863 81.1092C67.7295 79.5535 66.8371 75.8436 67.0551 75.6689C67.3288 75.449 69.7957 82.1565 70.0262 82.7945C70.0988 82.9963 70.2234 83.6695 70.5353 83.3765C70.8954 83.0376 70.968 82.3938 70.9817 81.9404C71.0231 80.5631 70.5959 79.1765 70.1519 77.8332C69.7612 76.6509 69.2827 75.4967 68.9158 74.3068C68.4341 73.6323 67.5142 71.5103 67.8279 71.3733C68.1535 71.2305 69.019 72.4292 69.1827 72.6246C69.7994 73.361 70.3217 74.1715 70.9487 74.8998C71.1483 75.1322 71.359 75.3514 71.585 75.5566C72.4823 74.2598 70.2867 69.2641 70.6356 69.0935C70.8447 68.9915 73.0254 71.9631 72.8733 75.4996C72.842 76.2149 72.4085 77.1676 71.5148 76.9445C71.3702 76.9087 71.2318 76.8468 71.0997 76.7678C71.2944 77.3097 71.481 77.854 71.6437 78.4069C71.7609 78.8027 71.8749 79.213 71.972 79.6301C72.123 79.6017 72.2732 79.5719 72.4222 79.5335C72.624 79.4809 72.8199 79.4209 73.0115 79.3544C73.021 79.35 73.0311 79.347 73.0404 79.3439C73.3016 79.2516 73.5526 79.1477 73.7931 79.0324C74.6895 78.6041 75.498 78.0404 76.2082 77.3623C75.6658 77.2652 74.2479 76.3057 74.405 76.0371C74.5879 75.724 75.4784 76.1805 77.3612 76.2587C78.3331 76.2989 79.3738 76.3996 80.118 75.6582C80.5199 75.2574 80.7567 74.6955 80.7631 74.1282C80.766 73.7957 80.6576 73.5352 80.4424 73.2871C79.9406 72.7103 78.3862 71.5191 78.4977 71.1121C78.5797 70.8146 80.9082 71.7877 81.5589 72.6853C81.986 72.1706 82.467 71.6989 83.0659 71.4152C83.8122 71.0614 84.7235 70.9494 85.4831 71.3312C85.6196 71.3995 85.7456 71.4878 85.8584 71.5898C88.2713 70.008 91.1465 69.187 93.9309 68.5456C94.8341 68.3371 95.7479 68.1642 96.6459 67.9325C96.87 67.8743 97.1939 67.851 97.3047 67.6238C97.3104 67.6125 97.3153 67.6013 97.3197 67.5888C97.3918 67.3901 97.3842 67.1717 97.3578 66.9618C97.3023 66.5134 97.1638 66.0757 96.9527 65.676Z" fill="#868372"/>
<path d="M84.746 72.3827C83.6168 72.0783 82.68 73.2409 82.0381 74.1005C82.0462 74.8733 81.7206 75.677 81.2132 76.3032C81.1726 76.3527 81.2269 76.6039 81.2333 76.6682C81.2465 76.7942 81.2653 76.9187 81.2895 77.0428C81.3392 77.2977 81.4131 77.5477 81.5046 77.7906C82.1952 79.6301 83.2197 79.201 83.2442 79.1966C82.169 77.6209 82.0887 75.8103 82.3542 75.7609C82.7074 75.6958 83.025 78.4401 84.5613 78.5759C85.0442 78.6192 85.5558 78.2809 85.6805 77.7994C85.7512 77.5252 85.0699 77.2903 84.8957 77.1869C84.6107 77.0166 84.3441 76.8231 84.1491 76.5493C83.7721 76.0182 83.6652 75.3 83.8692 74.6818C83.9913 74.3116 84.1819 73.9792 84.4167 73.6704C84.6159 73.4092 84.9928 73.1655 85.1186 72.8612C85.1274 72.8406 85.1338 72.8211 85.1382 72.8017C85.1856 72.575 84.9407 72.4348 84.746 72.3827Z" fill="#F7947E"/>
<path d="M81.0777 81.6001C80.759 81.3865 80.5346 81.0962 80.4025 80.7361C80.1652 80.0885 80.3423 79.4302 80.6009 78.822C80.3399 78.3318 80.1483 77.7843 80.0449 77.2363C79.9705 77.2703 79.8947 77.3021 79.8181 77.3278C79.6872 77.3728 79.5526 77.4092 79.4154 77.4393C79.2664 78.0487 79.0736 78.665 78.6984 79.1704C78.4748 79.4715 78.1986 79.769 77.8943 80.0207C77.8549 80.0533 77.8593 80.2681 77.8549 80.3202C77.8453 80.4266 77.8368 80.5337 77.8429 80.6409C77.9601 82.6518 79.0942 82.447 79.1187 82.4952C78.8376 81.9416 78.6622 80.1054 78.9822 80.1054C79.3379 80.1054 78.7979 81.4379 80.4062 82.3154C80.6498 82.4483 80.7675 82.529 81.0295 82.4138C81.2018 82.3387 81.3889 82.1965 81.4178 81.9986C81.4527 81.763 81.2487 81.7148 81.0777 81.6001Z" fill="#F7947E"/>
<path d="M77.5927 77.5007C76.8331 78.388 75.3871 79.3977 74.3726 79.9794C75.4702 80.4885 76.7299 79.8228 77.4413 79.0926C78.1162 78.3993 78.2723 77.6517 78.276 77.6522C78.1671 77.6497 77.7006 77.5064 77.5927 77.5007Z" fill="#868372"/>
<path d="M47.9171 55.1152C47.8877 55.1308 47.8591 55.1472 47.8297 55.1621C47.7148 55.8518 47.4562 56.5074 47.0264 57.0711C46.6217 57.6009 46.1097 58.0724 45.4717 58.2715C44.7331 58.5022 43.6814 58.4738 43.4806 58.3143C43.1124 58.0217 43.8463 57.5576 44.0136 57.3216C44.3177 56.8912 44.6054 56.4179 44.752 55.9061C44.6477 55.9129 44.3603 55.9173 44.2558 55.923C43.7937 57.2915 42.1035 58.8258 42.105 59.0563C42.1055 59.1622 43.0268 59.7019 44.1435 59.7909C47.0034 58.5861 48.0658 56.8012 47.9171 55.1152Z" fill="#736B57"/>
<path d="M68.6989 36.2551C68.236 36.2696 69.2938 36.9597 69.9013 37.0167C70.131 36.8043 72.5898 37.5378 74.3458 36.7349C75.5326 36.1925 75.4112 35.747 75.4156 35.7132C75.435 35.5674 74.9239 35.5454 74.8725 35.5435C74.7184 35.5386 74.5645 35.5393 74.4104 35.5422C72.6987 36.6434 70.2176 36.2081 68.6989 36.2551Z" fill="#F9AE5D"/>
<path d="M71.0158 30.0142C68.9491 30.7657 63.1245 31.8086 63.1245 32.3722C63.1245 32.4755 63.9551 32.4522 63.9651 32.4048C64.0184 32.1498 67.8375 31.9651 72.3566 30.5421C73.9015 30.0562 75.3358 29.1655 76.4888 28.014C77.5258 26.9775 78.2911 25.721 78.6054 24.3359C78.4464 24.4761 78.2862 24.615 78.1232 24.7518C78.0814 24.7867 78.0388 24.8205 77.9968 24.8557C76.1449 27.8887 74.2259 28.8255 71.0158 30.0142Z" fill="#F9AE5D"/>
<path d="M75.7954 47.7822C75.4571 44.6315 74.1194 41.6134 72.1603 39.1365C71.8785 38.7807 71.5842 38.4351 71.2799 38.0975C71.0656 38.0569 70.5352 37.7763 70.1915 37.4957C70.214 37.6089 74.8986 44.2357 73.145 52.2018C71.7966 58.3261 65.0015 60.5417 63.7859 60.8676C60.9051 61.6404 52.9673 61.703 48.409 59.3445C47.8326 59.8198 47.1706 60.1949 46.4692 60.4706C46.8411 60.7083 47.2254 60.9263 47.62 61.1255C48.156 61.3968 48.7079 61.6353 49.2718 61.8452C49.7136 62.0098 50.1633 62.1551 50.618 62.2853C51.4792 62.5321 52.3599 62.7224 53.2479 62.8641C54.4943 63.0625 55.7545 63.1679 56.9933 63.2073C57.8823 63.2347 58.7787 63.2306 59.6748 63.186C60.019 63.1692 60.3632 63.1464 60.7069 63.117C62.175 62.9937 63.6345 62.7565 65.0522 62.3768C65.3247 62.3041 65.5952 62.2253 65.8646 62.1419C66.0305 62.0905 66.1963 62.0375 66.3612 61.9817C68.1065 61.3899 69.8106 60.6257 71.3313 59.5754C72.4265 58.8195 73.4298 57.8576 74.125 56.7998C74.2904 56.548 74.4433 56.2882 74.5827 56.0221C74.7063 55.7865 74.856 55.4621 74.9103 55.3212C75.1696 54.6506 75.3519 53.9603 75.5016 53.2577C75.8837 51.4608 75.9919 49.6096 75.7954 47.7822Z" fill="#F9AE5D"/>
<path d="M78.9785 30.0242C78.7266 29.9736 78.4386 30.1313 78.2131 30.2228C78.1067 30.2654 77.9995 30.306 77.8919 30.3454C75.078 33.8175 71.4545 33.7187 67.509 33.75C66.914 33.7549 68.3099 34.4345 68.8723 34.5003C68.8672 34.4859 68.8667 34.4715 68.8699 34.4583C68.9638 34.1175 70.87 34.4808 72.5248 34.3005C73.7051 34.1715 74.8163 34.0255 75.9367 33.4582C76.3281 33.2595 76.7051 33.0323 77.0669 32.7842C77.3025 32.6232 77.3864 32.5589 77.6169 32.3226C78.0071 31.9218 78.2889 31.4815 78.5538 30.9949C78.5896 30.9286 79.051 30.0386 78.9785 30.0242Z" fill="#F9AE5D"/>
<path d="M48.1923 50.9955C48.8535 52.2018 46.608 53.5375 45.3704 53.6973C42.481 54.0706 40.7044 54.5828 39.2217 56.6672C39.2442 56.9194 39.2765 57.1662 39.3186 57.4011C39.3616 57.6416 39.4149 57.8815 39.4852 58.1157C39.5133 58.2096 39.5642 58.4846 39.605 58.4582C39.6072 58.4525 39.6094 58.4476 39.6119 58.4413C39.7273 58.1526 39.8409 57.8632 39.972 57.5814C40.304 56.8675 40.7734 56.2011 41.4041 55.7214C41.9663 55.2938 42.6517 55.0663 43.3411 54.9466C44.0809 54.8189 44.8344 54.8603 45.5739 54.7394C46.0706 54.658 46.5655 54.529 47.0303 54.3343C48.0595 53.9028 48.9069 53.1319 49.5351 52.1993C49.0282 51.8774 48.5933 51.4395 48.1923 50.9955Z" fill="#736B57"/>
<path d="M63.0288 47.3262C63.0288 49.5972 61.5884 51.397 58.9996 51.397C56.2859 51.397 54.9707 49.5972 54.9707 47.3262C54.9707 45.0547 56.52 43.1715 58.9996 43.2136C61.3792 43.2537 63.0288 45.0547 63.0288 47.3262Z" fill="black"/>
<path d="M42.4537 46.2534C42.1565 47.9825 42.7137 49.4454 43.6649 49.6084C44.616 49.7718 45.6127 48.4855 45.9097 46.7564C46.2067 45.0273 45.9165 43.7319 44.992 43.4552C44.0108 43.1609 42.7507 44.5243 42.4537 46.2534Z" fill="black"/>
<path d="M43.1275 47.0982C43.0157 47.2455 43.0429 47.4016 43.1344 47.4928C43.2261 47.585 43.3824 47.6119 43.5292 47.5004C43.7526 47.2066 43.4209 46.8748 43.1275 47.0982Z" fill="white"/>
<path d="M44.9239 52.2018C45.0076 52.2074 44.9665 52.0408 45.1955 51.8835C45.2982 51.8128 45.4355 51.967 45.7591 51.7321C45.9047 51.6269 45.9752 51.3419 45.8007 51.1477C45.6679 50.9994 45.4323 50.9781 45.2738 51.0638C44.7392 51.3539 44.797 52.1937 44.9239 52.2018Z" fill="black"/>
<path d="M42.6209 57.0065C42.778 56.798 42.9287 56.5845 43.0635 56.3609C43.1131 56.2789 43.165 56.1879 43.2115 56.0996C42.9575 56.1566 42.7056 56.2305 42.4732 56.344C42.3873 56.3858 42.3048 56.4323 42.2256 56.483C42.3278 56.6821 42.4644 56.8506 42.6209 57.0065Z" fill="#F9AE5D"/>
<path d="M43.1988 50.638C41.4357 51.2242 40.5954 52.796 40.8728 53.0284C41.1842 53.2897 42.2254 52.0415 43.6732 51.449C43.9098 51.3519 43.9575 51.0099 43.8417 50.8063C43.7052 50.5666 43.4288 50.5345 43.1988 50.638Z" fill="#ABAF91"/>
<path d="M67.6657 55.8261C67.7826 57.7712 65.4417 59.9412 62.974 60.2413C60.0305 60.6002 58.4881 58.8603 58.2907 56.9221C58.0932 54.9836 60.2027 53.2745 62.6763 53.0228C65.1498 52.7711 67.5091 53.2271 67.6657 55.8261Z" fill="#F96B1D"/>
<path d="M40.422 53.9786C40.8252 53.9786 40.8257 53.3524 40.422 53.3524C40.0191 53.3524 40.0186 53.9786 40.422 53.9786Z" fill="#ABAF91"/>
<path d="M36.3476 99.4186C36.3494 99.4172 36.3513 99.4161 36.3531 99.4156C36.3545 99.4144 36.3561 99.4133 36.3577 99.4119C36.3536 99.4138 36.3499 99.4161 36.3467 99.4179C36.3469 99.4179 36.3474 99.4186 36.3476 99.4186Z" fill="black"/>
<path d="M62.6421 97.0835C62.6424 97.0835 62.6426 97.0835 62.6431 97.0835C62.6433 97.0842 62.6436 97.0842 62.6438 97.0847C62.6443 97.0847 62.645 97.0847 62.6458 97.0842C62.6453 97.0842 62.6453 97.0835 62.645 97.0835C62.6482 97.0835 62.6514 97.083 62.6546 97.083C62.6717 97.0798 62.6888 97.0761 62.7057 97.0722C62.705 97.071 62.6883 97.0734 62.6448 97.083C62.6389 97.0747 62.6343 97.069 62.6309 97.0661C62.635 97.0717 62.6389 97.0774 62.6431 97.0835C62.6426 97.0835 62.6424 97.0835 62.6421 97.0835Z" fill="black"/>
<path d="M62.478 96.7823C62.4966 96.8261 62.5309 96.8956 62.478 96.7823Z" fill="black"/>
<path d="M36.5557 83.6539C35.1178 83.9217 30.5973 93.2407 30.1433 94.4238C30.0936 94.9441 30.0701 95.4664 30.0782 95.9895C30.0807 96.1328 30.0856 96.2757 30.0924 96.419C30.2385 96.2187 30.3774 96.0139 30.5127 95.806C31.9622 93.5803 33.0951 91.1691 34.4171 88.8693C34.7109 88.0214 35.5684 86.4339 36.1584 85.5853C36.1472 85.552 36.8334 83.6018 36.5557 83.6539Z" fill="#736B57"/>
<path d="M50.5858 65.3185C48.3829 68.2877 45.9375 71.0332 43.1987 73.517C42.2383 74.388 41.2536 75.2322 40.3042 76.1161C38.9631 77.3635 37.7286 78.7212 36.5989 80.1629C35.4362 81.6471 34.4035 83.2367 33.502 84.892C32.499 86.7331 31.6066 88.654 30.9644 90.6524C30.8198 91.1026 30.6868 91.5586 30.5701 92.019C30.39 92.7292 30.1764 93.535 30.0764 94.2584C29.9379 95.2604 30.0845 96.4511 30.0764 96.5343C31.7018 87.4428 36.7432 81.7124 36.8685 81.5245C38.2463 79.7083 41.5714 76.5293 43.2252 74.9173C50.1966 68.1223 51.433 64.2768 51.4851 64.076C51.1891 64.4929 50.8904 64.9082 50.5858 65.3185Z" fill="#ABAF91"/>
<path d="M38.184 90.4802C37.366 92.4273 35.7102 97.1813 35.0903 96.4129C35.264 97.3053 35.5025 98.2227 35.9167 98.9285C36.0293 99.1196 36.2218 99.4119 36.3434 99.419C36.4564 99.4251 37.0372 98.5082 37.2245 98.1701C38.1686 96.466 38.8362 94.7156 39.4989 92.885C40.031 91.4157 42.1413 83.9638 43.0063 82.5001C43.0249 82.276 43.2483 80.4253 42.928 80.7417C40.1255 83.5078 39.5219 87.2955 38.184 90.4802Z" fill="#736B57"/>
<path d="M47.14 79.4578C44.2904 82.3335 42.8605 91.628 42.0605 92.1755C42.107 92.7272 42.1826 93.2776 42.2949 93.8188C42.3341 94.0066 42.3803 94.1926 42.4307 94.3775C42.4539 94.4626 42.4779 94.5478 42.5038 94.6322C42.5073 94.6437 42.5476 94.7645 42.5525 94.7613C42.7746 94.6104 42.9515 94.3792 43.1054 94.162C43.2669 93.9335 43.4061 93.6898 43.5352 93.4418C43.7855 92.9613 43.991 92.4591 44.2009 91.96C44.6111 90.9841 44.947 89.9804 45.2756 88.9752C45.6643 87.7853 45.9686 86.5633 46.3804 85.3822C46.4263 84.285 46.8819 82.2591 47.2647 81.0548C47.3983 80.6338 47.4047 79.1909 47.14 79.4578Z" fill="#736B57"/>
<path d="M47.8385 89.2626C47.9432 89.6979 48.0663 90.1419 48.3733 90.4814C48.4467 90.5622 48.5516 90.6385 48.6568 90.6084C48.7094 90.5935 48.7512 90.5546 48.7897 90.5159C49.0333 90.2698 49.2417 89.9841 49.4331 89.6873C49.5835 89.4537 49.7232 89.2132 49.8607 88.9796C49.9886 88.7629 50.1127 88.5437 50.234 88.3232C50.3438 88.1241 50.5153 87.8985 50.5814 87.6813C50.9019 86.6274 51.2612 85.5845 51.6526 84.5556C51.7918 84.1898 51.9313 83.8197 52.0746 83.4508C52.4626 80.9922 52.0519 79.1227 51.8677 79.6144C47.9848 89.9792 47.7328 88.825 47.8385 89.2626Z" fill="#736B57"/>
<path d="M73.7872 75.5566C73.285 76.0057 74.5492 76.9319 74.5492 76.9945C75.1342 77.7292 72.2127 78.8829 71.8188 79.0219C71.8727 79.2222 71.9245 79.4253 71.9722 79.63C72.1232 79.6016 72.2734 79.5718 72.4224 79.5334C72.6242 79.4808 72.8201 79.4209 73.0117 79.3543C73.0212 79.3499 73.0313 79.347 73.0406 79.3438C73.3018 79.2516 73.5528 79.1476 73.7933 79.0324C74.6897 78.604 75.4982 78.0404 76.2084 77.3622C75.666 77.2651 74.2481 76.3056 74.4052 76.037C74.5881 75.7239 75.4786 76.1804 77.3614 76.2587C78.3333 76.2988 79.374 76.3996 80.1182 75.6581C80.5201 75.2574 80.7569 74.6954 80.7633 74.1281C80.7662 73.8074 80.6642 73.5525 80.4631 73.3127C79.6915 75.9808 74.9771 74.4919 73.7872 75.5566Z" fill="#736B57"/>
<path d="M50.3605 100.42C50.3747 100.522 50.3647 100.452 50.3605 100.42V100.42ZM50.2871 99.8373C50.3182 100.172 50.359 100.505 50.4129 100.837C50.5364 101.598 50.6756 102.634 51.135 103.278C51.2116 103.186 51.2732 103.083 51.3344 102.978C52.1574 101.571 52.6442 100.021 53.156 98.4339C53.6726 96.8312 54.1468 95.2029 54.4866 93.5514C54.4924 92.7465 54.7782 91.2599 55.0663 90.2546C55.186 89.8375 55.2892 88.1442 55.0725 88.0169C54.5971 87.7376 51.8158 99.9161 50.2871 99.8373Z" fill="#736B57"/>
<path d="M50.3603 100.42C50.3744 100.522 50.3644 100.452 50.3603 100.42V100.42ZM51.2728 97.1814C51.4851 92.9853 53.132 87.0976 53.6839 85.5753C55.093 81.6885 56.7463 80.1015 58.4123 77.537C59.4693 75.9106 62.984 70.2517 62.5457 67.8718C62.1895 67.9907 61.9832 68.2344 61.753 68.4612C61.7384 69.5045 60.5438 72.5405 57.3559 76.9985C57.3302 77.0484 57.2979 77.0942 57.2603 77.135C56.4943 78.2259 55.7203 79.3113 54.9876 80.4159C53.8441 82.1408 53.1215 84.1028 52.4363 86.0462C51.6497 88.2763 51.0203 90.5659 50.6225 92.8987C50.3334 94.5936 50.1746 96.3308 50.1993 98.0699C50.2123 98.9949 50.2644 99.9225 50.4126 100.837C50.5362 101.598 50.6754 102.634 51.1348 103.278C51.1519 103.257 51.1683 103.236 51.184 103.214C50.9552 101.222 51.1698 99.2197 51.2728 97.1814Z" fill="#ABAF91"/>
<path d="M94.5133 62.2735C94.3973 62.1414 94.2721 62.0149 94.1395 61.8965C90.822 63.4153 85.3091 67.5905 84.6945 68.8318C84.5918 69.0397 85.937 68.5607 86.6066 68.2363C88.2724 66.8654 91.4064 64.8982 93.3427 64.0966C93.9303 63.8529 94.5916 63.5855 95.2548 63.4791C95.0606 63.0356 94.8152 62.618 94.5133 62.2735Z" fill="#736B57"/>
<path d="M83.0877 67.3082C82.9625 67.5668 83.9834 66.7145 84.2395 66.3367C85.1138 65.0942 86.6888 63.2179 87.6816 62.3712C88.505 61.6691 89.3774 61.0066 90.32 60.4706C90.3863 60.4329 90.4548 60.394 90.5242 60.3546C90.1458 60.2174 89.7443 60.1423 89.3448 60.1486C86.9946 61.993 84.3985 64.5983 83.0877 67.3082Z" fill="#736B57"/>
<path d="M70.949 74.8997C70.9622 75.206 71.3592 75.3513 71.5853 75.5566C72.167 74.7162 71.4493 72.3227 70.9678 70.6949C70.7073 69.8157 70.2006 68.5712 69.9526 68.7486C69.5254 69.0534 70.8338 72.1935 70.949 74.8997Z" fill="#736B57"/>
<path d="M70.1517 77.8332C69.761 76.6509 69.2825 75.4967 68.9155 74.3067C68.5148 73.7455 67.3912 71.0658 67.2635 71.6713C67.1439 72.2356 68.1195 74.2598 68.5579 76.076C68.8835 77.3422 69.9144 79.243 69.5205 81.4279C69.5205 81.4279 69.9694 82.6386 70.0259 82.7944C70.0986 82.9963 70.2231 83.6695 70.535 83.3764C70.8951 83.0376 70.9678 82.3937 70.9815 81.9404C71.0228 80.5631 70.5957 79.1765 70.1517 77.8332Z" fill="#736B57"/>
<path d="M66.3303 90.2202C66.4749 90.7168 66.6126 91.1126 66.7029 91.2048C66.9715 91.4783 67.4351 91.1126 67.6486 90.9154C67.9121 90.6718 68.1012 90.3586 68.2517 90.0355C68.2536 90.0311 68.2549 90.0279 68.2566 90.0242C68.2573 90.0223 68.2578 90.021 68.2593 90.0193C68.3894 89.6874 68.4885 89.3453 68.5629 88.9965C68.6556 88.565 68.6575 88.3778 68.7145 87.9888C69.0595 85.6371 68.2353 81.2752 68.1866 81.1091C67.8695 80.0288 67.3424 77.9095 67.1224 76.657C67.0429 76.2005 66.2545 74.886 66.0666 74.886C65.3958 74.886 69.1847 88.7059 66.3303 90.2202Z" fill="#736B57"/>
<path d="M58.4752 94.9894C58.1659 97.6484 57.6821 102.171 56.3965 102.601C56.6206 103.804 57.0196 105.19 57.6657 104.736C58.1469 104.398 58.3988 103.793 58.5933 103.259C58.9326 102.326 59.1389 101.345 59.3101 100.369C59.8706 97.1757 60.2862 93.8638 60.2126 90.5979C60.1982 89.954 60.0876 87.2048 60.1952 85.8864C60.2216 85.5628 59.6771 83.8479 59.4564 83.9876C58.8301 84.3846 58.8509 91.4197 58.4752 94.9894Z" fill="#736B57"/>
<path d="M62.1619 95.7113C62.2059 95.9011 62.2546 96.0902 62.3099 96.2769C62.3625 96.4616 62.4185 96.6446 62.5015 96.818C62.5352 96.8887 62.5878 97.0472 62.6659 97.0773C62.7764 97.1192 62.9501 96.9795 63.034 96.9213C63.1554 96.8374 63.2606 96.7309 63.3501 96.6133C63.5512 96.3483 63.6985 96.0283 63.8117 95.7169C63.8736 95.5447 63.9289 95.37 63.9791 95.1941C64.0916 94.7951 64.1775 94.3888 64.2469 93.9805C64.3742 93.2363 64.4529 92.3434 64.4938 91.4747C64.5488 90.2948 64.5256 89.1173 64.4957 87.9374C64.4906 87.9113 64.4857 87.8848 64.4806 87.8587C64.1625 86.1858 63.5713 82.9405 63.3978 81.3371C63.354 80.9296 62.2974 79.3419 62.3371 79.8336C63.5994 95.5166 62.0738 95.3311 62.1619 95.7113Z" fill="#736B57"/>
<path d="M97.3577 66.9617C97.3021 66.514 97.1637 66.0769 96.9538 65.6779C93.2776 66.5759 89.5068 68.2475 86.2188 70.2829C86.2188 70.2829 83.442 69.8445 81.0034 72.1522C81.2339 72.3264 81.4298 72.5074 81.5587 72.6853C81.9859 72.1705 82.4668 71.6989 83.0657 71.4151C83.8121 71.0614 84.7234 70.9493 85.483 71.3312C85.6195 71.3994 85.7455 71.4878 85.8582 71.5898C88.2711 70.0079 91.1463 69.1869 93.9308 68.5455C94.834 68.3371 95.7477 68.1641 96.6458 67.9324C96.8699 67.8742 97.1938 67.851 97.3046 67.6237C97.3102 67.6125 97.3151 67.6012 97.3195 67.5887C97.3917 67.3901 97.3841 67.1716 97.3577 66.9617Z" fill="#736B57"/>
<path d="M82.07 75.7075C81.4594 76.6232 82.6625 78.2133 82.1001 78.8251C82.6681 79.4309 83.2262 79.1997 83.2443 79.1965C82.2567 77.7492 82.1089 76.1045 82.2975 75.8085C82.243 75.754 82.1064 75.6713 82.07 75.7075Z" fill="#D97254"/>
<path d="M84.8957 77.1869C84.6107 77.0166 84.3441 76.8231 84.1491 76.5493C83.7721 76.0182 83.6652 75.3 83.8692 74.6818C83.9913 74.3116 84.1819 73.9792 84.4167 73.6704C84.6158 73.4092 84.9928 73.1655 85.1186 72.8612C85.1274 72.8406 85.1337 72.8211 85.1381 72.8017C85.1856 72.575 84.9407 72.4348 84.746 72.3827C84.7191 72.3753 84.6929 72.3697 84.6658 72.3641C84.1121 73.4774 82.5391 73.9948 83.025 75.5123C83.2128 76.2012 83.8391 76.7022 84.2149 77.3285C84.4236 77.6622 84.2983 78.0788 84.0069 78.3937C84.1718 78.4927 84.3553 78.5578 84.5613 78.5759C85.0442 78.6192 85.5557 78.2809 85.6805 77.7994C85.7512 77.5252 85.0699 77.2903 84.8957 77.1869Z" fill="#D97254"/>
<path d="M78.2471 82.0413C78.6172 82.5391 79.1033 82.464 79.119 82.4953C78.9029 82.0694 78.7488 80.8851 78.8352 80.3608C78.7412 81.8915 78.7143 82.427 78.2471 82.0413Z" fill="#D97254"/>
<path d="M81.0778 81.6001C80.759 81.3865 80.5347 81.0962 80.4026 80.7361C80.1653 80.0885 80.3424 79.4302 80.601 78.822C80.3399 78.3318 80.1484 77.7843 80.0449 77.2363C79.9705 77.2703 79.8947 77.3021 79.8181 77.3278C79.7743 77.3434 79.7293 77.3559 79.6843 77.3691C79.4162 77.7581 79.6961 78.4289 79.9253 78.8296C80.1132 79.1427 79.6033 79.5686 79.7269 80.1154C79.8553 80.6859 80.4985 81.9942 79.9529 82.0135C80.0814 82.1183 80.2303 82.2195 80.4062 82.3154C80.6499 82.4483 80.7676 82.529 81.0296 82.4138C81.2018 82.3387 81.389 82.1965 81.4178 81.9986C81.4528 81.763 81.2488 81.7148 81.0778 81.6001Z" fill="#D97254"/>
<path d="M50.3604 100.42C50.3645 100.452 50.3745 100.522 50.3604 100.42Z" fill="black"/>
<path d="M78.2759 77.6522C78.1671 77.6497 77.7005 77.5064 77.5927 77.5007C77.4217 77.6999 77.2169 77.9051 76.9896 78.1106C77.3441 78.732 76.8181 79.3964 76.208 79.9393C76.687 79.7377 77.1198 79.4221 77.4412 79.0926C78.1162 78.3993 78.2723 77.6517 78.2759 77.6522Z" fill="#736B57"/>
<path d="M85.69 77.7368C85.6892 77.7356 85.6892 77.7344 85.6887 77.7329C85.6887 77.7324 85.6887 77.7317 85.688 77.7312C85.6851 77.7236 85.6819 77.7167 85.6787 77.7099C85.6807 77.7204 85.6836 77.7356 85.6875 77.7493C85.688 77.7449 85.6887 77.7412 85.69 77.7368Z" fill="black"/>
<path d="M56.1047 71.6888C56.4545 72.1642 55.5604 72.4134 55.2096 71.9381C53.9035 70.1682 54.0634 68.1849 54.4671 68.3163C54.6552 68.3772 54.676 69.7506 56.1047 71.6888Z" fill="#ABAF91"/>
<path d="M90.3466 62.2097C90.5778 62.0424 90.9579 62.0548 91.1715 62.3185C91.3907 62.5903 91.3481 62.9316 91.1089 63.1227C89.9251 64.0653 87.7432 64.9327 87.6769 64.8099C87.6223 64.7091 88.9945 63.1865 90.3466 62.2097Z" fill="#ABAF91"/>
<path d="M93.1024 65.7831C93.3052 65.6842 93.5645 65.5815 93.6597 65.7863C93.7581 65.9966 93.5225 66.2026 93.3084 66.3174C92.2494 66.8847 90.8708 67.4009 90.8503 67.3086C90.8334 67.2323 91.9142 66.3604 93.1024 65.7831Z" fill="#ABAF91"/>
<path d="M54.4674 67.2529C54.8733 66.8052 54.1778 66.174 53.7714 66.6222C53.3653 67.0706 54.0608 67.702 54.4674 67.2529Z" fill="#ABAF91"/>
<path d="M75.5227 67.2399C75.6944 67.5303 76.0606 67.6514 76.3796 67.4648C76.6426 67.3111 76.7896 66.8935 76.6044 66.608C75.0718 64.2483 72.7622 63.7747 72.6044 64.0452C72.4459 64.3158 74.0906 64.8217 75.5227 67.2399Z" fill="#ABAF91"/>
<path d="M97.3196 67.5888C97.3152 67.6013 97.3103 67.6125 97.3047 67.6238C97.1938 67.851 96.8699 67.8743 96.6459 67.9325C95.7478 68.1642 94.8341 68.3371 93.9309 68.5456C91.1464 69.187 88.2712 70.008 85.8583 71.5898C85.7455 71.4878 85.6196 71.3995 85.483 71.3312C84.7234 70.9494 83.8122 71.0614 83.0658 71.4152C82.4669 71.6989 81.9859 72.1706 81.5588 72.6853C80.9081 71.7877 78.5796 70.8146 78.4977 71.1121C78.3861 71.5191 79.9405 72.7103 80.4423 73.2871C80.6576 73.5352 80.7659 73.7957 80.763 74.1282C80.7566 74.6955 80.5198 75.2574 80.1179 75.6582C79.3737 76.3996 78.333 76.2989 77.3611 76.2587C75.4783 76.1805 74.5879 75.724 74.4049 76.0371C74.2478 76.3057 75.6657 77.2652 76.2081 77.3623C75.4979 78.0404 74.6894 78.6041 73.793 79.0324C73.5526 79.1477 73.3016 79.2516 73.0403 79.3439C73.031 79.347 73.021 79.35 73.0114 79.3544C72.8199 79.4209 72.6239 79.4809 72.4221 79.5335C72.2731 79.5719 72.1229 79.6017 71.972 79.6301C71.8748 79.213 71.7608 78.8027 71.6437 78.4069C71.481 77.854 71.2943 77.3097 71.0996 76.7678C71.2317 76.8468 71.3701 76.9087 71.5147 76.9445C72.4084 77.1676 72.8419 76.2149 72.8732 75.4996C73.0254 71.9631 70.8447 68.9915 70.6355 69.0935C70.2866 69.2641 72.4823 74.2598 71.5849 75.5566C71.3589 75.3514 71.1483 75.1322 70.9486 74.8998C70.3216 74.1715 69.7993 73.361 69.1826 72.6246C69.0189 72.4292 68.1534 71.2305 67.8278 71.3733C67.5142 71.5103 68.434 73.6323 68.9157 74.3068C69.2827 75.4967 69.7612 76.6509 70.1519 77.8332C70.5959 79.1765 71.023 80.5631 70.9817 81.9404C70.968 82.3938 70.8953 83.0376 70.5352 83.3765C70.2233 83.6695 70.0988 82.9963 70.0261 82.7945C69.7957 82.1565 67.3287 75.449 67.055 75.6689C66.837 75.8436 67.7295 79.5535 68.1862 81.1092C68.2349 81.2753 69.0591 85.6372 68.7141 87.9889C68.6571 88.3778 68.6552 88.565 68.5624 88.9965C68.4881 89.3454 68.389 89.6874 68.2588 90.0194C68.2574 90.0211 68.2569 90.0223 68.2562 90.0242C68.2544 90.0279 68.2532 90.0311 68.2513 90.0355C68.1008 90.3587 67.9117 90.6718 67.6482 90.9155C67.4347 91.1126 66.9711 91.4784 66.7025 91.2049C66.4708 90.9685 65.9233 88.7304 65.7643 87.9199C65.2953 85.5383 63.7101 80.275 63.3964 80.396C63.1286 80.4993 64.0513 85.6054 64.4804 87.8587C64.4856 87.8849 64.4905 87.9113 64.4956 87.9375C64.5254 89.1174 64.5487 90.2948 64.4936 91.4747C64.4528 92.3434 64.374 93.2363 64.2468 93.9805C64.1773 94.3888 64.0914 94.7952 63.9789 95.1942C63.9288 95.3701 63.8735 95.5447 63.8116 95.717C63.6983 96.0284 63.551 96.3484 63.35 96.6133C63.2604 96.731 63.1552 96.8374 63.0339 96.9213C62.95 96.9795 62.7763 97.1192 62.6657 97.0774C62.5877 97.0473 62.5351 96.8888 62.5013 96.8181C62.4184 96.6446 62.3624 96.4616 62.3098 96.2769C62.2545 96.0903 62.2058 95.9012 62.1617 95.7113C62.0737 95.3312 62.0047 94.9473 61.9408 94.5623C61.7786 93.5847 61.738 92.6715 61.5697 91.657C61.0917 88.7761 60.6653 85.096 60.3695 85.1775C60.0084 85.2766 60.1934 89.7532 60.2122 90.5979C60.2859 93.8638 59.8702 97.1757 59.3098 100.369C59.1385 101.345 58.9323 102.326 58.593 103.259C58.3985 103.793 58.1465 104.398 57.6653 104.736C56.6457 105.453 56.2408 101.587 56.1696 101.087C56.1429 100.901 56.1478 100.936 56.1261 100.763C55.9697 99.5299 55.8758 98.2891 55.8178 97.0478C55.765 95.9181 55.7295 94.7776 55.7405 93.639C55.7444 93.5977 55.7449 93.5563 55.742 93.5164C55.7552 92.4767 55.8932 89.3153 55.5414 89.2189C55.2434 89.1367 54.496 92.2443 54.4862 93.5514C54.1464 95.203 53.6723 96.8313 53.1557 98.4339C52.6439 100.021 52.1571 101.571 51.3341 102.978C51.2729 103.083 51.2113 103.186 51.1347 103.278C50.6753 102.634 50.5361 101.598 50.4125 100.837C50.2643 99.9225 50.2122 98.9949 50.1992 98.0699C50.1745 96.3308 50.3333 94.5936 50.6224 92.8987C51.0202 90.5659 51.6497 88.2763 52.4362 86.0462C53.1214 84.1028 53.8441 82.1408 54.9875 80.4159C55.7202 79.3113 56.4942 78.2259 57.2602 77.135C57.2979 77.0942 57.3302 77.0484 57.3558 76.9985C61.1803 71.65 62.1361 68.3484 61.6275 68.0783C61.3674 67.9406 59.0289 72.2031 57.8877 73.976C57.5002 74.5778 57.1 75.1716 56.6946 75.7609C54.0173 73.2225 52.3307 69.7511 52.5247 66.0388C52.5485 65.5832 52.5822 65.2789 52.6515 64.8902C52.6999 64.6177 52.7608 64.3483 52.8327 64.0817C53.3824 64.1548 54.2333 64.262 54.5317 64.2837C56.1955 64.4711 57.8877 64.5293 59.573 64.4479C59.6909 64.4423 59.8086 64.4361 59.9265 64.429C60.7047 64.3828 61.4821 64.317 62.2513 64.1998C62.8255 64.113 63.4921 64.0002 64.0163 63.8906C65.4367 63.5924 67.3219 62.9372 68.3051 62.5923C68.9602 62.3406 69.5596 62.0881 70.0036 61.8741C70.0792 61.8371 70.157 61.7975 70.2353 61.7561C70.2534 61.7618 70.2715 61.7662 70.2903 61.7693C71.6512 61.9878 72.9989 62.3274 74.1632 62.9573C75.4101 63.6332 76.4317 64.5969 77.2872 65.7555C77.9316 66.6286 78.4788 67.5692 78.9767 68.5324C79.1721 68.9101 79.6751 68.912 79.9606 68.6591C80.4115 68.2588 80.8056 67.7823 81.2107 67.3375C81.9077 66.5716 82.6017 65.8032 83.3055 65.0436C84.0972 64.1881 84.8981 63.3402 85.7274 62.5209C86.1049 62.1471 86.489 61.7786 86.8853 61.4242C87.3702 60.9897 87.8893 60.5055 88.5161 60.29C89.17 60.0652 89.8809 60.121 90.524 60.3546C90.4546 60.394 90.3861 60.4329 90.3198 60.4706C89.3772 61.0066 88.5048 61.669 87.6814 62.3712C86.1852 63.6482 83.362 67.2656 83.6187 67.523C83.8386 67.7427 88.2105 63.2511 90.5253 61.807C90.8176 61.6248 91.117 61.4525 91.4258 61.2989C91.7646 61.1299 92.0728 61.0041 92.4611 61.0604C93.2689 61.1781 93.9859 61.6717 94.5133 62.2735C94.8152 62.618 95.0606 63.0356 95.2548 63.4791C94.5916 63.5855 93.9304 63.8529 93.3428 64.0966C90.492 65.2765 85.0447 68.9835 85.5087 69.5941C85.6797 69.8189 90.5627 66.7281 93.0673 65.5732C93.867 65.205 94.7088 64.8449 95.5841 64.7084C95.7896 64.6759 96.01 64.6595 96.1967 64.7505C96.5512 64.9227 96.7767 65.3415 96.9526 65.676C97.1638 66.0757 97.3022 66.5134 97.3577 66.9618C97.3842 67.1717 97.3918 67.3901 97.3196 67.5888ZM85.1381 72.8018C85.1337 72.8211 85.1273 72.8407 85.1185 72.8612C84.9928 73.1655 84.6158 73.4092 84.4167 73.6705C84.1818 73.9792 83.9912 74.3117 83.8692 74.6818C83.6651 75.3 83.772 76.0183 84.149 76.5494C84.344 76.8231 84.6107 77.0166 84.8957 77.1869C85.0699 77.2904 85.7512 77.5252 85.6805 77.7995C85.5557 78.2809 85.0442 78.6192 84.5612 78.5759C83.0249 78.4402 82.7074 75.6958 82.3541 75.7609C82.0887 75.8103 82.1689 77.6209 83.2441 79.1966C83.2197 79.201 82.1951 79.6301 81.5045 77.7907C81.413 77.5477 81.3391 77.2977 81.2895 77.0428C81.2652 76.9188 81.2464 76.7942 81.2332 76.6683C81.2268 76.6039 81.1725 76.3527 81.2131 76.3033C81.7205 75.677 82.0461 74.8734 82.0381 74.1005C82.68 73.2409 83.6167 72.0784 84.746 72.3827C84.9407 72.4348 85.1856 72.575 85.1381 72.8018ZM81.4174 81.9987C81.3885 82.1966 81.2014 82.3387 81.0292 82.4138C80.7672 82.529 80.6495 82.4483 80.4058 82.3155C78.7976 81.438 79.3375 80.1054 78.9818 80.1054C78.6618 80.1054 78.8372 81.9417 79.1183 82.4953C79.0938 82.4471 77.9597 82.6519 77.8425 80.6409C77.8364 80.5338 77.845 80.4266 77.8545 80.3202C77.8589 80.2681 77.8545 80.0533 77.8939 80.0208C78.1982 79.769 78.4744 79.4716 78.698 79.1704C79.0733 78.665 79.2661 78.0488 79.4151 77.4394C79.5523 77.4093 79.6868 77.3728 79.8177 77.3278C79.8943 77.3021 79.9701 77.2703 80.0445 77.2363C80.148 77.7843 80.3395 78.3318 80.6006 78.8221C80.342 79.4302 80.1649 80.0885 80.4022 80.7361C80.5343 81.0962 80.7586 81.3866 81.0774 81.6002C81.2484 81.7149 81.4524 81.7631 81.4174 81.9987ZM77.4406 79.0926C76.7292 79.8229 75.4695 80.4885 74.3719 79.9794C75.3864 79.3977 76.8324 78.3881 77.592 77.5008C77.6999 77.5064 78.1664 77.6497 78.2753 77.6522C78.2716 77.6517 78.1155 78.3993 77.4406 79.0926ZM49.433 89.6874C49.2417 89.9841 49.0333 90.2699 48.7896 90.516C48.7512 90.5546 48.7094 90.5935 48.6568 90.6084C48.5516 90.6385 48.4466 90.5622 48.3732 90.4815C48.0662 90.1419 47.9432 89.6979 47.8385 89.2627C47.6988 88.6834 47.6594 88.0916 47.633 87.4991C47.5809 86.3256 47.642 85.1462 47.7572 83.9783C47.8627 82.9112 48.0452 80.1441 47.7203 80.0814C47.4326 80.0259 46.4482 83.7427 46.3797 85.3823C45.968 86.5634 45.6636 87.7853 45.2749 88.9752C44.9464 89.9805 44.6105 90.9842 44.2002 91.9601C43.9903 92.4591 43.7848 92.9614 43.5346 93.4418C43.4054 93.6899 43.2662 93.9336 43.1047 94.162C42.9509 94.3793 42.774 94.6105 42.5519 94.7614C42.547 94.7646 42.5066 94.6437 42.5032 94.6322C42.4772 94.5478 42.4533 94.4627 42.43 94.3776C42.3796 94.1926 42.3334 94.0067 42.2942 93.8188C41.1897 88.4967 43.5872 82.3243 43.2559 82.2509C42.6614 82.1195 40.0932 91.2423 39.4985 92.885C38.8358 94.7157 38.1682 96.466 37.2241 98.1702C37.0367 98.5083 36.456 99.4252 36.3429 99.4191C36.2214 99.412 36.0288 99.1196 35.9163 98.9286C35.4747 98.1758 35.2328 97.1826 35.0562 96.2356C34.8624 95.1966 34.765 94.1263 34.7839 93.0524C34.8059 91.7998 35.1051 90.5204 35.5709 89.3591C35.5802 89.3361 35.5878 89.3133 35.5941 89.2903C35.9897 88.1317 37.0284 85.2064 36.7148 85.0229C36.4469 84.8663 34.8419 87.642 34.4167 88.8693C33.0947 91.1692 31.9617 93.5803 30.5123 95.806C30.377 96.014 30.238 96.2187 30.092 96.4191C30.0851 96.2757 30.0802 96.1328 30.0778 95.9895C30.0685 95.3833 30.1013 94.7776 30.1683 94.1753C30.3019 92.9785 30.5967 91.7971 30.9643 90.6525C31.6065 88.654 32.499 86.7331 33.502 84.892C34.4035 83.2368 35.4361 81.6471 36.5988 80.1629C37.7286 78.7213 38.963 77.3635 40.3041 76.1161C41.2536 75.2322 42.2382 74.388 43.1987 73.5171C45.9374 71.0333 48.3828 68.2877 50.5857 65.3185C50.9192 64.8694 51.2463 64.4146 51.5697 63.9581C50.712 67.3789 51.6225 71.1666 53.5779 74.0467C54.2644 75.0576 55.0722 75.9781 55.9727 76.8011C55.4198 77.592 54.8627 78.38 54.317 79.1753C53.905 79.7766 53.4869 80.3816 53.1454 81.026C52.5521 82.1469 52.103 83.3721 51.6526 84.5556C51.2612 85.5846 50.9018 86.6275 50.5813 87.6814C50.5153 87.8986 50.3438 88.1241 50.234 88.3233C50.1126 88.5437 49.9886 88.7629 49.8606 88.9796C49.7232 89.2133 49.5835 89.4538 49.433 89.6874ZM49.2718 61.8452C48.7079 61.6353 48.156 61.3968 47.62 61.1255C47.2254 60.9263 46.8411 60.7084 46.4692 60.4706C47.505 60.064 48.4554 59.4389 49.17 58.5966C50.0155 57.5997 50.5307 56.3741 50.733 55.0883C50.7382 55.0562 50.7438 55.0249 50.7484 54.9931C50.8781 54.0982 50.8996 53.1838 50.77 52.2877C50.8145 52.2087 50.8495 52.1228 50.8563 52.032C50.8788 51.7698 50.7027 51.5518 50.4558 51.4596C50.0238 51.2974 49.6468 50.9625 49.3109 50.606C49.1311 50.415 48.9628 50.2178 48.8048 50.0375C48.3427 49.5113 47.8664 49.0103 47.2266 48.6979C47.1097 48.6409 46.991 48.5915 46.8717 48.5474C46.7307 48.4956 46.5886 48.4518 46.445 48.4173C45.4354 48.1729 44.3702 48.3422 43.3966 48.7466C42.8677 48.9665 42.3647 49.2383 41.8845 49.5477C41.8378 49.5778 41.7923 49.6091 41.746 49.6397C41.3805 49.8827 41.0278 50.1456 40.6887 50.4245C40.7342 50.1677 40.8029 49.9127 40.9027 49.661C41.0334 49.331 41.2293 49.0272 41.4454 48.7453C41.4642 48.7209 41.4828 48.6966 41.5016 48.6722C41.5129 48.6582 41.5236 48.6441 41.5349 48.6296C41.5713 48.5844 41.6078 48.5393 41.6445 48.4943C41.9483 48.1218 42.2708 47.7558 42.4283 47.2937C42.5372 46.9744 42.5741 46.6229 42.6509 46.2941C42.7498 45.8713 42.8608 45.4513 42.9831 45.0347C43.2828 44.0138 43.6486 42.9949 44.0821 42.0012C44.128 41.8952 44.174 41.7893 44.2217 41.6848C44.7639 40.4886 45.4077 39.3331 46.1585 38.2621C46.7701 37.3897 47.4524 36.5731 48.2103 35.8361C48.4537 35.5992 49.0612 35.1109 49.0964 35.0845C51.9719 32.9214 55.4951 31.8211 58.9609 31.0262C62.3127 30.2578 65.7266 29.8319 69.0943 29.1474C70.3605 28.8893 71.6292 28.5926 72.8206 28.0815C74.732 27.2625 76.5318 26.0819 78.1231 24.7518C78.2861 24.615 78.4463 24.4761 78.6053 24.3359C78.2909 25.721 77.5257 26.9775 76.4887 28.014C75.3357 29.1655 73.9014 30.0562 72.3565 30.5421C67.8373 31.9652 64.0183 32.1499 63.965 32.4048C63.8911 32.7553 68.4793 32.9046 73.4413 31.7396C73.9616 31.6175 74.4788 31.4842 74.9913 31.3318C75.7509 31.1065 76.4985 30.8435 77.2439 30.5761C77.5676 30.4601 77.8946 30.3513 78.2127 30.2228C78.4382 30.1314 78.7262 29.9736 78.9781 30.0242C79.0505 30.0386 78.5892 30.9286 78.5534 30.9949C78.2885 31.4815 78.0067 31.9219 77.6165 32.3226C77.386 32.5589 77.3021 32.6232 77.0665 32.7842C76.7047 33.0323 76.3277 33.2595 75.9363 33.4582C74.8159 34.0255 73.7047 34.1715 72.5243 34.3005C70.8696 34.4808 68.9634 34.1175 68.8695 34.4583C68.7841 34.7689 71.1409 35.5699 73.4882 35.5655C73.9491 35.565 74.4112 35.5278 74.8721 35.5435C74.9235 35.5454 75.4346 35.5674 75.4152 35.7132C75.4108 35.747 75.5322 36.1925 74.3454 36.7349C72.5373 37.5615 69.9848 36.7598 69.8864 37.038C69.7761 37.3491 70.9367 38.0324 71.2799 38.0975C71.5842 38.4351 71.8785 38.7808 72.1603 39.1365C74.1194 41.6134 75.4571 44.6315 75.7954 47.7822C75.9918 49.6096 75.8837 51.4608 75.5016 53.2577C75.3519 53.9603 75.1696 54.6506 74.9103 55.3212C74.856 55.4621 74.7063 55.7865 74.5827 56.0221C74.4433 56.2882 74.2904 56.548 74.125 56.7998C73.4298 57.8576 72.4265 58.8195 71.3313 59.5754C69.8106 60.6257 68.1064 61.3899 66.3612 61.9817C66.1963 62.0375 66.0304 62.0906 65.8646 62.1419C65.5952 62.2253 65.3247 62.3041 65.0521 62.3768C63.6345 62.7565 62.175 62.9938 60.7069 63.1171C60.3632 63.1464 60.019 63.1692 59.6748 63.186C58.7787 63.2306 57.8823 63.2347 56.9933 63.2073C55.7544 63.1679 54.4943 63.0625 53.2479 62.8641C52.3599 62.7225 51.4792 62.5321 50.618 62.2853C50.1633 62.1551 49.7136 62.0098 49.2718 61.8452ZM42.1051 59.0563C42.1037 58.8259 43.7939 57.2915 44.256 55.923C44.3605 55.9174 44.6479 55.913 44.7521 55.9061C44.6053 56.4179 44.3179 56.8913 44.0138 57.3216C43.8465 57.5577 43.1126 58.0217 43.4807 58.3143C43.6816 58.4738 44.7333 58.5022 45.4718 58.2715C46.1099 58.0724 46.6219 57.601 47.0265 57.0711C47.4563 56.5074 47.7149 55.8518 47.8299 55.1622C48.5562 54.7972 49.2124 54.3018 49.7608 53.6973C49.7579 53.9096 49.7481 54.122 49.7302 54.3336C49.7033 54.6575 49.6965 54.7062 49.6419 55.0049C49.5925 55.2769 49.5292 55.5455 49.4504 55.8097C49.2784 56.3871 49.079 56.8382 48.7307 57.3691C47.9601 58.5428 46.6796 59.3401 45.2815 59.7019C43.7312 60.1029 42.1059 59.1972 42.1051 59.0563ZM43.2111 56.0996C43.1647 56.1879 43.1128 56.2789 43.0631 56.3609C42.9283 56.5845 42.7777 56.7973 42.6206 57.0065C42.464 56.8507 42.3275 56.6821 42.2253 56.483C42.3045 56.4323 42.387 56.3859 42.4728 56.344C42.7052 56.2305 42.9572 56.1566 43.2111 56.0996ZM47.1256 55.4665C46.9504 56.1028 46.6167 56.6877 46.1199 57.1401C45.8241 57.4092 45.4711 57.6235 45.09 57.7468C44.8999 57.8082 44.7037 57.852 44.5041 57.8671C44.4749 57.8688 44.4302 57.8732 44.3786 57.8777C44.5307 57.6748 44.6773 57.4681 44.8106 57.2526C45.0797 56.8169 45.2984 56.3484 45.4068 55.8511C45.8469 55.8041 46.2831 55.731 46.7151 55.603C46.8538 55.5624 46.9903 55.5159 47.1256 55.4665ZM41.4043 55.7214C40.7736 56.2012 40.3041 56.8675 39.9721 57.5814C39.841 57.8632 39.7275 58.1526 39.612 58.4413C39.6096 58.4477 39.6074 58.4525 39.6052 58.4582C39.5643 58.4846 39.5135 58.2096 39.4853 58.1157C39.4151 57.8816 39.3618 57.6416 39.3187 57.4011C39.1428 56.4172 39.1306 55.2312 39.3417 54.2103C39.4513 53.6799 39.5952 53.2171 39.8758 52.7743C39.9313 52.686 40.3888 52.2018 40.6451 51.9244C41.1378 51.4535 41.6562 51.0239 42.2133 50.6425C42.3221 50.5679 42.4317 50.4945 42.5438 50.4245C42.7248 50.3098 42.909 50.1997 43.0989 50.0962C44.0013 49.6052 45.0709 49.2371 46.0737 49.443C46.2542 49.4807 46.4328 49.5358 46.6077 49.6128C46.6544 49.6334 46.6994 49.6554 46.744 49.6786C47.3252 49.9785 47.7254 50.4752 48.1592 50.9586C48.569 51.4153 49.0144 51.8686 49.5353 52.1994C48.907 53.1319 48.0596 53.9028 47.0304 54.3343C46.5656 54.5291 46.0707 54.658 45.5741 54.7394C44.8346 54.8603 44.0811 54.8189 43.3413 54.9466C42.6519 55.0663 41.9664 55.2938 41.4043 55.7214ZM97.3991 64.1347C97.1743 63.8855 96.9208 63.6964 96.6331 63.578C96.2018 62.331 95.4616 61.202 94.3335 60.4767C93.7085 60.0747 92.897 59.7577 92.1328 59.7822C90.881 58.9149 89.2588 58.5854 87.8272 59.2053C86.923 59.5967 86.1531 60.3796 85.4468 61.0484C83.7495 62.6562 82.1858 64.4029 80.615 66.1327C80.3026 66.4764 79.9963 66.839 79.6744 67.1829C78.9084 65.7983 78.0059 64.4675 76.8544 63.38C75.7658 62.3523 74.4746 61.6023 73.0555 61.1306C72.6408 60.9921 72.2181 60.8794 71.7917 60.7837C72.6922 60.1454 73.5269 59.4384 73.9692 58.9793C74.9042 58.0085 75.6349 56.8788 76.1298 55.6255C76.7705 54.0028 77.0391 52.1781 77.1235 50.4451C77.297 46.8973 76.3546 43.3658 74.5101 40.3371C74.068 39.6113 73.5782 38.9156 73.0491 38.2509C74.3036 38.2122 75.4996 37.81 76.2695 36.7216C76.5782 36.2852 76.7678 35.7597 76.5944 35.2311C76.5185 35.0018 76.3965 34.8277 76.2424 34.6956C76.9726 34.365 77.7136 33.9384 78.3078 33.3968C78.7851 32.9621 79.1885 32.4248 79.5261 31.8768C79.9926 31.119 80.8261 29.4488 79.6868 28.8411C79.3111 28.6408 78.8565 28.7342 78.4663 28.8394C77.9533 28.9776 77.4543 29.1726 76.9545 29.3529C76.91 29.3691 76.8657 29.3847 76.8212 29.4004C78.0461 28.3372 79.0175 27.0068 79.576 25.4688C79.7803 24.9064 79.9256 24.3078 79.953 23.7084C79.9731 23.2817 79.9212 22.7406 79.5129 22.4984C79.2115 22.3193 78.869 22.4001 78.6166 22.6168C78.1889 22.985 77.7956 23.3926 77.364 23.759C76.4787 24.5106 75.5273 25.1794 74.5289 25.7736C74.0443 26.0625 73.5489 26.3331 73.0459 26.5892C72.1831 27.0281 71.2955 27.3381 70.3574 27.5781C67.0501 28.424 63.6281 28.7861 60.2844 29.4625C56.7922 30.1683 53.2114 31.1028 50.1092 32.9139C49.8093 33.0668 49.5164 33.2314 49.2341 33.4105C47.7915 34.3249 46.5982 35.6076 45.5765 36.9621C44.7859 38.0111 44.1055 39.1365 43.5165 40.309C43.2466 40.8462 42.9959 41.393 42.7625 41.9466C42.6935 42.1108 42.6262 42.2754 42.5604 42.4408C42.513 42.5592 42.4675 42.6788 42.4217 42.7984C42.1932 43.3951 41.9845 43.9989 41.8023 44.6107C41.5711 45.3867 41.4187 46.1776 41.2205 46.9605C41.2203 46.9612 41.2203 46.9617 41.22 46.9624C41.2191 46.9636 41.2183 46.9649 41.2174 46.9661C41.1917 47.0018 41.1741 47.0475 41.1515 47.0852C41.1354 47.1126 41.1175 47.139 41.1002 47.166C41.0894 47.1828 41.0779 47.1985 41.0669 47.2154C40.8355 47.561 40.5402 47.8637 40.3024 48.2062C40.0406 48.5839 39.8175 48.9885 39.6597 49.4213C39.3992 50.1351 39.3349 50.9123 39.3772 51.6688C38.9936 52.1155 38.68 52.6077 38.4772 53.2031C38.2435 53.8896 38.1393 54.6267 38.099 55.3645C38.0801 55.707 38.0946 56.4267 38.1638 57.0085C38.2213 57.5215 38.3047 58.0367 38.4662 58.5272C38.588 58.8973 38.7499 59.3044 39.0501 59.5686C39.4286 59.9013 39.9719 59.8869 40.2943 59.4835C40.4296 59.3144 40.8714 58.0624 41.3338 57.3874C41.4794 57.5997 41.6469 57.7957 41.836 57.9784C41.4065 58.5761 41.133 59.0607 41.0735 59.2398C40.6706 60.4549 44.9128 61.0579 44.9128 61.0579C46.3572 62.0793 47.4845 62.5735 49.0528 63.1195C49.1563 63.156 49.2618 63.1922 49.3692 63.2286C49.5842 63.3018 49.945 63.4084 50.3494 63.5205C48.1012 66.6675 45.601 69.6034 42.7542 72.2281C41.7467 73.157 40.7061 74.0487 39.696 74.9737C38.3722 76.1868 37.1451 77.4944 36.0186 78.893C33.3782 82.1714 31.2391 85.9434 29.8838 89.9347C29.4708 91.1503 29.1543 92.3972 28.9798 93.6698C28.8133 94.8847 28.6985 96.2194 28.9312 97.4343C29.0268 97.9334 29.4593 98.3111 29.9851 98.1614C30.3841 98.0481 30.6815 97.6885 30.9272 97.3761C31.7714 96.3007 32.4363 95.0826 33.0998 93.8922C33.2441 93.6329 33.3867 93.3724 33.5289 93.1123C33.5137 94.0581 33.605 95.0068 33.7434 95.9393C33.9049 97.0277 34.1542 98.1181 34.6109 99.1233C34.937 99.8411 35.5124 100.693 36.3987 100.688C37.0397 100.685 37.4905 100.077 37.8174 99.603C38.2959 98.9097 38.6675 98.1394 39.0198 97.3773C39.478 96.3853 39.8926 95.3732 40.2836 94.3536C40.4918 93.81 40.6985 93.262 40.8988 92.7109C40.9495 93.3459 41.0395 93.9742 41.1841 94.5828C41.3147 95.1328 41.5481 95.8623 42.1587 96.0421C42.8036 96.2319 43.4169 95.7559 43.7995 95.2893C44.3247 94.6494 44.7003 93.9008 45.0374 93.1488C45.4535 92.2206 45.8138 91.2675 46.147 90.3068C46.2821 89.9166 46.4117 89.5252 46.5387 89.1325C46.6366 89.6942 46.7926 90.2442 47.0505 90.7457C47.4404 91.5041 48.2947 92.203 49.1668 91.7666C49.3349 91.6826 49.4866 91.5694 49.6258 91.439C49.6013 91.5593 49.5771 91.6795 49.5539 91.8003C48.9308 95.0295 48.6504 98.4483 49.3127 101.695C49.504 102.633 50.3245 105.9 51.8588 104.376C52.2889 103.948 52.5729 103.356 52.8274 102.815C53.2114 101.997 53.5385 101.152 53.8426 100.301C54.1149 99.5416 54.3698 98.774 54.6086 98.0011C54.7113 99.8973 54.906 101.814 55.3907 103.634C55.5812 104.349 55.831 105.206 56.3949 105.726C56.916 106.206 57.6279 106.186 58.2268 105.86C58.7831 105.557 59.1737 104.991 59.4463 104.435C59.8565 103.597 60.1075 102.689 60.3062 101.782C60.6834 100.059 60.9139 98.2991 61.0758 96.5331C61.1233 96.6972 61.1746 96.8599 61.2336 97.0197C61.4486 97.6029 61.7899 98.2967 62.4981 98.3373C63.2041 98.3781 63.8605 97.9755 64.2845 97.4387C65.3616 96.0727 65.5539 94.0757 65.688 92.4048C65.7004 92.2419 65.7109 92.0797 65.721 91.9168C65.8663 92.1179 66.0397 92.2925 66.2548 92.4161C66.8715 92.7705 67.6913 92.4603 68.22 92.0746C68.8506 91.6132 69.2445 90.9524 69.5138 90.2297C70.0912 88.677 70.0843 86.8948 69.9924 85.2634C69.9848 85.13 69.976 84.9972 69.9667 84.8644C70.943 85.2634 71.9262 83.7395 72.1165 82.9036C72.267 82.2416 72.2719 81.5564 72.1936 80.8731C72.5236 80.8237 72.8524 80.7378 73.1744 80.6302C74.1683 81.207 75.5004 81.1287 76.5995 80.7366C76.6213 81.4749 76.8204 82.2091 77.2596 82.804C77.9834 83.7853 79.2042 83.8562 80.3195 83.684C80.4504 83.7239 80.5876 83.7471 80.731 83.7466C81.1693 83.7446 81.6202 83.5612 81.9647 83.2987C82.6824 82.7514 82.9554 81.6454 82.2891 80.9365C82.0481 80.6796 81.6366 80.5996 81.5571 80.2287C81.5419 80.1585 81.5363 80.0878 81.5388 80.0164C82.4444 80.7077 83.7515 80.594 84.5845 79.8097C85.7135 79.8128 86.8464 79.0163 86.9355 77.8176C86.9873 77.1162 86.4633 76.6384 85.8953 76.3326C85.6597 76.2061 85.3742 76.099 85.2051 75.8818C85.0329 75.6613 84.982 75.3771 85.0478 75.1089C85.245 74.3011 86.1257 73.9234 86.3505 73.1355C86.3887 73.0009 86.4051 72.8644 86.4019 72.7298C88.657 71.2305 91.3225 70.4469 93.9345 69.8302C94.9192 69.5977 95.9129 69.4074 96.8937 69.1618C97.2031 69.0843 97.5319 69.004 97.8157 68.8543C98.2084 68.6471 98.4532 68.2199 98.5528 67.7979C98.8483 66.5447 98.2345 65.0605 97.3991 64.1347Z" fill="black"/>
<path d="M59.6202 45.7123C59.6202 46.5147 58.9697 47.1647 58.1673 47.1647C57.3648 47.1647 56.7144 46.5147 56.7144 45.7123C56.7144 44.9094 57.3648 44.2594 58.1673 44.2594C58.9697 44.2594 59.6202 44.9094 59.6202 45.7123Z" fill="white"/>
<path d="M57.2342 47.9355C57.2342 48.2474 56.981 48.5011 56.6686 48.5011C56.3562 48.5011 56.103 48.2474 56.103 47.9355C56.103 47.6231 56.3562 47.3694 56.6686 47.3694C56.981 47.3694 57.2342 47.6231 57.2342 47.9355Z" fill="white"/>
<path d="M44.8383 45.6822C44.8383 46.1318 44.4738 46.4963 44.0241 46.4963C43.5745 46.4963 43.21 46.1318 43.21 45.6822C43.21 45.2326 43.5745 44.868 44.0241 44.868C44.4738 44.868 44.8383 45.2326 44.8383 45.6822Z" fill="white"/>
</svg>
