<svg width="128" height="128" viewBox="0 0 128 128" fill="none" xmlns="http://www.w3.org/2000/svg">
<path d="M61.9394 17.1163C57.4313 18.2755 54.4259 21.1306 52.9233 25.6816C52.3436 27.4418 51.7855 35.3202 51.8928 40.2791L51.9572 43.6279L52.7086 44.873C53.6531 46.4401 55.1343 47.7925 57.281 49.0376C58.1826 49.5528 58.934 50.068 58.934 50.1538C58.934 50.2397 59.1701 50.6476 59.4707 51.0769L59.9859 51.8712L58.0968 52.8372C56.2506 53.8032 55.349 54.576 53.2023 57.0662L52.5154 57.8819L51.2918 56.5939C50.6048 55.8855 49.9179 55.1127 49.7676 54.8765C49.5959 54.6404 49.3383 54.4472 49.1665 54.4472C48.9304 54.4472 48.8875 54.0823 48.9089 52.8372C48.9304 51.2701 48.9304 51.2272 47.9 49.7245L46.8481 48.2003L46.9769 45.9892C47.1272 43.585 47.0199 43.2844 46.0753 43.2844C44.8088 43.3059 44.3365 44.2075 44.3365 46.5903V48.415L43.5852 48.5653C43.1773 48.6297 42.7479 48.8229 42.6621 48.9517C42.5762 49.102 41.9537 49.5313 41.2882 49.9177C40.5154 50.347 40.0002 50.7978 39.9358 51.0769C39.764 51.7424 40.1719 53.6744 40.4724 53.7603C40.6227 53.8247 40.9018 54.0393 41.095 54.2755C42.2327 55.6279 42.8338 56.1646 43.2417 56.1646C43.671 56.1646 44.2292 56.8515 43.9716 57.0876C43.7784 57.2808 46.1182 61.2952 47.5351 63.1842C49.2524 65.5027 50.3687 66.4687 51.3132 66.4687C51.7426 66.4687 52.4295 66.3184 52.8589 66.1467C53.2882 65.9749 53.6531 65.8461 53.6961 65.8676C53.7175 65.9105 53.6102 66.8121 53.4385 67.864C52.9877 70.6118 52.8159 79.4347 53.1165 82.9982C53.3741 85.8318 54.1254 91.542 54.3401 92.2934C54.4045 92.4866 54.7265 92.8086 55.0485 92.9588C55.5852 93.2379 55.6925 93.517 56.2506 96.0071C56.5941 97.5098 57.002 98.8622 57.1522 99.0125C57.324 99.1628 57.968 99.4633 58.612 99.6565L59.7927 100.043V101.052C59.7927 101.953 59.7068 102.147 59.1057 102.597C58.5691 102.984 58.0324 103.156 57.002 103.22C54.5118 103.413 52.9877 104.572 52.4939 106.612C52.1504 108.072 52.3651 108.308 54.5547 108.587C56.3794 108.823 64.5154 108.673 65.8034 108.372L66.5547 108.2L66.5333 106.483C66.5333 105.195 66.4045 104.53 66.0395 103.714C65.7819 103.113 65.417 101.911 65.2453 101.03C64.9447 99.4848 64.9447 99.4204 65.3526 99.0984C65.7605 98.7978 65.7819 98.6905 65.5029 96.737C65.3526 95.6207 65.2453 94.6333 65.3097 94.5259C65.3526 94.4401 65.6317 94.3757 65.8893 94.3757C66.3401 94.3757 66.4259 94.5903 67.0055 96.9732L67.6281 99.5706L68.5941 99.9356C69.5386 100.279 69.5386 100.301 69.8177 101.674C70.0753 102.855 70.0538 103.349 69.7748 104.98C69.603 106.032 69.4528 107.17 69.4528 107.47C69.4528 109.123 71.7283 110.089 75.5708 110.111C77.8463 110.111 80.4438 109.66 80.9161 109.188C81.2166 108.887 80.68 106.805 80.0789 105.925C79.7998 105.496 79.1343 104.959 78.6406 104.701C77.3097 104.057 75.6996 102.34 75.4635 101.331C75.1844 100.172 75.2059 99.5277 75.5064 99.5277C75.6352 99.5277 76.086 99.2701 76.4939 98.9696L77.2238 98.39L77.0735 95.7925C77.0091 94.3542 76.8803 92.9803 76.8159 92.7227C76.7301 92.3363 76.8374 92.186 77.2667 92.0143C77.5673 91.907 77.8249 91.6708 77.8249 91.4776C77.8249 91.3059 77.4385 89.0519 76.9877 86.4758C76.5154 83.9213 75.8714 80.1431 75.5708 78.1037L74.9912 74.3685L75.4206 73.0376C77.0521 68.0787 77.6746 59.4705 76.5583 57.1735C75.9572 55.9284 73.9823 53.9964 72.0932 52.7943C70.6979 51.8926 70.5261 51.7209 70.5476 51.1413C70.5691 50.1109 70.7623 49.8318 72.1361 48.8229C72.8445 48.2862 73.7891 47.449 74.2184 46.9338C74.9054 46.0966 75.0771 45.9892 76.0431 45.9463C77.3955 45.8819 78.4045 45.4526 79.2631 44.6154C80.7444 43.1342 81.3025 40.7084 80.4224 39.5921C80.0574 39.1198 80.036 38.9481 80.2292 38.1109C80.358 37.5957 80.637 36.9302 80.8517 36.6297C81.6889 35.4705 81.9465 31.1341 81.3669 28.3864C80.4009 23.8139 76.8159 19.7138 72.1576 17.8676C69.002 16.6011 65.0306 16.3005 61.9394 17.1163ZM70.5261 17.6744C76.773 19.4776 81.2596 25.0161 81.2596 30.898V32.229L79.9286 30.9839C75.2059 26.5617 68.9376 24.5438 60.9733 24.8873C58.1826 25.0161 55.2631 25.4884 53.7175 26.0894C53.1379 26.3041 53.1165 26.3041 53.2453 25.8533C53.3097 25.5742 53.7605 24.5867 54.2113 23.6207C55.5852 20.7656 58.247 18.5331 61.3168 17.6529C64.3222 16.7728 67.4349 16.7728 70.5261 17.6744ZM67.9286 25.6172C71.7927 26.2397 74.9268 27.5706 77.9537 29.8891C79.7784 31.263 81.2596 32.83 81.2596 33.3238C81.2596 34.0536 80.7873 36.415 80.637 36.415C80.5512 36.415 80.1004 36.0286 79.6496 35.5349C74.1111 29.8032 64.5798 27.4848 54.9626 29.5671C53.9107 29.7817 52.9662 29.9749 52.8589 29.9749C52.6013 29.9749 52.7945 27.0125 53.0735 26.7334C53.417 26.39 57.3884 25.4884 59.4277 25.2737C61.832 25.0375 65.2238 25.1663 67.9286 25.6172ZM67.4134 29.6529C69.4098 30.0608 71.2131 30.6404 72.9089 31.4132L74.1326 31.9499L73.9394 32.7012C73.5315 34.5689 73.4886 36.5438 73.832 37.9177C74.0896 38.9052 74.154 39.7209 74.0467 40.9231C73.8964 42.5545 73.9179 42.6189 74.4975 43.1986L75.0986 43.7996L75.5279 42.5331C76.2363 40.322 77.2023 39.4204 78.8553 39.4204C80.2936 39.4204 80.7873 40.4079 80.2936 42.1467C79.6496 44.3363 77.2453 45.9678 75.3132 45.5599C74.7766 45.4311 74.6263 45.5384 73.9608 46.4401C73.553 46.9982 72.5869 47.8998 71.8141 48.4794C71.0413 49.059 69.9465 49.9606 69.3454 50.4973C68.7658 51.034 67.4564 51.9356 66.4474 52.4937L64.6442 53.5241L64.2148 52.9875C63.8928 52.6011 63.8499 52.4079 64.0431 52.3435C64.5583 52.1717 65.6102 51.1842 65.9107 50.5617C66.3615 49.7245 66.3186 48.8014 65.8034 48.1574C65.417 47.6637 65.2882 47.6207 64.773 47.8139C64.451 47.9427 63.0986 48.093 61.7462 48.1574C59.3204 48.2862 59.2989 48.2862 59.0843 48.8873L58.8481 49.4884L57.603 48.8229C56.0574 48.0071 53.739 45.9034 53.0521 44.7012C52.0431 43.0053 52.0002 42.3613 52.2792 36.3077C52.4295 33.2379 52.6013 30.6619 52.6657 30.576C52.8803 30.3613 56.5726 29.5671 58.3758 29.3309C60.5655 29.0519 65.417 29.2236 67.4134 29.6529ZM46.6335 45.152C46.5476 45.9678 46.4832 46.9767 46.4832 47.4061C46.4832 47.9642 46.3973 48.2218 46.1826 48.2218C45.7533 48.2218 45.1952 49.059 45.1952 49.6601C45.1952 49.9392 45.1093 50.1538 45.002 50.1538C44.7444 50.1538 44.5297 46.3327 44.7444 45.2808C44.9805 44.1002 45.3025 43.7138 46.1182 43.7138H46.7623L46.6335 45.152ZM46.8481 49.1234C48.0932 50.4973 48.3937 51.2701 48.4367 53.2665L48.5011 55.1771L47.5995 55.8855C46.0538 57.0662 44.3365 57.2594 44.3365 56.2719C44.3365 56.1216 44.036 55.9499 43.6496 55.864C42.9197 55.7138 41.7605 54.7692 41.7605 54.3184C41.7605 54.0393 42.0395 53.9535 44.4009 53.61C45.4957 53.4597 45.6245 53.4812 45.6245 53.8032C45.6245 54.0179 45.8177 54.4043 46.0538 54.6833L46.4832 55.1986L46.2685 54.5975C45.968 53.7817 46.0109 52.9445 46.3544 52.322C46.612 51.8712 46.5905 51.7209 46.247 51.1413C45.6889 50.2182 45.7104 48.6511 46.2685 48.6511C46.3544 48.6511 46.612 48.8658 46.8481 49.1234ZM44.4438 50.2612C44.5941 51.5492 44.637 51.6565 45.1308 51.6565C45.5816 51.6565 45.646 51.7424 45.5816 52.3435C45.5172 52.9445 45.4313 53.0733 44.8946 53.1163C43.7569 53.2451 43.3061 53.0089 43.0699 52.1288C42.705 50.8408 42.7694 49.3596 43.2202 49.102C44.0789 48.5867 44.2936 48.8014 44.4438 50.2612ZM42.8338 52.6869C43.1343 53.3739 43.1129 53.4168 42.4689 53.3309C41.7175 53.2451 41.3311 52.5152 41.3311 51.2057C41.3311 50.39 41.417 50.1753 41.8249 50.0036C42.2757 49.7889 42.2971 49.8318 42.4474 50.991C42.5333 51.6565 42.705 52.4079 42.8338 52.6869ZM45.5816 50.8837C45.7748 51.3345 45.7533 51.3774 45.3884 51.2916C45.1737 51.2272 44.9805 50.991 44.9805 50.7764C44.9805 50.2182 45.3025 50.2612 45.5816 50.8837ZM41.3311 53.1807C41.5243 53.5241 41.4814 53.5885 41.1379 53.5885C40.6013 53.5885 40.4939 53.4168 40.3436 52.2147C40.2363 51.5277 40.2792 51.1198 40.4939 50.8837C40.7515 50.5617 40.8159 50.6476 40.9662 51.635C41.0521 52.2576 41.2238 52.9445 41.3311 53.1807ZM69.0878 53.3739C68.1004 54.2755 64.9018 56.0572 64.5369 55.907C64.4295 55.864 64.4939 55.3918 64.6442 54.8551C64.9233 53.9105 65.0521 53.8032 66.7479 52.8372C67.7354 52.2791 68.8732 51.5492 69.2596 51.2272L69.9894 50.6261L70.0538 51.5062C70.1182 52.3435 70.0538 52.4723 69.0878 53.3739ZM60.9733 52.6869C61.2309 52.8801 61.553 53.3739 61.7247 53.7817C62.154 54.8551 63.6138 56.5939 64.0646 56.5939C64.9018 56.5939 68.4438 54.5975 69.603 53.4812L70.7408 52.3649L72.1147 53.288C73.8964 54.4901 75.5279 56.1646 76.1504 57.4096C76.6013 58.3327 76.6442 58.6977 76.6227 61.6386C76.6227 65.0519 76.2578 67.907 75.3776 71.3417C74.7336 73.8962 74.4546 74.3041 73.0592 74.7334C70.8481 75.4204 63.442 75.3345 62.7336 74.6261C62.2614 74.1968 62.7766 68.7871 63.3132 68.229C63.3562 68.186 64.6013 68.229 66.061 68.3148L68.7444 68.4651L69.1093 69.152C69.324 69.5384 69.925 70.2683 70.4832 70.7835C71.3204 71.5993 71.3848 71.6422 70.9769 71.0411C70.7193 70.6547 70.4188 70.2898 70.3114 70.2254C70.1826 70.161 69.8606 69.6672 69.5386 69.152L69.002 68.2075L69.7962 66.2111C70.6335 64.0859 72.2435 60.7799 72.9304 59.7066C73.2524 59.2129 73.1665 59.2558 72.5655 59.9213C71.6424 60.9302 70.2256 63.6994 69.3454 66.1896L68.7014 67.9714H67.3705C66.6406 67.9714 65.0306 67.864 63.8284 67.7352C61.7032 67.4991 61.5744 67.4562 60.7587 66.6833C59.6424 65.6315 59.2775 65.4597 57.7318 65.288C56.68 65.1592 56.4009 65.2021 56.1433 65.5027C55.9072 65.7817 55.9072 65.9535 56.0789 66.254C56.315 66.5975 56.2721 66.6189 55.4349 66.4257C54.9411 66.3184 54.4474 66.1467 54.3401 66.0393C54.0825 65.7817 54.6835 62.9266 55.6066 60.0286C56.0145 58.805 56.315 57.7531 56.2721 57.7316C56.036 57.474 54.383 62.4329 54.0825 64.2791C53.9537 65.0733 53.8249 65.2665 53.1165 65.61C51.9572 66.2111 50.7551 66.1681 49.9394 65.5027C49.1021 64.7943 47.1057 62.1324 46.0324 60.2862L45.1952 58.8694L46.3114 58.5903C47.6424 58.2469 48.4796 57.7531 49.4886 56.7012L50.2399 55.9284L51.3562 57.1735L52.4724 58.4186L53.7175 57.0232C55.8428 54.6189 56.5941 53.9964 58.3758 53.1377C60.3293 52.1932 60.3723 52.1717 60.9733 52.6869ZM63.8499 53.288C64.3651 53.9535 64.3866 54.0608 64.0646 55.1556C63.807 56.1002 63.6352 56.0358 62.7766 54.7048C62.0252 53.5241 62.0038 53.288 62.6478 52.9875C63.3347 52.6655 63.3562 52.6655 63.8499 53.288ZM49.6174 56.229C48.9304 57.2594 46.6979 58.483 45.4742 58.5259C45.0234 58.5259 44.3794 57.7746 44.6156 57.517C44.68 57.4526 45.1522 57.3238 45.6674 57.2164C46.6764 56.9803 48.7372 55.6923 48.9519 55.1556C49.0592 54.8336 49.1236 54.8551 49.51 55.2415C49.9394 55.6494 49.9394 55.7138 49.6174 56.229ZM59.8571 66.4043C60.3293 66.7263 60.8875 67.2415 61.1021 67.542C61.4886 68.0572 61.4671 68.1216 60.9733 69.5814C60.6728 70.3971 60.4367 71.5349 60.4367 72.093C60.4367 72.6726 60.4152 73.1234 60.3937 73.1234C59.8356 73.1234 56.8088 71.9427 56.0789 71.4275C54.7265 70.5045 54.6835 70.3113 55.8642 70.6762C57.0234 71.0197 57.2166 71.0411 57.2166 70.7835C57.2166 70.6762 56.8517 70.5474 56.4009 70.4615C55.5422 70.3327 54.1898 69.5599 54.061 69.1091C53.9751 68.8944 54.1469 68.9159 54.6835 69.1306C55.6281 69.517 57.4528 69.796 57.002 69.4955C56.8302 69.3667 56.4868 69.2594 56.2506 69.2594C55.4134 69.2379 53.9966 68.4436 53.9966 67.9928C53.9966 67.585 54.0395 67.585 54.7265 67.864C55.7354 68.2934 57.2166 68.6154 57.2166 68.4007C57.2166 68.3148 56.8517 68.1646 56.4224 68.0787C55.2202 67.864 53.9966 67.3059 53.9966 67.0054C53.9966 66.5545 54.3401 66.4472 54.9411 66.6833C55.2417 66.7907 56.1433 66.941 56.9376 67.0054L58.3973 67.1342L57.3884 66.576C55.9501 65.8032 56.0574 65.5241 57.6889 65.6744C58.6549 65.7603 59.2345 65.9535 59.8571 66.4043ZM63.0127 68.1002C63.0127 68.1646 62.8624 68.7656 62.6478 69.4311C62.4546 70.161 62.2828 71.4705 62.2828 72.6297C62.2614 73.7245 62.2399 74.6261 62.2184 74.6261C62.197 74.6261 61.9394 74.5402 61.6388 74.4114C60.9304 74.1538 60.7157 73.0376 61.0377 71.1485C61.4241 68.9803 61.875 67.9714 62.4975 67.9714C62.7766 67.9714 63.0127 68.0358 63.0127 68.1002ZM55.5637 71.5349C56.4009 72.1574 57.4098 72.6511 58.612 73.0161C60.1361 73.4669 60.4581 73.6601 60.5655 74.0894C60.7157 74.712 61.832 75.1198 64.3007 75.5062C66.5547 75.8497 72.0717 75.6565 73.3168 75.1842C73.8535 74.991 74.3687 74.7978 74.4975 74.7764C74.6048 74.7549 74.7766 75.356 74.8839 76.1288C75.0342 77.2451 76.773 87.7639 77.3311 90.8551C77.4385 91.5206 77.4385 91.5206 76.129 91.7996C75.3991 91.9499 74.7766 92.0358 74.7122 91.9928C74.6692 91.9284 74.2184 90.4043 73.7247 88.5796C73.2309 86.7549 72.7372 85.1664 72.6513 85.059C72.544 84.9302 72.4581 85.5313 72.4581 86.4544C72.4581 87.313 72.3937 89.1377 72.3079 90.4687L72.1791 92.873L71.4063 93.0876C66.7265 94.3113 59.256 94.161 55.7569 92.7442C55.2631 92.551 54.8123 92.2504 54.7694 92.0572C54.5762 91.3918 53.8034 85.7245 53.5887 83.2129C53.3311 80.4436 53.2667 73.059 53.5029 70.9553C53.6317 69.6458 53.6531 69.6243 53.9751 70.1181C54.1683 70.3971 54.8767 71.0411 55.5637 71.5349ZM75.3991 93.5599C75.9572 93.4311 76.451 93.3452 76.4725 93.3667C76.4939 93.3882 76.5798 94.4401 76.6657 95.7281C76.7945 97.746 76.773 98.0894 76.451 98.4329C75.3132 99.678 71.4921 100.322 69.1952 99.6565L67.993 99.313L67.5422 97.4669C67.2846 96.4365 67.1558 95.5349 67.2417 95.449C67.3275 95.3631 68.1433 95.1914 69.0234 95.0411C71.8356 94.6118 73.1021 94.161 73.3383 93.5599C73.5315 93.0447 73.553 93.0447 73.9608 93.4096C74.3043 93.7102 74.519 93.7317 75.3991 93.5599ZM59.4707 95.127C60.4152 95.2987 62.0252 95.449 63.0342 95.449H64.9018L65.1165 96.9946C65.2453 97.8533 65.2667 98.6476 65.1809 98.7334C64.408 99.5062 59.9429 99.7639 58.3114 99.1413C57.3669 98.7764 57.3454 98.7334 56.9805 97.3381C56.7873 96.5438 56.5512 95.5563 56.4868 95.1485L56.3365 94.3971L57.0449 94.6118C57.4313 94.7406 58.5261 94.9553 59.4707 95.127ZM64.8589 101.095C65.0091 101.889 65.3955 103.177 65.6961 103.95C66.0395 104.809 66.2327 105.646 66.1898 106.14C66.1254 106.869 66.061 106.934 65.2667 107.063C64.7945 107.148 63.2703 107.277 61.8964 107.363L59.3633 107.535V107.02C59.3633 106.741 59.1272 105.839 58.8481 105.045L58.3544 103.563L59.1701 103.027C59.9215 102.533 59.9859 102.404 60.0503 101.309L60.1147 100.15L61.51 100.043C62.2828 100 63.2059 99.8712 63.5494 99.7639C63.9143 99.6565 64.2792 99.5921 64.408 99.6136C64.5154 99.6351 64.7301 100.322 64.8589 101.095ZM75.0342 101.159C75.2274 102.061 75.5064 102.597 76.129 103.284L76.9662 104.208L75.5708 104.293C73.7462 104.401 72.5869 105.174 71.8141 106.762C71.3848 107.664 71.1916 107.857 70.8481 107.75C69.8392 107.492 69.7748 107.213 70.1612 105.066C70.3973 103.628 70.4403 102.834 70.3114 102.211C69.8821 100.408 69.9036 100.386 71.6639 100.365C72.5011 100.343 73.4456 100.258 73.7462 100.172C74.6907 99.8712 74.7766 99.9356 75.0342 101.159ZM58.1826 104.508C58.4617 105.131 58.7623 106.075 58.8481 106.59L58.9984 107.513L57.1952 107.385C53.095 107.063 52.9233 107.041 52.9233 106.569C52.9233 105.903 53.6746 104.83 54.4689 104.358C54.8553 104.122 55.714 103.821 56.358 103.692C57.002 103.542 57.5601 103.413 57.603 103.413C57.646 103.392 57.9036 103.907 58.1826 104.508ZM78.6835 105.109C79.2417 105.41 80.0789 106.547 80.358 107.406C80.5512 107.986 80.5297 108.114 80.2292 108.2C79.4993 108.415 76.1719 108.758 74.4975 108.78C73.3168 108.801 72.9519 108.844 73.3168 108.973C74.2184 109.252 78.2971 109.209 79.4993 108.887C80.2721 108.694 80.6156 108.673 80.5512 108.844C80.4224 109.231 78.061 109.617 75.6782 109.639C73.0807 109.682 71.3204 109.274 70.3759 108.436L69.7748 107.9L70.5905 108.222C71.4921 108.587 71.8141 108.501 71.8141 107.878C71.8141 106.998 72.7587 105.732 73.8535 105.152C75.0771 104.508 77.5029 104.487 78.6835 105.109ZM59.1487 107.792C61.4456 107.792 63.9787 107.707 64.7945 107.621C65.6317 107.535 66.2327 107.535 66.2327 107.642C66.2327 108.415 53.9966 108.522 52.9877 107.771C52.6442 107.535 52.7515 107.513 53.7819 107.642C54.4259 107.728 56.8517 107.792 59.1487 107.792Z" fill="black"/>
<path d="M54.2754 33.4096C53.9105 33.6243 53.4811 34.0107 53.3523 34.2683L53.1162 34.7191L54.0178 34.2468C54.7262 33.9034 55.1985 33.8175 56.0786 33.8819C56.9159 33.9463 57.2164 33.9034 57.2164 33.7102C57.2164 32.9374 55.3488 32.7442 54.2754 33.4096Z" fill="black"/>
<path d="M66.6619 33.474C66.3613 33.6243 66.1037 33.8819 66.0608 34.0537C66.0179 34.3113 66.2969 34.3757 67.3703 34.3757C68.3148 34.3971 68.9374 34.5045 69.3238 34.7835C70.0536 35.2343 70.2039 35.1485 69.7531 34.5259C69.1091 33.6028 67.4991 33.0662 66.6619 33.474Z" fill="black"/>
<path d="M55.4564 35.9857C54.9627 36.2862 54.5763 37.5742 54.748 38.347C55.0485 39.7424 56.7015 40.0214 57.2167 38.7764C57.5172 38.0465 57.3884 36.5653 57.002 36.093C56.7015 35.7281 55.9931 35.6851 55.4564 35.9857ZM56.2507 36.8229C56.4009 37.3381 56.1863 37.9177 55.7999 37.9177C55.3705 37.9177 55.07 37.2522 55.3061 36.8014C55.5852 36.3077 56.0789 36.3077 56.2507 36.8229Z" fill="black"/>
<path d="M66.4261 37.3166C65.868 38.2182 65.9968 39.5706 66.6623 40.1073C67.3063 40.6225 67.6497 40.6011 68.3152 39.9356C68.7875 39.4633 68.8519 39.2486 68.766 38.347C68.6372 37.059 68.3152 36.6297 67.4995 36.6297C67.0272 36.6297 66.7696 36.8014 66.4261 37.3166ZM67.6283 37.703C67.7571 38.1324 67.4351 38.7764 67.0701 38.7764C66.7696 38.7764 66.4476 37.9821 66.5764 37.6172C66.7696 37.1234 67.4565 37.1878 67.6283 37.703Z" fill="black"/>
<path d="M58.9127 40.0429C58.0326 40.9231 58.097 41.6529 59.0844 42.1896C59.8358 42.576 59.9002 42.4687 59.2776 41.8891C58.5692 41.2451 58.5692 40.9231 59.2776 40.0859C59.986 39.2487 59.7499 39.2272 58.9127 40.0429Z" fill="black"/>
<path d="M78.147 40.4937C77.4815 40.7513 77.2454 41.1377 77.0737 42.2111C76.9019 43.2415 76.6872 43.4991 75.9574 43.4991C75.6354 43.4991 75.4422 43.6923 75.2704 44.186C75.0343 44.8515 75.0343 44.8515 75.4851 44.4436C75.7212 44.229 76.2364 43.9499 76.6014 43.8211C77.2025 43.6279 77.2883 43.4776 77.5245 42.3399C77.7606 41.1377 78.0397 40.7084 78.6193 40.7084C78.7481 40.7084 78.9413 40.6011 79.0057 40.4937C79.1559 40.2361 78.7481 40.2361 78.147 40.4937Z" fill="black"/>
<path d="M66.705 42.8122C66.7909 43.3274 65.8678 43.6923 63.1844 44.2075C61.2309 44.5724 60.6084 44.6154 59.7068 44.4222C58.4617 44.1646 58.1826 44.229 58.9984 44.5939C59.3633 44.7656 59.578 45.0662 59.6853 45.5599C59.8356 46.4615 60.3079 46.7191 61.7676 46.7191C64.2578 46.6977 65.7175 46.0107 66.8338 44.2934C67.1558 43.7996 67.5422 43.2844 67.6925 43.1771C67.9072 43.0054 67.8213 42.898 67.3061 42.7048C66.7265 42.4902 66.6621 42.5116 66.705 42.8122ZM66.2542 44.3148C65.6961 45.3882 64.3007 46.0537 62.2828 46.2254C60.4796 46.3757 60.0073 46.1825 60.0073 45.2808C60.0073 45.0018 60.0932 44.8086 60.222 44.8944C60.4796 45.0662 63.6782 44.6583 65.0521 44.2719C66.5118 43.8855 66.4903 43.8855 66.2542 44.3148Z" fill="black"/>
<path d="M43.4991 54.0823C43.9499 54.4043 44.7657 54.8765 44.7657 54.7907C44.7657 54.5545 44.0573 54.0179 43.7567 54.0179C43.5635 54.0179 43.4562 54.0393 43.4991 54.0823Z" fill="black"/>
<path d="M65.4813 54.0393C65.3954 54.1681 65.3739 54.3184 65.4383 54.3828C65.5886 54.5331 66.0179 54.254 66.0179 53.9964C66.0179 53.7388 65.653 53.7388 65.4813 54.0393Z" fill="black"/>
<path d="M64.9448 55.1986C64.9448 55.3918 65.0522 55.5206 65.181 55.4776C65.3098 55.4347 65.4171 55.3059 65.4171 55.1986C65.4171 55.0912 65.3098 54.9624 65.181 54.9195C65.0522 54.8766 64.9448 55.0054 64.9448 55.1986Z" fill="black"/>
</svg>
