<svg width="128" height="128" viewBox="0 0 128 128" fill="none" xmlns="http://www.w3.org/2000/svg">
<path d="M60.3925 110.287C60.0447 110.012 59.7845 109.586 59.5786 109.127C59.4911 108.42 59.3941 107.72 59.3515 107.048C59.2238 104.994 59.2663 102.934 59.2853 100.875C59.2924 100.092 59.3586 99.302 59.342 98.5212C59.3279 97.8753 59.1788 97.2555 58.6299 96.8557C57.7711 96.2287 56.1292 96.179 55.0811 96.7374C54.7428 96.4132 54.3169 96.2263 53.8177 96.444C53.5291 96.5718 53.4321 97.1159 53.8674 97.0071C53.9573 96.9858 53.981 96.9881 54.033 97.0189C54.1371 97.078 54.1774 97.1112 54.2791 97.2626L54.3548 97.388C54.1561 97.7642 54.2696 98.1805 54.712 98.2018L54.757 98.332C55.1568 99.5504 55.3981 100.821 55.656 102.075C56.2404 104.902 56.6071 107.767 57.1016 110.608C56.5267 110.72 55.9565 110.954 55.4809 111.179C54.3382 111.718 53.3067 112.447 52.3533 113.272C50.6995 114.701 49.3486 116.542 48.6176 118.612C48.2106 119.771 48.019 121.068 48.6247 122.189C48.8163 122.547 49.3936 122.374 49.6372 122.208C51.0497 121.25 51.4258 119.514 52.261 118.132C53.0252 116.864 54.078 115.7 55.2136 114.69C55.268 114.652 55.3201 114.612 55.3745 114.574C55.2018 114.846 55.0385 115.127 54.8871 115.414C54.1277 116.857 53.3659 118.385 53.0607 119.999C52.9282 120.706 52.9021 121.617 53.5764 122.064C53.8414 122.239 54.246 122.152 54.4825 121.969C55.6134 121.096 55.8855 119.776 56.2664 118.48C56.6568 117.16 57.3736 116.043 58.2656 115.009C58.6772 114.533 59.1031 114.048 59.6307 113.701C59.9288 113.507 60.2103 113.414 60.577 113.424C61.6062 113.452 62.659 114.008 63.6266 114.311C64.1826 114.486 64.8167 113.911 64.7457 113.355C64.4571 111.105 61.7884 111.394 60.3925 110.287Z" fill="#507891"/>
<path d="M54.4824 121.969C55.6133 121.096 55.8854 119.776 56.2663 118.48C56.6567 117.16 57.3735 116.043 58.2654 115.009C58.6771 114.533 59.103 114.048 59.6306 113.701C59.9121 113.516 60.1818 113.422 60.5225 113.422C60.5391 113.422 60.558 113.424 60.5769 113.424C60.5793 113.424 60.5816 113.424 60.584 113.424C60.5816 113.424 60.5793 113.424 60.5769 113.424C60.558 113.424 60.5391 113.422 60.5225 113.422C60.1818 113.422 59.9121 113.516 59.6306 113.701C59.103 114.048 58.6771 114.533 58.2654 115.009C57.3735 116.043 56.6567 117.16 56.2663 118.48C55.8854 119.776 55.6133 121.096 54.4824 121.969ZM61.6013 113.601C61.2654 113.504 60.9294 113.436 60.5935 113.424C60.9271 113.436 61.263 113.502 61.599 113.597C61.599 113.597 61.6013 113.599 61.6013 113.601ZM60.5911 113.424C60.5887 113.424 60.5887 113.424 60.5864 113.424C60.5887 113.424 60.5887 113.424 60.5911 113.424Z" fill="#507891"/>
<path d="M54.4023 122.021C54.9299 120.28 55.3487 118.501 56.1081 116.843C56.3566 116.303 56.6405 115.776 56.9693 115.279C57.2532 114.85 57.5655 114.406 57.9512 114.058C58.5071 113.554 59.276 113.206 60.0189 113.114C60.1372 113.1 60.2555 113.09 60.3762 113.09C60.6553 113.09 60.9392 113.138 61.19 113.263C61.3556 113.346 61.4858 113.464 61.5993 113.597C61.2634 113.502 60.9274 113.436 60.5938 113.424C60.5938 113.424 60.5938 113.424 60.5915 113.424C60.5891 113.424 60.5891 113.424 60.5867 113.424H60.5844C60.582 113.424 60.5796 113.424 60.5773 113.424C60.5583 113.424 60.5394 113.421 60.5229 113.421C60.1822 113.421 59.9125 113.516 59.6309 113.701C59.1033 114.048 58.6775 114.533 58.2658 115.009C57.3739 116.043 56.657 117.16 56.2666 118.48C55.8857 119.776 55.6137 121.096 54.4828 121.969L54.4023 122.021Z" fill="#193852"/>
<path d="M49.0293 122.398C48.8613 122.398 48.7076 122.343 48.6248 122.189C48.5845 122.116 48.5585 122.04 48.5254 121.965C49.1192 121.733 49.467 120.805 49.6799 120.306C49.8668 119.876 50.0277 119.436 50.217 119.007C50.3802 118.633 50.6145 118.3 50.8392 117.959C51.4638 117.02 52.1404 116.104 52.9519 115.317C53.7256 114.564 54.7027 113.869 55.8099 113.845C55.5355 114.408 55.1995 114.938 54.8612 115.463L54.8872 115.414C55.0386 115.127 55.2019 114.846 55.3746 114.574C55.3202 114.612 55.2681 114.652 55.2137 114.69C54.0781 115.7 53.0253 116.864 52.2611 118.132C51.4259 119.514 51.0498 121.25 49.6374 122.208C49.5001 122.301 49.2517 122.398 49.0293 122.398Z" fill="#193852"/>
<path d="M60.4446 110.327L60.4423 110.325L60.4446 110.327ZM60.4399 110.322C60.4375 110.322 60.4375 110.322 60.4352 110.32C60.4375 110.322 60.4375 110.322 60.4399 110.322ZM60.4328 110.317C60.4304 110.315 60.4304 110.315 60.4281 110.315C60.4304 110.315 60.4304 110.315 60.4328 110.317ZM60.4257 110.313C60.4233 110.31 60.4233 110.31 60.421 110.308C60.4233 110.31 60.4233 110.31 60.4257 110.313ZM60.4186 110.308C60.4186 110.306 60.4162 110.306 60.4139 110.303C60.4162 110.306 60.4186 110.306 60.4186 110.308ZM60.4139 110.303C60.4115 110.301 60.4091 110.301 60.4068 110.299C60.4091 110.301 60.4115 110.301 60.4139 110.303ZM60.4068 110.299C60.4044 110.296 60.402 110.294 60.3997 110.291C60.402 110.294 60.4044 110.296 60.4068 110.299ZM60.3997 110.291C60.3973 110.289 60.3949 110.289 60.3926 110.287C60.3949 110.289 60.3973 110.289 60.3997 110.291Z" fill="#507891"/>
<path d="M64.3836 112.373C64.1707 112.194 63.9388 112.04 63.6928 111.907C62.7322 111.401 61.6463 111.224 60.6479 110.817C60.1889 110.63 59.7418 110.381 59.4011 110.015C59.0012 109.589 58.8238 109.045 58.7315 108.477C58.5825 107.561 58.6819 106.615 58.6937 105.692C58.7031 104.904 58.6913 104.055 58.3979 103.31C58.6842 103.385 58.9729 103.456 59.2639 103.523C59.2639 103.579 59.2639 103.639 59.2639 103.698C59.2639 104.814 59.2828 105.934 59.3514 107.048C59.394 107.72 59.491 108.42 59.5785 109.127C59.7843 109.586 60.0446 110.012 60.3924 110.287C60.3947 110.289 60.3971 110.289 60.3995 110.291C60.4018 110.294 60.4042 110.296 60.4066 110.299C60.4089 110.301 60.4113 110.301 60.4137 110.303C60.416 110.306 60.4184 110.306 60.4184 110.308C60.4208 110.308 60.4208 110.308 60.4208 110.308C60.4231 110.31 60.4231 110.31 60.4255 110.313C60.4279 110.313 60.4279 110.315 60.4279 110.315C60.4302 110.315 60.4302 110.315 60.4326 110.317L60.435 110.32C60.4373 110.322 60.4373 110.322 60.4397 110.322C60.4397 110.325 60.4421 110.325 60.4421 110.325L60.4444 110.327C60.4468 110.327 60.4492 110.329 60.4515 110.332C61.6061 111.195 63.5579 111.186 64.3836 112.373Z" fill="#193852"/>
<path d="M70.9088 113.355C70.8378 113.911 71.4742 114.486 72.0302 114.311C72.9978 114.008 74.0506 113.452 75.0798 113.424C75.4465 113.414 75.728 113.507 76.0261 113.701C76.5537 114.048 76.9796 114.533 77.3889 115.009C78.2808 116.043 79 117.16 79.388 118.48C79.7713 119.776 80.0434 121.096 81.1743 121.969C81.4109 122.152 81.8154 122.239 82.078 122.064C82.7547 121.617 82.7263 120.706 82.5938 119.999C82.291 118.385 81.5268 116.857 80.7697 115.414C80.6183 115.127 80.4551 114.846 80.28 114.574C80.3368 114.612 80.3888 114.652 80.4432 114.69C81.5765 115.7 82.6293 116.864 83.3958 118.132C84.231 119.514 84.6072 121.25 86.0196 122.208C86.2609 122.374 86.8382 122.547 87.0322 122.189C87.6378 121.068 87.4462 119.771 87.0393 118.612C86.3082 116.542 84.9573 114.701 83.3036 113.272C82.3478 112.447 81.3186 111.718 80.1759 111.179C79.7003 110.954 79.1302 110.72 78.5529 110.608C79.0474 107.767 79.4164 104.902 80.0008 102.075C80.2587 100.821 80.5 99.5504 80.8998 98.332L80.9424 98.2018C81.3872 98.1805 81.5008 97.7642 81.302 97.388L81.3754 97.2626C81.4795 97.1112 81.5173 97.078 81.6238 97.0189C81.6758 96.9881 81.6995 96.9858 81.7894 97.0071C82.2247 97.1159 82.1277 96.5718 81.8391 96.444C81.3399 96.2263 80.914 96.4132 80.5733 96.7374C79.5253 96.179 77.8857 96.2287 77.0245 96.8557C76.4757 97.2555 76.329 97.8753 76.3148 98.5212C76.2982 99.302 76.3645 100.092 76.3716 100.875C76.3881 102.934 76.4331 104.994 76.303 107.048C76.2627 107.72 76.1657 108.42 76.0782 109.127C75.8724 109.586 75.6098 110.012 75.2643 110.287C73.8661 111.394 71.1974 111.105 70.9088 113.355Z" fill="#507891"/>
<path d="M76.0145 113.694C75.7377 113.514 75.4727 113.424 75.1368 113.422C75.4727 113.424 75.7377 113.514 76.0145 113.694ZM74.0532 113.601C74.0556 113.599 74.0556 113.597 74.058 113.597C74.3915 113.502 74.7299 113.436 75.0634 113.424C74.7275 113.436 74.3915 113.504 74.0532 113.601ZM75.0658 113.424C75.0682 113.424 75.0682 113.424 75.0705 113.424C75.0682 113.424 75.0682 113.424 75.0658 113.424ZM75.0729 113.424C75.0753 113.424 75.0776 113.424 75.08 113.424C75.0776 113.424 75.0753 113.424 75.0729 113.424Z" fill="#507891"/>
<path d="M81.2551 122.021L81.1746 121.969C80.0438 121.096 79.7717 119.776 79.3884 118.48C79.0004 117.16 78.2812 116.043 77.3893 115.009C76.98 114.533 76.5541 114.048 76.0265 113.701C76.0218 113.698 76.0194 113.696 76.0147 113.694C75.7379 113.514 75.4729 113.424 75.1369 113.421C75.1346 113.421 75.1346 113.421 75.1346 113.421C75.1156 113.421 75.0991 113.424 75.0802 113.424C75.0778 113.424 75.0754 113.424 75.0731 113.424H75.0707C75.0683 113.424 75.0683 113.424 75.066 113.424H75.0636C74.73 113.436 74.3917 113.502 74.0581 113.597C74.1693 113.464 74.3018 113.346 74.4674 113.263C74.7182 113.138 74.9997 113.09 75.2813 113.09C75.4019 113.09 75.5202 113.1 75.6361 113.114C76.3814 113.206 77.1503 113.554 77.7063 114.058C78.0895 114.406 78.4018 114.85 78.6881 115.279C79.017 115.776 79.3009 116.303 79.5469 116.843C80.3087 118.501 80.7275 120.28 81.2551 122.021Z" fill="#193852"/>
<path d="M86.6253 122.398C86.6276 122.398 86.6276 122.398 86.6276 122.398C86.6276 122.398 86.6276 122.398 86.6253 122.398ZM86.6229 122.398C86.4123 122.398 86.1805 122.31 86.0385 122.223C86.1805 122.31 86.4123 122.398 86.6229 122.398ZM86.0385 122.22H86.0362H86.0385ZM86.0362 122.218C86.0338 122.218 86.0338 122.218 86.0314 122.218C86.0338 122.218 86.0338 122.218 86.0362 122.218ZM86.0291 122.215C86.0267 122.213 86.0243 122.213 86.022 122.211C86.0243 122.213 86.0267 122.213 86.0291 122.215ZM87.0227 122.206C87.0251 122.201 87.0275 122.199 87.0298 122.194C87.0275 122.199 87.0251 122.201 87.0227 122.206Z" fill="#507891"/>
<path d="M86.6254 122.398C86.6254 122.398 86.6254 122.398 86.623 122.398C86.4125 122.398 86.1806 122.31 86.0387 122.223C86.0387 122.22 86.0387 122.22 86.0387 122.22H86.0363C86.0363 122.22 86.0363 122.22 86.0363 122.218C86.0339 122.218 86.0339 122.218 86.0316 122.218C86.0316 122.215 86.0316 122.215 86.0292 122.215C86.0268 122.213 86.0245 122.213 86.0221 122.211L86.0197 122.208C84.6073 121.25 84.2311 119.514 83.396 118.132C82.6294 116.864 81.5766 115.7 80.4434 114.69C80.389 114.652 80.3369 114.612 80.2801 114.574C80.4552 114.846 80.6184 115.127 80.7699 115.414L80.7959 115.463C80.4576 114.938 80.1216 114.408 79.8472 113.845C80.9544 113.869 81.9315 114.564 82.7051 115.317C83.5143 116.104 84.1933 117.02 84.8179 117.959C85.0426 118.3 85.2745 118.633 85.4401 119.007C85.6294 119.436 85.7902 119.876 85.9748 120.306C86.1901 120.805 86.5379 121.733 87.1317 121.965C87.0986 122.04 87.0702 122.116 87.0323 122.189C87.03 122.192 87.03 122.194 87.03 122.194C87.0276 122.199 87.0252 122.201 87.0229 122.206C86.9377 122.348 86.7886 122.398 86.6278 122.398C86.6278 122.398 86.6278 122.398 86.6254 122.398Z" fill="#193852"/>
<path d="M75.1982 110.339V110.336V110.339ZM75.2053 110.332C75.2053 110.332 75.2053 110.332 75.2077 110.332C75.2053 110.332 75.2053 110.332 75.2053 110.332ZM75.2101 110.327C75.2124 110.327 75.2124 110.327 75.2148 110.325C75.2124 110.327 75.2124 110.327 75.2101 110.327ZM75.2172 110.322C75.2195 110.322 75.2219 110.32 75.2219 110.32C75.2219 110.32 75.2195 110.322 75.2172 110.322ZM75.2243 110.317C75.2266 110.317 75.2266 110.315 75.229 110.313C75.2266 110.315 75.2266 110.317 75.2243 110.317ZM75.229 110.313C75.2314 110.313 75.2337 110.31 75.2361 110.308C75.2337 110.31 75.2314 110.313 75.229 110.313ZM75.2361 110.308C75.2385 110.306 75.2408 110.306 75.2432 110.303C75.2408 110.306 75.2385 110.306 75.2361 110.308ZM75.2432 110.303C75.2456 110.301 75.2479 110.301 75.2503 110.299C75.2479 110.301 75.2456 110.301 75.2432 110.303ZM75.2503 110.299C75.2527 110.296 75.255 110.294 75.2574 110.291C75.255 110.294 75.2527 110.296 75.2503 110.299ZM75.2574 110.291C75.2598 110.289 75.2621 110.289 75.2645 110.287C75.2621 110.289 75.2598 110.289 75.2574 110.291Z" fill="#507891"/>
<path d="M71.2734 112.373C72.0968 111.19 74.0368 111.195 75.1937 110.341C75.1937 110.339 75.1961 110.339 75.1984 110.339V110.336C75.2008 110.336 75.2031 110.334 75.2055 110.332C75.2055 110.332 75.2055 110.332 75.2079 110.332C75.2079 110.329 75.2102 110.329 75.2102 110.327C75.2126 110.327 75.2126 110.327 75.215 110.325C75.215 110.325 75.2173 110.325 75.2173 110.322C75.2197 110.322 75.2221 110.32 75.2221 110.32C75.2244 110.317 75.2244 110.317 75.2244 110.317C75.2268 110.317 75.2268 110.315 75.2292 110.313C75.2315 110.313 75.2339 110.31 75.2363 110.308C75.2386 110.306 75.241 110.306 75.2434 110.303C75.2457 110.301 75.2481 110.301 75.2505 110.298C75.2528 110.296 75.2552 110.294 75.2576 110.291C75.2599 110.289 75.2623 110.289 75.2647 110.287C75.6101 110.012 75.8727 109.586 76.0785 109.127C76.1661 108.42 76.2631 107.72 76.3033 107.048C76.3743 105.941 76.3932 104.831 76.3932 103.721C76.3932 103.513 76.3932 103.305 76.3908 103.094C76.7859 102.99 77.1763 102.877 77.5667 102.756C77.4791 102.87 77.4058 102.988 77.3443 103.118C76.9657 103.906 76.9539 104.836 76.9634 105.692C76.9728 106.615 77.0722 107.561 76.9255 108.477C76.8332 109.045 76.6558 109.589 76.256 110.015C75.9153 110.381 75.4681 110.63 75.0091 110.817C74.0084 111.224 72.9248 111.401 71.9643 111.907C71.7159 112.04 71.484 112.194 71.2734 112.373Z" fill="#193852"/>
<path d="M117.536 59.5884C115.444 58.8881 113.272 60.6933 111.806 61.9496C110.944 62.6877 110.121 63.4685 109.333 64.2823C110.301 62.1791 111.008 59.8889 110.807 57.5538C110.682 56.0846 110.109 53.2266 108.188 53.1107C106.75 53.0231 105.508 54.3788 104.677 55.3819C103.97 56.236 103.34 57.1516 102.728 58.079C102.848 57.5278 102.948 56.9741 103.007 56.4182C103.125 55.3062 103.17 53.5697 101.914 53.0634C101.24 52.7937 100.385 52.964 99.7633 53.2905C98.824 53.7802 98.1142 54.6154 97.4873 55.4458C96.8509 56.2904 96.3067 57.1965 95.746 58.0908C95.0268 59.2407 94.3005 60.3763 93.6427 61.5616C92.1499 64.2468 90.8605 67.0362 89.4693 69.7711C88.0664 72.5368 86.8669 75.3877 85.8188 78.3048C84.8417 81.0209 84.016 83.7866 83.0673 86.512C82.3433 88.5964 81.4538 90.8061 81.4065 93.0489C80.479 95.0954 79.5753 97.1537 78.7851 99.2594C78.6266 99.6828 79.0903 99.7893 79.3907 99.6852C82.4545 98.6135 85.296 96.9597 87.9788 95.1522C90.6641 93.3399 93.2051 91.329 95.7176 89.2848C100.016 85.7881 104.256 82.1636 108.032 78.0966C108.974 77.3064 109.922 76.5233 110.859 75.7284C112.709 74.1551 114.529 72.5345 116.128 70.7033C117.576 69.0448 119.024 67.1474 119.615 64.9897C120.157 63.0189 119.767 60.3384 117.536 59.5884Z" fill="#494445"/>
<path d="M101.362 53.5058C101.812 54.3126 101.881 55.2518 101.769 56.1532C101.63 57.2794 101.268 58.3677 100.87 59.4276C100.461 60.5206 100.016 61.59 99.6495 62.6972C99.4674 63.2437 99.2876 63.7902 99.103 64.3368C100.206 62.1696 101.431 60.0616 102.742 58.0128C102.855 57.4828 102.95 56.9529 103.007 56.4182C103.125 55.3062 103.17 53.5697 101.914 53.0634C101.599 52.938 101.244 52.9096 100.894 52.9475C101.081 53.0965 101.239 53.2881 101.362 53.5058Z" fill="#262324"/>
<path d="M110.383 57.6603C109.946 59.2714 109.231 60.7974 108.474 62.2808C107.693 63.8068 106.898 65.3281 106.073 66.8256C104.365 69.9202 102.548 72.9556 100.887 76.0762C101.954 74.6496 103.021 73.223 104.109 71.8129C106.638 68.5338 109.257 65.2902 112.224 62.392C113.386 61.2564 114.663 60.1586 116.147 59.4631C114.519 59.6642 112.95 60.9701 111.805 61.9496C110.944 62.6877 110.121 63.4685 109.333 64.2823C110.301 62.1791 111.008 59.8889 110.807 57.5538C110.778 57.2297 110.729 56.8369 110.648 56.4229C110.582 56.8393 110.495 57.2533 110.383 57.6603Z" fill="#262324"/>
<path d="M93.0915 76.4477C93.0135 74.5218 92.9519 72.5936 92.7579 70.6749C92.5758 68.8461 92.2374 67.0409 91.7974 65.2571C90.9149 61.6799 89.6492 58.2021 88.2013 54.8189C86.8977 51.7787 85.5373 48.6676 83.7085 45.9019C82.1139 43.4911 80.1313 41.305 77.7914 39.5968C75.4445 37.884 72.7214 36.6868 69.8397 36.2562C67.0669 35.8398 64.1948 36.0859 61.5213 36.9329C57.6271 38.1655 54.1706 40.6189 51.7811 43.8956C51.8118 43.7537 51.8473 43.6117 51.8757 43.4698C51.9088 43.2947 51.6083 43.3751 51.5729 43.4982C51.4593 43.9146 51.3339 44.3239 51.2061 44.7332C50.6431 45.6038 50.151 46.5241 49.7464 47.4918C49.2756 48.6132 48.9704 49.7654 48.7456 50.9507C46.8719 55.0554 44.7237 59.0467 43.2616 63.3242C42.0715 66.7973 41.2719 70.4147 40.9785 74.0747C40.6922 77.6117 40.9406 81.1557 41.5676 84.6454C42.1212 87.74 43.0605 90.7801 44.6834 93.489C46.3064 96.1979 48.5848 98.5212 51.2369 100.232C56.818 103.83 63.9913 104.786 70.4975 104.166C74.1125 103.821 77.6637 102.922 81.0067 101.497C83.9356 100.251 86.531 98.3201 88.6461 95.9424C90.7257 93.6026 92.4314 90.7848 93.1105 87.7021C93.9243 84.0161 93.2429 80.1692 93.0915 76.4477Z" fill="#504B4C"/>
<path d="M66.823 104.341C64.2986 104.341 61.7364 104.088 59.264 103.523C58.973 103.456 58.6844 103.385 58.3981 103.31C57.4944 103.073 56.6024 102.794 55.7318 102.47C55.1048 98.7318 53.9053 95.1167 52.9022 91.4662C52.4835 89.9331 52.0623 88.3503 51.5371 86.8125C51.6862 86.8788 51.8423 86.9143 51.9985 86.9143C52.1972 86.9143 52.3959 86.8551 52.5781 86.7226C52.6609 86.6635 52.7319 86.5996 52.7934 86.5286C54.1206 87.9552 55.7105 89.124 57.5393 89.8811C58.9896 90.482 60.544 90.8061 62.1102 90.8913C62.3823 90.9055 62.6543 90.9126 62.924 90.9126C64.4287 90.9126 65.9216 90.6973 67.3979 90.3992C70.9869 89.6752 74.4908 88.4071 77.6279 86.505C80.1358 84.9861 82.3857 83.0532 84.2192 80.7725C84.0678 81.2456 83.9259 81.7188 83.7887 82.1967C83.5639 82.9869 83.254 83.7629 83.1262 84.5791C83.1026 84.7448 83.0836 84.9127 83.0836 85.0783C83.0836 85.5397 83.209 85.9845 83.6183 86.2755C83.6254 86.2802 83.6325 86.2873 83.6396 86.292C83.8171 86.4127 84.0063 86.4671 84.198 86.4671C84.198 86.4671 84.198 86.4671 84.2003 86.4671C84.3494 86.4671 84.4984 86.434 84.6404 86.3748C84.6475 86.3725 84.6546 86.3677 84.6617 86.3654C84.1341 87.9032 83.7153 89.486 83.2942 91.019C82.3218 94.5631 81.1625 98.0764 80.519 101.701C79.5514 102.096 78.5648 102.449 77.5664 102.756C77.1761 102.877 76.7857 102.99 76.3906 103.094C74.4624 103.617 72.4893 103.975 70.4972 104.166C69.2906 104.28 68.0627 104.341 66.823 104.341Z" fill="#393536"/>
<path d="M80.1096 105.207C80.1214 105.775 80.2515 106.366 80.6726 106.776C81.7326 107.807 83.41 106.918 84.3681 106.203C85.6055 105.283 86.611 104.102 87.704 103.026C89.0809 101.668 90.368 100.227 91.5485 98.6939C93.8245 95.7413 95.5776 92.5025 96.7913 88.9773C97.9766 85.5279 98.6887 81.9176 98.9679 78.2836C99.5239 71.018 98.3149 63.5324 94.998 57.0073C94.2173 55.4695 93.2804 54.0571 92.3222 52.6281C91.6053 51.5587 90.9523 50.4349 90.051 49.5051C89.2655 48.6984 88.0778 47.8798 86.9185 48.4239C86.6465 48.554 86.4241 48.7386 86.2395 48.9586C86.0503 48.9278 85.8657 48.9823 85.7782 49.1763C85.3168 50.2078 84.6923 51.1612 84.3137 52.2306C83.9115 53.3662 83.8453 54.6012 83.8476 55.7936C83.85 56.8511 83.9257 57.904 83.921 58.9591C83.9186 59.7754 83.8737 60.5916 83.8595 61.4078C83.8287 63.0923 83.8358 64.9543 84.6449 66.4826C84.9194 67.0031 85.3689 67.4834 85.9864 67.526C86.3626 67.552 86.6985 67.4006 86.9895 67.1829C86.954 67.2846 86.9162 67.384 86.8783 67.4857C86.4809 68.548 86.0881 69.6481 85.9414 70.779C85.8279 71.6402 85.8397 72.7261 86.6275 73.2845C86.8428 73.4383 87.0605 73.514 87.2782 73.5305C86.4643 75.0873 85.7309 76.6866 85.0945 78.3167C84.5976 79.5872 84.1623 80.8837 83.7885 82.1967C83.5637 82.9869 83.2538 83.7629 83.126 84.5792C83.0314 85.199 83.0622 85.878 83.6181 86.2755C83.9446 86.5097 84.3184 86.5144 84.6615 86.3654C84.1339 87.9032 83.7152 89.486 83.294 91.0191C82.2578 94.7974 81.0086 98.5378 80.4006 102.415C80.2562 103.329 80.093 104.28 80.1096 105.207Z" fill="#2F2B2C"/>
<path d="M81.8606 107.244C81.43 107.244 81.0184 107.112 80.6729 106.776C80.2518 106.366 80.1217 105.775 80.1099 105.207C80.1099 105.16 80.1099 105.113 80.1099 105.065C80.1099 105.113 80.1099 105.16 80.1099 105.207C80.1217 105.775 80.2518 106.366 80.6729 106.776C81.0184 107.112 81.43 107.244 81.8606 107.244ZM84.34 106.225C84.3495 106.217 84.359 106.21 84.3684 106.203C85.6058 105.283 86.6113 104.102 87.7043 103.026C87.728 103.002 87.7516 102.979 87.7753 102.955C87.7516 102.979 87.728 103.002 87.7043 103.026C86.6113 104.102 85.6058 105.283 84.3684 106.203C84.359 106.21 84.3495 106.217 84.34 106.225Z" fill="#2F2B2C"/>
<path d="M86.0717 67.5283C86.0717 67.5283 86.0716 67.5283 86.074 67.5283C86.0716 67.5283 86.0717 67.5283 86.0717 67.5283ZM86.0717 67.5283C86.0433 67.5283 86.0149 67.5283 85.9865 67.5259C85.369 67.4834 84.9195 67.0031 84.645 66.4826C83.9637 65.1932 83.8501 63.6672 83.8501 62.2075C83.8501 63.6672 83.9637 65.1932 84.645 66.4826C84.9195 67.0031 85.369 67.4834 85.9865 67.5259C86.0149 67.5283 86.0433 67.5283 86.0717 67.5283ZM86.9589 67.2065C86.9683 67.1994 86.9801 67.1923 86.9896 67.1829C86.9801 67.1923 86.9683 67.1994 86.9589 67.2065Z" fill="#0F0D0D"/>
<path d="M84.1978 86.4671C84.0062 86.4671 83.8169 86.4127 83.6395 86.2921C83.8169 86.4127 84.0062 86.4671 84.1978 86.4671ZM84.6402 86.3749C84.6473 86.3725 84.6544 86.3678 84.6615 86.3654C84.6544 86.3678 84.6473 86.3725 84.6402 86.3749ZM83.6395 86.2921C83.6324 86.2873 83.6253 86.2802 83.6182 86.2755C83.2089 85.9845 83.0835 85.5397 83.0835 85.0784C83.0835 85.5397 83.2089 85.9845 83.6182 86.2755C83.6253 86.2802 83.6324 86.2873 83.6395 86.2921Z" fill="#0B0909"/>
<path d="M81.863 107.244C81.863 107.244 81.863 107.244 81.8606 107.244C81.43 107.244 81.0184 107.112 80.6729 106.776C80.2518 106.366 80.1217 105.775 80.1099 105.207C80.1099 105.16 80.1099 105.113 80.1099 105.065C80.1099 104.185 80.266 103.284 80.4009 102.415C81.0089 98.5378 82.2581 94.7973 83.2943 91.019C83.7155 89.486 84.1342 87.9032 84.6618 86.3654C84.6547 86.3677 84.6476 86.3725 84.6405 86.3748C84.4986 86.434 84.3495 86.4671 84.2005 86.4671C84.1981 86.4671 84.1981 86.4671 84.1981 86.4671C84.0065 86.4671 83.8172 86.4127 83.6397 86.292C83.6326 86.2873 83.6255 86.2802 83.6184 86.2755C83.2092 85.9845 83.0838 85.5397 83.0838 85.0783C83.0838 84.9127 83.1027 84.7448 83.1263 84.5791C83.2541 83.7629 83.564 82.9869 83.7888 82.1967C84.1626 80.8837 84.5979 79.5872 85.0948 78.3167C85.7312 76.6866 86.4646 75.0873 87.2785 73.5305C87.0608 73.514 86.8431 73.4383 86.6278 73.2845C86.0506 72.8752 85.8897 72.182 85.8897 71.503C85.8897 71.2569 85.911 71.0085 85.9417 70.779C86.0884 69.6481 86.4812 68.548 86.8786 67.4857C86.9165 67.384 86.9543 67.2846 86.9898 67.1829C86.9804 67.1924 86.9685 67.1995 86.9591 67.2066C86.6964 67.3958 86.4007 67.5283 86.0742 67.5283C86.0719 67.5283 86.0719 67.5283 86.0719 67.5283C86.0435 67.5283 86.0151 67.5283 85.9867 67.5259C85.3692 67.4834 84.9197 67.0031 84.6452 66.4826C83.9639 65.1932 83.8503 63.6672 83.8503 62.2075C83.8503 61.9378 83.855 61.6704 83.8598 61.4078C83.874 60.5916 83.9189 59.7754 83.9213 58.9591C83.9236 58.9331 83.9236 58.9094 83.9236 58.8834C83.9213 58.3582 83.9024 57.8306 83.8834 57.303C84.2549 57.1066 84.5601 56.7802 84.8321 56.4229C84.8534 57.717 84.9741 59.0088 85.2083 60.284C85.4236 61.4551 85.6981 62.6617 86.1972 63.75C86.3818 64.1522 86.6633 64.7058 87.1412 64.8123C87.1909 64.8241 87.2382 64.8289 87.2832 64.8289C87.631 64.8289 87.9101 64.5426 88.1041 64.2752C88.4543 63.7926 88.6767 63.213 88.8801 62.6546C89.1404 61.9401 89.351 61.2067 89.5497 60.4709C89.7981 59.5506 90.0016 58.6113 90.2429 57.6839C90.2665 58.4126 90.2547 59.1413 90.2003 59.8676C89.9164 63.7358 88.672 67.4455 88.0781 71.264C88.0568 71.3941 88.1515 71.4982 88.2603 71.4982C88.3029 71.4982 88.3478 71.4817 88.3904 71.4438C88.918 70.9683 89.3557 70.3981 89.7342 69.7972C90.2287 69.007 90.638 68.1671 90.9952 67.3036C90.9314 67.5307 90.8722 67.7554 90.8083 67.9826C90.5481 68.8911 90.2784 69.7972 89.9945 70.6962C89.7461 71.4769 89.526 72.2861 89.1924 73.0337C88.7169 74.1007 88.1917 75.1464 87.7161 76.2134C87.1862 77.3964 86.6846 78.6053 86.3581 79.8616C86.0955 80.8624 85.8944 81.9932 86.2209 83.0035C86.2493 83.0934 86.3179 83.136 86.3936 83.136C86.4409 83.136 86.4906 83.1194 86.5332 83.0863C87.3684 82.4215 88.0947 81.6313 88.75 80.789C90.0205 79.1518 91.0426 77.3277 91.9345 75.4611C92.19 74.924 92.4337 74.3799 92.6703 73.831C92.507 74.3609 92.3391 74.8862 92.1663 75.4114C91.1017 78.6503 89.9377 81.8891 88.4921 84.9766C87.1341 87.8748 85.6247 90.7659 84.9812 93.9267C84.9528 94.0639 85.0545 94.1562 85.161 94.1562C85.2201 94.1562 85.2793 94.1302 85.3219 94.071C86.0387 93.0773 86.7177 92.06 87.366 91.0214C88.7855 88.7525 90.0584 86.3985 91.2555 84.0066C89.9353 87.3283 88.5797 90.6381 87.0821 93.8817C86.4693 95.2066 85.8069 96.5055 85.2391 97.8469C84.6878 99.1458 84.0822 100.577 84.0514 102.011C84.0325 102.908 84.4631 103.915 85.4141 103.915C85.5017 103.915 85.5963 103.906 85.6933 103.889C86.2801 103.778 86.8195 103.421 87.2903 103.071C87.8581 102.652 88.3809 102.176 88.8849 101.684C89.3107 101.27 89.7177 100.837 90.1341 100.414L90.2334 100.303C89.4503 101.218 88.6317 102.106 87.7753 102.955C87.7516 102.979 87.728 103.002 87.7043 103.026C86.6113 104.102 85.6058 105.283 84.3684 106.203C84.359 106.21 84.3495 106.217 84.34 106.224C83.6942 106.7 82.7383 107.244 81.863 107.244Z" fill="#090708"/>
<path d="M55.7959 102.863C55.1879 98.9849 53.9387 95.2445 52.9024 91.4662C52.4837 89.9331 52.0625 88.3503 51.5373 86.8125C51.8804 86.9616 52.2542 86.9568 52.5783 86.7226C53.1343 86.3252 53.165 85.6462 53.0704 85.0263C52.945 84.2077 52.6327 83.4341 52.408 82.6415C52.0342 81.3308 51.5988 80.0343 51.102 78.7638C50.4679 77.1338 49.7345 75.5344 48.9183 73.9777C49.1383 73.9611 49.356 73.8854 49.5689 73.7316C50.3568 73.1733 50.3686 72.085 50.2574 71.2262C50.1083 70.0953 49.7156 68.9952 49.3181 67.9329C49.2803 67.8312 49.2448 67.7294 49.2069 67.6301C49.4979 67.8477 49.8339 67.9991 50.2101 67.9731C50.8299 67.9305 51.2794 67.4479 51.5539 66.9298C52.3606 65.4014 52.3677 63.5395 52.337 61.855C52.3228 61.0387 52.2778 60.2225 52.2755 59.4063C52.2731 58.3511 52.3488 57.2959 52.3512 56.2407C52.3535 55.046 52.2873 53.811 51.8851 52.6777C51.5066 51.6084 50.8796 50.6526 50.4183 49.6234C50.3307 49.4294 50.1462 49.375 49.9593 49.4057C49.7747 49.1857 49.5524 49.0012 49.2779 48.8711C48.121 48.3269 46.9333 49.1455 46.1479 49.9523C45.2441 50.8797 44.5935 52.0058 43.8766 53.0728C42.9185 54.5042 41.9816 55.9166 41.1985 57.4544C37.8839 63.9771 36.6726 71.4651 37.2285 78.7307C37.5077 82.3647 38.2198 85.975 39.4075 89.4221C40.6212 92.9496 42.3719 96.1885 44.6479 99.1411C45.8285 100.672 47.1179 102.115 48.4924 103.473C49.5855 104.549 50.591 105.73 51.8283 106.65C52.7865 107.362 54.4639 108.254 55.5238 107.223C55.9449 106.814 56.0751 106.222 56.0869 105.654C56.1035 104.727 55.9402 103.776 55.7959 102.863Z" fill="#2F2B2C"/>
<path d="M54.3361 107.691C53.4465 107.691 52.4742 107.131 51.8283 106.65C50.5909 105.73 49.5854 104.549 48.4924 103.473C47.6099 102.602 46.7677 101.692 45.9633 100.75L46.0627 100.861C46.479 101.285 46.886 101.715 47.3118 102.132C47.8158 102.624 48.341 103.097 48.9064 103.518C49.3796 103.868 49.9167 104.225 50.5058 104.334C50.6028 104.353 50.695 104.363 50.7826 104.363C51.7336 104.363 52.1666 103.355 52.1453 102.458C52.1169 101.024 51.5089 99.593 50.96 98.2941C50.3898 96.9527 49.7274 95.6538 49.1146 94.3289C47.617 91.0829 46.2614 87.7755 44.9412 84.4538C46.1407 86.8457 47.4136 89.1997 48.8307 91.4686C49.479 92.5072 50.1603 93.5245 50.8748 94.5158C50.9174 94.5773 50.9789 94.6034 51.0357 94.6034C51.1445 94.6034 51.2439 94.5111 51.2155 94.3739C50.5744 91.2131 49.0626 88.3196 47.7069 85.4238C46.2614 82.3363 45.095 79.0951 44.0304 75.8586C43.8577 75.3333 43.6897 74.8057 43.5288 74.2782C43.763 74.827 44.0067 75.3712 44.2622 75.9082C45.1542 77.7749 46.1762 79.599 47.4491 81.2362C48.102 82.0761 48.8284 82.8686 49.6659 83.5334C49.7085 83.5666 49.7558 83.5831 49.8031 83.5831C49.8788 83.5831 49.9474 83.5382 49.9782 83.4506C50.3023 82.4404 50.1036 81.3095 49.841 80.3088C49.5121 79.0525 49.0105 77.8435 48.4829 76.6606C48.005 75.5936 47.4798 74.5479 47.0066 73.4809C46.6731 72.7332 46.4507 71.9241 46.2046 71.1434C45.9183 70.242 45.6486 69.3382 45.3907 68.4297C45.3245 68.2026 45.2654 67.9778 45.2015 67.7507C45.5611 68.6143 45.968 69.4541 46.4649 70.2443C46.841 70.8453 47.2787 71.4155 47.8087 71.891C47.8489 71.9288 47.8938 71.9454 47.9364 71.9454C48.0453 71.9454 48.1399 71.8389 48.1186 71.7112C47.5248 67.8903 46.2827 64.183 45.9964 60.3148C45.9444 59.5885 45.9302 58.8598 45.9538 58.1311C46.1951 59.0585 46.3986 59.9954 46.647 60.9181C46.8458 61.6539 47.0587 62.3873 47.3189 63.1018C47.52 63.6578 47.7424 64.2398 48.0926 64.7224C48.2866 64.9897 48.5681 65.276 48.9135 65.276C48.9585 65.276 49.0058 65.2689 49.0555 65.2595C49.5334 65.153 49.8149 64.5994 49.9995 64.1972C50.4987 63.1089 50.7731 61.8999 50.9884 60.7312C51.2226 59.4489 51.3456 58.1477 51.3669 56.8441C51.5822 57.2557 51.8188 57.6555 52.0767 58.0341C52.1453 58.1382 52.2187 58.2399 52.292 58.3417C52.2825 58.6729 52.2754 59.0017 52.2754 59.3306C52.2754 59.3566 52.2754 59.3803 52.2754 59.4063C52.2778 60.2225 52.3228 61.0387 52.3369 61.855C52.3417 62.1176 52.3464 62.3849 52.3464 62.6546C52.3464 64.1144 52.2352 65.6404 51.5538 66.9298C51.2794 67.4479 50.8299 67.9305 50.21 67.9731C50.1816 67.9755 50.1532 67.9755 50.1249 67.9755C49.7842 67.9755 49.4766 67.8312 49.2069 67.6301C49.2448 67.7294 49.2802 67.8312 49.3181 67.9329C49.7156 68.9952 50.1083 70.0953 50.2573 71.2262C50.2857 71.4533 50.307 71.6994 50.307 71.9454C50.307 72.6268 50.1485 73.32 49.5689 73.7316C49.3559 73.8854 49.1383 73.9611 48.9183 73.9777C49.7345 75.5344 50.4679 77.1338 51.102 78.7638C51.5988 80.0343 52.0341 81.3308 52.4079 82.6415C52.6327 83.4341 52.945 84.2077 53.0704 85.0263C53.0964 85.1919 53.113 85.3599 53.113 85.5255C53.113 85.9869 52.9876 86.4293 52.5783 86.7226C52.3961 86.8551 52.1974 86.9143 51.9986 86.9143C51.8425 86.9143 51.6863 86.8788 51.5373 86.8125C52.0625 88.3504 52.4836 89.9331 52.9024 91.4662C53.9386 95.2445 55.1878 98.9849 55.7958 102.863C55.9331 103.729 56.0869 104.63 56.0869 105.512C56.0869 105.56 56.0869 105.607 56.0869 105.654C56.075 106.222 55.9449 106.814 55.5238 107.223C55.1784 107.559 54.7667 107.691 54.3361 107.691Z" fill="#090708"/>
<path d="M87.295 48.7196C87.4606 44.7497 86.0292 40.7159 84.631 37.0843C83.7438 34.7823 82.7974 32.5087 82.0285 30.1641C81.2289 27.7202 80.5664 25.2313 80.0246 22.7164C79.1327 18.5785 78.5436 14.2394 75.3994 11.1118C72.7898 8.5164 69.17 6.75383 65.5431 6.18839C63.5156 5.87372 61.4005 5.92814 59.4321 6.54327C57.5867 7.1229 56.0513 8.1284 54.7264 9.48641C53.2406 10.667 52.9212 13.0683 52.8621 14.8498C52.7438 18.4602 53.4748 22.0374 53.4583 25.6477C53.4417 29.2887 53.0348 32.9298 52.1878 36.4739C51.7643 38.253 51.2367 40.0061 50.624 41.7309C50.0041 43.4792 49.2801 45.1898 48.8496 46.9997C48.5041 48.4665 48.3149 49.9878 48.3267 51.4948C48.3362 52.7132 48.419 54.2534 49.4103 55.1099C49.6185 55.2897 50.0183 55.0673 50.1224 54.8709C50.2383 54.6509 50.3282 54.419 50.411 54.1848C50.4489 54.5728 50.553 54.9537 50.6902 55.3228C51.0403 56.2644 51.5112 57.2037 52.0766 58.0341C52.9709 59.3519 54.168 60.5253 55.4456 61.4764C56.3612 62.1602 57.3478 62.7658 58.3722 63.2698C59.3706 63.7619 60.5086 64.2634 61.6465 64.235C62.5527 64.2137 63.2269 63.7713 63.5937 63.0687C65.8436 65.011 69.0919 65.3399 71.9286 64.6633C73.8071 64.2161 75.5957 63.4496 77.2613 62.4819C78.7873 61.5947 80.1287 60.5324 81.1177 59.0538C81.6524 58.2541 82.0806 57.3882 82.4236 56.4892C82.5916 57.1161 82.9536 57.6697 83.6965 57.3882C84.534 57.0688 85.0616 56.0704 85.5489 55.3725C86.2043 54.4356 86.7177 53.3899 86.985 52.2708C87.2524 51.1423 87.4014 49.8884 87.295 48.7196Z" fill="#262324"/>
<path d="M74.8597 18.5974C74.6728 17.4925 74.2423 16.4397 73.7076 15.4579C72.6713 13.5604 71.1761 11.8546 69.3496 10.6812C67.9372 9.77503 66.3024 9.24507 64.6368 9.0771C61.4524 8.75297 58.1567 9.652 55.5329 11.4737C54.5345 12.1646 53.6473 12.9997 52.9163 13.9461C52.8879 14.256 52.8713 14.5612 52.8619 14.8498C52.7436 18.4601 53.4746 22.0373 53.4581 25.6477C53.4415 29.2887 53.0346 32.9298 52.1876 36.4739C51.8682 37.8177 51.4873 39.1473 51.0591 40.458C51.1111 43.2213 51.4944 45.987 52.2586 48.6345C52.4952 49.4436 52.7672 50.2456 53.089 51.0264C53.4037 51.7929 53.7372 52.6517 54.3003 53.2763C54.6126 53.6217 54.9628 53.7495 55.3247 53.4017C55.7956 52.9498 56.07 52.2755 56.3326 51.6888C56.406 51.5279 56.6236 51.6036 56.6733 51.7338C57.0992 52.8315 56.9193 54.3338 57.6717 55.2897C57.6764 54.5917 57.7095 53.8891 57.9225 53.2195C57.9698 53.0776 58.1898 53.0255 58.2655 53.1746C59.3065 55.2684 59.995 57.7028 61.8096 59.2951C62.763 60.1326 63.9696 60.6696 65.1739 61.0411C66.5958 61.4788 68.1028 61.5758 69.5578 61.2398C70.9324 60.9228 72.2289 60.2414 73.426 59.5104C74.3724 58.9355 75.2619 58.2683 76.0592 57.497C77.5355 56.0704 78.638 54.3125 79.3573 52.3915C80.1285 50.3332 80.4952 48.1447 80.7034 45.9634C80.7247 45.7528 80.9968 45.7102 81.0702 45.9137C81.1577 46.1574 81.2949 46.3821 81.4416 46.5998C81.4132 44.4753 81.2074 42.2868 79.9866 40.484C79.8636 40.3042 80.1333 40.1126 80.28 40.2593C80.6774 40.6591 81.0489 41.0968 81.4889 41.4517C81.4156 41.0684 81.3351 40.6875 81.2334 40.3113C80.138 36.1829 77.4149 32.802 75.7398 28.9244C75.2974 27.8976 74.9946 26.8684 74.9 25.7494C74.8006 24.5594 74.8858 23.367 74.9473 22.1769C75.0088 20.9869 75.0585 19.7779 74.8597 18.5974Z" fill="#FFF45F"/>
<path d="M55.6773 26.9725C58.0479 28.4725 60.8491 29.4614 63.6786 28.9646C66.3781 28.4891 68.4956 26.7951 70.4545 24.9899C71.292 24.221 72.1106 23.4261 73.0002 22.714C73.6129 22.2219 74.2683 21.7653 74.9804 21.4293C75.0183 20.4853 75.0159 19.5319 74.8597 18.5974C74.6728 17.4925 74.2423 16.4397 73.7076 15.4579C72.6713 13.5604 71.1761 11.8546 69.3496 10.6812C67.9372 9.77503 66.3024 9.24507 64.6368 9.0771C61.4524 8.75297 58.1567 9.652 55.5329 11.4737C54.5345 12.1646 53.6473 12.9997 52.9163 13.9461C52.8879 14.256 52.8713 14.5612 52.8619 14.8498C52.7483 18.3608 53.4297 21.841 53.4533 25.3472C54.1631 25.9316 54.9013 26.4804 55.6773 26.9725Z" fill="#CDDC2A"/>
<path d="M59.9431 29.7951C59.4368 28.5317 58.604 27.7367 57.3407 27.2541C53.903 25.9434 50.0277 25.9718 46.4127 26.1942C42.3789 26.4402 38.3285 26.8708 34.3397 27.5049C30.0574 28.1839 25.7515 29.1539 21.7272 30.7958C18.2612 32.213 14.4569 34.3328 12.5949 37.7231C12.2235 38.4021 11.9136 39.1119 11.5894 39.8145C11.5232 39.8879 11.457 39.9636 11.3931 40.0393C10.8726 40.6473 10.3805 41.2885 9.97356 41.9793C9.3537 43.0274 8.44757 44.5699 8.79535 45.8475C8.8616 46.0888 9.19992 46.0604 9.35606 45.9327C12.3158 43.4698 16.21 42.5755 19.9433 42.1023C24.4432 41.5298 28.981 41.6291 33.5021 41.7971C37.9169 41.9627 42.3008 42.081 46.7179 41.8728C49.8101 41.7261 53.0939 41.6008 55.9306 40.2214C57.2886 39.5614 58.5283 38.5914 59.3564 37.3138C60.0236 36.2823 60.3169 35.0071 60.4281 33.7957C60.5488 32.4661 60.4447 31.0442 59.9431 29.7951Z" fill="#99D3B7"/>
<path d="M20.2414 37.4959C19.6145 35.8209 18.7154 34.2358 17.5609 32.8683C15.5357 34.1104 13.714 35.686 12.5949 37.7231C12.2235 38.4021 11.9136 39.1118 11.5894 39.8145C11.5232 39.8878 11.457 39.9635 11.3931 40.0392C10.8726 40.6473 10.3805 41.2884 9.97356 41.9793C9.3537 43.0273 8.44757 44.5699 8.79535 45.8475C8.8616 46.0888 9.19992 46.0604 9.35606 45.9326C12.3158 43.4698 16.21 42.5755 19.9433 42.1023C20.3858 42.0455 20.8282 42.0005 21.273 41.958C21.1239 40.432 20.7761 38.9273 20.2414 37.4959Z" fill="#A75834"/>
<path d="M20.6292 38.6552C20.5133 38.2649 20.3832 37.8792 20.2412 37.4983C20.5204 37.4273 20.7972 37.3611 21.0787 37.2972C26.0494 36.1616 31.1905 36.1616 36.2605 36.0599C37.893 36.0267 39.5231 35.9842 41.1555 35.9842C42.8424 35.9842 44.5269 35.9842 46.2114 35.925C49.5756 35.8067 53.0393 35.4873 56.193 34.2311C57.6267 33.6585 58.9847 32.8636 60.1109 31.8013C60.1227 31.7895 60.1345 31.78 60.1464 31.7682C60.2055 31.5387 60.2623 31.3092 60.3143 31.0797C60.4492 31.7729 60.4894 32.4921 60.4634 33.1948C60.2363 33.3959 60.0044 33.5899 59.7654 33.7721C58.4287 34.7918 56.9075 35.5725 55.3223 36.1214C53.4675 36.7625 51.5701 36.9731 49.6206 37.0938C47.9645 37.1931 46.3084 37.2262 44.6499 37.2262C43.0932 37.2262 41.534 37.1979 39.9773 37.1695C38.4206 37.1387 36.8615 37.1103 35.3071 37.1103C35.009 37.1103 34.7109 37.1127 34.4128 37.115C29.8135 37.1505 25.0605 37.3138 20.6292 38.6552Z" fill="#5CAF83"/>
<path d="M8.86182 45.1069C8.86418 45.1022 8.86655 45.0998 8.86891 45.0951C9.22379 44.6219 9.55502 44.1369 9.96431 43.7063C10.3854 43.2639 10.8231 42.8333 11.275 42.4217C12.1882 41.5865 13.1653 40.8176 14.1945 40.1291C15.2284 39.4383 16.3072 38.8137 17.4712 38.3713C17.9113 38.2057 18.3584 38.0566 18.8056 37.9147C18.8056 37.9123 18.8056 37.9123 18.8056 37.91C19.2787 37.7609 19.759 37.6237 20.2417 37.4983C20.3836 37.8792 20.5137 38.2648 20.6297 38.6552C20.554 38.6789 20.4806 38.7025 20.4073 38.7238C16.1889 40.044 12.4887 42.4051 8.97065 45.0241C8.93279 45.0525 8.8973 45.0785 8.86182 45.1069Z" fill="#644925"/>
<path d="M57.7358 31.4441C56.6948 32.1799 55.7674 33.0955 55.0742 34.1696C54.5111 35.0449 54.0356 35.97 53.657 36.94C53.2288 38.0354 52.8905 39.1876 52.7675 40.361C52.7343 40.6615 52.7178 40.9738 52.7178 41.2814C53.8274 41.0519 54.9086 40.7183 55.9306 40.2215C57.2886 39.5614 58.5284 38.5914 59.3564 37.3138C60.0236 36.2823 60.317 35.0071 60.4281 33.7958C60.537 32.5892 60.4589 31.3069 60.0685 30.1476C59.2523 30.5048 58.4668 30.9307 57.7358 31.4441Z" fill="#262324"/>
<path d="M8.51852 44.8988C8.56584 45.0478 8.62499 45.1945 8.68887 45.3365C8.75038 45.2537 8.81189 45.1709 8.86867 45.0952C9.22355 44.622 9.55477 44.137 9.96407 43.7064C10.3852 43.264 10.8229 42.8334 11.2748 42.4217C12.188 41.5866 13.1651 40.8177 14.1942 40.1292C15.2281 39.4384 16.307 38.8138 17.471 38.3713C18.6468 37.9266 19.8534 37.5764 21.0789 37.2972C26.0496 36.1616 31.1907 36.1616 36.2607 36.0599C37.8932 36.0268 39.5233 35.9842 41.1557 35.9842C42.8426 35.9842 44.5271 35.9842 46.2116 35.925C49.5758 35.8067 53.0395 35.4873 56.1932 34.2311C57.6411 33.6538 59.0133 32.8494 60.1466 31.7682C60.7806 29.3243 61.0574 26.7762 61.1615 24.2613C61.2822 21.3111 61.1521 18.3135 60.5559 15.4153C60.0685 13.0542 59.257 10.4943 57.4802 8.77194C57.2129 8.51169 56.9242 8.27983 56.6143 8.07874C56.3044 8.13078 55.9921 8.18047 55.6845 8.23015C52.6113 8.72225 49.4907 8.91389 46.389 9.13155C43.2874 9.35157 40.1857 9.52192 37.0982 9.90519C34.0463 10.2861 31.0132 10.8279 28.0251 11.5637C23.5442 12.6685 19.3708 14.7316 15.9213 17.8214C12.576 20.8213 10.0492 24.751 8.90889 29.1137C8.20623 31.8155 8.01223 34.6617 8.0004 37.4439C7.9933 38.8232 8.0832 40.2002 8.11869 41.5795C8.14945 42.6867 8.17074 43.8365 8.51852 44.8988Z" fill="#A6CE39"/>
<path d="M16.4087 34.593C15.6895 33.933 14.8993 33.3581 14.076 32.8399C13.1817 32.2769 12.2992 31.7564 11.6084 30.9378C10.1675 29.2296 10.0634 27.1264 10.4372 25.0278C9.79609 26.3338 9.27797 27.7013 8.90889 29.1137C8.20623 31.8155 8.01223 34.6617 8.0004 37.4439C7.9933 38.8232 8.0832 40.2002 8.11869 41.5795C8.14945 42.6867 8.17074 43.8365 8.51852 44.8988C8.56584 45.0478 8.62499 45.1945 8.68887 45.3365C8.75038 45.2537 8.81189 45.1709 8.86867 45.0951C9.22355 44.622 9.55477 44.137 9.96407 43.7064C10.3852 43.264 10.8229 42.8334 11.2748 42.4217C12.188 41.5866 13.1651 40.8177 14.1942 40.1292C15.2281 39.4384 16.307 38.8138 17.471 38.3713C17.911 38.2057 18.3582 38.0567 18.8053 37.9147C18.2754 36.6419 17.4284 35.5276 16.4087 34.593Z" fill="#A75834"/>
<path d="M58.469 28.941C57.5463 29.8684 56.3397 30.59 55.0621 30.8857C53.6734 31.2075 52.2846 30.9425 50.9053 30.7201C49.5804 30.5072 48.2555 30.2517 46.9117 30.1878C45.3668 30.1121 43.8952 30.3558 42.3953 30.7012C39.0594 31.4677 35.7377 32.2958 32.4137 33.1144C30.7528 33.5213 29.0896 33.9259 27.424 34.3186C26.1536 34.6191 24.8736 34.8722 23.6032 35.1774C21.4053 35.7074 19.2358 36.4029 17.1846 37.354C15.157 38.2956 13.2146 39.4928 11.6319 41.0874C10.598 42.1307 9.76282 43.3397 9.18555 44.6693C9.42923 44.3357 9.67765 44.0069 9.96392 43.7064C10.385 43.264 10.8227 42.8334 11.2746 42.4217C12.1878 41.5866 13.1649 40.8177 14.1941 40.1292C15.228 39.4384 16.3068 38.8138 17.4708 38.3714C18.6467 37.9266 19.8533 37.5764 21.0788 37.2972C26.0495 36.1616 31.1905 36.1616 36.2606 36.0599C37.893 36.0268 39.5231 35.9842 41.1556 35.9842C42.8424 35.9842 44.5269 35.9842 46.2114 35.925C49.5757 35.8067 53.0393 35.4874 56.193 34.2311C57.6409 33.6538 59.0132 32.847 60.1464 31.7682C60.7142 29.5798 60.9934 27.3062 61.1211 25.0491C60.454 26.4805 59.5881 27.8148 58.469 28.941Z" fill="#F48023"/>
<path d="M60.5559 15.4153C60.0685 13.0542 59.257 10.4943 57.4802 8.77194C57.2129 8.51169 56.9243 8.27983 56.6143 8.07874C56.3044 8.13078 55.9921 8.18047 55.6845 8.23015C54.6932 8.38866 53.6972 8.51406 52.7012 8.62052C54.1609 9.58579 55.3557 10.9083 56.2405 12.4461C57.4708 14.5778 58.1379 17.0028 58.4834 19.4255C58.7436 21.259 58.8264 23.102 58.7389 24.9498C58.6584 26.6792 58.5875 28.4347 58.8051 30.157C58.8903 30.8337 59.0086 31.6002 59.3942 32.1799L59.5078 32.3242C59.7254 32.1467 59.9407 31.9646 60.1466 31.7682C60.7806 29.3243 61.0574 26.7762 61.1615 24.2613C61.2822 21.3111 61.1521 18.3135 60.5559 15.4153Z" fill="#262324"/>
<path d="M10.6099 29.1965C10.5294 28.967 10.4632 28.7328 10.4111 28.4962C11.3173 26.1185 12.6563 23.897 14.2675 21.9498C15.8053 20.0879 17.6105 18.4342 19.6309 17.1045C21.7839 15.6874 24.2065 14.663 26.6244 13.7923C31.782 11.9327 37.2283 10.9249 42.6816 10.4919C45.1729 10.2932 47.6807 10.2199 50.1791 10.2033C50.2335 10.2009 50.2879 10.2009 50.3423 10.2009C51.3857 10.2009 52.4527 10.2719 53.4345 10.6457C54.3335 10.9888 55.0504 11.5968 55.5449 12.413C56.4912 13.9745 57.0235 15.8246 57.3902 17.6014C57.4021 17.6676 57.4139 17.7362 57.4281 17.8025C57.3618 17.7646 57.2932 17.7268 57.2294 17.6842C56.2475 17.0572 55.4502 16.1771 54.6127 15.3775C54.2271 15.0107 53.8296 14.6322 53.3683 14.3625C53.3399 14.3459 53.3067 14.3388 53.276 14.3388C53.1955 14.3388 53.1175 14.3909 53.0938 14.4761C52.8714 15.2521 52.6419 16.0304 52.2303 16.7284C51.8328 16.3853 51.6743 15.7891 51.4732 15.3301C51.2886 14.9066 51.0047 14.3814 50.4914 14.3223C50.4559 14.3175 50.4227 14.3152 50.3873 14.3152C50.2169 14.3152 50.0395 14.3578 49.8762 14.3885C49.5852 14.4453 49.2942 14.5163 49.0032 14.5825C48.31 14.741 47.6026 14.7931 46.8952 14.8641C44.8606 15.0604 42.8188 15.1764 40.7795 15.3159C38.8276 15.4484 36.8829 15.6495 34.9452 15.9098C33.017 16.17 31.0936 16.4894 29.1961 16.92C27.3389 17.3388 25.4533 17.8285 23.6884 18.5572C20.7618 19.7661 18.0766 21.4672 15.7178 23.5823C13.8275 25.2739 12.1642 27.195 10.6099 29.1965Z" fill="#FFF7C5"/>
<path d="M9.84326 30.2019C10.0065 29.6247 10.1958 29.0569 10.4111 28.4962C10.4631 28.7327 10.5294 28.967 10.6098 29.1965C10.3519 29.53 10.094 29.8636 9.84326 30.2019Z" fill="#FFE5C3"/>
<path d="M64.3055 14.8001C64.2014 14.8001 64.1021 14.7576 64.0264 14.6771C63.8891 14.5233 63.901 14.2891 64.0524 14.1495C64.0784 14.1282 66.5981 11.8949 69.9529 13.8491C70.1303 13.9532 70.1894 14.1803 70.0877 14.3601C69.9836 14.5375 69.7565 14.599 69.5767 14.495C66.7069 12.8223 64.6415 14.6274 64.5539 14.7031C64.483 14.767 64.3931 14.8001 64.3055 14.8001Z" fill="#312017"/>
<path d="M71.7036 19.4728C71.7036 21.6872 69.9103 23.4805 67.6958 23.4805C65.4838 23.4805 63.6904 21.6872 63.6904 19.4728C63.6904 17.2607 65.4838 15.465 67.6958 15.465C69.9103 15.465 71.7036 17.2607 71.7036 19.4728Z" fill="#003C7C"/>
<path d="M70.8922 19.4728C70.8922 21.2377 69.4632 22.6691 67.6959 22.6691C65.9309 22.6691 64.502 21.2377 64.502 19.4728C64.502 17.7078 65.9309 16.2765 67.6959 16.2765C69.4632 16.2765 70.8922 17.7078 70.8922 19.4728Z" fill="#4B71B7"/>
<path d="M69.6598 19.5461C69.6598 20.6297 68.7797 21.5074 67.6962 21.5074C66.615 21.5074 65.7349 20.6297 65.7349 19.5461C65.7349 18.4625 66.615 17.5848 67.6962 17.5848C68.7797 17.5848 69.6598 18.4625 69.6598 19.5461Z" fill="#312017"/>
<path d="M67.1021 18.0911C67.1021 18.4034 66.8489 18.6565 66.539 18.6565C66.2243 18.6565 65.9712 18.4034 65.9712 18.0911C65.9712 17.7811 66.2243 17.5256 66.539 17.5256C66.8489 17.5256 67.1021 17.7811 67.1021 18.0911Z" fill="white"/>
<path d="M65.9715 19.6809C65.9715 19.9175 65.7799 20.1115 65.5409 20.1115C65.3044 20.1115 65.1104 19.9175 65.1104 19.6809C65.1104 19.442 65.3044 19.248 65.5409 19.248C65.7799 19.248 65.9715 19.442 65.9715 19.6809Z" fill="white"/>
</svg>
