<svg width="128" height="128" viewBox="0 0 128 128" fill="none" xmlns="http://www.w3.org/2000/svg">
<path d="M72.8 17.2777C72.344 17.4217 71.432 18.0937 70.76 18.7657L69.56 19.9897L67.64 19.3177C62.912 17.7097 58.424 17.8057 53.96 19.5817C47.24 22.2937 41.864 27.5497 39.44 33.8137C38.672 35.8057 38 39.1417 38 41.0137C38 43.1017 38.696 45.7897 39.968 48.4777C40.952 50.5897 41.144 51.1897 41 51.8377C40.904 52.2457 40.784 53.2057 40.736 53.9257C40.616 55.1257 40.688 55.3897 41.456 56.6617C41.96 57.4777 42.32 58.3657 42.32 58.8217C42.32 59.9497 43.424 61.9657 44.552 62.9497C45.608 63.8617 47.6 64.9417 49.112 65.4217C49.592 65.5897 50 65.7817 50 65.8537C50 65.9257 49.616 66.4057 49.16 66.9337C47.648 68.7337 47.12 71.3737 47.696 74.5657C48.176 77.3017 49.472 79.8937 50.744 80.7337L51.68 81.3577V83.2297C51.68 84.7417 51.776 85.2217 52.112 85.5577C52.52 85.9657 52.568 86.6137 52.712 92.3017C52.832 98.0857 52.88 98.6377 53.336 99.4297C53.624 99.8857 53.84 100.606 53.84 100.99C53.84 101.926 52.592 103.51 51.704 103.678C50.84 103.87 49.064 105.214 48.392 106.222C47.792 107.11 47.648 108.838 48.128 109.318C48.56 109.75 55.064 109.678 57.992 109.222C61.712 108.622 61.4 108.958 61.472 105.502C61.544 101.806 61.64 101.23 62.312 101.086C62.6 101.014 63.872 101.11 65.12 101.278L67.4 101.59V103.486C67.4 104.542 67.328 106.246 67.232 107.254L67.04 109.102L68.312 109.486C70.544 110.158 72.872 110.374 74.864 110.086C77.144 109.774 78.2 109.294 78.56 108.382C78.944 107.47 78.728 106.75 77.744 105.55C76.928 104.59 76.592 103.822 76.28 102.214C76.184 101.734 76.208 101.446 76.376 101.446C76.544 101.446 76.736 101.206 76.856 100.894C77.12 100.198 77.768 93.5497 78.08 88.2457C78.32 84.5257 78.392 83.9977 78.848 83.5177C79.304 83.0377 79.328 82.8217 79.184 81.0457C79.088 79.9897 79.088 79.1257 79.208 79.1257C79.616 79.1257 81.704 76.2457 82.424 74.6857C83.096 73.2937 83.168 72.9097 83.048 71.6617C82.928 70.2457 82.928 70.2217 83.672 69.8617C84.104 69.6457 84.776 69.2377 85.16 68.9497C85.568 68.6617 86.528 68.2297 87.32 67.9897C88.112 67.7497 88.904 67.5097 89.096 67.4617C89.264 67.4137 89.336 67.1977 89.264 66.9577C89.168 66.7417 89.288 66.3817 89.48 66.1657C89.912 65.6857 89.744 64.5337 89.216 64.3177C89.024 64.2457 88.952 64.1017 89.024 63.9817C89.24 63.5977 88.352 63.4297 87.608 63.7177C87.2 63.8617 86.84 63.9577 86.792 63.9097C86.744 63.8617 87.152 62.3737 87.728 60.6217C88.712 57.4777 88.736 57.3337 88.736 54.0457C88.736 50.8777 88.712 50.5657 87.968 48.4297C87.056 45.7897 86.792 45.2857 86.432 45.2857C86.288 45.2857 85.448 44.7817 84.56 44.1817L82.952 43.0777L82.808 40.4137C82.736 38.9257 82.52 36.9097 82.304 35.9017L81.92 34.1017L83.096 32.8777C84.92 30.9817 85.208 28.8217 84.032 25.6777C82.856 22.5097 79.736 18.9337 77 17.6377C75.464 16.9177 74.264 16.8217 72.8 17.2777ZM76.688 18.4297L77.672 18.9337L76.88 19.3177C76.184 19.6537 75.2 20.8537 75.2 21.3817C75.2 21.4777 75.8 21.0217 76.544 20.3497C77.576 19.3897 77.96 19.1737 78.272 19.3417C78.944 19.7017 81.2 22.1977 81.2 22.5577C81.2 22.7497 80.648 23.4457 79.976 24.1417C78.68 25.4617 78.68 25.6537 79.976 24.8617C80.408 24.5977 80.816 24.4297 80.864 24.4777C80.912 24.5257 80.672 24.9577 80.36 25.4377C80.024 25.9177 79.76 26.3737 79.76 26.4697C79.76 26.8297 81.248 25.2217 81.68 24.4057L82.112 23.5657L82.88 25.1977C83.768 27.0457 84.056 29.1577 83.6 30.5017C83.288 31.4857 82.256 32.8057 81.824 32.8057C81.656 32.8057 81.344 32.2777 81.128 31.6297C80.528 29.9737 78.776 27.1417 77.432 25.6297C76.232 24.2617 73.112 21.8137 71.552 21.0217C71.048 20.7577 70.64 20.4697 70.64 20.3497C70.64 19.9177 71.84 18.7177 72.608 18.3337C73.736 17.7817 75.488 17.8297 76.688 18.4297ZM65.84 19.6297C68.024 20.1817 71.192 21.6697 73.136 23.0617C75.2 24.5257 77.864 27.4297 78.944 29.3497C80.792 32.6377 81.92 36.9337 81.92 40.6057V42.5737L80.672 42.1417C78.872 41.5417 76.76 41.3497 75.056 41.6617C73.04 42.0457 72.32 41.7577 71.504 40.2217C70.76 38.8777 70.664 38.9977 73.16 38.5657C74.96 38.2537 78.2 37.2697 76.64 37.4857C66.968 38.9257 59.384 37.4137 52.568 32.6377C51.224 31.7017 50.528 31.3657 50.168 31.4617C49.328 31.6537 46.544 34.1017 45.128 35.8537C43.496 37.8937 42.416 39.5737 41.144 42.1417C40.208 43.9657 40.136 44.2537 40.28 45.3097C40.496 46.9177 40.112 46.7977 39.56 45.0937C38.384 41.4217 39.056 36.1897 41.24 31.8457C44.432 25.4617 52.208 19.9417 59.072 19.1497C61.16 18.9097 63.584 19.0777 65.84 19.6297ZM51.896 33.3817C56.024 36.4057 62 38.5177 67.688 38.9497L69.92 39.1177L70.88 40.9177C71.624 42.3097 71.792 42.7657 71.552 42.9097C71.072 43.2217 70.808 43.0537 70.52 42.1417C70.328 41.5657 69.992 41.2057 69.368 40.8937C68.552 40.4857 68.288 40.4617 66.488 40.7257C65.408 40.8937 62.96 41.3977 61.064 41.8777C56.624 43.0057 56.528 43.1017 57.2 45.8857C57.464 46.9417 57.656 47.9017 57.68 48.0457C57.68 48.1897 57.104 48.2617 56.264 48.2137C55.304 48.1417 54.608 48.2377 54.128 48.5017C53.72 48.7177 53.336 48.8137 53.264 48.6937C53.216 48.5977 53.024 47.6137 52.856 46.5097C52.52 44.3737 52.232 43.8457 51.32 43.8457C51.008 43.8457 48.68 44.2297 46.16 44.6857C43.616 45.1417 41.456 45.4777 41.336 45.3817C40.928 45.1417 41.12 44.3017 42.104 42.3337C43.424 39.7177 44.984 37.3897 46.616 35.6137C47.792 34.3417 50.096 32.3257 50.384 32.3257C50.432 32.3257 51.128 32.8057 51.896 33.3817ZM69.056 41.4457C69.464 41.5897 69.728 41.9497 69.896 42.5977C70.16 43.5097 70.136 43.5337 68.816 44.9017C67.304 46.4617 66.2 48.5977 65.792 50.7577C65.48 52.3897 65.816 52.2217 61.928 52.7497C60.68 52.9177 59.744 52.9417 59.624 52.8217C59.504 52.7017 58.976 50.6617 58.448 48.2857C57.704 44.9737 57.536 43.8937 57.752 43.6777C58.112 43.3417 60.872 42.5737 64.448 41.8057C67.496 41.1577 68.192 41.1097 69.056 41.4457ZM76.184 44.1097C75.344 44.2057 74.312 44.4217 73.928 44.5657C73.016 44.8777 72.56 44.8777 73.112 44.5417C73.688 44.2057 75.368 43.8937 76.64 43.8937C77.576 43.9177 77.504 43.9417 76.184 44.1097ZM78.632 44.2537C78.464 44.3017 78.176 44.3017 78.032 44.2537C77.864 44.1817 77.984 44.1337 78.32 44.1337C78.656 44.1337 78.776 44.1817 78.632 44.2537ZM52.568 49.0057C52.976 51.3817 53.288 53.4937 53.216 53.7337C53.144 53.9497 52.784 54.2377 52.4 54.3817C51.488 54.6937 43.568 55.4857 43.352 55.2937C43.28 55.1977 43.328 54.5497 43.496 53.8297C43.76 52.6297 43.736 52.4377 43.064 50.5657C42.656 49.4857 42.2 48.4297 42.056 48.2617C41.888 48.0697 41.744 47.5417 41.696 47.0857C41.648 46.2697 41.648 46.2697 42.992 45.9817C46.376 45.2857 50.432 44.6137 51.08 44.6377L51.776 44.6857L52.568 49.0057ZM75.2 46.9657C75.2 47.8297 75.344 47.8537 76.088 47.1577C76.64 46.6537 76.712 46.6537 77.648 46.9657C78.56 47.2777 78.68 47.4457 78.92 48.3577L79.16 49.4137L79.808 48.9097C80.792 48.1177 81.2 48.2377 81.2 49.2937C81.2 49.9657 81.128 50.1097 80.96 49.8457C80.768 49.5577 80.624 49.6057 80.024 50.1817C79.112 51.0457 78.656 50.8777 78.44 49.6057L78.272 48.5977L77.624 49.2217C77.168 49.6537 76.832 49.7977 76.424 49.6777C75.944 49.5577 75.896 49.4377 76.04 48.7417C76.184 47.8537 76.136 47.8057 75.416 48.1657C75.056 48.3577 74.96 48.3337 74.96 48.0457C74.96 47.5417 74.648 47.5897 74.288 48.1657C73.952 48.7417 73.04 48.8137 73.04 48.2857C73.04 48.0697 73.208 47.5417 73.376 47.0857C73.688 46.3897 73.856 46.2457 74.456 46.2457C75.128 46.2457 75.2 46.3177 75.2 46.9657ZM41.696 49.3657L41.864 49.9657L41.528 49.3657C41.336 49.0297 41.12 48.3817 41.024 47.9257L40.88 47.0857L41.216 47.9257C41.384 48.3817 41.6 49.0297 41.696 49.3657ZM56.912 48.8857C57.68 48.8857 57.944 49.2937 58.376 51.1417C59.024 53.8297 59.072 53.8537 62.048 53.4697C63.416 53.3017 64.76 53.1097 65.072 53.0377C65.84 52.8457 65.768 53.5177 64.88 54.5977C63.344 56.5417 62.984 59.4697 64.04 61.3417C64.376 61.9177 64.616 62.4217 64.568 62.4697C64.52 62.5177 63.968 62.3497 63.296 62.1097C62.336 61.7497 62.024 61.4857 61.52 60.5497C60.824 59.3017 60.344 58.9897 59.912 59.5897C59.624 59.9977 59.576 59.9737 59.048 59.4937C58.64 59.1097 58.28 59.0137 57.704 59.0857C56.696 59.2057 56.552 59.3497 56.912 59.9257C57.08 60.1897 57.2 60.6457 57.2 60.9577C57.2 61.2937 57.464 61.9417 57.8 62.4217C58.136 62.9017 58.4 63.3577 58.4 63.4057C58.4 63.4537 57.608 63.5257 56.672 63.5737L54.92 63.6457L55.88 64.1017C56.6 64.4377 57.128 64.5097 58.064 64.3897C59.192 64.2697 59.36 64.3177 60.224 65.0377C60.728 65.4697 61.424 66.0217 61.76 66.2377C62.336 66.6457 62.312 66.6457 60.392 66.6457C58.4 66.6457 56.912 66.2617 57.488 65.9017C58.064 65.5417 57.464 65.4217 53.696 65.1097C49.568 64.7737 48.296 64.4137 46.136 63.0217C44.072 61.7017 43.04 59.7817 43.04 57.3097V56.2057L47.312 55.7737C52.28 55.2937 53.216 55.0777 53.744 54.2617C54.104 53.7337 54.104 53.4937 53.792 51.7657C53.48 50.0377 53.48 49.8217 53.816 49.5097C54.272 49.1017 55.76 48.6457 56.192 48.7897C56.384 48.8377 56.696 48.8857 56.912 48.8857ZM70.52 51.2377C70.784 51.2857 71.336 51.4777 71.768 51.6697C72.176 51.8617 72.848 52.0777 73.256 52.1497C73.664 52.2457 74 52.3897 74 52.4857C74 52.7737 76.136 53.4937 76.52 53.3497C76.712 53.2777 76.88 53.3017 76.88 53.4217C76.88 53.6857 78.944 54.2617 79.232 54.0697C79.376 53.9977 79.52 54.0937 79.616 54.2857C79.688 54.5017 80.072 54.6457 80.576 54.6457C81.704 54.6457 82.112 55.4377 82.184 57.6937C82.232 59.1097 82.136 59.5177 81.728 60.1177C81.392 60.5737 81.2 61.1977 81.2 61.8217C81.2 62.6857 81.272 62.8057 81.752 62.8057C82.568 62.8057 83.336 62.1577 83.552 61.2937C83.696 60.7657 83.888 60.5257 84.224 60.5257C84.824 60.5257 84.968 61.6777 84.44 62.4697C84.128 62.9497 83.864 63.0457 82.904 63.0457C82.064 63.0457 81.632 63.1657 81.32 63.5257C81.08 63.7897 80.6 64.0057 80.264 64.0057C79.376 64.0057 77.384 64.5817 76.4 65.0857C75.44 65.6137 75.056 65.5897 72.488 64.9417C69.152 64.1017 67.016 62.8297 66.296 61.2697C65.624 59.8057 65.696 57.6697 66.44 56.1817C66.8 55.4857 67.04 54.5977 67.04 53.9737C67.04 52.7977 67.856 51.0217 69.008 49.7017L69.8 48.7897L69.92 49.9897C70.016 50.9257 70.136 51.1657 70.52 51.2377ZM42.8 53.2537C42.8 53.4937 42.704 53.6857 42.56 53.6857C42.44 53.6857 42.32 53.5417 42.32 53.3737C42.32 53.2297 42.248 52.8217 42.176 52.4857C42.056 51.9097 42.056 51.9097 42.416 52.3417C42.632 52.6057 42.8 53.0137 42.8 53.2537ZM41.936 54.5017C42.416 56.1097 42.416 56.6617 41.96 55.8217C41.6 55.1497 41.216 53.2057 41.432 53.2057C41.504 53.2057 41.744 53.7817 41.936 54.5017ZM60.032 60.8857C60.176 60.8857 60.32 60.6937 60.392 60.4537C60.464 60.1657 60.632 60.3577 60.992 61.1257C61.448 62.1097 61.64 62.2537 63.056 62.7577L64.616 63.3097L64.016 64.4857C63.704 65.1097 63.44 65.7577 63.44 65.9017C63.44 66.3817 62.936 66.1657 61.568 65.1097C59.6 63.5977 58.184 62.0617 58.616 61.8937C58.856 61.8217 58.784 61.7017 58.376 61.4617C57.896 61.1977 57.872 61.1497 58.256 61.1257C58.64 61.1257 58.664 61.0777 58.376 60.7177C58.088 60.3817 58.088 60.3337 58.376 60.5257C58.64 60.6697 58.688 60.6217 58.568 60.3097C58.424 59.9497 58.496 59.9737 59.096 60.3817C59.48 60.6697 59.912 60.8857 60.032 60.8857ZM65.144 64.2937C64.544 65.8057 64.184 66.4777 64.16 66.0937C64.16 65.8537 64.376 65.2297 64.64 64.7257C65.168 63.6937 65.48 63.4297 65.144 64.2937ZM66.416 66.2857C66.416 68.1337 66.176 68.4697 65.264 68.0617C64.52 67.7257 64.544 67.3897 65.408 65.3737C66.056 63.8857 66.416 64.1977 66.416 66.2857ZM87.824 64.6537C87.824 64.9417 87.968 65.0617 88.232 65.0617C88.568 65.0137 88.592 65.0857 88.376 65.3497C88.16 65.6137 88.184 65.6857 88.544 65.7097C88.928 65.7097 88.928 65.7577 88.448 65.9737C88.112 66.1417 87.968 66.3817 88.04 66.6217C88.136 66.9337 87.896 67.1017 87.008 67.3177C86.384 67.5097 85.712 67.7257 85.52 67.8697C83.624 69.0457 82.688 69.5257 82.352 69.5257C81.872 69.5257 81.344 68.0617 81.488 67.1257C81.536 66.6217 81.728 66.5017 82.76 66.3337C83.432 66.2137 84.176 66.0697 84.44 66.0217C84.704 65.9737 85.16 65.5897 85.448 65.1577L85.976 64.3897L86.264 65.1097C86.528 65.7337 86.576 65.7577 86.648 65.3017C86.696 65.0137 86.984 64.6777 87.272 64.5337C87.56 64.3897 87.824 64.2697 87.824 64.2697C87.848 64.2457 87.848 64.4377 87.824 64.6537ZM72.56 65.8057C73.736 66.0937 73.784 66.1177 73.04 66.1417C72.584 66.1417 71.936 65.9977 71.6 65.8057C70.856 65.3737 70.904 65.3737 72.56 65.8057ZM55.928 67.0537C57.296 68.5417 58.232 71.7337 58.112 74.3497L58.04 75.8857L57.512 75.0697C57.224 74.6137 56.912 73.6537 56.84 72.9097C56.552 70.3417 55.856 68.4697 54.656 67.1497L53.552 65.9257L54.368 66.0697C54.848 66.1657 55.448 66.5257 55.928 67.0537ZM70.976 68.5177C71.288 68.8297 71.528 68.7577 72.968 68.0617C73.856 67.6297 74.648 67.2457 74.72 67.1977C74.912 67.0777 74.72 70.0777 74.504 70.6057C73.856 72.1417 73.76 72.5017 73.76 73.3417C73.76 73.8217 73.904 74.4457 74.096 74.6857C74.408 75.1177 74.456 75.1177 75.296 74.2777C75.92 73.6537 76.16 73.1977 76.16 72.6937C76.16 71.6617 76.472 71.5897 76.952 72.4777C77.336 73.1737 77.336 73.3657 77.048 74.2057L76.712 75.1657L74.456 75.1417C73.208 75.1177 71.456 74.9257 70.52 74.6857C68.456 74.1817 65.12 72.6937 65.12 72.2617C65.12 72.0697 65.264 71.9977 65.456 72.0697C66.056 72.3097 67.52 70.7257 67.688 69.6457C67.76 69.1177 68.096 68.3737 68.408 67.9897C68.72 67.6297 69.152 66.9817 69.368 66.5737L69.728 65.8297L70.184 67.0057C70.424 67.6537 70.784 68.3257 70.976 68.5177ZM76.4 66.3817C76.28 66.6457 76.04 66.9337 75.872 67.0297C75.704 67.1497 75.68 67.0777 75.8 66.8617C76.304 65.9737 76.856 65.5417 76.4 66.3817ZM72.968 66.8857L73.64 66.9097L72.8 67.3657C71.672 67.9897 71.432 67.9657 71 67.1257C70.496 66.1657 70.52 66.1417 71.48 66.5497C71.936 66.7177 72.608 66.8857 72.968 66.8857ZM52.832 66.7417C54.416 67.5817 55.328 69.3097 55.856 72.5977C56.264 75.0937 56.432 75.4777 57.44 76.3177L58.16 76.9177L57.872 78.8857L57.608 80.8537L55.064 80.7577C51.872 80.6617 50.96 80.2537 49.952 78.5017C48.896 76.6057 48.224 73.6297 48.392 71.4217C48.536 69.3577 49.088 68.0137 50.24 67.0297C51.08 66.3337 51.872 66.2377 52.832 66.7417ZM81.296 69.5497C81.488 69.9337 81.536 70.1977 81.416 70.1257C81.08 69.8857 80.528 68.7577 80.48 68.0857C80.384 66.9337 80.528 66.7657 80.744 67.7977C80.84 68.3737 81.104 69.1657 81.296 69.5497ZM64.304 68.4457C65.48 68.9017 65.48 68.9257 64.688 71.3017C64.352 72.2857 64.064 72.6217 63.032 73.2937C62.336 73.7257 61.184 74.4457 60.464 74.9017L59.192 75.7177L59.048 73.6297C58.928 71.8057 58.376 69.5977 57.584 67.8217C57.416 67.4617 57.608 67.4377 59.408 67.5337C60.512 67.6057 61.784 67.5577 62.24 67.4377C62.96 67.2457 63.08 67.2697 63.152 67.6297C63.2 67.8457 63.68 68.2057 64.304 68.4457ZM79.832 68.2297C79.88 68.8297 80.168 69.6457 80.456 70.0297L80.984 70.7257L80.384 70.9417C80.072 71.0857 79.424 71.2537 78.944 71.3257C78.464 71.4217 77.984 71.6857 77.864 71.9017C77.672 72.2137 77.6 72.1897 77.384 71.6137C76.712 69.8857 76.736 69.8137 78.104 68.4217C78.8 67.7017 79.448 67.1257 79.544 67.1257C79.616 67.1257 79.76 67.6297 79.832 68.2297ZM82.232 71.6617C82.4 72.5257 82.184 73.3417 81.344 75.0217C80.624 76.4377 77.912 79.3657 77.336 79.3657C76.376 79.3657 76.424 77.7097 77.456 75.4057C77.696 74.8777 78.008 73.9417 78.152 73.3177C78.416 72.2377 78.488 72.1657 79.52 71.9257C80.12 71.7817 80.864 71.5177 81.2 71.3257C82.016 70.8457 82.088 70.8697 82.232 71.6617ZM66.272 74.0377C68.192 75.0457 71.648 75.9577 74.192 76.1737L76.184 76.3177L76.04 76.9417C75.656 78.5017 74.432 79.7497 71.744 81.3337C70.976 81.7897 70.472 82.3177 70.112 83.0617C69.824 83.6617 69.44 84.2137 69.248 84.2857C68.84 84.4297 66.896 83.9017 65.264 83.2057C64.232 82.7737 64.184 82.7017 64.328 81.9817C64.4 81.5737 64.736 80.9497 65.048 80.6137C65.624 79.9897 66.008 78.9817 65.744 78.7177C65.672 78.6457 65.696 78.4537 65.84 78.2857C65.984 78.0937 65.816 78.0457 65.168 78.1177L64.28 78.1897L64.952 77.6857C66.176 76.7017 65.552 76.0057 63.44 76.0057H62.192L62.36 75.2137C62.456 74.8057 62.672 74.3737 62.816 74.2777C62.96 74.1817 63.416 73.8937 63.8 73.6297C64.208 73.3657 64.568 73.1737 64.64 73.1977C64.712 73.2217 65.432 73.6057 66.272 74.0377ZM61.088 75.9337C60.68 76.7497 60.992 76.9657 62.672 76.9657L64.28 76.9897L63.368 77.4697C62.864 77.7337 62.48 78.0697 62.552 78.2377C62.6 78.3817 63.176 78.6697 63.824 78.8617L65 79.1977L63.92 79.4857C62.912 79.7257 62.888 79.7737 63.44 79.9417L64.04 80.1577L63.32 80.2537C62.312 80.4217 61.904 80.7817 62.264 81.2137C62.504 81.4777 62.456 81.5017 61.904 81.2857C61.544 81.1657 60.656 81.0457 59.912 81.0457H58.568L58.712 79.2697C58.904 77.0617 58.928 77.0137 60.152 76.1017C61.256 75.2857 61.448 75.2377 61.088 75.9337ZM75.92 79.6057C75.92 79.7257 75.68 79.9657 75.392 80.1097C74.84 80.3977 74.84 80.3977 75.296 79.8697C75.8 79.3177 75.92 79.2457 75.92 79.6057ZM78.416 81.5737C78.584 82.6777 78.56 82.7017 77.792 83.1097C77.336 83.3497 76.232 83.5657 75.152 83.6377L73.28 83.7577V82.7497C73.28 82.0537 73.376 81.7657 73.616 81.7657C73.808 81.7657 74.48 81.5257 75.128 81.2377C75.752 80.9497 76.448 80.7097 76.664 80.6857C76.856 80.6617 77.24 80.5177 77.504 80.3737C78.104 80.0377 78.224 80.2057 78.416 81.5737ZM55.688 81.7657H58.232L58.088 83.3257C57.992 84.1897 57.872 85.0297 57.776 85.1737C57.632 85.4137 53 85.3177 52.736 85.0777C52.688 85.0297 52.568 84.1897 52.496 83.2057C52.328 81.5977 52.352 81.4537 52.736 81.5977C52.976 81.6937 54.296 81.7657 55.688 81.7657ZM62.48 82.5097C63.152 82.6777 63.056 82.7017 61.904 82.6057C61.136 82.5577 60.368 82.3897 60.224 82.2457C59.96 81.9817 60.704 82.0777 62.48 82.5097ZM72.272 82.2937C72.2 82.4617 71.96 82.6537 71.696 82.7017C71.312 82.7737 71.288 82.7257 71.576 82.3897C71.96 81.9337 72.392 81.8857 72.272 82.2937ZM62.024 83.4457C62.792 83.4457 62.96 83.5417 62.96 83.9017C62.96 84.5017 61.712 84.9337 60.632 84.7417C59.792 84.5737 59.696 84.4057 60.104 83.6617C60.248 83.3737 60.512 83.2297 60.728 83.3017C60.92 83.3737 61.496 83.4457 62.024 83.4457ZM66.656 84.6457C67.256 84.8857 67.76 85.1977 67.76 85.3177C67.76 85.5577 66.152 86.0857 65.36 86.0857C64.976 86.0857 64.88 85.9897 64.976 85.7017C65.048 85.4857 65.12 85.0537 65.12 84.7417C65.12 84.0457 65.264 84.0457 66.656 84.6457ZM53.768 93.4537C53.744 94.8697 53.696 93.7657 53.696 91.0057C53.696 88.2217 53.744 87.0697 53.768 88.4137C53.816 89.7577 53.816 92.0377 53.768 93.4537ZM58.472 101.134L60.848 101.278L60.704 101.998C60.632 102.382 60.56 103.654 60.56 104.83V106.942L59.672 107.182C59.168 107.302 58.232 107.47 57.56 107.566L56.36 107.71L55.784 106.582C55.448 105.982 54.776 105.142 54.272 104.734C53.768 104.326 53.36 103.918 53.36 103.822C53.36 103.702 53.696 103.246 54.08 102.814C54.512 102.31 54.8 101.71 54.8 101.326C54.8 100.726 54.872 100.678 55.472 100.822C55.832 100.894 57.176 101.038 58.472 101.134ZM75.536 102.574C75.608 103.078 75.752 103.726 75.824 103.99C75.944 104.47 75.872 104.494 74.048 104.494C71.456 104.494 70.136 105.118 69.248 106.75C68.888 107.398 68.528 107.926 68.432 107.926C68.192 107.926 68.192 106.75 68.384 103.894L68.552 101.686H71.96H75.368L75.536 102.574ZM51.44 105.166C49.184 106.582 49.208 106.558 49.4 106.246C49.664 105.838 51.992 104.35 52.4 104.35C52.592 104.326 52.16 104.71 51.44 105.166ZM75.512 105.454C75.344 105.502 75.056 105.502 74.912 105.454C74.744 105.382 74.864 105.334 75.2 105.334C75.536 105.334 75.656 105.382 75.512 105.454ZM76.76 105.766C76.832 105.91 76.736 105.934 76.544 105.862C76.112 105.694 76.04 105.526 76.376 105.526C76.52 105.526 76.688 105.622 76.76 105.766ZM56.552 108.574C56.384 108.622 56.096 108.622 55.952 108.574C55.784 108.502 55.904 108.454 56.24 108.454C56.576 108.454 56.696 108.502 56.552 108.574ZM53.432 108.814C52.88 108.862 51.896 108.862 51.272 108.814C50.648 108.766 51.104 108.742 52.28 108.742C53.48 108.742 53.984 108.766 53.432 108.814Z" fill="black"/>
<path d="M76.7602 20.7097C76.4242 21.0697 76.1602 21.5737 76.1602 21.8617C76.1842 22.3657 76.1842 22.3657 76.5442 21.8857C77.0482 21.2377 77.6482 20.0857 77.4802 20.0857C77.4082 20.0857 77.0722 20.3737 76.7602 20.7097Z" fill="black"/>
<path d="M45.6322 33.2137C44.3842 34.5577 42.8482 36.5977 42.2482 37.7017C41.3122 39.4777 40.9042 40.4857 41.0962 40.4857C41.1922 40.4857 41.3842 40.2457 41.5282 39.9337C41.6722 39.6457 42.9202 37.8217 44.3122 35.8537C45.7042 33.9097 46.7602 32.3257 46.6642 32.3257C46.5682 32.3257 46.1122 32.7337 45.6322 33.2137Z" fill="black"/>
<path d="M55.04 32.7817C55.04 33.3817 60.32 35.2777 62.72 35.5417C64.184 35.6857 64.016 35.6137 61.04 34.6777L59.24 34.1257L61.28 34.0297L63.32 33.9577L59.96 33.4057C58.112 33.0937 56.24 32.7817 55.832 32.6857C55.28 32.5657 55.04 32.5897 55.04 32.7817Z" fill="black"/>
<path d="M42.8962 35.2537C41.8402 36.4057 41.0482 37.6057 41.2402 37.7977C41.3362 37.8937 41.8162 37.5097 42.2962 36.9337C44.0002 34.9657 44.5042 33.5257 42.8962 35.2537Z" fill="black"/>
<path d="M51.1522 37.1737C50.6482 37.3177 50.2402 37.5337 50.2402 37.6537C50.2402 37.7977 50.4802 37.8457 50.7922 37.7497C51.0802 37.6777 51.4882 37.6057 51.7042 37.6057C51.8962 37.6057 52.2802 37.4377 52.5442 37.2457C53.0002 36.9097 53.0002 36.9097 52.5202 36.9097C52.2562 36.9337 51.6322 37.0537 51.1522 37.1737Z" fill="black"/>
<path d="M51.8482 38.3257C50.9362 38.5657 50.1202 38.8297 50.0482 38.9257C49.7362 39.2857 52.4002 38.8297 53.4082 38.3497C54.7042 37.7497 54.0082 37.7497 51.8482 38.3257Z" fill="black"/>
<path d="M59.6239 40.3897C58.7119 41.1577 58.6399 41.6137 59.5279 41.0377C60.0319 40.7017 60.6559 40.6057 62.1679 40.6297C63.2719 40.6297 64.1599 40.6057 64.1599 40.5577C64.1599 40.2697 62.5279 39.7657 61.5439 39.7657C60.6079 39.7657 60.1999 39.9097 59.6239 40.3897Z" fill="black"/>
<path d="M45.7758 42.1897C44.9118 42.4297 43.7598 43.4857 43.7598 44.0377C43.7598 44.3497 43.8078 44.3497 44.1918 44.0377C44.9118 43.3897 46.0158 42.9577 47.3358 42.7657C48.1278 42.6457 48.5118 42.5257 48.2958 42.4057C47.6718 42.0937 46.5198 41.9737 45.7758 42.1897Z" fill="black"/>
<path d="M59.4798 46.7977C59.2638 47.9497 59.8638 49.6537 60.7278 50.3257C61.2798 50.7577 62.7198 50.9977 62.7198 50.6857C62.7198 50.3017 60.9438 47.8537 60.8718 48.0937C60.6558 48.6937 60.2958 48.4057 60.4158 47.7337C60.5118 47.3017 60.4158 46.8937 60.1038 46.4857L59.6478 45.9097L59.4798 46.7977Z" fill="black"/>
<path d="M48.6319 48.1657C48.9439 48.9337 49.2799 49.3657 49.5439 49.3657C50.1919 49.3657 50.5519 50.0137 50.4079 50.8777C50.2399 51.9337 50.5759 52.5097 50.9359 51.8137C51.8479 50.0857 50.3839 46.9657 48.6799 46.9657H48.1279L48.6319 48.1657Z" fill="black"/>
<path d="M46.8801 48.1417C46.4241 49.0297 46.6401 50.1577 47.5521 51.5257C48.2961 52.6057 48.5841 52.8697 49.2321 52.9177C50.1681 53.0137 50.2161 52.6777 49.4001 51.4777C49.0641 50.9977 48.8001 50.5177 48.8001 50.3977C48.8001 50.0857 47.4801 47.6857 47.3121 47.6857C47.2161 47.6857 47.0241 47.9017 46.8801 48.1417ZM47.8401 50.3497C47.8401 50.6137 47.7441 50.7577 47.6001 50.6857C47.4801 50.6137 47.3601 50.3737 47.3601 50.1817C47.3601 49.9897 47.4801 49.8457 47.6001 49.8457C47.7441 49.8457 47.8401 50.0617 47.8401 50.3497Z" fill="black"/>
<path d="M58.0879 53.8297C58.0159 53.9017 58.0399 54.2377 58.1599 54.5497C58.3519 55.0057 58.2559 55.1977 57.6559 55.7017C56.8879 56.3497 55.6159 56.6857 54.8239 56.4697C54.5359 56.3977 54.1039 56.2537 53.8399 56.1817C53.4799 56.0857 53.3599 56.1577 53.3599 56.5177C53.3599 57.0697 53.9599 57.2857 55.5919 57.2857C56.8399 57.2857 57.7759 56.9017 58.4959 56.1097C58.8079 55.7737 59.1199 55.6537 59.5039 55.7497C60.2959 55.9417 60.2719 55.2937 59.4799 54.7897C59.1439 54.5737 58.8799 54.2377 58.8799 54.0457C58.8799 53.6857 58.3759 53.5417 58.0879 53.8297Z" fill="black"/>
<path d="M68.7202 51.9577C68.7202 52.0537 69.2002 52.2457 69.8002 52.3897C70.9042 52.6537 71.0962 52.5577 70.5922 52.0537C70.2802 51.7417 68.7202 51.6457 68.7202 51.9577Z" fill="black"/>
<path d="M68.3598 54.5257C67.9278 54.9337 67.7598 55.3657 67.7598 56.0377C67.7598 57.1417 68.0958 57.5257 69.0798 57.5017C69.4638 57.5017 69.6558 57.4297 69.4878 57.3577C69.2718 57.2857 69.3198 57.0697 69.6798 56.6377C70.2558 55.8937 70.3038 54.8137 69.7758 54.3097C69.2718 53.7817 69.0318 53.8297 68.3598 54.5257ZM69.0798 54.8857C69.2958 55.2457 68.6958 55.9177 68.4318 55.6537C68.1918 55.4137 68.4318 54.6457 68.7198 54.6457C68.8398 54.6457 69.0078 54.7657 69.0798 54.8857Z" fill="black"/>
<path d="M76.8799 54.6457C76.8799 54.7657 77.0479 54.8857 77.2399 54.8857C77.4559 54.8857 77.9359 55.0537 78.3199 55.2457C78.8959 55.5337 79.0399 55.5577 79.0399 55.2937C79.0399 55.1257 78.9199 54.8617 78.7519 54.6937C78.4159 54.3577 76.8799 54.3097 76.8799 54.6457Z" fill="black"/>
<path d="M76.5198 57.1657C75.7278 57.9337 75.6558 59.7817 76.3758 60.1657C76.9758 60.4777 77.9118 60.4777 77.7198 60.1657C77.6478 60.0457 77.7438 59.6857 77.9358 59.3977C78.4158 58.7017 78.4158 57.4297 77.9358 56.9497C77.4318 56.4217 77.1918 56.4697 76.5198 57.1657ZM77.3598 57.8857C77.3598 58.3417 76.8798 58.5817 76.5918 58.2937C76.3998 58.1017 76.4238 57.9097 76.6398 57.6697C76.9758 57.2617 77.3598 57.3817 77.3598 57.8857Z" fill="black"/>
<path d="M69.4399 59.6617C69.4399 61.1497 69.6079 61.4377 70.6639 61.6777C71.9599 61.9897 73.9999 60.8857 73.9999 59.8777C73.9999 59.5417 73.8079 59.4457 73.2319 59.4457C72.7999 59.4457 71.8639 59.1817 71.1679 58.8457C70.4479 58.5097 69.7759 58.2457 69.6559 58.2457C69.5359 58.2457 69.4399 58.8697 69.4399 59.6617ZM71.9599 59.8537C72.4879 60.0457 72.9679 60.2377 73.0159 60.2857C73.2559 60.5497 71.3599 61.1737 70.7839 61.0297C70.2559 60.9097 70.1599 60.7417 70.1599 60.0217C70.1599 59.2777 70.2319 59.1817 70.5919 59.3257C70.8079 59.4217 71.4319 59.6617 71.9599 59.8537Z" fill="black"/>
</svg>
