<svg width="128" height="128" viewBox="0 0 128 128" fill="none" xmlns="http://www.w3.org/2000/svg">
<path d="M96.337 62.4079C86.9985 48.1344 71.5483 40.6756 57.1584 41.9873C57.3277 42.2667 57.443 42.5782 57.496 42.9085C57.6092 43.6344 57.5427 44.2825 57.2997 44.8505C57.0806 45.3667 56.7316 45.7541 56.5436 45.9618C55.5622 47.0501 54.4396 48.0108 53.2058 48.8177C52.403 49.3432 51.5535 49.8022 50.6801 50.1834C50.1993 50.3921 49.7163 50.5759 49.25 50.7535C48.3299 51.1046 47.4607 51.4358 46.7306 51.9115C45.8136 52.5107 45.043 53.3737 44.2267 54.2876C43.886 54.6678 43.535 55.0614 43.1653 55.4435C41.917 56.7344 40.4059 57.9537 38.5428 59.1719V59.1729C37.6621 59.7482 36.6735 60.3464 35.4293 61.0537C34.5237 61.5688 33.4364 61.6519 32.4487 61.2821C31.5982 60.9633 30.9148 60.3444 30.515 59.553C28.9001 62.5346 27.7109 65.7624 26.9497 69.1376C30.596 85.5131 42.6346 116.158 81.9845 123.281C83.1466 123.067 84.3451 122.599 85.4719 121.862C86.6693 121.079 87.6268 120.098 88.2956 119.049C88.6757 118.452 89.1524 117.929 89.7174 117.515L89.7392 117.499C90.4932 116.947 91.3655 116.59 92.296 116.442C93.5205 116.247 94.7927 115.763 95.9839 114.984C98.2645 113.492 99.6717 111.293 99.8825 109.246C100.149 106.66 100.654 104.123 101.552 101.725C106.046 89.7337 104.548 74.9596 96.337 62.4079Z" fill="#87CE26"/>
<path d="M73.993 4.60131C73.7728 4.99283 73.4249 5.56195 73.0438 6.31592C72.6585 7.06678 72.2098 7.99107 71.7155 9.05764C71.2201 10.1232 70.678 11.3331 70.057 12.6302C69.437 13.9252 68.7266 15.3169 67.8761 16.6888C66.9995 18.069 65.9828 19.4346 64.7958 20.7494C62.4362 23.3893 59.4837 25.7863 56.4367 28.1053C54.9111 29.2695 53.3699 30.4108 51.8443 31.5906C51.4694 31.8835 51.0965 32.1753 50.7247 32.4651C50.3415 32.7621 49.9791 33.0684 49.6083 33.3675C48.8751 33.973 48.1585 34.5847 47.4721 35.213C46.0939 36.4634 44.8166 37.7553 43.6762 39.0659C42.5359 40.3766 41.5535 41.7246 40.7237 43.0352C39.8773 44.3375 39.2635 45.6564 38.7474 46.8383C38.6342 47.1426 38.5241 47.4375 38.4182 47.7221C38.3143 48.0077 38.2042 48.2787 38.1326 48.5539C38.0537 48.8271 37.9789 49.0888 37.9062 49.338C37.8792 49.4346 37.8522 49.527 37.8262 49.6205L23.2079 41.8949C22.4082 44.9773 23.9743 48.1832 26.8978 49.4481L35.1063 52.9978C34.2931 53.9076 33.5267 54.8589 32.8163 55.8517C32.2493 56.6441 31.4258 57.5642 31.7924 58.6121C32.1995 59.7742 33.588 60.3153 34.6629 59.7046C37.3246 58.1925 39.9292 56.5589 42.0499 54.3656C43.2972 53.0757 44.3814 51.5896 45.8852 50.6113C47.1626 49.7794 48.6622 49.3702 50.0601 48.7606C52.0831 47.8799 53.913 46.562 55.3919 44.9243C55.5788 44.7155 55.7637 44.4985 55.8738 44.2409C56.0171 43.9055 56.0223 43.5243 55.9662 43.164L55.9641 43.1526C55.8707 42.5658 55.2891 42.1898 54.7034 42.2854C50.8193 42.9189 47.0452 44.215 43.5246 46.21C43.7001 45.8153 43.8964 45.4114 44.1207 45.0022C44.749 43.8234 45.5196 42.5689 46.4616 41.3061C47.4025 40.0432 48.4898 38.7606 49.6935 37.4895C50.2927 36.8508 50.9283 36.2204 51.5826 35.591C51.9128 35.2805 52.24 34.9575 52.5796 34.6522C52.9254 34.3365 53.2733 34.0197 53.6233 33.7019C55.0087 32.4526 56.4709 31.1856 57.9166 29.8999C59.3643 28.6131 60.8037 27.2973 62.1641 25.9327C63.5246 24.5702 64.803 23.1536 65.9278 21.6913C67.0567 20.2343 68.0194 18.7128 68.8076 17.2329C69.5917 15.7271 70.1961 14.2742 70.7237 12.9199C71.2502 11.5667 71.6989 10.3205 72.1122 9.2238C72.5235 8.12504 72.8984 7.17582 73.2245 6.40004C73.5464 5.62322 73.8486 5.03541 74.0387 4.62519C74.2339 4.21705 74.3378 4 74.3378 4C74.3378 4 74.2173 4.20874 73.993 4.60131Z" fill="#6DA02D"/>
<path d="M26.9503 69.1376C24.4837 80.0722 26.5566 92.5741 33.6519 103.42C43.4494 118.395 59.9744 125.882 74.9448 123.595C76.6563 123.333 78.4011 123.305 80.1489 123.407C80.7378 123.442 81.3567 123.398 81.985 123.281C42.6352 116.158 30.5965 85.5131 26.9503 69.1376Z" fill="#7ACA2A"/>
</svg>
