<svg width="128" height="128" viewBox="0 0 128 128" fill="none" xmlns="http://www.w3.org/2000/svg">
<path d="M87.0062 119.833C87.9424 119.17 88.8775 118.506 89.8134 117.843C89.8746 117.023 89.5884 116.183 89.0403 115.571C88.2475 116.089 85.5187 117.276 85.2828 118.238C85.1218 118.892 86.4148 120.829 87.0062 119.833Z" fill="#4989D0"/>
<path d="M83.181 117.559C83.5754 117.89 84.0152 118.179 84.5113 118.313C86.4554 118.835 88.1429 116.886 90.0902 116.379C91.1101 116.112 92.2189 116.248 93.2026 115.869C94.548 115.352 95.3573 114.007 96.0664 112.752C96.4363 112.096 96.8072 111.44 97.177 110.785C97.5739 110.082 97.9772 109.363 98.1255 108.57C98.2739 107.777 98.1248 106.882 97.5441 106.321C96.9141 105.711 95.9072 105.631 95.0771 105.916C94.2485 106.201 93.5616 106.791 92.9316 107.401C92.3321 107.982 91.7408 108.631 91.5295 109.438C91.4719 109.659 91.4395 109.899 91.2954 110.077C90.8257 110.66 89.9482 110.044 89.3038 109.664C88.3669 109.111 87.1744 109.147 86.1464 109.504C85.1198 109.861 84.2205 110.505 83.3378 111.14C80.5351 113.157 80.2184 115.076 83.181 117.559Z" fill="#F57643"/>
<path d="M93.127 110.077C93.2708 109.899 93.3035 109.659 93.3608 109.438C93.5724 108.631 94.1638 107.982 94.7632 107.401C95.3921 106.792 96.0773 106.203 96.9042 105.917C96.3371 105.697 95.6632 105.715 95.0771 105.916C94.2485 106.201 93.5615 106.791 92.9315 107.401C92.3321 107.982 91.7408 108.631 91.5295 109.438C91.4954 109.57 91.469 109.709 91.4233 109.838C92.0217 110.196 92.7238 110.577 93.127 110.077Z" fill="#F36029"/>
<path d="M85.0126 117.559C82.0489 115.076 82.3664 113.157 85.1691 111.14C86.0522 110.505 86.9504 109.861 87.978 109.504C88.1573 109.441 88.3426 109.39 88.5296 109.349C87.7583 109.152 86.9072 109.24 86.1464 109.504C85.1198 109.861 84.2205 110.505 83.3378 111.14C80.5351 113.157 80.2184 115.076 83.181 117.559C83.5754 117.89 84.0152 118.18 84.5113 118.313C85.0685 118.462 85.6039 118.409 86.1313 118.245C85.721 118.094 85.3491 117.842 85.0126 117.559Z" fill="#F36029"/>
<path d="M32.8175 120.99C33.8658 121.456 34.9138 121.923 35.9622 122.389C36.6984 122.023 37.2749 121.348 37.5217 120.564C36.6709 120.147 34.2578 118.406 33.31 118.695C32.6649 118.89 31.6594 120.99 32.8175 120.99Z" fill="#4989D0"/>
<path d="M32.8212 116.541C32.7386 117.047 32.714 117.575 32.8525 118.069C33.3953 120.008 35.9322 120.464 37.363 121.879C38.1122 122.621 38.5608 123.645 39.3887 124.297C40.5204 125.19 42.0902 125.2 43.5312 125.168C44.2839 125.152 45.0369 125.136 45.7896 125.12C46.5965 125.102 47.4202 125.082 48.1782 124.805C48.9361 124.528 49.6294 123.943 49.8161 123.158C50.0189 122.305 49.5742 121.398 48.9055 120.83C48.2372 120.262 47.3798 119.972 46.5335 119.742C45.7278 119.523 44.8689 119.346 44.0663 119.576C43.8462 119.64 43.6237 119.733 43.3969 119.701C42.6558 119.595 42.7374 118.526 42.736 117.777C42.7335 116.689 42.0937 115.682 41.2626 114.98C40.4311 114.279 39.419 113.835 38.4219 113.399C35.2579 112.018 33.4452 112.725 32.8212 116.541Z" fill="#F57643"/>
<path d="M36.6805 113.399C37.6775 113.835 38.69 114.279 39.5211 114.98C40.3525 115.682 40.992 116.689 40.9945 117.777C40.9963 118.526 40.9143 119.595 41.6554 119.701C41.8822 119.733 42.1047 119.64 42.3252 119.576C42.5435 119.513 42.7664 119.482 42.991 119.472C42.6908 119.095 42.7372 118.344 42.7361 117.777C42.7337 116.689 42.0938 115.682 41.2627 114.98C40.4313 114.279 39.4191 113.835 38.4221 113.399C37.0623 112.806 35.9527 112.599 35.0791 112.858C35.5685 112.964 36.1018 113.147 36.6805 113.399Z" fill="#F36029"/>
<path d="M48.9056 120.83C48.2373 120.262 47.3799 119.973 46.5337 119.742C45.7331 119.524 44.8806 119.349 44.0826 119.572C44.322 119.62 44.5593 119.679 44.792 119.742C45.6386 119.973 46.496 120.262 47.1644 120.83C47.8327 121.398 48.2778 122.305 48.0746 123.158C47.8882 123.943 47.1946 124.528 46.4366 124.805C45.679 125.082 44.8549 125.103 44.0485 125.12C43.4223 125.133 42.7965 125.146 42.1704 125.16C42.6253 125.183 43.0845 125.178 43.5313 125.168C44.284 125.152 45.0371 125.136 45.7897 125.12C46.5966 125.103 47.4203 125.082 48.1783 124.805C48.9362 124.528 49.6295 123.943 49.8162 123.158C50.019 122.305 49.5743 121.398 48.9056 120.83Z" fill="#F36029"/>
<path d="M41.855 85.2019C42.195 89.9888 44.4925 94.8464 42.9895 99.403C42.5037 100.876 41.6466 102.194 40.7761 103.477C38.8049 106.383 36.7166 109.208 34.5176 111.945C37.3593 114.481 40.4808 116.704 43.8069 118.56C44.1933 118.777 44.6222 118.994 45.0574 118.915C45.4185 118.849 45.7099 118.59 45.9746 118.336C49.1155 115.323 51.382 111.535 53.6095 107.795C54.7039 105.96 55.798 104.123 56.8921 102.286C57.7358 100.87 58.5961 99.41 58.8587 97.783C59.3604 94.6744 57.61 91.4432 58.4674 88.4149C60.1496 92.589 64.6721 94.7201 67.9867 97.765C72.6945 102.089 74.994 108.349 77.5538 114.205C77.6641 114.459 77.7984 114.735 78.0551 114.84C78.3205 114.949 78.62 114.835 78.8837 114.721C82.4282 113.186 85.9055 111.498 89.304 109.664C89.6138 109.497 89.9439 109.305 90.0771 108.98C90.2058 108.664 90.113 108.307 90.0205 107.978C88.2391 101.72 86.3432 95.2422 82.0763 90.3309C77.668 85.2557 70.8857 82.0319 68.3249 75.8166C68.1881 75.4844 68.0577 75.1346 67.7993 74.885C67.4196 74.518 66.8518 74.4459 66.3252 74.3991C61.1825 73.9382 55.9857 74.0841 50.8768 74.833C48.5084 75.1796 45.1748 74.3063 43.6216 76.274C41.9127 78.4382 41.6698 82.5891 41.855 85.2019Z" fill="#806BBC"/>
<path d="M37.3069 114.222C39.5063 111.487 41.5945 108.661 43.5654 105.756C44.4362 104.472 45.2933 103.155 45.7792 101.682C47.2821 97.1252 44.9846 92.2669 44.6447 87.4808C44.4594 84.868 44.7023 80.7171 46.4113 78.5518C47.9641 76.5851 51.298 77.4581 53.6665 77.1107C58.6379 76.3837 63.692 76.2269 68.6993 76.6439C68.5661 76.3739 68.4413 76.0982 68.3249 75.8166C68.1881 75.4844 68.0577 75.1346 67.7993 74.885C67.4196 74.518 66.8518 74.4459 66.3252 74.3991C61.1825 73.9382 55.9857 74.0841 50.8768 74.833C48.5084 75.1796 45.1748 74.3063 43.6216 76.274C41.9127 78.4382 41.6698 82.5891 41.855 85.2019C42.195 89.9888 44.4925 94.8464 42.9895 99.403C42.5037 100.876 41.6466 102.194 40.7761 103.477C38.8049 106.383 36.7166 109.208 34.5176 111.945C35.5311 112.849 36.5812 113.713 37.6627 114.536C37.5438 114.431 37.425 114.327 37.3069 114.222Z" fill="#6454AE"/>
<path d="M70.7764 100.044C69.9278 99.2644 69.0007 98.5451 68.062 97.836C72.7185 102.157 75.0082 108.38 77.5535 114.205C77.6639 114.459 77.7982 114.735 78.0548 114.84C78.3203 114.949 78.6198 114.835 78.8835 114.721C79.0796 114.635 79.2751 114.548 79.4713 114.462C77.2258 109.221 74.9453 103.873 70.7764 100.044Z" fill="#6454AE"/>
<path d="M79.6874 96.4463C76.3378 96.4463 73.2275 95.7516 70.6903 94.4385C68.0219 93.0569 66.0328 91.0076 64.9383 88.514C63.2522 84.6707 63.7831 80.1538 66.4342 75.7941C69.0224 71.537 73.3442 67.9219 78.6032 65.6142C82.3013 63.9914 86.2279 63.134 89.9566 63.134C93.3063 63.134 96.4169 63.8276 98.9538 65.1417C101.622 66.523 103.612 68.5726 104.706 71.0663C106.392 74.9096 105.861 79.4264 103.211 83.7862C100.622 88.0432 96.2998 91.6583 91.0411 93.966C87.3431 95.5888 83.4161 96.4463 79.6874 96.4463Z" fill="#F9AC1A"/>
<path d="M39.7324 45.907C35.675 42.9919 32.9589 38.2813 32.4677 33.3095C30.0388 32.9558 27.5409 33.0827 25.1605 33.6822C24.817 38.9922 26.7337 44.4111 30.3394 48.3244C33.6142 51.8776 38.0509 54.0942 42.3832 56.2345C43.1746 56.6258 43.9828 57.022 44.8568 57.1444C45.3219 57.2091 45.8623 57.2281 46.1477 57.6014C46.3337 57.8443 46.3516 58.172 46.3534 58.4782C46.3812 63.9724 43.5374 68.9991 41.3633 74.0436C41.2276 74.3586 41.093 74.713 41.2149 75.0336C41.3348 75.3476 41.6632 75.5241 41.9691 75.6636C47.5656 78.2269 54.009 77.8282 60.148 77.3789C61.9919 77.2439 63.8362 77.1089 65.6802 76.9739C65.9889 76.9514 66.3119 76.9243 66.5746 76.7598C67.0769 76.4455 67.175 75.7681 67.2183 75.1767C67.5375 70.8117 67.5962 66.4288 67.3944 62.0575C67.3719 61.585 67.3603 61.0682 67.6475 60.692C68.0849 60.1207 68.9469 60.1763 69.6581 60.287C73.8438 60.9441 78.0288 61.6001 82.2138 62.2572C85.3955 62.7557 89.1392 63.6965 90.2294 66.7255C90.4678 67.3882 90.5877 68.162 91.1463 68.5895C91.5218 68.8774 92.0192 68.9407 92.491 68.9766C94.6844 69.1467 97.3887 68.6183 98.0942 66.5357C98.7714 64.5395 97.1081 62.5145 95.3475 61.3565C92.8609 59.7192 89.9717 58.8263 87.1262 57.9533C79.279 55.5451 71.4317 53.1376 63.5849 50.7301C55.7391 48.3226 46.6677 50.8894 39.7324 45.907Z" fill="#34B540"/>
<path d="M50.2266 49.2001C54.1996 50.2105 58.4978 50.0639 62.681 50.4763C58.6651 49.4403 54.3687 49.5556 50.2266 49.2001Z" fill="#2FA240"/>
<path d="M94.9334 68.2945C93.8847 65.2461 90.3856 64.2192 87.2915 63.6799C88.6317 64.3514 89.7197 65.3108 90.2292 66.7255C90.4675 67.3882 90.5874 68.162 91.146 68.5895C91.5215 68.8774 92.019 68.9407 92.4908 68.9766C93.3303 69.0423 94.2458 69.0036 95.0944 68.8163C95.0424 68.6401 94.9911 68.4636 94.9334 68.2945Z" fill="#2FA240"/>
<path d="M46.0672 75.9533C48.2413 70.6732 51.0851 65.4117 51.0573 59.6616C51.0555 59.3413 51.0376 58.9982 50.8516 58.7437C50.5662 58.3531 50.0258 58.3341 49.5603 58.2655C48.6867 58.1369 47.8781 57.722 47.0871 57.3135C42.7548 55.0733 38.3177 52.753 35.0433 49.0335C31.4376 44.9374 29.5209 39.2657 29.8644 33.7082C30.6104 33.512 31.3684 33.3637 32.132 33.2645C29.8092 32.9695 27.4312 33.1105 25.1605 33.6822C24.817 38.9922 26.7337 44.4111 30.3394 48.3244C33.6142 51.8776 38.0509 54.0942 42.3832 56.2345C43.1746 56.6258 43.9828 57.022 44.8568 57.1444C45.3219 57.2091 45.8623 57.2281 46.1477 57.6014C46.3337 57.8444 46.3516 58.172 46.3534 58.4782C46.3812 63.9724 43.5374 68.9991 41.3633 74.0436C41.2276 74.3586 41.093 74.713 41.2149 75.0336C41.3348 75.3476 41.6632 75.5241 41.9691 75.6636C43.2459 76.2486 44.5674 76.6779 45.9189 76.9894C45.7969 76.6536 45.9315 76.2828 46.0672 75.9533Z" fill="#2FA240"/>
<path d="M32.2572 30.318C32.2572 32.5536 30.4452 34.3663 28.2096 34.3663C25.9744 34.3663 24.1621 32.5536 24.1621 30.318C24.1621 28.0832 25.9744 26.2705 28.2096 26.2705C30.4452 26.2705 32.2572 28.0832 32.2572 30.318Z" fill="#F89CD2"/>
<path d="M41.7292 9.71437C40.7642 12.2811 37.901 13.5798 35.3339 12.6158C32.7668 11.6501 31.4678 8.7873 32.4325 6.22054C33.3972 3.65273 36.2603 2.35406 38.8278 3.31875C41.3949 4.28378 42.6939 7.14656 41.7292 9.71437Z" fill="#FABC2B"/>
<path d="M38.8277 3.31875C36.2602 2.35406 33.3971 3.65273 32.4324 6.22054C32.3705 6.38507 32.3185 6.55066 32.2749 6.7173C33.3971 4.47082 36.0588 3.39082 38.461 4.29363C40.8636 5.19714 42.1552 7.76214 41.5203 10.1921C41.5973 10.0382 41.6672 9.8789 41.7291 9.71437C42.6938 7.14656 41.3948 4.28378 38.8277 3.31875Z" fill="#F9AC1A"/>
<path d="M26.5921 36.9302L25.8984 36.6701C25.5437 36.5368 25.3644 36.141 25.4976 35.7862L34.4192 12.0463C34.6246 11.4999 35.2338 11.2236 35.7801 11.4289C36.3261 11.6339 36.6028 12.2432 36.3975 12.7895L27.4755 36.5298C27.3423 36.8845 26.9468 37.0645 26.5921 36.9302Z" fill="#FABC2B"/>
<path d="M35.78 11.4289C35.2337 11.2236 34.6244 11.4999 34.4191 12.0463L25.4975 35.7862C25.4722 35.853 25.4585 35.9212 25.4546 35.9887L34.0837 13.0271C34.289 12.4808 34.8979 12.2045 35.4442 12.4098C35.9097 12.5852 36.1776 13.0532 36.1206 13.5257L36.3973 12.7895C36.6026 12.2432 36.326 11.6339 35.78 11.4289Z" fill="#F9AC1A"/>
<path d="M27.0178 35.9744L26.3245 35.7135C25.9698 35.5803 25.7901 35.1844 25.9234 34.8297L34.6024 11.7355C34.5265 11.8255 34.4632 11.9292 34.4192 12.0463L25.4976 35.7863C25.3644 36.141 25.5437 36.5369 25.8984 36.6701L26.5921 36.9303C26.9468 37.0646 27.3423 36.8846 27.4755 36.5298L27.7431 35.8179C27.5585 36.0014 27.2776 36.0717 27.0178 35.9744Z" fill="#F9AC1A"/>
<path d="M29.9732 28.6035C29.9732 31.1615 28.4123 33.235 26.4868 33.235C24.5613 33.235 23 31.1615 23 28.6035C23 26.0456 24.5613 23.972 26.4868 23.972C28.4123 23.972 29.9732 26.0456 29.9732 28.6035Z" fill="#FAC0E3"/>
<path d="M32.6146 27.9159C32.6146 28.6745 31.432 29.2894 29.9733 29.2894C28.5147 29.2894 27.332 28.6745 27.332 27.9159C27.332 27.1572 28.5147 26.5427 29.9733 26.5427C31.432 26.5427 32.6146 27.1572 32.6146 27.9159Z" fill="#F9AFDB"/>
<path d="M60.6691 72.7018C53.7328 70.2366 48.7244 63.1969 48.8313 55.806C48.9069 53.5508 49.9095 51.3458 51.5095 49.7096C51.6793 49.5458 51.7665 49.4421 51.9528 49.2965L52.0315 49.3394C51.9746 50.0801 51.7211 50.6363 51.661 51.37C51.5017 53.3894 51.4455 55.4063 51.6135 57.4116C51.8709 60.0972 52.7466 62.6963 54.0608 65.0588C54.8662 66.5044 55.8562 67.8678 56.9552 69.1064C58.0995 70.3941 59.3556 71.5219 60.7127 72.6234L60.6691 72.7018Z" fill="#E562B8"/>
<path d="M58.4962 49.8713C65.3071 51.6273 73.0102 64.1176 72.0578 71.0069C71.959 71.5992 71.7734 72.2176 71.3856 72.6838L71.3054 72.6413C71.445 72.096 71.4127 71.5433 71.3307 70.997C71.0534 69.3672 70.4054 67.8372 69.7357 66.329C68.8213 64.3099 67.7757 62.3454 66.6634 60.4266C65.5426 58.5071 64.3424 56.6315 63.0265 54.842C61.6849 53.0403 60.2861 51.3169 58.459 49.9532L58.4962 49.8713Z" fill="#E562B8"/>
<path d="M103.913 71.4984C106.389 79.16 101.237 88.5938 90.7105 93.2119C80.1833 97.8297 69.4255 95.4078 65.7924 88.2222C64.5152 85.6952 60.6909 76.5932 60.6909 76.5932C60.6909 76.5932 70.3958 70.2816 78.9954 66.509C87.4462 62.8007 98.8105 59.8694 98.8105 59.8694C98.8105 59.8694 102.894 68.3466 103.913 71.4984Z" fill="#F14C53"/>
<path d="M103.913 71.4984C102.894 68.3466 98.8105 59.8694 98.8105 59.8694C98.8105 59.8694 98.7529 59.8838 98.6467 59.9119C99.933 62.672 101.762 66.714 102.398 68.6806C104.875 76.3433 99.7225 85.776 89.196 90.3938C79.386 94.6976 69.377 92.8871 65.1182 86.8047C65.3818 87.3788 65.6125 87.8657 65.7925 88.2222C69.4255 95.4078 80.1833 97.8297 90.7105 93.2119C101.237 88.5938 106.389 79.16 103.913 71.4984Z" fill="#EF3738"/>
<path d="M74.6161 84.8869C71.2671 84.8869 68.1558 84.1929 65.6196 82.8798C62.9505 81.4982 60.961 79.4489 59.867 76.955C58.1809 73.112 58.7121 68.5951 61.3625 64.2354C63.9514 59.9776 68.2728 56.3622 73.5315 54.0556C77.2306 52.4328 81.1562 51.575 84.8859 51.575C88.2349 51.575 91.3462 52.2689 93.8824 53.582C96.5518 54.9644 98.5406 57.0129 99.635 59.5076C101.321 63.3505 100.79 67.8678 98.1391 72.2275C95.5509 76.4846 91.2292 80.0997 85.9705 82.4073C82.2713 84.0301 78.3454 84.8869 74.6161 84.8869Z" fill="#F9AC1A"/>
<path d="M98.8103 59.8694C102.046 67.243 96.1346 76.9652 85.6085 81.5829C75.082 86.2007 63.9258 83.9669 60.6908 76.5932C57.4557 69.2195 63.3665 59.4978 73.893 54.88C84.4195 50.2612 95.576 52.4957 98.8103 59.8694Z" fill="#60A1DC"/>
<path d="M43.1269 37.8925C42.0071 36.8494 41.2042 35.2312 41.6257 33.7595C41.9892 32.4907 43.2967 31.6688 44.6062 31.5025C45.9162 31.3358 47.2317 31.7022 48.4826 32.1262C50.2565 32.7263 51.9894 33.4491 53.6649 34.2869C53.8249 34.3663 53.9975 34.4626 54.0594 34.63C54.1167 34.7857 54.0605 34.9583 54.0039 35.1151C53.5788 36.2841 53.1105 37.4379 52.6001 38.572C52.2443 39.3631 51.7591 40.2349 50.9115 40.4206C50.1701 40.5833 47.513 40.229 46.7905 39.9723C45.122 39.3792 44.1207 38.8185 43.1269 37.8925Z" fill="#F9AC1A"/>
<path d="M55.4479 52.475H54.9821C53.309 52.475 51.9526 51.119 51.9526 49.4455V43.025H58.4776V49.4455C58.4776 51.119 57.121 52.475 55.4479 52.475Z" fill="#F9AFDB"/>
<path d="M55.4479 50.2468H54.9821C53.309 50.2468 51.9526 48.8904 51.9526 47.2163V40.7968H58.4776V47.2163C58.4776 48.8904 57.121 50.2468 55.4479 50.2468Z" fill="#F89CD2"/>
<path d="M49.1753 39.3677C49.4464 40.3341 49.0432 41.2918 48.2753 41.5069C47.5075 41.7221 46.6655 41.1135 46.3948 40.1471C46.1241 39.1813 46.527 38.2237 47.2952 38.0085C48.063 37.7934 48.9046 38.4019 49.1753 39.3677Z" fill="#F89CD2"/>
<path d="M64.0272 35.8468C64.9057 41.747 61.8812 47.0859 57.2722 47.7718C52.6629 48.4584 48.2146 44.2319 47.3364 38.3327C46.4578 32.432 49.4823 27.0932 54.0913 26.4077C58.7003 25.7207 63.149 29.9472 64.0272 35.8468Z" fill="#FAC0E3"/>
<path d="M41.9651 29.3882C41.7165 26.3137 44.3462 23.7867 46.9945 22.2054C48.4201 21.3539 49.9863 20.6096 51.6467 20.5998C52.6986 20.5945 53.7262 20.8842 54.7602 21.0769C58.8091 21.832 63.1256 21.0526 66.6546 18.9285C66.0766 20.5351 65.1102 22.0011 63.8604 23.1655C65.1678 23.2657 66.4982 22.4719 67.0301 21.273C67.1341 23.1521 66.3189 25.0611 64.888 26.2832C66.7492 26.5405 68.7165 25.8585 70.018 24.5032C67.7842 29.9535 62.9913 34.566 57.1765 35.5046H57.1761C53.0354 36.1733 42.407 34.8585 41.9651 29.3882Z" fill="#FABC2B"/>
<path d="M65.3504 26.3275C65.0182 26.871 64.6044 27.3643 64.1196 27.778C65.9812 28.0364 67.9485 27.3534 69.25 25.9981C69.1438 26.2565 69.0324 26.5128 68.9153 26.7676C69.3308 26.035 69.7 25.277 70.0178 24.5032C68.8235 25.7471 67.0692 26.4228 65.3504 26.3275Z" fill="#F9AC1A"/>
<path d="M64.4296 23.1532C64.032 23.6957 63.5845 24.2016 63.0923 24.6607C64.3997 24.7606 65.729 23.9667 66.262 22.769C66.307 23.5751 66.1818 24.3879 65.9108 25.1494C66.693 24.0262 67.1061 22.6421 67.0298 21.2731C66.5752 22.2972 65.5374 23.0253 64.4296 23.1532Z" fill="#F9AC1A"/>
<path d="M46.2263 23.7002C47.6522 22.8487 49.2181 22.1045 50.8789 22.0957C51.9308 22.0894 52.958 22.3791 53.992 22.5717C58.0413 23.3276 62.3574 22.5475 65.886 20.4233C65.8238 20.5963 65.7574 20.7664 65.686 20.9355C66.0766 20.302 66.4025 19.6288 66.6545 18.9285C63.1256 21.0526 58.8091 21.832 54.7601 21.0769C53.7262 20.8842 52.6986 20.5945 51.6467 20.5998C49.9863 20.6096 48.4201 21.3539 46.9945 22.2054C44.9948 23.3996 43.0067 25.1332 42.2593 27.2338C43.2275 25.8001 44.7237 24.5974 46.2263 23.7002Z" fill="#F9AC1A"/>
<path d="M54.5738 37.941C54.5738 38.2121 54.354 38.4315 54.0833 38.4315C53.8126 38.4315 53.5933 38.2121 53.5933 37.941C53.5933 37.67 53.8126 37.4513 54.0833 37.4513C54.354 37.4513 54.5738 37.67 54.5738 37.941Z" fill="#171717"/>
<path d="M60.3702 36.9609C60.3702 37.2319 60.1508 37.4513 59.8801 37.4513C59.6094 37.4513 59.3896 37.2319 59.3896 36.9609C59.3896 36.6902 59.6094 36.4705 59.8801 36.4705C60.1508 36.4705 60.3702 36.6902 60.3702 36.9609Z" fill="#171717"/>
<path d="M56.748 37.9463C57.0356 38.5359 57.3404 39.1163 57.6357 39.7023C57.7623 39.9527 57.8885 40.2026 58.0066 40.4564C58.0273 40.5014 58.0474 40.5464 58.0674 40.5914C58.0868 40.6347 58.0776 40.6157 58.073 40.6041C58.0804 40.6231 58.0882 40.641 58.0952 40.66C58.1033 40.6814 58.1075 40.7096 58.118 40.73C58.1339 40.7605 58.1138 40.686 58.1138 40.6952C58.1145 40.6284 58.1655 40.4898 58.2365 40.5007C58.2073 40.4962 58.1514 40.5239 58.1244 40.532C57.6051 40.6769 57.0911 40.8425 56.5592 40.9363C56.4397 40.9578 56.3722 41.1044 56.4021 41.2134C56.4369 41.3396 56.5589 41.3916 56.6787 41.3709C57.1913 41.2802 57.6874 41.1234 58.187 40.982C58.3515 40.9353 58.5687 40.904 58.5631 40.6871C58.5614 40.6087 58.5283 40.5355 58.4991 40.4656C58.2548 39.8778 57.944 39.3153 57.655 38.7493C57.4803 38.4065 57.3052 38.0644 57.1365 37.7188C57.083 37.6098 56.928 37.58 56.8285 37.6387C56.7171 37.7034 56.6942 37.8366 56.748 37.9463Z" fill="#171717"/>
<path d="M59.8202 41.567C60.0336 42.2374 59.8968 43.0081 59.5027 43.5976C58.6688 44.8844 56.7943 45.1635 55.6222 44.1753C55.0734 43.7263 54.7176 43.0288 54.7267 42.3257L54.816 42.3123C55.0161 42.9406 55.4074 43.457 55.9133 43.7829C56.9251 44.4562 58.338 44.2456 59.1097 43.3069C59.4985 42.8478 59.7224 42.2396 59.7312 41.5807L59.8202 41.567Z" fill="#171717"/>
</svg>
