<svg width="128" height="128" viewBox="0 0 128 128" fill="none" xmlns="http://www.w3.org/2000/svg">
<path d="M46.9004 71.3583C48.8935 68.2239 46.8954 65.8728 45.1025 64.8884C45.2098 65.5754 45.1025 66.361 45.1025 66.361C44.2619 64.6913 42.9289 64.547 41.3292 62.5372C40.0801 64.3504 39.3911 66.9984 39.8632 69.0064C39.3276 68.3344 39.0025 67.8307 39.0884 66.555C37.2785 70.1328 39.0733 75.7006 44.938 74.6121" fill="#EF6119"/>
<path d="M44.0983 74.1067C42.0386 74.9411 38.3135 73.3689 38.9003 68.1746C39.2439 69.4975 40.7353 70.4317 40.7353 70.4317C39.73 68.0297 39.7772 66.6048 40.7353 64.3981C40.7143 67.6342 41.9809 69.9856 43.2352 70.526C42.7745 70.9204 41.4688 70.1328 41.4688 70.1328C41.302 70.97 42.9202 72.634 45.0265 72.4847" fill="#FCE79D"/>
<path d="M59.9667 106.716C61.5323 107.024 62.8605 110.27 61.2424 111.416C60.783 111.555 60.0263 110.225 60.0263 110.225C60.0263 110.225 60.5873 111.829 60.301 111.997C58.8263 112.862 52.6425 111.117 54.9348 106.299" fill="#761E19"/>
<path d="M59.3278 108.302C57.865 108.692 57.4595 110.989 57.9604 111.607C58.9355 112.103 59.7604 111.722 59.9722 111.49C60.3081 111.123 59.7509 109.733 59.7509 109.733C59.7509 109.733 60.8021 111.109 61.1451 111.067C61.5107 110.878 61.7907 110.159 61.7343 109.657C61.6779 109.154 61.0805 107.835 59.3278 108.302Z" fill="#954026"/>
<path d="M59.382 86.7058C59.4371 88.25 55.0153 91.8932 55.251 93.8445C55.4847 95.796 59.1118 105.487 60.1152 106.647C61.1208 107.805 55.9576 108.578 54.6144 107.034C53.2664 105.488 54.3784 105.101 53.9242 103.082C53.4711 101.063 51.509 95.7712 50.3079 94.7268C49.107 93.6821 48.949 91.4384 50.5535 89.4801C52.1598 87.5206 52.2661 83.205 52.2661 83.205" fill="#EF6119"/>
<path d="M83.4689 109.125C85.057 109.286 86.6748 112.396 85.1674 113.69C84.7219 113.866 83.8459 112.614 83.8459 112.614C83.8459 112.614 84.6471 114.153 84.2803 114.352C82.5584 115.286 76.5744 114.175 78.4188 109.165" fill="#761E19"/>
<path d="M69.0916 84.6467C68.4627 86.5677 71.4607 94.1584 73.2376 95.5314C75.0151 96.8993 73.3976 97.785 74.5532 99.15C75.7089 100.517 77.1309 106.702 76.8981 107.83C76.6666 108.963 79.829 112.776 83.3772 110.069C84.1122 109.511 83.0409 108.648 81.557 105.263C80.0733 101.878 78.9572 99.4708 79.0464 98.1074C79.1357 96.7438 78.6825 95.8859 77.8801 94.7735C77.0779 93.6591 78.606 89.6825 77.2526 84.5497" fill="#EF6119"/>
<path d="M75.5192 81.6296C77.302 82.697 78.0895 90.3326 77.2757 94.6219C76.8439 96.6288 75.9433 95.5089 74.8304 94.0596C73.5017 92.3303 69.4917 84.6401 71.6928 82.5354" fill="#F68A2E"/>
<path d="M46.6362 83.008C52.5697 81.2713 57.0678 91.4988 68.7277 90.0695C78.95 88.8081 80.3848 80.8622 79.2616 74.9308C78.3047 69.8857 77.2162 63.1718 78.9549 58.4659H67.193C69.3422 59.8979 71.0797 71.8671 66.2722 72.8881C61.4664 73.9096 55.6151 64.3179 46.8441 69.8784C43.2419 72.1582 42.9224 75.6118 43.4159 78.8766C44.0165 82.8533 46.6362 83.008 46.6362 83.008Z" fill="#EF6119"/>
<path d="M70.248 67.8546C70.0696 71.937 67.9234 75.1093 63.7879 73.206C59.6528 71.3037 54.5168 67.195 49.3074 69.0731C44.0979 70.9521 50.2486 77.1458 58.1881 80.5229C66.1279 83.902 72.5404 82.2578 73.3463 75.8659C74.1516 69.4737 70.248 67.8546 70.248 67.8546Z" fill="#F68A2E"/>
<path d="M70.9129 58.7628C72.6755 65.5282 74.3719 82.1259 69.1232 84.9419C63.5455 87.9318 56.5953 81.5547 52.2081 81.5547C47.8219 81.5547 50.7316 84.025 53.2235 84.8963C55.7158 85.7715 61.5301 91.7817 70.4532 89.9686C79.3737 88.1599 79.6497 82.238 79.5206 75.8232C79.4124 70.4672 76.9232 64.1537 79.2266 57.5867" fill="#E8C670"/>
<path d="M66.9122 113.387C68.3001 114.177 68.5406 117.674 66.6436 118.252C66.1625 118.242 65.8638 116.736 65.8638 116.736C65.8638 116.736 66.0839 118.468 65.5641 118.505C62.9646 118.692 58.5738 115.255 62.2692 111.403" fill="#761E19"/>
<path d="M61.9084 83.1412C60.7026 84.7669 60.9884 94.0852 62.2387 95.9502C63.488 97.8082 61.6753 98.1367 62.3365 99.7993C62.9987 101.46 62.0713 108.633 61.4083 109.577C60.7446 110.517 62.1169 115.276 66.4485 114.223C67.3492 114 66.7105 112.782 66.7052 109.084C66.7018 105.388 66.4128 101.499 66.9289 100.235C67.4433 98.9718 67.2896 98.0133 66.8807 96.7068C66.4732 95.3966 71.2291 88.2653 69.0661 82.8989" fill="#EF6119"/>
<path d="M42.5722 109.351C44.012 110.041 44.4971 113.512 42.647 114.224C42.1659 114.242 41.7593 112.767 41.7593 112.767C41.7593 112.767 42.0146 114.435 41.5868 114.547C40.2453 114.898 34.3864 111.802 37.797 107.702" fill="#761E19"/>
<path d="M54.2631 80.6714C53.3302 90.3758 48.7695 90.7125 46.0762 93.065C43.3838 95.4175 42.6703 105.148 43.0219 110.01C42.2017 111.059 39.1252 109.941 38.4894 109.055C37.8566 108.176 37.1591 106.874 38.3558 105.14C39.5514 103.407 40.9988 93.762 40.4953 91.5532C39.9874 89.3464 41.7307 88.8513 43.2923 87.0604C44.3322 85.862 41.9972 80.2946 43.3554 75.5201" fill="#EF6119"/>
<path d="M53.4821 82.5034C53.0588 85.2192 51.8155 89.3954 48.1141 91.4535C45.8828 92.6943 44.5017 90.8939 45.6126 90.0311C47.9488 88.216 41.6087 73.6235 48.179 70.186C52.2121 68.0755 54.4916 76.0251 53.4821 82.5034Z" fill="#F68A2E"/>
<path d="M55.4021 69.634C53.278 68.8719 53.3914 69.8981 55.4458 71.1791C57.4999 72.4621 57.525 70.3998 55.4021 69.634Z" fill="#FCE79D"/>
<path d="M61.3893 73.603C59.9894 72.9137 58.0434 74.2835 60.9828 75.4749C63.9242 76.6626 63.9788 74.8863 61.3893 73.603Z" fill="#FCE79D"/>
<path d="M56.0409 73.7583C54.8189 73.1127 53.9795 74.1642 55.5607 75.1228C57.1389 76.0847 58.8817 75.2651 56.0409 73.7583Z" fill="#FCE79D"/>
<path d="M51.4805 69.8241C49.9933 69.141 49.1748 70.278 51.1891 71.3037C53.2059 72.3297 53.3844 70.6983 51.4805 69.8241Z" fill="#FCE79D"/>
<path d="M65.5188 73.7254C64.5397 73.2039 63.6962 74.2712 65.2285 74.9238C66.7591 75.5765 67.2091 74.6224 65.5188 73.7254Z" fill="#FCE79D"/>
<path d="M60.807 76.8694C60.112 76.6404 58.9872 77.1191 60.4982 77.8461C62.0132 78.5732 61.9695 77.2432 60.807 76.8694Z" fill="#FCE79D"/>
<path d="M67.8412 81.8022C69.2284 83.3502 68.065 93.4596 66.0178 97.3158C65.0115 99.1044 63.9555 95.4053 63.6141 93.2516C63.2724 91.0979 61.9038 82.7563 64.6291 81.3968" fill="#F68A2E"/>
<path d="M65.5594 96.6493C63.8926 96.6665 63.4982 99.5447 64.9877 99.7326C66.4776 99.9206 67.7949 96.6258 65.5594 96.6493Z" fill="#F68A2E"/>
<path d="M65.3129 101.844C64.0952 101.437 63.5055 109.986 63.8681 113.296C65.2207 114.371 66.5137 113.133 66.5137 113.133C66.7702 111.065 65.9939 102.071 65.3129 101.844Z" fill="#F68A2E"/>
<path d="M76.5658 94.7089C74.976 95.2095 75.5241 98.265 77.0021 98.003C78.4813 97.7415 78.6816 94.0427 76.5658 94.7089Z" fill="#F68A2E"/>
<path d="M77.8396 98.8756C76.5558 98.8477 78.5231 107.188 79.8494 110.242C81.4598 110.869 82.818 109.459 82.818 109.459C81.9327 107.299 78.5572 98.8922 77.8396 98.8756Z" fill="#F68A2E"/>
<path d="M54.5123 95.3321C53.111 95.4415 54.7041 101.973 56.9481 107.539C58.1183 107.626 59.3455 107.42 59.597 106.834C58.1935 104.181 55.2596 95.2741 54.5123 95.3321Z" fill="#F68A2E"/>
<path d="M43.6552 95.6389C42.3937 95.0194 40.2366 102.933 39.333 108.867C40.1246 109.844 42.3102 110.252 42.683 109.663C42.1076 103.974 44.3283 95.9695 43.6552 95.6389Z" fill="#F68A2E"/>
<path d="M72.7471 67.299C73.4557 70.442 73.2756 77.4357 72.1012 81.1664C71.8898 84.6159 77.3814 86.5767 78.6078 83.6009C79.5832 81.2339 80.515 77.9226 78.3894 69.6164C77.3189 68.3473 72.7471 67.299 72.7471 67.299Z" fill="#FCE79D"/>
<path d="M46.5613 69.0335C47.8963 68.7922 47.4521 66.3979 45.7927 65.4459C45.6638 66.711 45.3946 69.2446 46.5613 69.0335Z" fill="#F68A2E"/>
<path d="M45.4528 69.6163C46.4558 68.5587 45.2942 66.5563 43.6579 65.4459C42.0213 64.3361 41.3881 63.1743 41.3881 63.1743C40.7577 65.1897 41.2668 71.1498 45.1546 69.6163" fill="#F68A2E"/>
<path d="M82.9978 110.817C81.6144 111.432 81.5748 113.765 82.1674 114.296C83.2079 114.633 83.9626 114.125 84.1353 113.863C84.4095 113.448 83.6405 112.163 83.6405 112.163C83.6405 112.163 84.8948 113.358 85.2272 113.261C85.5582 113.017 85.7218 112.263 85.587 111.775C85.4525 111.288 84.6546 110.08 82.9978 110.817Z" fill="#954026"/>
<path d="M65.6793 114.697C64.168 114.787 63.3122 116.956 63.6795 117.662C64.5357 118.343 65.4202 118.134 65.6745 117.95C66.0762 117.657 65.8081 116.183 65.8081 116.183C65.8081 116.183 66.5634 117.741 66.9082 117.768C67.3037 117.657 67.722 117.008 67.7668 116.505C67.8119 116 67.49 114.589 65.6793 114.697Z" fill="#954026"/>
<path d="M41.4446 110.72C39.9367 110.854 39.1439 113.047 39.5319 113.742C40.4072 114.398 41.2856 114.163 41.5339 113.971C41.9273 113.667 41.6165 112.203 41.6165 112.203C41.6165 112.203 42.4165 113.738 42.7622 113.754C43.1543 113.631 43.5533 112.971 43.5839 112.467C43.6144 111.961 43.2517 110.56 41.4446 110.72Z" fill="#954026"/>
<path d="M60.4364 38.7831C58.6253 35.5011 58.3851 31.7732 49.6565 32.4418C40.9321 33.1172 34.663 30.141 36.7195 19.9491C37.1683 17.4415 41.3323 16.966 40.9945 20.1539C40.6538 23.3378 39.6271 28.607 46.9012 29.2041C45.0076 27.4234 43.8103 23.5891 44.9636 21.6866C45.7261 20.4283 47.9952 20.3769 48.0432 22.7793C48.0925 25.181 49.8451 29.0989 53.2273 29.0688C51.9295 27.2141 53.6131 23.1602 55.1063 23.2461C57.6132 23.3826 55.6049 26.4345 56.2216 28.1346C56.9564 30.1574 62.2081 32.3255 63.2871 37.0211" fill="#753419"/>
<path d="M76.7684 33.6837C76.39 29.9543 74.4671 26.7519 82.0249 22.3356C89.5826 17.9276 93.0452 11.9135 85.5569 4.70074C83.7595 2.89466 80.0637 4.87391 82.1568 7.30264C84.2504 9.72607 88.0897 13.4762 82.4492 18.1056C82.9904 15.5646 81.7929 11.7305 79.7621 10.8224C78.4219 10.2196 76.5262 11.469 77.8545 13.4717C79.1798 15.4749 79.9658 19.6946 77.1705 21.5933C77.1821 19.3298 73.4917 16.9533 72.3105 17.8749C70.327 19.4134 73.715 20.7802 74.1755 22.5285C74.7225 24.6102 71.6369 29.3822 73.4213 33.8566" fill="#753419"/>
<path d="M82.5411 35.1376C81.8186 31.2788 85.54 27.8997 90.4358 26.5123C91.6427 26.245 92.5155 25.5026 93.1632 25.5728C93.8088 25.6374 98.5586 38.3555 86.1992 40.9553" fill="#EF6119"/>
<path d="M58.998 41.666C57.2255 38.2041 52.2621 37.8061 47.5811 39.6838C46.4718 40.2052 45.3392 40.153 44.8735 40.5991C44.4053 41.0425 48.3855 53.8943 59.6526 48.4444" fill="#EF6119"/>
<path d="M57.7576 43.8395C57.615 47.5549 59.116 52.1896 59.1139 55.5934C59.1105 62.0277 65.1908 64.5742 71.206 64.0383C74.2895 63.7649 77.2019 63.9112 78.9267 63.3724C80.829 62.7787 83.243 60.736 85.9502 58.9085C90.5696 55.7926 93.0478 50.6482 89.5921 46.0774C86.7685 42.34 87.0318 39.9467 83.6834 35.7454C76.2387 26.4061 58.2379 31.5334 57.7576 43.8395Z" fill="#EF6119"/>
<path d="M68.5513 32.5973C60.4926 35.1277 59.5591 40.6403 60.192 45.9729C60.8245 51.3051 63.5476 53.3123 62.529 56.0075C60.9462 60.1973 68.0372 64.464 78.2339 61.3541C88.429 58.2443 91.9857 50.5064 87.7853 47.6799C84.4552 45.4396 84.8515 40.2731 81.3269 35.9189C78.2413 32.1062 74.2124 30.8203 68.5513 32.5973Z" fill="#F68A2E"/>
<path d="M82.9864 61.5025C86.8123 58.1891 84.749 51.8866 75.89 54.6521C67.0316 57.4181 69.443 63.613 74.4738 64.16C77.7471 64.5194 80.4528 63.7002 82.9864 61.5025Z" fill="#FAD483"/>
<path d="M74.2118 55.646C71.9627 56.7173 70.8877 60.9367 74.8569 61.7538C78.8254 62.5709 82.6797 60.1544 82.7059 57.3075C82.7335 54.4605 78.8082 53.4567 74.2118 55.646Z" fill="#FCE79D"/>
<path d="M71.9215 32.9751C71.3911 27.4296 65.0137 28.2566 62.962 29.2523C64.0386 28.9159 65.6185 30.1944 65.6185 30.1944C62.9501 29.9633 60.0224 31.1846 59.2769 33.3312C62.276 31.5885 64.2969 31.764 64.2969 31.764C61.1665 33.3231 59.7917 36.493 60.7774 38.1375C61.361 36.6006 64.9992 34.6379 66.7823 34.6728" fill="#EF6119"/>
<path d="M73.707 55.1834C72.468 56.594 74.7495 57.5567 76.9336 56.874C79.1182 56.1922 80.6533 54.0583 78.8685 53.5722C77.4453 53.1836 74.7688 53.9805 73.707 55.1834Z" fill="#761E19"/>
<path d="M57.6766 46.4087C55.629 41.7799 51.2606 41.26 46.9185 42.0625C48.6561 45.9975 52.7712 50.7273 57.6766 46.4087Z" fill="#F1475D"/>
<path d="M86.4688 38.11C85.2495 33.1509 88.4185 30.0398 92.3783 28.003C93.42 32.2177 93.0499 38.5319 86.4688 38.11Z" fill="#F1475D"/>
<path d="M70.9439 54.4864C71.7421 52.8578 69.3515 44.5393 65.7849 43.5202C62.2182 42.5011 59.0142 49.4145 60.7003 53.3979C62.3864 57.3814 69.2813 57.882 70.9439 54.4864Z" fill="#FCE79D"/>
<path d="M69.9884 54.3425C70.402 53.1828 68.6054 47.6956 66.2205 47.925C61.9918 48.3297 62.3743 53.182 62.9211 54.076C64.3433 56.4024 69.6688 55.2377 69.9884 54.3425Z" fill="#F8A7B6"/>
<path d="M69.8338 54.2441C70.1995 53.2205 68.6718 48.2733 66.6578 48.4514C63.0349 48.7714 63.0505 53.1214 63.5329 53.9111C64.7892 55.9652 69.5526 55.0342 69.8338 54.2441Z" fill="white"/>
<path d="M69.8355 54.3338C70.2599 53.3715 68.7025 48.2228 66.8633 48.5168C64.5624 48.8845 63.7745 52.5409 65.6232 55.2822C66.4325 55.7481 69.212 55.1526 69.8355 54.3338Z" fill="#4C97BE"/>
<path d="M68.058 49.1542C67.041 48.6916 65.0794 50.0015 65.4207 52.4976C65.7353 54.7985 66.6755 55.2106 66.9139 55.287C67.1529 55.364 69.6019 55.0099 69.8297 54.2233C70.1368 53.2872 69.3966 50.2749 68.058 49.1542Z" fill="#1F4C6D"/>
<path d="M64.2308 53.6931C64.4541 52.9923 66.5453 53.2242 66.308 53.8793C66.0695 54.5341 64.0072 54.3934 64.2308 53.6931Z" fill="white"/>
<path d="M68.929 52.3956C69.3365 52.1966 69.8313 52.9577 69.2766 53.1551C68.7225 53.3513 68.6173 52.549 68.929 52.3956Z" fill="white"/>
<path d="M62.7706 50.6856C62.4132 52.8633 62.5732 55.3985 67.0973 55.2796C63.2625 55.9047 61.8108 53.5044 62.1282 50.64" fill="#83371B"/>
<path d="M69.2621 50.8651C67.5065 47.8042 64.8898 47.1597 62.7542 50.6906C61.3236 51.1883 60.4595 49.3799 60.4595 49.3799C61.2865 50.4188 62.0424 49.7809 62.0424 49.7809C63.5648 47.0762 67.3453 46.3573 69.2621 50.8651Z" fill="#512214"/>
<path d="M71.4818 33.5996C72.1908 30.5583 68.7907 28.5231 66.1229 29.1898C68.2609 29.131 69.3541 32.3612 69.3541 32.3612C66.9096 30.824 64.0063 32.1397 62.0562 35.1984C64.8307 33.0221 66.8718 33.7122 67.8037 34.7481" fill="#F68A2E"/>
<path d="M90.7073 26.9892C86.1923 27.4028 81.665 31.9509 85.0261 35.1408C86.2893 30.1937 90.7073 26.9892 90.7073 26.9892Z" fill="#F68A2E"/>
<path d="M56.6667 43.1752C57.3657 38.3386 52.7604 37.5802 47.7646 40.7085C51.9648 40.5227 56.6667 43.1752 56.6667 43.1752Z" fill="#F68A2E"/>
<path d="M77.1598 53.9748C76.3605 54.0311 76.4082 54.8457 77.2194 54.7862C78.0297 54.7266 78.8933 53.8527 77.1598 53.9748Z" fill="#EA5939"/>
<path d="M83.6909 4.51536C82.0475 5.29784 83.838 7.29043 85.8752 9.03194C87.9117 10.7739 87.6881 12.8902 87.7192 13.8756C87.7506 14.8613 89.0012 15.3001 89.361 12.4786C89.7208 9.65699 85.812 3.50605 83.6909 4.51536Z" fill="#AD511E"/>
<path d="M39.5978 18.6138C37.3555 17.9743 37.1768 22.7381 37.689 25.2627C38.2007 27.7874 41.0525 29.6203 41.7247 28.6222C42.3952 27.6253 39.466 27.0608 39.6686 24.3432C39.8713 21.6249 41.7251 19.222 39.5978 18.6138Z" fill="#AD511E"/>
<path d="M78.8707 11.2186C77.7753 11.7206 80.1329 15.9676 81.1565 15.7035C82.1788 15.4391 81.5324 10.0009 78.8707 11.2186Z" fill="#AD511E"/>
<path d="M45.8475 21.9507C44.564 21.9552 44.0961 25.9471 46.1655 26.0196C48.2334 26.0923 47.5728 21.9441 45.8475 21.9507Z" fill="#AD511E"/>
<path d="M47.8965 42.7076C48.079 43.6457 51.184 49.2488 55.022 46.9491C54.9398 44.4911 51.8295 41.4801 47.8965 42.7076Z" fill="#F4697F"/>
<path d="M92.2983 28.845C92.682 29.7199 93.3175 36.0944 88.8526 36.3873C87.5214 34.3187 88.366 30.0722 92.2983 28.845Z" fill="#F4697F"/>
<path d="M79.6141 51.7804C78.0316 50.8946 75.2636 42.6936 77.6167 39.8265C79.9699 36.9597 86.5377 40.8209 87.4179 45.0563C88.2987 49.2916 82.9127 53.626 79.6141 51.7804Z" fill="#FCE79D"/>
<path d="M80.3173 51.1179C79.3176 50.3995 77.6727 44.8647 79.7645 43.6963C83.472 41.6236 85.9184 45.8319 85.9768 46.8772C86.1314 49.6 81.0897 51.6726 80.3173 51.1179Z" fill="#F8A7B6"/>
<path d="M80.3878 50.9481C79.5057 50.3155 77.9467 45.3782 79.7043 44.378C82.8655 42.5802 85.3285 46.1657 85.3804 47.0901C85.5164 49.4935 81.0697 51.4387 80.3878 50.9481Z" fill="white"/>
<path d="M80.4377 51.0238C79.542 50.4747 77.893 45.3532 79.5728 44.5488C81.6738 43.5424 84.402 46.1003 84.442 49.4068C84.041 50.2506 81.4165 51.3425 80.4377 51.0238Z" fill="#4C97BE"/>
<path d="M78.9528 45.7528C79.5256 44.7935 81.884 44.7548 83.0244 47.0018C84.0748 49.0733 83.5347 49.9467 83.3831 50.1457C83.2305 50.3447 81.0159 51.4461 80.3802 50.9296C79.5942 50.3345 78.4901 47.436 78.9528 45.7528Z" fill="#1F4C6D"/>
<path d="M84.6823 47.3073C84.1 46.8584 82.5122 48.2392 83.0803 48.6423C83.6494 49.0456 85.2651 47.756 84.6823 47.3073Z" fill="white"/>
<path d="M80.0808 48.9149C79.6325 48.9818 79.6593 49.8895 80.226 49.7365C80.7942 49.5823 80.4241 48.8622 80.0808 48.9149Z" fill="white"/>
<path d="M84.1731 44.0035C85.7059 45.5909 87.0164 47.7671 83.229 50.2436C86.738 48.5748 86.5662 45.7755 84.6753 43.6009" fill="#83371B"/>
<path d="M78.9359 47.8449C78.6378 44.3288 80.4225 42.3095 84.1879 43.999C85.6478 43.5943 85.3294 41.6151 85.3294 41.6151C85.2411 42.9403 84.2565 42.8459 84.2565 42.8459C81.4654 41.4878 77.9473 43.0478 78.9359 47.8449Z" fill="#512214"/>
<path d="M66.7395 43.7432C64.6694 42.9791 61.7314 45.0846 61.2593 46.5013C62.4742 42.688 65.2759 40.8796 66.7395 43.7432Z" fill="#512214"/>
<path d="M77.2212 40.2875C78.6564 38.6117 82.3341 38.9979 83.4436 39.9968C80.5045 37.2802 77.59 37.7267 77.2212 40.2875Z" fill="#512214"/>
<path d="M76.1954 59.4366C75.7295 58.7694 75.1359 59.5755 75.8015 59.8338C76.4195 60.0735 77.6043 60.233 78.1928 59.4891C78.7812 58.7452 79.1333 58.5421 79.7254 58.6123C80.318 58.6824 81.0933 58.3656 81.4605 57.0234C81.6485 56.754 81.9317 56.0536 81.3264 56.1474C81.0037 56.1972 80.9699 56.5442 81.1426 56.8626C81.2589 57.3943 80.5796 58.4051 79.7995 58.35C79.0189 58.2949 78.4161 58.6787 78.1393 59.0936C77.8625 59.508 76.5502 59.9456 76.1954 59.4366Z" fill="#823F1B"/>
</svg>
