<svg width="128" height="128" viewBox="0 0 128 128" fill="none" xmlns="http://www.w3.org/2000/svg">
<path d="M29.2834 11.3925C28.7955 11.3976 26.9917 16.4895 24.9991 19.9557C22.4808 24.337 19.7831 25.8911 19.7831 31.7754C16.9563 27.3737 12.713 30.0526 8.94183 32.0617C6.3165 33.4625 4.22631 31.8572 4.09725 32.6343C3.78876 34.5003 11.564 46.6063 21.3319 43.7587C23.23 43.043 25.3958 39.1678 25.3958 39.1678C32.6422 28.2581 30.7849 11.3772 29.2834 11.3925Z" fill="#457C8F"/>
<path d="M29.2835 11.3925C28.7956 11.3976 26.9919 16.4895 24.9993 19.9557C22.481 24.337 19.7833 25.8911 19.7833 31.7754C16.9565 27.3737 12.7131 30.0526 8.94197 32.0617C6.31665 33.4625 5.76577 32.3122 5.6367 33.0893C5.32821 34.9553 14.2398 42.0563 20.4978 39.2036C22.3991 38.4828 23.6363 35.9266 23.6363 35.9266C29.8816 28.4677 30.7851 11.3772 29.2835 11.3925Z" fill="#9BC5D8"/>
<path d="M29.2835 11.3925C28.7956 11.3976 27.4263 17.5427 25.4337 21.0088C22.9154 25.3901 20.4852 28.2786 20.4852 34.168C17.6553 29.7663 13.0909 30.5791 9.31973 32.5883C6.69125 33.9839 5.76577 32.3122 5.63671 33.0893C5.32822 34.9553 14.2304 44.0603 20.4884 41.2026C22.3866 40.4868 24.5208 37.3734 24.5208 37.3734C30.7662 29.9094 30.7851 11.3772 29.2835 11.3925Z" fill="#679AB2"/>
<path d="M25.3297 39.0707C25.3077 39.1065 23.1608 42.9203 21.313 43.6156C20.3372 43.9019 19.3393 44.045 18.3446 44.045C11.5074 44.045 6.14028 37.3632 4.61356 34.1271C4.15083 33.1455 4.16657 32.7672 4.1823 32.6701C4.1949 32.5934 4.28304 32.5525 4.44043 32.5525C4.59782 32.5525 4.81818 32.5934 5.07001 32.6394C5.47293 32.711 5.97659 32.803 6.55895 32.803C7.41517 32.803 8.20529 32.6036 8.97022 32.1946C9.20316 32.0719 9.43926 31.9441 9.67535 31.8214C11.7529 30.6967 13.8998 29.5362 15.8641 29.5362C17.4474 29.5362 18.7097 30.3031 19.7234 31.8777L19.8713 32.1077V31.7754C19.8713 27.5731 21.2501 25.6355 22.9972 23.1867C23.6708 22.2409 24.3665 21.2645 25.0622 20.0528C26.0411 18.3504 26.9761 16.2544 27.7284 14.5673C28.3926 13.0796 29.0788 11.5357 29.2866 11.5357C29.5164 11.5357 29.784 12.0878 30.0075 13.0131C31.1816 17.875 31.0179 30.5076 25.3297 39.0707ZM29.2835 11.2494C29.0033 11.2494 28.5343 12.2719 27.5868 14.3986C26.8376 16.0805 25.9058 18.1664 24.9331 19.8586C24.2437 21.0548 23.5512 22.0313 22.8807 22.9669C21.2155 25.3083 19.7706 27.3379 19.6982 31.4482C18.6783 29.9708 17.4223 29.2499 15.8641 29.2499C13.8715 29.2499 11.7089 30.4155 9.61868 31.5454C9.38259 31.6732 9.1465 31.801 8.91671 31.9237C8.16751 32.3224 7.39628 32.5167 6.55895 32.5167C5.98604 32.5167 5.48867 32.4247 5.08889 32.3531C4.83077 32.3071 4.60727 32.2662 4.44043 32.2662C4.2673 32.2662 4.05954 32.302 4.01232 32.5985C3.93677 33.0382 4.22323 33.7692 4.47506 34.3009C6.01752 37.5728 11.4413 44.3313 18.3446 44.3313C19.3488 44.3313 20.3592 44.1882 21.3508 43.8968C23.2553 43.181 25.3706 39.4235 25.4556 39.2701C31.2005 30.6251 31.3642 17.8341 30.1743 12.9109C29.9099 11.822 29.6045 11.2494 29.2835 11.2494Z" fill="#2A555C"/>
<path d="M103.86 90.8127C103.088 90.189 95.8891 97.0088 96.4935 97.9904C97.0979 98.9669 99.5438 98.3483 99.7799 97.7501C100.029 99.2071 103.091 100.046 104.477 100.143C105.386 100.204 106.283 98.5988 107.152 98.5579C108.141 98.5068 112.403 97.3411 112.491 95.6899C112.579 94.0437 107.454 94.9026 103.86 90.8127Z" fill="#457C8F"/>
<path d="M104.848 91.784C103.957 94.0692 101.496 95.4547 102.204 97.653C102.462 98.4607 103.869 99.11 104.722 98.6345C105.094 98.4249 106.104 97.4894 106.872 97.4638C108.626 97.3973 113.014 96.288 112.123 95.0354C111.024 94.2839 107.678 94.2175 104.848 91.784Z" fill="#679AB2"/>
<path d="M107.149 98.4096C106.715 98.4351 106.271 98.8288 105.846 99.2071C105.396 99.611 104.924 100.025 104.48 99.9995C102.988 99.8922 100.088 99.0179 99.8649 97.7092L99.8114 97.4024L99.7043 97.6734C99.5973 97.9392 98.7128 98.3585 97.7526 98.3585C97.1671 98.3585 96.7453 98.1897 96.5565 97.8881L96.5628 97.745C96.9374 96.2777 102.559 90.9149 103.724 90.9149L103.809 90.9302C105.896 93.3075 108.544 94.0385 110.294 94.5191C111.49 94.8514 112.434 95.1121 112.403 95.6796C112.327 97.1059 108.348 98.3533 107.149 98.4096ZM110.322 94.2379C108.484 93.7267 105.965 93.0314 103.897 90.6848L103.724 90.6286C102.481 90.6286 96.7988 96.063 96.3991 97.6376C96.3393 97.8677 96.3833 98.0108 96.4305 98.0875C96.7139 98.5476 97.3057 98.6447 97.7526 98.6447C98.4893 98.6447 99.4084 98.3738 99.7453 97.9955C100.262 99.5036 103.394 100.209 104.473 100.286H104.527C105.009 100.286 105.478 99.8666 105.931 99.4627C106.359 99.0793 106.762 98.7163 107.155 98.701C108.046 98.655 112.482 97.5251 112.579 95.7051C112.623 94.8718 111.758 94.6316 110.322 94.2379Z" fill="#2A555C"/>
<mask id="mask0_25_100" style="mask-type:alpha" maskUnits="userSpaceOnUse" x="22" y="24" width="102" height="83">
<path d="M22.5342 24.9453H124V106.088H22.5342V24.9453Z" fill="black"/>
</mask>
<g mask="url(#mask0_25_100)">
<path d="M67.3315 74.9746C61.4072 78.7066 37.1056 67.2243 22.7607 49.9395C27.8257 69.9543 45.7654 99.0895 62.9119 103.108C64.149 103.108 69.0975 105.26 74.3985 104.831C106.217 106.983 129.458 65.0874 122.744 27.9769C116.29 12.1236 73.2495 71.2426 67.3315 74.9746Z" fill="#C8D8DD"/>
</g>
<path d="M113.451 39.1627C111.289 45.6298 109.58 54.9803 107.464 61.5036C103.794 72.8223 93.5916 72.7252 91.7847 65.8133C91.8886 59.7757 92.1026 52.8127 92.3418 46.8568C80.9151 59.4638 70.0895 73.2365 67.332 74.9746C61.4077 78.7067 37.1061 67.2243 22.7612 49.9395C27.8262 69.9543 50.4153 100.286 64.5115 98.8032C65.7486 98.8032 69.1515 99.2276 74.4525 98.793C106.07 100.935 126.512 61.8871 122.81 28.6007C119.861 26.1672 116.178 31.0086 113.451 39.1627Z" fill="white"/>
<path d="M121.872 26.6528C124.415 41.5911 121.601 59.2491 114.348 73.8959C104.936 92.8934 90.2011 103.44 74.9182 102.106C73.3978 102.428 67.1115 100.961 64.0926 100.255C62.9311 99.9842 62.3676 99.8564 62.27 99.8564C52.0929 98.4812 42.8697 87.7913 36.9265 79.0645C30.6402 69.8419 26.0254 59.8932 23.803 53.1654C29.7367 69.1926 37.4175 79.5246 42.9704 85.4754C50.519 93.5682 57.394 97.2184 61.3036 97.9392C61.801 98.0977 73.3883 99.6519 75.6359 99.2327C96.9627 100.347 108.383 82.7249 113.291 72.122C116.665 64.842 119.073 56.5242 120.263 48.0684C121.378 40.1647 121.334 32.5269 120.147 26.571L119.977 26.658C122.527 39.4286 119.782 57.6285 113.152 71.9481C108.408 82.1881 97.5734 98.9975 77.5404 98.9975C76.9139 98.9975 76.2749 98.9822 75.6265 98.9464C73.2876 99.386 61.4138 97.6836 61.332 97.653C53.585 96.2317 33.9832 82.6789 22.8397 49.8731L22.6792 49.9958C24.2752 56.4578 29.3779 68.3746 36.8069 79.2792C42.7721 88.0366 52.03 98.7623 62.2637 100.143C62.3582 100.143 63.1137 100.316 64.0675 100.541C67.3287 101.298 73.3978 102.714 74.9245 102.392C75.7964 102.464 76.6621 102.505 77.5278 102.505C91.9104 102.505 105.575 92.0652 114.487 74.0749C118.019 66.9432 120.588 58.9117 121.916 50.8546C123.285 42.5369 123.329 34.1373 122.045 26.5762L121.872 26.6528Z" fill="#85A8B1"/>
<path d="M118.239 26.658C120.71 39.0605 118.101 56.5805 111.745 70.2611C107.011 80.4448 96.094 97.3615 76.1648 96.2164C73.4922 96.4413 70.3916 95.9403 67.6529 95.4955C65.1724 95.0968 63.0319 94.7491 61.9112 95.0712C56.9407 94.877 49.6376 90.3679 42.8508 83.2975C37.852 78.088 31.0967 69.438 25.4935 56.5651C31.0432 68.5126 37.9401 78.0318 46.0522 84.9079C53.519 91.237 59.9092 93.4608 62.5125 93.7778C62.6919 93.7778 63.1955 93.8034 63.9605 93.8391C66.8188 93.9772 72.7682 94.2686 77.4963 94.0641C85.0418 93.742 91.8601 90.8893 97.7624 85.5981C102.843 81.0328 107.143 74.7804 110.533 67.0147C116.826 52.6082 118.412 36.4481 116.728 27.9309L116.561 28.0229C118.23 36.4685 116.646 52.5161 110.388 66.846C103.067 83.6196 91.3816 93.1797 77.49 93.7778C72.7714 93.9823 66.825 93.6909 63.9668 93.5529C63.2018 93.5171 62.7013 93.4813 62.5188 93.4915C59.9343 93.1797 53.5725 90.9609 46.1341 84.6574C36.6212 76.585 28.7798 64.8778 22.8335 49.8628L22.6855 50.0162C28.6948 66.7029 36.9171 77.4541 42.7564 83.5378C49.5652 90.6337 56.9061 95.1632 61.9238 95.3524C63.0382 95.0405 65.1693 95.3831 67.6372 95.7818C69.91 96.1499 72.4377 96.5589 74.7608 96.5589C75.2393 96.5589 75.7083 96.5436 76.1648 96.5027C84.0219 96.9526 91.2526 94.6009 97.6522 89.509C103.227 85.0715 108.147 78.4766 111.887 70.4349C115.113 63.4923 117.421 55.6091 118.56 47.6339C119.665 39.904 119.615 32.6189 118.409 26.571L118.239 26.658Z" fill="#85A8B1"/>
<path d="M114.965 30.3951C116.181 41.9387 113.417 56.197 107.751 67.6129C100.624 81.9734 90.0532 90.3679 77.9937 91.2421C76.7849 91.283 73.9802 91.3852 71.1345 91.4875C67.3445 91.6255 63.4222 91.7687 63.2207 91.7687C59.2922 91.7687 46.0082 86.3649 36.4544 72.9808L36.3379 73.2007C45.9263 86.6308 59.2733 92.0549 63.2207 92.0549C63.4254 92.0549 67.3476 91.9118 71.1408 91.7738C73.9833 91.6715 76.7881 91.5693 78 91.5284C90.113 90.6491 100.728 82.2188 107.889 67.7918C113.587 56.3146 116.363 41.9694 115.142 30.3491L114.965 30.3951Z" fill="#85A8B1"/>
<path d="M113.288 34.0759C113.728 46.4529 110.7 58.9014 104.76 69.1261C97.7623 81.1759 87.6859 88.6603 78.4658 88.6603V88.9466C87.7332 88.9466 97.8567 81.4264 104.889 69.3255C110.864 59.0395 113.908 46.5143 113.464 34.0606L113.288 34.0759Z" fill="#85A8B1"/>
<path d="M79.3472 86.3649L79.3535 86.6512C89.9524 85.9508 102.346 73.2313 105.059 63.3134L104.898 63.1958C102.204 73.0422 89.8831 85.6696 79.3472 86.3649Z" fill="#85A8B1"/>
<path d="M79.791 83.5173V83.8036C82.9893 83.8036 87.6198 81.6769 92.181 78.1085C96.5503 74.6934 99.8776 70.7416 100.86 67.7969L100.702 67.6589C98.694 73.6863 86.688 83.5173 79.791 83.5173Z" fill="#85A8B1"/>
<path d="M81.5225 81.3395L81.5351 81.6258C85.7721 81.1554 94.4697 74.9439 97.564 69.2335L97.4287 69.0443C94.3626 74.7139 85.728 80.8743 81.5225 81.3395Z" fill="#85A8B1"/>
<path d="M82.5894 78.4204L82.5925 78.7066C86.2755 78.6146 93.012 73.2722 95.2375 68.6762L95.099 68.4973C92.8986 73.0422 86.2346 78.3283 82.5894 78.4204Z" fill="#85A8B1"/>
<path d="M84.085 75.3376L84.1133 75.6188C87.5161 74.7497 92.6692 70.4298 93.4593 67.7918L93.2988 67.664C92.5276 70.2457 87.4469 74.4736 84.085 75.3376Z" fill="#85A8B1"/>
<mask id="mask1_25_100" style="mask-type:alpha" maskUnits="userSpaceOnUse" x="22" y="24" width="102" height="83">
<path d="M22.5342 24.9453H124V106.088H22.5342V24.9453Z" fill="black"/>
</mask>
<g mask="url(#mask1_25_100)">
<path d="M116.624 74.0902C107.773 93.2972 92.8674 104.764 76.7502 104.764C75.9727 104.764 75.1826 104.739 74.3956 104.688C73.9329 104.723 73.4513 104.744 72.9665 104.744C69.7871 104.744 66.8659 103.941 64.93 103.415C63.9793 103.154 63.2931 102.965 62.9279 102.965H62.9248C45.517 98.885 28.04 69.76 22.9656 50.3638C35.0377 64.7295 54.9795 75.8233 64.2217 75.8233C65.5532 75.8233 66.6109 75.583 67.3633 75.1076C68.9718 74.0953 73.3348 68.983 78.8562 62.5108C91.454 47.7412 110.492 25.4259 119.061 25.4259C120.739 25.4259 121.951 26.3052 122.662 28.0383C125.379 43.0839 123.178 59.8677 116.624 74.0902ZM122.816 27.9002C122.07 26.0649 120.808 25.1396 119.061 25.1396C110.432 25.1396 91.369 47.4856 78.7523 62.2756C73.2404 68.7376 68.8868 73.8397 67.2972 74.8417C66.5669 75.3018 65.5312 75.537 64.2217 75.537C54.9418 75.537 34.83 64.3052 22.8145 49.8271L22.5596 49.5203L22.6792 49.9958C25.2919 60.3227 31.1123 72.5207 38.2486 82.6278C46.3418 94.0999 55.096 101.421 62.9122 103.251C63.271 103.251 63.9573 103.44 64.9016 103.696C66.8407 104.227 69.7714 105.03 72.9665 105.03C73.4544 105.03 73.9392 105.01 74.3956 104.974C75.1794 105.025 75.9696 105.05 76.7502 105.05C84.9599 105.05 93.0531 102.039 100.158 96.3391C106.838 90.9814 112.579 83.3486 116.766 74.264C119.996 67.255 122.177 59.7194 123.254 51.8669C124.371 43.7229 124.226 35.671 122.826 27.936L122.816 27.9002Z" fill="#85A8B1"/>
</g>
<path d="M111.046 23.4014C108.773 24.066 107.335 24.7868 103.476 24.884C99.6162 24.9811 94.1169 25.1447 87.1255 30.8399C79.41 37.1331 66.1795 53.876 60.1262 59.6888C54.0728 65.5015 50.3615 65.9309 45.7656 64.1416C45.1045 63.4923 39.4824 59.7961 36.3534 56.4629C30.4323 50.144 26.2015 35.5023 23.3873 36.0289L20.3433 37.7875C19.2793 50.3894 39.2872 87.9446 62.6759 89.2329C63.1481 88.8035 78.069 81.544 81.1823 81.4724C84.2767 81.7945 85.8223 76.0176 85.9104 73.7579C89.3668 72.4389 90.0719 65.5986 92.0771 65.7878C108.78 79.7138 105.597 32.9206 120.062 23.928C117.66 21.0804 114.125 22.4965 111.046 23.4014Z" fill="#457C8F"/>
<path d="M111.046 23.4014C108.773 24.066 107.335 24.7868 103.476 24.884C99.6162 24.9811 94.1169 25.1447 87.1255 30.8399C79.41 37.1331 66.1795 53.876 60.1262 59.6888C54.0728 65.5015 50.3614 65.9309 45.7655 64.1416C45.1045 63.4923 39.4824 59.7961 36.3534 56.4629C30.4323 50.144 26.2015 35.5023 23.3873 36.0289L20.3433 37.7875C19.8365 49.9549 47.4087 81.6718 67.5583 80.4755C68.0305 80.0461 76.9358 73.6761 80.0491 73.6045C81.73 73.7835 83.5558 71.304 83.6439 69.0443C87.0971 67.7305 87.519 53.1347 94.3656 57.2246C100.211 60.7163 104.631 57.3013 107.98 44.5358C110.483 34.9962 113.873 27.7776 120.062 23.928C117.66 21.0804 114.125 22.4965 111.046 23.4014Z" fill="#9BC5D8"/>
<path d="M111.305 25.1396C109.032 25.8093 107.165 26.4126 103.309 26.5097C99.4497 26.6068 94.6713 26.5046 87.6798 32.2048C79.9612 38.493 67.2438 54.4742 61.1905 60.2869C55.134 66.0996 50.3618 65.9309 45.7659 64.1416C45.1048 63.4923 39.3663 61.0077 36.2373 57.6745C30.3161 51.3557 25.4338 36.1362 23.3876 36.0289L21.1841 35.3643L20.3436 37.7875C19.8368 49.9549 42.9328 87.8475 63.0823 86.6512C63.5545 86.2167 79.5772 78.4204 82.6936 78.3488C84.3714 78.5277 85.0356 74.3663 85.1238 72.1066C88.577 70.7876 88.7721 59.6888 95.6188 63.7786C101.464 67.2704 104.631 57.3013 107.98 44.5358C110.483 34.9962 113.492 28.7336 119.681 24.884C117.575 22.5272 114.383 24.2347 111.305 25.1396Z" fill="#679AB2"/>
<path d="M111.846 23.0129C111.572 23.0998 111.298 23.1816 111.03 23.2583C110.609 23.3861 110.212 23.5088 109.825 23.6315C108.172 24.1631 106.608 24.6641 103.476 24.7408C99.7516 24.8329 94.1295 24.9709 87.0877 30.712C82.4288 34.5105 75.7711 42.1023 69.8971 48.8046C66.085 53.1552 62.4839 57.2604 60.082 59.5661C53.887 65.5168 50.1537 65.7009 45.8001 64.0036C45.5955 63.8144 45.0195 63.3901 44.2294 62.8124C42.1423 61.2889 38.645 58.7328 36.4037 56.3402C33.5108 53.2574 31.0555 48.2167 28.8929 43.7689C27.4103 40.7322 26.1354 38.1096 25.0147 36.7395L24.9864 36.7088C24.0672 35.4972 23.3873 36.0289 23.3873 36.0289C24.7723 35.7733 26.617 39.5615 28.7544 43.9479C30.9264 48.4109 33.3881 53.4722 36.3062 56.5805C38.56 58.9833 42.0636 61.5445 44.157 63.0731C44.9597 63.661 45.5389 64.0854 45.7214 64.2643L45.7466 64.2796C50.1474 65.9974 53.9185 65.8184 60.1733 59.8115C62.5815 57.5007 66.1826 53.3904 69.9979 49.0398C75.8686 42.3426 82.5201 34.7559 87.1664 30.9677C94.1704 25.2572 99.7705 25.1191 103.479 25.0271C106.627 24.9504 108.197 24.4494 109.859 23.9177C110.247 23.7899 110.64 23.6672 111.062 23.5445C111.333 23.4628 111.603 23.381 111.877 23.2992C114.619 22.4658 117.72 21.5201 119.876 23.8922C113.662 27.9054 110.678 39.0656 108.043 48.9222C105.777 57.3882 103.636 65.389 99.8334 67.6027C97.696 68.845 95.1714 68.2059 92.1148 65.66L92.0802 65.6446C91.1106 65.5526 90.4402 67.0096 89.6626 68.6967C88.7529 70.6752 87.7204 72.9195 85.8915 73.6148L85.8254 73.6403L85.8222 73.7477C85.7782 74.8673 85.3784 76.8304 84.604 78.497C83.9587 79.8825 82.8443 81.5031 81.1823 81.3293C78.1792 81.3957 63.5164 88.4456 62.657 89.0898C47.4339 88.236 33.6273 71.7436 26.4313 57.8739C22.3013 49.9191 19.9687 42.2199 20.3433 37.7875C20.3433 37.7875 20.0002 38.9327 20.2835 41.0032L20.2929 41.085C20.8816 45.6196 23.0316 51.7698 26.2959 58.0579C30.4417 66.0485 35.9001 73.4409 41.6607 78.8754C48.5482 85.368 55.8135 88.9978 62.6727 89.3761H62.6979L62.72 89.3556C63.2645 88.8597 78.1603 81.682 81.1791 81.6156C82.9104 81.7945 84.072 80.1125 84.7456 78.6709C85.5169 77.0042 85.9292 75.0462 85.9954 73.8704C87.8463 73.124 88.9323 70.7672 89.8043 68.8705C90.544 67.2601 91.1893 65.8747 92.0519 65.9309C95.1462 68.5024 97.7086 69.1364 99.8901 67.8736C103.768 65.6191 105.925 57.562 108.204 49.0347C110.848 39.1525 113.845 27.9463 120.093 24.0609L120.244 23.9689L120.115 23.8104C117.89 21.1775 114.679 22.154 111.846 23.0129Z" fill="#2A555C"/>
<path d="M43.4394 60.8748C43.2537 60.0517 41.9442 55.0417 40.4206 50.6093C39.0135 46.5296 37.0146 45.1544 36.618 45.7321C36.1364 46.4376 37.2129 49.3567 36.618 52.7309C36.0262 56.0999 35.7177 59.1724 37.5057 61.0026L45.6933 64.2234C45.0417 62.7153 43.8077 62.5261 43.4394 60.8748Z" fill="#457C8F"/>
<path d="M43.4393 60.8748C43.2536 60.0517 42.0291 54.9649 40.4205 50.6092C39.0795 46.9897 37.8329 45.9519 37.4363 46.5347C36.9547 47.2402 37.984 49.3823 37.3922 52.7513C36.8004 56.1254 36.0512 58.9014 37.5056 61.0026L41.091 63.385L45.6932 64.2234C45.0416 62.7152 43.8076 62.5261 43.4393 60.8748Z" fill="#679AB2"/>
<path d="M37.9746 46.7699C40.2505 51.6522 41.069 55.742 43.0332 60.5885C42.4163 57.7154 39.8539 48.2422 37.9746 46.7699Z" fill="#9BC5D8"/>
<path d="M44.6671 62.5517C44.176 62.1018 43.7133 61.6775 43.5213 60.8288C43.3292 59.9597 42.0292 54.9957 40.4961 50.5428C39.3472 47.1994 37.8142 45.6912 37.065 45.4867C36.8383 45.4254 36.662 45.4765 36.5613 45.6248C36.3158 45.9826 36.4008 46.729 36.5172 47.7668C36.6652 49.05 36.8635 50.8035 36.533 52.69C36.0765 55.2973 35.7271 57.9557 36.5298 59.8933L36.5896 60.0313C37.1563 61.0793 37.5057 61.0027 37.5057 61.0027C35.746 59.2031 36.1237 56.0795 36.7061 52.7667C37.0461 50.8189 36.8415 49.0245 36.6935 47.7157C36.5896 46.8057 36.5078 46.09 36.6778 45.8395C36.7376 45.7526 36.8698 45.727 37.0335 45.773C37.7512 45.9622 39.2213 47.4294 40.3419 50.6809C41.8718 55.1235 43.1907 60.1745 43.3576 60.926C43.5685 61.8769 44.0816 62.3472 44.5789 62.8022C44.9882 63.1754 45.41 63.5639 45.6933 64.2234L45.8381 64.0547C45.5296 63.3441 45.092 62.9402 44.6671 62.5517Z" fill="#2A555C"/>
<path d="M91.945 28.9176C90.1255 29.9708 88.7971 31.4738 88.9702 32.2764C89.1465 33.0791 90.7645 32.8746 92.5809 31.8266C94.3972 30.7734 95.7287 29.2704 95.5525 28.4677C95.3762 27.6651 93.7613 27.8696 91.945 28.9176Z" fill="#457C8F"/>
<path d="M92.1027 29.6385C90.7365 30.4309 89.7355 31.5607 89.8677 32.164C89.9999 32.7672 91.215 32.6138 92.5812 31.8265C93.9473 31.0341 94.9484 29.9043 94.8161 29.301C94.6839 28.6978 93.4689 28.846 92.1027 29.6385Z" fill="#2C606B"/>
<path d="M94.7657 29.935C94.2085 30.5638 93.4247 31.1875 92.5528 31.6885C91.5265 32.2815 90.5381 32.6241 89.8393 32.6241C89.3954 32.6241 89.109 32.4758 89.0555 32.2253C88.9862 31.9134 89.2506 31.3818 89.7606 30.8092C90.3146 30.1804 91.1016 29.5567 91.9735 29.0556C92.9997 28.4626 93.9882 28.1201 94.687 28.1201C95.1309 28.1201 95.4142 28.2632 95.4708 28.5189C95.5401 28.8307 95.2757 29.3573 94.7657 29.935ZM94.687 27.8338C93.9693 27.8338 92.9588 28.1814 91.9137 28.7847C91.0292 29.2959 90.2265 29.9299 89.6599 30.5689C89.238 31.0495 88.7596 31.7396 88.8886 32.3224C88.9736 32.711 89.2947 32.9104 89.8393 32.9104C90.557 32.9104 91.5675 32.5627 92.6126 31.9595C93.4971 31.4482 94.2967 30.8143 94.8664 30.1701C95.2883 29.6947 95.7636 29.0045 95.6377 28.4217C95.5495 28.0332 95.2316 27.8338 94.687 27.8338Z" fill="#2A555C"/>
<path d="M92.3415 5.79456C91.2429 5.79456 90.3521 7.24135 90.3521 9.02555C90.3521 10.8098 91.2429 12.2514 92.3415 12.2514C93.4401 12.2514 94.331 10.8098 94.331 9.02555C94.331 7.24135 93.4401 5.79456 92.3415 5.79456Z" fill="#1CB6E4"/>
<path d="M92.3415 5.79456C92.2439 5.79456 92.1526 5.80989 92.0582 5.83034C91.0005 6.44893 90.8651 8.57055 91.2775 9.84864C91.8913 11.7607 93.6195 12.0572 94.1074 10.4979C94.2491 10.0582 94.3309 9.55723 94.3309 9.02555C94.3309 7.24135 93.4401 5.79456 92.3415 5.79456Z" fill="#47C4F3"/>
<path d="M92.8863 6.53583C92.3511 6.53583 91.9136 7.16976 91.9136 7.94683C91.9136 8.72902 92.3511 9.35784 92.8863 9.35784C93.4246 9.35784 93.859 8.72902 93.859 7.94683C93.859 7.16976 93.4246 6.53583 92.8863 6.53583Z" fill="#B9E8F3"/>
<path d="M92.3418 12.1082C91.2935 12.1082 90.4404 10.7279 90.4404 9.02551C90.4404 7.3231 91.2935 5.93766 92.3418 5.93766C93.39 5.93766 94.2399 7.3231 94.2399 9.02551C94.2399 10.7279 93.39 12.1082 92.3418 12.1082ZM92.3418 5.65137C91.1959 5.65137 90.2642 7.16462 90.2642 9.02551C90.2642 10.8864 91.1959 12.3996 92.3418 12.3996C93.4876 12.3996 94.4162 10.8864 94.4162 9.02551C94.4162 7.16462 93.4876 5.65137 92.3418 5.65137Z" fill="#1AAABB"/>
<path d="M88.2744 17.4916C87.1789 17.4916 86.2881 18.9384 86.2881 20.7226C86.2881 22.5068 87.1789 23.9536 88.2744 23.9536C89.373 23.9536 90.2639 22.5068 90.2639 20.7226C90.2639 18.9384 89.373 17.4916 88.2744 17.4916Z" fill="#1CB6E4"/>
<path d="M88.2745 17.4916C88.1801 17.4916 88.0856 17.5069 87.9944 17.5274C86.9335 18.146 86.8013 20.2676 87.2105 21.5457C87.8275 23.4628 89.5525 23.7542 90.0436 22.1949C90.1821 21.7553 90.264 21.2543 90.264 20.7226C90.264 18.9384 89.3731 17.4916 88.2745 17.4916Z" fill="#47C4F3"/>
<path d="M88.8223 18.2328C88.284 18.2328 87.8496 18.8668 87.8496 19.6439C87.8496 20.426 88.284 21.0549 88.8223 21.0549C89.3574 21.0549 89.795 20.426 89.795 19.6439C89.795 18.8668 89.3574 18.2328 88.8223 18.2328Z" fill="#B9E8F3"/>
<path d="M88.2746 23.8053C87.2264 23.8053 86.3765 22.4249 86.3765 20.7225C86.3765 19.0201 87.2264 17.6347 88.2746 17.6347C89.3229 17.6347 90.176 19.0201 90.176 20.7225C90.176 22.4249 89.3229 23.8053 88.2746 23.8053ZM88.2746 17.3484C87.1288 17.3484 86.2002 18.8616 86.2002 20.7225C86.2002 22.5834 87.1288 24.0967 88.2746 24.0967C89.4205 24.0967 90.3522 22.5834 90.3522 20.7225C90.3522 18.8616 89.4205 17.3484 88.2746 17.3484Z" fill="#1AAABB"/>
<path d="M87.8306 4.07678C87.2451 4.07678 86.7729 4.84363 86.7729 5.79453C86.7729 6.74542 87.2451 7.51227 87.8306 7.51227C88.4161 7.51227 88.8883 6.74542 88.8883 5.79453C88.8883 4.84363 88.4161 4.07678 87.8306 4.07678Z" fill="#1CB6E4"/>
<path d="M87.8309 4.07678L87.683 4.09723C87.1164 4.42442 87.0471 5.55425 87.2643 6.23419C87.5917 7.25154 88.5109 7.41002 88.7721 6.58183C88.8445 6.34155 88.8886 6.07571 88.8886 5.79453C88.8886 4.84363 88.4164 4.07678 87.8309 4.07678Z" fill="#47C4F3"/>
<path d="M88.1203 4.47046C87.8338 4.47046 87.604 4.80787 87.604 5.22197C87.604 5.63607 87.8338 5.97348 88.1203 5.97348C88.4067 5.97348 88.6365 5.63607 88.6365 5.22197C88.6365 4.80787 88.4067 4.47046 88.1203 4.47046Z" fill="#B9E8F3"/>
<path d="M87.831 7.43555C87.2738 7.43555 86.8205 6.69937 86.8205 5.79449C86.8205 4.88961 87.2738 4.15343 87.831 4.15343C88.3882 4.15343 88.8414 4.88961 88.8414 5.79449C88.8414 6.69937 88.3882 7.43555 87.831 7.43555ZM87.831 4.00006C87.2203 4.00006 86.7261 4.80781 86.7261 5.79449C86.7261 6.78628 87.2203 7.58892 87.831 7.58892C88.4385 7.58892 88.9359 6.78628 88.9359 5.79449C88.9359 4.80781 88.4385 4.00006 87.831 4.00006Z" fill="#1AAABB"/>
<path d="M93.3677 20.7993C92.7822 20.7993 92.3101 21.5661 92.3101 22.517C92.3101 23.4628 92.7822 24.2347 93.3677 24.2347C93.9501 24.2347 94.4254 23.4628 94.4254 22.517C94.4254 21.5661 93.9501 20.7993 93.3677 20.7993Z" fill="#1CB6E4"/>
<path d="M93.3677 20.7993L93.2166 20.8197C92.6531 21.1469 92.5839 22.2767 92.8011 22.9567C93.1284 23.974 94.0476 24.1274 94.3057 23.2992C94.3813 23.064 94.4254 22.7982 94.4254 22.517C94.4254 21.5661 93.95 20.7993 93.3677 20.7993Z" fill="#47C4F3"/>
<path d="M93.6574 21.1929C93.3709 21.1929 93.1411 21.5303 93.1411 21.9444C93.1411 22.3585 93.3709 22.6959 93.6574 22.6959C93.9438 22.6959 94.1736 22.3585 94.1736 21.9444C94.1736 21.5303 93.9438 21.1929 93.6574 21.1929Z" fill="#B9E8F3"/>
<path d="M93.3681 24.158C92.8109 24.158 92.3576 23.4218 92.3576 22.517C92.3576 21.6121 92.8109 20.8759 93.3681 20.8759C93.9253 20.8759 94.3786 21.6121 94.3786 22.517C94.3786 23.4218 93.9253 24.158 93.3681 24.158ZM93.3681 20.7225C92.7574 20.7225 92.2632 21.5252 92.2632 22.517C92.2632 23.5036 92.7574 24.3114 93.3681 24.3114C93.9756 24.3114 94.473 23.5036 94.473 22.517C94.473 21.5252 93.9756 20.7225 93.3681 20.7225Z" fill="#1AAABB"/>
<path d="M92.0362 26.1161C91.4507 26.1161 90.9785 26.8829 90.9785 27.8338C90.9785 28.7847 91.4507 29.5516 92.0362 29.5516C92.6186 29.5516 93.0939 28.7847 93.0939 27.8338C93.0939 26.8829 92.6186 26.1161 92.0362 26.1161Z" fill="#1CB6E4"/>
<path d="M92.0361 26.1161L91.885 26.1365C91.3216 26.4637 91.2523 27.5936 91.4695 28.2735C91.7969 29.2908 92.7161 29.4442 92.9742 28.616C93.0497 28.3809 93.0938 28.115 93.0938 27.8338C93.0938 26.8829 92.6185 26.1161 92.0361 26.1161Z" fill="#47C4F3"/>
<path d="M92.3258 26.5097C92.0394 26.5097 91.8096 26.8471 91.8096 27.2612C91.8096 27.6753 92.0394 28.0127 92.3258 28.0127C92.6123 28.0127 92.8421 27.6753 92.8421 27.2612C92.8421 26.8471 92.6123 26.5097 92.3258 26.5097Z" fill="#B9E8F3"/>
<path d="M92.0365 29.4749C91.4794 29.4749 91.0261 28.7387 91.0261 27.8338C91.0261 26.9289 91.4794 26.1927 92.0365 26.1927C92.5937 26.1927 93.047 26.9289 93.047 27.8338C93.047 28.7387 92.5937 29.4749 92.0365 29.4749ZM92.0365 26.0394C91.4259 26.0394 90.9316 26.842 90.9316 27.8338C90.9316 28.8205 91.4259 29.6282 92.0365 29.6282C92.6441 29.6282 93.1414 28.8205 93.1414 27.8338C93.1414 26.842 92.6441 26.0394 92.0365 26.0394Z" fill="#1AAABB"/>
<path d="M89.2598 51.6522L96.7139 49.6635C95.077 46.4325 91.0478 46.412 89.2598 51.6522Z" fill="#9BC5D8"/>
<path d="M89.2598 51.6522H93.6605L96.7139 49.6635C95.0109 47.8179 91.3625 47.2096 89.2598 51.6522Z" fill="#679AB2"/>
<path d="M95.9301 48.2167L95.9049 48.1911C95.1211 47.4447 94.1264 47.0971 93.1002 47.2454C91.8977 47.4243 90.818 48.2525 89.9932 49.5919L89.9334 49.6891C89.3605 50.6297 89.2598 51.6522 89.2598 51.6522C90.0688 49.275 91.4759 47.777 93.1191 47.5317C94.5608 47.3169 95.9396 48.1349 96.7139 49.6635C96.7139 49.6635 96.7139 48.9733 95.9301 48.2167Z" fill="#2A555C"/>
<path d="M94.8977 50.2719C93.5567 50.2719 90.9565 53.2575 90.8778 56.4067C90.7865 60.0262 92.351 61.6979 93.692 61.6979C95.0362 61.6979 96.7833 59.7961 96.7266 56.3402C96.6731 53.191 96.2418 50.2719 94.8977 50.2719Z" fill="#457C8F"/>
<path d="M94.822 51.0898C93.5723 51.0898 91.1516 53.7687 91.0792 56.5958C90.9942 59.8473 92.4768 61.6928 93.7265 61.6928C94.9762 61.6928 96.5785 59.6428 96.525 56.5396C96.4778 53.7125 96.0749 51.0898 94.822 51.0898Z" fill="#231F20"/>
<path d="M94.822 52.1838C93.5723 52.1838 91.1484 54.4895 91.1484 56.9485C91.1484 59.4076 92.4768 61.3963 93.7265 61.3963C94.9763 61.3963 96.3613 59.4076 96.3613 56.9485C96.3613 54.4895 96.0749 52.1838 94.822 52.1838Z" fill="#B3B7BE"/>
<path d="M94.8224 52.1838C93.9977 52.1838 92.6598 53.191 91.8477 54.5815C91.0355 56.7901 91.3912 58.2726 91.876 59.4638C92.131 60.0313 92.5748 60.108 93.1729 60.3431C94.4258 60.701 95.4835 59.8779 96.1414 58.6254C96.2799 58.109 96.3617 57.5416 96.3617 56.9485C96.3617 54.4895 96.0753 52.1838 94.8224 52.1838Z" fill="white"/>
<mask id="mask2_25_100" style="mask-type:alpha" maskUnits="userSpaceOnUse" x="91" y="53" width="5" height="9">
<path d="M91.0322 53.738H95.8674V61.5906H91.0322V53.738Z" fill="black"/>
</mask>
<g mask="url(#mask2_25_100)">
<mask id="mask3_25_100" style="mask-type:alpha" maskUnits="userSpaceOnUse" x="91" y="53" width="5" height="9">
<path d="M93.7269 61.3963C93.7269 61.3963 93.7238 61.3963 93.7206 61.3963C93.7238 61.3963 93.7269 61.3963 93.7269 61.3963ZM93.7332 61.3963H93.7364C93.7364 61.3963 93.7364 61.3963 93.7332 61.3963ZM93.7395 61.3963H93.7427C93.7427 61.3963 93.7427 61.3963 93.7395 61.3963ZM93.7458 61.3963H93.749H93.7458ZM93.7521 61.3963C93.9945 61.3912 94.2432 61.3094 94.4856 61.1662C95.0994 60.5937 95.5118 59.382 95.5023 57.9864C95.4992 57.3985 95.4205 56.8514 95.2851 56.3709C95.3544 56.3658 95.4236 56.3555 95.4929 56.3351C95.5181 56.3249 95.5433 56.3197 95.5684 56.3095C95.6912 56.8208 95.7605 57.3882 95.7605 57.9915C95.7605 58.4925 95.7101 58.9731 95.6219 59.4178C95.5621 59.7297 95.4771 60.0262 95.3796 60.2971C94.9042 60.972 94.3156 61.3861 93.7553 61.3963C93.7521 61.3963 93.7521 61.3963 93.7521 61.3963ZM93.7017 61.3963C93.6986 61.3963 93.6986 61.3963 93.6986 61.3963C93.6986 61.3963 93.6986 61.3963 93.7017 61.3963ZM93.6797 61.3963C93.6797 61.3963 93.6797 61.3963 93.6766 61.3963C93.6797 61.3963 93.6797 61.3963 93.6797 61.3963ZM93.6293 61.3963C93.6293 61.3963 93.6293 61.3963 93.6293 61.3912C93.6293 61.3963 93.6293 61.3963 93.6293 61.3963ZM92.6881 60.9618C92.3608 60.6857 92.0554 60.2869 91.8067 59.8013C91.7186 59.4689 91.6556 59.1162 91.6179 58.7379C91.5927 58.4976 91.5801 58.2471 91.5801 57.9915C91.5801 55.7778 92.5181 53.9885 93.6703 53.9885C93.9221 53.9885 94.1613 54.0703 94.3817 54.2237C94.3187 54.3668 94.2747 54.5253 94.2526 54.6889C94.0669 54.5662 93.8654 54.4998 93.6577 54.4998C93.6545 54.4998 93.6482 54.4998 93.6419 54.4998C92.6315 54.5151 91.8225 56.0999 91.8382 58.0375C91.8476 59.2645 92.1845 60.338 92.6881 60.9618Z" fill="black"/>
</mask>
<g mask="url(#mask3_25_100)">
<mask id="mask4_25_100" style="mask-type:alpha" maskUnits="userSpaceOnUse" x="91" y="53" width="5" height="9">
<path d="M93.7269 61.3963C93.7269 61.3963 93.7238 61.3963 93.7206 61.3963C93.7238 61.3963 93.7269 61.3963 93.7269 61.3963ZM93.7332 61.3963H93.7364C93.7364 61.3963 93.7364 61.3963 93.7332 61.3963ZM93.7395 61.3963H93.7427C93.7427 61.3963 93.7427 61.3963 93.7395 61.3963ZM93.7458 61.3963H93.749H93.7458ZM93.7521 61.3963C93.9945 61.3912 94.2432 61.3094 94.4856 61.1662C95.0994 60.5937 95.5118 59.382 95.5023 57.9864C95.4992 57.3985 95.4205 56.8514 95.2851 56.3709C95.3544 56.3658 95.4236 56.3555 95.4929 56.3351C95.5181 56.3249 95.5433 56.3197 95.5684 56.3095C95.6912 56.8208 95.7605 57.3882 95.7605 57.9915C95.7605 58.4925 95.7101 58.9731 95.6219 59.4178C95.5621 59.7297 95.4771 60.0262 95.3796 60.2971C94.9042 60.972 94.3156 61.3861 93.7553 61.3963C93.7521 61.3963 93.7521 61.3963 93.7521 61.3963ZM93.7017 61.3963C93.6986 61.3963 93.6986 61.3963 93.6986 61.3963C93.6986 61.3963 93.6986 61.3963 93.7017 61.3963ZM93.6797 61.3963C93.6797 61.3963 93.6797 61.3963 93.6766 61.3963C93.6797 61.3963 93.6797 61.3963 93.6797 61.3963ZM93.6293 61.3963C93.6293 61.3963 93.6293 61.3963 93.6293 61.3912C93.6293 61.3963 93.6293 61.3963 93.6293 61.3963ZM92.6881 60.9618C92.3608 60.6857 92.0554 60.2869 91.8067 59.8013C91.7186 59.4689 91.6556 59.1162 91.6179 58.7379C91.5927 58.4976 91.5801 58.2471 91.5801 57.9915C91.5801 55.7778 92.5181 53.9885 93.6703 53.9885C93.9221 53.9885 94.1613 54.0703 94.3817 54.2237C94.3187 54.3668 94.2747 54.5253 94.2526 54.6889C94.0669 54.5662 93.8654 54.4998 93.6577 54.4998C93.6545 54.4998 93.6482 54.4998 93.6419 54.4998C92.6315 54.5151 91.8225 56.0999 91.8382 58.0375C91.8476 59.2645 92.1845 60.338 92.6881 60.9618Z" fill="black"/>
</mask>
<g mask="url(#mask4_25_100)">
<path d="M91.5801 53.9885V61.3963H95.7605V53.9885H91.5801Z" fill="url(#paint0_radial_25_100)"/>
</g>
</g>
</g>
<path d="M93.6418 54.4997C92.6314 54.5151 91.8224 56.0999 91.8381 58.0375C91.8476 59.2644 92.1844 60.338 92.688 60.9617C93.0186 61.2429 93.3774 61.3963 93.7268 61.3963C93.9787 61.3963 94.2368 61.3145 94.4855 61.1662C95.0993 60.5937 95.5117 59.382 95.5022 57.9864C95.4865 56.0437 94.6555 54.4844 93.6418 54.4997Z" fill="#231F20"/>
<path d="M92.6469 57.7767C92.5084 57.8176 92.4202 58.0068 92.4517 58.1959C92.4832 58.3851 92.6217 58.5027 92.7602 58.4618C92.8955 58.4158 92.9837 58.2317 92.9522 58.0426C92.9207 57.8534 92.7822 57.7307 92.6469 57.7767Z" fill="white"/>
<path d="M92.2631 55.8903C92.0238 55.9619 91.8759 56.284 91.9294 56.6112C91.9829 56.9383 92.219 57.1428 92.4582 57.0713C92.6943 56.9946 92.8454 56.6725 92.7919 56.3453C92.7384 56.0181 92.4992 55.8136 92.2631 55.8903Z" fill="white"/>
<mask id="mask5_25_100" style="mask-type:alpha" maskUnits="userSpaceOnUse" x="93" y="55" width="3" height="3">
<path d="M93.4497 55.0468H95.0614V57.6643H93.4497V55.0468Z" fill="black"/>
</mask>
<g mask="url(#mask5_25_100)">
<mask id="mask6_25_100" style="mask-type:alpha" maskUnits="userSpaceOnUse" x="93" y="55" width="2" height="2">
<path d="M94.1393 56.8105C93.8875 56.8105 93.6608 56.5754 93.6042 56.2226C93.5381 55.8187 93.7238 55.42 94.0166 55.3279C94.0575 55.3126 94.0984 55.3075 94.1393 55.3075C94.1834 55.3075 94.2275 55.3126 94.2715 55.3279C94.3376 55.6654 94.4887 55.9414 94.6839 56.1255C94.665 56.4424 94.4982 56.7185 94.2589 56.7901C94.218 56.8054 94.1771 56.8105 94.1393 56.8105Z" fill="black"/>
</mask>
<g mask="url(#mask6_25_100)">
<path d="M93.5381 56.8105H94.6839V55.3075H93.5381V56.8105Z" fill="#858C92"/>
</g>
</g>
<path d="M96.2923 55.0928C96.2703 54.8474 96.2419 54.6122 96.2104 54.3873C96.2356 54.4691 96.2545 54.556 96.2703 54.6429C96.2954 54.7963 96.3017 54.9496 96.2923 55.0928Z" fill="#575E61"/>
<path d="M95.5681 56.3095C95.332 55.3433 94.907 54.5918 94.3813 54.2237C94.523 53.9067 94.7528 53.6665 95.0361 53.5795C95.1148 53.554 95.1904 53.5438 95.2659 53.5438C95.672 53.5438 96.0434 53.8761 96.2103 54.3873C96.2417 54.6122 96.2701 54.8474 96.2921 55.0928C96.2512 55.65 95.971 56.1357 95.5681 56.3095Z" fill="white"/>
<mask id="mask7_25_100" style="mask-type:alpha" maskUnits="userSpaceOnUse" x="93" y="53" width="3" height="5">
<path d="M93.4497 53.738H95.8673V57.6643H93.4497V53.738Z" fill="black"/>
</mask>
<g mask="url(#mask7_25_100)">
<mask id="mask8_25_100" style="mask-type:alpha" maskUnits="userSpaceOnUse" x="94" y="54" width="2" height="3">
<path d="M95.2849 56.3709C95.0646 55.5887 94.6963 54.9803 94.2524 54.6889C94.2745 54.5253 94.3185 54.3668 94.3815 54.2237C94.9072 54.5918 95.3322 55.3433 95.5683 56.3095C95.5431 56.3198 95.5179 56.3249 95.4927 56.3351C95.4235 56.3555 95.3542 56.3658 95.2849 56.3709Z" fill="black"/>
</mask>
<g mask="url(#mask8_25_100)">
<mask id="mask9_25_100" style="mask-type:alpha" maskUnits="userSpaceOnUse" x="94" y="54" width="2" height="3">
<path d="M95.2849 56.3709C95.0646 55.5887 94.6963 54.9803 94.2524 54.6889C94.2745 54.5253 94.3185 54.3668 94.3815 54.2237C94.9072 54.5918 95.3322 55.3433 95.5683 56.3095C95.5431 56.3198 95.5179 56.3249 95.4927 56.3351C95.4235 56.3555 95.3542 56.3658 95.2849 56.3709Z" fill="black"/>
</mask>
<g mask="url(#mask9_25_100)">
<path d="M94.2524 54.2237V56.3709H95.5683V54.2237H94.2524Z" fill="url(#paint1_radial_25_100)"/>
</g>
</g>
</g>
<path d="M95.2662 56.3709C95.0552 56.3709 94.8538 56.2788 94.6838 56.1255C94.6901 56.0488 94.6869 55.9721 94.6744 55.8954C94.6271 55.6091 94.4666 55.3944 94.2714 55.3279C94.2683 55.3075 94.2651 55.287 94.2588 55.2666C94.2274 55.0723 94.2274 54.8729 94.2525 54.6889C94.6964 54.9803 95.0647 55.5887 95.285 56.3709C95.2787 56.3709 95.2725 56.3709 95.2662 56.3709Z" fill="#575E61"/>
<path d="M94.6839 56.1255C94.4887 55.9414 94.3376 55.6654 94.2715 55.3279C94.4667 55.3944 94.6272 55.6091 94.6744 55.8954C94.687 55.9721 94.6902 56.0488 94.6839 56.1255Z" fill="#A8ADB4"/>
<path d="M90.9883 52.3321C90.9883 52.3321 91.7186 53.922 93.0407 53.0529L92.9714 52.7104C91.9421 53.513 91.0261 52.3832 90.9883 52.3321Z" fill="#231F20"/>
<path d="M92.2124 50.5223C92.2124 50.5223 92.2281 51.601 92.8546 52.0509C93.0938 52.2196 93.3929 52.3219 93.7517 52.2605L93.7234 51.9129C92.6342 52.0867 92.2281 50.5888 92.2124 50.5223Z" fill="#231F20"/>
<path d="M93.736 49.5868C93.736 49.5868 93.2071 50.5632 94.3813 51.8158L94.5387 51.5397C93.5251 50.4559 93.7265 49.6226 93.736 49.5868Z" fill="#231F20"/>
<path d="M88.813 62.9249L93.5222 61.9638L98.2314 62.2091C94.8317 58.2624 90.4058 58.9782 88.813 62.9249Z" fill="#9BC5D8"/>
<path d="M88.813 62.9248L98.2314 62.2091C95.4896 59.8063 90.6545 59.929 88.813 62.9248Z" fill="#679AB2"/>
<path d="M96.9565 60.6703L96.9125 60.6345C95.3354 59.4587 93.5726 59.0497 91.9609 59.5456C91.2431 59.7603 90.5978 60.1489 90.047 60.6754L89.9934 60.7266C89.0396 61.7081 88.813 62.9249 88.813 62.9249C89.4457 61.3605 90.5758 60.2562 91.9955 59.8268C94.0699 59.1929 96.3994 60.0875 98.2314 62.2091C98.2314 62.2091 97.9796 61.3707 96.9565 60.6703Z" fill="#2A555C"/>
<path d="M118.708 24.0711C115.29 25.5537 111.852 30.2929 109.347 39.4337C106.844 48.5695 105.157 61.1509 100.561 65.0976C95.965 69.0444 94.9829 63.7173 91.7847 65.8134C92.7385 69.1415 95.943 71.3398 100.561 68.5894C105.538 65.6242 107.584 56.4169 109.517 48.2781C111.607 39.4746 114.374 30.6201 117.764 28.1866C121.416 25.5639 122.747 27.5629 123.065 29.9094C123.509 27.0363 122.124 22.5886 118.708 24.0711Z" fill="#254E55"/>
<path d="M118.709 24.0711C115.29 25.5537 111.852 30.2929 109.347 39.4337C106.844 48.5695 105.157 61.1509 100.561 65.0976C95.9651 69.0444 94.8665 63.9218 92.77 65.8236C93.6294 68.3951 96.3712 69.8317 100.501 67.3317C105.188 64.4944 106.854 55.9823 108.786 47.8486C110.88 39.0452 114.1 29.434 117.493 27.0005C121.145 24.383 123.144 26.75 123.065 29.9094C123.509 27.0363 122.124 22.5886 118.709 24.0711Z" fill="#356571"/>
<path d="M120.707 26.8011C119.889 26.8011 118.885 27.2254 117.729 28.0536C114.887 30.0935 112.173 36.6884 109.435 48.2269L109.252 48.9887C107.408 56.7799 105.314 65.6037 100.529 68.4564C99.1507 69.2744 97.838 69.6885 96.6261 69.6885C94.4289 69.6885 92.6314 68.2366 91.9043 65.89C92.3828 65.5935 92.8392 65.4504 93.2988 65.4504C93.9567 65.4504 94.539 65.7418 95.1529 66.0536C95.8202 66.391 96.5096 66.7438 97.3595 66.7438C98.3511 66.7438 99.412 66.2428 100.602 65.2254C104.09 62.2245 105.906 54.3413 107.666 46.7137C108.229 44.27 108.808 41.7445 109.428 39.4899C112.318 28.9432 116.083 25.3594 118.73 24.2092C119.174 24.0149 119.599 23.9178 119.996 23.9178C121.274 23.9178 122.011 24.8993 122.404 25.7173C122.883 26.7142 123.119 28.0536 123.043 29.2704C122.794 28.1559 122.187 26.8011 120.707 26.8011ZM119.996 23.6315C119.584 23.6315 119.143 23.7337 118.683 23.9331C115.998 25.0987 112.183 28.7234 109.268 39.3723C108.645 41.6371 108.062 44.1677 107.499 46.6114C105.752 54.1879 103.948 62.0251 100.52 64.9698C99.3553 65.9667 98.3228 66.4524 97.3595 66.4524C96.5348 66.4524 95.858 66.1099 95.2064 65.7827C94.5768 65.4606 93.985 65.1641 93.2988 65.1641C92.7888 65.1641 92.282 65.3328 91.75 65.6804L91.665 65.7367L91.7028 65.8747C92.43 68.4053 94.3155 69.9799 96.6261 69.9799C97.8601 69.9799 99.1948 69.5556 100.589 68.7223C105.45 65.8287 107.559 56.9383 109.416 49.096L109.598 48.3292C112.321 36.8673 115.003 30.3235 117.799 28.3144C118.935 27.5015 119.914 27.0925 120.707 27.0925C122.266 27.0925 122.801 28.6416 122.977 29.9401L123.059 30.5331L123.15 29.9452C123.374 28.4984 123.137 26.7704 122.546 25.5435C122.127 24.6693 121.343 23.6315 119.996 23.6315Z" fill="#162F2F"/>
<mask id="mask10_25_100" style="mask-type:alpha" maskUnits="userSpaceOnUse" x="59" y="70" width="24" height="55">
<path d="M59.604 70.7518H82.9738V124.007H59.604V70.7518Z" fill="black"/>
</mask>
<g mask="url(#mask10_25_100)">
<path d="M78.8027 71.7437L71.4493 76.0073C62.355 81.6667 62.2921 88.1338 62.3802 90.189C62.4337 91.4159 62.7233 91.9323 61.8955 93.7778C60.8944 96.0017 61.2029 98.3227 61.631 100.092C62.056 101.866 61.9584 102.673 61.4201 104.294C60.8346 106.047 61.2313 108.082 61.6751 110.429C62.1158 112.77 59.5534 122.698 60.5702 123.777C61.587 124.851 73.5111 115.786 76.426 100.056C79.1269 85.4549 87.8182 74.397 78.8027 71.7437Z" fill="#457C8F"/>
</g>
<path d="M78.8026 71.7437L71.4492 76.0073C64.5239 80.9101 65.2605 88.1338 65.3486 90.189C65.4021 91.4159 65.4714 92.51 64.6435 94.3504C63.6425 96.5794 64.0832 97.0293 64.5113 98.8032C64.9362 100.572 65.846 103.292 65.3045 104.907C64.719 106.666 64.3759 106.288 64.8198 108.634C65.2605 110.976 60.0035 125.065 63.5291 122.228C65.8145 120.009 73.105 114.447 76.426 100.056C79.1269 85.4549 87.8181 74.397 78.8026 71.7437Z" fill="#9BC5D8"/>
<path d="M78.8026 71.7437L73.278 71.7692L71.4491 76.0073C64.5238 80.9101 63.8029 87.9651 63.8911 90.0203C63.9446 91.2472 64.1901 92.3157 63.3622 94.1612C62.3581 96.3851 63.038 97.9188 63.463 99.6877C63.8911 101.457 63.5322 103.292 62.9939 104.907C62.4084 106.666 63.1261 107.678 63.5668 110.02C64.0107 112.366 60.0034 125.065 63.5291 122.228C65.8144 120.009 72.8279 113.082 75.6673 99.519C78.3713 84.9181 85.9419 74.4327 78.8026 71.7437Z" fill="#679AB2"/>
<mask id="mask11_25_100" style="mask-type:alpha" maskUnits="userSpaceOnUse" x="59" y="70" width="24" height="55">
<path d="M59.604 70.7518H82.9738V124.007H59.604V70.7518Z" fill="black"/>
</mask>
<g mask="url(#mask11_25_100)">
<path d="M80.2792 72.035L80.232 72.0094C79.4167 71.5749 78.8028 71.7436 78.8028 71.7436C80.8301 72.3417 82.0389 73.4 82.4953 74.9848C83.2886 77.7097 81.8815 81.7791 80.0998 86.9272C78.7525 90.8126 77.2289 95.2194 76.3412 100.01C74.0212 112.535 65.7738 121.037 62.1443 123.189C61.2157 123.741 60.7466 123.792 60.6176 123.654C60.1139 123.123 60.6491 119.759 61.1212 116.793C61.5556 114.064 61.9649 111.487 61.7603 110.388L61.7382 110.275C61.3101 108 60.9387 106.037 61.499 104.36C62.0436 102.719 62.1506 101.865 61.713 100.04C61.3353 98.4709 60.9481 96.1243 61.968 93.8647C62.6542 92.331 62.5944 91.6664 62.5157 90.8228C62.5 90.6235 62.4811 90.4138 62.4685 90.1787C62.2356 84.7085 65.3394 79.8057 71.4494 76.0073C71.4494 76.0073 70.5491 76.1607 68.9594 77.4285L68.9091 77.4694C64.3635 81.0378 62.0876 85.3935 62.2922 90.1991C62.3048 90.4445 62.3237 90.6592 62.3426 90.8637C62.415 91.6766 62.4685 92.2594 61.8232 93.6909C60.7529 96.0681 61.1527 98.5118 61.5462 100.148C61.9649 101.876 61.8673 102.643 61.3416 104.222C60.7498 106.006 61.1307 108.026 61.5682 110.362L61.5903 110.47C61.7823 111.492 61.3605 114.15 60.9512 116.717C60.4161 120.076 59.9124 123.25 60.5231 123.895C60.5924 123.971 60.6994 124.007 60.8285 124.007C61.1968 124.007 61.7508 123.731 62.2041 123.46C63.9197 122.443 66.9417 119.825 69.8188 115.786C72.1514 112.509 75.208 107.126 76.5112 100.097C77.3926 95.3319 78.913 90.9404 80.254 87.0653C82.0577 81.8456 83.4869 77.725 82.6558 74.8621C82.297 73.6198 81.5132 72.6843 80.2792 72.035Z" fill="#2A555C"/>
</g>
<path d="M108.191 45.4458C112.013 31.4125 115.614 25.4924 120.607 24.383C115.658 24.2501 110.952 31.5607 108.191 45.4458Z" fill="#679AB2"/>
<path d="M111.981 95.4598C111.449 94.8974 106.564 93.9516 105.075 92.3668C105.487 94.0897 110.099 95.2911 111.981 95.4598Z" fill="#9BC5D8"/>
<defs>
<radialGradient id="paint0_radial_25_100" cx="0" cy="0" r="1" gradientUnits="userSpaceOnUse" gradientTransform="translate(93.6707 57.6924) scale(2.18754 3.55269)">
<stop stop-color="#32BDF2"/>
<stop offset="0.015625" stop-color="#32BDF2"/>
<stop offset="0.0195312" stop-color="#31BDF2"/>
<stop offset="0.03125" stop-color="#31BDF2"/>
<stop offset="0.0429688" stop-color="#30BDF2"/>
<stop offset="0.0546875" stop-color="#30BCF2"/>
<stop offset="0.0664062" stop-color="#2FBCF2"/>
<stop offset="0.078125" stop-color="#2EBCF2"/>
<stop offset="0.0898438" stop-color="#2EBCF2"/>
<stop offset="0.09375" stop-color="#2EBCF2"/>
<stop offset="0.0976562" stop-color="#2DBCF2"/>
<stop offset="0.101562" stop-color="#2CBBF2"/>
<stop offset="0.113281" stop-color="#2CBBF2"/>
<stop offset="0.125" stop-color="#2BBBF2"/>
<stop offset="0.128906" stop-color="#2ABBF2"/>
<stop offset="0.140625" stop-color="#2ABAF2"/>
<stop offset="0.144531" stop-color="#2ABAF2"/>
<stop offset="0.148438" stop-color="#29BAF2"/>
<stop offset="0.152344" stop-color="#28BAF2"/>
<stop offset="0.164062" stop-color="#28BAF1"/>
<stop offset="0.175781" stop-color="#27BAF1"/>
<stop offset="0.199219" stop-color="#27B9F1"/>
<stop offset="0.210938" stop-color="#26B9F1"/>
<stop offset="0.257812" stop-color="#26B9F0"/>
<stop offset="0.300781" stop-color="#25B9F0"/>
<stop offset="0.34375" stop-color="#25B9EF"/>
<stop offset="0.363281" stop-color="#25B9EF"/>
<stop offset="0.371094" stop-color="#24B9EF"/>
<stop offset="0.390625" stop-color="#25B9EF"/>
<stop offset="0.40625" stop-color="#25B9EE"/>
<stop offset="0.421875" stop-color="#24B8EE"/>
<stop offset="0.4375" stop-color="#24B8EE"/>
<stop offset="0.445312" stop-color="#23B8ED"/>
<stop offset="0.460938" stop-color="#22B8ED"/>
<stop offset="0.46875" stop-color="#21B8ED"/>
<stop offset="0.472656" stop-color="#21B7ED"/>
<stop offset="0.476562" stop-color="#20B7ED"/>
<stop offset="0.480469" stop-color="#1FB7ED"/>
<stop offset="0.484375" stop-color="#1EB7ED"/>
<stop offset="0.488281" stop-color="#1EB6ED"/>
<stop offset="0.492188" stop-color="#1DB6ED"/>
<stop offset="0.496094" stop-color="#1CB6ED"/>
<stop offset="0.5" stop-color="#1CB6ED"/>
<stop offset="0.503906" stop-color="#1BB6ED"/>
<stop offset="0.507812" stop-color="#1AB5ED"/>
<stop offset="0.511719" stop-color="#19B5ED"/>
<stop offset="0.515625" stop-color="#18B5ED"/>
<stop offset="0.519531" stop-color="#17B4EC"/>
<stop offset="0.523438" stop-color="#16B4EC"/>
<stop offset="0.527344" stop-color="#15B4EC"/>
<stop offset="0.53125" stop-color="#15B4EC"/>
<stop offset="0.535156" stop-color="#14B3EC"/>
<stop offset="0.539062" stop-color="#14B3EC"/>
<stop offset="0.542969" stop-color="#13B3EC"/>
<stop offset="0.546875" stop-color="#13B3EC"/>
<stop offset="0.550781" stop-color="#14B3ED"/>
<stop offset="0.554688" stop-color="#14B3ED"/>
<stop offset="0.558594" stop-color="#14B2EC"/>
<stop offset="0.5625" stop-color="#15B2EC"/>
<stop offset="0.566406" stop-color="#15B2EC"/>
<stop offset="0.570312" stop-color="#16B2EC"/>
<stop offset="0.574219" stop-color="#17B2EC"/>
<stop offset="0.578125" stop-color="#17B2EC"/>
<stop offset="0.582031" stop-color="#18B1EC"/>
<stop offset="0.585938" stop-color="#19B1EC"/>
<stop offset="0.589844" stop-color="#19B1EC"/>
<stop offset="0.59375" stop-color="#1AB0EC"/>
<stop offset="0.597656" stop-color="#1AB0EC"/>
<stop offset="0.601562" stop-color="#1BB0EC"/>
<stop offset="0.605469" stop-color="#1CAFEC"/>
<stop offset="0.609375" stop-color="#1DAFEC"/>
<stop offset="0.613281" stop-color="#1DAEEC"/>
<stop offset="0.617188" stop-color="#1EAEEB"/>
<stop offset="0.621094" stop-color="#1FADEB"/>
<stop offset="0.625" stop-color="#1FADEA"/>
<stop offset="0.628906" stop-color="#20ACEA"/>
<stop offset="0.632812" stop-color="#21ABE9"/>
<stop offset="0.636719" stop-color="#21ABE9"/>
<stop offset="0.640625" stop-color="#22AAE8"/>
<stop offset="0.644531" stop-color="#22A9E7"/>
<stop offset="0.648438" stop-color="#22A8E7"/>
<stop offset="0.652344" stop-color="#22A7E6"/>
<stop offset="0.65625" stop-color="#22A6E5"/>
<stop offset="0.660156" stop-color="#22A5E5"/>
<stop offset="0.664062" stop-color="#22A4E4"/>
<stop offset="0.667969" stop-color="#22A2E3"/>
<stop offset="0.671875" stop-color="#22A1E2"/>
<stop offset="0.675781" stop-color="#21A0E1"/>
<stop offset="0.679688" stop-color="#209FE0"/>
<stop offset="0.683594" stop-color="#209EDF"/>
<stop offset="0.6875" stop-color="#209CDE"/>
<stop offset="0.691406" stop-color="#219BDD"/>
<stop offset="0.695312" stop-color="#219ADC"/>
<stop offset="0.699219" stop-color="#2199DB"/>
<stop offset="0.703125" stop-color="#2297DA"/>
<stop offset="0.707031" stop-color="#2296D9"/>
<stop offset="0.710938" stop-color="#2295D9"/>
<stop offset="0.714844" stop-color="#2394D8"/>
<stop offset="0.71875" stop-color="#2392D7"/>
<stop offset="0.722656" stop-color="#2391D6"/>
<stop offset="0.726562" stop-color="#2490D5"/>
<stop offset="0.730469" stop-color="#248FD4"/>
<stop offset="0.734375" stop-color="#248DD3"/>
<stop offset="0.738281" stop-color="#248CD2"/>
<stop offset="0.742188" stop-color="#238BD2"/>
<stop offset="0.746094" stop-color="#2389D1"/>
<stop offset="0.75" stop-color="#2288D0"/>
<stop offset="0.753906" stop-color="#2186CF"/>
<stop offset="0.757812" stop-color="#2085CE"/>
<stop offset="0.761719" stop-color="#1F84CE"/>
<stop offset="0.765625" stop-color="#1D83CE"/>
<stop offset="0.769531" stop-color="#1B81CD"/>
<stop offset="0.773438" stop-color="#1980CC"/>
<stop offset="0.777344" stop-color="#187FCC"/>
<stop offset="0.78125" stop-color="#1A7DCB"/>
<stop offset="0.785156" stop-color="#1B7CCA"/>
<stop offset="0.789062" stop-color="#1D7BC9"/>
<stop offset="0.792969" stop-color="#1F7AC8"/>
<stop offset="0.796875" stop-color="#2178C7"/>
<stop offset="0.800781" stop-color="#2277C6"/>
<stop offset="0.804688" stop-color="#2376C5"/>
<stop offset="0.808594" stop-color="#2474C4"/>
<stop offset="0.8125" stop-color="#2573C3"/>
<stop offset="0.816406" stop-color="#2672C2"/>
<stop offset="0.820312" stop-color="#2770C1"/>
<stop offset="0.824219" stop-color="#276FC0"/>
<stop offset="0.828125" stop-color="#276DBE"/>
<stop offset="0.832031" stop-color="#286CBD"/>
<stop offset="0.835938" stop-color="#286ABC"/>
<stop offset="0.839844" stop-color="#2769BB"/>
<stop offset="0.84375" stop-color="#2768BB"/>
<stop offset="0.847656" stop-color="#2767BA"/>
<stop offset="0.851562" stop-color="#2865B9"/>
<stop offset="0.855469" stop-color="#2863B7"/>
<stop offset="0.859375" stop-color="#2962B6"/>
<stop offset="0.863281" stop-color="#2961B5"/>
<stop offset="0.867188" stop-color="#295FB4"/>
<stop offset="0.871094" stop-color="#2A5EB3"/>
<stop offset="0.875" stop-color="#2A5CB2"/>
<stop offset="0.878906" stop-color="#295BB1"/>
<stop offset="0.882812" stop-color="#2959B0"/>
<stop offset="0.886719" stop-color="#2858AF"/>
<stop offset="0.890625" stop-color="#2757AE"/>
<stop offset="0.894531" stop-color="#2656AD"/>
<stop offset="0.898438" stop-color="#2554AC"/>
<stop offset="0.902344" stop-color="#2453AC"/>
<stop offset="0.90625" stop-color="#2452AB"/>
<stop offset="0.910156" stop-color="#2550AA"/>
<stop offset="0.914062" stop-color="#274FA9"/>
<stop offset="0.917969" stop-color="#294DA7"/>
<stop offset="0.921875" stop-color="#2B4BA6"/>
<stop offset="0.925781" stop-color="#2C4AA5"/>
<stop offset="0.929688" stop-color="#2D48A4"/>
<stop offset="0.933594" stop-color="#2E46A3"/>
<stop offset="0.9375" stop-color="#2F45A2"/>
<stop offset="0.941406" stop-color="#2F43A1"/>
<stop offset="0.945312" stop-color="#3042A0"/>
<stop offset="0.949219" stop-color="#30409E"/>
<stop offset="0.953125" stop-color="#313F9D"/>
<stop offset="0.957031" stop-color="#313E9C"/>
<stop offset="0.960938" stop-color="#313C9B"/>
<stop offset="0.964844" stop-color="#313B9A"/>
<stop offset="0.96875" stop-color="#313A99"/>
<stop offset="0.972656" stop-color="#323999"/>
<stop offset="0.976562" stop-color="#323898"/>
<stop offset="0.980469" stop-color="#323797"/>
<stop offset="0.984375" stop-color="#323697"/>
<stop offset="0.988281" stop-color="#333696"/>
<stop offset="0.992188" stop-color="#333596"/>
<stop offset="0.996094" stop-color="#323596"/>
<stop offset="1" stop-color="#323596"/>
</radialGradient>
<radialGradient id="paint1_radial_25_100" cx="0" cy="0" r="1" gradientUnits="userSpaceOnUse" gradientTransform="translate(93.6705 57.6924) scale(2.18754 3.55269)">
<stop stop-color="#68CEF1"/>
<stop offset="0.0234375" stop-color="#68CEF1"/>
<stop offset="0.0507812" stop-color="#68CEF1"/>
<stop offset="0.0625" stop-color="#68CEF1"/>
<stop offset="0.0742188" stop-color="#67CEF2"/>
<stop offset="0.0859375" stop-color="#66CEF2"/>
<stop offset="0.113281" stop-color="#66CEF2"/>
<stop offset="0.140625" stop-color="#65CDF2"/>
<stop offset="0.148438" stop-color="#65CDF2"/>
<stop offset="0.171875" stop-color="#65CDF3"/>
<stop offset="0.183594" stop-color="#64CDF3"/>
<stop offset="0.195312" stop-color="#63CDF3"/>
<stop offset="0.21875" stop-color="#63CDF3"/>
<stop offset="0.242188" stop-color="#62CCF3"/>
<stop offset="0.253906" stop-color="#62CCF3"/>
<stop offset="0.261719" stop-color="#62CCF4"/>
<stop offset="0.269531" stop-color="#62CCF5"/>
<stop offset="0.308594" stop-color="#62CCF5"/>
<stop offset="0.355469" stop-color="#62CCF4"/>
<stop offset="0.394531" stop-color="#62CCF4"/>
<stop offset="0.410156" stop-color="#62CCF4"/>
<stop offset="0.417969" stop-color="#61CCF4"/>
<stop offset="0.433594" stop-color="#61CCF4"/>
<stop offset="0.441406" stop-color="#61CCF4"/>
<stop offset="0.449219" stop-color="#61CBF4"/>
<stop offset="0.457031" stop-color="#60CBF3"/>
<stop offset="0.472656" stop-color="#5FCBF3"/>
<stop offset="0.488281" stop-color="#5ECBF3"/>
<stop offset="0.503906" stop-color="#5ECAF3"/>
<stop offset="0.507812" stop-color="#5DCAF3"/>
<stop offset="0.511719" stop-color="#5DCAF3"/>
<stop offset="0.523438" stop-color="#5CC9F2"/>
<stop offset="0.527344" stop-color="#5BC9F2"/>
<stop offset="0.539062" stop-color="#5BC9F2"/>
<stop offset="0.542969" stop-color="#5AC9F2"/>
<stop offset="0.546875" stop-color="#5AC8F2"/>
<stop offset="0.550781" stop-color="#59C8F1"/>
<stop offset="0.5625" stop-color="#59C7F1"/>
<stop offset="0.566406" stop-color="#59C7F1"/>
<stop offset="0.570312" stop-color="#58C6F0"/>
<stop offset="0.582031" stop-color="#58C6EF"/>
<stop offset="0.59375" stop-color="#57C5EF"/>
<stop offset="0.597656" stop-color="#57C4EE"/>
<stop offset="0.609375" stop-color="#57C3EE"/>
<stop offset="0.613281" stop-color="#57C3ED"/>
<stop offset="0.617188" stop-color="#56C3ED"/>
<stop offset="0.621094" stop-color="#56C2ED"/>
<stop offset="0.625" stop-color="#56C1EC"/>
<stop offset="0.628906" stop-color="#56C1EC"/>
<stop offset="0.632812" stop-color="#57C1EB"/>
<stop offset="0.636719" stop-color="#57C0EB"/>
<stop offset="0.640625" stop-color="#57BFEB"/>
<stop offset="0.648438" stop-color="#57BFEA"/>
<stop offset="0.652344" stop-color="#58BFEA"/>
<stop offset="0.65625" stop-color="#58BEEA"/>
<stop offset="0.660156" stop-color="#58BEEA"/>
<stop offset="0.664062" stop-color="#58BDE9"/>
<stop offset="0.667969" stop-color="#58BDE9"/>
<stop offset="0.671875" stop-color="#59BCE9"/>
<stop offset="0.675781" stop-color="#59BBE8"/>
<stop offset="0.679688" stop-color="#59BAE8"/>
<stop offset="0.683594" stop-color="#59B9E7"/>
<stop offset="0.6875" stop-color="#59B8E6"/>
<stop offset="0.691406" stop-color="#59B7E6"/>
<stop offset="0.695312" stop-color="#59B6E5"/>
<stop offset="0.699219" stop-color="#59B5E5"/>
<stop offset="0.703125" stop-color="#5AB5E5"/>
<stop offset="0.707031" stop-color="#5AB4E4"/>
<stop offset="0.710938" stop-color="#59B3E4"/>
<stop offset="0.714844" stop-color="#59B2E4"/>
<stop offset="0.71875" stop-color="#58B1E4"/>
<stop offset="0.722656" stop-color="#59B0E3"/>
<stop offset="0.726562" stop-color="#59AFE3"/>
<stop offset="0.730469" stop-color="#59AFE2"/>
<stop offset="0.734375" stop-color="#58AEE2"/>
<stop offset="0.738281" stop-color="#58ADE2"/>
<stop offset="0.742188" stop-color="#58ACE1"/>
<stop offset="0.746094" stop-color="#58ABE1"/>
<stop offset="0.75" stop-color="#58AAE1"/>
<stop offset="0.753906" stop-color="#58A9E0"/>
<stop offset="0.757812" stop-color="#58A7E0"/>
<stop offset="0.761719" stop-color="#58A6DF"/>
<stop offset="0.765625" stop-color="#58A5DF"/>
<stop offset="0.769531" stop-color="#58A5DF"/>
<stop offset="0.773438" stop-color="#58A4DE"/>
<stop offset="0.777344" stop-color="#59A3DE"/>
<stop offset="0.78125" stop-color="#59A2DD"/>
<stop offset="0.785156" stop-color="#58A0DD"/>
<stop offset="0.789062" stop-color="#589FDC"/>
<stop offset="0.792969" stop-color="#579EDB"/>
<stop offset="0.796875" stop-color="#579DDB"/>
<stop offset="0.800781" stop-color="#579CDA"/>
<stop offset="0.804688" stop-color="#579BDA"/>
<stop offset="0.808594" stop-color="#579AD9"/>
<stop offset="0.8125" stop-color="#5798D8"/>
<stop offset="0.816406" stop-color="#5797D7"/>
<stop offset="0.820312" stop-color="#5797D7"/>
<stop offset="0.824219" stop-color="#5896D6"/>
<stop offset="0.828125" stop-color="#5894D5"/>
<stop offset="0.832031" stop-color="#5793D4"/>
<stop offset="0.835938" stop-color="#5792D4"/>
<stop offset="0.839844" stop-color="#5791D3"/>
<stop offset="0.84375" stop-color="#5790D3"/>
<stop offset="0.847656" stop-color="#578FD2"/>
<stop offset="0.851562" stop-color="#568ED1"/>
<stop offset="0.855469" stop-color="#568DD0"/>
<stop offset="0.859375" stop-color="#558BD0"/>
<stop offset="0.863281" stop-color="#568BCF"/>
<stop offset="0.867188" stop-color="#568ACE"/>
<stop offset="0.871094" stop-color="#5689CE"/>
<stop offset="0.875" stop-color="#5688CD"/>
<stop offset="0.878906" stop-color="#5586CD"/>
<stop offset="0.882812" stop-color="#5585CC"/>
<stop offset="0.886719" stop-color="#5584CC"/>
<stop offset="0.890625" stop-color="#5583CB"/>
<stop offset="0.894531" stop-color="#5582CA"/>
<stop offset="0.898438" stop-color="#5481C9"/>
<stop offset="0.902344" stop-color="#5480C8"/>
<stop offset="0.90625" stop-color="#547FC7"/>
<stop offset="0.910156" stop-color="#547EC6"/>
<stop offset="0.914062" stop-color="#547DC6"/>
<stop offset="0.917969" stop-color="#547CC5"/>
<stop offset="0.921875" stop-color="#547AC4"/>
<stop offset="0.925781" stop-color="#5579C4"/>
<stop offset="0.929688" stop-color="#5578C3"/>
<stop offset="0.933594" stop-color="#5677C2"/>
<stop offset="0.9375" stop-color="#5676C1"/>
<stop offset="0.941406" stop-color="#5674C1"/>
<stop offset="0.945312" stop-color="#5673C0"/>
<stop offset="0.949219" stop-color="#5672BF"/>
<stop offset="0.953125" stop-color="#5671BF"/>
<stop offset="0.957031" stop-color="#5670BE"/>
<stop offset="0.960938" stop-color="#566FBD"/>
<stop offset="0.964844" stop-color="#566EBD"/>
<stop offset="0.96875" stop-color="#566CBC"/>
<stop offset="0.972656" stop-color="#566CBC"/>
<stop offset="0.976562" stop-color="#576BBB"/>
<stop offset="0.980469" stop-color="#5769BB"/>
<stop offset="0.984375" stop-color="#5768BA"/>
<stop offset="0.988281" stop-color="#5667BA"/>
<stop offset="0.992188" stop-color="#5666BA"/>
<stop offset="0.996094" stop-color="#5665B9"/>
<stop offset="1" stop-color="#5664B8"/>
</radialGradient>
</defs>
</svg>
