<svg width="128" height="128" viewBox="0 0 128 128" fill="none" xmlns="http://www.w3.org/2000/svg">
<path d="M88.9855 2H38.03L2 38.03V88.9855L38.03 125.017H88.9855L125.017 88.9855V38.03L88.9855 2Z" fill="#E70101"/>
<path d="M41.5554 116.506H85.4613L116.506 85.4609V41.5555L85.4613 10.5102H41.5554L10.5091 41.5555V85.4609L41.5554 116.506ZM86.4607 118.922H40.5546L8.09363 86.4617V40.5547L40.5546 8.09375H86.4607L118.922 40.5547V86.4617L86.4607 118.922Z" fill="white"/>
<path d="M96.0439 59.6C95.0145 61.9785 93.5206 65.5625 91.8369 69.9725C88.2824 79.3447 88.2392 81.1578 86.0338 85.9016C82.7984 92.9094 80.5799 97.6817 75.4147 100.962C66.4484 106.677 56.0178 103.152 55.423 102.935C52.2622 101.823 49.7239 100.156 47.6863 98.2977C42.8047 93.8417 40.1038 87.4817 40.1038 80.8724V45.2225C40.1038 42.9392 41.9539 41.0877 44.2377 41.0877C46.5214 41.0877 48.373 42.9392 48.373 45.2225V62.1753C48.373 62.5794 48.7006 62.907 49.1047 62.907H50.1214C50.5255 62.907 50.8531 62.5794 50.8531 62.1753V32.4992C50.8531 30.2155 52.7038 28.3653 54.987 28.3653H54.9884C57.2708 28.3653 59.1224 30.2155 59.1224 32.4992V62.1753C59.1224 62.5794 59.45 62.907 59.8545 62.907H61.2045C61.6086 62.907 61.9363 62.5794 61.9363 62.1753V26.9431C61.9363 24.6594 63.7878 22.8078 66.0716 22.8078H66.0861C68.3699 22.8078 70.2214 24.6594 70.2214 26.9431V62.1753C70.2214 62.5794 70.5486 62.907 70.9531 62.907H71.8245C72.2286 62.907 72.5563 62.5794 72.5563 62.1753V34.6025C72.5563 32.3202 74.4078 30.4686 76.6916 30.4686H76.7061C78.9899 30.4686 80.84 32.3202 80.84 34.6025V70.4131C80.84 70.6025 80.9938 70.7563 81.1831 70.7563H81.7906C81.9599 70.7563 82.1047 70.6325 82.1286 70.4647C82.5678 67.4778 83.9469 61.6977 88.7469 58.497C91.1122 56.9155 95.1884 55.3639 96.2914 56.6408C96.8563 57.2938 96.4799 58.5702 96.0439 59.6Z" fill="white"/>
</svg>
