<svg width="128" height="128" viewBox="0 0 128 128" fill="none" xmlns="http://www.w3.org/2000/svg">
<path d="M64.9202 22.1135C64.8191 21.8484 64.7136 21.5745 64.6323 21.2954C64.6147 21.2405 64.5957 21.1804 64.5759 21.1204C64.5378 21.0017 64.5005 20.8845 64.4668 20.7666L64.458 20.7329V107.153L64.4646 107.126C64.5005 107 64.5386 106.883 64.5767 106.764L64.6338 106.584C64.7136 106.311 64.8191 106.037 64.9202 105.772C64.9539 105.684 64.9875 105.596 65.0205 105.507V22.3787C64.9868 22.2886 64.9531 22.2007 64.9202 22.1135Z" fill="#393536"/>
<path d="M76.5809 77.1631C76.5392 76.9375 76.4908 76.7149 76.441 76.4937C76.392 76.2725 76.3436 76.052 76.2953 75.833C76.1883 75.398 76.0895 74.9651 75.9715 74.5432C75.858 74.1213 75.7438 73.698 75.6266 73.2952C75.5079 72.8836 75.39 72.4822 75.2692 72.0889C75.2201 71.9255 75.1717 71.7666 75.1227 71.6055C75.4691 71.3901 75.6427 70.9668 75.5255 70.5632C75.1864 69.3914 74.6429 67.0007 74.7381 63.9429C74.6429 60.885 75.1864 58.4944 75.5255 57.3225C75.6427 56.919 75.4691 56.4956 75.1227 56.2803C75.1717 56.1191 75.2201 55.9609 75.2692 55.7969C75.39 55.4036 75.5079 55.0022 75.6266 54.5906C75.7438 54.1878 75.858 53.7644 75.9715 53.3425C76.0895 52.9214 76.1883 52.4878 76.2953 52.0527C76.3436 51.8337 76.392 51.6133 76.441 51.3921C76.4908 51.1709 76.5392 50.9482 76.5809 50.7227C76.9369 48.9268 77.1896 47.0283 77.2035 45.0713L77.2086 44.7044L77.1998 44.3367C77.1925 44.0906 77.1903 43.8445 77.1786 43.5977C77.1434 43.104 77.1185 42.6082 77.0482 42.113L77.0028 41.7417L76.9794 41.5564L76.9486 41.3711L76.8204 40.6299C76.8014 40.5061 76.7713 40.3838 76.7435 40.2615L76.6608 39.8931L76.5765 39.5254C76.5502 39.4031 76.5091 39.2771 76.4747 39.1533L76.2565 38.4092L76.0184 37.731L75.8888 37.3662L75.7482 37.022C75.6522 36.7927 75.5643 36.5606 75.4625 36.3357C75.3607 36.1108 75.2596 35.8867 75.1578 35.6626C75.0553 35.4385 74.9418 35.2224 74.8341 35.0027L74.6708 34.6753L74.4994 34.3538C74.3837 34.1406 74.2723 33.9253 74.1551 33.7144C73.6871 32.8713 73.192 32.0584 72.6903 31.2688C72.1857 30.4829 71.6796 29.7139 71.1691 28.9727C70.6615 28.2344 70.1627 27.5078 69.6734 26.7966C69.4281 26.4436 69.1901 26.0928 68.9557 25.7463C68.7242 25.4006 68.495 25.0593 68.2694 24.7224C68.1573 24.5503 68.046 24.3796 67.9354 24.2097C67.8812 24.1262 67.8277 24.0435 67.7743 23.9614C67.7223 23.8779 67.6717 23.7952 67.6205 23.7124C67.5194 23.5469 67.4154 23.3843 67.3187 23.2195C67.2235 23.0547 67.129 22.8906 67.0353 22.7273C66.9386 22.5662 66.8551 22.4006 66.7694 22.238C66.6852 22.0747 66.5951 21.915 66.5174 21.7517C66.3658 21.4251 66.2054 21.1072 66.0773 20.7864C66.0106 20.6267 65.9403 20.4692 65.8795 20.311C65.7945 20.0774 65.711 19.8467 65.629 19.6204L65.6246 19.6057C65.6012 19.5281 65.5777 19.4497 65.555 19.3728C65.5074 19.2183 65.4613 19.0652 65.4151 18.9143C65.3719 18.762 65.3404 18.6104 65.3031 18.4609C65.2701 18.3115 65.2255 18.165 65.2027 18.0178C65.1771 17.8706 65.1522 17.7256 65.128 17.582C65.1156 17.511 65.1031 17.4392 65.0907 17.3689C65.079 17.2986 65.0746 17.2275 65.0665 17.158C64.9823 16.4702 64.9698 15.8301 65.0013 15.2493C64.975 15.2178 64.9501 15.1841 64.9266 15.1497C65.1742 15.5122 65.5902 15.7502 66.0626 15.7502C66.8214 15.7502 67.4374 15.1343 67.4374 14.3748C67.4374 13.616 66.8214 13 66.0626 13C64.2923 13 64.2843 16.0081 64.296 17.2078C64.2967 17.2832 64.2931 17.3594 64.2967 17.4363C64.3011 17.5125 64.3063 17.5894 64.3107 17.667C64.3209 17.823 64.3319 17.9805 64.3429 18.1409C64.3517 18.302 64.3817 18.4609 64.4007 18.6257C64.4242 18.7891 64.4418 18.9561 64.4711 19.123C64.5179 19.3589 64.5655 19.5984 64.6139 19.843L64.6234 19.8855C64.6454 19.9705 64.6681 20.0562 64.6901 20.1418C64.7355 20.314 64.7809 20.4883 64.827 20.6641C64.8768 20.8391 64.9361 21.0127 64.9918 21.1899C65.0965 21.5474 65.2408 21.8967 65.3756 22.2585C65.4444 22.4387 65.5257 22.6152 65.6019 22.7961C65.6796 22.9763 65.755 23.1594 65.8436 23.3374C65.9293 23.5176 66.0157 23.6985 66.1036 23.8816C66.1937 24.0625 66.2919 24.2405 66.3871 24.4229C66.4347 24.5137 66.483 24.6052 66.5314 24.6968C66.5812 24.7861 66.6317 24.8762 66.6822 24.967C66.7811 25.1436 66.8807 25.3215 66.9811 25.501C67.3956 26.2268 67.8365 26.9585 68.2884 27.6968C68.7381 28.4387 69.212 29.1821 69.6822 29.9417C70.1532 30.7019 70.6271 31.4702 71.0958 32.2517C71.3243 32.6443 71.5594 33.0369 71.7806 33.4375C72.0099 33.8345 72.2259 34.2373 72.4457 34.6416C72.8719 35.4539 73.274 36.283 73.6366 37.1252C73.7223 37.3164 73.7955 37.5112 73.8739 37.7053C73.8534 37.6526 73.8321 37.6006 73.8109 37.5479L73.8461 37.6621L74.0526 38.3462L74.2071 38.9863C74.2313 39.094 74.2643 39.1958 74.284 39.3086L74.3485 39.6418L74.4137 39.9758C74.4349 40.0872 74.4591 40.1978 74.4715 40.3106L74.566 40.9844L74.5895 41.1521L74.6048 41.322L74.6356 41.6611C74.6861 42.1123 74.692 42.5671 74.7191 43.019C74.725 43.2461 74.7228 43.4731 74.725 43.6995L74.7272 44.0393L74.7154 44.3792C74.7081 44.5828 74.7008 44.7856 74.6927 44.9885C74.6766 45.2258 74.6598 45.4617 74.6429 45.6982C74.6327 45.822 74.6283 45.9451 74.6158 46.0681L74.5814 46.4043C74.5572 46.6277 74.5375 46.8511 74.5096 47.073C74.4466 47.5169 74.3968 47.9592 74.317 48.3965C74.2804 48.6155 74.2445 48.8337 74.2079 49.0505C74.1669 49.2681 74.1266 49.4841 74.0856 49.6995C74.0475 49.9155 74.0013 50.1294 73.9552 50.3418C73.9098 50.5549 73.8644 50.7673 73.819 50.9783C73.7692 51.1892 73.7193 51.3987 73.6695 51.6067C73.6219 51.8162 73.5736 52.0242 73.5201 52.23C73.4161 52.6438 73.3158 53.0466 73.2045 53.4561C73.0946 53.8604 72.9855 54.2595 72.8785 54.6528C72.8141 54.8901 72.7511 55.1223 72.6881 55.356C72.2941 55.3582 71.9264 55.6116 71.8033 56.0144C71.3719 57.4229 70.6893 60.2749 70.7904 63.9429C70.6893 67.6108 71.3719 70.4629 71.8033 71.8713C71.9264 72.2742 72.2941 72.5276 72.6881 72.5298C72.7511 72.7634 72.8141 72.9956 72.8785 73.2329C72.9855 73.6262 73.0946 74.0254 73.2045 74.4297C73.3158 74.8391 73.4161 75.242 73.5201 75.6565C73.5736 75.8623 73.6219 76.0696 73.6695 76.2791C73.7193 76.4871 73.7692 76.6965 73.819 76.9075C73.8644 77.1184 73.9098 77.3308 73.9552 77.544C74.0013 77.7571 74.0475 77.971 74.0856 78.1863C74.1266 78.4016 74.1669 78.6177 74.2079 78.8352C74.2445 79.0527 74.2804 79.2703 74.317 79.4893C74.3968 79.9265 74.4466 80.3689 74.5096 80.8128C74.5375 81.0354 74.5572 81.2581 74.5814 81.4815L74.6158 81.8176C74.6283 81.9407 74.6327 82.0637 74.6429 82.1875C74.6598 82.4241 74.6766 82.6599 74.6927 82.8972C74.7008 83.1001 74.7081 83.3037 74.7154 83.5073L74.7272 83.8464L74.725 84.1863C74.7228 84.4126 74.725 84.6397 74.7191 84.8667C74.692 85.3186 74.6861 85.7734 74.6356 86.2246L74.6048 86.5637L74.5895 86.7337L74.566 86.9014L74.4715 87.5752C74.4591 87.688 74.4349 87.7986 74.4137 87.9099L74.3485 88.2439L74.284 88.5772C74.2643 88.69 74.2313 88.7918 74.2071 88.8994L74.0526 89.5396L73.8461 90.2236L73.8109 90.3379C73.8321 90.2852 73.8534 90.2332 73.8739 90.1804C73.7955 90.3745 73.7223 90.5693 73.6366 90.7605C73.274 91.6028 72.8719 92.4319 72.4457 93.2442C72.2259 93.6485 72.0099 94.0513 71.7806 94.4483C71.5594 94.8489 71.3243 95.2415 71.0958 95.634C70.6271 96.4155 70.1532 97.1839 69.6822 97.9441C69.212 98.7036 68.7381 99.447 68.2884 100.189C67.8365 100.927 67.3956 101.659 66.9811 102.385C66.8807 102.564 66.7811 102.742 66.6822 102.919C66.6317 103.01 66.5812 103.1 66.5314 103.19C66.483 103.281 66.4347 103.372 66.3871 103.463C66.2919 103.645 66.1937 103.823 66.1036 104.004C66.0157 104.187 65.9293 104.368 65.8436 104.548C65.755 104.726 65.6796 104.909 65.6019 105.09C65.5257 105.271 65.4444 105.447 65.3756 105.627C65.2408 105.989 65.0965 106.338 64.9918 106.696C64.9361 106.873 64.8768 107.047 64.827 107.222C64.7809 107.397 64.7355 107.572 64.6901 107.744C64.6681 107.83 64.6454 107.915 64.6234 108L64.6139 108.043C64.5655 108.287 64.5179 108.527 64.4711 108.763C64.4418 108.93 64.4242 109.097 64.4007 109.26C64.3817 109.425 64.3517 109.584 64.3429 109.745C64.3319 109.905 64.3209 110.063 64.3107 110.219C64.3063 110.296 64.3011 110.373 64.2967 110.449C64.2931 110.526 64.2967 110.603 64.296 110.678C64.2843 111.878 64.2923 114.886 66.0626 114.886C66.8214 114.886 67.4374 114.27 67.4374 113.511C67.4374 112.751 66.8214 112.136 66.0626 112.136C65.5902 112.136 65.1742 112.374 64.9266 112.736C64.9501 112.702 64.975 112.668 65.0013 112.636C64.9698 112.056 64.9823 111.416 65.0665 110.728C65.0746 110.658 65.079 110.587 65.0907 110.517C65.1031 110.447 65.1156 110.376 65.128 110.304C65.1522 110.16 65.1771 110.015 65.2027 109.868C65.2255 109.721 65.2701 109.574 65.3031 109.425C65.3404 109.275 65.3719 109.124 65.4151 108.971C65.4613 108.821 65.5074 108.667 65.555 108.513C65.5777 108.436 65.6012 108.358 65.6246 108.28L65.629 108.265C65.711 108.039 65.7945 107.808 65.8795 107.575C65.9403 107.417 66.0106 107.259 66.0773 107.099C66.2054 106.779 66.3658 106.461 66.5174 106.134C66.5951 105.971 66.6852 105.811 66.7694 105.648C66.8551 105.485 66.9386 105.32 67.0353 105.158C67.129 104.995 67.2235 104.832 67.3187 104.666C67.4154 104.501 67.5194 104.339 67.6205 104.173C67.6717 104.091 67.7223 104.008 67.7743 103.925C67.8277 103.842 67.8812 103.76 67.9354 103.676C68.046 103.506 68.1573 103.335 68.2694 103.163C68.495 102.826 68.7242 102.485 68.9557 102.139C69.1901 101.793 69.4281 101.442 69.6734 101.089C70.1627 100.378 70.6615 99.6514 71.1691 98.9131C71.6796 98.1719 72.1857 97.4028 72.6903 96.617C73.192 95.8274 73.6871 95.0144 74.1551 94.1714C74.2723 93.9605 74.3837 93.7451 74.4994 93.532L74.6708 93.2105L74.8341 92.8831C74.9418 92.6633 75.0553 92.4473 75.1578 92.2232C75.2596 91.999 75.3607 91.7749 75.4625 91.5501C75.5643 91.3252 75.6522 91.093 75.7482 90.8645L75.8888 90.5195L76.0184 90.1548L76.2565 89.4766L76.4747 88.7324C76.5091 88.6087 76.5502 88.4827 76.5765 88.3604L76.6608 87.9927L76.7435 87.6243C76.7713 87.502 76.8014 87.3797 76.8204 87.2559L76.9486 86.5147L76.9794 86.3294L77.0028 86.1441L77.0482 85.7727C77.1185 85.2776 77.1434 84.7817 77.1786 84.2881C77.1903 84.0413 77.1925 83.7952 77.1998 83.5491L77.2086 83.1814L77.2035 82.8145C77.1896 80.8574 76.9369 78.959 76.5809 77.1631Z" fill="#393536"/>
<path d="M35.7229 64.8621C34.3855 63.7905 33.1572 62.563 32.0359 61.2263H20L23.8262 64.8621H35.7229Z" fill="#393536"/>
<path d="M23.7639 67.2058L20 70.9082H32.071L32.2849 70.6606L35.7705 67.2058H23.7639Z" fill="#393536"/>
<path d="M108.589 65.9871L96.9915 62.6194L99.9834 65.1433H22.6367C22.3188 65.1433 22.061 65.4011 22.061 65.719V66.2544C22.061 66.573 22.3188 66.8308 22.6367 66.8308H99.9834L96.9915 69.3547L108.589 65.9871Z" fill="#393536"/>
<path d="M98.6343 68.3784L107.313 65.9871H101.595L98.6343 68.3784Z" fill="white"/>
</svg>
