<svg width="128" height="128" viewBox="0 0 128 128" fill="none" xmlns="http://www.w3.org/2000/svg">
<path d="M60.8144 90.9095C60.8144 90.9095 53.9772 93.5493 49.5572 100.732C45.1371 107.915 49.1581 112.55 50.9998 113.931C50.9998 113.931 44.2468 113.072 41.208 114.76C38.1692 116.448 38.6603 119.855 39.4891 119.886C39.6426 120.653 42.2516 121.359 43.1112 120.5C44.5845 121.851 57.2309 121.298 62.8175 119.786C68.4041 118.275 66.0711 113.931 66.0711 113.931C57.4765 108.959 60.4846 92.3216 60.8144 90.9095Z" fill="#B2ABAB"/>
<path d="M66.0713 113.931C62.2601 111.726 60.7313 107.227 60.238 102.78C59.5597 105.241 58.3766 107.482 57.2049 109.914C55.6609 113.119 51.1452 113.643 49.4834 112.434C50.0176 113.105 50.5685 113.608 51 113.931C51.8736 115.974 56.9108 116.93 55.049 118.961C53.3593 120.804 46.6296 120.62 45.3186 119.994C44.2989 119.645 44.401 118.545 46.3539 117.367C42.9588 118.195 42.5656 120.052 41.1672 119.703C39.9217 119.528 40.2426 118.409 40.9508 117.602C39.9282 118.446 38.86 118.654 38.9572 117.634C38.6843 118.839 39.0355 119.869 39.4893 119.886C39.6427 120.653 42.2518 121.359 43.1113 120.5C44.5847 121.851 57.2311 121.298 62.8177 119.786C68.4043 118.275 66.0713 113.931 66.0713 113.931Z" fill="#999292"/>
<path d="M49.557 100.732C45.9972 106.517 47.9124 110.649 49.7549 112.759C45.4931 106.302 50.9349 98.1549 56.4631 93.3947C54.2719 94.9608 51.6451 97.3392 49.557 100.732Z" fill="#E8E3E3"/>
<path d="M66.2 117.275C65.7132 118.402 64.5673 119.217 62.7936 119.697C59.2071 120.668 53.1006 121.176 48.9224 121.176C45.7843 121.176 43.6889 120.904 43.1733 120.432L43.1083 120.372L43.046 120.435C42.7431 120.738 42.2346 120.801 41.8614 120.801C40.8431 120.802 39.6701 120.322 39.5793 119.868L39.5652 119.797L39.4926 119.794C39.3037 119.787 39.1196 119.523 39.0237 119.123C38.7651 118.043 39.1453 116.011 41.2528 114.84C42.4727 114.163 44.525 113.804 47.1877 113.804C49.2509 113.804 50.9711 114.02 50.9883 114.022L51.3338 114.066L51.0551 113.857C50.3922 113.36 44.7197 108.769 49.6356 100.78C53.6172 94.3102 59.6413 91.5108 60.6898 91.0611C60.3287 92.913 57.4889 109.04 66.0017 113.997C66.1043 114.203 66.8438 115.782 66.2 117.275ZM66.1399 113.865L66.1172 113.851C57.2099 108.698 60.863 91.1059 60.9041 90.9304L60.9439 90.761L60.7813 90.8235C60.7125 90.8502 53.8645 93.5572 49.4788 100.684C44.8762 108.163 49.4127 112.728 50.6932 113.804C50.0988 113.742 48.7396 113.62 47.1877 113.62C44.4552 113.62 42.4284 113.977 41.1634 114.679C38.9661 115.9 38.5729 118.031 38.8445 119.166C38.9539 119.623 39.1649 119.916 39.4169 119.97C39.6155 120.538 40.8813 120.986 41.8614 120.986C42.2461 120.986 42.7654 120.921 43.1146 120.622C43.9739 121.262 47.1016 121.36 48.9224 121.36C53.1128 121.36 59.2396 120.85 62.8416 119.875C64.6731 119.379 65.8601 118.529 66.3697 117.346C67.0912 115.67 66.1911 113.96 66.1523 113.888L66.1399 113.865Z" fill="#474242"/>
<path d="M49.6781 112.527L49.5405 112.65C51.2393 114.557 53.4777 115.532 55.4097 115.919C57.5988 116.356 59.3725 116.111 59.3725 116.111C59.3116 116.115 53.2496 116.537 49.6781 112.527Z" fill="#474242"/>
<path d="M47.1325 117.118C47.1325 117.118 45.4401 117.611 44.2886 118.222C43.4261 118.679 42.7322 119.297 42.6977 119.857C42.6752 120.223 42.9291 120.542 43.4522 120.804L43.5349 120.64C43.0838 120.413 42.864 120.154 42.8815 119.869C42.958 118.624 47.0907 117.133 47.1325 117.118Z" fill="#474242"/>
<path d="M39.4041 119.348C39.3235 119.686 39.4025 120 39.639 120.281L39.7798 120.162C39.5803 119.925 39.5159 119.673 39.5832 119.391C39.933 117.924 43.6622 116.32 43.6998 116.304C43.6998 116.304 42.2633 116.77 40.9507 117.602C40.1772 118.092 39.5491 118.74 39.4041 119.348Z" fill="#474242"/>
<path d="M56.4702 81.1792C58.4587 84.5865 62.6025 87.165 62.6025 87.165L65.1579 73.4272C65.1579 73.4272 58.6255 71.8785 56.4702 81.1792Z" fill="#B2ABAB"/>
<path d="M62.5375 87.0132C61.8602 86.571 58.3453 84.1837 56.5685 81.1644C58.1419 74.4296 61.964 73.4229 64.1052 73.4229C64.5624 73.4229 64.9011 73.4727 65.0512 73.4998L62.5375 87.0132ZM64.1052 73.2385C62.3346 73.2385 58.0374 74.0105 56.3807 81.1583L56.3726 81.194L56.3909 81.2255C58.3681 84.6132 62.5126 87.217 62.5542 87.2429L62.6688 87.3142L65.2489 73.4443L65.265 73.3582L65.1797 73.338C65.1627 73.3339 64.7536 73.2385 64.1052 73.2385Z" fill="#474242"/>
<path d="M74.0516 86.6123C73.2992 79.9619 74.3303 72.784 74.9464 69.3739C72.6753 68.8554 68.5273 68.4176 65.4999 71.0356C61.1228 74.8209 62.7867 86.0597 58.978 91.3085C55.1696 96.5577 51.5521 107.884 57.5376 112.765C62.6042 116.896 71.0357 117.266 75.3484 116.389C75.6751 116.322 75.978 116.249 76.2542 116.169C82.0093 114.283 83.4449 103.918 78.6024 97.7207C74.9211 93.0099 74.4129 89.8047 74.0516 86.6123Z" fill="#EDE6E6"/>
<path d="M74.0516 86.7045C73.9816 86.084 73.927 85.4588 73.8859 84.8326C71.6182 89.8091 77.7934 95.995 78.4423 101.349C78.9949 105.585 78.3659 109.332 74.3486 112.024C68.3937 116.014 56.9852 113.041 54.7549 108.388C55.2142 110.134 56.0972 111.682 57.5376 112.857C62.6042 116.988 71.0357 117.358 75.3484 116.481C75.6751 116.414 75.978 116.34 76.2542 116.261C82.0093 114.375 83.4449 104.01 78.6024 97.8128C74.9211 93.1021 74.4129 89.8965 74.0516 86.7045Z" fill="#C9C0C0"/>
<path d="M80.8558 110.677C80.0088 113.461 78.3642 115.381 76.2288 116.081C75.9532 116.16 75.6509 116.233 75.3299 116.299C74.0867 116.552 72.5914 116.685 71.0065 116.685C68.4462 116.685 62.0148 116.296 57.5959 112.693C51.4472 107.68 55.585 96.1421 59.0525 91.3629C60.859 88.8733 61.4445 85.0381 62.011 81.3288C62.6583 77.0899 63.2697 73.0865 65.5603 71.1053C67.1201 69.7565 69.1515 69.0725 71.5988 69.0725C72.6432 69.0725 73.7333 69.1975 74.8401 69.4443C74.1862 73.0918 73.2216 80.0919 73.9605 86.6228C74.3446 90.0178 74.9534 93.2006 78.5298 97.7772C81.221 101.221 82.1561 106.405 80.8558 110.677ZM74.1435 86.6019C73.4013 80.0424 74.3847 73.0028 75.037 69.3903L75.0525 69.3039L74.967 69.284C73.8172 69.0214 72.6842 68.8885 71.5988 68.8885C69.1062 68.8885 67.0339 69.5873 65.4397 70.9661C63.0979 72.9914 62.4815 77.0277 61.8289 81.301C61.2658 84.9885 60.6836 88.8014 58.9038 91.2547C55.4015 96.0815 51.2365 107.746 57.4795 112.836C61.9441 116.476 68.4266 116.87 71.0065 116.87C72.6037 116.87 74.1114 116.734 75.3665 116.479C75.6925 116.413 75.9996 116.338 76.283 116.257C78.4803 115.536 80.1669 113.574 81.0323 110.731C82.3487 106.404 81.4015 101.153 78.675 97.6639C75.1282 93.1255 74.5245 89.9688 74.1435 86.6019Z" fill="#7C7979"/>
<path d="M76.5997 69.8527C76.5997 69.8527 75.959 69.6053 74.9466 69.3739C74.3306 72.784 73.2994 79.9619 74.0518 86.6123C74.4132 89.8047 74.9214 93.01 78.6026 97.7207C83.4452 103.918 81.9044 113.547 77.0715 115.801C77.4563 115.69 76.9728 115.935 77.2441 115.804C79.949 116.367 82.2822 115.612 84.7648 115.159C88.368 114.502 91.8552 115.435 92.4385 110.647C93.0058 105.988 89.9521 98.4454 83.9665 92.506C77.5605 86.149 76.5997 69.8527 76.5997 69.8527Z" fill="#B2ABAB"/>
<path d="M88.3832 97.9176C91.1755 107.234 86.1871 109.972 84.7887 110.322C83.3378 110.684 81.9677 110.438 81.3334 109.155C80.7899 112.219 79.2721 114.775 77.0718 115.8C77.4565 115.69 76.973 115.935 77.2444 115.804C79.9492 116.367 82.2825 115.612 84.765 115.159C88.3683 114.502 91.8555 115.435 92.4387 110.647C92.843 107.327 91.4072 102.543 88.3832 97.9176Z" fill="#999292"/>
<path d="M77.1873 115.667C77.1231 115.732 77.0341 115.85 77.256 115.9C77.1146 115.867 77.1118 115.755 77.1873 115.667Z" fill="#474242"/>
<path d="M77.1873 115.667C76.8796 115.834 77.0427 115.864 77.2561 115.9C77.0342 115.85 77.1232 115.732 77.1873 115.667Z" fill="#474242"/>
<path d="M77.2562 115.9L77.1874 115.667C77.1119 115.755 77.1147 115.867 77.2562 115.9Z" fill="#474242"/>
<path d="M92.3473 110.636C91.8947 114.351 89.7227 114.548 86.9728 114.797C86.2511 114.863 85.5046 114.93 84.7481 115.068C84.2678 115.156 83.7865 115.256 83.3212 115.353C81.9408 115.64 80.637 115.912 79.2339 115.912C78.6067 115.912 78.0131 115.858 77.4242 115.746C79.064 114.797 80.3236 113.059 81.0325 110.731C82.3489 106.404 81.4017 101.153 78.6752 97.6639C75.1284 93.1255 74.5247 89.9688 74.1438 86.6019C73.4078 80.0994 74.3679 73.1252 75.0202 69.4853C75.7978 69.6681 76.3433 69.8572 76.5118 69.9183C76.5856 71.0132 77.7404 86.4571 83.9016 92.5709C90.1371 98.7584 92.8703 106.342 92.3473 110.636ZM84.0317 92.4406C77.724 86.1813 76.7011 70.0099 76.6917 69.8473L76.6882 69.788L76.633 69.7666C76.6267 69.7643 75.9743 69.5141 74.9672 69.284L74.8731 69.2626L74.8557 69.3575C74.2018 72.9801 73.2159 80.0395 73.9607 86.6227C74.3448 90.0177 74.9536 93.2005 78.5301 97.7772C81.2212 101.221 82.1563 106.405 80.8561 110.677C80.1409 113.028 78.857 114.762 77.1875 115.667L77.2563 115.9C77.9005 116.032 78.5477 116.096 79.2339 116.096C80.656 116.096 82.0301 115.81 83.3585 115.533C83.8231 115.437 84.3031 115.337 84.7813 115.249C85.5296 115.113 86.2715 115.046 86.9895 114.981C89.71 114.734 92.0594 114.52 92.53 110.658C92.8179 108.295 92.1835 105.227 90.744 102.019C89.1998 98.5779 86.8788 95.2657 84.0317 92.4406Z" fill="#474242"/>
<path d="M89.3549 114.034C82.8458 113.817 79.6276 115.102 79.1372 116.53C78.1294 119.464 86.9231 123.659 92.7473 123.537C94.4639 124.518 97.1494 123.414 97.2166 122.127C98.7551 122.249 100.688 121.785 99.7976 119.245C98.9698 116.885 95.8125 114.249 89.3549 114.034Z" fill="#B2ABAB"/>
<path d="M99.1563 117.998C99.6809 119.462 99.2109 120.314 98.3916 120.599C97.5177 120.773 96.01 120.052 95.4855 119.178C96.5125 120.467 96.1694 121.451 94.9458 121.8C93.7222 121.975 91.7929 121.147 91.1755 120.262C91.8146 121.385 90.8755 121.93 89.6954 121.822C85.6095 121.986 77.9621 117.43 79.8665 115.62C79.4868 115.907 79.2454 116.215 79.1372 116.53C78.1294 119.464 86.9231 123.659 92.7473 123.537C94.4639 124.517 97.1494 123.414 97.2166 122.127C98.7551 122.249 100.688 121.785 99.7976 119.245C99.7604 119.139 99.203 118.105 99.1563 117.998Z" fill="#999292"/>
<mask id="mask0_25_100" style="mask-type:alpha" maskUnits="userSpaceOnUse" x="78" y="113" width="23" height="11">
<path d="M78.9487 113.894H100.11V124H78.9487V113.894Z" fill="black"/>
</mask>
<g mask="url(#mask0_25_100)">
<path d="M92.7693 123.449L92.7902 123.461C93.2077 123.699 93.718 123.825 94.2669 123.825C95.6921 123.825 97.0834 122.998 97.1291 122.122L97.1338 122.032L97.2234 122.039C97.3693 122.051 97.5148 122.057 97.6558 122.057C98.2097 122.057 99.2087 121.959 99.6744 121.302C100.008 120.832 100.022 120.149 99.7145 119.274C98.8899 116.922 95.7344 114.334 89.3517 114.122C88.875 114.105 88.4045 114.097 87.9529 114.097C82.1369 114.097 79.6282 115.368 79.2194 116.558C79.0427 117.073 79.179 117.65 79.6247 118.275C81.4896 120.886 88.1845 123.545 92.745 123.449L92.7693 123.449ZM94.2669 124C93.6969 124 93.1645 123.87 92.7248 123.624C88.1352 123.713 81.3703 121.021 79.4827 118.376C79.0023 117.703 78.858 117.072 79.054 116.502C79.4823 115.255 82.045 113.923 87.9529 113.923C88.4064 113.923 88.8789 113.931 89.3573 113.947C95.8285 114.162 99.0357 116.809 99.8796 119.216C100.206 120.148 100.185 120.884 99.8171 121.403C99.3313 122.088 98.3736 122.232 97.6558 122.232C97.5378 122.232 97.417 122.228 97.2951 122.22C97.1648 123.162 95.7585 124 94.2669 124Z" fill="#474242"/>
</g>
<path d="M97.2163 122.127C97.2163 122.127 97.2163 122.127 97.2163 122.127C97.2325 122.128 97.2482 122.129 97.2163 122.127Z" fill="#999292"/>
<path d="M89.0269 118.67C90.2581 119.562 93.3905 122.087 93.1105 123.036C93.0445 123.26 92.7574 123.422 92.2533 123.449L92.2628 123.624C92.8817 123.591 93.2005 123.401 93.2992 123.067C93.4132 122.68 93.1175 122.251 92.6437 121.672C91.5417 120.327 89.0269 118.67 89.0269 118.67Z" fill="#474242"/>
<path d="M95.5751 119.32C94.7445 118.531 92.5659 117.141 92.5659 117.141C92.5791 117.153 92.6299 117.189 92.7114 117.246C95.4189 119.15 96.9838 120.797 97.1169 121.883C97.1545 122.187 97.1081 122.464 96.92 122.681L97.0532 122.796C97.2858 122.527 97.3577 122.244 97.3123 121.873C97.2157 121.086 96.5176 120.216 95.5751 119.32Z" fill="#474242"/>
<path d="M84.5499 73.9799C80.9892 70.4101 76.0781 70.6124 76.0781 70.6124C76.0781 70.6124 77.856 72.7759 78.9378 74.4157C80.1213 76.209 80.3799 77.4938 79.8118 79.1498C79.4974 80.0664 79.5425 80.7622 79.1629 81.2659C82.3117 81.7201 85.4564 82.1597 88.5717 82.8156C88.2482 79.2202 86.4805 75.9154 84.5499 73.9799Z" fill="#B2ABAB"/>
<path d="M85.1064 74.582C86.7167 77.4601 87.0818 79.7994 87.0487 82.5114C87.5574 82.6077 88.0653 82.7093 88.5724 82.8159C88.2798 79.57 86.8103 76.5606 85.1064 74.582Z" fill="#999292"/>
<path d="M84.6151 73.9145C81.0673 70.3579 76.123 70.5177 76.0742 70.5202L76.0817 70.7045C76.1303 70.702 80.9926 70.5442 84.4844 74.0448C86.434 75.9991 88.1492 79.2637 88.4699 82.7948C88.5324 82.8077 88.5949 82.8203 88.657 82.8336C88.3443 79.2347 86.5997 75.9044 84.6151 73.9145Z" fill="#474242"/>
<path d="M75.8537 70.5872C75.8537 70.5872 68.6342 71.9247 65.1581 72.5609C59.3801 74.8547 60.5768 79.9821 61.1175 81.7319C61.1175 81.7319 61.4517 80.4887 61.7853 78.9693C61.4744 80.2122 62.3726 84.8396 64.1911 86.244C64.1911 86.244 64.0302 84.8165 64.3984 83.0668C64.3984 83.0668 64.4654 84.4898 64.71 86.1235L69.7356 90.0849C70.8384 89.4657 71.8878 88.5799 72.8858 87.7173C75.8938 87.1956 77.4285 83.9727 77.6581 82.6834C77.6581 82.6834 80.621 80.5348 80.4259 77.0968C80.2311 73.6589 75.8537 70.5872 75.8537 70.5872Z" fill="#EDE6E6"/>
<path d="M75.8535 70.5872C75.8535 70.5872 74.915 70.761 73.5518 71.0132C75.6718 72.0569 78.9477 74.139 77.8744 78.4504C77.4599 77.3569 76.9421 76.9649 76.374 76.8775C76.6946 78.4798 76.8111 81.266 75.6326 82.7906C75.6787 81.2484 75.0392 79.9218 74.3487 79.2079C73.9413 83.2575 72.3683 88.5019 68.2622 88.9239L69.7354 90.0849C70.8382 89.4657 71.8876 88.5799 72.8856 87.7173C75.8936 87.1956 77.4283 83.9727 77.6579 82.6834C77.6579 82.6834 80.6208 80.5348 80.4257 77.0968C80.2309 73.6589 75.8535 70.5872 75.8535 70.5872Z" fill="#C9C0C0"/>
<path d="M75.9065 70.5117L75.8747 70.4896L75.8367 70.4965C75.8367 70.4965 68.6172 71.8338 65.1241 72.4754C59.7272 74.6178 60.2421 79.2113 61.0291 81.759L61.1232 82.0635L61.2061 81.7558C61.2087 81.746 61.4063 81.0084 61.6474 79.9868C61.7614 81.864 62.6413 85.1637 64.1347 86.3169L64.3067 86.4498L64.2824 86.2336C64.2812 86.2216 64.1704 85.1953 64.3581 83.8363C64.4039 84.4091 64.485 85.2448 64.6185 86.1374L64.8006 86.1099C64.5594 84.4999 64.4907 83.0769 64.49 83.0627L64.4563 82.3437L64.3079 83.0482C64.0249 84.3923 64.0532 85.561 64.082 86.0326C62.4323 84.5337 61.6117 80.3454 61.8579 79.0658C61.8636 79.0403 61.8693 79.0148 61.8749 78.9889L61.6957 78.9469C61.69 78.9699 61.6843 78.9946 61.6793 79.0201C61.4545 80.0392 61.2296 80.9324 61.1122 81.3878C60.4049 78.8528 60.1486 74.6487 65.1746 72.6515C68.5024 72.0424 75.2611 70.7907 75.8316 70.685C76.2233 70.9693 80.1523 73.8988 80.3338 77.1018C80.5234 80.4482 77.6328 82.5877 77.6038 82.6089L77.5735 82.6307L77.5672 82.6672C77.3639 83.8092 75.8731 87.1057 72.8697 87.6267L72.8445 87.6311L72.8252 87.6479C71.7868 88.5454 70.7655 89.4011 69.6903 90.0048L69.7806 90.1651C70.864 89.5569 71.8873 88.7017 72.9262 87.8037C75.9242 87.2679 77.477 84.1295 77.742 82.7351C78.0558 82.4936 80.7024 80.3523 80.5178 77.0915C80.3227 73.6485 76.0867 70.6383 75.9065 70.5117Z" fill="#7C7979"/>
<path d="M70.3273 72.5022C70.3084 72.5253 69.0195 74.1364 68.311 76.7364C67.6359 79.2149 68.096 80.7423 68.096 80.7423C67.7801 75.9411 70.4422 72.6521 70.4693 72.6196L70.3273 72.5022Z" fill="#7C7979"/>
<path d="M61.6647 80.2614L61.8468 80.2342C61.6546 78.9567 62.4717 77.0217 62.48 77.0024C62.48 77.0024 61.465 78.9321 61.6647 80.2614Z" fill="#7C7979"/>
<path d="M71.9912 88.3576L72.1057 88.5018C73.0823 87.7277 73.7516 86.6549 74.2064 85.6178C74.9557 83.9089 74.9424 82.2522 74.9424 82.2522C74.9387 82.2929 74.5154 86.3567 71.9912 88.3576Z" fill="#7C7979"/>
<path d="M77.2241 83.7453L77.3844 83.8357C78.2325 82.3293 77.5668 78.3359 77.5668 78.3359C77.5715 78.3753 78.0421 82.2917 77.2241 83.7453Z" fill="#7C7979"/>
<path d="M45.3905 80.0345C44.5513 80.7121 41.7094 78.6729 38.6634 77.5042C38.6182 77.1906 39.262 76.1368 39.262 76.1368C39.262 76.1368 41.7058 76.8784 42.1657 76.5537C42.6256 76.2289 39.832 74.34 39.832 74.34L40.4876 72.9718C40.4876 72.9718 43.6232 75.1521 43.9083 75.0242C44.1933 74.8964 43.5662 71.3061 43.5662 71.3061C43.5662 71.3061 44.3491 71.0782 44.4993 71.0211C44.6494 70.964 44.7323 73.6208 45.7326 74.4988C47.241 75.8224 47.7849 77.7605 47.7849 77.7605C47.2433 78.1882 46.2297 79.3569 45.3905 80.0345Z" fill="#4D8202"/>
<path d="M45.7325 74.4988C44.7322 73.6208 44.6494 70.964 44.4992 71.0211C44.349 71.0782 43.5661 71.3061 43.5661 71.3061C43.5661 71.3061 44.1932 74.8964 43.9082 75.0242C43.6231 75.1521 40.4875 72.9718 40.4875 72.9718L40.0991 73.7827C40.503 73.9749 40.8719 74.2324 41.2408 74.5088C41.8151 74.9397 42.3889 75.5541 42.1701 76.3081C42.2299 76.4182 42.2357 76.5041 42.1656 76.5537C41.7057 76.8784 39.2619 76.1368 39.2619 76.1368C39.2619 76.1368 39.136 76.3429 38.9995 76.5997C40.5032 77.5901 42.5288 77.8767 44.0841 76.8535C44.0343 77.2525 44.0343 77.6517 43.9844 78.0506C45.1537 77.7041 46.1726 76.9438 46.9758 75.9986C46.6666 75.4961 46.2582 74.9601 45.7325 74.4988Z" fill="#589C00"/>
<path d="M38.762 77.4354C39.8459 77.8558 40.9076 78.3858 41.8464 78.8542C43.4537 79.6564 44.8418 80.3491 45.3277 79.9568C45.7799 79.5916 46.2899 79.0757 46.7399 78.6205C47.1052 78.2513 47.4243 77.9288 47.6697 77.7255C47.5616 77.3858 46.9843 75.7299 45.6666 74.5735C44.9421 73.9379 44.6842 72.4211 44.5457 71.6062C44.5144 71.4225 44.4825 71.2341 44.4574 71.141C44.2654 71.2042 43.8577 71.3247 43.6794 71.3768C43.7217 71.6254 43.8446 72.3634 43.9429 73.1041C44.195 75.005 44.0469 75.0712 43.9489 75.1151C43.8637 75.1537 43.7213 75.2174 42.0368 74.1298C41.3915 73.7132 40.7618 73.2824 40.5269 73.1205L39.9589 74.3059C40.4866 74.6663 42.3113 75.9486 42.3164 76.4514C42.3171 76.5268 42.2839 76.5922 42.223 76.6351C41.769 76.9555 39.774 76.3927 39.3073 76.2547C39.0861 76.6256 38.7871 77.1969 38.762 77.4354ZM44.9344 80.2706C44.2375 80.2706 43.1456 79.7258 41.7573 79.0328C40.8043 78.5572 39.7242 78.018 38.6275 77.5974L38.5729 77.5762L38.5645 77.5185C38.5165 77.1861 39.066 76.2658 39.1767 76.085L39.2169 76.019L39.2907 76.0414C40.2176 76.3227 41.8022 76.6881 42.108 76.4722C42.1148 76.4671 42.117 76.4647 42.1169 76.4533C42.1138 76.1424 40.7461 75.0788 39.776 74.4227L39.7047 74.3746L40.4483 72.8232L40.5444 72.8901C41.9704 73.8814 43.5709 74.8954 43.8584 74.9292C43.9632 74.6704 43.7462 72.9176 43.4677 71.3231L43.4524 71.2354L43.5381 71.2105C43.5459 71.2079 44.3189 70.9829 44.4637 70.9276C44.4954 70.9157 44.5307 70.9185 44.5605 70.9355C44.639 70.9807 44.6612 71.0949 44.7423 71.5728C44.8767 72.363 45.1269 73.8347 45.7981 74.4236C47.3115 75.7517 47.8582 77.6535 47.8808 77.7338L47.8988 77.7977L47.8465 77.8392C47.6045 78.03 47.2534 78.3851 46.8818 78.761C46.4281 79.2199 45.9139 79.7399 45.453 80.1121C45.3177 80.2212 45.1438 80.2706 44.9344 80.2706Z" fill="#2C4E00"/>
<path d="M61.7657 83.0987C58.1959 80.0808 50.5391 72.2232 45.5665 78.5089C42.7711 82.042 44.7136 85.4963 47.5712 88.2042C50.5397 91.0172 54.5232 93.0463 55.3208 93.6094C56.8863 94.7142 80.4202 106.209 81.5281 104.22C83.077 101.438 65.2962 86.0828 61.7657 83.0987Z" fill="#F78F1E"/>
<path d="M61.7657 83.0987C58.1959 80.0808 50.5391 72.2232 45.5665 78.5089C44.5016 79.8549 44.1258 81.1893 44.2247 82.4754C44.3514 79.7615 46.9583 76.8538 49.9285 77.0025C49.9285 77.1773 49.7537 77.7949 49.9285 77.7949C52.3757 77.7949 54.0334 77.2335 56.3305 79.3244C56.5053 79.674 56.547 79.9865 56.3722 80.3362C58.8192 80.3362 57.4958 82.7333 57.2045 83.5197C57.3938 84.3063 60.2344 83.1845 61.5322 83.8798C62.0593 84.3207 61.1468 85.768 60.444 86.3062C61.0434 86.2661 62.668 85.1801 62.7688 85.3502C63.9252 87.3007 67.168 87.9499 67.168 90.5116C67.168 90.6866 67.867 90.3368 68.2168 89.9872C68.5664 91.3856 67.5176 92.2595 66.9932 93.4831C68.0141 93.0737 69.1781 91.0943 70.2268 91.9682C72.6778 93.8748 75.6357 96.4915 78.0396 98.351C72.994 92.738 64.1445 85.1095 61.7657 83.0987Z" fill="#F9B762"/>
<path d="M78.0054 101.349C74.9248 102.311 71.5381 99.4262 68.7414 97.3287C68.5665 97.1539 68.2623 96.2235 68.2623 95.8741C65.9663 97.4379 62.9091 95.6462 63.0823 94.961C63.5207 93.7593 64.0655 93.1334 63.8905 91.9101C61.4433 93.8327 58.2534 93.0551 56.7895 91.9101C56.6147 91.5604 57.3794 91.2324 57.3138 90.6852C54.5172 90.6852 49.0596 85.7763 49.1494 84.9037C49.3242 83.8545 50.1712 83.3888 50.5914 81.6971C49.3045 84.1398 46.9207 84.5013 45.861 84.2661C45.5569 84.1141 44.8441 83.7975 44.3516 83.2941C44.7651 85.0773 46.0352 86.7486 47.5714 88.2042C50.5399 91.0172 54.5233 93.0463 55.321 93.6094C56.8864 94.7142 80.4204 106.208 81.5282 104.22C81.753 103.816 81.5687 103.147 81.0823 102.29C80.3216 102.638 79.2391 102.006 78.3551 101.873C78.3551 101.873 77.8308 101.699 78.0054 101.349Z" fill="#D87512"/>
<path d="M81.4477 104.175C81.3808 104.295 81.1788 104.358 80.8636 104.358H80.8632C76.8806 104.358 56.7662 94.5167 55.3741 93.5339C55.1888 93.4032 54.8463 93.2016 54.3723 92.9226C52.8155 92.0061 49.9175 90.3006 47.6346 88.1373C44.0061 84.6988 43.3346 81.4784 45.6389 78.5659C46.8657 77.015 48.3599 76.2289 50.0799 76.2289C53.7962 76.2289 57.8741 79.8126 60.5722 82.1838C60.9794 82.5413 61.3638 82.8794 61.7063 83.1691C69.6459 89.8804 82.7385 101.857 81.4477 104.175ZM61.8255 83.0283C61.484 82.7398 61.1003 82.4025 60.6942 82.0455C57.9749 79.6561 53.8656 76.0449 50.0799 76.0449C48.3007 76.0449 46.7579 76.8548 45.4944 78.4514C43.1208 81.4519 43.7983 84.7556 47.5081 88.2712C49.806 90.4485 52.7156 92.1613 54.2789 93.0814C54.7314 93.3476 55.0888 93.5578 55.268 93.6845C56.6785 94.6802 76.7007 104.542 80.8632 104.543H80.8636C81.2606 104.543 81.5042 104.451 81.6084 104.265C83.2697 101.282 64.0253 84.8879 61.8255 83.0283Z" fill="#5E1D00"/>
<path d="M45.8608 86.2617L45.9098 86.4394C46.8713 86.174 47.6838 85.6816 48.3499 85.1227C49.8857 83.8341 50.4858 82.0928 50.4858 82.0928C50.4709 82.126 48.9567 85.4073 45.8608 86.2617Z" fill="#5E1D00"/>
<path d="M59.6255 86.7095C59.6255 86.7095 61.126 86.3706 62.0352 85.1394C62.311 84.766 62.5402 84.3257 62.6682 83.8129L62.4896 83.7681C61.9629 85.8744 59.6492 86.7013 59.6255 86.7095Z" fill="#5E1D00"/>
<path d="M68.6488 89.2347C68.8855 91.7416 67.1904 93.436 67.1733 93.4528C67.1733 93.4528 68.2767 92.6129 68.6804 91.0667C68.8234 90.5189 68.8965 89.8968 68.8321 89.2173L68.6488 89.2347Z" fill="#5E1D00"/>
<path d="M60.1201 96.0303L60.1583 96.2105C60.6977 96.0948 61.1663 95.8927 61.5678 95.6503C62.9106 94.8392 63.3478 93.4803 63.3478 93.4803C63.3383 93.5011 62.3735 95.5469 60.1201 96.0303Z" fill="#5E1D00"/>
<path d="M79.1626 81.2659C79.0107 81.4673 78.8608 81.645 78.7182 81.8043C78.4764 82.1565 76.6916 87.2493 76.6916 88.8452C76.6916 88.8452 70.8596 92.1604 69.8159 94.8616C68.7721 97.5629 65.3343 96.9491 64.5976 97.133C63.861 97.3173 61.1598 99.7728 65.4571 102.904C69.7543 106.035 71.9031 102.904 72.8855 101.308C73.8677 99.7115 80.5011 97.4029 85.5318 91.8937C88.0892 89.0933 88.8447 85.8511 88.5714 82.8156C85.4561 82.1597 82.8706 81.2659 79.1626 81.2659Z" fill="#B2ABAB"/>
<path d="M64.7498 97.9176C66.6489 97.6491 69.4404 97.5617 70.5345 95.1201C72.1441 91.9035 76.2356 90.4025 76.9565 89.288C77.6559 88.0205 77.2239 85.8795 78.8107 81.6971C78.7801 81.7325 78.7485 81.7707 78.7182 81.8043C78.4764 82.1566 76.6917 87.2493 76.6917 88.8452C76.6917 88.8452 70.8596 92.1604 69.8159 94.8617C68.7722 97.5629 65.3343 96.9491 64.5977 97.133C64.1117 97.2546 62.771 98.3651 63.1487 100.006C63.211 98.6637 63.9106 98.0363 64.7498 97.9176Z" fill="#E8E3E3"/>
<path d="M87.0503 82.3507C87.0165 85.1097 86.0886 88.0755 83.6906 90.8484C80.4131 94.6375 76.4652 95.5086 72.9658 98.6398C71.8608 99.5604 70.9288 101.079 69.703 101.917C68.6362 102.646 64.3425 102.573 63.0825 99.4991C63.2063 102.529 67.4013 104.239 68.9165 104.239C70.9951 104.208 72.2136 102.4 72.8859 101.308C73.8681 99.7115 80.5015 97.4029 85.5322 91.8937C88.0896 89.0933 88.8457 85.8511 88.5725 82.8159C88.0653 82.7092 87.5587 82.447 87.0503 82.3507Z" fill="#999292"/>
<path d="M88.4701 82.7948C88.7461 85.8311 87.9911 89.0646 85.4644 91.8318C82.3923 95.1961 78.7577 97.3414 76.1041 98.9073C74.4182 99.9025 73.1999 100.621 72.8072 101.26C72.3506 102.002 71.281 103.74 69.5208 104.087C68.3292 104.322 66.98 103.899 65.5117 102.829C63.3101 101.226 63.0485 99.8596 63.2166 98.9963C63.4215 97.9455 64.3036 97.3016 64.6201 97.2224C64.7586 97.188 65.0115 97.1832 65.3322 97.1772C66.6302 97.1535 69.0464 97.1097 69.9022 94.8948C70.9218 92.2553 76.6794 88.9586 76.7375 88.9254L76.7838 88.8989V88.8452C76.7838 87.311 78.0302 83.4537 78.7185 81.8043C78.7185 81.8043 78.1308 82.8654 77.4385 84.9545C76.9802 86.3375 76.6153 87.9212 76.6005 88.7919C76.0088 89.1322 70.7363 92.2247 69.7304 94.8285C68.9193 96.9276 66.5835 96.9702 65.3287 96.9932C64.9967 96.9993 64.7344 97.0043 64.5756 97.0438C64.1357 97.1539 63.2447 97.8886 63.0358 98.9611C62.8575 99.877 63.1235 101.317 65.4034 102.978C66.6409 103.88 67.802 104.334 68.866 104.334C69.1008 104.334 69.3315 104.312 69.5568 104.267C71.3956 103.905 72.4948 102.119 72.9642 101.356C73.3328 100.757 74.597 100.011 76.1978 99.0661C78.8612 97.4938 82.5093 95.3407 85.6004 91.9559C88.1517 89.1618 88.924 85.9 88.6573 82.8336C88.5952 82.8203 88.5327 82.8077 88.4701 82.7948Z" fill="#474242"/>
<path d="M53.578 87.1649C53.7622 86.3358 52.1353 84.9547 50.8767 85.6607C50.6926 84.8013 45.9797 86.4716 47.7151 90.7847C49.4506 95.0977 54.9307 95.3009 55.6959 94.5009C56.3712 93.7949 55.4196 92.7821 54.7444 91.8707C55.7266 90.5296 54.6216 87.4411 53.578 87.1649Z" fill="#B2ABAB"/>
<path d="M50.8901 85.6541C49.9529 86.3454 49.5863 87.7296 49.3047 88.8225C50.3385 86.666 51.9669 85.1734 53.5575 86.8024C53.3267 86.0019 51.9753 85.0589 50.8901 85.6541Z" fill="#999292"/>
<path d="M53.5785 87.165C53.5809 87.1536 53.5815 87.1417 53.5834 87.1302C52.1971 87.3143 51.6936 89.3839 51.3659 90.6852C51.8365 89.6665 52.788 88.1241 53.6705 88.2699C54.4072 88.4081 54.4531 90.5719 54.0849 91.1246C53.5323 92.2294 54.6229 93.0399 53.5575 93.8327C52.5675 94.5694 51.5867 94.3015 50.1714 93.7122C52.4074 95.1267 55.1694 95.0519 55.6963 94.5009C56.3717 93.7949 55.4201 92.7821 54.7448 91.8707C55.727 90.5296 54.622 87.4411 53.5785 87.165Z" fill="#999292"/>
<path d="M55.6296 94.4372C55.4323 94.6436 54.8483 94.7767 54.1417 94.7767C52.3883 94.7767 49.0796 93.9287 47.8007 90.7505C47.0939 88.9939 47.5174 87.7785 47.9971 87.0687C48.7041 86.0221 49.8774 85.5345 50.4476 85.5345C50.5403 85.5345 50.7588 85.5487 50.7869 85.68L50.813 85.8022L50.922 85.7409C51.1381 85.6197 51.376 85.5582 51.6293 85.5582C52.2781 85.5582 52.893 85.9632 53.2147 86.364C53.4371 86.6414 53.5368 86.926 53.4881 87.1447L53.469 87.2313L53.5546 87.254C53.9691 87.3634 54.4343 87.9924 54.7395 88.8553C55.0549 89.7473 55.2259 91.0576 54.6703 91.8163L54.6301 91.8709L54.6705 91.9255C54.755 92.0395 54.8439 92.1553 54.9334 92.2717C55.5393 93.0607 56.166 93.8763 55.6296 94.4372ZM54.8581 91.8691C55.4091 91.0491 55.2516 89.7507 54.9132 88.7941C54.6014 87.9127 54.1356 87.276 53.6812 87.1015C53.7066 86.8421 53.5942 86.5426 53.3584 86.2487C52.9322 85.7172 52.2534 85.3743 51.6293 85.3743C51.3787 85.3743 51.1411 85.4279 50.9217 85.5335C50.8606 85.4417 50.7289 85.3502 50.4476 85.3502C49.8198 85.3502 48.5971 85.8514 47.8445 86.9655C47.3397 87.7126 46.8928 88.9876 47.6298 90.8191C48.9455 94.0887 52.3421 94.961 54.1417 94.961C54.9192 94.961 55.5251 94.8127 55.7626 94.5647C56.4082 93.8896 55.7023 92.9705 55.0794 92.1594C55.0045 92.0623 54.9299 91.965 54.8581 91.8691Z" fill="#474242"/>
<path d="M53.0995 87.1858C51.904 87.6491 51.3657 90.6852 51.3657 90.6852C51.3725 90.6562 52.0599 87.7861 53.166 87.3575C53.418 87.2603 53.6677 87.3003 53.9295 87.4793L54.0336 87.3274C53.7219 87.1142 53.4077 87.0668 53.0995 87.1858Z" fill="#474242"/>
<path d="M49.2939 88.866C49.3008 88.8358 50.0048 85.8445 51.383 85.5787L51.3481 85.3979C49.8534 85.6861 49.2939 88.866 49.2939 88.866Z" fill="#474242"/>
<path d="M67.8093 96.8546C69.2749 96.5384 70.7971 94.8934 70.7971 94.8934C70.7811 94.908 69.1867 96.3693 67.7705 96.6748L67.8093 96.8546Z" fill="#474242"/>
<path d="M78.9938 4.1031C77.833 4.25178 76.4924 6.12175 74.7887 9.19854C73.1829 12.0987 72.0142 15.3785 71.4209 18.9407C70.3345 25.4624 71.1757 32.9319 74.7887 40.7535C75.4026 40.8763 79.1472 41.7357 79.1472 41.7357C79.1472 41.7357 79.3962 38.2994 81.91 32.2201C85.578 23.349 85.186 17.0822 83.1378 10.6106C81.8972 6.69082 80.6356 3.89327 78.9938 4.1031Z" fill="#B2ABAB"/>
<path d="M79.3572 4.10797C87.5579 20.3105 78.2803 34.8833 78.9986 41.7016C79.093 41.7234 79.1473 41.7357 79.1473 41.7357C79.1473 41.7357 79.3963 38.2994 81.91 32.2202C85.5781 23.3491 85.1861 17.0822 83.1378 10.6107C81.9903 6.98492 80.8248 4.32162 79.3572 4.10797Z" fill="#999292"/>
<path d="M78.7842 4.14886C77.6716 4.48 76.3906 6.30509 74.7887 9.19856C73.1828 12.0987 72.0142 15.3785 71.4208 18.9407C70.4042 25.0442 71.0758 31.9774 74.1277 39.2528C73.6786 36.4436 72.8167 33.64 72.4556 30.8082C71.9911 27.1632 72.2237 22.7261 72.824 18.4686C73.4994 13.6802 75.755 7.52437 78.7842 4.14886Z" fill="#E8E3E3"/>
<path d="M81.8251 32.1848C79.5761 37.6243 79.1327 40.995 79.0657 41.6224C78.4756 41.4873 75.5117 40.8085 74.853 40.6724C71.5095 33.4154 70.3544 25.9065 71.512 18.9558C72.089 15.4921 73.2185 12.2243 74.8694 9.24307C76.7574 5.83391 77.9943 4.32381 79.0058 4.19473C80.7113 3.97627 82.0071 7.34216 83.0502 10.6384C84.7808 16.1057 85.8298 22.4999 81.8251 32.1848ZM78.9824 4.0119C77.8917 4.15146 76.6533 5.6411 74.7085 9.15406C73.0475 12.1533 71.911 15.441 71.3303 18.9256C70.164 25.9263 71.3312 33.4879 74.7053 40.7921L74.7249 40.8346L74.771 40.8437C75.3766 40.9649 79.0894 41.8168 79.127 41.8257L79.2318 41.8496L79.2393 41.7424C79.2419 41.7082 79.5158 38.2514 81.9952 32.2552C86.0226 22.5157 84.9667 16.0832 83.2258 10.5828C82.1056 7.04394 80.8064 3.77742 78.9824 4.0119Z" fill="#474242"/>
<path d="M54.6527 33.3867C49.1889 26.9404 40.4186 24.1028 32.4292 24.7306C23.8345 25.4055 27.6562 30.7621 29.9737 33.1373C32.5286 35.7559 36.8187 39.0959 43.9707 40.0781C51.5476 41.1187 57.1697 42.9022 58.8272 45.0508C59.8709 43.3317 64.2909 41.2446 64.2909 41.2446C64.2909 41.2446 60.1164 39.8326 54.6527 33.3867Z" fill="#B2ABAB"/>
<path d="M38.6911 36.9154C34.2337 34.776 28.5148 32.0769 27.4235 26.7404C26.2593 28.7024 28.4438 31.5694 29.9737 33.1373C32.5287 35.756 36.8188 39.096 43.9707 40.0782C51.5476 41.1187 57.1697 42.9022 58.8273 45.0508C58.8465 45.019 58.8692 44.9871 58.891 44.9549C53.2401 38.9732 44.7632 40.0383 38.6911 36.9154Z" fill="#999292"/>
<path d="M57.538 36.5175C57.6735 36.6528 57.8313 36.7882 58.0055 36.9154C57.79 36.7153 57.5698 36.5045 57.3467 36.2868C57.4105 36.3635 57.4754 36.4398 57.538 36.5175Z" fill="#E8E3E3"/>
<path d="M32.4293 24.7306C29.4665 24.9631 27.9795 25.7525 27.3975 26.7839C33.0146 22.9758 47.0034 26.3815 55.197 34.0159C55.0169 33.8111 54.8358 33.6025 54.6527 33.3867C49.1889 26.9404 40.4187 24.1028 32.4293 24.7306Z" fill="#E8E3E3"/>
<path d="M55.1968 34.0159C55.9428 34.8644 56.6618 35.6176 57.3465 36.2868C56.6889 35.494 55.9694 34.7359 55.1968 34.0159Z" fill="#E8E3E3"/>
<path d="M58.8188 44.8933C57.1023 42.8328 51.7143 41.0486 43.9831 39.9869C38.3903 39.2187 33.8293 36.9571 30.0395 33.0729C29.2032 32.2161 26.537 29.2551 27.3339 27.1357C27.8255 25.8282 29.5423 25.0496 32.4362 24.8224C33.1531 24.7658 33.8852 24.7375 34.6118 24.7375C42.4944 24.7375 49.9601 27.9929 54.5823 33.446C59.332 39.0496 63.161 40.8779 64.0611 41.2532C63.2108 41.6694 59.8467 43.3813 58.8188 44.8933ZM54.7228 33.327C50.066 27.8332 42.5479 24.5532 34.6118 24.5532C33.8804 24.5532 33.1435 24.5819 32.4218 24.6387C29.4504 24.8722 27.6806 25.6906 27.1614 27.0711C26.3491 29.2314 28.8113 32.0781 29.9076 33.2017C33.7273 37.1165 38.3231 39.3955 43.9581 40.1694C51.768 41.2421 57.1609 43.0416 58.7544 45.107L58.8362 45.2134L58.9059 45.0985C59.9232 43.4229 64.2864 41.3485 64.3302 41.3279L64.5363 41.2303L64.3204 41.1571C64.2788 41.1433 60.1033 39.6745 54.7228 33.327Z" fill="#474242"/>
<path d="M29.5899 27.8613C29.3597 28.3679 32.5367 31.3374 36.4043 32.8801C39.5177 34.122 46.1655 35.9648 49.0201 35.4124C49.0201 35.4124 43.7251 30.4859 38.5683 28.4139C33.4116 26.342 29.8202 27.3548 29.5899 27.8613Z" fill="#FFA9A9"/>
<path d="M29.5896 27.8613C29.5892 27.8622 29.5894 27.8638 29.5889 27.8648C34.0865 26.5109 45.1369 32.0358 45.248 35.2882C46.7403 35.5164 48.0842 35.5937 49.0198 35.4124C49.0198 35.4124 43.7248 30.4859 38.568 28.4139C33.4113 26.342 29.8199 27.3548 29.5896 27.8613Z" fill="#F28688"/>
<path d="M47.7848 35.421C44.5365 35.421 39.0939 33.8538 36.4384 32.7945C32.8628 31.3684 30.0001 28.7823 29.6959 28.0258C29.6603 27.9374 29.6712 27.9052 29.6737 27.8996C29.7598 27.7098 30.7364 27.2554 32.6421 27.2554C33.9176 27.2554 35.9751 27.4713 38.5339 28.4995C43.1557 30.3562 47.9495 34.5696 48.8185 35.3535C48.5182 35.3983 48.1715 35.421 47.7848 35.421ZM38.6026 28.3285C36.0164 27.2894 33.9337 27.0714 32.6421 27.0714C30.9162 27.0714 29.6705 27.4614 29.5061 27.8231C29.4738 27.8941 29.4801 27.9828 29.525 28.0942C29.8771 28.97 32.8168 31.5483 36.3702 32.9657C39.0389 34.0302 44.5123 35.6054 47.7848 35.6054H47.7849C48.2648 35.6054 48.6863 35.5709 49.0376 35.5028L49.2153 35.4683L49.0828 35.345C49.0297 35.2957 43.7162 30.383 38.6026 28.3285Z" fill="#474242"/>
<path d="M47.3546 33.8557L47.229 33.9904C48.5698 35.2383 51.0169 36.983 53.4009 38.5849C54.6646 39.434 56.184 40.3035 57.1056 40.7879C55.7264 39.907 54.0116 38.7901 52.3583 37.6543C50.3719 36.2896 48.4743 34.8978 47.3546 33.8557Z" fill="#474242"/>
<path d="M79.1472 7.97089C78.5948 7.90937 75.8936 13.6186 75.5865 19.5123C75.2798 25.4055 77.3668 32.0656 77.244 33.9232C77.244 33.9232 81.9099 26.5109 81.603 18.5913C81.2959 10.6718 79.6998 8.03216 79.1472 7.97089Z" fill="#FFA9A9"/>
<path d="M78.0334 29.7985C76.2357 23.7607 75.9602 15.8835 79.241 8.0027C79.2072 7.98568 79.1756 7.9741 79.1472 7.97089C78.5948 7.90937 75.8936 13.6186 75.5865 19.5123C75.2798 25.4055 77.3668 32.0656 77.244 33.9232C77.244 33.9232 79.3308 30.454 80.5109 26.4919C79.852 27.6916 78.6753 29.6965 78.0334 29.7985Z" fill="#F28688"/>
<path d="M77.3382 33.5867C77.3068 32.8406 77.0815 31.6543 76.8069 30.2082C76.2493 27.2683 75.4848 23.2421 75.679 19.517C75.9936 13.4715 78.7205 8.08356 79.1374 8.06236C79.6433 8.11857 81.21 10.8208 81.5111 18.5948C81.7799 25.5265 78.1757 32.1479 77.3382 33.5867ZM79.1579 7.8794L79.1387 7.87842C78.478 7.87842 75.8002 13.6496 75.4949 19.5075C75.2997 23.2543 76.0666 27.2935 76.6261 30.2426C76.9453 31.9222 77.1967 33.2487 77.1525 33.9169L77.1286 34.2801L77.3224 33.9721C77.3693 33.8979 81.9996 26.4449 81.6954 18.5878C81.3915 10.7529 79.8254 7.9535 79.1579 7.8794Z" fill="#474242"/>
<path d="M77.653 33.0338C76.5026 34.5862 76.8144 37.8025 76.8144 37.8025C76.8128 37.7714 76.6895 34.643 77.8007 33.1437L77.653 33.0338Z" fill="#474242"/>
<path d="M66.0406 38.5127C60.6929 39.6751 55.8523 40.7879 52.8416 48.7023C51.7549 51.5593 51.1552 54.9962 52.3197 58.7102C53.0952 61.1837 49.8505 62.2456 51.7595 64.8099C53.3319 66.922 79.2089 65.5554 83.629 64.0207C89.5494 64.1894 91.0113 54.1058 85.3481 45.7874C80.3385 38.4297 72.0415 37.208 66.0406 38.5127Z" fill="#B2ABAB"/>
<path d="M57.601 49.3241C56.1562 48.2327 54.1206 48.7194 53.3048 50.588C52.7503 51.8584 52.6515 53.788 53.3044 55.6674C54.7165 59.7327 58.576 60.9223 59.8 60.1624C59.872 60.1175 59.938 60.0528 60.0013 59.9793C61.3168 58.4458 59.5633 50.8065 57.601 49.3241Z" fill="#999292"/>
<path d="M57.5493 49.9711C56.0822 49.1271 54.4389 49.9572 53.6696 51.6589C53.1465 52.8159 53.0274 54.3761 53.6431 56.0878C54.9746 59.7902 58.6148 60.874 59.769 60.1816C59.8366 60.1408 59.899 60.0819 59.9586 60.0149C61.1994 58.6184 60.6552 51.7574 57.5493 49.9711Z" fill="black"/>
<path d="M57.5593 50.306C56.115 49.4891 54.4972 50.2925 53.7398 51.9395C53.2249 53.0593 53.1076 54.5692 53.7137 56.2258C55.0247 59.8092 58.6082 60.858 59.7444 60.1879C59.8109 60.1485 59.8725 60.0916 59.9311 60.0267C61.1525 58.6749 60.617 52.0348 57.5593 50.306Z" fill="white"/>
<path d="M53.7398 51.9395C53.2249 53.0593 53.1076 54.5692 53.7137 56.2258C55.0247 59.8092 58.6082 60.858 59.7444 60.1879C59.8109 60.1485 59.8725 60.0916 59.9311 60.0267C58.8174 59.8177 57.7652 59.3563 56.8537 58.585C54.7143 57.0161 54.0879 54.5159 53.7398 51.9395Z" fill="#DAE3E8"/>
<path d="M52.8417 48.7023C51.755 51.5593 51.1553 54.9962 52.3199 58.7102C53.0551 61.0552 50.1793 62.1327 51.5062 64.4237C51.1514 61.4077 52.9657 60.7742 52.6601 58.9633C51.4233 54.8882 52.3027 49.9938 54.7755 46.0945C56.5585 43.2828 58.4198 41.2815 61.763 39.6066C58.1644 40.8059 55.0227 42.969 52.8417 48.7023Z" fill="#E8E3E3"/>
<path d="M72.0488 38.1309C78.4837 39.7332 83.0449 43.0984 84.9794 49.2253C86.7112 54.7354 85.6148 60.3785 81.9245 64.4322C82.6465 64.298 83.2272 64.1601 83.629 64.0207C89.5494 64.1894 91.0113 54.1058 85.3482 45.7874C81.8749 40.6859 76.8218 38.5361 72.0488 38.1309Z" fill="#999292"/>
<path d="M87.8041 61.3266C86.9031 63.03 85.51 63.9303 83.7749 63.9307C83.7745 63.9307 83.7745 63.9307 83.7741 63.9307C83.7268 63.9307 83.6795 63.9301 83.6315 63.9285L83.6145 63.9281L83.5987 63.9335C80.8839 64.8763 69.7345 65.8013 61.0891 65.8013C55.7018 65.8013 52.3282 65.4201 51.8331 64.7551C50.809 63.3794 51.3173 62.4546 51.8554 61.4753C52.3022 60.662 52.7642 59.8212 52.4073 58.6828C51.4149 55.518 51.585 52.264 52.9273 48.7353C55.9455 40.8015 60.8583 39.7335 66.0599 38.6027C67.4447 38.3017 68.882 38.1489 70.3309 38.1489C73.9553 38.1489 80.716 39.1481 85.2714 45.8392C89.2335 51.6589 89.5447 58.0355 87.8041 61.3266ZM70.3309 37.9648C68.8688 37.9648 67.4186 38.1188 66.0207 38.4228C60.769 39.5643 55.8087 40.6428 52.7552 48.6699C51.3976 52.2385 51.2263 55.5318 52.2315 58.7378C52.565 59.8013 52.1222 60.6071 51.6939 61.3866C51.1514 62.3738 50.5906 63.3945 51.6854 64.8652C52.3748 65.7912 57.1796 65.9856 61.0891 65.9856C69.7332 65.9856 80.8861 65.059 83.6428 64.1132C83.6871 64.114 83.7217 64.115 83.7749 64.1146C85.5826 64.1146 87.0322 63.1802 87.967 61.4128C89.7332 58.073 89.4271 51.6154 85.4239 45.7357C80.8204 38.9745 73.9917 37.9648 70.3309 37.9648Z" fill="#474242"/>
<path d="M71.6598 59.8211C69.7649 58.453 69.2234 50.2655 73.4323 47.4746C77.1665 44.9984 81.882 48.277 81.1223 53.9619C80.3932 59.4187 73.9542 61.4778 71.6598 59.8211Z" fill="#999292"/>
<path d="M71.7095 59.8978C69.9386 58.7171 69.4327 51.6536 73.3658 49.2459C76.8554 47.1095 81.2622 49.938 80.5525 54.8428C79.8711 59.5506 73.8537 61.3269 71.7095 59.8978Z" fill="black"/>
<path d="M80.4441 55.0187C80.0496 57.6978 77.8387 59.3967 75.6541 60.0607C74.1222 60.5266 72.6035 60.4833 71.7331 59.913C70.8696 59.3475 70.3113 57.3853 70.4378 55.2655C70.5672 53.1036 71.4082 50.7768 73.3644 49.6003C76.802 47.5315 81.1428 50.27 80.4441 55.0187Z" fill="white"/>
<path d="M78.4949 49.7833C80.2057 52.5029 78.5368 56.5136 75.9069 58.0608C74.497 58.85 72.9055 59.3645 71.3369 59.5261C71.46 59.6876 71.5919 59.8205 71.733 59.913C73.845 61.297 79.7725 59.5769 80.4437 55.0186C80.7899 52.6667 79.8993 50.809 78.4949 49.7833Z" fill="#DAE3E8"/>
<path d="M75.8142 48.989C74.9867 48.989 74.1554 49.2263 73.4096 49.6748C71.645 50.7365 70.5606 52.9792 70.5092 55.6735C70.472 57.6117 70.9949 59.3251 71.7811 59.8398C72.2318 60.1352 72.873 60.2915 73.6359 60.2915C76.0327 60.2915 79.8265 58.6115 80.3573 55.0059C80.6104 53.2875 80.205 51.7098 79.2152 50.5638C78.3508 49.5631 77.111 48.989 75.8142 48.989ZM73.6359 60.4663C72.839 60.4663 72.1645 60.3002 71.6852 59.9862C70.8517 59.44 70.2962 57.6653 70.3344 55.6703C70.387 52.9154 71.503 50.6182 73.3193 49.5251C74.0923 49.06 74.9552 48.8141 75.8142 48.8141C77.1622 48.8141 78.4501 49.4102 79.3474 50.4496C80.3706 51.6346 80.7907 53.262 80.5303 55.0316C79.9843 58.739 76.0936 60.4663 73.6359 60.4663Z" fill="black"/>
<path d="M75.0186 51.6839C73.6984 51.2787 72.318 51.5126 71.1484 52.2179C69.8446 55.1603 70.4512 59.0732 71.7329 59.913C73.0858 60.7995 76.0037 60.4101 78.1033 58.8189C78.1248 58.7551 78.147 58.6916 78.1668 58.6269C79.0928 55.61 77.6833 52.5017 75.0186 51.6839Z" fill="#542416"/>
<path d="M71.3359 59.5264C71.4593 59.6883 71.5919 59.8205 71.7333 59.913C73.0862 60.7995 76.0041 60.4101 78.1037 58.8189C78.1252 58.7551 78.1474 58.6916 78.1672 58.6269C78.4945 57.5605 78.5289 56.483 78.3202 55.499C76.6728 59.0918 73.2377 59.925 71.3359 59.5264Z" fill="#A74F45"/>
<path d="M71.2174 52.2785C69.9773 55.1072 70.4883 58.993 71.7811 59.8397C72.2311 60.1349 72.8715 60.2907 73.633 60.2907C75.1174 60.2907 76.7588 59.7208 78.0294 58.7651L78.0297 58.7642C78.0481 58.7098 78.0667 58.656 78.0837 58.601C78.9939 55.6353 77.6074 52.5698 74.9933 51.7672C73.7621 51.3897 72.3939 51.5769 71.2174 52.2785ZM73.633 60.4656C72.8374 60.4656 72.1639 60.2999 71.6852 59.9862C70.3356 59.1019 69.7839 55.082 71.0687 52.1826L71.0798 52.1573L71.1035 52.1431C72.3277 51.4045 73.7583 51.2051 75.0444 51.6002C77.7511 52.4309 79.1893 55.5946 78.2506 58.6525C78.2332 58.7092 78.2144 58.7648 78.1951 58.8207L78.1774 58.8724L78.1563 58.8885C76.8532 59.8757 75.1621 60.4656 73.633 60.4656Z" fill="#261005"/>
<path d="M75.6541 60.0607C74.1222 60.5265 72.6035 60.4833 71.7331 59.913C70.8696 59.3475 70.3113 57.3853 70.4378 55.2654C70.9396 54.454 71.7274 53.889 72.6638 53.7764C74.453 53.5614 76.1071 55.0789 76.358 57.1653C76.4899 58.2599 76.2093 59.2941 75.6541 60.0607Z" fill="black"/>
<path d="M72.9214 54.008C72.9896 54.5754 72.6364 55.0842 72.1324 55.1448C71.6284 55.2054 71.1645 54.7948 71.0963 54.2276C71.0281 53.6605 71.3812 53.1515 71.8853 53.0908C72.3893 53.0303 72.8532 53.4408 72.9214 54.008Z" fill="white"/>
<path d="M75.4069 58.1721C75.441 58.4559 75.2646 58.7102 75.0123 58.7406C74.7605 58.7709 74.5286 58.5657 74.4944 58.2819C74.4604 57.9983 74.6368 57.7438 74.8889 57.7136C75.1408 57.6833 75.3728 57.8887 75.4069 58.1721Z" fill="white"/>
<path d="M56.3742 50.0709C55.5459 50.0709 54.7442 50.5382 54.1744 51.3531C53.2907 52.6174 53.1493 54.4277 53.7961 56.1957C54.8874 59.1786 57.4956 60.2905 58.8833 60.2907C58.8833 60.2907 58.8833 60.2907 58.8837 60.2907C59.2201 60.2907 59.5025 60.2292 59.7002 60.1124C60.1773 59.8312 60.4658 58.7525 60.4526 57.2979C60.4291 54.7534 59.5007 51.504 57.5166 50.382C57.1513 50.1753 56.7669 50.0709 56.3742 50.0709ZM58.8837 60.4657C58.8833 60.4657 58.8833 60.4657 58.8833 60.4657C57.4484 60.4653 54.7539 59.3222 53.6319 56.2558C52.9656 54.4344 53.1147 52.5642 54.0312 51.253C54.634 50.3905 55.4881 49.8959 56.3742 49.8959C56.7975 49.8959 57.2107 50.0084 57.6026 50.2299C59.6472 51.3859 60.6037 54.7033 60.6274 57.2963C60.6413 58.8361 60.3278 59.9451 59.7888 60.263C59.5644 60.3955 59.2513 60.4657 58.8837 60.4657Z" fill="black"/>
<path d="M59.7445 60.1879C59.1388 60.5452 57.8375 60.4129 56.5554 59.6688C56.2317 59.4807 55.9094 59.2537 55.5996 58.9858C55.5308 58.8555 55.466 58.721 55.4062 58.5822C54.4329 56.3234 55.1083 53.8613 56.9155 53.0827C57.8414 52.6834 58.8851 52.8052 59.8133 53.3217C60.0209 53.8758 60.1819 54.4603 60.2993 55.0454C60.767 57.3784 60.5356 59.7214 59.7445 60.1879Z" fill="#542416"/>
<path d="M54.9651 56.3685C54.949 57.0845 55.0879 57.8439 55.4061 58.5824C55.4659 58.721 55.5306 58.8555 55.5995 58.9858C57.1355 60.3148 58.9853 60.6354 59.7443 60.1879C59.8118 60.1481 59.8749 60.0932 59.9343 60.0273C57.75 60.2814 55.9518 58.7711 54.9651 56.3685Z" fill="#A74F45"/>
<path d="M55.6693 58.9306C56.8339 59.9329 58.0928 60.2905 58.8844 60.2905C59.2208 60.2905 59.5027 60.229 59.6999 60.1125C60.5937 59.5855 60.7754 56.1693 59.7424 53.3826C58.8193 52.8785 57.8005 52.7965 56.9498 53.1629C56.1009 53.5287 55.4802 54.288 55.2024 55.3005C54.9226 56.3202 55.0235 57.4734 55.4865 58.5478C55.5419 58.6762 55.6034 58.8049 55.6693 58.9306ZM58.8844 60.4653C58.0585 60.4653 56.7469 60.0939 55.5424 59.0518L55.5225 59.0269C55.4514 58.8927 55.3854 58.7548 55.3261 58.6168C54.8474 57.5063 54.7437 56.3123 55.0339 55.2544C55.3259 54.1896 55.9819 53.3895 56.8807 53.0022C57.7893 52.6106 58.8784 52.7014 59.8557 53.2452L59.8839 53.2606L59.8949 53.291C60.9049 55.9888 60.8493 59.6379 59.7886 60.263C59.5644 60.3953 59.2517 60.4653 58.8844 60.4653Z" fill="#261005"/>
<path d="M59.7445 60.1879C59.1388 60.5452 57.8374 60.4129 56.5554 59.6688C56.2341 59.0505 56.062 58.269 56.1059 57.428C56.2057 55.5179 57.3799 54.0263 58.7281 54.0961C59.3477 54.1285 59.8965 54.4849 60.2992 55.0454C60.767 57.3784 60.5356 59.7214 59.7445 60.1879Z" fill="black"/>
<path d="M57.699 54.6796C57.6737 55.1654 57.3033 55.5409 56.8718 55.5186C56.4401 55.4958 56.1109 55.084 56.1361 54.5983C56.1614 54.1125 56.5319 53.737 56.9635 53.7593C57.395 53.7821 57.7244 54.1939 57.699 54.6796Z" fill="white"/>
<path d="M59.1461 58.5435C59.1331 58.7863 58.9482 58.974 58.7323 58.9631C58.5165 58.9516 58.3518 58.7456 58.3645 58.5028C58.3772 58.2599 58.5622 58.0721 58.7781 58.0834C58.9939 58.0944 59.1586 58.3005 59.1461 58.5435Z" fill="white"/>
<path d="M58.978 51.3623C61.1895 50.7762 64.366 52.2678 64.6031 56.6834C64.8249 60.8147 60.5864 60.9356 59.5552 60.7317C60.9319 56.4148 58.978 51.3623 58.978 51.3623Z" fill="#B2ABAB"/>
<path d="M58.978 51.3623C60.2287 53.2614 60.955 57.6236 60.2748 60.5594C59.7264 60.6096 59.8166 60.7835 59.5552 60.7317C60.9319 56.4148 58.978 51.3623 58.978 51.3623Z" fill="#E8E3E3"/>
<path d="M59.6392 60.7573L59.4722 60.7061C60.7305 56.5872 58.8019 51.4756 58.9783 51.3623C59.3075 52.1867 60.9095 56.1747 59.6392 60.7573Z" fill="black"/>
<path d="M84.2618 58.5199C79.74 57.6396 76.3539 58.2497 70.7368 61.0123C66.6718 63.0116 59.6505 62.4066 57.5984 61.3809C53.9143 59.539 49.7411 60.6439 51.153 66.2305C52.565 71.817 62.0191 74.2115 64.7817 74.3955C66.2397 75.9994 69.9002 75.7232 71.5116 74.3649C71.5116 74.3649 76.3031 71.9082 82.2782 70.6508C87.8199 69.4843 90.6579 65.4632 89.1458 61.841C88.5369 60.3833 86.9744 59.0479 84.2618 58.5199Z" fill="#EDE6E6"/>
<path d="M53.7959 61.2871C55.1578 61.0239 56.9444 61.4487 58.3199 61.6624C58.0385 61.5734 57.7953 61.479 57.5984 61.3809C53.9143 59.5391 49.7411 60.6439 51.153 66.2305C51.6087 68.0332 52.9023 69.503 54.5377 70.6739C51.1509 68.5804 49.6662 62.085 53.7959 61.2871Z" fill="white"/>
<path d="M84.2623 58.5199C83.8112 58.4322 83.3722 58.3599 82.9404 58.3024C84.6422 58.7715 85.8854 59.493 86.6987 60.9972C88.0492 63.6242 86.7599 66.3226 83.4757 68.3486C80.3446 70.0061 75.7292 70.8526 72.9667 73.0624C73.2157 72.7187 73.3713 72.5022 73.607 72.0916C71.122 74.3245 69.3404 74.8219 67.5449 74.791C65.7431 74.7604 64.0148 73.4286 62.581 73.2686L62.8535 73.392C59.0525 72.9968 55.7654 71.348 53.3315 69.6911C56.6888 72.8318 62.6773 74.2551 64.7821 74.3955C66.2402 75.9994 69.9006 75.7233 71.512 74.3649C71.512 74.3649 76.3036 71.9082 82.2786 70.6509C87.8204 69.4844 90.6584 65.4632 89.1463 61.841C88.5374 60.3833 86.9749 59.0479 84.2623 58.5199Z" fill="#C9C0C0"/>
<path d="M88.8375 66.2429C87.7358 68.3387 85.3381 69.9127 82.2593 70.5606C76.3408 71.8063 71.5177 74.2583 71.4698 74.2829L71.4524 74.2945C70.6419 74.9775 69.2766 75.402 67.8889 75.402C66.5747 75.402 65.4669 75.0125 64.8499 74.3337L64.8249 74.3062L64.7881 74.3037C62.2086 74.1317 52.6487 71.7719 51.2425 66.2081C50.7627 64.31 50.9083 62.7942 51.6634 61.8246C52.2611 61.0571 53.2117 60.6516 54.4126 60.6516C55.4078 60.6516 56.4951 60.9321 57.5573 61.4629C58.708 62.0383 61.1788 62.4249 63.7055 62.4249C66.5223 62.4249 69.0339 61.9525 70.7773 61.0949C74.9042 59.0653 77.7734 58.2375 80.6804 58.2375C81.7907 58.2375 82.9562 58.3593 84.2442 58.6102C87.5141 59.2468 88.6655 60.9299 89.061 61.8767C89.6606 63.3137 89.5836 64.8233 88.8375 66.2429ZM84.2792 58.4294C82.9795 58.1766 81.8024 58.0535 80.6804 58.0535C77.7431 58.0535 74.8502 58.8867 70.6962 60.9299C68.9774 61.7751 66.4948 62.2406 63.7055 62.2406C61.2438 62.2406 58.7495 61.853 57.6397 61.2982C56.5521 60.7548 55.4363 60.4673 54.4126 60.4673C53.1529 60.4673 52.1519 60.8974 51.5181 61.7114C50.7268 62.7276 50.5698 64.2981 51.0639 66.2529C52.4884 71.8893 62.0773 74.2915 64.7391 74.4849C65.3952 75.1853 66.5407 75.5861 67.8889 75.5861C69.3135 75.5861 70.7198 75.1479 71.5629 74.4422C71.8018 74.321 76.5267 71.9556 82.2969 70.7409C85.4299 70.0816 87.873 68.4732 89.0003 66.3283C89.7616 64.8797 89.8437 63.2736 89.2308 61.8057C88.8214 60.8252 87.6335 59.0823 84.2792 58.4294Z" fill="#7C7979"/>
<path d="M60.7612 65.9237C63.4932 67.0287 63.1426 69.207 65.0276 71.4181C66.4409 73.0757 68.85 71.9938 69.2407 69.8133C70.213 64.3883 72.6094 62.7282 72.6094 62.7282C70.1562 61.5895 61.4748 64.7027 60.7612 65.9237Z" fill="#2C0000"/>
<path d="M64.2905 70.3931C64.4957 70.7314 64.7346 71.0745 65.0274 71.4181C66.4407 73.0757 68.8498 71.9938 69.2405 69.8133C69.2407 69.8113 69.2411 69.8094 69.2415 69.8076C66.9997 68.5865 65.1672 69.6621 64.2905 70.3931Z" fill="#FFC4C4"/>
<path d="M65.1906 69.7826C64.8289 69.977 64.5253 70.1973 64.2905 70.3931C64.4957 70.7314 64.7346 71.0745 65.0274 71.4181C65.1012 71.5046 65.1783 71.5823 65.2569 71.6539C64.7737 70.9501 64.7737 70.3223 65.1906 69.7826Z" fill="#F59595"/>
<path d="M68.3513 69.4471C68.619 70.6247 67.9208 71.6497 66.9248 72.2232C67.9928 72.0976 68.9999 71.1726 69.2407 69.8291C69.2409 69.8271 69.2413 69.8253 69.2417 69.8234C68.9368 69.6573 68.6398 69.5349 68.3513 69.4471Z" fill="#FFA9A9"/>
<path d="M66.6773 72.131C66.0748 72.131 65.5285 71.8641 65.0976 71.3585C64.8477 71.0652 64.6224 70.7557 64.4106 70.4136C65.026 69.9146 65.9906 69.3462 67.1895 69.3462C67.8412 69.3462 68.4964 69.5179 69.1384 69.8568C68.8792 71.1577 67.8308 72.131 66.6773 72.131ZM67.1895 69.1619C65.8949 69.1619 64.8663 69.7931 64.2313 70.3223L64.1704 70.3731L64.2115 70.4407C64.4405 70.8188 64.6845 71.1577 64.9572 71.4777C65.4243 72.0256 66.0189 72.3151 66.677 72.3153C66.6773 72.3153 66.6773 72.3153 66.6773 72.3153C67.9362 72.3153 69.0768 71.2467 69.3322 69.824L69.3439 69.7587L69.2854 69.7265C68.5974 69.3518 67.8923 69.1619 67.1895 69.1619Z" fill="#8D2929"/>
<path d="M69.1498 69.7971C68.9112 71.1277 67.8483 72.131 66.6773 72.131C66.0748 72.131 65.5286 71.8641 65.0977 71.3585C64.3848 70.5222 64.002 69.705 63.6315 68.9147C63.0456 67.6643 62.5378 66.5808 60.9027 65.883C61.7794 64.8283 67.8334 62.5742 71.13 62.5742C71.6643 62.5742 72.0997 62.6341 72.4274 62.7532C71.9079 63.1846 69.9997 65.0545 69.1498 69.7971ZM71.13 62.3899C67.6962 62.3899 61.2884 64.8387 60.6814 65.8773L60.6274 65.9692L60.7263 66.0093C62.38 66.6781 62.8825 67.7508 63.4648 68.993C63.8227 69.7571 64.2286 70.6228 64.9573 71.4777C65.4247 72.026 66.0192 72.3153 66.6773 72.3153C67.9359 72.3153 69.0769 71.2467 69.331 69.8293C70.2838 64.5133 72.6379 62.8204 72.6619 62.804L72.7934 62.7124L72.648 62.645C72.2838 62.4757 71.7731 62.3899 71.13 62.3899Z" fill="#7C7979"/>
<path d="M60.0858 67.0902C60.8839 67.4585 62.8789 69.9448 63.0385 70.1594C63.1979 70.3743 64.8435 70.3437 65.6417 69.7299C66.4395 69.1161 66.9921 65.6472 66.9921 65.6472C64.8741 64.2046 59.963 66.3841 60.0858 67.0902Z" fill="white"/>
<path d="M65.5281 65.1824C66.305 66.6297 65.7808 69.1618 64.2905 69.6561C63.9585 68.5804 63.4457 67.7523 62.7465 66.8784C63.3061 67.8426 63.8853 69.0987 63.694 69.5851C63.5956 69.8416 63.0496 69.9565 62.7271 69.7688C62.8918 69.9707 63.0053 70.1149 63.0385 70.1595C63.1979 70.3743 64.8435 70.3438 65.6416 69.7299C66.4395 69.1161 66.992 65.6473 66.992 65.6473C66.5878 65.372 66.0812 65.2293 65.5281 65.1824Z" fill="#E0E1E2"/>
<path d="M65.5853 69.6567C65.1079 70.0241 64.2735 70.1885 63.6581 70.1885C63.3008 70.1885 63.136 70.1317 63.1123 70.1048C63.0934 70.0789 61.0804 67.5178 60.18 67.0343C60.1879 67.0052 60.2091 66.9617 60.2599 66.9014C60.7462 66.3236 63.0678 65.2562 65.0971 65.2562C65.8376 65.2562 66.4411 65.4027 66.8914 65.6914C66.8147 66.1466 66.2905 69.1145 65.5853 69.6567ZM65.0971 65.0721C63.1436 65.0721 60.6875 66.1071 60.1191 66.7828C60.02 66.9006 59.978 67.0094 59.9948 67.106L60.0033 67.1533L60.0468 67.1735C60.8106 67.526 62.8027 69.9963 62.9646 70.2144C63.0615 70.345 63.3951 70.3725 63.6581 70.3725C64.2573 70.3725 65.1511 70.2232 65.6978 69.8028C66.5152 69.1738 67.0602 65.8051 67.083 65.6621L67.0921 65.6044L67.0438 65.5714C66.5574 65.2401 65.9026 65.0721 65.0971 65.0721Z" fill="#7A8287"/>
<path d="M64.2603 70.2788L64.4446 70.2823C64.4755 68.6988 62.7466 66.8784 62.7466 66.8784C62.7621 66.897 64.29 68.7629 64.2603 70.2788Z" fill="#7A8287"/>
<path d="M58.6889 60.8283C54.6141 63.1994 56.9853 67.2743 59.1951 67.4586C61.4054 67.6425 62.3724 65.985 62.3724 65.985C63.1321 66.618 65.4296 67.2329 67.7134 66.2615C68.5195 65.9184 69.4527 65.2004 69.9191 64.1646L70.0002 62.2021C68.847 60.1807 63.2245 58.1889 58.6889 60.8283Z" fill="#EDE6E6"/>
<path d="M58.6892 60.8283C56.008 62.3883 56.1179 64.6859 57.1361 66.1276C56.4751 64.269 56.9702 62.8137 57.9678 61.9025C60.8868 59.4986 64.6435 59.6201 68.3862 60.7645C66.1062 59.4746 62.0917 58.8482 58.6892 60.8283Z" fill="white"/>
<path d="M62.0041 65.5362C61.2211 66.6871 58.873 67.5646 57.3311 66.3784C57.846 66.9904 58.5275 67.4027 59.1952 67.4585C61.4055 67.6425 62.3725 65.9849 62.3725 65.9849C63.1322 66.618 65.4297 67.2328 67.7135 66.2614C68.5195 65.9183 69.4528 65.2003 69.9192 64.1645L69.9248 64.0316C68.0959 66.18 64.4448 66.5376 62.0041 65.5362Z" fill="#C9C0C0"/>
<path d="M67.6775 66.1765C65.3704 67.1581 63.1221 66.4903 62.4314 65.9143L62.3478 65.8448L62.293 65.9386C62.2835 65.9546 61.3249 67.544 59.2031 67.3667C58.0693 67.272 56.9441 66.1482 56.6415 64.8075C56.3016 63.3011 57.0648 61.8799 58.7354 60.9078C60.9156 59.6391 63.6626 59.314 66.2715 60.0156C67.976 60.4738 69.4079 61.35 69.9202 62.2475C69.9202 62.2475 69.77 61.6492 69.0718 61.0943C68.3854 60.5483 67.4048 60.1295 66.3194 59.8375C63.6633 59.1234 60.8649 59.4554 58.6427 60.7487C56.898 61.7637 56.1031 63.2582 56.4619 64.8478C56.7811 66.2623 57.9784 67.4493 59.1877 67.55C59.3054 67.5602 59.4194 67.5646 59.5301 67.5646C61.2517 67.5646 62.1657 66.4436 62.3942 66.1187C63.1968 66.7033 65.4521 67.3238 67.7494 66.3461C68.7474 65.9212 69.59 65.1199 70.0031 64.2024L69.8352 64.1267C69.4405 65.0031 68.6338 65.7695 67.6775 66.1765Z" fill="#7C7979"/>
<path d="M61.2862 63.978L61.1104 64.0323C61.1332 64.1065 61.6869 65.8533 63.0003 66.4495L63.0766 66.282C61.8391 65.7201 61.2916 63.9954 61.2862 63.978Z" fill="#7C7979"/>
<path d="M58.8363 62.0939C58.2543 63.5858 60.5232 64.8737 61.4747 64.7027C62.2805 64.5578 63.4545 63.2685 63.3416 61.841C63.2163 60.2577 59.4922 60.4129 58.8363 62.0939Z" fill="#332C2C"/>
<path d="M63.3413 61.841C63.31 61.4437 63.0516 61.1562 62.6725 60.9744C63.3454 62.1658 61.425 63.6637 60.6274 63.8069C60.1288 63.8966 59.4167 63.7549 58.8228 63.0385C59.1917 64.0831 60.7328 64.8362 61.4745 64.7027C62.2802 64.5578 63.4543 63.2685 63.3413 61.841Z" fill="#262020"/>
<path d="M61.458 64.6121C61.407 64.6212 61.3501 64.626 61.2892 64.626C61.2892 64.626 61.2892 64.626 61.2889 64.626C60.6558 64.626 59.6052 64.1207 59.11 63.396C58.8215 62.9738 58.7584 62.5471 58.9218 62.1273C59.2694 61.2363 60.4911 60.8305 61.4792 60.8305C62.2587 60.8305 63.1901 61.0971 63.2494 61.8483C63.3583 63.2218 62.2377 64.4719 61.458 64.6121ZM61.4792 60.6465C60.4304 60.6465 59.1292 61.089 58.7505 62.0604C58.5659 62.5335 58.6375 63.0312 58.9578 63.4999C59.4934 64.2835 60.5955 64.81 61.2889 64.81C61.2892 64.81 61.2892 64.81 61.2892 64.81C61.3609 64.81 61.429 64.8047 61.4909 64.7932C62.3348 64.6414 63.5493 63.3023 63.4331 61.8338C63.3759 61.1127 62.6091 60.6465 61.4792 60.6465Z" fill="black"/>
<path d="M66.7927 36.2874C63.5241 36.566 59.518 38.6355 59.5639 42.1808C59.6099 45.7263 62.0962 48.5087 62.0962 48.5087C62.2805 49.7319 63.616 51.7578 63.8921 51.6656C64.1683 51.5735 64.5365 48.7648 66.5166 47.7982C68.3582 47.3838 71.6581 44.4266 72.2717 42.0428C72.8704 39.7174 72.7322 35.7809 66.7927 36.2874Z" fill="#B2ABAB"/>
<path d="M71.6228 37.6019C70.8086 36.6674 69.3319 36.0709 66.7927 36.2874C63.5241 36.566 59.518 38.6355 59.5639 42.1807C59.5748 43.0092 59.8358 44.5011 60.3547 45.67C59.6727 41.7357 60.694 39.6618 63.0345 38.2751C65.9034 36.5752 69.9999 36.02 71.6228 37.6019Z" fill="#E8E3E3"/>
<path d="M71.0992 37.1196C73.694 40.7879 69.6808 45.3263 67.411 45.2973C67.411 44.9113 67.2049 44.3485 67.1654 43.7972C67.411 47.2143 64.069 47.0706 63.209 49.3241C61.9854 47.4014 61.9242 46.1141 62.6948 44.0686C61.5527 44.987 61.2753 47.2143 60.3512 45.4137C60.3085 45.3995 60.2701 45.3809 60.229 45.3651C60.9796 47.2572 62.0961 48.5086 62.0961 48.5086C62.2804 49.7318 63.6158 51.7578 63.892 51.6655C64.1682 51.5735 64.5364 48.7648 66.5165 47.7981C68.3581 47.3838 71.658 44.4266 72.2716 42.0428C72.662 40.5272 72.7377 38.3277 71.0992 37.1196Z" fill="#999292"/>
<path d="M62.6948 44.0686C62.6045 44.2492 62.5234 44.4461 62.4521 44.6538C62.5355 44.4597 62.6166 44.2644 62.6948 44.0686Z" fill="#999292"/>
<path d="M72.1823 42.0197C71.5846 44.3413 68.3701 47.2865 66.496 47.7082L66.4755 47.7152C65.0133 48.4294 64.4124 50.1175 64.0898 51.0246C64.005 51.2623 63.9096 51.5312 63.8658 51.5753C63.6026 51.515 62.3635 49.6671 62.187 48.495L62.183 48.4676L62.1646 48.4474C62.1401 48.4196 59.7007 45.6502 59.6555 42.1798C59.6092 38.6029 63.8057 36.6346 66.8002 36.3789C67.1437 36.3496 67.4769 36.3348 67.7903 36.3348C69.6104 36.3348 70.9151 36.8274 71.6678 37.7985C72.7526 39.1979 72.389 41.2165 72.1823 42.0197ZM66.7844 36.1956C63.2055 36.5007 59.4265 38.7027 59.4716 42.182C59.5155 45.5598 61.7812 48.2839 62.009 48.549C62.1971 49.7015 63.4627 51.7606 63.8717 51.7609C63.8887 51.7609 63.9052 51.758 63.9206 51.753C64.0343 51.7151 64.0974 51.552 64.2634 51.0865C64.5765 50.2063 65.1588 48.5695 66.5471 47.8856C68.4686 47.4447 71.7499 44.437 72.3606 42.0655C72.5743 41.2364 72.948 39.1496 71.8134 37.6855C70.8899 36.4944 69.1925 35.9901 66.7844 36.1956Z" fill="#474242"/>
<path d="M65.9229 48.0592L66.0365 48.204C68.1956 46.5149 67.1654 43.7972 67.1654 43.7972C67.1736 43.8237 67.9826 46.448 65.9229 48.0592Z" fill="#474242"/>
<path d="M62.2327 49.3242L62.411 49.2781C61.7176 46.5934 62.6562 44.0573 62.6657 44.0317C62.6657 44.0317 61.5244 46.5812 62.2327 49.3242Z" fill="#474242"/>
<path d="M75.0064 44.6172C74.4498 44.9545 74.3664 45.9029 74.8629 46.0939C75.3088 46.2652 77.1791 45.2569 78.8404 46.9561C77.9116 44.7238 75.8368 44.1138 75.0064 44.6172Z" fill="#2B2626"/>
<path d="M74.5626 45.2708C74.4837 45.6221 74.5762 45.9838 74.8624 46.0939C75.3084 46.2653 77.1787 45.2569 78.8399 46.9561C78.7159 46.6575 78.5702 46.3899 78.4104 46.1481C77.32 45.1323 75.719 44.633 74.5626 45.2708Z" fill="#1C1717"/>
<path d="M75.6683 45.931C75.5945 45.9427 75.5245 45.9543 75.4579 45.9654C75.3986 45.9751 75.3426 45.9846 75.29 45.9929C75.1293 46.0178 74.9705 46.0368 74.8955 46.008C74.7458 45.9502 74.6493 45.7956 74.6304 45.5835C74.6038 45.2862 74.7409 44.8857 75.0539 44.6961C75.1615 44.6307 75.2924 44.5858 75.4433 44.5625C76.2724 44.4337 77.7189 44.9882 78.5603 46.5768C77.5573 45.7716 76.501 45.8019 75.6683 45.931ZM75.4152 44.3805C75.2404 44.4076 75.0867 44.4606 74.9586 44.5385C74.5635 44.7778 74.4164 45.2565 74.4467 45.5996C74.4722 45.8846 74.6117 46.0961 74.8295 46.1797C74.9652 46.2318 75.1741 46.1986 75.4878 46.1472C75.5538 46.1361 75.6236 46.1244 75.6964 46.1131C76.6373 45.9672 77.7384 45.9607 78.7742 47.0202L79.1094 47.3629L78.9255 46.9205C78.0938 44.9217 76.3722 44.2321 75.4152 44.3805Z" fill="black"/>
<path d="M56.7045 46.1882C56.0259 45.8784 54.4974 46.5285 53.9878 48.3145C55.1039 46.87 56.6208 47.4725 56.9456 47.3021C57.3073 47.1121 57.1591 46.396 56.7045 46.1882Z" fill="#2B2626"/>
<path d="M54.2337 47.678C54.1376 47.8714 54.0539 48.0828 53.9878 48.3145C55.1039 46.87 56.6208 47.4725 56.9456 47.3021C57.1392 47.2004 57.1855 46.9483 57.1183 46.7039C56.1241 46.2236 54.9404 46.8546 54.2337 47.678Z" fill="#1C1717"/>
<path d="M56.903 47.2204C56.851 47.2477 56.6888 47.2459 56.4813 47.2358C56.3671 47.2301 56.2387 47.224 56.1 47.224C55.5886 47.224 54.8715 47.303 54.2253 47.9137C54.7425 46.6782 55.7519 46.206 56.3237 46.206C56.4553 46.206 56.5705 46.228 56.6663 46.2719C56.9143 46.3852 57.0501 46.6699 57.0562 46.8927C57.0605 47.0476 57.0046 47.1673 56.903 47.2204ZM56.7429 46.1046C56.6229 46.0498 56.4819 46.0219 56.3237 46.0219C55.4622 46.0219 54.3198 46.8166 53.8995 48.289L53.7681 48.7497L54.0609 48.3707C54.7275 47.5078 55.5438 47.4081 56.1 47.4081C56.2353 47.4081 56.3608 47.4144 56.4723 47.4198C56.5644 47.4241 56.6471 47.4283 56.7187 47.4283C56.8483 47.4283 56.9291 47.4148 56.9886 47.3835C57.1548 47.2964 57.2465 47.1156 57.2403 46.8876C57.2328 46.6165 57.074 46.2558 56.7429 46.1046Z" fill="black"/>
<path d="M71.0261 74.814C71.7396 74.3987 73.2634 72.8154 73.3278 72.748C73.3278 72.748 71.6251 74.2526 70.9336 74.6546L71.0261 74.814Z" fill="#7C7979"/>
<path d="M62.5806 73.2686C62.7131 73.3105 64.6591 74.2484 65.0856 74.791L65.2304 74.6774C64.6917 73.985 62.5806 73.2686 62.5806 73.2686Z" fill="#7C7979"/>
<path d="M72.4216 62.1981C70.6795 61.3692 68.4387 63.0151 68.0962 63.9089C68.0962 63.9089 69.1563 63.61 70.4147 64.3542C71.6733 65.0988 72.0148 66.0004 72.0148 66.0004C72.0148 66.0004 74.1635 63.0268 72.4216 62.1981Z" fill="#EDE6E6"/>
<path d="M69.4596 63.8972C68.6871 63.6877 68.0962 63.9088 68.0962 63.9088C68.1212 63.9074 70.6145 63.7565 71.9939 65.9827C71.9939 65.9827 71.8535 65.4575 71.4281 64.9904C70.8575 64.3642 70.0685 64.0622 69.4596 63.8972Z" fill="#7C7979"/>
<path d="M67.0806 73.3679C65.6005 73.5601 64.212 71.5554 64.1982 71.5349C64.1982 71.5349 64.5519 72.3153 65.2248 72.892C65.6772 73.2799 66.2657 73.5655 66.8746 73.5655C66.9505 73.5655 67.0274 73.5605 67.1043 73.5506C67.5295 73.4954 68.4885 73.2384 69.2773 72.316C70.0659 71.3931 70.2086 70.5483 70.2086 70.5483C69.127 72.8667 67.6607 73.2924 67.0806 73.3679Z" fill="#7C7979"/>
<path d="M60.4244 61.1932C60.0198 61.3077 59.7414 61.5769 59.8029 61.7941C59.8645 62.0112 60.2426 62.0942 60.6476 61.9793C61.0522 61.8645 61.3306 61.5956 61.2689 61.3784C61.2074 61.1613 60.8293 61.0783 60.4244 61.1932Z" fill="#544848"/>
</svg>
