<svg width="128" height="128" viewBox="0 0 128 128" fill="none" xmlns="http://www.w3.org/2000/svg">
<path d="M37.4463 76.7288C36.0196 73.9621 34.8835 71.0927 34.3628 68.0052C37.5933 67.9929 40.8237 67.9797 44.054 67.9708C44.3659 67.97 44.6969 67.9327 44.9867 68.0202C46.4451 68.4594 47.9713 68.2668 49.456 68.5535C51.0768 68.8667 52.7236 69.0638 54.3357 69.4424C56.3045 69.905 58.2812 70.3371 60.207 70.9672C60.7544 71.146 61.0225 70.9627 61.034 70.4139C61.0451 69.8948 61.102 69.3453 60.9593 68.8619C60.746 68.1408 60.7287 67.4234 60.7494 66.6979C60.8299 63.8952 60.6347 61.0963 60.9935 58.2851C61.2554 56.2311 61.482 54.1789 61.8779 52.1432C62.1451 50.7665 62.4827 49.4111 62.842 48.0573C63.0377 47.3196 62.8401 46.9899 62.1283 46.7535C61.9817 46.7045 61.8236 46.6929 61.6724 46.6555C59.3093 46.0687 56.9418 45.5045 54.4951 45.391C52.8917 44.8719 51.1733 45.2943 49.5681 44.7892C45.9855 44.8857 42.3909 44.5119 38.82 45.0645C39.3283 44.0174 40.1435 43.1978 40.9046 42.3522C43.9248 38.9964 47.463 36.2677 51.2995 33.912C51.3837 33.8599 51.4971 33.8559 51.597 33.829C52.6347 33.8174 53.6856 33.9805 54.7034 33.7089C55.2188 33.571 55.7272 33.5271 56.2456 33.5444C58.4208 33.6183 60.6138 33.3019 62.7686 33.8378C64.7063 33.7522 66.5852 34.1396 68.4453 34.6047C68.9428 34.7293 69.2445 34.6044 69.5343 34.2694C69.7381 34.0344 69.9236 33.7843 70.1176 33.5409C71.6037 31.6743 73.0511 29.7644 74.7897 28.1266C76.336 26.67 77.9591 25.2863 79.6323 23.9776C80.4752 23.3185 81.2511 22.4984 82.352 22.2161C82.5508 22.9733 82.3596 23.6069 81.8855 24.2413C80.5521 26.0263 79.2599 27.842 77.9829 29.6681C77.6663 30.1213 77.2018 30.5039 77.1364 31.1102C77.6578 31.593 78.2962 31.3288 78.879 31.3594C80.4298 31.4401 81.988 31.2625 83.5374 31.4688C83.4989 34.5107 83.87 37.5317 84.0194 40.5648C84.0393 40.9712 84.167 41.3723 84.2447 41.7761C83.9753 42.5179 83.3969 43.0582 82.9838 43.7068C82.7082 44.1403 82.4006 44.5538 82.1209 44.9851C81.9985 45.1737 82.1268 45.406 82.3559 45.4188C83.0747 45.4581 83.7941 45.4864 84.5129 45.5192C84.8389 49.2485 85.2826 52.9636 85.8918 56.6579C85.8255 56.9155 85.7955 57.1651 86.0486 57.3506C86.0362 58.2418 86.2381 59.1042 86.3809 59.9768C87.3877 66.1394 88.687 72.2355 90.4786 78.2216C91.9278 83.0651 93.6922 87.7836 96.0828 92.2501C97.2881 94.5021 98.6232 96.6704 100.268 98.6347C100.19 99.4017 100.19 99.4022 100.86 99.5475C100.96 99.5691 101.061 99.5841 101.161 99.6022C101.623 100.362 102.287 100.941 102.923 101.541C103.671 102.246 104.453 102.916 105.22 103.602C105.152 103.662 105.09 103.727 105.035 103.798C104.553 103.796 104.133 103.581 103.696 103.416C102.09 102.806 100.485 102.195 98.8732 101.602C92.2753 99.1751 85.5896 97.0292 78.7521 95.3778C77.796 95.147 76.8524 94.8091 75.8424 94.8683C74.7384 94.3421 73.5473 94.256 72.3548 94.1787C72.1123 94.0986 71.875 93.9768 71.6263 93.945C69.6753 93.6941 67.7217 93.4608 65.7689 93.2217C65.7437 92.0019 65.2237 90.9005 64.8945 89.7606C64.0148 86.7165 63.1785 83.6646 62.5758 80.5516C62.3877 79.5774 62.0705 78.7592 60.7998 78.8291C60.3597 78.8534 59.9052 78.6204 59.4325 78.5702C58.2506 78.4437 57.079 78.2247 55.8999 78.0678C54.7193 77.9109 53.5375 77.7121 52.351 77.6648C50.9988 77.611 49.6731 77.3476 48.3287 77.2368C47.405 77.1607 46.4729 76.9616 45.5456 77.037C44.5828 77.1154 43.7046 76.7022 42.765 76.7088C40.9921 76.7212 39.2192 76.7226 37.4463 76.7288Z" fill="#FDD31E"/>
<path d="M44.8138 97.5837C44.8138 97.3424 44.8171 97.134 44.8133 96.9258C44.7637 94.1818 42.9748 91.7943 40.1016 91.0773C38.3771 90.6468 36.7795 90.8983 35.2378 91.5624C31.4609 93.19 30.2756 97.0606 31.3572 100.208C32.1647 102.557 33.823 104.015 36.1996 104.649C38.2317 105.191 40.152 104.838 41.8176 103.579C43.7918 102.088 44.9311 100.114 44.8138 97.5837ZM75.6295 109.483C75.3729 109.285 75.3009 109.199 75.2098 109.166C74.9673 109.081 74.719 109.006 74.468 108.95C71.9886 108.397 69.5229 107.799 67.1853 106.772C66.6144 106.522 66.0411 106.278 65.4782 106.012C64.7506 105.667 64.029 105.6 63.2338 105.816C61.183 106.373 59.1569 107.014 57.1122 107.585C54.1654 108.409 51.2531 109.34 48.328 110.23C46.6982 110.726 45.0947 111.308 43.3845 111.884C43.9932 112.222 44.5036 112.412 45.0816 112.402C45.3923 112.396 45.7297 112.363 46.0106 112.465C47.1526 112.879 48.3707 112.79 49.5404 112.949C50.7076 113.108 51.8852 113.328 53.0816 113.391C54.0496 113.442 55.0675 113.503 55.9971 113.747C57.0683 114.028 58.188 113.772 59.2227 114.204C59.3809 114.271 59.6243 114.16 59.8205 114.104C60.7685 113.837 61.7158 113.567 62.6594 113.286C64.6463 112.695 66.6282 112.087 68.6181 111.505C69.5122 111.244 70.4269 111.052 71.3216 110.791C72.7105 110.388 74.0903 109.953 75.6295 109.483ZM103.483 110.433C102.744 110.885 102.121 110.827 101.504 110.828C97.5957 110.83 93.6871 110.83 89.7783 110.827C89.4143 110.827 89.021 110.886 88.6916 110.772C87.7757 110.457 86.8391 110.5 85.9072 110.529C84.3415 110.579 82.8252 110.053 81.2554 110.167C81.0606 110.181 80.8561 110.064 80.6573 110.006C80.139 109.853 79.6456 109.916 79.1282 110.075C77.0945 110.701 75.0543 111.305 73.0092 111.893C71.2154 112.409 69.4089 112.881 67.6144 113.394C66.5672 113.694 65.5312 114.033 64.4952 114.369C64.4354 114.388 64.3776 114.54 64.3904 114.618C64.4037 114.698 64.5005 114.822 64.5685 114.827C65.2414 114.878 65.9523 114.784 66.5827 114.969C67.9996 115.386 69.5003 115.014 70.8925 115.52C72.3562 115.4 73.7637 116.008 75.2324 115.854C75.4338 115.833 75.6635 115.851 75.847 115.929C76.4972 116.205 77.1767 116.132 77.8504 116.159C78.2645 116.176 78.6983 116.164 79.084 116.287C79.6482 116.467 80.2124 116.469 80.7833 116.465C82.3953 116.452 83.9703 116.94 85.591 116.813C85.6908 116.805 85.8026 116.832 85.8949 116.874C86.4379 117.117 87.0136 117.111 87.5857 117.089C89.409 117.02 91.1912 117.594 93.0199 117.426C94.18 117.833 95.3858 117.695 96.5778 117.728C96.8879 117.736 97.2196 117.727 97.5016 117.833C98.2128 118.101 98.9427 117.997 99.6668 118.033C100.267 118.062 100.652 117.79 100.879 117.247C100.979 117.007 101.117 116.784 101.221 116.545C101.859 115.067 102.499 113.588 103.126 112.105C103.306 111.679 103.479 111.245 103.483 110.433ZM20.6189 97.3928C20.3026 96.9108 20.049 96.4058 20.0404 95.8111C20.8193 95.7797 21.6178 95.8429 22.3709 95.6874C22.9929 95.5588 23.6007 95.5058 24.2236 95.5027C25.6305 95.4965 27.0377 95.4803 28.4444 95.5005C29.0772 95.5098 29.4921 95.3079 29.838 94.7313C31.2899 92.3116 33.356 90.6655 36.1289 89.9807C37.7556 89.5786 39.374 89.3644 41.035 89.898C43.0711 90.5519 44.888 91.5013 46.0494 93.3724C46.5439 94.169 47.2173 94.343 48.0488 94.2158C48.5084 94.1456 48.9711 93.9207 49.4161 93.9581C50.9916 94.0917 52.5026 93.5434 54.0696 93.5955C54.8158 93.6202 55.0419 93.3092 55.0958 92.5223C55.1489 91.746 55.0222 90.9637 55.2311 90.19C55.3432 89.7743 55.19 89.5882 54.7967 89.5701C54.1207 89.5389 53.4086 89.6616 52.7742 89.4894C51.6906 89.1956 50.6082 89.2645 49.5204 89.2336C49.2085 89.2243 48.8696 89.2769 48.5902 89.1739C47.7292 88.8563 46.8438 88.9447 45.963 88.9229C45.4946 88.9116 44.9933 88.998 44.5647 88.8603C43.5921 88.5471 42.6077 88.6375 41.6236 88.6111C41.1552 88.5981 40.6553 88.6875 40.2245 88.5536C39.201 88.2356 38.1643 88.3217 37.1281 88.296C36.7117 88.2859 36.2645 88.3715 35.8845 88.2488C34.8124 87.9028 33.7203 88.0115 32.6326 87.981C32.3205 87.9722 31.9824 88.0252 31.7018 87.9235C30.7892 87.5936 29.8507 87.6969 28.9186 87.6704C28.5024 87.659 28.055 87.738 27.6761 87.6125C26.7062 87.2909 25.72 87.3811 24.7355 87.3582C24.2671 87.3475 23.7666 87.4381 23.3364 87.3038C22.2613 86.9685 21.1708 87.0408 20.0841 87.0555C19.3437 87.0651 18.6385 86.9529 17.9406 86.736C17.8661 86.0186 17.7914 85.3015 17.7168 84.5839C17.9762 84.5672 18.2357 84.5306 18.4944 84.5363C21.2017 84.5969 23.9086 84.6692 26.6159 84.7284C32.7081 84.8609 38.8006 84.9874 44.8928 85.1172C48.6418 85.1968 52.3907 85.2741 56.1393 85.363C56.5981 85.374 57.0804 85.3064 57.5321 85.6099C57.432 86.1594 57.3274 86.717 57.2288 87.2758C56.5394 91.1818 57.3985 94.7137 59.7811 97.8823C61.3791 100.007 63.4595 101.549 65.7512 102.833C68.4983 104.371 71.455 105.362 74.4915 106.135C80.0212 107.542 85.67 108.051 91.3476 108.258C94.1049 108.359 96.8689 108.318 99.6294 108.275C102.701 108.226 105.769 108.064 108.831 107.787C109.502 107.727 110.182 107.757 110.858 107.746C110.541 108.65 110.048 109.455 109.472 110.213C108.459 110.414 107.443 110.598 106.401 110.522C106.298 110.515 106.194 110.528 106.09 110.532C105.692 110.548 105.404 110.738 105.222 111.09C105.08 111.367 104.929 111.64 104.805 111.925C104.145 113.443 103.483 114.96 102.846 116.488C102.73 116.765 102.726 117.09 102.67 117.393C101.485 118.386 100.16 119.127 98.6985 119.63C97.8475 119.36 96.9811 119.243 96.0847 119.276C95.4617 119.3 94.8056 119.355 94.2185 119.195C93.4948 118.999 92.7814 118.951 92.0553 118.978C90.3337 119.04 88.6562 118.487 86.9309 118.633C85.9802 118.257 84.9813 118.371 83.996 118.337C83.6862 118.326 83.3608 118.315 83.0739 118.214C82.5659 118.035 82.0504 118.014 81.5307 118.038C79.964 118.107 78.4465 117.56 76.8759 117.683C76.7287 117.694 76.5671 117.63 76.4244 117.571C75.9755 117.385 75.5037 117.396 75.0362 117.411C73.6264 117.456 72.2652 116.954 70.8523 117.052C69.458 116.557 67.9744 116.777 66.5371 116.534C65.176 116.305 63.7798 115.989 62.3609 116.129C62.116 116.154 61.8571 116.022 61.6031 115.971C60.6232 115.774 59.6239 115.708 58.6633 115.973C55.0107 116.98 51.3753 118.052 47.723 119.061C46.4755 119.406 45.2656 119.919 43.9509 119.997C43.224 119.915 42.5818 119.611 41.9653 119.24C42.1441 119.144 42.3126 119.012 42.5031 118.958C45.4418 118.122 48.3862 117.307 51.3232 116.466C52.5 116.129 53.7084 115.883 54.919 115.384C54.2127 115.007 53.5627 114.929 52.8771 114.886C51.6925 114.812 50.4937 114.725 49.3395 114.469C48.1698 114.21 46.9793 114.204 45.8051 114.015C44.4341 113.793 43.0519 113.588 41.6707 113.413C40.4375 113.256 39.1944 113.211 37.9756 113.656C36.7094 114.118 35.414 114.5 34.1314 114.917C33.7402 114.801 33.4401 114.557 33.19 114.244C33.2295 113.976 33.3451 113.776 33.59 113.618C34.1935 113.228 35.0192 113.331 35.5222 112.732C34.917 112.003 34.0387 112.636 33.3546 112.298C33.3082 112.275 33.258 112.254 33.2072 112.247C32.2373 112.103 31.2671 111.96 30.2969 111.818C29.6562 111.396 29.0957 110.893 28.6879 110.235C29.5696 110.216 30.4361 110.176 31.3151 110.44C32.0998 110.675 32.9453 110.709 33.7643 110.829C34.9909 111.009 36.2165 111.195 37.4449 111.362C38.4259 111.496 39.3898 111.541 40.3671 111.21C44.3497 109.862 48.3442 108.55 52.39 107.397C55.3325 106.559 58.2626 105.677 61.1878 104.78C61.4829 104.689 61.9239 104.739 62.0728 104.338C61.8859 103.936 61.4949 103.851 61.2077 103.647C59.6667 102.553 58.3708 101.228 57.2649 99.6964C56.4012 98.5004 55.8151 97.1844 55.4107 95.7802C55.312 95.4373 55.156 95.2031 54.7949 95.1992C54.0142 95.1904 53.2 95.0697 52.4605 95.2478C51.4255 95.497 50.4004 95.4824 49.3639 95.4979C48.9464 95.5045 48.5427 95.5386 48.1378 95.6812C47.3172 95.9706 47.15 96.1314 47.3937 96.9011C47.5897 97.52 47.6236 98.1342 47.5747 98.7505C47.5134 99.5218 47.4349 100.307 47.2287 101.049C46.4761 103.755 44.9988 105.92 42.4732 107.306C41.0122 108.108 39.4885 108.394 37.8288 108.358C35.8429 108.316 34.0938 107.843 32.4733 106.614C30.0608 104.784 28.808 102.453 28.8115 99.4353C28.8121 98.9666 28.8242 98.4973 28.8078 98.029C28.7783 97.1802 28.6786 97.0924 27.7684 97.0615C27.5083 97.0527 27.2475 97.0579 26.9871 97.0597C24.8594 97.076 22.7247 96.9576 20.6189 97.3928Z" fill="#B42420"/>
<path d="M38.82 45.0645C42.3909 44.5119 45.9856 44.8857 49.5681 44.7892C51.1733 45.2943 52.8917 44.8719 54.4951 45.391C56.9418 45.5045 59.3093 46.0687 61.6724 46.6555C61.8236 46.6929 61.9817 46.7045 62.1284 46.7535C62.8401 46.9899 63.0377 47.3196 62.842 48.0573C62.4827 49.4111 62.1451 50.7665 61.8779 52.1432C61.482 54.1789 61.2554 56.2311 60.9935 58.2851C60.6347 61.0963 60.8299 63.8952 60.7494 66.6979C60.7287 67.4234 60.746 68.1408 60.9593 68.8619C61.102 69.3453 61.0451 69.8948 61.034 70.4139C61.0225 70.9627 60.7544 71.146 60.207 70.9672C58.2812 70.3371 56.3045 69.905 54.3357 69.4424C52.7236 69.0638 51.0768 68.8667 49.456 68.5535C47.9713 68.2668 46.4451 68.4594 44.9867 68.0202C44.6969 67.9327 44.3659 67.97 44.054 67.9709C40.8237 67.9797 37.5933 67.9929 34.3628 68.0052C33.8276 66.7457 33.7287 65.3884 33.5964 64.0609C33.1083 59.1696 33.7372 54.4335 35.837 49.9495C36.6491 48.2154 37.5177 46.5043 38.82 45.0645Z" fill="#F39523"/>
<mask id="mask0_25_100" style="mask-type:alpha" maskUnits="userSpaceOnUse" x="14" y="78" width="100" height="31">
<path d="M14 78.4884H113.034V108.354H14V78.4884Z" fill="black"/>
</mask>
<g mask="url(#mask0_25_100)">
<path d="M110.858 107.746C110.182 107.757 109.502 107.727 108.831 107.787C105.769 108.064 102.701 108.226 99.6294 108.275C96.869 108.318 94.105 108.359 91.3477 108.258C85.6701 108.051 80.0212 107.542 74.4916 106.135C71.455 105.362 68.4984 104.371 65.7513 102.833C63.4596 101.549 61.3791 100.007 59.7812 97.8823C57.3986 94.7137 56.5394 91.1818 57.2289 87.2758C57.3275 86.717 57.432 86.1594 57.5321 85.6099C57.0805 85.3063 56.5981 85.374 56.1394 85.3629C52.3908 85.2741 48.6418 85.1968 44.8929 85.1172C38.8006 84.9874 32.7082 84.8609 26.616 84.7284C23.9087 84.6692 21.2018 84.5969 18.4945 84.5363C18.2358 84.5306 17.9763 84.5672 17.7169 84.5839C17.04 84.3149 16.3357 84.0988 15.6915 83.7666C13.8652 82.8246 13.5147 81.3575 14.6549 79.6172C14.7689 79.4431 14.909 79.2862 15.0225 79.1123C15.3782 78.5674 15.8478 78.4377 16.4976 78.5229C19.6475 78.9364 22.8044 79.2978 25.9577 79.6852C28.9042 80.0471 31.8496 80.4178 34.7952 80.7858C36.1386 80.954 37.4807 81.1304 38.825 81.2921C39.1327 81.3292 39.4461 81.3199 39.7569 81.3318C40.6799 81.4683 41.6011 81.6204 42.5265 81.7379C44.5337 81.9923 46.544 82.2239 48.5518 82.4743C51.4856 82.841 54.4148 83.2514 57.3533 83.5762C59.4833 83.8116 59.2284 83.7362 58.9965 85.7066C58.6718 88.4675 59.1701 91.0785 60.8671 93.371C61.483 94.6098 62.4802 95.5186 63.5167 96.3815C65.7362 98.2286 68.301 99.4538 70.9894 100.442C71.1775 100.511 71.397 100.493 71.6017 100.516C72.6952 101.096 73.8796 101.388 75.0844 101.613C75.578 101.768 76.0634 101.954 76.5653 102.071C82.4078 103.444 88.3527 104.002 94.3321 104.246C98.7484 104.426 103.167 104.333 107.584 104.217C108.299 104.198 109.046 104.33 109.726 103.966C110.302 104.082 110.873 104.025 111.442 103.908C111.595 103.921 111.752 103.961 111.901 103.943C113.09 103.802 113.039 104.19 113.032 105.025C113.019 106.596 112.573 107.145 110.858 107.746Z" fill="#11ABA2"/>
</g>
<mask id="mask1_25_100" style="mask-type:alpha" maskUnits="userSpaceOnUse" x="43" y="115" width="56" height="9">
<path d="M43.9102 115.777H98.7382V124H43.9102V115.777Z" fill="black"/>
</mask>
<g mask="url(#mask1_25_100)">
<path d="M43.9507 119.997C45.2654 119.919 46.4754 119.406 47.7228 119.061C51.3751 118.052 55.0105 116.98 58.6631 115.973C59.6237 115.708 60.623 115.774 61.6029 115.971C61.8569 116.022 62.1158 116.154 62.3607 116.129C63.7796 115.989 65.1758 116.305 66.5369 116.534C67.9742 116.777 69.4579 116.557 70.8521 117.052C72.265 116.954 73.6262 117.456 75.036 117.411C75.5035 117.396 75.9753 117.385 76.4242 117.571C76.5669 117.63 76.7285 117.694 76.8757 117.683C78.4463 117.56 79.9638 118.107 81.5305 118.038C82.0502 118.014 82.5657 118.035 83.0737 118.214C83.3606 118.315 83.686 118.326 83.9958 118.337C84.9811 118.371 85.98 118.257 86.9307 118.633C88.656 118.487 90.3335 119.04 92.0551 118.978C92.7812 118.951 93.4946 118.999 94.2183 119.195C94.8054 119.355 95.4615 119.3 96.0845 119.276C96.9809 119.243 97.8473 119.36 98.6983 119.63C98.127 120.109 97.4157 120.303 96.7436 120.566C93.6722 121.767 90.4816 122.526 87.2298 123.028C80.0836 124.13 72.8994 124.166 65.6989 123.77C62.6266 123.6 59.5583 123.395 56.5028 123.033C52.5585 122.566 48.6939 121.729 44.9287 120.455C44.5897 120.341 44.276 120.151 43.9507 119.997Z" fill="#DE2D2B"/>
</g>
<path d="M20.6191 97.3928C22.725 96.9576 24.8596 97.076 26.9873 97.0597C27.2478 97.0579 27.5085 97.0527 27.7686 97.0615C28.6788 97.0924 28.7786 97.1802 28.8081 98.029C28.8245 98.4973 28.8124 98.9666 28.8117 99.4353C28.8082 102.453 30.061 104.784 32.4735 106.614C34.094 107.843 35.8431 108.316 37.829 108.358C39.4887 108.394 41.0124 108.108 42.4735 107.306C44.999 105.92 46.4763 103.755 47.2289 101.049C47.4352 100.307 47.5137 99.5218 47.5749 98.7505C47.6238 98.1342 47.59 97.52 47.3939 96.9011C47.1502 96.1314 47.3175 95.9706 48.1381 95.6812C48.5429 95.5386 48.9466 95.5045 49.3641 95.4979C50.4006 95.4824 51.4257 95.497 52.4607 95.2478C53.2002 95.0697 54.0144 95.1904 54.7952 95.1992C55.1562 95.2031 55.3122 95.4373 55.4109 95.7802C55.8153 97.1844 56.4014 98.5004 57.2651 99.6964C58.371 101.228 59.6669 102.553 61.2079 103.647C61.4951 103.851 61.8862 103.936 62.0731 104.338C61.9241 104.739 61.4832 104.689 61.1881 104.78C58.2628 105.677 55.3328 106.559 52.3903 107.397C48.3445 108.55 44.3499 109.862 40.3673 111.21C39.39 111.541 38.4261 111.496 37.4452 111.362C36.2168 111.195 34.9911 111.009 33.7646 110.829C32.9455 110.709 32.1 110.675 31.3153 110.44C30.4364 110.176 29.5698 110.216 28.6881 110.235C28.0701 109.825 27.6394 109.229 27.1691 108.677C24.4727 105.515 22.3864 101.982 20.8093 98.1434C20.7123 97.9071 20.6811 97.6438 20.6191 97.3928Z" fill="#DE2D2B"/>
<path d="M84.6102 12.2556C84.1715 15.1291 83.7333 18.003 83.2927 20.8762C83.2535 21.1324 83.1987 21.386 83.1514 21.6409C83.0052 21.6264 82.8588 21.6122 82.7132 21.5981C82.5014 21.6074 82.2904 21.6165 82.0791 21.6258C82.05 21.3706 82.0615 21.0843 81.7654 20.9694C81.2326 20.7631 80.6999 20.5505 80.1542 20.384C77.0572 19.4386 73.8766 18.9044 70.674 18.4864C64.987 17.7442 59.2706 17.4154 53.5413 17.2701C53.391 17.2661 53.2418 17.2202 53.1062 17.1964C52.9502 16.8897 53.1228 16.6804 53.2819 16.4802C53.985 15.5969 54.9402 15.069 55.9498 14.63C57.6313 13.8996 59.4031 13.4856 61.2012 13.1698C65.2137 12.466 69.2642 12.2473 73.331 12.1721C76.4572 12.1148 79.5795 12.223 82.7033 12.2584C83.3388 12.2573 83.9744 12.2565 84.6102 12.2556Z" fill="#DE2D2B"/>
<path d="M17.9409 86.736C18.6388 86.953 19.344 87.0651 20.0844 87.0555C21.1711 87.0408 22.2616 86.9685 23.3366 87.3038C23.7669 87.4381 24.2674 87.3475 24.7357 87.3582C25.7203 87.3811 26.7064 87.2909 27.6763 87.6126C28.0553 87.738 28.5026 87.659 28.9189 87.6704C29.851 87.6969 30.7895 87.5936 31.7021 87.9235C31.9827 88.0252 32.3208 87.9722 32.6328 87.981C33.7206 88.0116 34.8127 87.9028 35.8848 88.2489C36.2648 88.3716 36.7119 88.286 37.1284 88.296C38.1645 88.3217 39.2012 88.2356 40.2248 88.5536C40.6556 88.6876 41.1555 88.5982 41.6239 88.6111C42.608 88.6375 43.5924 88.5471 44.565 88.8603C44.9935 88.998 45.4949 88.9116 45.9633 88.923C46.8441 88.9447 47.7295 88.8563 48.5905 89.1739C48.8699 89.2769 49.2088 89.2243 49.5207 89.2336C50.6084 89.2645 51.6909 89.1956 52.7745 89.4894C53.4089 89.6616 54.121 89.5389 54.797 89.5701C55.1903 89.5883 55.3435 89.7743 55.2313 90.19C55.0225 90.9637 55.1492 91.746 55.096 92.5223C55.0422 93.3093 54.8161 93.6202 54.0699 93.5956C52.5028 93.5434 50.9919 94.0917 49.4164 93.9582C48.9713 93.9207 48.5087 94.1456 48.0491 94.2158C47.2176 94.343 46.5442 94.169 46.0497 93.3724C44.8883 91.5013 43.0713 90.5519 41.0352 89.898C39.3743 89.3644 37.7559 89.5786 36.1291 89.9807C33.3563 90.6655 31.2902 92.3116 29.8382 94.7313C29.4924 95.3079 29.0775 95.5098 28.4447 95.5005C27.038 95.4803 25.6307 95.4965 24.2239 95.5027C23.601 95.5059 22.9932 95.5588 22.3712 95.6874C21.6181 95.8429 20.8196 95.7797 20.0407 95.8111C19.4146 94.7084 19.1871 93.4682 18.8908 92.2651C18.4436 90.4489 18.0024 88.6225 17.9409 86.736Z" fill="#DE2D2B"/>
<path d="M60.8673 93.371C59.1703 91.0785 58.6721 88.4675 58.9967 85.7066C59.2286 83.7362 59.4835 83.8116 57.3535 83.5762C54.415 83.2514 51.4858 82.841 48.552 82.4743C46.5442 82.2239 44.534 81.9923 42.5267 81.7379C41.6013 81.6204 40.6801 81.4683 39.7571 81.3318C39.263 80.4147 38.7556 79.504 38.2796 78.5773C37.9711 77.9769 37.5931 77.4043 37.4468 76.7288C39.2195 76.7226 40.9924 76.7212 42.7654 76.7088C43.7049 76.7022 44.5831 77.1154 45.546 77.037C46.4732 76.9616 47.4053 77.1607 48.329 77.2369C49.6734 77.3476 50.9991 77.611 52.3513 77.6649C53.5378 77.7121 54.7196 77.9109 55.9003 78.0678C57.0793 78.2247 58.251 78.4437 59.4328 78.5702C59.9055 78.6204 60.3601 78.8534 60.8001 78.8291C62.0709 78.7592 62.3881 79.5774 62.5762 80.5516C63.1788 83.6646 64.0151 86.7165 64.8948 89.7606C65.2241 90.9005 65.744 92.0019 65.7687 93.2217C64.1366 93.3396 62.4954 93.1448 60.8673 93.371Z" fill="#F39523"/>
<path d="M82.0791 21.6259C82.2904 21.6165 82.5014 21.6074 82.7123 21.5981C82.5917 21.8043 82.4719 22.0102 82.3522 22.2161C81.2513 22.4984 80.4753 23.3185 79.6325 23.9776C77.9593 25.2863 76.3362 26.67 74.7899 28.1266C73.0513 29.7644 71.6039 31.6743 70.1178 33.541C69.9238 33.7843 69.7383 34.0344 69.5345 34.2694C69.2447 34.6044 68.943 34.7293 68.4455 34.6047C66.5854 34.1396 64.7065 33.7522 62.7688 33.8378C60.614 33.3019 58.421 33.6183 56.2458 33.5444C55.7274 33.5272 55.2189 33.571 54.7036 33.7089C53.6857 33.9805 52.6349 33.8174 51.5972 33.829C52.5074 33.0315 53.6008 32.5283 54.6484 31.9579C59.5136 29.3098 64.6123 27.1979 69.8448 25.399C73.3438 24.1959 76.8865 23.1356 80.4608 22.1772C81.0083 22.0306 81.5963 21.9736 82.0791 21.6259Z" fill="#F39523"/>
<path d="M34.1313 114.918C35.414 114.5 36.7093 114.118 37.9756 113.656C39.1943 113.211 40.4374 113.256 41.6707 113.413C43.0518 113.588 44.434 113.793 45.805 114.015C46.9792 114.204 48.1697 114.21 49.3395 114.469C50.4937 114.725 51.6924 114.812 52.877 114.886C53.5627 114.929 54.2126 115.007 54.919 115.385C53.7083 115.883 52.4999 116.129 51.3231 116.466C48.3861 117.307 45.4417 118.122 42.503 118.958C42.3125 119.012 42.1441 119.144 41.9653 119.24C39.1424 118.183 36.5069 116.786 34.1313 114.918Z" fill="#DE2D2B"/>
<path d="M101.778 75.626C102.215 75.835 102.255 76.2675 102.375 76.662C103.206 79.3936 104.042 82.1236 104.877 84.8539C104.822 85.1597 104.699 85.3951 104.338 85.4123C104.099 85.4242 103.861 85.4553 103.622 85.4774C101.383 85.4548 99.1453 85.4327 96.9071 85.4084C96.4392 85.4032 95.9702 85.4009 95.5035 85.3718C95.2393 85.3554 95.1302 85.1265 95.2367 84.9334C95.4873 84.4811 95.7845 84.052 96.0855 83.6301C97.4466 81.7224 98.817 79.8214 100.18 77.9154C100.42 77.5796 100.726 77.2791 100.801 76.8467C101.259 76.545 101.544 76.1061 101.778 75.626Z" fill="#428CC0"/>
<path d="M97.4928 62.4164C97.9414 62.4707 98.0615 62.8419 98.1728 63.1781C98.3999 63.866 98.5868 64.5676 98.7901 65.2639C99.2982 67.0046 99.7982 68.748 100.32 70.4852C100.471 70.9882 100.599 71.4832 100.496 72.0106C99.9731 72.012 99.4501 72.0134 98.927 72.0146C96.7462 72.0004 94.5659 71.9885 92.3851 71.9704C91.9711 71.967 91.5556 71.9616 91.1446 71.9179C90.8711 71.8888 90.8402 71.6444 90.9206 71.4478C91.0178 71.2114 91.1702 70.9933 91.3214 70.7834C92.5027 69.1397 93.6983 67.5064 94.8703 65.8568C95.32 65.2237 95.7213 64.5557 96.1445 63.9035C96.7454 63.5452 96.8841 62.7677 97.4928 62.4164Z" fill="#C480B4"/>
<path d="M101.161 99.6022C101.061 99.5841 100.96 99.5691 100.86 99.5475C100.19 99.4022 100.19 99.4017 100.268 98.6347C100.309 98.6024 100.36 98.5778 100.389 98.5375C102.039 96.2654 103.687 93.9923 105.335 91.7187C105.53 91.45 105.526 91.1316 105.558 90.8224C105.933 90.8042 106.178 90.5961 106.383 90.2962C106.518 90.0991 106.7 89.9343 106.862 89.7549C107.004 89.9634 107.212 90.1526 107.281 90.3831C108.165 93.3322 109.029 96.2869 109.895 99.2417C109.923 99.3371 109.907 99.4458 109.911 99.5489C109.448 99.5758 108.984 99.6032 108.521 99.6302C106.069 99.494 103.615 99.548 101.161 99.6022Z" fill="#C480B4"/>
<path d="M86.0489 57.3506C85.7958 57.1651 85.8258 56.9155 85.8921 56.6575C87.764 54.8876 89.3495 52.8575 91.0748 50.9543C91.2895 50.7175 91.4305 50.4541 91.4906 50.1435C92.1255 49.9965 92.5279 49.6156 92.6676 48.971C92.861 48.9719 93.093 48.8265 93.2317 49.0588C93.362 49.2785 93.4801 49.5144 93.5525 49.7583C94.3742 52.5306 95.1881 55.3055 95.9966 58.0818C96.0386 58.2251 96.0156 58.3871 96.023 58.5409C95.4894 58.5664 94.9548 58.5922 94.4215 58.6174C94.1683 58.426 93.8848 58.3342 93.567 58.2922C92.1869 58.1088 90.8115 57.8918 89.4305 57.716C88.3061 57.5729 87.1764 57.4709 86.0489 57.3506Z" fill="#C480B4"/>
<path d="M82.3523 22.2161C82.472 22.0102 82.5918 21.8043 82.7124 21.5981C82.859 21.6122 83.0053 21.6264 83.1515 21.6409C83.7798 21.5853 84.0775 21.8949 84.2446 22.491C84.8467 24.6412 85.5055 26.776 86.1098 28.9255C86.3339 29.7216 86.7191 30.4783 86.7363 31.3292C86.1753 31.3589 85.6145 31.3885 85.0535 31.418C84.548 31.4353 84.0427 31.4526 83.5372 31.4693C81.9883 31.2626 80.4301 31.4401 78.8793 31.3594C78.2965 31.3288 77.6581 31.593 77.1367 31.1102C77.2021 30.5039 77.6665 30.1213 77.9832 29.6681C79.2601 27.842 80.5524 26.0263 81.8858 24.2413C82.3599 23.6069 82.5511 22.9734 82.3523 22.2161Z" fill="#C480B4"/>
<path d="M84.513 45.5192C83.7942 45.4864 83.0748 45.4581 82.3561 45.4188C82.1269 45.406 81.9986 45.1737 82.121 44.9851C82.4008 44.5538 82.7083 44.1403 82.9839 43.7068C83.3971 43.0582 83.9754 42.5179 84.2448 41.7758C85.4059 40.4079 86.4883 38.984 87.3467 37.4014C87.8905 37.0153 88.2114 36.4524 88.5396 35.8958C88.6337 35.8887 88.776 35.8397 88.8121 35.882C88.9429 36.0332 89.0834 36.2014 89.1386 36.3878C89.9763 39.2062 90.8047 42.0279 91.6212 44.8525C91.6742 45.0367 91.6146 45.2536 91.6084 45.4542C91.0234 45.4731 90.4371 45.4926 89.8514 45.5125C88.0717 45.41 86.2921 45.4003 84.513 45.5192Z" fill="#428CC0"/>
<path d="M84.61 12.2556C83.9743 12.2565 83.3386 12.2573 82.7032 12.2584C82.6649 11.3751 82.6468 10.4906 82.5826 9.60927C82.5103 8.61607 82.5429 7.62995 82.6626 6.64382C82.7394 6.01598 82.9003 5.41298 83.2251 4.86866C83.6457 4.1635 84.2778 3.89307 85.0872 4.03769C85.8431 4.17334 86.3022 4.69142 86.3897 5.57296C86.4308 5.9856 86.4494 6.41274 86.3923 6.82141C86.1251 8.73756 85.6222 10.5816 84.61 12.2556Z" fill="#EA603D"/>
<path d="M102.67 117.393C102.726 117.09 102.73 116.765 102.846 116.488C103.483 114.96 104.145 113.443 104.805 111.925C104.929 111.64 105.08 111.367 105.222 111.09C105.404 110.738 105.692 110.548 106.09 110.532C106.194 110.528 106.299 110.515 106.401 110.522C107.443 110.598 108.459 110.414 109.472 110.213C107.794 113.165 105.59 115.618 102.67 117.393Z" fill="#DE2D2B"/>
<path d="M88.5395 35.8958C88.2113 36.4524 87.8904 37.0153 87.3472 37.4005C86.7856 36.8169 86.7029 36.0225 86.4396 35.3121C85.9606 34.0202 85.6585 32.6656 85.0532 31.418C85.6143 31.3885 86.175 31.3588 86.7361 31.3292C87.2804 32.3308 87.4814 33.4569 87.8785 34.5124C88.0606 34.9967 88.2056 35.4883 88.5395 35.8958Z" fill="#F19FB0"/>
<path d="M106.862 89.755C106.701 89.9343 106.519 90.0991 106.384 90.2962C106.179 90.5961 105.934 90.8042 105.558 90.8224C105.458 90.7052 105.312 90.6049 105.267 90.4701C104.71 88.809 104.168 87.1424 103.622 85.4774C103.861 85.4553 104.099 85.4242 104.338 85.4123C104.699 85.3951 104.822 85.1597 104.878 84.8539C105.455 85.8697 105.718 87.0099 106.156 88.0809C106.386 88.6411 106.477 89.26 106.862 89.755Z" fill="#F19FB0"/>
<path d="M94.4204 58.6177C94.9545 58.5922 95.4892 58.5665 96.0228 58.5409C96.3159 59.9088 96.7606 61.2192 97.4927 62.4186C96.884 62.7677 96.7452 63.5452 96.144 63.9035C95.4804 62.1708 94.8256 60.435 94.4204 58.6177Z" fill="#F19FB0"/>
<path d="M108.521 99.6302C108.985 99.6033 109.448 99.5758 109.911 99.5489C110.672 100.913 111.074 102.405 111.442 103.908C110.873 104.025 110.302 104.082 109.725 103.966C109.521 103.218 109.319 102.469 109.112 101.721C108.918 101.023 108.718 100.327 108.521 99.6302Z" fill="#F19FB0"/>
<path d="M98.9268 72.0146C99.4498 72.0134 99.9729 72.012 100.496 72.0106C101.078 73.1612 101.407 74.4017 101.778 75.6263C101.544 76.1061 101.259 76.545 100.802 76.8453C100.665 76.632 100.482 76.4363 100.399 76.2047C99.8956 74.8126 99.415 73.4121 98.9268 72.0146Z" fill="#F19FB0"/>
<path d="M89.8516 45.5125C90.4373 45.4926 91.0236 45.4731 91.6086 45.4542C91.7746 46.6824 92.262 47.8139 92.6676 48.9705C92.5279 49.6156 92.1255 49.9965 91.4902 50.1435C90.7814 48.6569 90.3883 47.0593 89.8516 45.5125Z" fill="#F19FB0"/>
<path d="M30.2969 111.818C31.2671 111.961 32.2374 112.103 33.2073 112.247C33.258 112.254 33.3082 112.275 33.3546 112.298C34.0388 112.636 34.917 112.003 35.5223 112.732C35.0192 113.331 34.1936 113.228 33.59 113.618C33.3452 113.776 33.2295 113.976 33.19 114.244C32.095 113.591 31.131 112.782 30.2969 111.818Z" fill="#DE2D2B"/>
<path d="M71.6016 100.516C71.8528 98.4036 72.1038 96.2918 72.3547 94.179C73.5472 94.256 74.7384 94.3421 75.8424 94.8683C75.5901 97.1162 75.3374 99.3642 75.0842 101.613C73.8794 101.388 72.695 101.096 71.6016 100.516Z" fill="#EA603D"/>
<path d="M103.483 110.433C103.479 111.245 103.306 111.679 103.126 112.105C102.499 113.588 101.86 115.067 101.221 116.545C101.117 116.784 100.979 117.007 100.879 117.247C100.652 117.79 100.267 118.062 99.6669 118.033C98.9427 117.997 98.2129 118.101 97.5017 117.833C97.2197 117.727 96.888 117.736 96.5779 117.728C95.3858 117.695 94.18 117.833 93.0199 117.426C91.1913 117.594 89.4091 117.02 87.5857 117.089C87.0136 117.111 86.4379 117.117 85.895 116.874C85.8026 116.832 85.6908 116.805 85.5911 116.813C83.9704 116.94 82.3954 116.452 80.7833 116.465C80.2124 116.469 79.6483 116.467 79.0841 116.287C78.6984 116.164 78.2645 116.176 77.8505 116.159C77.1767 116.132 76.4973 116.205 75.847 115.929C75.6636 115.851 75.4339 115.833 75.2325 115.854C73.7638 116.008 72.3562 115.4 70.8926 115.52C69.5004 115.014 67.9996 115.386 66.5827 114.969C65.9523 114.784 65.2415 114.878 64.5686 114.827C64.5006 114.822 64.4037 114.698 64.3905 114.618C64.3777 114.54 64.4355 114.388 64.4952 114.369C65.5312 114.033 66.5672 113.694 67.6144 113.394C69.4089 112.881 71.2155 112.409 73.0093 111.893C75.0544 111.305 77.0946 110.701 79.1283 110.075C79.6457 109.916 80.1391 109.853 80.6573 110.006C80.8562 110.064 81.0607 110.181 81.2555 110.167C82.8253 110.053 84.3416 110.579 85.9072 110.529C86.8392 110.5 87.7758 110.457 88.6916 110.772C89.0211 110.886 89.4144 110.827 89.7784 110.827C93.6871 110.83 97.5957 110.83 101.504 110.828C102.121 110.827 102.744 110.885 103.483 110.433Z" fill="#DE2D2B"/>
<path d="M75.6298 109.483C74.0906 109.953 72.7108 110.388 71.3219 110.791C70.4272 111.052 69.5125 111.244 68.6184 111.505C66.6285 112.087 64.6466 112.695 62.6597 113.286C61.7161 113.567 60.7688 113.837 59.8208 114.104C59.6246 114.16 59.3812 114.271 59.223 114.204C58.1883 113.772 57.0686 114.028 55.9974 113.747C55.0677 113.503 54.0499 113.442 53.0819 113.391C51.8855 113.328 50.7079 113.108 49.5407 112.949C48.371 112.79 47.1529 112.879 46.0109 112.465C45.73 112.363 45.3926 112.396 45.0819 112.402C44.5039 112.412 43.9935 112.222 43.3848 111.884C45.095 111.308 46.6985 110.726 48.3283 110.23C51.2534 109.34 54.1657 108.409 57.1125 107.585C59.1572 107.014 61.1833 106.373 63.2341 105.816C64.0293 105.6 64.7509 105.667 65.4785 106.012C66.0414 106.278 66.6147 106.522 67.1856 106.772C69.5232 107.799 71.9889 108.397 74.4683 108.95C74.7193 109.006 74.9676 109.081 75.2101 109.166C75.3012 109.199 75.3732 109.285 75.6298 109.483Z" fill="#DE2D2B"/>
<path d="M41.3711 96.9585C41.4519 95.4489 40.6197 93.8128 38.7251 93.379C37.5102 93.1006 36.3404 93.322 35.2911 94.0355C33.6718 95.136 33.1532 97.2651 34.0734 99.0227C34.9824 100.759 37.0606 101.517 38.8899 100.779C40.4188 100.163 41.3584 98.716 41.3711 96.9585ZM44.8139 97.5837C44.9313 100.114 43.7919 102.088 41.8178 103.579C40.1522 104.838 38.2319 105.191 36.1998 104.649C33.8232 104.015 32.1648 102.557 31.3573 100.208C30.2758 97.0606 31.4611 93.19 35.238 91.5624C36.7796 90.8983 38.3772 90.6469 40.1018 91.0773C42.9749 91.7943 44.7639 94.1818 44.8134 96.9258C44.8172 97.134 44.8139 97.3425 44.8139 97.5837Z" fill="#F39523"/>
<path d="M105.22 103.602C105.348 103.653 105.54 103.711 105.411 103.878C105.303 104.017 105.145 103.907 105.035 103.797C105.09 103.727 105.152 103.662 105.22 103.602Z" fill="#FDD31E"/>
<path d="M37.5338 95.1369C37.5095 94.8759 37.3966 94.6559 37.1072 94.5882C36.0294 94.3364 35.145 95.0181 35.1096 96.1213C35.0996 96.4385 35.3565 96.716 35.6734 96.7301C36.1361 96.7508 37.4032 95.7775 37.524 95.3056C37.5364 95.2575 37.5305 95.2045 37.5338 95.1369ZM41.371 96.9584C41.3582 98.716 40.4187 100.163 38.8898 100.779C37.0604 101.517 34.9822 100.759 34.0732 99.0227C33.153 97.2651 33.6716 95.136 35.291 94.0355C36.3402 93.322 37.51 93.1006 38.725 93.379C40.6195 93.8128 41.4517 95.4489 41.371 96.9584Z" fill="#88CFEA"/>
<path d="M37.5339 95.1369C37.5306 95.2045 37.5365 95.2575 37.5241 95.3056C37.4032 95.7775 36.1362 96.7508 35.6735 96.7301C35.3566 96.716 35.0996 96.4385 35.1097 96.1212C35.145 95.0181 36.0295 94.3364 37.1073 94.5882C37.3967 94.6559 37.5096 94.8759 37.5339 95.1369Z" fill="white"/>
</svg>
