<svg width="128" height="128" viewBox="0 0 128 128" fill="none" xmlns="http://www.w3.org/2000/svg">
<g clip-path="url(#clip0_25_100)">
<path d="M38.0101 88.8958C38.5309 95.9323 41.5205 103.396 48.5674 107.219C49.0153 109.031 51.3747 111.005 53.0101 110.432C53.7497 111.646 54.9841 112.474 56.0414 112.698C57.4789 110.896 57.6716 93.4375 56.2132 90.2135C54.7601 86.9948 37.9216 87.7344 38.0101 88.8958Z" fill="#AC4726"/>
<path d="M48.1768 103.005C48.2445 104.01 48.2757 105.031 48.4111 106.021C48.708 106.359 48.9059 107.401 49.0778 108.349C49.833 109.531 51.1976 110.526 52.3851 110.531C49.9476 108.88 48.7497 106.036 48.1768 103.005Z" fill="#CB7357"/>
<path d="M48.1769 103.005C48.1196 102.177 48.0311 101.365 47.8384 100.583C47.9113 101.391 48.0207 102.203 48.1769 103.005Z" fill="#CB7357"/>
<path d="M48.302 105.932C43.8801 103.917 38.5312 94.2239 39.151 87.401C38.8333 87.5104 37.9999 88.776 38.0104 88.8958C38.5312 95.9323 41.5208 103.396 48.5676 107.219C48.6354 107.49 48.7499 107.766 48.8906 108.036C48.651 107.391 48.5051 106.714 48.4114 106.021L48.302 105.932Z" fill="#CB7357"/>
<path d="M49.0778 108.349C48.9059 107.401 48.708 106.359 48.4111 106.021C48.5049 106.714 48.6507 107.391 48.8903 108.036L49.0778 108.349Z" fill="#CB7357"/>
<path d="M53.1092 110.151L53.2082 110.313C53.8384 111.344 54.8957 112.161 55.9373 112.432C57.2602 110.135 57.3488 93.2813 56.005 90.3125C55.5988 89.4167 53.6665 88.7344 50.5675 88.3854C45.2655 87.7917 38.7863 88.3802 38.2446 88.9167C38.8696 97.1615 42.6717 103.755 48.6821 107.01L48.7707 107.063L48.7967 107.161C49.0519 108.198 49.9894 109.333 51.0832 109.927C51.7602 110.292 52.4165 110.396 52.9321 110.214L53.1092 110.151ZM56.13 112.953L55.9894 112.922C54.8332 112.677 53.6405 111.818 52.9061 110.703C52.2967 110.854 51.5936 110.729 50.8644 110.333C49.6977 109.703 48.6873 108.5 48.3696 107.37C42.2602 104.016 38.4009 97.2969 37.7759 88.9115C37.7498 88.5417 38.255 88.3594 38.7498 88.2344C42.13 87.375 55.0936 87.1667 56.4269 90.1198C57.8852 93.3385 57.7238 110.964 56.2186 112.844L56.13 112.953Z" fill="#591A14"/>
<path d="M49.1925 108.911C48.0884 107.839 47.1873 100.719 47.0884 99.9063L47.5467 99.849C47.8123 102.005 48.6821 107.766 49.5155 108.578L49.1925 108.911Z" fill="#591A14"/>
<path d="M54.1249 112.016C51.4999 110.333 52.2811 101.516 52.3176 101.141L52.7811 101.188C52.7707 101.276 51.9843 110.094 54.3749 111.62L54.1249 112.016Z" fill="#591A14"/>
<path d="M47.5778 63.4063C44.5206 59.9948 32.2549 70.8125 35.2706 88.849C36.2549 92.5417 39.0049 92.5729 38.7914 88.2865C39.9424 91.5573 45.406 99.7188 44.9372 90.3698C45.932 94.1354 49.6091 98.974 50.8695 93.5885C51.7185 95.9583 54.1091 98.6354 54.1143 93.7708C55.3435 96.5573 57.4424 98.8906 57.9528 93.7083C58.4581 88.5208 56.4581 80.9115 56.4581 80.9115C58.0935 82.3021 60.2133 81.8073 57.2601 77.5677C54.3018 73.3281 50.2549 66.3854 47.5778 63.4063Z" fill="#AC4726"/>
<path d="M38.6093 84.9219C39.1927 86.1979 38.302 89.4948 36.9062 88.7188C35.8958 87.5573 34.7343 76.7813 40.1614 68.1771C41.7291 65.6927 42.8854 64.4167 45.2083 62.901C40.6354 64.0781 32.7916 74.026 35.2708 88.849C36.2552 92.5417 39.0052 92.5729 38.7916 88.2865C39.7395 90.9844 43.6197 97 44.6927 93.7969C41.3854 92.75 39.3072 88.099 38.6093 84.9219Z" fill="#CB7357"/>
<path d="M53.8852 92.6719L54.3279 93.6771C55.1143 95.4583 56.0727 96.6354 56.6664 96.5469C56.9008 96.5104 57.4789 96.1562 57.7185 93.6823C58.2185 88.599 56.255 81.0469 56.2341 80.974L56.0466 80.2552L56.6091 80.7344C57.3591 81.3698 58.0831 81.5 58.3487 81.2604C58.6872 80.9531 58.5518 79.8333 57.0675 77.6979C56.0362 76.2187 55.1039 74.1406 54.2081 72.1302C52.5258 68.3594 50.7914 64.4583 48.3122 64.224L48.2081 64.2135L48.1456 64.125C47.406 63.0781 46.1456 62.8542 44.6039 63.4896C39.505 65.5937 33.3279 75.8229 35.4997 88.8125C35.9737 90.5833 36.8695 91.4219 37.5102 91.3229C38.0622 91.2344 38.6664 90.3906 38.5622 88.2969L38.4841 86.6979L39.0154 88.2083C39.8852 90.6875 42.6091 94.7187 43.8591 94.4687C44.2497 94.3958 44.8747 93.7604 44.7029 90.3802L44.5935 88.151L45.1612 90.3125C45.8279 92.8385 47.682 95.7552 49.0831 95.7552H49.0987C49.9477 95.7448 50.406 94.5417 50.6404 93.5365L50.8175 92.7656L51.0883 93.5104C51.6247 95.0156 52.6664 96.349 53.2289 96.2552C53.38 96.2292 53.88 95.974 53.88 93.7708L53.8852 92.6719ZM56.5987 97.0156C55.7029 97.0156 54.8383 95.6979 54.3122 94.7083C54.2081 95.9583 53.8747 96.6146 53.307 96.7135C52.4372 96.8594 51.4789 95.5469 50.9112 94.3073C50.505 95.5677 49.8956 96.2083 49.1039 96.2187H49.0831C47.5987 96.224 46.057 93.9687 45.1925 91.849C45.1404 93.7656 44.7341 94.7708 43.9529 94.9271C42.4216 95.2344 40.1143 91.7708 39.0102 89.4115C38.8695 90.9948 38.2237 91.6823 37.5831 91.7812C36.7341 91.9167 35.6247 91.0781 35.0466 88.9115C33.7445 81.1354 35.3904 75.2187 37.005 71.6198C38.8643 67.4635 41.7081 64.1823 44.4268 63.0625C46.1247 62.3594 47.5883 62.6198 48.4633 63.7708C51.1508 64.125 52.9216 68.099 54.6352 71.9375C55.5206 73.9271 56.4425 75.9896 57.4477 77.4323C59.406 80.2396 59.0466 81.25 58.6612 81.6042C58.2602 81.9635 57.557 81.901 56.8331 81.4687C57.2914 83.3958 58.6039 89.4219 58.182 93.7292C57.9789 95.8125 57.505 96.8854 56.7393 97.0052L56.5987 97.0156Z" fill="#591A14"/>
<path d="M55.5986 101.141C66.3538 113.547 70.9476 115.453 74.0882 115.589C75.3799 116.099 79.2809 118.094 77.8122 115.307C78.6768 116.073 90.4788 124.057 82.3486 112.885C84.7288 114.266 87.2757 114.516 84.2861 107.865C85.6299 109.453 87.5934 99.6823 82.8434 92.5781C78.0986 85.4792 55.5986 101.141 55.5986 101.141Z" fill="#AC4726"/>
<path d="M82.8436 92.5781C79.2811 87.2448 65.7082 94.7448 59.1665 98.8177C62.8123 105.833 67.7707 112.24 75.5103 115.464C75.953 115.646 76.3644 115.891 76.755 116.177C75.9478 114.417 75.1196 112.693 73.8853 111.047C76.8488 113.786 81.1561 116.745 84.8332 116.854C84.4738 116.052 83.8175 114.958 82.7915 113.5C81.5207 111.917 80.3748 110.203 79.2342 108.49C80.7186 110.401 82.7915 113.089 85.6248 112.651C85.7238 111.781 85.3696 110.276 84.2863 107.865C85.63 109.453 87.5936 99.6823 82.8436 92.5781Z" fill="#95341D"/>
<path d="M77.0104 114.286L77.9688 115.135C78.7708 115.844 84.0052 119.224 84.8542 118.448C85.0313 118.286 85.4583 117.344 82.2552 112.948L81.7135 111.958L82.4635 112.682C83.7448 113.422 84.7135 113.635 85.125 113.26C85.4792 112.943 85.8125 111.828 84.0729 107.958L83.3958 106.453L84.4635 107.714C84.5677 107.839 84.6094 107.807 84.6667 107.766C85.75 106.948 86.7969 98.9115 82.651 92.7083C82.0781 91.8542 81.1927 91.3073 80.0104 91.0833C73.0365 89.7656 57.9219 99.8385 55.9427 101.188C66.5937 113.432 71.099 115.224 74.099 115.359H74.1406L74.1771 115.375C74.3438 115.438 74.5521 115.531 74.7865 115.63C75.6042 115.984 77.5208 116.807 77.8594 116.443C77.9063 116.396 78.0156 116.188 77.6094 115.417L77.0104 114.286ZM84.4792 119.01C82.8802 119.01 79.7188 116.938 78.3333 115.969C78.4063 116.266 78.3958 116.552 78.2031 116.76C77.6823 117.323 76.2656 116.776 74.6042 116.057C74.3906 115.964 74.1979 115.885 74.0417 115.823C70.9271 115.672 66.2656 113.797 55.4219 101.292L55.25 101.099L55.4635 100.948C56.1563 100.469 72.474 89.1823 80.099 90.625C81.4063 90.8698 82.3906 91.4844 83.0365 92.4479C87.224 98.7135 86.3437 107.083 84.9479 108.135L84.7083 108.255C85.9635 111.161 86.2031 112.917 85.4375 113.604C84.8854 114.104 83.9635 113.911 83.0938 113.526C85.8177 117.427 85.5938 118.401 85.1667 118.797C85 118.943 84.7656 119.01 84.4792 119.01Z" fill="#591A14"/>
<path d="M74.849 115.839C72.9219 115.161 69.3385 110.859 69.1875 110.677L69.5469 110.38C69.5781 110.422 73.1979 114.766 75.0052 115.401L74.849 115.839Z" fill="#211C1D"/>
<path d="M79.1247 116.234C76.4736 115.057 71.5413 107.062 71.333 106.724L71.7288 106.479C71.7757 106.562 76.7913 114.687 79.3174 115.812L79.1247 116.234Z" fill="#211C1D"/>
<path d="M82.3853 113.109C81.8488 112.333 75.9425 104.151 75.8853 104.068L76.2655 103.797C76.3228 103.88 82.1821 112.057 82.7186 112.833L82.3853 113.109Z" fill="#591A14"/>
<path d="M84.3695 108.677C83.734 106.807 81.3434 102.828 81.3174 102.786L81.7184 102.547C81.8174 102.714 84.1611 106.615 84.8122 108.526L84.3695 108.677Z" fill="#591A14"/>
<path d="M54.6198 108.255C55.2396 109.807 56.9583 114.38 54.0468 113.995C51.1302 113.604 47.7604 114.458 49.5052 117.094C49.2291 117.984 50.2396 119.844 52.9531 118.917C52.7187 120.323 54.8906 122.25 59.6198 118.49C61.6354 117.057 62.7187 116.281 64.1927 116.089C65.6666 115.891 67 112.698 62.3333 112.698C62.8385 110.74 63.3281 107.208 63.3281 107.208L54.6198 108.255Z" fill="#F79317"/>
<path d="M56.0621 113.781C57.0517 111.714 55.8278 110.203 55.4007 108.161L54.6194 108.255C55.2392 109.807 56.958 114.38 54.0465 113.995C51.3955 113.641 48.3746 114.313 49.1507 116.417C49.1819 115.964 49.3851 115.547 49.6976 115.234C51.5569 114.073 55.1299 115.177 56.0621 113.781Z" fill="#F5A949"/>
<path d="M62.3332 112.698C62.8384 110.74 63.328 107.208 63.328 107.208L60.9373 107.495C61.7446 109.286 61.8696 111.365 61.6457 113.167C63.7394 112.938 63.7082 114.911 62.0207 115.698C60.1613 117.094 56.5571 119.74 54.7863 119.708C53.0103 119.682 53.9113 117.677 55.5103 116.63C53.7446 118.391 50.4217 119.13 49.5103 117.76C49.7394 118.651 50.8175 119.646 52.953 118.917C52.7186 120.323 54.8905 122.25 59.6196 118.49C61.6353 117.057 62.7186 116.281 64.1925 116.089C65.6665 115.891 66.9998 112.698 62.3332 112.698Z" fill="#DB731A"/>
<path d="M53.2447 118.568L53.1822 118.953C53.1041 119.427 53.3541 119.911 53.8228 120.182C54.2655 120.443 55.9843 121.083 59.4739 118.307L59.5155 118.281C61.526 116.844 62.6353 116.057 64.1614 115.854C64.7968 115.771 65.3801 115.026 65.3332 114.354C65.276 113.448 64.1822 112.927 62.3332 112.927H62.0312L62.1093 112.641C62.5155 111.047 62.927 108.37 63.0572 107.479L54.9478 108.453C55.9895 111.141 56.1926 112.917 55.5572 113.734C55.2343 114.151 54.7135 114.318 54.0155 114.224C52.1874 113.979 50.026 114.24 49.4166 115.214C49.1353 115.667 49.2291 116.255 49.6978 116.964L49.7551 117.057L49.7239 117.161C49.6249 117.484 49.7447 118.021 50.1614 118.422C50.5051 118.755 51.3124 119.229 52.8749 118.698L53.2447 118.568ZM54.9114 120.906C54.2707 120.906 53.8385 120.734 53.5885 120.583C53.0676 120.281 52.7447 119.776 52.7082 119.234C51.1145 119.682 50.2343 119.141 49.8385 118.76C49.3749 118.313 49.1457 117.661 49.2551 117.135C48.5989 116.094 48.7655 115.38 49.026 114.964C49.7707 113.771 52.0989 113.5 54.0728 113.76C54.6041 113.833 54.9687 113.729 55.1874 113.448C55.5676 112.964 55.7395 111.682 54.401 108.344L54.2916 108.063L63.6041 106.943L63.5624 107.24C63.5572 107.276 63.1041 110.479 62.6301 112.469C65.3801 112.552 65.7655 113.781 65.7968 114.323C65.8593 115.234 65.0937 116.203 64.2239 116.318C62.8124 116.5 61.7343 117.266 59.7812 118.656L59.7551 118.677C57.526 120.448 55.9478 120.906 54.9114 120.906Z" fill="#B5501F"/>
<path d="M52.4268 104.74C52.7757 107.328 54.0257 110.438 54.7236 111.365C55.0465 110.089 55.1299 109.099 55.1299 109.099C56.1507 111.016 57.2965 111.818 57.2965 111.818C57.9788 110.844 58.9684 109.359 58.9684 109.359C59.0257 110.526 59.7861 111.979 59.7861 111.979C60.3382 111.307 61.4111 109.943 61.4111 109.563C61.557 110.875 62.6924 112.385 62.6924 112.385C63.5622 111.51 64.557 108.693 64.1924 107.094C63.8226 105.495 52.4268 104.74 52.4268 104.74Z" fill="#FBD596"/>
<path d="M52.4268 104.74C52.7757 107.328 54.0257 110.438 54.7236 111.365C54.7913 111.099 54.8486 110.844 54.8955 110.604C53.9945 108.911 53.7601 106.823 53.458 104.818C52.8226 104.766 52.4268 104.74 52.4268 104.74Z" fill="#F9E3C7"/>
<path d="M64.1925 107.094C64.0623 106.536 62.604 106.083 60.755 105.729C61.1873 107.26 60.5311 108.88 60.1613 110.349C59.6978 110.115 59.4634 109.417 59.229 108.953C59.1353 109.25 59.078 109.542 59.0259 109.833C59.2134 110.885 59.7863 111.979 59.7863 111.979C60.3384 111.307 61.4113 109.943 61.4113 109.562C61.5571 110.875 62.6925 112.385 62.6925 112.385C63.5623 111.51 64.5571 108.693 64.1925 107.094Z" fill="#EAB063"/>
<path d="M62.708 112.005C63.4632 111.01 64.2913 108.552 63.9632 107.146C63.7653 106.266 58.1299 105.37 52.7028 104.99C53.0413 107.161 53.9632 109.599 54.6247 110.776C54.8382 109.797 54.9007 109.089 54.9007 109.078L54.9684 108.297L55.3382 108.99C56.0778 110.385 56.8903 111.177 57.2497 111.479C57.9111 110.531 58.7653 109.245 58.7757 109.234L59.1663 108.646L59.2028 109.349C59.2393 110.13 59.6195 111.063 59.8382 111.547C60.708 110.464 61.1715 109.74 61.182 109.563C61.182 109.563 62.3955 111.542 62.708 112.005ZM62.6663 112.74L62.5049 112.526C62.4632 112.469 61.6872 111.422 61.333 110.292C61.057 110.74 60.5986 111.354 59.9632 112.125L59.7393 112.396L59.5778 112.083C59.5518 112.036 59.0309 111.026 58.8226 110C58.4684 110.521 57.9163 111.339 57.484 111.953L57.3538 112.141L57.1611 112.01C57.1195 111.979 56.2028 111.328 55.2757 109.818C55.2132 110.229 55.109 110.786 54.9528 111.422L54.833 111.896L54.5413 111.505C53.8434 110.578 52.557 107.422 52.1976 104.771L52.1611 104.49L52.4424 104.505C52.4736 104.51 55.333 104.703 58.2028 105.083C63.5361 105.802 64.307 106.547 64.4215 107.042C64.8174 108.781 63.7445 111.661 62.8538 112.547L62.6663 112.74Z" fill="#5C3215"/>
<path d="M49.2292 117.359C49.2031 116.005 52.099 115.172 54.5365 114.708L54.6406 114.688C54.6406 114.688 49.6771 116.583 49.6927 117.349L49.2292 117.359Z" fill="#B5501F"/>
<path d="M52.7603 119.531C52.2238 117.943 56.5467 115.786 57.4165 115.37C57.4165 115.37 52.8853 118.453 53.1978 119.385L52.7603 119.531Z" fill="#B5501F"/>
<path d="M50.1613 114.562L50.1353 114.099C51.2446 114.031 51.4738 115.203 51.4217 115.396C51.4217 115.396 51.3071 114.448 50.1613 114.562Z" fill="#B5501F"/>
<path d="M51.2707 116.161L51.229 115.698C52.729 115.573 53.3488 117.177 53.3748 117.245C53.3748 117.245 52.4165 116.068 51.2707 116.161Z" fill="#B5501F"/>
<path d="M53.1768 115.26L53.3122 114.99C54.2809 114.943 54.7445 115.984 54.7757 116.078C54.7757 116.078 54.2497 115.193 53.1768 115.26Z" fill="#B5501F"/>
<path d="M52.3486 114.109L52.5622 113.771C53.359 113.979 53.2861 114.938 53.2913 114.964C53.2913 114.964 53.2028 114.005 52.3486 114.109Z" fill="#B5501F"/>
<path d="M53.9268 117.859L54.1351 117.443C55.6195 117.172 56.5101 118.854 56.5622 118.927C56.5622 118.927 55.7236 117.568 53.9268 117.859Z" fill="#B5501F"/>
<path d="M55.6562 116.563L55.8958 116.203C56.8958 116.026 57.9219 117.479 57.9427 117.802C57.9427 117.802 57.3802 116.51 55.6562 116.563Z" fill="#B5501F"/>
<path d="M58.0467 113.021C57.4113 113.021 56.5884 112.953 55.7603 112.693L55.9009 112.25C57.5155 112.75 59.2394 112.932 59.2394 112.932C59.203 112.937 58.7342 113.021 58.0467 113.021Z" fill="#B5501F"/>
<mask id="mask0_25_100" style="mask-type:alpha" maskUnits="userSpaceOnUse" x="62" y="106" width="20" height="18">
<path d="M62 106.667H82V123.854H62V106.667Z" fill="black"/>
</mask>
<g mask="url(#mask0_25_100)">
<path d="M68.9686 109.052C69.6977 110.865 71.7082 116.219 68.2967 115.766C64.8904 115.312 60.9425 116.307 62.9842 119.391C62.6665 120.432 63.8488 122.609 67.0207 121.521C66.7498 123.167 69.2863 125.422 74.8227 121.026C77.1769 119.344 78.4477 118.438 80.1717 118.214C81.8957 117.984 83.4529 114.245 77.9946 114.245C78.5832 111.953 79.1613 107.828 79.1613 107.828L68.9686 109.052Z" fill="#F79317"/>
</g>
<path d="M70.6615 115.516C71.8177 113.099 70.3854 111.328 69.8854 108.943L68.9688 109.052C69.6979 110.865 71.7083 116.219 68.2969 115.766C65.2031 115.354 61.6615 116.135 62.5729 118.599C62.6094 118.068 62.849 117.578 63.2135 117.214C65.3854 115.854 69.5729 117.146 70.6615 115.516Z" fill="#F5A949"/>
<mask id="mask1_25_100" style="mask-type:alpha" maskUnits="userSpaceOnUse" x="62" y="106" width="20" height="18">
<path d="M62 106.667H82V123.854H62V106.667Z" fill="black"/>
</mask>
<g mask="url(#mask1_25_100)">
<path d="M77.995 114.245C78.5835 111.953 79.1616 107.828 79.1616 107.828L76.3647 108.161C77.3075 110.255 77.4533 112.693 77.1929 114.802C79.6408 114.526 79.6043 116.839 77.6304 117.76C75.4585 119.391 71.2397 122.484 69.1616 122.453C67.0887 122.417 68.1408 120.073 70.0158 118.849C67.9533 120.911 64.0627 121.771 62.9897 120.172C63.2606 121.214 64.5262 122.38 67.021 121.521C66.7502 123.167 69.2866 125.422 74.8231 121.026C77.1772 119.344 78.4481 118.438 80.172 118.214C81.896 117.984 83.4533 114.245 77.995 114.245Z" fill="#DB731A"/>
</g>
<mask id="mask2_25_100" style="mask-type:alpha" maskUnits="userSpaceOnUse" x="62" y="106" width="22" height="18">
<path d="M62 106.667H83.3333V123.854H62V106.667Z" fill="black"/>
</mask>
<g mask="url(#mask2_25_100)">
<path d="M67.3647 121.12L67.2918 121.568C67.1981 122.12 67.4897 122.688 68.0366 123.005C68.5574 123.313 70.5679 124.057 74.6512 120.813L74.6981 120.781C77.0522 119.099 78.3543 118.177 80.1356 117.943C80.8804 117.844 81.5574 116.974 81.5054 116.182C81.4376 115.125 80.1564 114.521 77.9949 114.521H77.646L77.7293 114.177C78.2137 112.313 78.6876 109.182 78.8439 108.141L69.3543 109.281C70.5731 112.427 70.8126 114.505 70.0679 115.464C69.6876 115.948 69.0835 116.141 68.2658 116.031C66.1251 115.75 63.5939 116.057 62.8856 117.188C62.5522 117.719 62.6616 118.411 63.2137 119.24L63.2814 119.349L63.2449 119.469C63.1304 119.849 63.271 120.479 63.7554 120.948C64.1564 121.333 65.1043 121.891 66.9324 121.266L67.3647 121.12ZM69.3126 123.854C68.5626 123.854 68.0522 123.646 67.7606 123.474C67.1564 123.12 66.7762 122.526 66.7345 121.896C64.8699 122.417 63.8387 121.786 63.3751 121.339C62.8387 120.818 62.5679 120.057 62.6929 119.443C61.9272 118.219 62.1199 117.391 62.4272 116.901C63.297 115.5 66.0262 115.188 68.3335 115.495C68.9533 115.578 69.3804 115.458 69.6356 115.13C70.0783 114.557 70.2814 113.063 68.7189 109.151L68.5887 108.823L79.4793 107.516L79.4324 107.865C79.4272 107.906 78.9012 111.651 78.3439 113.979C81.5574 114.078 82.0106 115.516 82.0522 116.151C82.1199 117.214 81.2241 118.349 80.2085 118.484C78.5574 118.698 77.297 119.594 75.0106 121.224L74.9793 121.245C72.3699 123.318 70.5262 123.854 69.3126 123.854Z" fill="#B5501F"/>
</g>
<path d="M66.4062 104.938C66.8177 107.964 68.2813 111.604 69.0938 112.693C69.4688 111.193 69.5729 110.036 69.5729 110.036C70.7604 112.281 72.1042 113.219 72.1042 113.219C72.9063 112.078 74.0625 110.344 74.0625 110.344C74.1302 111.703 75.0156 113.406 75.0156 113.406C75.6615 112.625 76.9167 111.026 76.9167 110.583C77.0885 112.115 78.4167 113.88 78.4167 113.88C79.4375 112.859 80.599 109.563 80.1719 107.693C79.7396 105.823 66.4062 104.938 66.4062 104.938Z" fill="#FBD596"/>
<path d="M66.4062 104.938C66.8177 107.964 68.2813 111.604 69.0938 112.693C69.1719 112.375 69.2396 112.078 69.2969 111.802C68.2396 109.818 67.9635 107.375 67.6146 105.026C66.8646 104.969 66.4062 104.938 66.4062 104.938Z" fill="#F9E3C7"/>
<path d="M80.1715 107.693C80.0205 107.042 78.3122 106.51 76.1507 106.094C76.6559 107.885 75.8851 109.781 75.458 111.5C74.9111 111.229 74.6403 110.411 74.3695 109.87C74.2549 110.214 74.1872 110.557 74.1299 110.901C74.3486 112.125 75.0153 113.406 75.0153 113.406C75.6611 112.625 76.9163 111.026 76.9163 110.583C77.0882 112.115 78.4163 113.88 78.4163 113.88C79.4372 112.859 80.5986 109.563 80.1715 107.693Z" fill="#EAB063"/>
<path d="M78.4375 113.438C79.3229 112.276 80.2865 109.401 79.9063 107.75C79.6719 106.724 73.0781 105.672 66.724 105.229C67.125 107.776 68.2083 110.625 68.9792 112C69.224 110.854 69.3021 110.026 69.3021 110.016L69.3802 109.099L69.8125 109.911C70.6771 111.542 71.6302 112.469 72.0469 112.823C72.8229 111.714 73.8229 110.208 73.8333 110.193L74.2917 109.51L74.3333 110.333C74.3802 111.24 74.8177 112.333 75.0729 112.901C76.0937 111.635 76.6354 110.786 76.6458 110.583C76.6458 110.583 78.0729 112.896 78.4375 113.438ZM78.3854 114.297L78.1979 114.047C78.151 113.984 77.2396 112.755 76.8281 111.438C76.5052 111.958 75.9687 112.677 75.224 113.578L74.9635 113.896L74.7708 113.531C74.7396 113.474 74.1354 112.292 73.8854 111.094C73.4792 111.703 72.8281 112.661 72.3281 113.375L72.1719 113.594L71.9479 113.443C71.8958 113.406 70.8229 112.646 69.7396 110.88C69.6667 111.359 69.5469 112.016 69.3594 112.755L69.2188 113.313L68.8802 112.854C68.0625 111.771 66.5573 108.073 66.1406 104.974L66.0938 104.641L66.4271 104.667C66.4583 104.667 69.8073 104.891 73.1667 105.344C79.401 106.182 80.3021 107.052 80.4375 107.63C80.9063 109.667 79.6458 113.036 78.6094 114.073L78.3854 114.297Z" fill="#5C3215"/>
<path d="M62.6613 119.703C62.6301 118.12 66.0207 117.141 68.8749 116.599L68.9947 116.578C68.9947 116.578 63.1926 118.792 63.2082 119.693L62.6613 119.703Z" fill="#B5501F"/>
<path d="M66.7916 122.245C66.1666 120.385 71.2239 117.865 72.2447 117.375C72.2447 117.375 66.9426 120.984 67.3072 122.073L66.7916 122.245Z" fill="#B5501F"/>
<path d="M63.7549 116.432L63.7236 115.891C65.0257 115.807 65.2913 117.177 65.2288 117.406C65.2288 117.406 65.0934 116.297 63.7549 116.432Z" fill="#B5501F"/>
<path d="M65.0519 118.302L65.0103 117.76C66.7603 117.609 67.4842 119.49 67.5155 119.568C67.5155 119.568 66.3905 118.187 65.0519 118.302Z" fill="#B5501F"/>
<path d="M67.2812 117.25L67.4427 116.932C68.5729 116.875 69.1146 118.094 69.151 118.203C69.151 118.203 68.5417 117.172 67.2812 117.25Z" fill="#B5501F"/>
<path d="M66.3125 115.896L66.5625 115.505C67.5 115.75 67.4115 116.865 67.4167 116.896C67.4167 116.896 67.3177 115.776 66.3125 115.896Z" fill="#B5501F"/>
<path d="M68.1562 120.286L68.4063 119.802C70.1406 119.484 71.1823 121.448 71.2396 121.536C71.2396 121.536 70.2656 119.948 68.1562 120.286Z" fill="#B5501F"/>
<path d="M70.1821 118.766L70.4686 118.349C71.63 118.141 72.8384 119.844 72.8592 120.219C72.8592 120.219 72.203 118.714 70.1821 118.766Z" fill="#B5501F"/>
<path d="M72.979 114.625C72.2342 114.625 71.2759 114.542 70.3071 114.245L70.4686 113.724C72.3592 114.307 74.38 114.526 74.38 114.526C74.3384 114.531 73.7863 114.625 72.979 114.625Z" fill="#B5501F"/>
<path d="M53.5259 60.7552C47.479 60.7552 41.0415 65.3229 39.6561 72.4583C40.7446 71.8385 44.2707 69.7865 44.2707 69.7865C40.5467 71.6458 37.7603 77.6927 37.7603 78.625C38.9998 77.5365 40.5467 76.2969 40.5467 76.2969C39.6196 78.625 39.4634 87.9271 40.0832 89.474C40.703 87.6146 41.1665 85.7552 41.1665 85.7552C41.3228 88.5469 44.9269 112.328 63.7655 107.094C64.6405 108.141 78.0103 109.885 83.7655 105.755C89.5259 101.63 90.2811 83.2344 89.1196 79.3177C87.953 75.4062 88.9217 64.3594 88.9217 64.3594C90.7082 66.2187 90.7082 66.2187 90.7082 66.2187C90.7863 65.2135 89.6196 63.4271 88.7707 63.1198C90.0103 62.1875 90.4738 59.9375 88.7707 59.474C87.0623 59.0104 83.9634 54.9792 80.8592 53.9687C77.7603 52.9635 54.505 56.5312 53.729 57.4583C52.953 58.3906 53.5259 60.7552 53.5259 60.7552Z" fill="#FBD596"/>
<path d="M43.5469 70.3802C43.9844 70.125 44.2708 69.9583 44.2708 69.9583C44.026 70.0833 43.7813 70.224 43.5469 70.3802Z" fill="#EAB063"/>
<path d="M90.708 66.3073C90.7861 65.2969 89.6195 63.5156 88.7705 63.2083C90.0101 62.276 90.4736 60.026 88.7705 59.5625C87.0622 59.099 83.9632 55.0677 80.8591 54.0573C79.8591 53.7344 76.7653 53.8854 72.9997 54.2708C74.4788 56.8802 72.6247 60.1615 73.9997 62.9062C75.484 64.2448 76.557 68.1094 76.734 70.349C77.6768 82.4427 79.2341 98.9531 77.0257 102.328C73.1247 108.281 65.8018 108.604 61.6143 105.349C62.0622 106.25 62.7861 106.479 63.4945 107.25L63.7653 107.182C64.6403 108.229 78.0101 109.974 83.7653 105.844C89.5257 101.714 90.2809 83.3229 89.1195 79.4062C87.9528 75.4948 88.9216 64.4479 88.9216 64.4479C90.708 66.3073 90.708 66.3073 90.708 66.3073Z" fill="#EAB063"/>
<path d="M42.0155 74.2292C41.88 74.4219 41.7915 74.6667 41.7915 75C41.8436 74.7292 41.9217 74.4739 42.0155 74.2292Z" fill="#F9E3C7"/>
<path d="M43.5469 70.3802C43.9844 70.125 44.2708 69.9583 44.2708 69.9583C44.026 70.0833 43.7813 70.224 43.5469 70.3802Z" fill="#F9E3C7"/>
<path d="M47.0884 99.9063C45.4425 97.2083 44.4738 94.5365 43.5467 91.5104C42.6144 87.5573 42.7186 82.75 43.5467 78.7188C43.0832 80.1146 41.5571 81.5104 41.3228 82.9063C41.3228 79.651 42.5623 75.3854 44.2707 73.1406C43.9686 73.4375 42.2603 73.875 42.0155 74.2292C41.9217 74.474 41.8436 74.7292 41.7915 75C41.7915 74.6667 41.88 74.4219 42.0155 74.2292C42.729 72.349 44.6613 70.3906 45.8957 68.9531C44.7342 68.9531 43.6509 69.1823 42.4842 69.4167C44.6665 66.25 47.5155 62.5781 51.328 61.125C45.9998 62.0677 40.8748 66.3542 39.6561 72.6354C40.4321 72.1927 42.453 71.0156 43.5467 70.3802C43.7811 70.224 44.0259 70.0833 44.2707 69.9583C44.2707 69.9583 43.9842 70.125 43.5467 70.3802C40.1925 72.599 37.7603 77.9271 37.7603 78.7969C38.9998 77.7135 40.5467 76.474 40.5467 76.474C39.6196 78.7969 39.4634 88.099 40.0832 89.651C40.703 87.7917 41.1665 85.9271 41.1665 85.9271C41.3175 88.6198 44.6769 110.833 61.8175 107.714C52.7759 107.849 49.0259 103.083 47.0884 99.9063Z" fill="#F9E3C7"/>
<path d="M63.8488 107.005L63.9478 107.12C64.729 108.057 77.9009 109.854 83.63 105.74C89.1769 101.766 90.1248 83.6979 88.8957 79.5625C87.729 75.651 88.6509 64.9635 88.6925 64.5104L88.7342 64L90.3748 65.7135C90.0884 64.8073 89.2603 63.7188 88.6873 63.5104L88.2863 63.3646L88.63 63.1094C89.328 62.5833 89.7655 61.5781 89.6196 60.8177C89.5259 60.3385 89.2134 60.0104 88.7082 59.875C87.9113 59.6563 86.8853 58.7604 85.6978 57.724C84.1925 56.4063 82.4894 54.9167 80.7915 54.3646C79.4946 53.9479 74.0467 54.3333 66.5728 55.375C59.4894 56.3646 54.3019 57.4219 53.9009 57.7865C53.3332 58.474 53.5988 60.2448 53.755 60.875L53.8228 61.1615H53.5259C48.1248 61.1615 41.6405 65.0156 39.9946 72.1719C40.9165 71.6406 42.4634 70.7396 43.3905 70.2031C43.6405 70.0365 44.2915 69.8333 44.7342 69.7552C44.7342 69.7552 44.1196 70.2656 43.6405 70.5938C40.8853 72.5 38.7238 76.4792 38.1457 78.1563C39.2498 77.2135 40.3905 76.3021 40.4009 76.2917L41.0936 75.7396L40.7655 76.5573C39.9738 78.5417 39.729 86.0365 40.1196 88.7761C40.5988 87.2396 40.9373 85.8906 40.9425 85.875L41.3175 84.3802L41.4009 85.9167C41.4061 86.0469 42.6405 99.4948 50.7134 105.281C54.2915 107.854 58.6665 108.443 63.703 107.042L63.8488 107.005ZM72.4009 108.776C72.2394 108.776 72.0832 108.776 71.9321 108.771C68.2603 108.729 64.5728 108.156 63.7082 107.526C58.578 108.922 54.1144 108.297 50.4425 105.661C43.9842 101.031 41.6248 91.3177 41.0675 87.2136C40.8748 87.9063 40.604 88.8177 40.3019 89.724L40.104 90.3281L39.8696 89.7396C39.2603 88.224 39.3644 80.276 40.1092 77.125C39.5415 77.5885 38.6665 78.3125 37.9113 78.974L37.5259 79.3125V78.7969C37.5259 78.0833 39.078 74.4375 41.4946 71.8385C40.7967 72.25 40.1405 72.625 39.7707 72.8385L39.3332 73.0885L39.4269 72.5885C40.9061 64.9948 47.5832 60.8333 53.2394 60.6979C53.1092 60.0156 52.8696 58.3021 53.5467 57.4844C54.1144 56.8073 62.1925 55.5208 66.3905 54.9323C69.2811 54.526 78.88 53.2604 80.9321 53.9219C82.7238 54.5052 84.4634 56.026 86.005 57.3698C87.1457 58.3698 88.1353 59.2344 88.828 59.4271C89.5103 59.6094 89.953 60.0729 90.078 60.7344C90.2342 61.5625 89.854 62.5833 89.1769 63.2448C90.078 63.8438 91.0103 65.4531 90.9373 66.4115L90.8957 66.9323L89.1144 65.0677C88.9425 67.2865 88.3436 76.0781 89.3384 79.4271C89.9113 81.349 90.0467 86.9531 89.2655 92.6615C88.7238 96.6406 87.3071 103.677 83.9009 106.12C80.729 108.396 75.5155 108.776 72.4009 108.776Z" fill="#5C3215"/>
<path d="M90.708 66.3958C90.7861 65.3854 89.6195 63.6042 88.7705 63.2917C90.0101 62.3646 90.4736 60.1146 88.7705 59.651C87.0622 59.1823 83.9632 55.151 80.859 54.1458C80.1403 53.9115 78.3382 53.9219 75.9893 54.0937C80.2393 70.875 86.2861 103.37 81.0205 107.312C82.0465 106.953 82.9788 106.495 83.7653 105.932C89.5257 101.802 90.2809 83.4062 89.1195 79.4948C87.9528 75.5781 88.7236 64.9375 88.7236 64.9375C90.708 66.3958 90.708 66.3958 90.708 66.3958Z" fill="#AC4726"/>
<path d="M88.7707 63.2917C90.0103 62.3646 90.4738 60.1146 88.7707 59.651C88.6457 59.6146 88.5155 59.5625 88.3748 59.4948C88.4478 60.9479 79.63 62.9479 78.2446 63.9531C80.0467 73.776 88.3853 64.3333 88.8905 65.0625C90.703 66.3906 90.7082 66.3958 90.7082 66.3958C90.7863 65.3854 89.6196 63.6042 88.7707 63.2917Z" fill="#95341D"/>
<path d="M76.2809 54.3073C79.3382 66.4583 86.3538 99.9531 81.8643 106.729C82.5309 106.438 83.1247 106.109 83.6299 105.74C89.1768 101.766 90.1247 83.6979 88.8955 79.5625C87.734 75.651 88.4632 65.3594 88.4945 64.9219L88.5257 64.5052L90.4268 65.901C90.208 64.9635 89.3018 63.7344 88.6872 63.5104L88.2861 63.3646L88.6299 63.1094C89.3278 62.5833 89.7653 61.5781 89.6195 60.8177C89.5257 60.3385 89.2132 60.0104 88.708 59.875C87.9111 59.6563 86.8851 58.7604 85.6976 57.724C84.1924 56.4063 82.4893 54.9167 80.7913 54.3646C80.359 54.2292 79.2288 54.1042 76.2809 54.3073ZM79.6559 107.927L80.8799 107.13C85.6924 103.526 80.7861 73.9792 75.7601 54.151L75.6924 53.8802L75.9684 53.8594C78.5622 53.6771 80.234 53.6979 80.932 53.9219C82.7236 54.5052 84.4632 56.026 86.0049 57.3698C87.1455 58.3698 88.1351 59.2344 88.8278 59.4271C89.5101 59.6094 89.9528 60.0729 90.0778 60.7344C90.234 61.5625 89.8538 62.5833 89.1768 63.2448C90.0778 63.8437 91.0101 65.4531 90.9372 66.4115L90.9059 66.8281L88.932 65.3802C88.8018 67.3906 88.333 76.0365 89.3382 79.4271C89.9111 81.349 90.0465 86.9531 89.2653 92.6615C88.7236 96.6406 87.307 103.677 83.9007 106.12C83.1351 106.672 82.1924 107.146 81.0986 107.531L79.6559 107.927Z" fill="#591A14"/>
<path d="M64.6455 107.922C63.3903 107.625 61.5986 105.443 61.5205 105.349C61.5205 105.349 63.7653 107.109 64.7549 107.469L64.6455 107.922Z" fill="#5C3215"/>
<path d="M78.8435 87.6354C79.2393 94.3073 78.5362 103.219 84.8904 108.099C85.0466 109.964 87.0622 112.286 88.7706 111.979C89.3122 113.297 90.3956 114.302 91.4008 114.693C93.1091 113.141 96.057 95.9323 95.1247 92.5208C94.1924 89.1094 78.7758 86.474 78.8435 87.6354Z" fill="#AC4726"/>
<path d="M79.7862 87.3594C79.1872 87.3698 78.8331 87.4583 78.8435 87.6354C79.2029 93.6927 78.5362 103.604 84.4268 107.479C81.6143 102.625 80.6299 95.0208 80.3956 89.9583C80.3435 88.875 79.4789 88.4323 79.7862 87.3594Z" fill="#CB7357"/>
<path d="M95.1248 92.5208C95.0571 92.2656 94.9009 92.0104 94.6821 91.7656C94.6769 92.2135 94.6509 92.6667 94.5832 93.1406C94.2707 97.5208 93.9634 100.234 92.953 104.844C92.604 106.453 92.1978 109.651 90.5415 109.359C88.8853 109.073 89.1196 104.74 89.5832 102.411C88.9113 105.234 88.0675 108.984 86.6769 108.49C85.2811 107.995 85.2811 102.677 85.0467 99.8854C84.3905 102.281 84.354 104.885 83.9634 107.313C84.2603 107.583 84.5623 107.849 84.8905 108.099C85.0467 109.964 87.0623 112.286 88.7707 111.979C89.3123 113.297 90.3957 114.302 91.4009 114.693C93.1092 113.141 96.0571 95.9323 95.1248 92.5208Z" fill="#95341D"/>
<path d="M88.9115 111.714L88.9844 111.891C89.4428 113.005 90.3594 113.979 91.3438 114.417C93.0157 112.354 95.7605 95.7239 94.9011 92.5781C94.6094 91.5208 92.6198 90.3646 89.2917 89.3333C84.599 87.875 79.6823 87.3437 79.0782 87.6771C79.1355 88.5989 79.1667 89.5521 79.2032 90.5573C79.4167 96.7552 79.6563 103.786 85.0365 107.917L85.1146 107.979L85.125 108.083C85.2136 109.146 85.9636 110.417 86.948 111.172C87.5573 111.641 88.1928 111.844 88.724 111.75L88.9115 111.714ZM91.4532 114.958L91.3178 114.906C90.2188 114.484 89.1771 113.443 88.625 112.229C87.9948 112.286 87.3282 112.047 86.6615 111.542C85.6146 110.734 84.8073 109.385 84.6719 108.224C79.198 103.953 78.9532 96.8437 78.7344 90.5729C78.7032 89.5469 78.6667 88.5833 78.6146 87.651C78.599 87.3958 78.7969 87.2344 79.2084 87.1667C81.6407 86.7708 94.4428 89.1406 95.349 92.4583C96.2813 95.8646 93.3386 113.245 91.5625 114.865L91.4532 114.958Z" fill="#591A14"/>
<path d="M85.2395 109.875C84.3229 108.641 85.0468 100.667 85.0468 100.667C84.9687 102.833 84.9166 108.661 85.6145 109.594L85.2395 109.875Z" fill="#591A14"/>
<path d="M89.6198 113.714C87.2916 111.641 89.4583 103.057 89.5521 102.693C89.5521 102.693 87.8125 111.479 89.9323 113.365L89.6198 113.714Z" fill="#591A14"/>
<path d="M85.5102 63.9896C79.8123 64.651 72.3436 67.4844 74.6561 87.8698C75.0467 91.6667 77.7602 92.1302 78.2238 87.8698C78.8436 91.2813 82.9529 100.198 83.9634 90.8958C84.3488 94.7656 87.2186 100.13 89.3123 95.0052C89.7759 97.4792 91.7134 100.505 92.4894 95.6979C93.2654 98.6458 94.9686 101.281 96.2863 96.2396C97.604 91.2031 96.8279 83.3698 96.8279 83.3698C98.2238 85 100.396 84.8438 98.1457 80.1927C95.9009 75.5417 92.7029 66.2969 87.2394 63.7812L85.5102 63.9896Z" fill="#AC4726"/>
<path d="M79.6979 67.6354C81.9843 65.1927 83.8125 63.6927 85.0416 63.8542C78.7083 64.901 72.3698 70.9688 74.6562 87.9427C74.9583 90.151 75.901 91.2813 77.375 90.5833C75.3698 88.3906 75.3125 72.3229 79.6979 67.6354Z" fill="#CB7357"/>
<path d="M94.9163 95.9427C94.5934 96.8437 94.4476 97.6042 93.7497 97.375C93.0518 96.9062 93.1299 96.7448 92.8955 95.8125C92.9684 96.0937 92.9528 96.375 92.9163 96.6614C93.7653 99.1979 95.2705 100.906 96.4632 96.3542C97.7809 91.3177 97.0049 83.4896 97.0049 83.4896L97.083 83.5729V83.2552V83.5729L97.2809 83.776L97.3174 83.7604C96.8174 82.0208 96.0518 80.4271 95.4528 78.8385C97.3122 83.4896 95.4788 93.9531 94.9163 95.9427Z" fill="#95341D"/>
<path d="M89.2344 94.3021C89.2344 94.6354 89.2344 94.9115 89.2344 95.1875L89.3125 95.0052C89.3437 95.1719 89.3802 95.3386 89.4219 95.5052L89.4375 95.4427C89.3542 95.0625 89.3021 94.6615 89.2344 94.3021Z" fill="#95341D"/>
<path d="M92.4893 94.5364C92.432 95.5052 91.9476 96.3489 91.0205 96.3489C89.8903 96.5104 89.6403 94.6823 89.4372 94.4167L89.333 95.5937C89.9424 97.9375 91.7653 100.182 92.4893 95.6979C92.5518 95.9427 92.6247 96.1875 92.7028 96.4219C92.682 95.8125 92.6247 95.2135 92.4893 94.5364Z" fill="#95341D"/>
<path d="M78.0675 86.1615C77.8384 87.5573 77.5259 90.9636 76.1613 90.5833C75.9686 90.5208 75.1248 89.4479 74.9478 89.2604C75.7655 91.7031 77.8228 91.5365 78.2238 87.8698C78.8175 91.125 82.5832 99.3958 83.8019 92.0573C83.8592 91.1927 83.8748 90.3125 83.88 89.4583C82.1613 96.8021 78.3019 88.4896 78.0675 86.1615Z" fill="#95341D"/>
<path d="M89.3751 94.2344C88.9116 95.1667 84.9897 97.0208 83.9689 88.651C83.7658 89.9271 84.0001 90.8229 84.1043 91.8698C84.8074 95.526 87.323 99.5937 89.2345 95.1875C89.2345 94.9114 89.2345 94.6354 89.2345 94.3021C89.3022 94.6614 89.3543 95.0625 89.4376 95.4427C89.5314 95.0156 89.4376 94.6458 89.3751 94.2344Z" fill="#95341D"/>
<path d="M98.1457 80.1927C96.2863 74.3385 86.88 58.2552 84.2915 63.8958C88.479 64.125 93.1873 70.2917 96.0623 80.0729C96.3696 80.8906 97.5675 83.8542 96.8019 82.7448C97.7967 85.5885 99.6248 84.8438 98.1457 80.1927Z" fill="#95341D"/>
<path d="M97.104 83.6615L97.1613 83.7136L97.1405 83.6458L97.104 83.6615Z" fill="#95341D"/>
<path d="M94.5675 99.3073C93.6144 99.3073 92.9164 97.7708 92.5362 96.6563C92.2341 97.8698 91.8071 98.4688 91.2289 98.4792H91.2185C90.3435 98.4792 89.6091 97.0313 89.2394 95.724C88.6404 96.901 87.9425 97.4427 87.1508 97.3281C85.6769 97.1146 84.4998 94.6354 83.9789 92.3958C83.63 94.276 83.0675 95.2083 82.2706 95.2396H82.2341C80.6821 95.2396 78.9737 91.5 78.2602 89.0104C77.8748 90.5521 77.13 91.125 76.4789 91.125H76.4737C75.6196 91.125 74.656 90.1198 74.4269 87.8906C72.156 67.901 79.6039 64.5313 85.4841 63.7604C80.3383 64.8073 72.7602 67.5938 74.8904 87.8438C75.0831 89.6875 75.8331 90.6615 76.4789 90.6615C77.0362 90.6615 77.7654 89.9219 77.9946 87.8438L78.1664 86.25L78.4529 87.8281C78.9216 90.3958 80.9581 94.7708 82.2341 94.7708H82.255C82.6456 94.7604 83.3644 94.2344 83.7289 90.8698L83.9685 88.651L84.1925 90.8698C84.4529 93.4792 85.8331 96.6667 87.2185 96.8698C88.0571 96.9948 88.7029 95.875 89.0935 94.9167L89.3956 94.1875L89.5414 94.9635C89.8331 96.5365 90.6508 98.0156 91.2185 98.0156L91.2237 98.0104C91.3748 98.0104 91.906 97.8333 92.2602 95.6615L92.4321 94.5781L92.7133 95.6406C93.2081 97.526 93.9737 98.8438 94.5675 98.8438C94.8071 98.8438 95.4373 98.5833 96.0623 96.1823C97.3539 91.2396 96.6091 83.474 96.5987 83.3958L96.5258 82.6615L97.005 83.2188C97.6456 83.9688 98.3383 84.2083 98.6404 84.0104C99.0258 83.7604 99.0727 82.6354 97.9373 80.2917C97.5883 79.5729 97.1612 78.7604 96.8175 77.8594C93.6508 69.651 89.6248 65.0729 87.2394 63.7813C91.9373 65.9479 94.9998 72.724 97.2394 77.6667C97.6352 78.5469 98.0102 79.375 98.3591 80.0938C99.8487 83.1719 99.3331 84.1146 98.8956 84.401C98.4425 84.6979 97.7602 84.5208 97.1144 83.9792C97.2654 85.9531 97.6091 92.1094 96.5154 96.2969C95.9841 98.3229 95.3487 99.3073 94.5675 99.3073Z" fill="#591A14"/>
<path d="M96.7082 84.849C96.6196 82.7448 95.3384 78.625 95.3384 78.625C95.4061 78.7917 97.078 82.6406 97.1717 84.8281L96.7082 84.849Z" fill="#211C1D"/>
<path d="M85.88 14.3073C81.3853 11.4792 72.854 8.02084 62.5623 8.13542C53.3228 8.23959 44.4269 11.7396 39.7759 16.4688C30.4686 25.9271 27.3696 34.7656 27.2134 41.4323C28.1457 41.276 29.0728 39.5729 29.0728 39.5729C28.1457 45.4635 31.2446 56.0052 31.2446 56.0052C32.4842 51.3542 32.255 50.8906 32.255 50.8906C33.3384 54.151 35.4321 60.2292 43.8436 62.901C46.6978 63.8125 51.078 61.151 55.1405 58.4948C58.9738 55.9844 62.5259 53.474 64.2342 53.9688C67.7498 54.9792 81.8175 63.1094 85.0259 62.401C90.8228 61.1198 95.203 53.0208 95.203 53.0208C95.453 54.5885 95.7863 56.0052 95.7863 56.0052C96.8696 53.9688 96.9425 51.0469 96.9425 51.0469C97.453 52.7865 97.604 53.9688 97.604 53.9688C98.6925 51.3542 98.828 45.25 98.38 43.4479C99.4894 45.6719 99.7759 46.5469 99.7759 46.5469C99.1196 34.4531 95.38 20.2969 85.88 14.3073Z" fill="#AC4726"/>
<path d="M31.0936 39.8802C28.9998 28.4844 37.3696 18.4844 46.9061 13.1354C50.5363 11.1198 54.4165 9.49479 58.4217 8.40625C50.7394 9.32292 43.7238 12.4531 39.7759 16.4687C30.4686 25.9271 27.3696 34.7656 27.2134 41.4323C28.1457 41.276 29.0728 39.5729 29.0728 39.5729C28.1457 45.4635 31.2446 56.0052 31.2446 56.0052C32.3957 51.6979 32.2811 50.9844 32.255 50.901V50.8906V50.901C33.1665 53.6354 34.7915 58.3385 40.2342 61.3646C37.4165 58.276 35.4946 54.2135 34.578 49.651C33.6509 46.1615 31.5571 43.1354 31.0936 39.8802Z" fill="#CB7357"/>
<path d="M99.7759 46.5469C99.1196 34.4531 95.1248 20.1927 84.9686 15.3854C84.3905 15.1146 83.755 14.8437 83.0675 14.5781C88.2915 18.6667 91.9946 24.5885 93.8853 31.0417C96.4425 39.8802 94.5832 48.4844 89.4634 56.1615C87.5467 59.1458 85.1457 61 82.479 62.0521C83.5832 62.3802 84.4686 62.526 85.0259 62.401C90.8228 61.1198 95.203 53.0208 95.203 53.0208C95.453 54.5885 95.7863 56.0052 95.7863 56.0052C96.8696 53.9688 96.9425 51.0469 96.9425 51.0469C97.453 52.7865 97.604 53.9688 97.604 53.9688C98.6925 51.3542 98.828 45.25 98.38 43.4479C99.4894 45.6719 99.7759 46.5469 99.7759 46.5469Z" fill="#95341D"/>
<path d="M43.9111 62.6823C46.9632 63.4792 51.7965 60.4219 56.0986 57.5833C59.6143 55.2708 62.6455 53.2708 64.2966 53.7448C65.5726 54.1094 68.1663 55.375 71.1716 56.8438C76.4372 59.4115 82.9997 62.6094 84.9788 62.1719C90.5986 60.9323 94.9528 52.9896 94.9997 52.9115L95.3226 52.3073L95.432 52.9844C95.5726 53.875 95.7445 54.7292 95.8643 55.2865C96.6403 53.3854 96.708 51.0625 96.708 51.0365L96.7445 49.5469L97.1663 50.9792C97.4111 51.8177 97.5726 52.5208 97.6768 53.0313C98.4841 50.1406 98.5309 45.0104 98.1559 43.5052L97.6455 41.4531L98.5882 43.3438C98.9632 44.099 99.2445 44.6927 99.4528 45.1563C98.8643 37.224 96.3486 21.1823 85.7549 14.5052C83.4111 13.0313 74.8226 8.23438 62.5674 8.3698C53.7966 8.46875 44.7028 11.7865 39.9372 16.6302C30.0518 26.6875 27.6715 35.4323 27.458 41.099C28.0518 40.7813 28.6611 39.8438 28.8695 39.4583L29.5153 38.2813L29.307 39.6094C28.5413 44.4271 30.5413 52.5156 31.2393 55.1146C32.1455 51.5781 32.2913 50.5417 32.2913 50.5417C32.2965 50.5469 35.1611 60.3854 43.9111 62.6823ZM45.0882 63.3177C44.6247 63.3177 44.182 63.2552 43.7705 63.125C36.083 60.6823 33.5726 55.3333 32.4007 52.0417C32.2705 52.8177 32.0049 54.0677 31.4684 56.0677L31.2549 56.8698L31.0205 56.0729C30.9007 55.6615 28.234 46.4896 28.7288 40.526C28.3486 41.0208 27.8174 41.5677 27.2549 41.6615L26.9736 41.7083L26.984 41.4271C27.1143 35.6875 29.4163 26.6667 39.609 16.3073C44.5309 11.3021 53.5361 8.00521 62.5622 7.90105C74.9424 7.76042 83.6351 12.6198 86.0049 14.1146C97.4476 21.3281 99.6091 39.1875 100.01 46.5365L100.104 48.2813L99.557 46.6198C99.5518 46.6146 99.3747 46.0833 98.7966 44.8385C98.9684 47.401 98.7341 51.8594 97.8174 54.0573L97.4893 54.8542L97.3747 54C97.3747 53.9896 97.2913 53.375 97.057 52.3958C96.9216 53.4427 96.6247 54.9167 95.9893 56.1146L95.6976 56.6667L95.557 56.0625C95.5518 56.0469 95.307 54.9896 95.083 53.6979C93.958 55.5938 90.0726 61.526 85.0778 62.6302C82.9372 63.1042 76.5778 60 70.9684 57.2604C67.9841 55.8073 65.4059 54.5469 64.1716 54.1927C62.7236 53.776 59.6299 55.8125 56.3538 57.974C52.5257 60.5 48.2497 63.3177 45.0882 63.3177Z" fill="#591A14"/>
<path d="M56.8543 30.7448C55.1616 23.25 49.7553 16.6563 42.8387 14.3437C35.9168 12.0313 25.0418 9.41667 22.2553 4.76562C21.9064 10.1146 25.9168 15.2865 26.9637 16.0417C26.7293 17.4375 28.9793 22.0313 31.5991 22.4583C30.5835 24.1667 33.3491 25.5833 38.7085 24.8802C48.4741 23.599 56.8543 30.7448 56.8543 30.7448Z" fill="#5A2B22"/>
<path d="M47.9165 16.9844C50.4478 19.9844 52.104 24.0365 49.2342 26.3646C53.7967 28.1458 56.854 30.7448 56.854 30.7448C55.604 25.2135 52.328 20.1719 47.9165 16.9844Z" fill="#3C1C18"/>
<path d="M36.672 22.901C33.4168 22.6719 27.6043 20.5781 29.2293 17.3229C29.3126 17.1094 30.2189 17.3021 30.4116 17.25C27.8803 15.901 25.198 12.5156 25.5105 10.5781C25.8178 8.64063 30.6876 10.5521 33.1928 11.2396C28.3803 9.55208 23.9012 7.51563 22.2553 4.76562C21.9064 10.1146 25.9168 15.2865 26.9637 16.0417C26.7293 17.4375 28.9793 22.0313 31.5991 22.4583C30.8282 23.7552 32.2449 24.8854 35.323 25.0417C34.2397 24.7083 33.198 24.2552 32.2553 23.599C31.073 22.026 35.2762 23.3698 36.672 22.901Z" fill="#8E574B"/>
<path d="M41.0572 24.4948C48.4113 24.4948 54.6509 28.7708 56.4686 30.1458C54.5936 22.8125 49.2759 16.7396 42.7603 14.5625C41.5936 14.1719 40.3228 13.776 38.9738 13.3594C32.8228 11.4427 25.2447 9.08333 22.4634 5.47916C22.4843 10.5937 26.2707 15.2552 27.0988 15.8542L27.2186 15.9375L27.1926 16.0833C27.078 16.7656 27.6822 18.5104 28.7603 20.0208C29.6718 21.2917 30.6926 22.0781 31.6353 22.2292L31.9738 22.2865L31.7968 22.5781C31.578 22.9531 31.5676 23.2969 31.7707 23.6094C32.3593 24.5 34.7186 25.1667 38.677 24.651C39.479 24.5469 40.2759 24.4948 41.0572 24.4948ZM57.229 31.375L56.703 30.9219C56.6197 30.849 48.2863 23.8594 38.7395 25.1094C35.0259 25.599 32.2082 25.1198 31.3853 23.8646C31.1301 23.4844 31.0884 23.0573 31.2603 22.625C30.2863 22.349 29.2759 21.5312 28.3853 20.2917C27.3593 18.8646 26.6561 17.0937 26.7186 16.1458C25.3749 15.0417 21.6874 9.86979 22.0207 4.74999L22.0676 4.0052L22.453 4.64583C24.7238 8.43229 32.703 10.9167 39.1145 12.9115C40.4634 13.3333 41.7343 13.7292 42.9113 14.1198C49.7655 16.4115 55.3228 22.9167 57.078 30.6927L57.229 31.375Z" fill="#211C1D"/>
<path d="M25.625 14.9479L26.0104 14.6875C27.3594 16.7083 34.1042 18.4167 34.1719 18.4323C34.1719 18.4323 27.0729 17.1146 25.625 14.9479Z" fill="#211C1D"/>
<path d="M35.354 22.9948C33.604 22.9948 30.479 22.7969 29.3853 21.4427L29.7446 21.151C31.1092 22.8438 36.5728 22.9635 36.5728 22.9635C36.505 22.9635 36.0363 22.9948 35.354 22.9948Z" fill="#211C1D"/>
<path d="M63.6615 51.2188C61.2552 28.4271 57.9115 21.7396 48.9219 21.8958C39.9271 22.0521 36.3334 24.4948 33.724 27.7865C30.0417 32.4375 27.9531 44.5313 37.7604 58.3333C42.9948 65.7031 54.349 65.4635 61.6354 57.401C63.1511 53.8802 63.6615 51.2188 63.6615 51.2188Z" fill="#FBD596"/>
<path d="M32.7188 34.9948C33.875 29.4479 37.3334 25.9635 41.7188 22.724C37.6979 23.7292 35.4844 25.5677 33.724 27.7865C30.0417 32.4375 27.9531 44.5312 37.7604 58.3333C39.9896 61.474 43.3386 63.2292 47 63.5885C45.0625 62.9115 43.2709 61.8281 41.7917 60.349C35.5104 53.8333 30.8594 44.7656 32.7188 34.9948Z" fill="#FAEBDC"/>
<path d="M49.2239 22.125L48.927 22.1302C40.1562 22.2813 36.578 24.5573 33.9114 27.9323C30.2083 32.6042 28.2291 44.526 37.9478 58.1979C40.1666 61.3229 43.5885 63.1719 47.578 63.4063C52.5885 63.6979 57.6353 61.4635 61.4374 57.276C62.8228 54.0417 63.3593 51.5208 63.427 51.2083C61.0572 28.7552 57.8489 22.125 49.2239 22.125ZM48.4583 63.8958C48.1562 63.8958 47.8541 63.8854 47.552 63.8698C43.4166 63.6302 39.8749 61.7083 37.5676 58.4688C27.703 44.5833 29.7551 32.4271 33.5416 27.6406C35.927 24.6354 39.4374 21.8281 48.9166 21.6615C53.7395 21.5833 56.7499 23.4271 58.9687 27.849C61.151 32.1927 62.6249 39.1771 63.8905 51.1927L63.8958 51.2292L63.8905 51.2604C63.8853 51.2917 63.3593 53.9896 61.8489 57.4948L61.8333 57.5313L61.8072 57.5573C58.1353 61.6198 53.3176 63.8958 48.4583 63.8958Z" fill="#5C3215"/>
<path d="M55.125 32.2083C52.0208 26.5469 44.4271 26.625 39.6979 27.401C40.5469 27.8646 41.0156 28.099 41.0156 28.099C39.4635 28.099 33.8802 32.276 32.7188 32.2083C34.349 33.0573 35.974 33.9115 38.4583 33.3698C40.9375 32.8281 41.5573 29.724 44.349 29.8021C47.1354 29.8802 55.125 32.2083 55.125 32.2083Z" fill="#C44F2E"/>
<path d="M33.3799 32.2865C34.8226 33.026 36.2809 33.6094 38.4059 33.1406C39.458 32.9115 40.1507 32.1927 40.8851 31.4323C41.7913 30.4948 42.7236 29.526 44.3538 29.5729C46.7393 29.6354 52.7445 31.2865 54.6247 31.8229C51.3955 26.75 44.1038 27.0156 40.4215 27.526C40.8695 27.7656 41.1143 27.8854 41.1195 27.8906L41.9997 28.3281H41.0153C40.2653 28.3281 38.3174 29.4948 36.5986 30.526C35.1507 31.3906 34.0882 32.0156 33.3799 32.2865ZM36.9476 33.7708C35.208 33.7708 33.8903 33.0833 32.609 32.4115L31.6455 31.9063L32.734 31.974C33.2132 32 34.8851 31.0052 36.359 30.125C37.8851 29.2135 39.3486 28.3385 40.3278 28.0052C40.1299 27.901 39.8799 27.7656 39.583 27.6042L38.9893 27.2813L39.6559 27.1719C43.2341 26.5833 51.9268 25.8906 55.3278 32.0938L55.5986 32.5885L55.057 32.4271C54.9788 32.4063 47.0674 30.1094 44.3434 30.0365C42.9163 29.9948 42.0934 30.849 41.2184 31.7552C40.4736 32.5313 39.6976 33.3333 38.5049 33.5938C37.9476 33.7188 37.432 33.7708 36.9476 33.7708Z" fill="#211C1D"/>
<path d="M57.3177 39.224C57.3177 45.5677 52.6979 50.7135 46.9948 50.7135C41.2917 50.7135 36.6719 45.5677 36.6719 39.224C36.6719 32.875 41.2917 27.7344 46.9948 27.7344C52.6979 27.7344 57.3177 32.875 57.3177 39.224Z" fill="#F9EB38"/>
<path d="M46.9948 27.7344C41.2917 27.7344 36.6719 32.875 36.6719 39.224C36.6719 41.9479 37.526 44.4479 38.9479 46.4167C36.7292 42.0313 38.9792 38.8229 41.6719 37.2083C40.1042 42.6146 43.8229 47.3802 48.2448 46.7396C53.0521 46.0469 53.9427 39.3021 52.3125 36.1615C55.4531 37.2083 57.625 41.0625 56.5 43.7083C57.026 42.3333 57.3177 40.8125 57.3177 39.224C57.3177 32.875 52.6979 27.7344 46.9948 27.7344Z" fill="#ECA610"/>
<path d="M46.9945 27.9896C41.432 27.9896 36.9059 33.026 36.9059 39.224C36.9059 45.4167 41.432 50.4583 46.9945 50.4583C52.557 50.4583 57.083 45.4167 57.083 39.224C57.083 33.026 52.557 27.9896 46.9945 27.9896ZM46.9945 50.9688C41.1768 50.9688 36.4424 45.6979 36.4424 39.224C36.4424 32.7448 41.1768 27.4792 46.9945 27.4792C52.8122 27.4792 57.5466 32.7448 57.5466 39.224C57.5466 45.6979 52.8122 50.9688 46.9945 50.9688Z" fill="#211C1D"/>
<mask id="mask3_25_100" style="mask-type:alpha" maskUnits="userSpaceOnUse" x="70" y="4" width="36" height="28">
<path d="M70 4H105.411V32H70V4Z" fill="black"/>
</mask>
<g mask="url(#mask3_25_100)">
<path d="M70.5571 30.8906C72.2498 23.401 77.6561 16.8021 84.5728 14.4896C91.4946 12.1771 102.364 9.56249 105.156 4.91145C105.505 10.2604 101.495 15.4375 100.448 16.1927C100.682 17.5885 98.4321 22.1771 95.8123 22.6094C96.828 24.3125 94.0571 25.7292 88.703 25.026C78.9373 23.75 70.5571 30.8906 70.5571 30.8906Z" fill="#5A2B22"/>
</g>
<mask id="mask4_25_100" style="mask-type:alpha" maskUnits="userSpaceOnUse" x="72" y="4" width="34" height="20">
<path d="M72.6665 4H105.411V24H72.6665V4Z" fill="black"/>
</mask>
<g mask="url(#mask4_25_100)">
<path d="M94.8125 12.4375C98.7188 11.3437 102.307 8.68229 104.948 5.6302C104.974 5.18229 105.188 5.35937 105.156 4.91145C102.365 9.56249 91.4948 12.1771 84.5729 14.4896C80.2187 15.9479 76.4635 19.099 73.8594 23.1042C78.8958 17.3698 87.2969 14.5156 94.8125 12.4375Z" fill="#8E574B"/>
</g>
<mask id="mask5_25_100" style="mask-type:alpha" maskUnits="userSpaceOnUse" x="90" y="4" width="16" height="22">
<path d="M90 4H105.411V25.3333H90V4Z" fill="black"/>
</mask>
<g mask="url(#mask5_25_100)">
<path d="M104.984 5.17187C103.76 11.1302 98.6873 15.5104 93.3592 18.5833C94.0571 18.5833 95.5571 17.901 95.5571 17.901C96.6613 18 92.6978 22.1771 90.8384 23.1094C91.3019 23.1094 93.0623 22.9323 92.7238 23.3698C92.229 24.125 91.6665 24.724 91.0467 25.2083C94.8384 25.276 96.6665 24.0417 95.8123 22.6094C98.4321 22.1771 100.682 17.5885 100.448 16.1927C101.495 15.4375 105.505 10.2604 105.156 4.91145L104.984 5.17187Z" fill="#3C1C18"/>
</g>
<mask id="mask6_25_100" style="mask-type:alpha" maskUnits="userSpaceOnUse" x="70" y="4" width="36" height="28">
<path d="M70 4H105.411V32H70V4Z" fill="black"/>
</mask>
<g mask="url(#mask6_25_100)">
<path d="M104.948 5.63021C102.162 9.22917 94.5887 11.5885 88.4377 13.5052C87.0887 13.9271 85.8179 14.3229 84.646 14.7135C78.1356 16.8854 72.8179 22.9635 70.9429 30.2969C72.9533 28.7708 80.3752 23.7031 88.7345 24.7969C92.6929 25.3177 95.0522 24.651 95.6408 23.7604C95.8439 23.4479 95.8335 23.099 95.6147 22.7292L95.4377 22.4323L95.7762 22.3802C96.7189 22.224 97.7397 21.4375 98.646 20.1667C99.7293 18.6615 100.333 16.9115 100.219 16.2292L100.193 16.0885L100.313 16C101.136 15.4063 104.922 10.7396 104.948 5.63021ZM70.1772 31.5208L70.3335 30.8438C72.0835 23.0677 77.646 16.5625 84.5002 14.2708C85.672 13.8802 86.9481 13.4792 88.297 13.0625C94.7085 11.0625 102.682 8.57813 104.958 4.79167L105.339 4.15105L105.391 4.89584C105.724 10.0156 102.037 15.1927 100.693 16.2969C100.755 17.2396 100.047 19.0104 99.0262 20.4375C98.1356 21.6823 97.1252 22.5 96.1512 22.7708C96.3231 23.2083 96.2814 23.6302 96.0262 24.0156C95.2033 25.2656 92.3856 25.7448 88.672 25.2604C79.1252 24.0052 70.7918 31 70.7085 31.0677L70.1772 31.5208Z" fill="#211C1D"/>
</g>
<path d="M93.2393 18.5833C93.307 18.5625 100.047 16.8542 101.396 14.8385L101.786 15.099C100.338 17.2604 93.2393 18.5833 93.2393 18.5833Z" fill="#211C1D"/>
<path d="M92.0519 23.1458C91.3748 23.1458 90.9009 23.1146 90.8384 23.1094C90.8384 23.1094 96.2967 22.9896 97.6613 21.3021L98.0259 21.5937C96.9321 22.9427 93.8019 23.1458 92.0519 23.1458Z" fill="#211C1D"/>
<path d="M63.6611 51.2188C65.8747 28.4271 69.7288 21.7396 78.7184 21.8958C87.7132 22.0521 91.3122 24.4948 93.9163 27.7865C97.5986 32.4375 99.6924 44.5313 89.8851 58.3333C84.6455 65.7031 73.2966 65.4635 66.0101 57.401C64.4893 53.8802 63.6611 51.2188 63.6611 51.2188Z" fill="#FBD596"/>
<path d="M93.9165 27.7865C93.2811 26.9844 92.5832 26.2344 91.7655 25.5521C92.6248 27.3177 93.3332 29.1562 93.8853 31.0417C96.4425 39.8802 94.1196 46.7396 88.9998 54.4167C85.4998 59.8646 79.1144 62.7292 74.2915 62.849C80.6873 65.2917 86.6196 62.9219 89.8853 58.3333C99.6925 44.5312 97.5988 32.4375 93.9165 27.7865Z" fill="#EAB063"/>
<path d="M66.208 57.276C70.0101 61.4635 75.057 63.6979 80.0622 63.4062C84.0518 63.1719 87.4736 61.3229 89.6976 58.1979C99.4111 44.526 97.432 32.6042 93.7341 27.9323C91.0622 24.5573 87.4841 22.2812 78.7184 22.1302L78.4268 22.125C69.583 22.125 66.0309 29.276 63.8955 51.1927C64.0101 51.5573 64.8278 54.0677 66.208 57.276ZM79.1872 63.8958C74.3278 63.8958 69.5049 61.6198 65.833 57.5573L65.807 57.5312L65.7913 57.4948C64.2913 54.0052 63.4476 51.3125 63.4372 51.2865L63.4268 51.2448V51.1979C65.5934 28.9271 69.2549 21.6615 78.4163 21.6615H78.7236C88.2028 21.8281 91.7132 24.6354 94.0986 27.6406C97.8851 32.4271 99.9424 44.5833 90.0726 58.4687C87.7705 61.7083 84.2236 63.6302 80.0882 63.8698C79.7861 63.8854 79.484 63.8958 79.1872 63.8958Z" fill="#5C3215"/>
<path d="M72.354 32.2083C75.4582 26.5469 83.0519 26.625 87.7811 27.401C86.9321 27.8646 86.4634 28.099 86.4634 28.099C88.0155 28.099 93.5988 32.276 94.7603 32.2083C93.13 33.0573 91.505 33.9115 89.0259 33.3698C86.5415 32.8281 85.9217 29.724 83.13 29.8021C80.3384 29.8802 72.354 32.2083 72.354 32.2083Z" fill="#C44F2E"/>
<path d="M83.234 29.5677C84.7965 29.5677 85.708 30.5156 86.5934 31.4323C87.3278 32.1927 88.0205 32.9115 89.0726 33.1406C91.1976 33.6042 92.6559 33.0208 94.0986 32.2865C93.3903 32.0156 92.3278 31.3906 90.8799 30.526C89.1611 29.4948 87.2132 28.3281 86.4632 28.3281H85.4788L86.359 27.8906C86.3643 27.8854 86.609 27.7656 87.057 27.526C83.3747 27.0156 76.083 26.75 72.8538 31.8229C74.734 31.2865 80.734 29.6354 83.1247 29.5729L83.234 29.5677ZM90.5361 33.7708C90.0465 33.7708 89.5309 33.7188 88.9736 33.5938C87.7809 33.3333 87.0049 32.5313 86.2549 31.7552C85.3851 30.849 84.5622 29.9948 83.1351 30.0365C80.4059 30.1094 72.4997 32.4063 72.4215 32.4271L71.8799 32.5885L72.1507 32.0938C75.5518 25.8906 84.2393 26.5833 87.8226 27.1719L88.4893 27.2813L87.8955 27.6042C87.5986 27.7656 87.3486 27.901 87.1455 28.0052C88.1299 28.3385 89.5934 29.2135 91.1195 30.125C92.5934 31.0052 94.2653 32.0052 94.7445 31.974L95.833 31.9063L94.8695 32.4115C93.5882 33.0833 92.2705 33.7708 90.5361 33.7708Z" fill="#211C1D"/>
<path d="M55.2393 50.6563C56.3643 54.3802 57.3955 54.4792 60.2393 55.849C62.4111 56.8958 63.807 60.1927 63.807 60.1927C64.3851 57.4792 66.2236 56.4219 67.2184 55.9688C69.2393 55.0365 71.6351 53.3698 72.083 50.7344C70.0049 52.6719 67.9788 52.3438 66.3851 50.9583C64.557 49.3698 62.359 49.849 60.8955 51.2396C58.7288 53.3073 55.2393 50.6563 55.2393 50.6563Z" fill="#F79317"/>
<path d="M56.0934 51.3906C55.9632 50.7813 55.9684 51.3698 55.9111 51.0938C55.4945 50.849 55.2393 50.6562 55.2393 50.6562C56.3643 54.3802 57.3955 54.4792 60.2393 55.849C60.4684 55.9635 61.3486 56.474 61.557 56.625C61.0361 55.4635 56.7028 54.2708 56.0934 51.3906Z" fill="#F8BF7A"/>
<path d="M66.3853 50.9583C65.6873 50.3542 64.9373 50.0469 64.1978 49.9792C65.2082 50.6406 66.0311 51.5677 66.4425 52.9063C66.9061 54.3021 65.9738 55.2292 65.2811 55.9271C64.354 56.6667 63.2863 57.6979 62.1821 57.5104C63.2082 58.776 63.8071 60.1927 63.8071 60.1927C64.3853 57.4792 66.2238 56.4219 67.2186 55.9688C69.2394 55.0365 71.6353 53.3698 72.0832 50.7344C70.005 52.6719 67.979 52.3438 66.3853 50.9583Z" fill="#DB731A"/>
<path d="M55.6613 51.2188C56.5571 53.875 57.4217 54.276 59.4894 55.2396C59.755 55.3646 60.0363 55.4948 60.3384 55.6406C62.0207 56.4479 63.2238 58.5 63.7394 59.5156C64.2759 57.8073 65.4061 56.5417 67.1196 55.7552C68.8644 54.9531 70.9894 53.5625 71.6873 51.3698C69.8957 52.724 67.979 52.651 66.2342 51.1354C64.3436 49.4948 62.2655 50.2552 61.0571 51.4063C59.2863 53.0937 56.7759 51.901 55.6613 51.2188ZM63.88 60.9583L63.5936 60.2813C63.578 60.25 62.203 57.0573 60.1405 56.0625C59.8384 55.9167 59.5571 55.7865 59.2967 55.6615C57.0675 54.625 56.0519 54.151 55.0155 50.724L54.8071 50.0365L55.38 50.474C55.4113 50.4948 58.7394 52.9792 60.7394 51.0677C62.1925 49.6823 64.5519 49.0573 66.5363 50.7813C67.755 51.8385 69.6769 52.6615 71.9217 50.5625L72.4269 50.0938L72.3123 50.7708C71.8384 53.5625 69.3332 55.25 67.3123 56.1771C65.5155 57.0052 64.4425 58.3333 64.0311 60.2396L63.88 60.9583Z" fill="#541315"/>
<path d="M52.1768 39.4948C52.1768 43.151 49.9893 46.1146 47.2913 46.1146C44.5934 46.1146 42.4111 43.151 42.4111 39.4948C42.4111 35.8437 44.5934 32.8802 47.2913 32.8802C49.9893 32.8802 52.1768 35.8437 52.1768 39.4948Z" fill="#171214"/>
<path d="M42.8384 36.7865C41.8436 36.151 41.1665 34.9271 41.1665 33.526C41.1665 31.4687 42.6092 29.8021 44.3853 29.8021C45.9738 29.8021 47.2967 31.1354 47.5571 32.8906C47.4686 32.8802 47.38 32.8802 47.2915 32.8802C45.3071 32.8802 43.5988 34.4844 42.8384 36.7865Z" fill="#F8E098"/>
<path d="M44.3853 37.2448C43.8228 37.2448 43.2967 37.0781 42.8384 36.7865C43.5988 34.4844 45.3071 32.8802 47.2915 32.8802C47.38 32.8802 47.4686 32.8802 47.5571 32.8906C47.5884 33.0937 47.604 33.3073 47.604 33.526C47.604 35.5781 46.1613 37.2448 44.3853 37.2448Z" fill="#A49CA4"/>
<path d="M53.5726 46.7813C52.7132 46.7813 52.0205 45.9479 52.0205 44.9219C52.0205 43.8906 52.7132 43.0573 53.5726 43.0573C54.4268 43.0573 55.1247 43.8906 55.1247 44.9219C55.1247 45.9479 54.4268 46.7813 53.5726 46.7813Z" fill="#FDF9B2"/>
<path d="M90.807 39.224C90.807 45.5677 86.1872 50.7135 80.484 50.7135C74.7861 50.7135 70.1611 45.5677 70.1611 39.224C70.1611 32.875 74.7861 27.7344 80.484 27.7344C86.1872 27.7344 90.807 32.875 90.807 39.224Z" fill="#F9EB38"/>
<path d="M80.484 27.7344C74.7861 27.7344 70.1611 32.875 70.1611 39.224C70.1611 41.9479 71.0153 44.4479 72.4372 46.4167C70.2184 42.0313 72.4684 38.8229 75.1611 37.2083C73.5934 42.6146 77.3122 47.3802 81.734 46.7396C86.5413 46.0469 87.432 39.3021 85.8018 36.1615C88.9424 37.2083 91.1143 41.0625 89.9893 43.7083C90.5153 42.3333 90.807 40.8125 90.807 39.224C90.807 32.875 86.1872 27.7344 80.484 27.7344Z" fill="#ECA610"/>
<path d="M80.4842 27.9896C74.9217 27.9896 70.3957 33.026 70.3957 39.224C70.3957 45.4167 74.9217 50.4583 80.4842 50.4583C86.0467 50.4583 90.5728 45.4167 90.5728 39.224C90.5728 33.026 86.0467 27.9896 80.4842 27.9896ZM80.4842 50.9688C74.6665 50.9688 69.9321 45.6979 69.9321 39.224C69.9321 32.7448 74.6665 27.4792 80.4842 27.4792C86.3019 27.4792 91.0415 32.7448 91.0415 39.224C91.0415 45.6979 86.3019 50.9688 80.4842 50.9688Z" fill="#211C1D"/>
<path d="M85.6665 39.4948C85.6665 43.151 83.479 46.1146 80.7811 46.1146C78.0884 46.1146 75.9009 43.151 75.9009 39.4948C75.9009 35.8437 78.0884 32.8802 80.7811 32.8802C83.479 32.8802 85.6665 35.8437 85.6665 39.4948Z" fill="#171214"/>
<path d="M76.3281 36.7865C75.3333 36.151 74.6562 34.9271 74.6562 33.526C74.6562 31.4687 76.099 29.8021 77.875 29.8021C79.4635 29.8021 80.7865 31.1354 81.0469 32.8906C80.9583 32.8802 80.8698 32.8802 80.7813 32.8802C78.7969 32.8802 77.0885 34.4844 76.3281 36.7865Z" fill="#F8E098"/>
<path d="M77.875 37.2448C77.3125 37.2448 76.7865 37.0781 76.3281 36.7865C77.0885 34.4844 78.7969 32.8802 80.7813 32.8802C80.8698 32.8802 80.9583 32.8802 81.0469 32.8906C81.0781 33.0937 81.0938 33.3073 81.0938 33.526C81.0938 35.5781 79.651 37.2448 77.875 37.2448Z" fill="#A49CA4"/>
<path d="M87.0623 46.7813C86.2082 46.7813 85.5103 45.9479 85.5103 44.9219C85.5103 43.8906 86.2082 43.0573 87.0623 43.0573C87.9165 43.0573 88.6144 43.8906 88.6144 44.9219C88.6144 45.9479 87.9165 46.7813 87.0623 46.7813Z" fill="#FDF9B2"/>
</g>
<defs>
<clipPath id="clip0_25_100">
<rect width="83.4133" height="119.853" fill="white" transform="translate(22 4)"/>
</clipPath>
</defs>
</svg>
