<svg width="128" height="128" viewBox="0 0 128 128" fill="none" xmlns="http://www.w3.org/2000/svg">
<path d="M35.7673 6.02003C28.5702 7.20607 16.9075 11.5731 14.8067 27.3115C12.8221 42.1809 26.8017 49.2839 26.8017 49.2839C26.8017 49.2839 26.4076 48.1832 25.8694 46.4008C25.0878 43.8103 25.776 40.9868 27.6893 39.0728C28.2238 38.5374 28.8349 37.986 29.5327 37.4264C29.9378 37.1014 30.0025 36.5095 29.6775 36.1043C29.3533 35.6992 28.7606 35.6345 28.3555 35.9595C27.4481 36.6874 26.6731 37.4073 26.0098 38.1051C25.2385 38.9154 23.8774 38.5132 23.6789 37.4124C23.6046 37.0007 23.5341 36.5859 23.4679 36.1683C23.1399 34.1021 24.0333 32.0359 25.7591 30.8535C26.9128 30.0623 28.443 29.2425 30.443 28.5513C30.8871 28.3976 31.2018 27.9564 31.1231 27.4932C31.0239 26.9034 30.429 26.5667 29.8886 26.752C27.4723 27.5814 25.6606 28.591 24.3216 29.5608C23.7238 29.9939 22.8796 29.5594 22.9002 28.8219C22.9002 28.8152 22.901 28.8086 22.901 28.8027C22.9465 27.2284 23.2443 25.6828 23.7385 24.1821C24.4774 21.9379 26.2554 20.2004 28.5393 19.5982C29.9503 19.2261 31.7761 18.9629 34.0533 19.032C34.6114 19.0533 35.0916 18.5563 35.0136 17.9665C34.9519 17.4996 34.5166 17.1628 34.0452 17.1503C32.3739 17.1055 30.9195 17.2239 29.6687 17.4334C28.7187 17.593 28.076 16.4746 28.6981 15.7386C31.1739 12.8106 34.1011 10.3054 36.7696 8.43109C37.9321 7.61417 37.1696 5.78914 35.7673 6.02003Z" fill="#4F2115"/>
<path d="M114.248 83.2734C114.248 97.2332 97.7155 108.55 77.3211 108.55C56.9274 108.55 40.394 97.2332 40.394 83.2734C40.394 69.3129 56.9274 57.9958 77.3211 57.9958C97.7155 57.9958 114.248 69.3129 114.248 83.2734Z" fill="#F9A70D"/>
<path d="M61.9031 74.9093C61.9031 86.4992 53.0082 95.895 42.0359 95.895C31.063 95.895 22.168 86.4992 22.168 74.9093C22.168 63.3194 31.063 53.9237 42.0359 53.9237C53.0082 53.9237 61.9031 63.3194 61.9031 74.9093Z" fill="#F14B38"/>
<path d="M50.0742 116.395C49.7146 116.395 49.361 116.222 49.1455 115.9C48.8029 115.387 48.9404 114.695 49.4529 114.351L58.3008 108.433C55.9655 97.8428 60.7861 90.9898 60.9979 90.6971C61.3582 90.1971 62.0553 90.0831 62.5553 90.4442C63.0553 90.8037 63.1693 91.5008 62.8097 92.0001C62.7435 92.0934 58.1648 98.7046 60.6472 108.661C60.7611 109.118 60.5766 109.597 60.1847 109.858L50.6941 116.207C50.5036 116.334 50.2882 116.395 50.0742 116.395Z" fill="#4F2115"/>
<mask id="mask0_25_100" style="mask-type:alpha" maskUnits="userSpaceOnUse" x="69" y="89" width="12" height="33">
<path d="M69.6953 89.9552H80.2367V121.839H69.6953V89.9552Z" fill="black"/>
</mask>
<g mask="url(#mask0_25_100)">
<path d="M70.937 121.839C70.6892 121.839 70.4414 121.757 70.2348 121.59C69.7554 121.202 69.6826 120.499 70.0701 120.02L77.6217 110.7C71.5929 100.176 74.4739 91.2714 74.6018 90.8898C74.7989 90.3059 75.4312 89.9912 76.0151 90.1868C76.5989 90.3831 76.9136 91.0148 76.7187 91.5986C76.6864 91.6986 73.9437 100.338 79.9313 110.223C80.1747 110.626 80.1394 111.139 79.8431 111.504L71.804 121.426C71.5841 121.698 71.2613 121.839 70.937 121.839Z" fill="#4F2115"/>
</g>
<mask id="mask1_25_100" style="mask-type:alpha" maskUnits="userSpaceOnUse" x="103" y="86" width="21" height="23">
<path d="M103.766 86.7551H124V108.779H103.766V86.7551Z" fill="black"/>
</mask>
<g mask="url(#mask1_25_100)">
<path d="M122.884 108.774C122.772 108.774 122.655 108.756 122.542 108.719L111.672 105.225C111.224 105.081 110.914 104.672 110.898 104.201C110.546 93.867 104.303 88.8287 104.24 88.7787C103.755 88.397 103.673 87.6948 104.054 87.211C104.437 86.7264 105.137 86.6433 105.622 87.0257C105.905 87.2492 112.425 92.5126 113.091 103.337L123.225 106.594C123.813 106.783 124.136 107.411 123.947 107.998C123.794 108.472 123.356 108.774 122.884 108.774Z" fill="#4F2115"/>
</g>
<path d="M104.321 119.743C104.1 119.743 103.877 119.678 103.682 119.542L93.2244 112.213C92.8383 111.942 92.6641 111.459 92.7876 111.005C95.8295 99.845 90.8067 92.2898 90.7559 92.2155C90.4089 91.7067 90.539 91.0118 91.0464 90.664C91.5552 90.3155 92.2479 90.4449 92.5957 90.9515C92.8236 91.2831 98.0421 99.0524 95.1398 110.829L104.962 117.713C105.467 118.067 105.59 118.763 105.236 119.267C105.019 119.578 104.673 119.743 104.321 119.743Z" fill="#4F2115"/>
<path d="M55.8383 70.9857C55.8383 85.3007 44.2337 96.9045 29.9188 96.9045C15.6046 96.9045 4 85.3007 4 70.9857C4 56.6708 15.6046 45.0662 29.9188 45.0662C44.2337 45.0662 55.8383 56.6708 55.8383 70.9857Z" fill="#F9A70D"/>
<path d="M21.3245 66.5526C20.684 68.8004 18.8465 70.2475 17.2207 69.7843C15.595 69.321 14.7964 67.1232 15.4369 64.8754C16.0773 62.6268 17.9149 61.1797 19.5406 61.6429C21.1664 62.1062 21.9649 64.304 21.3245 66.5526Z" fill="#2E1714"/>
<path d="M19.0246 64.1077C18.8835 64.6026 18.368 64.8901 17.8731 64.7489C17.3783 64.6077 17.0915 64.0923 17.232 63.5974C17.3731 63.1025 17.8886 62.815 18.3834 62.9562C18.8783 63.0974 19.1658 63.6128 19.0246 64.1077Z" fill="white"/>
<path d="M35.6388 70.6313C34.9984 72.8792 33.1608 74.3262 31.5351 73.863C29.9101 73.3997 29.1108 71.2019 29.7512 68.9534C30.3917 66.7055 32.2292 65.2584 33.855 65.7217C35.4807 66.1849 36.2793 68.3828 35.6388 70.6313Z" fill="#2E1714"/>
<path d="M33.6512 68.2754C33.51 68.7703 32.9945 69.057 32.4997 68.9159C32.0048 68.7747 31.718 68.2592 31.8592 67.7644C32.0004 67.2695 32.5159 66.9827 33.0107 67.1239C33.5056 67.2651 33.7923 67.7806 33.6512 68.2754Z" fill="white"/>
<path d="M23.9732 85.1463C22.8599 85.1463 21.7577 84.8749 20.7459 84.3404C19.1106 83.4757 17.9106 82.0271 17.365 80.2594C17.2444 79.866 17.465 79.4499 17.8569 79.3293C18.2525 79.2079 18.6665 79.4285 18.7878 79.8212C19.2158 81.208 20.1584 82.3455 21.4415 83.0242C22.7239 83.7029 24.1953 83.8411 25.5835 83.4132C26.2497 83.2073 26.8593 82.883 27.396 82.4499C27.7166 82.1911 28.1843 82.2411 28.4424 82.5609C28.7012 82.8801 28.6519 83.3492 28.3321 83.6073C27.6475 84.1602 26.8703 84.5735 26.0225 84.8352C25.3482 85.0433 24.6585 85.1463 23.9732 85.1463Z" fill="#EF3021"/>
<path d="M32.6953 79.5528C32.6953 82.1168 34.774 84.1962 37.3388 84.1962C39.9028 84.1962 41.9815 82.1168 41.9815 79.5528C41.9815 76.988 39.9028 74.9093 37.3388 74.9093C34.774 74.9093 32.6953 76.988 32.6953 79.5528Z" fill="#F14B38"/>
<path d="M6.08301 74.9093C6.08301 77.4741 8.16172 79.5528 10.7265 79.5528C13.2905 79.5528 15.3699 77.4741 15.3699 74.9093C15.3699 72.3446 13.2905 70.2659 10.7265 70.2659C8.16172 70.2659 6.08301 72.3446 6.08301 74.9093Z" fill="#F14B38"/>
<path d="M113.326 73.2402C112.787 76.7844 99.4093 82.0793 84.251 79.7734C69.0942 77.4675 57.5359 70.8034 58.4359 64.8886C59.3359 58.9738 72.353 56.0495 87.5106 58.3554C102.667 60.6621 113.947 69.1563 113.326 73.2402Z" fill="#95D9E5"/>
<path d="M102.901 32.4072C104.847 35.019 98.8124 47.7222 86.5166 56.8819C74.2216 66.0416 61.6228 69.9343 58.3772 65.5768C55.1316 61.2202 62.467 50.2626 74.762 41.1029C87.0571 31.9432 100.66 29.3991 102.901 32.4072Z" fill="#95D9E5"/>
<path d="M65.0487 18.1489C68.8818 24.3549 73.251 36.0175 62.7641 47.9398C55.5801 56.1076 45.9609 55.2634 41.2152 54.1833C40.224 53.9568 40.0946 52.5921 41.0218 52.1752C41.0483 52.1634 41.0748 52.1516 41.1012 52.1399C43.5704 51.0266 45.2491 48.6508 45.4344 45.9493C45.4866 45.1956 45.5006 44.3736 45.4645 43.4809C45.4432 42.9618 45.8469 42.5243 46.366 42.5029C46.8844 42.4816 47.3234 42.886 47.344 43.4044C47.3918 44.5824 47.3565 45.6523 47.2638 46.6207C47.158 47.7229 48.369 48.4538 49.3198 47.8861C49.6933 47.6618 50.0676 47.4339 50.4411 47.1993C52.1874 46.1045 53.1375 44.0831 52.9022 42.0346C52.7419 40.6404 52.3558 38.9389 51.5588 36.9646C51.3823 36.5293 51.508 36.0021 51.9088 35.7565C52.4191 35.444 53.0632 35.6712 53.2786 36.2006C54.2426 38.5727 54.672 40.6059 54.8191 42.2544C54.8853 42.9927 55.7647 43.3316 56.3088 42.8294L56.3228 42.8162C57.5206 41.7103 58.5177 40.4206 59.3412 39.0058C60.5023 37.0102 60.5751 34.5661 59.5486 32.4984C58.9023 31.1947 57.9037 29.652 56.3633 27.9895C55.9809 27.5821 56.0405 26.8931 56.536 26.5652C56.9294 26.3049 57.4691 26.4123 57.7875 26.7593C58.9206 27.9917 59.7876 29.1667 60.4508 30.2491C60.9582 31.0748 62.217 30.8256 62.3641 29.8675C62.9457 26.0762 62.9119 22.2217 62.5722 18.9776C62.4244 17.5643 64.3016 16.94 65.0487 18.1489Z" fill="#4F2115"/>
<path d="M113.356 58.0907C113.903 61.3003 102.625 69.8975 87.349 72.499C72.0737 75.1005 58.9507 72.8674 58.0389 67.5107C57.1264 62.1547 68.7707 55.7039 84.046 53.1024C99.3219 50.5009 112.727 54.3921 113.356 58.0907Z" fill="#4F2115"/>
<path d="M107.636 39.7911C109.104 42.6971 100.795 54.27 86.8831 61.2981C72.9719 68.3262 59.7077 70.0924 57.2577 65.243C54.8076 60.3929 64.0989 50.7641 78.0109 43.7361C91.9222 36.708 105.944 36.4426 107.636 39.7911Z" fill="#4F2115"/>
<path d="M31.3929 50.1913C31.3929 51.3796 30.4296 52.3428 29.2413 52.3428C28.0531 52.3428 27.0898 51.3796 27.0898 50.1913C27.0898 49.003 28.0531 48.0398 29.2413 48.0398C30.4296 48.0398 31.3929 49.003 31.3929 50.1913Z" fill="#F68712"/>
<path d="M47.8391 60.1473C47.8391 61.3356 46.8759 62.2988 45.6876 62.2988C44.4994 62.2988 43.5361 61.3356 43.5361 60.1473C43.5361 58.9591 44.4994 57.9958 45.6876 57.9958C46.8759 57.9958 47.8391 58.9591 47.8391 60.1473Z" fill="#F68712"/>
<path d="M24.645 50.6678C24.645 51.5928 23.895 52.3428 22.9699 52.3428C22.0449 52.3428 21.2949 51.5928 21.2949 50.6678C21.2949 49.742 22.0449 48.9928 22.9699 48.9928C23.895 48.9928 24.645 49.742 24.645 50.6678Z" fill="#F68712"/>
<path d="M52.2251 65.7136C52.2251 66.9019 51.2619 67.8651 50.0736 67.8651C48.8854 67.8651 47.9229 66.9019 47.9229 65.7136C47.9229 64.5254 48.8854 63.5621 50.0736 63.5621C51.2619 63.5621 52.2251 64.5254 52.2251 65.7136Z" fill="#F68712"/>
</svg>
