<svg width="128" height="128" viewBox="0 0 128 128" fill="none" xmlns="http://www.w3.org/2000/svg">
<path d="M90.4341 82.1118C90.4341 82.1118 95.2495 89.4756 98.539 87.7129C100.543 86.6174 99.8816 83.9637 99.8816 83.9637C101.341 84.7281 106.325 84.9812 107.419 82.7143C108.192 81.5104 107.155 80.5253 107.155 80.5253C108.01 79.8246 109.655 76.4662 106.058 74.2509C106.097 72.4527 103.901 69.5145 98.294 70.9796C95.2859 72.0467 92.6757 72.3606 92.6757 72.3606C92.9602 74.7187 90.4341 82.1118 90.4341 82.1118Z" fill="#F4C683"/>
<path d="M92.1479 81.2644C92.1479 81.2644 95.2026 88.5188 98.4922 86.7561C100.496 85.6606 99.8813 83.9637 99.8813 83.9637C101.34 84.7281 106.325 84.9812 107.418 82.7143C108.192 81.5104 107.155 80.5253 107.155 80.5253C108.01 79.8246 109.655 76.4662 106.057 74.2509C106.097 72.4527 103.901 69.5145 98.2937 70.9796C95.2856 72.0467 92.6755 72.3606 92.6755 72.3606C92.96 74.7187 92.1479 81.2644 92.1479 81.2644Z" fill="#FDE0AC"/>
<path d="M93.2843 80.2499C93.2843 80.2499 95.0642 87.3636 98.3538 85.6009C100.358 84.5054 99.0301 82.2121 99.0301 82.2121C100.489 82.9755 105.198 84.6684 106.292 82.4014C107.065 81.1976 105.884 79.61 105.884 79.61C106.739 78.9083 108.24 75.72 104.641 73.5047C104.682 71.7065 103.099 69.7079 98.2941 70.9796C95.286 72.0467 92.6758 72.3606 92.6758 72.3606C92.9603 74.7187 93.2843 80.2499 93.2843 80.2499Z" fill="#FCF3E3"/>
<path d="M90.504 82.1037C90.7946 82.5391 94.6896 88.2708 97.7251 87.9053C97.9994 87.8719 98.2637 87.7878 98.5097 87.6562C100.447 86.5971 99.827 84.0052 99.8199 83.9789L99.7855 83.8412L99.911 83.908C100.658 84.2988 102.449 84.5803 104.155 84.3747C105.793 84.1783 106.932 83.5779 107.361 82.6869C108.101 81.5337 107.121 80.581 107.111 80.5708L107.059 80.5212L107.115 80.4757C107.61 80.0697 108.301 78.8415 108.21 77.4959C108.125 76.2364 107.37 75.1328 106.024 74.3056L105.993 74.2863L105.994 74.2499C106.012 73.4369 105.587 72.557 104.858 71.8959C104.074 71.1851 102.591 70.4035 99.9799 70.7173C99.4483 70.7811 98.8864 70.8905 98.3093 71.0413C95.5897 72.0062 93.1618 72.3596 92.7457 72.4163C92.9745 74.7693 90.7004 81.5246 90.504 82.1037ZM97.7402 88.0308C94.5226 88.4186 90.5486 82.4034 90.3805 82.1473L90.3633 82.1209L90.3734 82.0916C90.3987 82.0177 92.8915 74.6853 92.613 72.3687L92.6049 72.3049L92.6687 72.2978C92.694 72.2948 95.3062 71.9718 98.2728 70.9198C98.8601 70.7659 99.4281 70.6556 99.9647 70.5918C102.623 70.2708 104.14 71.0727 104.944 71.8017C105.689 72.477 106.128 73.3771 106.122 74.2165C107.484 75.0639 108.25 76.1949 108.338 77.4878C108.428 78.8324 107.758 80.0676 107.246 80.5293C107.446 80.7511 108.165 81.6704 107.472 82.7487C106.899 83.9363 105.36 84.3575 104.171 84.5013C102.523 84.6997 100.792 84.4466 99.9697 84.0771C100.07 84.6279 100.338 86.8017 98.5695 87.7686C98.3103 87.9083 98.0308 87.9964 97.7402 88.0308Z" fill="#DEA95D"/>
<path d="M75.5738 74.827C75.5738 74.827 83.3456 78.5813 87.4219 81.2219C91.0071 83.3248 93.4087 84.1166 96.6841 80.1061C98.7131 77.1 98.1005 74.1416 92.4235 71.6863C86.7465 69.231 76.6683 61.1635 75.5181 59.1953C72.6811 60.2483 75.5738 74.827 75.5738 74.827Z" fill="#F2561A"/>
<path d="M92.4233 71.6863C86.7463 69.231 76.668 61.1635 75.5179 59.1953C73.4149 59.9759 74.4608 68.1922 75.1422 72.389C75.9553 72.4872 76.7733 72.7504 77.3251 73.2698C82.8847 77.1173 88.6964 82.1908 95.5975 81.2907C95.9498 80.9536 96.3113 80.5627 96.6839 80.1061C98.7129 77.1 98.1003 74.1416 92.4233 71.6863Z" fill="#F36518"/>
<path d="M79.8201 72.7129C80.7759 74.2641 83.6199 73.4085 84.2163 74.1061C87.0877 77.7318 90.8815 79.453 95.1805 77.91C96.5666 77.4028 97.0283 76.2708 97.0789 75.0174C96.3023 73.8408 94.8109 72.719 92.4235 71.6863C88.7765 70.1088 83.3132 66.2158 79.568 63.1105C76.7431 65.5435 77.8285 69.8871 79.8201 72.7129Z" fill="#F57B14"/>
<path d="M90.3528 70.6576C89.3656 70.1149 88.3106 69.473 87.2364 68.7734C87.3356 70.5553 87.3953 74.0049 86.5469 75.8324C87.9694 75.5196 89.881 72.7757 90.3528 70.6576Z" fill="#221411"/>
<path d="M84.2011 66.6877C83.0934 65.8888 82.0111 65.0697 81.0057 64.2749C81.0755 66.4558 81.1444 70.852 80.6533 72.5418C81.4724 71.8787 83.5197 69.3424 84.2011 66.6877Z" fill="#221411"/>
<path d="M75.6304 74.7845C76.1529 75.0376 83.548 78.636 87.4572 81.1682C89.4721 82.3508 91.0263 83.0474 92.5369 82.8651C93.9068 82.7001 95.2088 81.8111 96.6344 80.0666C97.5831 78.6603 97.8879 77.337 97.5365 76.1362C97.0556 74.4889 95.3263 73.0116 92.3982 71.745C86.7242 69.2908 76.7411 61.2678 75.4917 59.2742C72.8795 60.4204 75.4846 74.0342 75.6304 74.7845ZM92.5521 82.9917C91.006 83.178 89.4306 82.4733 87.3904 81.2765C83.3617 78.6664 75.6243 74.9222 75.5464 74.8847L75.518 74.8706L75.512 74.8402C75.3925 74.2428 72.6416 60.1956 75.4958 59.1355L75.5464 59.1173L75.5727 59.1629C76.6844 61.0643 86.7455 69.1612 92.4488 71.6286C95.4133 72.9104 97.166 74.4149 97.659 76.1007C98.0205 77.339 97.7107 78.6988 96.7367 80.1416C95.2858 81.9185 93.9574 82.8226 92.5521 82.9917Z" fill="#A81F22"/>
<path d="M107.112 80.5719C106.621 80.1233 105.597 79.1898 104.211 78.9337C104.211 78.9337 105.497 78.9954 107.198 80.4777L107.112 80.5719Z" fill="#DEA95D"/>
<path d="M106.39 74.5476C104.914 73.4146 102.901 73.1078 102.88 73.1048C102.88 73.1048 104.966 73.2941 106.468 74.4463L106.39 74.5476Z" fill="#DEA95D"/>
<mask id="mask0_25_100" style="mask-type:alpha" maskUnits="userSpaceOnUse" x="48" y="110" width="24" height="14">
<path d="M48.3999 110.269H71.7275V123.998H48.3999V110.269Z" fill="black"/>
</mask>
<g mask="url(#mask0_25_100)">
<path d="M57.006 110.376C57.006 110.376 47.9108 110.185 48.9921 117.245C48.2287 119.09 48.1022 122.778 54.5254 123.16C55.4164 124.225 59.2962 124.369 64.957 122.46C70.1085 120.552 72.5253 117.945 71.1899 114.892C70.3627 112.094 70.1045 111.559 70.1045 111.559L57.006 110.376Z" fill="#F4C683"/>
</g>
<mask id="mask1_25_100" style="mask-type:alpha" maskUnits="userSpaceOnUse" x="48" y="110" width="22" height="14">
<path d="M48.3999 110.269H69.1356V123.998H48.3999V110.269Z" fill="black"/>
</mask>
<g mask="url(#mask1_25_100)">
<path d="M66.1649 120.616C69.0697 118.408 69.9566 114.291 67.955 111.365L57.006 110.376C57.006 110.376 47.9108 110.185 48.9921 117.245C48.2287 119.09 48.1022 122.778 54.5254 123.16C55.2068 123.975 57.6398 124.249 61.2807 123.479C62.5118 122.902 63.6823 122.146 64.7656 121.252C65.1473 120.997 65.7832 120.997 66.1649 120.616Z" fill="#FDE0AC"/>
</g>
<path d="M65.4836 111.206L57.006 110.376C57.006 110.376 49.3679 110.466 50.1455 115.704C49.382 117.549 49.3679 121.301 54.1326 120.461C54.813 121.276 57.2035 123.252 60.8434 122.482C62.0756 121.905 63.3361 121.427 64.4195 120.532C67.4772 117.696 67.4843 114.132 65.4836 111.206Z" fill="#FCF3E3"/>
<mask id="mask2_25_100" style="mask-type:alpha" maskUnits="userSpaceOnUse" x="48" y="110" width="24" height="14">
<path d="M48.3999 110.269H71.7275V123.998H48.3999V110.269Z" fill="black"/>
</mask>
<g mask="url(#mask2_25_100)">
<path d="M56.9372 110.439C56.4532 110.439 52.1542 110.508 50.0877 112.917C49.1339 114.027 48.7867 115.48 49.055 117.236L49.058 117.253L49.0509 117.269C48.8555 117.742 48.2875 119.399 49.1957 120.849C50.03 122.18 51.8241 122.936 54.5295 123.096L54.5568 123.098L54.575 123.119C54.98 123.604 56.0036 123.872 57.4576 123.872C59.4653 123.872 62.1211 123.349 64.9368 122.4C68.36 121.132 70.47 119.611 71.2051 117.881C71.605 116.94 71.5797 115.943 71.1312 114.917C70.4194 112.508 70.1268 111.771 70.062 111.619L57.0009 110.439C57.0009 110.439 56.9787 110.439 56.9372 110.439ZM57.4576 123.998C55.9864 123.998 54.9365 123.723 54.495 123.222C51.7613 123.056 49.9419 122.28 49.0884 120.917C48.1579 119.431 48.7198 117.745 48.9264 117.237C48.6571 115.451 49.0155 113.97 49.9905 112.834C52.0944 110.382 56.4481 110.313 56.9372 110.313C56.9827 110.313 57.008 110.313 57.008 110.313L70.147 111.498L70.1622 111.531C70.1734 111.554 70.4315 112.102 71.2506 114.874C71.7113 115.926 71.7366 116.956 71.3225 117.932C70.5723 119.694 68.439 121.238 64.9783 122.52C62.1494 123.474 59.4785 123.998 57.4576 123.998Z" fill="#DEA95D"/>
</g>
<path d="M44.8367 64.6738C44.8367 64.6738 39.4948 65.2115 25.1621 47.8838C28.2158 44.9719 32.6251 40.6212 32.6251 40.6212C32.6251 40.6212 38.9856 51.4164 49.4162 55.7417C47.7203 59.3887 44.8367 64.6738 44.8367 64.6738Z" fill="#F2561A"/>
<path d="M32.6251 40.6212C32.6251 40.6212 29.4803 43.7245 26.6636 46.443C28.2441 50.3117 31.6855 53.0454 35.1269 55.4876C35.8903 56.1234 36.3986 56.7592 37.162 57.3951C38.6889 58.6678 40.3422 59.9395 42.2498 60.067C43.9011 60.1187 45.5089 60.2533 47.1097 60.388C47.8974 58.8662 48.7489 57.1774 49.4161 55.7417C38.9855 51.4164 32.6251 40.6212 32.6251 40.6212Z" fill="#F36518"/>
<path d="M35.6364 52.5615C36.7805 55.4876 39.3249 58.6678 42.7593 57.5227C44.4805 56.9486 45.6732 55.7933 46.6452 54.3981C37.87 49.523 32.6253 40.6212 32.6253 40.6212C32.6253 40.6212 30.4616 42.7556 28.1167 45.0347C29.8744 48.4366 31.2068 54.0772 35.6364 52.5615Z" fill="#F57B14"/>
<path d="M30.8774 54.388C31.4141 54.957 31.9325 55.4956 32.4346 56.0029C32.8305 55.2111 33.4097 53.9384 33.4097 53.2823C32.9642 53.417 31.7229 53.9891 30.8774 54.388Z" fill="#191411"/>
<path d="M45.9223 53.982C44.9483 53.4039 44.0198 52.7792 43.141 52.1261C42.735 53.4717 41.8946 56.1305 41.4238 56.6954C42.9739 56.5355 45.1538 55.2365 45.9223 53.982Z" fill="#221411"/>
<path d="M40.3888 49.8642C39.3976 48.9692 38.4914 48.062 37.6774 47.1832C37.3199 48.303 36.6264 50.0049 35.4448 51.226C37.2784 51.6148 39.2092 50.985 40.3888 49.8642Z" fill="#221411"/>
<path d="M39.8342 58.604C39.3138 59.1983 38.0128 59.8362 37.0195 60.2634C37.7941 60.9104 38.5059 61.4642 39.1549 61.9361C39.4657 60.9803 39.9183 59.4099 39.8342 58.604Z" fill="#191411"/>
<path d="M25.2493 47.8889C38.845 64.3144 44.3144 64.6212 44.7984 64.6121C45.0383 64.1706 47.7194 59.2307 49.3313 55.7751C39.4717 51.6573 33.1841 41.658 32.6131 40.7225C32.0866 41.2419 28.0782 45.1896 25.2493 47.8889ZM44.7811 64.7396C44.1919 64.7396 38.6313 64.2678 25.1136 47.9243L25.0762 47.8777L25.1187 47.8372C28.1369 44.9597 32.5362 40.6192 32.5807 40.5757L32.6384 40.519L32.6799 40.5888C32.7437 40.6972 39.1497 51.4164 49.4406 55.683L49.5024 55.7083L49.474 55.769C47.7963 59.3755 44.9219 64.6516 44.8925 64.7042L44.8763 64.7336L44.8429 64.7376C44.8429 64.7376 44.8227 64.7396 44.7811 64.7396Z" fill="#A81F22"/>
<path d="M50.6455 86.7794C50.6455 86.7794 54.9708 100.264 55.7343 110.313C55.6067 113.747 59.8044 116.545 64.5115 115.654C69.2175 114.764 71.2729 113.239 70.3728 111.203C69.4727 109.167 67.5641 104.461 66.8007 97.7193C60.9496 94.2849 50.6455 86.7794 50.6455 86.7794Z" fill="#F2561A"/>
<path d="M67.4366 110.313C65.5969 105.942 64.9003 101.26 64.878 96.5478C58.9459 92.8249 50.6455 86.7794 50.6455 86.7794C50.6455 86.7794 54.9708 100.264 55.7343 110.313C55.6067 113.747 59.8044 116.545 64.5115 115.654C65.4713 115.473 66.3198 115.265 67.0559 115.032C67.8355 113.513 68.1109 111.829 67.4366 110.313Z" fill="#F36518"/>
<path d="M62.9844 113.875C63.6202 113.619 64.2571 113.111 64.3837 112.348C64.5112 108.277 64.3837 103.57 62.3486 100.136C57.8754 98.6113 53.9733 95.5415 52.001 91.3832C53.3385 96.2046 55.25 103.947 55.734 110.313C55.6976 111.307 56.0246 112.247 56.6209 113.061C58.6105 114.186 60.7428 114.871 62.9844 113.875Z" fill="#F57B14"/>
<path d="M60.9837 99.5003C58.1093 99.4122 55.1863 98.4453 53.6523 97.855C53.8964 98.911 54.1363 100.002 54.3621 101.109C58.0749 101.441 60.433 100.366 60.9837 99.5003Z" fill="#221411"/>
<path d="M62.9844 106.878C59.4812 106.925 56.3242 104.948 54.8926 103.895C55.1457 105.337 55.3624 106.779 55.5264 108.18C58.6874 108.751 62.2149 107.483 62.9844 106.878Z" fill="#221411"/>
<path d="M50.7648 86.9444C51.2832 88.5988 55.0902 101 55.7979 110.308C55.7533 111.495 56.2181 112.625 57.1415 113.583C58.4536 114.946 60.5485 115.759 62.7445 115.759C62.7456 115.759 62.7456 115.759 62.7456 115.759C63.3277 115.759 63.917 115.703 64.4992 115.593C67.7452 114.979 69.7013 114.076 70.3129 112.911C70.5812 112.399 70.5822 111.833 70.3149 111.229C68.4924 107.109 67.2896 102.577 66.7408 97.7578C61.3423 94.5846 52.079 87.8972 50.7648 86.9444ZM62.7456 115.885C62.7456 115.885 62.7456 115.885 62.7445 115.885C60.5151 115.885 58.3858 115.058 57.0503 113.672C56.1026 112.688 55.6258 111.526 55.6703 110.31C54.917 100.39 50.6281 86.9333 50.5856 86.7986L50.5259 86.6133L50.6838 86.7278C50.7861 86.8027 61.0517 94.2708 66.833 97.6646L66.8603 97.6808L66.8643 97.7122C67.4091 102.53 68.6099 107.06 70.4303 111.177C70.7148 111.819 70.7128 112.423 70.4253 112.97C69.7945 114.171 67.809 115.096 64.5235 115.717C63.9332 115.829 63.3348 115.885 62.7456 115.885Z" fill="#A81F22"/>
<path d="M72.271 95.1749C72.271 95.1749 76.3321 101.801 79.1711 105.673C83.8467 112.051 88.489 117.483 100.192 118.072C106.95 118.581 114.629 111.627 112.213 105.673C111.152 103.895 109.93 103.444 103.344 109.485C99.683 111.902 93.8319 112.22 88.4252 107.259C84.6729 103.57 79.1711 96.0477 79.1711 96.0477C75.8319 95.4928 72.271 95.1749 72.271 95.1749Z" fill="#F2561A"/>
<path d="M88.9347 112.602C93.26 115.019 97.966 115.654 102.8 115.146C107.827 114.504 111.234 109.547 111.284 104.658C110.182 104.087 108.253 104.983 103.344 109.485C99.6832 111.902 93.8321 112.22 88.4254 107.259C84.6731 103.57 79.1713 96.0477 79.1713 96.0477C77.6708 95.7986 76.1267 95.5971 74.8804 95.4513C78.4899 102.002 82.0488 108.736 88.9347 112.602Z" fill="#F36518"/>
<path d="M112.212 105.673C111.21 103.992 110.062 103.498 104.368 108.561C105.689 109.059 107.876 110.607 108.348 115.413C111.607 112.939 113.619 109.137 112.212 105.673Z" fill="#191411"/>
<path d="M82.5387 100.457C82.0629 99.8546 81.6164 99.2805 81.2134 98.7571C79.9336 99.7605 77.5826 101.048 76.4102 101.669C76.8162 102.284 77.2282 102.898 77.6353 103.493C79.4679 103.067 81.5576 101.635 82.5387 100.457Z" fill="#191411"/>
<path d="M87.1475 105.933C86.6555 105.4 86.1492 104.827 85.642 104.238C84.269 106.756 82.1692 107.749 81.021 108.12C81.6619 108.931 82.318 109.716 83.0085 110.466C84.8462 109.75 86.4449 107.901 87.1475 105.933Z" fill="#191411"/>
<path d="M94.1213 110.655C93.3569 110.418 92.5833 110.098 91.8078 109.685C91.3238 111.949 89.9894 114.052 89.0781 115.286C89.6421 115.588 90.2324 115.868 90.851 116.127C93.2323 114.385 93.9279 112.409 94.1213 110.655Z" fill="#191411"/>
<path d="M100.729 110.714C100.057 110.921 99.3481 111.065 98.611 111.136C98.7568 115.005 97.8445 116.875 97.0103 117.772C98.0106 117.913 99.0686 118.016 100.192 118.072C100.499 118.095 100.808 118.103 101.118 118.096C102.201 115.033 101.553 112.728 100.729 110.714Z" fill="#191411"/>
<path d="M111.284 104.658C110.261 104.129 108.528 104.861 104.368 108.561C105.399 108.95 106.96 109.979 107.818 112.702C109.965 110.664 111.254 107.649 111.284 104.658Z" fill="#221411"/>
<path d="M82.5388 100.457C82.0629 99.8546 81.6164 99.2805 81.2134 98.7571C80.368 99.4203 79.0558 100.207 77.9229 100.844C78.342 101.544 78.7723 102.238 79.2168 102.919C80.5583 102.277 81.8341 101.302 82.5388 100.457Z" fill="#221411"/>
<path d="M87.1473 105.933C86.6552 105.4 86.149 104.827 85.6417 104.238C84.7751 105.826 83.6198 106.808 82.5962 107.41C83.2401 108.136 83.9205 108.831 84.6444 109.49C85.7602 108.579 86.6644 107.284 87.1473 105.933Z" fill="#221411"/>
<path d="M91.8079 109.685C91.5265 110.999 90.9585 112.258 90.354 113.325C91.1448 113.691 91.9477 114.002 92.7607 114.261C93.6527 113.049 93.9949 111.805 94.1215 110.655C93.357 110.418 92.5835 110.098 91.8079 109.685Z" fill="#221411"/>
<path d="M100.729 110.714C100.057 110.921 99.3481 111.065 98.611 111.136C98.6768 112.893 98.525 114.236 98.2617 115.265C99.3906 115.331 100.533 115.32 101.682 115.242C101.745 113.514 101.276 112.051 100.729 110.714Z" fill="#221411"/>
<mask id="mask3_25_100" style="mask-type:alpha" maskUnits="userSpaceOnUse" x="71" y="94" width="42" height="25">
<path d="M71.9863 94.9765H112.727V118.304H71.9863V94.9765Z" fill="black"/>
</mask>
<g mask="url(#mask3_25_100)">
<path d="M72.3914 95.2499C72.931 96.1257 76.6144 102.079 79.2216 105.636C84.1028 112.293 88.746 117.431 100.195 118.008C100.427 118.026 100.664 118.035 100.9 118.035C104.697 118.035 108.9 115.729 111.122 112.43C112.637 110.18 113.003 107.789 112.154 105.697C111.751 105.022 111.335 104.568 110.628 104.568C109.346 104.568 107.18 106.052 103.387 109.532C101.684 110.659 99.6717 111.25 97.5638 111.25C94.3684 111.25 91.1942 109.886 88.3825 107.307C84.7649 103.75 79.4605 96.5499 79.1345 96.1054C76.1953 95.6194 73.0535 95.3126 72.3914 95.2499ZM100.9 118.161C100.661 118.161 100.421 118.153 100.187 118.135C88.6833 117.556 84.0208 112.396 79.1193 105.711C76.3117 101.88 72.2567 95.2742 72.2162 95.2083L72.1504 95.1L72.2759 95.1122C72.3114 95.1152 75.8784 95.4362 79.1811 95.9849L79.2064 95.989L79.2216 96.0102C79.2773 96.0852 84.7639 103.571 88.4696 107.214C91.256 109.771 94.4008 111.123 97.5638 111.123C99.6474 111.123 101.634 110.538 103.309 109.433C107.12 105.936 109.311 104.44 110.628 104.44C111.394 104.44 111.838 104.92 112.267 105.641C113.137 107.781 112.766 110.215 111.227 112.501C108.984 115.834 104.736 118.161 100.9 118.161Z" fill="#A81F22"/>
</g>
<path d="M52.4265 51.7849C52.4265 51.7849 37.544 59.0495 45.9395 75.0771C47.2112 78.8932 50.4339 96.7858 62.6455 98.9474C69.7693 100.093 74.0946 96.8708 76.9772 91.9947C78.0028 89.7855 79.6147 84.1145 77.7123 83.0271C75.26 81.6259 74.204 77.4848 75.9596 69.6066C76.8506 65.1548 80.9208 51.0083 52.4265 51.7849Z" fill="#F2561A"/>
<path d="M52.4265 51.7849C52.4265 51.7849 37.544 59.0495 45.9395 75.0771C47.2112 78.8932 50.4339 96.7858 62.6455 98.9474C69.7693 100.093 74.0947 96.8708 76.9772 91.9947C78.0028 89.7855 79.2178 85.1959 77.3154 84.1085C74.8631 82.7072 72.8311 77.7815 74.5857 69.9043C75.4767 65.4514 80.9208 51.0083 52.4265 51.7849Z" fill="#F36518"/>
<path d="M74.4328 67.0633C76.2138 61.4663 71.2536 57.2685 66.6742 54.9783C65.9107 54.5976 65.1473 53.9607 64.3839 53.579C63.7349 53.1902 63.1851 52.7012 62.5999 52.2992C59.8166 51.8699 56.4622 51.6745 52.4265 51.7849C52.4265 51.7849 37.544 59.0495 45.9395 75.0771C47.2112 78.8932 50.4339 96.7858 62.6455 98.9474C69.7693 100.093 74.0947 96.8708 76.9772 91.9947C77.3346 91.2242 77.7153 90.1641 77.9785 89.0636C77.6758 88.3467 77.4652 87.2958 76.9772 86.6133C72.2712 81.0163 72.2712 73.6778 74.4328 67.0633Z" fill="#F57B14"/>
<path d="M77.3152 82.7649C76.5598 82.2009 75.9645 81.3322 75.5808 80.1253C73.7087 81.7554 70.3148 83.1051 68.3911 83.5992C73.7826 84.4122 76.2672 83.4696 77.3152 82.7649Z" fill="#191411"/>
<path d="M66.9922 74.1233C68.6142 77.0109 73.304 77.6387 75.1437 77.7744C75.0333 76.4439 75.089 74.8655 75.3401 73.0147C72.4566 74.5111 68.6375 74.5202 66.9922 74.1233Z" fill="#191411"/>
<path d="M68.8154 65.7268C71.3072 68.5192 74.5026 69.308 75.9757 69.5287C76.1651 68.5932 76.4799 67.2546 76.6116 65.7268C74.5076 66.3454 71.3335 66.2594 68.8154 65.7268Z" fill="#191411"/>
<path d="M76.2936 83.2843C75.7094 82.6637 75.1859 81.8152 74.7799 80.745C72.8511 82.0916 70.0648 83.1689 68.3911 83.5992C72.4917 84.2178 74.9095 83.8209 76.2936 83.2843Z" fill="#221411"/>
<path d="M66.9922 74.1233C68.352 76.5452 71.8683 77.3764 74.0533 77.662C73.9075 76.4531 73.8821 75.0913 74.0107 73.5837C71.3762 74.504 68.3945 74.4615 66.9922 74.1233Z" fill="#221411"/>
<path d="M68.8154 65.7268C70.7381 67.8814 73.078 68.8422 74.7243 69.2705C74.9278 68.3876 75.2113 67.2546 75.3956 65.9911C73.3969 66.2999 70.8849 66.1642 68.8154 65.7268Z" fill="#221411"/>
<path d="M52.4427 51.8477C52.1329 52.0046 46.1845 55.0795 44.1353 61.3266C42.7735 65.4747 43.4002 70.0916 45.9962 75.0467C46.1582 75.5317 46.3435 76.2131 46.5784 77.0747C48.2004 83.0362 52.0002 96.9984 62.6566 98.8857C63.6084 99.0386 64.5378 99.1155 65.4177 99.1155C70.3131 99.1155 74.0765 96.7757 76.9226 91.9623C77.8925 89.8715 79.5469 84.149 77.6809 83.0818C75.743 81.9752 73.8608 78.7352 75.8979 69.5935C75.9313 69.4274 75.9688 69.2462 76.0093 69.0528C76.555 66.4497 77.5716 61.603 74.4146 57.715C71.2364 53.8018 64.5814 51.8173 54.6327 51.8173C53.9229 51.8173 53.1859 51.8274 52.4427 51.8477ZM65.4187 99.2431C65.4177 99.2431 65.4187 99.2431 65.4177 99.2431C64.5318 99.2431 63.5952 99.1651 62.6354 99.0102C51.899 97.1098 48.084 83.0929 46.4549 77.1082C46.221 76.2486 46.0367 75.5692 45.8788 75.0974C43.2706 70.118 42.6418 65.4686 44.0148 61.285C46.1258 54.8517 52.3364 51.7586 52.3992 51.7282L52.4255 51.7211C53.1747 51.7009 53.9179 51.6907 54.6327 51.6907C64.6209 51.6907 71.3093 53.6904 74.5128 57.635C77.7082 61.5695 76.6836 66.4548 76.1338 69.0791C76.0933 69.2725 76.0559 69.4528 76.0225 69.6198C74.0015 78.6876 75.8432 81.8861 77.7437 82.9714C79.7079 84.0943 78.0555 89.8219 77.0349 92.022C74.1615 96.883 70.3617 99.2431 65.4187 99.2431Z" fill="#A81F22"/>
<path d="M92.6869 89.8614C92.6869 89.8614 94.1499 86.5253 100.637 89.0696C103.754 90.2775 106.489 92.6943 105.154 95.8108C106.107 96.8283 106.962 98.2043 105.154 101.3C104.008 103.189 103.245 103.444 101.4 103.57C100.637 104.97 99.2376 106.433 95.6129 105.225C92.6231 104.016 92.0105 100.925 90.5991 99.5134C91.8607 96.4466 92.6869 89.8614 92.6869 89.8614Z" fill="#F4C683"/>
<path d="M92.687 89.8614C92.687 89.8614 94.15 86.5253 100.637 89.0696C103.754 90.2775 106.489 92.6943 105.154 95.8108C106.107 96.8283 106.962 98.2043 105.154 101.3C104.009 103.189 103.245 103.444 101.4 103.57C100.637 104.97 99.42 105.446 95.7943 104.238C92.8054 103.029 93.8503 99.6673 92.4399 98.2549C93.7005 95.1891 92.687 89.8614 92.687 89.8614Z" fill="#FDE0AC"/>
<path d="M92.687 89.8614C92.687 89.8614 94.15 86.5253 100.637 89.0696C103.754 90.2775 104.68 91.7679 103.344 94.8843C104.298 95.9029 105.627 97.3588 103.817 100.455C102.673 102.343 100.627 102.909 98.7821 103.037C98.7821 104.505 96.5871 103.648 95.4855 103.189C94.1217 102.617 93.8503 99.6673 92.4399 98.2549C93.7005 95.1891 92.687 89.8614 92.687 89.8614Z" fill="#FCF3E3"/>
<path d="M90.6738 99.4982C91.1426 99.9791 91.5273 100.645 91.9333 101.349C92.7504 102.767 93.6768 104.373 95.636 105.165C96.5199 105.46 97.3248 105.61 98.0254 105.61C99.9886 105.61 100.86 104.428 101.344 103.54L101.362 103.51L101.396 103.508C103.172 103.384 103.951 103.159 105.099 101.268C106.899 98.186 106.046 96.8577 105.107 95.8543L105.078 95.8239L105.095 95.7854C105.531 94.7679 105.549 93.7706 105.15 92.8219C104.533 91.3528 102.879 90.0072 100.614 89.1284C99.0025 88.4966 97.5647 88.1766 96.3386 88.1766C93.6302 88.1766 92.8091 89.7541 92.7484 89.8796C92.7109 90.1722 91.8918 96.4982 90.6738 99.4982ZM98.0254 105.737C97.3106 105.737 96.4925 105.584 95.5924 105.285C93.5887 104.475 92.6501 102.848 91.8229 101.413C91.4119 100.701 91.0251 100.029 90.5543 99.558L90.5239 99.5276L90.5401 99.4891C91.7835 96.4658 92.6157 89.9191 92.6238 89.8533L92.6289 89.8351C92.636 89.8179 93.4449 88.049 96.3386 88.049C97.5799 88.049 99.0339 88.372 100.66 89.0099C102.957 89.9009 104.637 91.2728 105.268 92.7733C105.676 93.7433 105.662 94.7608 105.227 95.7986C106.255 96.9063 106.949 98.3511 105.208 101.333C104.037 103.265 103.239 103.506 101.44 103.631C100.936 104.544 100.034 105.737 98.0254 105.737Z" fill="#DEA95D"/>
<path d="M72.7002 96.9053C72.7002 96.9053 76.2135 95.345 90.2911 100.179C92.4112 101.111 95.4112 100.011 96.3123 95.8634C97.1385 92.0585 95.8881 89.0271 86.6026 86.4402C81.8105 84.9863 79.2672 83.9131 77.3151 82.7649L72.7002 96.9053Z" fill="#F2561A"/>
<path d="M81.5566 95.9383C86.3062 96.8222 91.1519 99.3352 95.6767 97.7335C95.94 97.1958 96.1576 96.5762 96.3126 95.8634C97.1387 92.0585 95.8883 89.0271 86.6028 86.4402C81.8107 84.9863 78.9049 85.0217 76.9528 83.8736L73.1763 95.4453C75.8178 94.8479 78.9778 95.508 81.5566 95.9383Z" fill="#F36518"/>
<path d="M81.1748 94.1574C84.8643 95.5566 89.9622 98.2539 93.6506 96.0922C95.8133 94.9471 93.4532 89.8624 91.5993 88.9846C82.2258 84.5469 80.624 88.0491 76.3098 85.8449L73.7705 93.6268C76.3088 93.3433 78.8613 93.3525 81.1748 94.1574Z" fill="#F57B14"/>
<path d="M79.4579 95.1749C80.6921 92.5941 82.1754 88.0349 85.4335 86.0788C83.6698 85.5229 82.2412 85.0227 81.0424 84.5469C80.1524 86.3501 78.5061 90.5134 79.4579 95.1749Z" fill="#221411"/>
<path d="M87.5352 96.9559C88.1295 94.6363 90.2253 90.7605 90.599 87.7716C89.9297 87.5003 89.1926 87.234 88.3796 86.9728C87.7286 88.8874 86.3354 93.7068 87.5352 96.9559Z" fill="#221411"/>
<path d="M91.7673 100.551C91.2539 100.551 90.7436 100.447 90.2657 100.237C76.3775 95.4685 72.7609 96.9488 72.7255 96.964L72.6738 96.8475C72.8186 96.7837 76.3714 95.3308 90.3113 100.119C91.3197 100.561 92.474 100.521 93.4804 100.007C94.8341 99.318 95.8172 97.8418 96.2505 95.8502C96.7224 93.6744 96.3994 92.098 95.2016 90.7372C93.7619 89.101 90.9431 87.7159 86.5854 86.502C82.1183 85.1452 79.4231 84.0791 77.2827 82.8196L77.3475 82.7102C79.4787 83.9637 82.1649 85.0268 86.6208 86.3794C91.0018 87.5995 93.8408 88.9977 95.2968 90.6531C96.5239 92.0473 96.856 93.6582 96.3741 95.8776C95.9336 97.9066 94.9262 99.4142 93.5381 100.121C92.9762 100.407 92.3697 100.551 91.7673 100.551Z" fill="#A81F22"/>
<path d="M72.7642 85.1685C71.1797 80.7592 70.4477 74.1446 72.1436 67.3599C73.9823 59.4271 71.364 55.6607 69.1061 53.9425C68.8044 53.7015 70.6168 49.3853 66.0697 49.7771C63.1791 50.0262 56.5503 51.6725 52.4265 51.7849C52.4265 51.7849 37.544 59.0495 45.9395 75.0771C47.2112 78.8932 50.4339 96.7858 62.6455 98.9474C66.8989 99.6319 70.153 98.7581 72.7005 96.9053C75.4696 94.207 73.9205 88.3852 72.7642 85.1685Z" fill="#F4C683"/>
<path d="M66.0383 97.0835C70.6168 95.8108 71.7619 89.9596 69.8544 86.2711C65.7832 78.3839 65.4015 69.6066 70.2351 61.848C72.0626 59.0586 70.8355 55.9786 68.6434 53.7623C67.9458 53.3067 69.6944 48.0721 67.882 47.742C64.8142 47.1821 57.0707 51.6583 52.4265 51.7849C52.4265 51.7849 37.544 59.0495 45.9395 75.0771C46.8406 77.7804 48.7218 87.5479 54.0839 93.7828C57.6175 96.4 61.6188 98.3055 66.0383 97.0835Z" fill="#FDE0AC"/>
<path d="M53.953 91.9947C57.1332 94.0298 61.2034 95.6842 64.5111 93.7757C67.6914 91.8681 67.9455 87.4152 66.6738 84.3626C64.7653 79.7831 63.2395 75.0771 64.8928 70.3701C66.038 67.0633 68.0731 63.8831 67.3096 60.1936C66.9279 58.6678 65.4011 57.3951 63.8753 58.4126C60.5675 60.5753 56.4973 60.8294 53.4447 58.4126C51.7285 57.148 50.3991 55.5615 49.5436 53.7015C45.6941 56.8058 40.008 63.7545 45.9391 75.0771C46.6155 77.1061 47.8446 83.1152 50.6826 88.6231C51.7852 89.7966 52.5679 91.1635 53.953 91.9947Z" fill="#FCF3E3"/>
<path d="M72.354 83.912C72.2041 83.4028 72.0654 82.8702 71.9389 82.3174C70.6378 82.9056 69.3368 83.3562 68.3911 83.5992C69.9412 83.8331 71.2494 83.9212 72.354 83.912Z" fill="#191411"/>
<path d="M66.9922 74.1233C67.8417 75.637 69.5355 76.529 71.2193 77.0555C71.1707 76.1362 71.1596 75.1905 71.191 74.2256C69.4768 74.4372 67.9014 74.342 66.9922 74.1233Z" fill="#191411"/>
<path d="M71.9501 68.1861C72.0108 67.9117 72.0746 67.6353 72.1435 67.3599C72.2397 66.9438 72.3217 66.5419 72.3936 66.149C71.1725 66.1105 69.9292 65.9627 68.8154 65.7268C69.8006 66.8304 70.8951 67.6202 71.9501 68.1861Z" fill="#191411"/>
<path d="M52.4427 51.8477C52.1329 52.0046 46.1845 55.0795 44.1353 61.3265C42.7735 65.4747 43.4002 70.0916 45.9962 75.0467C46.1582 75.5317 46.3435 76.2131 46.5784 77.0747C48.2004 83.0362 52.0002 96.9984 62.6566 98.8857C63.6084 99.0386 64.5368 99.1155 65.4167 99.1155H65.4177C68.1615 99.1155 70.5996 98.3551 72.663 96.8546C75.3896 94.1958 73.8598 88.4044 72.7045 85.1898C70.8274 79.9664 70.5945 73.2951 72.0819 67.3447C73.881 59.582 71.441 55.8024 69.0738 53.9982C68.9918 51.4001 71.122 46.8197 66.1649 46.2203C65.4602 46.1352 53.1859 51.8274 52.4427 51.8477ZM65.4177 99.2431C65.4167 99.2431 65.4167 99.2431 65.4167 99.2431C64.5308 99.2431 63.5952 99.1651 62.6354 99.0102C51.899 97.1098 48.084 83.0929 46.4549 77.1081C46.221 76.2485 46.0367 75.5692 45.8788 75.0973C43.2706 70.1179 42.6418 65.4686 44.0148 61.285C46.1258 54.8517 52.3364 51.7586 52.3992 51.7282L52.4255 51.7211C53.1747 51.7008 65.0684 46.0562 65.7832 46.0562C71.8287 46.0562 69.0171 51.632 69.1295 53.8838L69.1446 53.8919C71.5432 55.7174 74.0218 59.5375 72.2054 67.3741C70.7241 73.3022 70.955 79.9461 72.824 85.1473C73.9894 88.3903 75.5294 94.2374 72.744 96.9508C70.6522 98.4736 68.1889 99.2431 65.4177 99.2431Z" fill="#DEA95D"/>
<path d="M45.4058 74.1527L45.5181 74.093C45.5374 74.1284 47.4479 77.6721 49.1094 78.6694C49.1094 78.6694 47.2576 77.5577 45.4058 74.1527Z" fill="#DEA95D"/>
<path d="M19.9893 46.0988C19.9893 46.0988 25.0143 51.8537 29.7841 48.391C33.5364 45.3749 33.7277 42.1602 33.6639 41.1275C34.5549 39.3323 35.3173 35.1812 33.4098 33.9814C31.6288 32.8454 29.53 34.2446 29.2758 34.7529C28.5762 32.9719 24.5688 27.5875 22.4061 32.252C19.9893 31.6365 15.3471 31.764 18.3359 38.0607C16.6188 37.4876 13.5023 41.4181 19.9893 46.0988Z" fill="#F4C683"/>
<path d="M20.3206 45.3738C20.3206 45.3738 24.5032 51.0144 29.274 47.5527C33.0263 44.5355 33.1164 42.2129 33.0526 41.1801C33.9436 39.385 35.3175 35.1812 33.41 33.9814C31.6291 32.8454 29.5302 34.2446 29.276 34.7529C28.5764 32.9719 24.569 27.5875 22.4063 32.252C19.9895 31.6365 15.3473 31.764 18.3361 38.0607C16.619 37.4876 13.8336 40.6931 20.3206 45.3738Z" fill="#FDE0AC"/>
<path d="M20.9443 44.8656C20.9443 44.8656 24.4425 50.1761 29.2123 46.7134C32.9646 43.6972 32.2072 41.7886 32.1434 40.7559C33.0344 38.9608 33.9821 35.4971 32.7104 34.4967C30.9295 33.3607 29.5302 34.2446 29.2761 34.7529C28.5765 32.9719 24.569 27.5875 22.4064 32.252C19.9896 31.6365 15.3473 31.764 18.3362 38.0607C16.619 37.4876 14.4563 40.1838 20.9443 44.8656Z" fill="#FCF3E3"/>
<path d="M17.9847 38.0688C17.3741 38.0688 16.5874 38.5882 16.2665 39.5814C15.9708 40.4957 15.7451 42.958 20.0269 46.0471L20.038 46.0573C20.0674 46.0907 23.0289 49.4359 26.4997 49.4359C27.6519 49.4359 28.7444 49.0674 29.7467 48.3404C33.5466 45.2847 33.6569 42.0499 33.6002 41.1315L33.5992 41.1143L33.6073 41.0991C34.4953 39.3091 35.2182 35.1933 33.3755 34.035C32.935 33.7536 32.443 33.6118 31.9124 33.6118C30.6164 33.6118 29.5027 34.442 29.3326 34.7812L29.2688 34.9088L29.2162 34.7762C28.7089 33.4852 26.5321 30.4599 24.6165 30.4599C23.7477 30.4599 23.0238 31.0715 22.4639 32.2784L22.4416 32.3259L22.391 32.3128C21.7866 32.1589 21.1274 32.0749 20.5351 32.0749C19.6138 32.0749 18.3887 32.2743 17.7883 33.223C17.1524 34.2294 17.3559 35.8474 18.3937 38.0333L18.4575 38.168L18.3158 38.1204C18.2115 38.086 18.1001 38.0688 17.9847 38.0688ZM26.4997 49.5635C23.039 49.5635 20.0866 46.3043 19.9469 46.1464C15.6033 43.0097 15.8412 40.4825 16.145 39.5419C16.4852 38.491 17.3276 37.9412 17.9847 37.9412C18.0657 37.9412 18.1436 37.9493 18.2206 37.9645C17.2142 35.7988 17.0319 34.1808 17.6809 33.1542C18.3117 32.1569 19.5814 31.9473 20.5351 31.9473C21.1214 31.9473 21.7704 32.0283 22.3718 32.1771C22.9509 30.953 23.7052 30.3324 24.6165 30.3324C26.6262 30.3324 28.7302 33.3324 29.2881 34.6162C29.6252 34.1747 30.747 33.4842 31.9124 33.4842C32.4673 33.4842 32.9826 33.6341 33.4443 33.9277C35.3711 35.1396 34.6552 39.2574 33.7288 41.1406C33.7835 42.0974 33.6509 45.3647 29.8247 48.4417C28.797 49.1869 27.6792 49.5635 26.4997 49.5635Z" fill="#DEA95D"/>
<path d="M22.551 31.8298L22.6502 31.9098C21.823 32.9324 23.3802 36.0499 23.3964 36.0813C23.3964 36.0813 21.6731 32.9152 22.551 31.8298Z" fill="#DEA95D"/>
<path d="M18.2876 38.1012L18.3848 38.0191C18.3969 38.0333 19.5745 39.4184 20.3207 39.8943C20.3207 39.8943 19.0146 38.9567 18.2876 38.1012Z" fill="#DEA95D"/>
<path d="M26.7447 42.9996C25.6157 44.3148 24.0676 44.8362 23.285 44.1659C22.5034 43.4947 22.7838 41.8848 23.9127 40.5696C25.0406 39.2544 26.5897 38.7319 27.3714 39.4032C28.154 40.0735 27.8726 41.6843 26.7447 42.9996Z" fill="#EF3150"/>
<path d="M27.4595 39.4923C27.4311 39.4619 27.4038 39.4306 27.3714 39.4032C26.5897 38.7319 25.0406 39.2544 23.9127 40.5696C22.7838 41.8848 22.5034 43.4947 23.285 44.1659C23.3113 44.1882 23.3397 44.2054 23.367 44.2247C25.4386 43.3023 27.5314 41.9587 27.4595 39.4923Z" fill="#F14B6E"/>
<path d="M26.5068 39.1744C25.6968 39.1744 24.7218 39.7252 23.9614 40.6111C23.4227 41.2388 23.0623 41.9516 22.9448 42.6199C22.8304 43.276 22.9661 43.8085 23.3276 44.1173C23.5412 44.3016 23.8186 44.3948 24.1497 44.3948C24.9607 44.3948 25.9357 43.844 26.6961 42.958C27.7997 41.6712 28.0842 40.0978 27.3299 39.4508C27.1163 39.2675 26.8389 39.1744 26.5068 39.1744ZM24.1497 44.5223C23.7923 44.5223 23.4784 44.415 23.2445 44.2135C22.8487 43.8743 22.6978 43.3003 22.8203 42.5986C22.9408 41.9081 23.3114 41.173 23.8642 40.5281C24.6478 39.6148 25.6613 39.0468 26.5068 39.0468C26.8652 39.0468 27.178 39.1531 27.4129 39.3546C28.2209 40.0471 27.9425 41.7015 26.7933 43.0411C26.0086 43.9543 24.9961 44.5223 24.1497 44.5223Z" fill="#EE2139"/>
<path d="M28.3179 36.9662C28.3179 36.9662 28.7786 35.3492 29.3486 34.5453L29.4529 34.6182C28.893 35.409 28.3229 36.95 28.3179 36.9662Z" fill="#DEA95D"/>
<path d="M26.2163 34.2598C26.4522 35.1052 26.1333 35.9334 25.5025 36.1096C24.8717 36.2858 24.1681 35.7441 23.9322 34.8987C23.6952 34.0543 24.0152 33.226 24.646 33.0489C25.2767 32.8727 25.9794 33.4144 26.2163 34.2598Z" fill="#EF3150"/>
<path d="M25.7465 33.4235C25.4316 33.0985 25.0256 32.9436 24.646 33.0489C24.0152 33.226 23.6952 34.0543 23.9322 34.8987C24.0648 35.3756 24.3473 35.7562 24.6814 35.9658C25.457 35.3452 25.7101 34.4076 25.7465 33.4235Z" fill="#F14B6E"/>
<path d="M24.8886 33.0792C24.8127 33.0792 24.7357 33.0904 24.6628 33.1106C24.0665 33.2777 23.7668 34.0715 23.9926 34.8815C24.187 35.576 24.7195 36.0792 25.2582 36.0792C25.3351 36.0792 25.4111 36.0691 25.485 36.0489C26.0803 35.8818 26.381 35.087 26.1542 34.277C25.9598 33.5835 25.4283 33.0792 24.8886 33.0792ZM25.2582 36.2068C24.6628 36.2068 24.0796 35.6641 23.8701 34.9159C23.625 34.0381 23.9652 33.1734 24.6284 32.9881C24.7124 32.9648 24.8005 32.9527 24.8886 32.9527C25.484 32.9527 26.0682 33.4954 26.2767 34.2426C26.5228 35.1204 26.1826 35.9851 25.5184 36.1714C25.4343 36.1947 25.3463 36.2068 25.2582 36.2068Z" fill="#EE2139"/>
<path d="M21.639 36.1086C21.9539 36.9277 21.7129 37.7822 21.1013 38.0171C20.4908 38.252 19.7396 37.7782 19.4247 36.9591C19.1098 36.14 19.3497 35.2854 19.9613 35.0505C20.5728 34.8156 21.3241 35.2895 21.639 36.1086Z" fill="#EF3150"/>
<path d="M21.2492 35.4707C20.8826 35.0688 20.3886 34.8865 19.9613 35.0506C19.3497 35.2854 19.1098 36.14 19.4247 36.9591C19.5938 37.4005 19.8904 37.7397 20.2225 37.924C21.0031 37.4117 21.2026 36.4093 21.2492 35.4707Z" fill="#F14B6E"/>
<path d="M20.2893 35.0536C20.184 35.0536 20.0808 35.0728 19.9846 35.1103C19.4064 35.332 19.1827 36.1511 19.4844 36.9368C19.7274 37.5706 20.2579 38.0141 20.7733 38.0141C20.8796 38.0141 20.9819 37.9948 21.0791 37.9574C21.6562 37.7356 21.881 36.9165 21.5792 36.1309C21.3352 35.497 20.8047 35.0536 20.2893 35.0536ZM20.7733 38.1406C20.2063 38.1406 19.6272 37.6648 19.3649 36.9824C19.0379 36.1319 19.2961 35.2379 19.939 34.9908C20.0494 34.9483 20.1678 34.927 20.2893 34.927C20.8563 34.927 21.4355 35.4029 21.6977 36.0863C22.0247 36.9358 21.7676 37.8288 21.1246 38.0769C21.0133 38.1194 20.8958 38.1406 20.7733 38.1406Z" fill="#EE2139"/>
<path d="M19.1723 40.277C19.6775 40.9007 19.7089 41.7117 19.2432 42.0883C18.7774 42.465 17.9907 42.2645 17.4865 41.6408C16.9813 41.0161 16.9499 40.2051 17.4156 39.8285C17.8814 39.4518 18.6681 39.6523 19.1723 40.277Z" fill="#EF3150"/>
<path d="M19.0366 40.1261C18.5354 39.6229 17.8419 39.4842 17.4156 39.8285C16.9499 40.2051 16.9813 41.0161 17.4865 41.6408C17.7072 41.9132 17.9816 42.1055 18.26 42.2038C18.8898 41.6985 19.1318 40.9432 19.0366 40.1261Z" fill="#F14B6E"/>
<path d="M17.9817 39.7019C17.7802 39.7019 17.598 39.7626 17.4552 39.8781C17.0178 40.2314 17.0533 41.005 17.5352 41.6003C17.842 41.979 18.2794 42.2149 18.6773 42.2149C18.8788 42.2149 19.061 42.1541 19.2038 42.0387C19.6412 41.6854 19.6047 40.9118 19.1238 40.3165C18.817 39.9378 18.3796 39.7019 17.9817 39.7019ZM18.6773 42.3425C18.2359 42.3425 17.7721 42.0944 17.437 41.6803C16.9105 41.0303 16.8832 40.1768 17.3752 39.7788C17.5413 39.6452 17.7509 39.5743 17.9817 39.5743C18.4232 39.5743 18.8879 39.8224 19.222 40.2365C19.7485 40.8865 19.7758 41.74 19.2838 42.1379C19.1177 42.2716 18.9081 42.3425 18.6773 42.3425Z" fill="#EE2139"/>
<path d="M54.489 123.212C54.4677 123.196 53.9777 122.833 53.8623 121.938C53.6567 119.195 56.4826 116.458 56.4826 116.458C54.1974 119.229 53.8653 120.959 53.9888 121.922C54.0972 122.763 54.5588 123.105 54.5629 123.108L54.489 123.212Z" fill="#DEA95D"/>
<path d="M48.8989 117.696L48.7754 117.668C49.7555 114.425 53.9178 113.714 53.9178 113.714C49.6036 114.772 48.906 117.666 48.8989 117.696Z" fill="#DEA95D"/>
<path d="M105.32 96.0922C103.661 94.3943 100.224 94.2222 100.189 94.2212C100.189 94.2212 103.717 94.2698 105.411 96.0031L105.32 96.0922Z" fill="#DEA95D"/>
<path d="M101.012 103.648C97.6326 103.648 95.7939 100.455 95.7939 100.455C95.8142 100.488 97.8523 103.759 101.396 103.508L101.405 103.634C101.271 103.643 101.141 103.648 101.012 103.648Z" fill="#DEA95D"/>
<path d="M60.897 10.0746C60.897 10.0746 63.7502 5.07189 67.9722 6.85285C66.9364 6.81032 63.8474 7.06446 60.897 10.0746Z" fill="#363535"/>
<path d="M70.2945 17.8849C70.2945 17.8849 68.9053 15.2413 69.7315 11.2845C70.5587 7.3267 70.0717 3.76478 66.7852 4.0827C63.4987 4.40163 60.8277 7.56159 60.0643 10.9737C59.3009 14.3868 61.6762 18.7121 66.7852 17.6308C68.9691 17.5032 70.2945 17.8849 70.2945 17.8849Z" fill="#1A1918"/>
<path d="M69.732 11.2845C70.5592 7.3267 70.0722 3.76478 66.7856 4.0827C63.4991 4.40163 60.8282 7.56159 60.0648 10.9737C59.5038 13.4826 60.6378 16.4826 63.3067 17.4688C64.2686 17.8241 68.9058 15.2413 69.732 11.2845Z" fill="#222020"/>
<path d="M67.6671 17.5406C68.9661 17.5406 69.8581 17.7158 70.1791 17.7907C69.9229 17.2197 68.9469 14.729 69.6698 11.2713C70.2752 8.37056 70.0991 6.14512 69.1737 5.00506C68.6289 4.33581 67.826 4.04624 66.7913 4.14648C63.3458 4.47958 60.8308 7.84103 60.1261 10.9878C59.7454 12.6898 60.1646 14.5649 61.2186 15.8812C61.8959 16.7276 63.1443 17.736 65.2442 17.736C65.2442 17.736 65.2442 17.736 65.2452 17.736C65.7322 17.736 66.2455 17.6793 66.772 17.568C67.0778 17.5497 67.3765 17.5406 67.6671 17.5406ZM70.42 17.9871L70.2762 17.9456C70.2671 17.9436 69.2911 17.6682 67.6671 17.6682C67.3785 17.6682 67.0829 17.6763 66.7893 17.6945C66.2638 17.8059 65.7413 17.8636 65.2452 17.8636C65.2442 17.8636 65.2442 17.8636 65.2442 17.8636C63.0937 17.8626 61.8139 16.8289 61.1193 15.9612C60.041 14.6156 59.6138 12.6989 60.0026 10.9605C60.7164 7.76813 63.2729 4.3591 66.7791 4.01992C67.8574 3.91563 68.6998 4.2214 69.2719 4.92508C70.2226 6.09551 70.4079 8.35841 69.7943 11.2966C68.9813 15.1866 70.337 17.8292 70.3502 17.8555L70.42 17.9871Z" fill="#171515"/>
<path d="M63.2304 16.9949C63.2304 16.9949 69.032 14.5771 68.6503 8.59837C68.2696 5.16402 65.1926 4.21026 62.788 8.40802C60.9544 11.2845 61.1174 17.1853 63.2304 16.9949Z" fill="#F4C683"/>
<path d="M68.6505 8.59837C68.2698 5.16402 65.1929 4.21026 62.7882 8.40802C61.6117 10.2538 61.2573 13.3459 61.7129 15.2737C61.8243 15.301 61.9326 15.3233 62.0359 15.3405C63.0535 15.5957 64.3262 15.2139 64.4527 14.323C64.4527 12.1603 64.4527 8.59837 67.3788 9.74349C67.9215 9.97636 68.2273 10.5879 68.3832 11.2875C68.6069 10.4856 68.7143 9.59162 68.6505 8.59837Z" fill="#FDE0AC"/>
<path d="M62.7993 13.5595C63.9444 12.1603 63.5627 9.61693 65.5978 8.98109C66.7378 8.56597 68.047 8.91123 68.6302 9.94801C68.6717 9.51973 68.6808 9.0712 68.6504 8.59837C68.2697 5.16402 65.1928 4.21026 62.7881 8.40802C61.9386 9.74045 61.5185 11.7219 61.5215 13.4461C62.0024 13.7874 62.4935 14.0192 62.7993 13.5595Z" fill="#FCF3E3"/>
<path d="M66.2257 5.68951C65.0776 5.68951 63.8444 6.69187 62.843 8.43942C61.4255 10.6649 61.2575 14.6338 62.1191 16.2042C62.3854 16.6891 62.7256 16.9352 63.1316 16.9352C63.1326 16.9352 63.1326 16.9352 63.1326 16.9352C63.1599 16.9352 63.1873 16.9342 63.2156 16.9321C63.4718 16.8208 68.9554 14.3584 68.5879 8.60344C68.3914 6.83362 67.464 5.68951 66.2257 5.68951ZM63.1326 17.0627H63.1316C62.682 17.0627 62.2932 16.7874 62.0077 16.2649C61.1117 14.6318 61.2716 10.6699 62.7347 8.37462C63.7725 6.56126 65.0138 5.56194 66.2257 5.56194C67.5329 5.56194 68.5099 6.75161 68.7144 8.5923C69.0951 14.5498 63.3138 17.0283 63.2551 17.0526L63.2369 17.0577C63.2014 17.0607 63.166 17.0627 63.1326 17.0627Z" fill="#DEA95D"/>
<path d="M79.0811 23.8484C79.0811 23.8484 79.7817 17.1853 86.0145 13.9413C90.5302 11.9062 93.9008 14.8798 93.9008 18.8943C93.9008 22.9098 91.6217 28.3631 81.4989 29.1184C79.5903 25.3266 79.0811 23.8484 79.0811 23.8484Z" fill="#1A1918"/>
<path d="M79.0811 23.8484C79.0811 23.8484 79.7817 17.1853 86.0145 13.9413C90.5302 11.9062 93.9008 14.8798 93.9008 18.8943C93.9008 22.9098 88.9184 28.2001 81.0473 27.8599C79.1388 24.0681 79.0811 23.8484 79.0811 23.8484Z" fill="#222020"/>
<path d="M79.1457 23.8403C79.2014 23.9973 79.7623 25.5231 81.5362 29.0516C92.6371 28.2072 93.8369 21.6696 93.8369 18.8943C93.8369 15.6797 91.7349 13.3469 88.8372 13.3469C87.9422 13.3469 87.0016 13.5666 86.0397 14C80.0499 17.1174 79.1872 23.4971 79.1457 23.8403ZM81.4603 29.1852L81.442 29.1468C79.5537 25.3945 79.0252 23.8839 79.0202 23.8687L79.0161 23.8555L79.0171 23.8413C79.0242 23.7745 79.7927 17.1073 85.985 13.8856C86.9651 13.4431 87.924 13.2194 88.8372 13.2194C91.8078 13.2194 93.9644 15.6068 93.9644 18.8943C93.9644 20.6247 93.5443 23.1346 91.5426 25.272C89.4305 27.5268 86.0529 28.842 81.5028 29.1812L81.4603 29.1852Z" fill="#171515"/>
<path d="M80.2261 25.3074C80.2261 25.3074 80.8609 18.3942 86.4903 15.5319C89.8305 13.9412 93.519 15.9136 92.3749 19.9838C91.2298 24.055 87.2223 28.6547 81.3074 27.468C80.7354 25.8987 80.2261 25.3074 80.2261 25.3074Z" fill="#F4C683"/>
<path d="M86.4903 15.5319C85.4981 16.0361 84.6608 16.6679 83.9551 17.3645C84.5869 17.244 85.248 17.3391 85.8231 17.7583C86.9682 18.6483 87.7316 20.1741 86.8407 21.3192C85.6611 23.2085 85.163 25.437 85.7674 27.2544C89.224 26.1437 91.5467 22.925 92.3749 19.9838C93.519 15.9136 89.8305 13.9412 86.4903 15.5319Z" fill="#FDE0AC"/>
<path d="M92.3749 19.9838C93.519 15.9136 89.8305 13.9412 86.4903 15.5319C85.6489 15.9601 84.9199 16.4795 84.2861 17.0526C85.167 16.8704 86.0671 16.8329 86.9682 17.249C88.3675 18.0124 89.0033 19.6658 88.495 21.1927C88.1133 22.7185 86.8406 24.2453 87.604 25.8987C87.6628 26.0384 87.7316 26.166 87.8065 26.2875C90.1403 24.7931 91.7218 22.3023 92.3749 19.9838Z" fill="#FCF3E3"/>
<path d="M81.3549 27.4124C81.9674 27.5329 82.579 27.5946 83.1733 27.5946C87.9786 27.5946 91.2803 23.6398 92.313 19.9666C92.7079 18.5622 92.5499 17.3341 91.8544 16.4168C91.1942 15.545 90.0916 15.0449 88.8311 15.0449C88.0646 15.0449 87.2648 15.2332 86.5175 15.5886C81.1564 18.3142 80.3434 24.8234 80.2918 25.2872C80.388 25.4066 80.8426 26.0182 81.3549 27.4124ZM83.1733 27.7212C82.5597 27.7212 81.928 27.6574 81.2952 27.5298L81.2597 27.5227L81.2476 27.4893C80.6877 25.9534 80.1834 25.354 80.1784 25.3479L80.1602 25.3277L80.1632 25.3013C80.1693 25.2315 80.8659 18.3203 86.4619 15.4752C87.2273 15.1107 88.0464 14.9183 88.8311 14.9183C90.1321 14.9183 91.2712 15.4367 91.9556 16.3398C92.4578 17.003 92.9488 18.1765 92.4355 20.001C91.3896 23.7198 88.0454 27.7212 83.1733 27.7212Z" fill="#DEA95D"/>
<path d="M55.9306 23.9912C55.9306 23.9912 58.7291 12.7961 70.6866 16.9949C77.3011 19.6658 82.7706 23.8636 83.6605 34.6759C84.1698 39.8912 85.0183 46.8875 80.9471 50.5345C80.0996 49.7711 80.0996 49.7711 80.0996 49.7711C79.1661 51.1278 77.3011 53.2479 76.1135 53.7562C75.5202 53.0778 74.9258 52.4845 74.9258 52.4845C74.3325 53.2479 72.5516 55.5372 71.449 55.6222C70.7706 53.7562 68.8206 50.9577 64.4952 51.0427C60.34 51.0427 59.8317 54.6897 55.9306 54.2655C52.0295 53.8413 45.584 49.7711 48.0434 45.1065C49.146 42.9014 48.5526 38.6621 44.3974 38.9162C44.6515 38.2378 46.6016 37.3894 46.6016 37.3894C45.2448 36.5419 43.5489 35.5244 42.3623 35.5244C43.9732 33.3192 43.8881 32.4707 48.7217 31.114C55.2522 28.4856 55.9306 23.9912 55.9306 23.9912Z" fill="#F2561A"/>
<path d="M71.7041 48.4143C72.3399 48.4143 71.9582 50.7036 72.5941 51.2128C73.7392 52.2304 75.5202 51.2128 76.6643 49.8136C76.6643 50.1943 76.6643 50.7036 76.9194 50.7036C77.937 50.7036 78.1911 49.3043 79.0821 48.6685C79.2086 48.6685 79.5903 48.5409 79.7179 48.4143C80.0996 48.1602 80.6079 47.9051 80.9896 47.5233C81.4989 47.0151 82.0071 46.2517 82.0071 45.6158C82.5164 40.0188 83.6605 34.4218 81.8806 28.9513C81.3804 27.4539 80.9785 25.8592 80.4611 24.3152C78.0615 20.6601 74.5715 18.5632 70.6866 16.9949C58.7291 12.7961 55.9306 23.9912 55.9306 23.9912C55.9306 23.9912 55.2522 28.4856 48.7217 31.114C43.8881 32.4707 43.9732 33.3192 42.3623 35.5244C43.5489 35.5244 45.2448 36.5419 46.6016 37.3894C46.6016 37.3894 44.6515 38.2378 44.3974 38.9162C48.5526 38.6621 49.146 42.9014 48.0434 45.1065C45.584 49.7711 52.0295 53.8413 55.9306 54.2655C57.8402 54.473 58.9367 53.7046 60.0453 52.8672C62.8651 49.5129 67.3859 47.8453 71.7041 48.4143Z" fill="#F36518"/>
<path d="M61.782 34.8035C65.0897 33.6584 68.6507 32.2591 72.2126 33.786C75.0111 34.8035 77.0462 37.0927 79.463 39.1278C80.9898 40.5271 81.4991 37.2203 81.6256 36.0752C82.3891 30.2939 80.7185 24.5136 76.8589 20.4171C75.0192 18.9723 72.9183 17.896 70.6868 16.9949C58.7293 12.7961 55.9308 23.9912 55.9308 23.9912C55.9308 23.9912 55.543 26.5538 52.541 28.9412C55.3618 30.4792 57.9882 32.2429 60.5103 34.4218C60.892 34.6759 61.2737 34.9301 61.782 34.8035Z" fill="#F57B14"/>
<path d="M77.0459 42.1319C80.5025 44.0981 81.8127 47.3087 82.2784 48.9793C83.1097 47.7107 83.5916 46.2203 83.8478 44.6287C81.8542 42.3799 78.1475 41.493 77.0459 42.1319Z" fill="#191411"/>
<path d="M82.3108 43.3327C80.3344 42.061 77.9025 41.6357 77.0459 42.1319C79.484 43.519 80.8539 45.5247 81.6132 47.173C81.7529 46.7731 81.8279 46.3641 81.8805 45.9965C82.0334 45.1045 82.1812 44.2166 82.3108 43.3327Z" fill="#221411"/>
<path d="M75.2144 32.6449C78.4928 33.9479 82.3412 38.8676 84.0979 41.3036C84.109 39.0266 83.86 36.7151 83.6605 34.6759C83.6524 34.5777 83.6433 34.4825 83.6352 34.3853C81.1384 33.0084 77.3649 32.0252 75.2144 32.6449Z" fill="#191411"/>
<path d="M82.4506 33.8042C80.0561 32.7532 77.0459 32.1164 75.2144 32.6449C77.8013 33.6736 80.7435 36.955 82.7331 39.4893C82.8495 37.5858 82.7979 35.6935 82.4506 33.8042Z" fill="#221411"/>
<path d="M64.6866 50.9769C69.3906 50.9769 71.0683 54.4184 71.4926 55.5534C72.5709 55.4096 74.3022 53.1841 74.8763 52.445L74.9208 52.3883L74.9715 52.439C74.9775 52.445 75.5526 53.0221 76.1308 53.6792C77.3255 53.1366 79.1662 51.0154 80.047 49.7346L80.0875 49.6749L80.9471 50.4484C84.8067 46.9402 84.1658 40.4471 83.6515 35.2267L83.5978 34.682C82.6663 23.3756 76.5368 19.4259 70.6623 17.0536C68.8915 16.432 67.2148 16.1161 65.6819 16.1161C61.6968 16.1161 59.2749 18.2605 57.9445 20.0597C56.5017 22.0108 55.9975 23.9861 55.9924 24.0064C55.9864 24.0458 55.2341 28.5605 48.7461 31.1727C44.6273 32.33 44.0927 33.1157 43.0276 34.682C42.8676 34.9179 42.6884 35.1812 42.4849 35.4636C43.6492 35.5264 45.2338 36.4589 46.6361 37.3357L46.7383 37.3995L46.6269 37.4481C46.6087 37.4562 44.8733 38.2166 44.5017 38.8474C44.5848 38.8433 44.6678 38.8413 44.7488 38.8413C46.5611 38.8413 47.4936 39.7343 47.9563 40.4825C48.8534 41.9334 48.7076 43.9209 48.1011 45.1349C47.3732 46.5149 47.3802 47.9212 48.1224 49.3154C49.5297 51.9621 53.2749 53.9121 55.9378 54.2017C56.1443 54.225 56.3478 54.2361 56.5432 54.2361H56.5442C58.1338 54.2361 59.1078 53.498 60.1396 52.7174C61.2675 51.8629 62.4328 50.979 64.4953 50.979C64.5591 50.9779 64.6229 50.9769 64.6866 50.9769ZM71.4065 55.689L71.3893 55.6445C70.9975 54.5652 69.3319 51.0124 64.4973 51.1065C62.4764 51.1065 61.3272 51.9762 60.2165 52.8176C59.1666 53.6124 58.1764 54.3627 56.5442 54.3627H56.5432C56.3438 54.3627 56.1352 54.3515 55.9236 54.3283C53.2283 54.0356 49.4366 52.0593 48.01 49.3752C47.2476 47.9415 47.2395 46.4947 47.9877 45.0772C48.578 43.8956 48.7208 41.9608 47.849 40.5504C47.1575 39.4316 45.9587 38.8838 44.4015 38.98L44.3033 38.9851L44.3377 38.8939C44.5655 38.2854 46.0448 37.5726 46.467 37.3803C45.0556 36.5014 43.4761 35.5872 42.3624 35.5872H42.2368L42.3107 35.4859C42.5426 35.168 42.7441 34.8723 42.9223 34.6111C44.0046 33.0195 44.5483 32.2196 48.7056 31.0533C55.1207 28.4694 55.8608 24.0256 55.8679 23.981C55.874 23.9557 56.3853 21.9561 57.8422 19.9838C59.1899 18.1613 61.6431 15.9885 65.6819 15.9885C67.23 15.9885 68.9198 16.3074 70.7069 16.9342C74.6039 18.5076 77.3559 20.3533 79.3687 22.7408C81.8847 25.7256 83.3093 29.6277 83.7244 34.6709L83.778 35.2146C84.2975 40.4825 84.9444 47.0384 80.9897 50.581L80.9471 50.6195L80.1108 49.8662C79.1955 51.1804 77.3366 53.3016 76.1389 53.8149L76.0963 53.8331L76.066 53.7987C75.58 53.2429 75.0879 52.7387 74.932 52.5807C74.2992 53.3937 72.5577 55.6009 71.4541 55.686L71.4065 55.689Z" fill="#A81F22"/>
<path d="M74.4226 36.3556C67.2775 31.5666 47.6667 31.923 47.4126 32.6013C51.5678 32.3472 49.146 42.9014 48.0434 45.1065C45.5841 49.7711 52.0295 53.8413 55.9306 54.2655C59.8317 54.6897 60.34 51.0427 64.4952 51.0427C65.5988 51.0215 66.5465 51.1875 67.3585 51.4781C83.0409 50.4818 80.4763 40.4137 74.4226 36.3556Z" fill="#F4C683"/>
<path d="M57.8382 52.2304C62.2911 49.0502 67.1247 50.0677 71.8307 48.795C75.0109 48.0326 78.5728 45.2341 77.937 41.2905C77.8681 40.605 77.7244 39.9196 77.448 39.2939C76.644 38.1609 75.6002 37.1444 74.4227 36.3556C67.2775 31.5666 47.6667 31.923 47.4126 32.6013C51.5678 32.3472 49.146 42.9014 48.0434 45.1065C47.0957 46.9037 47.4713 48.6138 48.5132 50.0596C51.1385 52.5068 55.0326 54.2503 57.8382 52.2304Z" fill="#FDE0AC"/>
<path d="M75.4939 37.1717C75.1517 36.8801 74.7953 36.6057 74.4227 36.3556C71.1423 34.1565 65.2334 33.0428 59.7771 32.5467C62.0593 33.4832 64.0204 34.9939 65.5979 36.9652C66.8706 38.6196 65.0896 40.4005 64.3262 41.9263C63.5628 43.5807 62.5453 45.1065 61.2736 46.3782C58.3475 49.686 54.9374 47.7441 51.6307 45.4548C51.0829 45.0903 49.1987 44.6398 48.7977 45.7201C48.5497 46.6364 48.6287 47.7937 49.1886 48.5409C50.8419 51.0853 53.4572 52.0603 56.1281 51.6786C57.5284 51.552 59.2375 49.0502 60.7643 48.5409C65.4713 46.8875 71.8308 49.0502 74.5027 44.089C75.581 42.0215 77.0461 38.98 75.4939 37.1717Z" fill="#FCF3E3"/>
<path d="M77.0459 42.1319C77.8194 42.5723 78.4846 43.0745 79.0577 43.6081C79.0121 43.0644 78.8967 42.5176 78.7236 41.9769C77.9966 41.8818 77.3922 41.9314 77.0459 42.1319Z" fill="#191411"/>
<path d="M44.7488 38.8413C46.5622 38.8413 47.4946 39.7343 47.9574 40.4825C48.8534 41.9334 48.7076 43.9209 48.1011 45.1349C47.3732 46.5149 47.3802 47.9213 48.1224 49.3154C49.5297 51.9621 53.2749 53.9121 55.9378 54.2017C56.1443 54.225 56.3488 54.2361 56.5442 54.2361C58.1338 54.2361 59.1078 53.498 60.1396 52.7174C61.2675 51.8629 62.4328 50.979 64.4953 50.979C64.5591 50.9779 64.6229 50.9769 64.6856 50.9769C65.6495 50.9769 66.5516 51.1237 67.3677 51.4133C75.6154 50.8868 78.1405 48.0002 78.8068 45.6715C79.802 42.1865 77.2131 38.4262 74.3852 36.4073C69.8726 33.1845 62.2496 32.9152 55.4578 32.9152C54.9941 32.9152 54.5375 32.9162 54.09 32.9172C53.6607 32.9183 53.2405 32.9193 52.8304 32.9193C49.6472 32.9193 46.9125 32.8676 45.7046 32.2318C44.2223 32.9253 43.7454 33.627 43.0266 34.684C42.8666 34.9189 42.6884 35.1812 42.4849 35.4636C43.6492 35.5264 45.2338 36.4589 46.6361 37.3357L46.7383 37.3995L46.6269 37.4481C46.6087 37.4562 44.8733 38.2166 44.5017 38.8474C44.5848 38.8433 44.6678 38.8413 44.7488 38.8413ZM56.5442 54.3627C56.3438 54.3627 56.1352 54.3515 55.9236 54.3283C53.2283 54.0357 49.4366 52.0593 48.01 49.3752C47.2476 47.9415 47.2395 46.4947 47.9877 45.0772C48.578 43.8956 48.7208 41.9608 47.849 40.5494C47.1575 39.4306 45.9587 38.8838 44.4015 38.98L44.3033 38.9851L44.3377 38.8939C44.5655 38.2854 46.0448 37.5727 46.467 37.3803C45.0556 36.5014 43.4761 35.5872 42.3624 35.5872H42.2368L42.3107 35.4859C42.5426 35.169 42.7441 34.8734 42.9213 34.6121C43.6573 33.5308 44.1433 32.816 45.6803 32.1022L45.7086 32.089L45.737 32.1042C46.9034 32.7401 49.6391 32.7927 52.8304 32.7927C53.2405 32.7927 53.6607 32.7917 54.09 32.7897C54.5375 32.7887 54.9941 32.7876 55.4578 32.7876C62.2688 32.7876 69.9161 33.06 74.4602 36.304C77.3224 38.3482 79.9417 42.1612 78.9293 45.7059C78.2519 48.0762 75.6954 51.0124 67.3626 51.5409L67.3495 51.5419L67.3373 51.5379C66.4797 51.2311 65.53 51.0863 64.4973 51.1065C62.4764 51.1065 61.3272 51.9763 60.2165 52.8176C59.1676 53.6124 58.1764 54.3627 56.5442 54.3627Z" fill="#DEA95D"/>
<path d="M48.2864 44.6975C48.7268 43.4805 48.7522 41.7704 47.9574 40.4825C47.4946 39.7343 46.5622 38.8413 44.7488 38.8413C44.6678 38.8413 44.5848 38.8433 44.5017 38.8474C44.8733 38.2166 46.6087 37.4562 46.6269 37.4481L46.7383 37.3995L46.6361 37.3357C45.2338 36.4589 43.6492 35.5264 42.4849 35.4636C42.6884 35.1812 42.8666 34.9189 43.0266 34.684C43.7454 33.627 44.2223 32.9253 45.7046 32.2318C45.902 32.3351 46.142 32.4232 46.4164 32.4991C46.389 32.4434 46.3576 32.3908 46.3252 32.3401C46.1005 32.2723 45.902 32.1943 45.737 32.1042L45.7086 32.089L45.6803 32.1022C44.1433 32.816 43.6573 33.5308 42.9213 34.6121C42.7441 34.8734 42.5426 35.169 42.3107 35.4859L42.2368 35.5872H42.3624C43.4761 35.5872 45.0556 36.5014 46.467 37.3803C46.0448 37.5727 44.5655 38.2854 44.3377 38.8939L44.3033 38.9851L44.4015 38.98C45.9587 38.8838 47.1575 39.4306 47.849 40.5494C48.5922 41.7532 48.5972 43.3367 48.2166 44.5102C48.173 44.6418 48.2793 44.7076 48.2864 44.6975Z" fill="#A81F22"/>
<path d="M61.5409 24.2686C59.7144 25.9534 57.4586 26.4778 56.5018 25.44C55.544 24.4022 56.2476 22.196 58.0732 20.5113C59.8987 18.8275 62.1555 18.303 63.1123 19.3398C64.0701 20.3776 63.3664 22.5848 61.5409 24.2686Z" fill="#F36518"/>
<path d="M60.9595 24.2079C59.2899 25.7478 57.2275 26.2278 56.3527 25.2791C55.4769 24.3304 56.1209 22.3125 57.7894 20.7735C59.459 19.2325 61.5215 18.7536 62.3962 19.7023C63.272 20.651 62.6281 22.6679 60.9595 24.2079Z" fill="white"/>
<path d="M61.1193 19.2791C60.1069 19.2791 58.8787 19.8552 57.8328 20.8201C57.034 21.5572 56.4457 22.4259 56.1774 23.2673C55.9131 24.0955 55.9921 24.7951 56.3991 25.2355C56.6806 25.5413 57.1059 25.7023 57.6293 25.7023C58.6418 25.7023 59.8699 25.1262 60.9158 24.1613C62.5571 22.6476 63.2 20.6662 62.3495 19.7458C62.068 19.4401 61.6428 19.2791 61.1193 19.2791ZM57.6293 25.8299C57.0694 25.8299 56.6118 25.6547 56.306 25.3226C55.8656 24.8457 55.7775 24.1026 56.0559 23.2288C56.3313 22.3672 56.9307 21.4782 57.7468 20.7259C58.8149 19.7398 60.0755 19.1515 61.1193 19.1515C61.6792 19.1515 62.1369 19.3267 62.4437 19.6598C63.3407 20.6318 62.6948 22.6942 61.0019 24.2554C59.9337 25.2406 58.6732 25.8299 57.6293 25.8299Z" fill="#100F0D"/>
<path d="M60.5312 24.1461C59.5855 24.9672 58.3887 25.1383 57.8582 24.5268C57.3266 23.9163 57.6628 22.7549 58.6074 21.9338C59.5521 21.1127 60.7488 20.9416 61.2804 21.5531C61.8109 22.1636 61.4758 23.325 60.5312 24.1461Z" fill="#49A8E3"/>
<path d="M60.3694 21.2504C59.8196 21.2504 59.1767 21.5237 58.6491 21.9824C58.2016 22.3712 57.8786 22.8491 57.741 23.327C57.6053 23.7958 57.664 24.2068 57.906 24.4853C58.1024 24.711 58.4001 24.8305 58.7686 24.8305C59.3194 24.8305 59.9623 24.5561 60.4888 24.0985C61.4061 23.3007 61.7393 22.1778 61.232 21.5946C61.0366 21.3688 60.7379 21.2504 60.3694 21.2504ZM58.7686 24.9571C58.3626 24.9571 58.0315 24.8234 57.8108 24.5693C57.5385 24.2564 57.4706 23.8028 57.6184 23.2915C57.7632 22.7904 58.0994 22.2912 58.5661 21.8862C59.124 21.4012 59.7811 21.1228 60.3694 21.1228C60.7764 21.1228 61.1075 21.2575 61.3282 21.5106C61.881 22.1474 61.5428 23.3513 60.5729 24.1937C60.015 24.6786 59.3569 24.9571 58.7686 24.9571Z" fill="#3F5FB5"/>
<path d="M60.1476 24.1208C59.5148 24.8012 58.6481 25.0249 58.2137 24.6209C57.7794 24.2159 57.9403 23.3361 58.5742 22.6557C59.208 21.9753 60.0736 21.7505 60.508 22.1555C60.9424 22.5605 60.7814 23.4404 60.1476 24.1208Z" fill="#100F0D"/>
<path d="M60.7356 22.7691C60.4744 23.0485 60.036 23.0647 59.7566 22.8035C59.4761 22.5433 59.4609 22.1049 59.7211 21.8255C59.9823 21.545 60.4197 21.5298 60.7002 21.79C60.9807 22.0502 60.9958 22.4897 60.7356 22.7691Z" fill="white"/>
<path d="M60.597 23.6895C60.4978 23.7958 60.3317 23.8018 60.2254 23.7026C60.1191 23.6034 60.113 23.4373 60.2123 23.331C60.3115 23.2247 60.4775 23.2186 60.5838 23.3179C60.6902 23.4161 60.6962 23.5831 60.597 23.6895Z" fill="white"/>
<path d="M63.1809 28.1859C63.1809 28.1859 56.9683 20.406 49.1985 25.0087C48.1283 25.6871 56.5238 30.5865 64.9193 33.7758L63.1809 28.1859Z" fill="#F36518"/>
<path d="M63.2305 30.6898C63.2832 30.7333 64.1559 31.435 64.2055 31.4795L63.1809 28.1859C63.1809 28.1859 61.0587 25.7367 57.6416 24.866C58.8313 26.2136 59.3476 28.0442 60.6365 29.333C61.6541 30.0965 62.213 29.9274 63.2305 30.6898Z" fill="#F57B14"/>
<path d="M64.897 33.8356C57.0209 30.8427 49.1619 26.3604 49.0435 25.1991C49.0334 25.0958 49.0749 25.0107 49.164 24.9551C53.2048 22.5615 56.8285 23.5467 59.1582 24.7951C60.5139 25.522 61.5993 26.4201 62.3161 27.0975C62.9307 27.6786 63.1808 28.1859 63.1808 28.1859C63.1656 28.1667 61.5922 26.2429 59.0944 24.9054C56.7951 23.6743 53.2169 22.7013 49.2308 25.0634C49.1842 25.0928 49.165 25.1312 49.17 25.1859C49.2824 26.2905 57.2507 30.7941 64.9415 33.7161L64.897 33.8356Z" fill="#A81F22"/>
<path d="M51.6206 35.6297C51.6206 35.6297 53.9149 37.5382 49.1987 44.2793C50.3337 44.3431 52.2412 44.2793 54.0222 45.9337C55.8032 47.5871 61.0397 48.876 66.3401 37.2598C60.8281 37.602 51.6206 35.6297 51.6206 35.6297Z" fill="#21191E"/>
<path d="M52.623 41.1629C53.1322 40.1454 53.7681 39.0013 53.5139 37.8561C53.2902 37.1849 52.9783 36.384 52.5035 35.8089C51.9426 35.6985 51.6206 35.6297 51.6206 35.6297C51.6206 35.6297 53.9149 37.5382 49.1987 44.2793C50.1495 44.333 51.6439 44.2976 53.1505 45.2574C52.3405 44.1659 52.0276 42.8133 52.623 41.1629Z" fill="#2F292C"/>
<path d="M56.5663 43.2294C53.4975 40.6951 52.2724 43.1413 51.835 44.6398C52.5447 44.8686 53.294 45.2574 54.0219 45.9337C55.1762 47.0049 57.7823 47.9223 60.9159 45.2746C60.0837 43.7468 57.7418 42.6695 56.5663 43.2294Z" fill="#EF2D42"/>
<path d="M60.0989 44.2753C59.0327 43.3266 57.4613 42.8031 56.5663 43.2294C53.4975 40.6951 52.2724 43.1413 51.835 44.6398C52.5184 44.8605 53.2403 45.2321 53.943 45.8639C56.138 46.601 58.6834 46.2537 60.0989 44.2753Z" fill="#F03952"/>
<path d="M51.9143 44.5993C52.7161 44.8666 53.4208 45.2878 54.0658 45.8872C54.406 46.2021 55.3577 46.9371 56.8491 46.9371H56.8501C58.1643 46.9371 59.5049 46.3722 60.8353 45.2594C60.1802 44.1072 58.5815 43.1433 57.3138 43.1433C57.0374 43.1433 56.7944 43.1919 56.594 43.2871L56.5575 43.3043L56.5261 43.279C55.6554 42.5601 54.8717 42.1957 54.1974 42.1957C52.9116 42.1957 52.2474 43.4886 51.9143 44.5993ZM56.8501 47.0637C56.8501 47.0637 56.8501 47.0637 56.8491 47.0637C55.3122 47.0637 54.33 46.3063 53.9787 45.9803C53.3317 45.3789 52.625 44.9607 51.816 44.7005L51.7573 44.6823L51.7745 44.6226C52.053 43.6688 52.7374 42.0691 54.1974 42.0691C54.894 42.0691 55.6949 42.4346 56.5768 43.1555C56.7863 43.0634 57.0344 43.0158 57.3138 43.0158C58.6392 43.0158 60.3138 44.0363 60.9719 45.2442L60.9973 45.2898L60.9568 45.3232C59.5899 46.4785 58.2079 47.0637 56.8501 47.0637Z" fill="#EE2635"/>
<path d="M55.5791 44.6398C55.5791 44.6398 55.6804 43.2284 57.0087 43.037L57.027 43.1626C55.7937 43.3408 55.5882 44.5861 55.5791 44.6398Z" fill="#EE2635"/>
<path d="M49.316 44.2226C49.3787 44.2247 49.4425 44.2287 49.5093 44.2307C50.6686 44.2814 52.4202 44.3593 54.0655 45.8872C54.4057 46.2031 55.3585 46.9371 56.8509 46.9371C58.2744 46.9371 59.7233 46.279 61.158 44.979C62.9399 43.3661 64.649 40.7923 66.2386 37.3297C65.8407 37.3519 65.4114 37.3641 64.9588 37.3641C59.9582 37.3641 53.0378 35.9871 51.7996 35.732C52.2329 36.2959 53.2768 38.5203 49.316 44.2226ZM56.8509 47.0647C55.3129 47.0647 54.3298 46.3063 53.9784 45.9803C52.3676 44.4839 50.6433 44.4079 49.5033 44.3583C49.3949 44.3533 49.2917 44.3482 49.1945 44.3431L49.0811 44.3371L49.1469 44.2429C53.7759 37.6263 51.6021 35.6975 51.5789 35.6783L51.3804 35.5143L51.6335 35.5679C51.7115 35.5841 59.4894 37.2365 64.9588 37.2365C65.4489 37.2365 65.9116 37.2233 66.3358 37.197L66.4421 37.1899L66.3976 37.2871C62.7101 45.3688 59.1705 47.0647 56.8509 47.0647Z" fill="#1A1616"/>
<path d="M66.7154 34.4876C66.7154 34.4876 63.3084 27.9763 50.1633 27.468C47.9592 27.5521 45.3925 29.2551 45.4998 33.5733C45.6689 36.1177 47.704 37.4744 51.436 36.711C54.7853 35.9 55.4212 45.6786 66.7853 36.9226L66.7154 34.4876Z" fill="#F4C683"/>
<path d="M66.7154 34.4876C66.7154 34.4876 63.3084 27.9763 50.1633 27.468C47.9592 27.5521 45.3925 29.2551 45.4998 33.5733C45.6689 36.1177 47.2241 36.6027 50.9551 35.8393C55.897 34.7063 57.9696 43.2537 66.7853 36.9226L66.7154 34.4876Z" fill="#FDE0AC"/>
<path d="M66.7154 34.4876C66.7154 34.4876 64.975 31.1636 59.1866 29.0799C57.5565 31.9655 54.2102 33.5784 50.9693 32.7674C48.9159 32.2277 48.1475 30.2169 47.8073 28.2203C46.4698 29.0992 45.431 30.7941 45.4998 33.5733C45.6689 36.1177 48.4472 35.6935 52.1782 34.9301C57.1201 33.7971 58.8768 41.736 66.7853 36.9226L66.7154 34.4876Z" fill="#FCF3E3"/>
<path d="M58.8476 40.6506C56.5898 40.6506 55.2563 39.3192 54.1467 38.2105C53.2435 37.3074 52.4629 36.5278 51.4504 36.7728C49.4062 37.1909 47.771 36.9884 46.7211 36.1886C45.9557 35.6044 45.5112 34.7023 45.4363 33.5774C45.334 29.4414 47.7356 27.4974 50.1615 27.4043C56.9715 27.6675 61.1399 29.573 63.4392 31.1251C64.7413 32.004 65.608 32.8727 66.1406 33.5055C66.6296 34.0867 66.7288 34.5362 66.7288 34.5362C66.7207 34.52 65.8338 32.8929 63.3603 31.2244C61.0751 29.6844 56.93 27.7931 50.1615 27.5308C47.8024 27.622 45.4626 29.5254 45.5638 33.5723C45.6357 34.6557 46.063 35.5264 46.7981 36.0873C47.8186 36.8649 49.4184 37.0593 51.4231 36.6493C52.5014 36.388 53.3063 37.1899 54.2368 38.1204C56.2385 40.1201 58.9793 42.8578 66.746 36.873L66.824 36.9733C63.253 39.7252 60.7288 40.6506 58.8476 40.6506Z" fill="#DEA95D"/>
<path d="M67.2733 37.7802C67.1123 36.6148 65.3556 36.4366 65.3374 36.4356C65.3374 36.4356 66.2486 36.3992 66.8409 36.8497C67.3047 37.2416 67.2733 37.7802 67.2733 37.7802Z" fill="#DEA95D"/>
<path d="M48.2459 44.8058L48.1265 44.7593C48.1376 44.7309 49.2493 41.8393 49.1258 40.5969C49.1258 40.5969 49.3475 41.7198 48.2459 44.8058Z" fill="#DEA95D"/>
<path d="M53.2446 37.359C52.1562 36.3222 49.951 35.4434 49.9287 35.4343C49.9287 35.4343 52.226 36.2129 53.3317 37.2669L53.2446 37.359Z" fill="#DEA95D"/>
<path d="M57.7072 48.4852C59.0994 42.0569 56.2442 37.8491 56.2148 37.8075L56.3201 37.7346C59.4457 43.1099 57.7072 48.4852 57.7072 48.4852Z" fill="#787E85"/>
<path d="M67.2773 45.8943C64.5639 39.382 57.2639 36.7039 57.1899 36.6776L57.2335 36.5581C65.1309 39.5612 67.2773 45.8943 67.2773 45.8943Z" fill="#787E85"/>
<path d="M70.738 37.3671C63.1322 32.7674 57.2922 34.8835 57.2345 34.9047L57.1899 34.7863C64.1984 32.6874 70.738 37.3671 70.738 37.3671Z" fill="#787E85"/>
<path d="M47.306 30.7131C45.6374 26.3766 40.0991 23.5669 40.0435 23.5386C40.0435 23.5386 45.7387 26.2855 47.4245 30.6675L47.306 30.7131Z" fill="#787E85"/>
<path d="M47.3182 32.6874C45.4856 30.6928 37.086 28.2315 37.001 28.2072C37.001 28.2072 45.5555 30.5804 47.4124 32.6013L47.3182 32.6874Z" fill="#787E85"/>
<path d="M37.0459 35.6874C37.0459 35.6874 42.8353 32.9041 47.7185 33.9672L47.6912 34.0917C42.8515 33.0377 37.1036 35.6611 37.0459 35.6874Z" fill="#787E85"/>
<path d="M58.793 19.5383C58.793 19.5383 60.6165 17.8211 64.9195 19.1566C65.852 19.4755 63.7531 14.5771 58.793 19.5383Z" fill="#222020"/>
<path d="M62.853 17.3685C61.7919 17.3685 60.6073 17.9568 59.3255 19.1181C59.8237 18.868 60.6559 18.5845 61.8739 18.5845C62.8135 18.5845 63.8452 18.7566 64.9387 19.0958C64.963 19.1039 64.9823 19.109 64.9995 19.109C65.0258 19.109 65.042 19.0999 65.0531 19.0796C65.0997 18.9996 65.0643 18.7749 64.9063 18.5005C64.5904 17.9537 63.8847 17.3685 62.853 17.3685ZM58.5459 19.761L58.7474 19.4937C60.2418 17.9993 61.6239 17.2409 62.853 17.2409C63.9394 17.2409 64.6826 17.8586 65.0157 18.4367C65.1878 18.7333 65.2435 19.0047 65.1635 19.1434C65.1291 19.2031 65.0714 19.2355 64.9995 19.2355C64.9691 19.2355 64.9347 19.2295 64.8992 19.2173C63.8189 18.8822 62.8014 18.7121 61.8739 18.7121C59.7872 18.7121 58.555 19.7519 58.5459 19.761Z" fill="#171515"/>
<path d="M74.2474 29.333C74.2474 29.333 74.863 22.5281 70.7705 21.5106C72.2761 21.0013 77.301 20.5568 74.2474 29.333Z" fill="#222020"/>
<path d="M70.9985 21.5075C74.2607 22.518 74.3802 27.3546 74.3347 28.8784C75.3471 25.8005 75.421 23.6236 74.5544 22.4036C73.9317 21.5288 72.9405 21.3445 72.2186 21.3445C71.7022 21.3445 71.2678 21.4346 70.9985 21.5075ZM74.1382 29.8423L74.1848 29.328C74.1909 29.2601 74.7477 22.5646 70.7555 21.5723L70.5449 21.5197L70.7505 21.4498C70.958 21.38 71.5159 21.217 72.2186 21.217C72.9708 21.217 74.0036 21.4103 74.6576 22.3307C75.5901 23.6419 75.4727 26.005 74.3083 29.3543L74.1382 29.8423Z" fill="#171515"/>
<path d="M72.589 28.6699C71.9491 31.3195 69.7763 33.0681 67.7362 32.575C65.696 32.0819 64.561 29.5345 65.2019 26.8849C65.8418 24.2352 68.0146 22.4876 70.0547 22.9797C72.0949 23.4728 73.2289 26.0202 72.589 28.6699Z" fill="#F36518"/>
<path d="M71.6636 28.9959C71.0926 31.359 69.1557 32.9182 67.3363 32.4788C65.5168 32.0384 64.5054 29.7664 65.0764 27.4043C65.6475 25.0411 67.5843 23.4829 69.4038 23.9223C71.2232 24.3617 72.2347 26.6338 71.6636 28.9959Z" fill="white"/>
<path d="M68.7798 23.9112C67.1608 23.9112 65.6289 25.3864 65.1379 27.4195C64.5759 29.7441 65.5692 31.9858 67.3512 32.4171C67.5496 32.4647 67.7541 32.489 67.9597 32.489C69.5786 32.489 71.1105 31.0138 71.6016 28.9807C71.8749 27.8518 71.7929 26.7097 71.3717 25.764C70.9536 24.8234 70.2489 24.1917 69.3883 23.9841C69.1898 23.9365 68.9853 23.9112 68.7798 23.9112ZM67.9597 32.6165C67.745 32.6165 67.5294 32.5912 67.3208 32.5406C65.471 32.0931 64.4362 29.7826 65.0144 27.3891C65.5186 25.3003 67.1021 23.7846 68.7798 23.7846C68.9954 23.7846 69.2101 23.8099 69.4187 23.8606C70.3177 24.0772 71.0528 24.7354 71.4882 25.7124C71.9205 26.6834 72.0045 27.8548 71.7251 29.0111C71.2209 31.0998 69.6374 32.6165 67.9597 32.6165Z" fill="#100F0D"/>
<path d="M70.1623 29.8423C69.7674 31.2993 68.6071 32.253 67.5703 31.9726C66.5335 31.6911 66.0131 30.2817 66.408 28.8248C66.8028 27.3668 67.9631 26.413 69.0009 26.6945C70.0377 26.975 70.5571 28.3843 70.1623 29.8423Z" fill="#49A8E3"/>
<path d="M68.6304 26.7087C67.7131 26.7087 66.8039 27.6057 66.4687 28.841C66.2814 29.5335 66.2966 30.2352 66.5112 30.8173C66.7239 31.3924 67.1056 31.7802 67.5865 31.9108C67.7009 31.9422 67.8204 31.9574 67.9409 31.9574C68.8572 31.9574 69.7664 31.0614 70.1015 29.8251C70.4863 28.4036 69.9851 27.0266 68.9837 26.7563C68.8693 26.7249 68.7498 26.7087 68.6304 26.7087ZM67.9409 32.085C67.8092 32.085 67.6786 32.0678 67.5531 32.0333C67.0317 31.8926 66.6186 31.4755 66.3928 30.8619C66.168 30.2544 66.1518 29.5254 66.3462 28.8076C66.6965 27.5177 67.6564 26.5821 68.6304 26.5821C68.761 26.5821 68.8916 26.5983 69.0171 26.6327C70.0863 26.9223 70.627 28.3692 70.224 29.8585C69.8747 31.1484 68.9139 32.085 67.9409 32.085Z" fill="#3F5FB5"/>
<path d="M50.7789 31.7498C50.7789 31.7498 46.6742 27.705 48.1859 24.8933C49.57 22.4643 54.277 22.2345 56.63 24.8933C58.983 27.5521 59.3749 29.1467 59.3749 29.1467C58.7289 29.7147 55.3269 33.5237 50.7789 31.7498Z" fill="#191718"/>
<path d="M51.2701 30.7131C51.2701 30.7131 46.6744 27.705 48.186 24.8933C49.5701 22.4644 54.2964 22.2173 56.6302 24.8933C58.6895 27.2554 58.6764 27.7779 58.6764 27.7779C58.0304 28.3449 55.8191 32.4869 51.2701 30.7131Z" fill="#1E1C1D"/>
<path d="M51.6307 29.6753C51.6307 29.6753 47.0269 26.9162 48.1862 24.8933C49.5703 22.4644 54.2429 22.2659 56.6304 24.8933C58.141 26.5558 58.1815 26.9841 58.1815 26.9841C57.5365 27.5521 54.8109 31.1515 51.6307 29.6753Z" fill="#282628"/>
<path d="M50.8147 31.6962C51.5984 31.9999 52.3972 32.1538 53.191 32.1538C56.1363 32.1538 58.3 30.0833 59.114 29.3047C59.19 29.2318 59.2528 29.1721 59.3024 29.1265C59.2274 28.8754 58.704 27.3324 56.5828 24.9358C55.5359 23.7542 53.8815 23.0485 52.1562 23.0485C50.4016 23.0485 48.9011 23.7674 48.242 24.9247C46.8053 27.5976 50.599 31.4795 50.8147 31.6962ZM53.191 32.2804C52.377 32.2804 51.5579 32.1224 50.756 31.8096L50.7337 31.7954C50.5656 31.6294 46.6139 27.6847 48.1306 24.8639C48.813 23.6652 50.355 22.921 52.1562 22.921C53.9443 22.921 55.5916 23.6247 56.678 24.8518C59.0148 27.4913 59.4208 29.0668 59.437 29.1316L59.4461 29.169L59.4168 29.1953C59.3641 29.2419 59.2922 29.3108 59.2021 29.3968C58.377 30.1856 56.1869 32.2804 53.191 32.2804Z" fill="#171515"/>
<path d="M50.8288 31.7893L50.7285 31.7104C51.7866 30.384 52.1743 26.6763 52.1784 26.6388C52.1784 26.6388 51.9091 30.4336 50.8288 31.7893Z" fill="#171515"/>
<path d="M57.681 30.543C57.5666 30.0408 57.1059 29.5436 56.4458 29.2855C55.5264 28.925 54.5717 29.165 54.3145 29.8211C54.2284 30.0418 54.2335 30.2807 54.3115 30.5156C54.4633 30.9783 54.9038 31.4228 55.5143 31.6618C55.572 31.685 55.6297 31.7053 55.6874 31.7235C56.4599 31.4167 57.1343 31.0067 57.6932 30.5997C57.6901 30.5804 57.6851 30.5622 57.681 30.543Z" fill="#292629"/>
<path d="M57.6621 30.4721C57.5223 29.9942 57.0748 29.5315 56.4461 29.2855C55.5267 28.925 54.5719 29.165 54.3148 29.8211C54.2348 30.0266 54.2348 30.2473 54.2976 30.466C55.2615 31.1818 56.688 31.0927 57.6621 30.4721Z" fill="#191617"/>
<path d="M55.5885 29.1812C55.0002 29.1812 54.5345 29.4353 54.3745 29.8444C54.1305 30.467 54.653 31.2558 55.5379 31.603C55.5875 31.6223 55.6361 31.6395 55.6857 31.6557C56.3367 31.3945 56.9888 31.031 57.6236 30.5723C57.5163 30.0691 57.0505 29.5902 56.4228 29.3452C56.1504 29.2379 55.8619 29.1812 55.5885 29.1812ZM55.6908 31.7903L55.6695 31.7833C55.6098 31.765 55.551 31.7448 55.4923 31.7215C54.5406 31.3489 53.9867 30.4863 54.2561 29.7978C54.4363 29.3391 54.9466 29.0536 55.5885 29.0536C55.8781 29.0536 56.1818 29.1133 56.4694 29.2267C57.1528 29.494 57.658 30.0286 57.7562 30.5885L57.7633 30.628L57.7309 30.6513C57.0698 31.1322 56.3904 31.5129 55.711 31.7822L55.6908 31.7903Z" fill="#171515"/>
<path d="M50.218 28.0948C50.2544 27.3901 49.4849 26.7775 48.4978 26.7269C48.2841 26.7158 48.0786 26.733 47.8862 26.7725C48.0006 27.626 48.3864 28.4907 48.841 29.2531C49.6054 29.1447 50.1876 28.681 50.218 28.0948Z" fill="#292629"/>
<path d="M50.1522 27.6999C49.9487 27.1744 49.2936 26.7684 48.4978 26.7269C48.2841 26.7158 48.0786 26.733 47.8862 26.7725C47.9713 27.4053 48.2052 28.0421 48.5049 28.6415C49.1893 28.7671 49.7705 28.3327 50.1522 27.6999Z" fill="#191617"/>
<path d="M47.9582 26.8231C48.0645 27.5409 48.3723 28.3347 48.8745 29.1842C49.6025 29.0668 50.1269 28.6213 50.1543 28.0907C50.1887 27.4235 49.4445 26.8393 48.4948 26.7897C48.3126 26.7806 48.1344 26.7917 47.9582 26.8231ZM48.8087 29.3229L48.7864 29.2865C48.2488 28.3843 47.9248 27.5409 47.8235 26.7806L47.8154 26.7218L47.8742 26.7097C48.0797 26.6682 48.2883 26.652 48.5019 26.6631C49.5215 26.7158 50.3203 27.3597 50.2818 28.0978C50.2505 28.7002 49.6612 29.2004 48.8502 29.3168L48.8087 29.3229Z" fill="#171515"/>
<path d="M69.4997 29.9598C69.286 30.9743 68.5884 31.6861 67.9404 31.5504C67.2925 31.4137 66.9401 30.4812 67.1537 29.4667C67.3674 28.4522 68.065 27.7404 68.713 27.8761C69.361 28.0128 69.7123 28.9453 69.4997 29.9598Z" fill="#100F0D"/>
<path d="M69.2833 28.3317C69.1952 28.7488 68.7861 29.0151 68.369 28.9281C67.9519 28.84 67.6846 28.4309 67.7726 28.0138C67.8597 27.5956 68.2698 27.3283 68.6869 27.4164C69.1041 27.5045 69.3714 27.9135 69.2833 28.3317Z" fill="white"/>
<path d="M69.681 29.2895C69.6476 29.4485 69.4917 29.5497 69.3338 29.5163C69.1748 29.4829 69.0735 29.328 69.107 29.169C69.1404 29.0111 69.2963 28.9088 69.4542 28.9422C69.6132 28.9756 69.7144 29.1316 69.681 29.2895Z" fill="white"/>
<path d="M83.4062 16.3581C83.4062 16.3581 87.7741 11.654 91.9719 14.9183C91.251 14.7047 87.9432 13.2629 83.4062 16.3581Z" fill="#363535"/>
<path d="M55.0394 42.7171C55.0394 42.8933 54.6678 43.037 54.2082 43.037C53.7495 43.037 53.3779 42.8933 53.3779 42.7171C53.3779 42.5409 53.7495 42.3981 54.2082 42.3981C54.6678 42.3981 55.0394 42.5409 55.0394 42.7171Z" fill="#F24E73"/>
<path d="M54.5739 23.9861C54.5719 24.3891 53.5959 24.7121 52.3941 24.707C51.1912 24.7019 50.2182 24.3719 50.2192 23.9689C50.2213 23.5649 51.1973 23.243 52.3991 23.247C53.6019 23.2521 54.5749 23.5831 54.5739 23.9861Z" fill="#47464B"/>
</svg>
