<svg width="128" height="128" viewBox="0 0 128 128" fill="none" xmlns="http://www.w3.org/2000/svg">
<path d="M73.1379 80.3037C70.2958 84.5824 71.1901 89.8512 75.1815 94.066C72.2755 94.0021 67.5101 95.6706 69.0665 98.4488C68.5636 99.4066 68.8749 100.412 71.4376 100.125C71.4376 101.203 72.2038 101.083 75.8439 100.891C79.4843 100.7 83.8426 100.029 85.4472 99.574C87.0516 99.1193 88.3688 98.0417 88.2253 96.892C88.0815 95.7422 86.4293 94.7845 85.7584 92.1741C85.0881 89.5639 84.8964 87.5763 86.0458 85.5406C87.1954 83.5048 88.7759 82.4749 89.5902 79.7212C90.4046 76.9669 76.8935 71.9504 73.1379 80.3037Z" fill="#A55F19"/>
<path d="M87.252 77.1265C82.5122 80.3684 78.938 84.934 77.8059 91.08C77.2106 93.6099 74.3055 92.1273 72.5663 90.3082C73.1738 91.5896 74.0291 92.8351 75.1216 94.001C77.8685 94.6393 80.5465 95.7304 83.0891 97.2742C83.2716 97.4561 82.9072 98.3671 82.7249 98.5494C79.4459 100.736 75.6197 99.8246 72.1584 100.189C72.3407 98.9138 73.4336 98.5494 74.3445 98.0028C72.5554 98.1654 70.7668 99.1975 68.9778 98.6399C68.6153 99.5347 69.0456 100.393 71.4377 100.125C71.4377 101.203 72.2038 101.083 75.844 100.891C79.4843 100.7 83.8426 100.029 85.4472 99.574C87.0516 99.1193 88.3689 98.0417 88.2254 96.892C88.0815 95.7422 86.4293 94.7845 85.7585 92.1741C85.0881 89.5639 84.8965 87.5763 86.0458 85.5406C87.1955 83.5048 88.776 82.4749 89.5903 79.7212C89.8272 78.9191 88.8491 77.9259 87.252 77.1265Z" fill="#864515"/>
<path d="M89.4563 79.6814C88.9467 81.4035 88.1517 82.418 87.3103 83.4925C86.8375 84.0952 86.3494 84.7189 85.9239 85.4719C84.7611 87.5307 84.9466 89.576 85.6231 92.2088C86.0132 93.728 86.7234 94.6879 87.2936 95.459C87.7048 96.0147 88.0292 96.4534 88.0866 96.9095C88.2268 98.0321 86.8459 99.0322 85.4089 99.4398C83.7535 99.909 79.4154 100.563 75.8364 100.752C75.5897 100.765 75.3567 100.778 75.1358 100.789C74.2209 100.839 73.4984 100.878 72.9672 100.878H72.9667C71.7085 100.878 71.577 100.649 71.577 100.125V99.969L71.4217 99.9861C71.1313 100.019 70.8614 100.035 70.6197 100.035C69.8263 100.035 69.3007 99.8591 69.0995 99.526C68.894 99.1861 69.068 98.7459 69.19 98.5135L69.2254 98.4466L69.1883 98.3801C68.8222 97.7272 68.8074 97.1049 69.1437 96.5313C69.9855 95.0937 72.8486 94.2042 75.0181 94.2042C75.0719 94.2042 75.1252 94.2046 75.1782 94.2056L75.5128 94.213L75.2827 93.9699C71.2751 89.738 70.4975 84.5308 73.254 80.3811L73.2649 80.3609C75.0361 76.422 78.9007 75.8338 81.047 75.8338C84.6203 75.8338 88.1416 77.3342 89.1886 78.735C89.4488 79.0835 89.5388 79.4019 89.4563 79.6814ZM81.047 75.5544C79.2907 75.5544 77.7331 75.9016 76.4184 76.5865C74.8944 77.3802 73.7496 78.6082 73.0148 80.2359C70.2413 84.4215 70.9533 89.6408 74.8603 93.9261C72.6344 93.9685 69.7739 94.9026 68.9023 96.39C68.5239 97.0359 68.5262 97.7291 68.9083 98.451C68.6826 98.9163 68.6649 99.3475 68.8603 99.6707C69.1782 100.197 70.0021 100.404 71.3037 100.279C71.3662 101.022 71.9058 101.158 72.9667 101.158H72.9672C73.506 101.158 74.2318 101.118 75.1507 101.068C75.3716 101.057 75.6046 101.044 75.8512 101.031C79.4487 100.841 83.8157 100.182 85.4849 99.7088C86.3154 99.4731 87.0614 99.0781 87.5862 98.5967C88.1687 98.0614 88.4376 97.4662 88.3638 96.8744C88.2977 96.3463 87.9535 95.8814 87.5184 95.2928C86.9625 94.5415 86.2703 93.6055 85.8938 92.1393C85.2177 89.5079 85.0458 87.5955 86.1675 85.6092C86.5821 84.8745 87.064 84.2597 87.5302 83.6649C88.351 82.617 89.1999 81.5338 89.7243 79.7605C89.8331 79.3918 89.7282 78.9904 89.4125 78.5679C88.3252 77.1125 84.7044 75.5544 81.047 75.5544Z" fill="#451800"/>
<path d="M71.3184 100.052L71.5567 100.198C72.7335 98.2826 76.3441 97.3717 76.3803 97.363C76.3803 97.363 72.5555 98.0386 71.3184 100.052Z" fill="#451800"/>
<path d="M68.9473 98.3762L69.1859 98.521C70.6419 96.1178 74.5335 95.3163 74.5335 95.3163C74.3681 95.3373 70.4734 95.8568 68.9473 98.3762Z" fill="#451800"/>
<path d="M41.2198 61.0699C40.2857 60.6387 33.7481 58.7709 29.8686 62.4348C26.133 68.7568 26.9232 74.0015 23.834 79.174C20.7449 84.3467 16.811 85.4447 15.5338 87.9991C14.2566 90.5535 14.2566 93.4914 14.001 96.0458C13.3625 96.9081 12.1891 98.9754 12.3088 100.388C12.4286 101.801 13.0751 102.209 13.6259 102.4C14.3683 104.077 15.877 103.382 17.0026 101.849C18.2719 102.448 19.0143 101.131 19.6848 99.7896C20.3554 98.4488 21.8881 97.0118 22.5108 95.6465C23.1334 94.2816 23.301 93.2758 23.4447 92.0067C25.0973 91.8388 27.516 91.5038 29.6953 89.8992C29.4318 90.4739 28.6175 91.8388 28.0668 92.5332C29.5516 92.0067 31.8506 89.7795 32.4972 89.061C32.3296 89.9951 32.3296 91.2882 32.1379 92.0303C33.0959 90.881 34.3652 88.6298 35.0357 87.7914C34.8202 88.7496 35.1076 90.1386 35.2034 90.713C35.7542 88.9171 35.8739 88.1028 37.8377 86.3547C39.8014 84.6065 41.885 82.7146 42.9147 80.2241C43.9445 77.7336 43.8059 74.576 43.3749 71.0556C42.9439 67.5357 42.1537 61.5007 41.2198 61.0699Z" fill="#A55F19"/>
<path d="M23.8343 79.174C20.7451 84.3466 16.8113 85.4447 15.5342 87.9991C14.9255 89.2162 14.6085 90.5207 14.4141 91.8292C14.8828 90.5639 14.9751 89.0543 15.8646 88.1648C18.9617 84.8858 23.1517 83.0639 25.338 79.056C27.7063 74.5014 26.7955 69.4005 29.7103 64.8459C30.8126 63.2534 32.1615 61.9896 33.3703 60.5579C32.1189 60.8806 30.9001 61.4609 29.869 62.4348C26.1333 68.7568 26.9236 74.0015 23.8343 79.174Z" fill="#BB8651"/>
<path d="M41.2199 61.0699C40.7093 60.8343 38.5239 60.1713 36.0143 60.2151C35.1658 65.1409 36.5348 70.6928 38.0904 75.2299C39.0014 77.5985 37.9082 80.3312 36.0864 82.1531C36.0864 81.0598 36.0864 80.1489 36.0864 79.056C35.5399 81.2422 34.2647 83.2458 32.8072 84.8858C32.8072 84.3391 32.8072 83.7925 32.8072 83.2458C32.4428 84.1569 31.8963 85.0677 31.1676 85.6144C31.532 84.7035 31.7141 83.6106 31.8963 82.6997C30.0745 85.9787 27.3417 88.7115 23.6982 88.7115C23.5159 88.7115 23.1515 87.8006 22.605 87.254C22.605 87.8006 22.9694 88.1648 22.7873 88.7115C22.0586 87.9829 21.1475 87.254 20.2367 86.7076C21.1475 88.7115 22.0586 91.08 21.3298 93.2662C20.7833 95.27 19.5079 96.7275 18.9615 98.9138C18.7792 99.4604 17.8683 100.189 16.9575 99.8246C16.7752 99.6423 16.7752 99.278 16.7752 98.9138C16.2287 99.8246 16.0466 101.646 14.7712 101.282C14.0425 100.917 14.5891 100.007 14.4069 99.278C14.0425 100.007 13.3137 100.371 12.5852 99.8246C12.4941 99.7638 12.4195 99.6869 12.3562 99.5995C12.3084 99.8754 12.2881 100.142 12.3089 100.388C12.4287 101.801 13.0753 102.209 13.626 102.4C14.3684 104.077 15.8772 103.382 17.0028 101.849C18.272 102.448 19.0144 101.131 19.6849 99.7896C20.3554 98.4488 21.8882 97.0118 22.5109 95.6465C23.1336 94.2816 23.3012 93.2758 23.4448 92.0067C25.0974 91.8388 27.5161 91.5038 29.6954 89.8989C29.432 90.4739 28.6176 91.8388 28.0669 92.5332C29.5517 92.0067 31.8507 89.7795 32.4973 89.061C32.3297 89.995 32.3297 91.2882 32.138 92.0303C33.096 90.881 34.3653 88.6298 35.0358 87.7914C34.8204 88.7495 35.1077 90.1385 35.2035 90.713C35.7543 88.9171 35.874 88.1028 37.8379 86.3547C39.8015 84.6065 41.8851 82.7146 42.9149 80.2241C43.9446 77.7331 43.8061 74.576 43.3751 71.0556C42.9441 67.5357 42.1538 61.5007 41.2199 61.0699Z" fill="#864515"/>
<path d="M42.7858 80.1708C41.7441 82.6901 39.5266 84.6642 37.7451 86.2504C35.9714 87.8295 35.6743 88.67 35.2412 90.1058C35.1331 89.4409 35.0178 88.509 35.1724 87.8225L35.3053 87.2312L34.9269 87.7044C34.6292 88.0765 34.2125 88.7268 33.7716 89.4156C33.3242 90.1145 32.8295 90.8868 32.3783 91.4959C32.4197 91.1862 32.4486 90.84 32.4785 90.4817C32.5186 90.0007 32.5601 89.5031 32.6349 89.0854L32.7217 88.603L32.3935 88.9674C31.7979 89.629 29.9118 91.4536 28.492 92.1921C28.9941 91.4724 29.5925 90.4595 29.8224 89.9575L30.0476 89.4663L29.6127 89.7865C27.5947 91.2725 25.3553 91.6722 23.4309 91.8677L23.3189 91.8789L23.3062 91.991C23.1718 93.1783 23.0184 94.1977 22.3839 95.5888C22.0667 96.2837 21.4937 97.0171 20.9396 97.726C20.4227 98.3876 19.888 99.0716 19.5602 99.7271C18.9986 100.85 18.4269 101.858 17.6088 101.858C17.4364 101.858 17.2526 101.813 17.0625 101.723L16.9585 101.674L16.8903 101.767C16.2162 102.684 15.4483 103.232 14.8363 103.232C14.3793 103.232 14.0151 102.934 13.7539 102.344L13.7293 102.288L13.6721 102.268C13.1618 102.091 12.5617 101.715 12.4483 100.377C12.3374 99.0694 13.4111 97.0774 14.1137 96.1288L14.1366 96.0982L14.1403 96.0598C14.1864 95.5997 14.2233 95.138 14.2623 94.6489C14.4398 92.4292 14.6231 90.1333 15.6591 88.0616C16.1938 86.9919 17.194 86.1943 18.46 85.1846C20.1169 83.863 22.1789 82.2181 23.9543 79.2458C25.4392 76.7592 26.0301 74.2743 26.6556 71.6439C27.3384 68.7725 28.0443 65.8035 29.9792 62.5231C31.5136 61.0819 33.6244 60.3511 36.253 60.3511C38.7813 60.3511 40.7977 61.0289 41.1614 61.1968C41.3659 61.2913 41.792 61.9013 42.3487 64.9296C42.7084 66.8862 43.0122 69.2404 43.2365 71.0727C43.6294 74.2819 43.8468 77.6044 42.7858 80.1708ZM41.2784 60.9426C40.6869 60.6698 38.6002 60.0711 36.253 60.0711C33.5424 60.0711 31.3623 60.8325 29.7731 62.3333L29.7587 62.3465L29.7486 62.3636C27.7846 65.6874 27.0725 68.6823 26.3838 71.5792C25.7632 74.1882 25.1773 76.6524 23.7143 79.1023C21.9651 82.0311 19.925 83.6584 18.2858 84.9659C17.0439 85.9564 15.9714 86.8119 15.409 87.9366C14.3489 90.0571 14.1632 92.3801 13.9837 94.6267C13.9459 95.1007 13.91 95.5493 13.8661 95.9937C13.3284 96.7306 12.0397 98.8642 12.1698 100.4C12.2938 101.864 12.9862 102.312 13.5235 102.512C13.9082 103.337 14.4476 103.512 14.8363 103.512C15.5261 103.512 16.3281 102.97 17.0485 102.022C17.24 102.099 17.4281 102.138 17.6088 102.138C18.5864 102.138 19.2079 101.057 19.8101 99.8521C20.1254 99.2216 20.6512 98.5485 21.1598 97.8982C21.724 97.1763 22.3072 96.4298 22.6381 95.7046C23.2697 94.3201 23.4364 93.2994 23.571 92.134C25.3618 91.9459 27.41 91.5708 29.3156 90.3318C28.9615 90.9759 28.3892 91.9022 27.9575 92.4466L27.6551 92.8281L28.1138 92.6653C29.497 92.1741 31.4583 90.3343 32.2943 89.479C32.2554 89.7947 32.2273 90.1307 32.1998 90.4587C32.151 91.0463 32.1045 91.6017 32.0029 91.9953L31.8476 92.5974L32.2456 92.12C32.7904 91.4662 33.4366 90.4568 34.007 89.5665C34.3012 89.1069 34.5846 88.6643 34.8263 88.3145C34.7805 89.1073 34.9382 90.0055 35.0313 90.5364C35.0443 90.6107 35.0561 90.6777 35.0658 90.7363L35.1633 91.3214L35.3372 90.7542C35.3813 90.6104 35.4227 90.4725 35.4625 90.3405C35.9227 88.8095 36.1536 88.0411 37.9309 86.4589C39.7338 84.854 41.9778 82.8562 43.0441 80.2774C44.1297 77.6518 43.9114 74.2853 43.5139 71.0387C42.6893 64.3049 42.0209 61.2855 41.2784 60.9426Z" fill="#451800"/>
<path d="M14.3438 98.9444C13.8779 99.9365 13.2983 101.171 13.5159 102.484L13.7917 102.438C13.5882 101.211 14.1241 100.07 14.5968 99.0633C14.7616 98.7117 14.9176 98.3801 15.0271 98.0723C15.4422 96.9073 15.5254 96.3445 15.5286 96.3208C15.5286 96.3208 15.1677 96.8447 14.7638 97.9787C14.6588 98.2735 14.5057 98.5993 14.3438 98.9444Z" fill="#451800"/>
<path d="M17.2182 97.3533C17.1613 97.5847 17.051 97.8505 16.9343 98.1322C16.5409 99.082 16.0019 100.383 16.8813 101.919L17.1239 101.78C16.3127 100.363 16.8005 99.1857 17.1926 98.2393C17.3134 97.9477 17.4276 97.6722 17.4897 97.4202C17.75 96.3625 17.3134 95.6776 17.3134 95.6776C17.3149 95.6841 17.4616 96.3645 17.2182 97.3533Z" fill="#451800"/>
<path d="M22.5942 89.2451C22.6011 89.2533 23.2791 90.1078 23.2919 92.123L23.5714 92.1213C23.5579 90.0082 22.5942 89.2451 22.5942 89.2451Z" fill="#451800"/>
<path d="M119.526 83.2652C116.939 82.3314 114.353 80.1283 113.395 78.428C114.64 79.0744 116.173 79.146 117.49 78.8351C115.526 78.236 112.605 76.2725 111.575 74.8835C112.653 75.1949 113.156 75.4341 114.09 75.5064C112.724 74.4523 111.024 72.0816 110.33 70.5488C111.144 71.0037 112.27 71.2673 112.27 71.2673C110.45 69.519 109.539 67.6748 109.061 64.8491C108.581 62.0233 107.959 57.3773 105.803 53.0667C103.648 48.756 96.0806 40.6135 90.7159 38.0268C85.3515 35.4405 79.8915 35.1052 75.7243 36.0632C71.5572 37.021 67.4621 39.9668 64.5483 39.847C63.7878 39.523 62.8882 38.873 62.3612 38.6176C63.5267 38.8572 64.7721 38.2985 65.3467 37.9472C63.926 37.9472 61.6589 37.1486 60.3333 36.2706C61.3554 36.0791 61.9939 35.4562 62.3931 35.0256C61.6427 35.2009 59.0401 35.0094 57.8271 34.6581C58.4814 34.3547 58.9288 33.6685 58.9288 33.6685C57.7789 34.227 56.805 33.9396 55.7992 33.892C54.7934 33.8438 53.1172 33.7324 52.0155 33.9878C50.914 34.2432 43.9499 37.0031 39.2085 40.2356C34.467 43.4689 27.2468 53.9719 25.8638 58.6705C26.8218 63.6516 28.9452 65.807 30.6056 67.4995C32.266 69.1919 33.0004 70.5249 33.1682 72.0575C33.5753 71.1716 33.8626 69.9979 33.8865 69.3991C34.9164 72.1534 36.6886 73.8297 38.5805 75.027C38.3888 74.4047 38.1732 73.3507 38.1254 72.9195C39.5383 75.2426 41.4541 75.9611 42.987 76.464C42.5558 75.8653 42.2924 75.1708 42.1726 74.5721C43.8491 75.8893 47.4553 78.4442 52.7727 79.5939C58.0895 80.7436 62.0018 81.2776 64.5404 81.4214C68.3244 81.3017 72.9224 83.2416 75.0058 84.9659C74.7667 84.2474 74.0241 83.0977 73.7367 82.7622C76.1075 84.2951 79.6759 84.8221 81.5196 84.5824C80.5138 84.0077 79.5259 83.2892 79.1936 82.9543C80.9931 83.0977 83.1722 83.2892 84.2498 84.0077C84.1065 83.4331 83.4119 82.4273 83.1483 82.2117C84.9444 82.8822 87.6985 83.0737 89.3512 82.2834C88.896 82.2358 87.7466 81.6847 87.0999 81.3493C88.3454 81.3734 89.83 81.1817 90.7641 80.8944C93.6137 83.888 98.7146 86.6421 103.217 87.8396C107.719 89.0369 111.695 89.9469 114.186 91.5274C114.856 92.3897 114.844 95.7422 114.389 97.1317C112.713 97.1076 109.276 98.1376 109.132 101.347C109.324 102.161 110.45 102.544 111.24 102.209C111.24 103.262 113.084 103.19 114.425 102.089C115.167 103.094 117.251 102.017 118.065 101.347C119.167 100.484 121.131 99.6463 122.064 98.4247C122.998 97.2033 123.86 91.8629 123.86 88.8934C123.86 85.9236 123.094 83.361 119.526 83.2652Z" fill="#A55F19"/>
<path d="M64.6673 39.8482C64.6275 39.8473 64.5872 39.8487 64.5479 39.847C63.7874 39.5229 62.8878 38.873 62.3608 38.6176C63.5264 38.8572 64.7717 38.2985 65.3464 37.9472C63.9256 37.9472 61.6585 37.1486 60.3329 36.2706C61.355 36.0791 61.9935 35.4562 62.3928 35.0256C61.6423 35.2008 59.0398 35.0094 57.8267 34.6581C58.481 34.3547 58.9284 33.668 58.9284 33.668C57.7785 34.227 56.8047 33.9396 55.7988 33.892C54.793 33.8438 53.1168 33.7324 52.0152 33.9878C51.7401 34.0515 51.099 34.2715 50.2188 34.6161C50.3915 34.8619 50.5462 35.1151 50.6906 35.3724C52.7333 34.6023 54.8849 34.5754 57.037 34.4215C56.4907 34.604 56.3084 35.3326 55.5798 35.3326C57.037 35.3326 58.4945 35.3326 59.9521 35.3326C59.4055 35.8792 58.6769 36.0611 58.1303 36.4253C59.4055 36.4253 60.3163 37.3364 61.4093 37.7011C60.4983 37.883 59.7697 37.5186 58.8589 37.883C63.7778 40.0691 67.7858 43.7128 70.3362 48.2674C69.2127 44.1471 67.5124 41.9255 64.6673 39.8482Z" fill="#BB8651"/>
<path d="M90.7158 38.0268C85.3513 35.4405 79.8913 35.1052 75.7241 36.0632C72.6843 36.762 69.6839 38.5163 67.1519 39.368C68.0921 39.3777 69.0318 39.3287 69.972 38.9763C74.891 36.7901 80.9029 36.0611 85.8217 38.7939C85.2751 38.2472 84.9109 37.7011 84.3642 37.3364C90.9232 38.7939 96.9349 42.2553 100.214 48.2674C100.214 47.7208 99.8497 47.3566 100.032 46.8099C101.522 47.9277 102.917 49.1417 104.193 50.4747C101.04 46.052 95.1337 40.1571 90.7158 38.0268Z" fill="#BB8651"/>
<path d="M40.0083 68.535C40.0954 68.6408 40.184 68.7448 40.2753 68.8463C40.184 68.7448 40.0952 68.6408 40.0083 68.535ZM39.7498 68.2083C39.8067 68.2826 39.8649 68.3557 39.9234 68.4288C39.8649 68.3557 39.8067 68.2826 39.7498 68.2083ZM39.5014 67.8702C39.5513 67.9402 39.602 68.0092 39.6531 68.0779C39.602 68.0092 39.5513 67.9402 39.5014 67.8702ZM39.2607 67.5217C39.3075 67.5917 39.355 67.6608 39.4027 67.7294C39.355 67.6608 39.3075 67.5917 39.2607 67.5217ZM39.0255 67.1635C39.0714 67.2352 39.1176 67.3066 39.1644 67.3774C39.1176 67.3066 39.0714 67.2352 39.0255 67.1635ZM38.7927 66.7948C38.8395 66.8702 38.8864 66.9453 38.9338 67.0202C38.8864 66.9453 38.8395 66.8702 38.7927 66.7948ZM38.5535 66.4043C38.6051 66.4896 38.6567 66.5745 38.7086 66.6594C38.6567 66.5745 38.6051 66.4896 38.5535 66.4043ZM38.2728 65.939C38.3444 66.0581 38.4158 66.177 38.4876 66.2958C38.4158 66.177 38.3444 66.0581 38.2728 65.939ZM121.347 93.9948C120.801 91.6263 120.801 89.0758 119.708 86.7077C119.343 85.6144 119.161 83.7925 120.254 83.4283C120.332 83.4025 120.412 83.381 120.492 83.3627C120.195 83.3085 119.874 83.2747 119.526 83.2651C116.939 82.3314 114.353 80.1282 113.395 78.428C114.64 79.0744 116.173 79.146 117.49 78.8351C115.526 78.236 112.605 76.2725 111.575 74.8835C112.653 75.1949 113.156 75.4341 114.09 75.5063C112.724 74.4523 111.024 72.0816 110.33 70.5488C111.144 71.0037 112.27 71.2673 112.27 71.2673C110.45 69.519 109.539 67.6748 109.061 64.8491C108.581 62.0233 107.959 57.3773 105.803 53.0666C105.706 52.8716 105.594 52.6664 105.475 52.457C106.975 56.434 107.786 60.6454 107.684 65.028C107.502 64.6636 106.955 64.4815 106.955 64.6636C107.319 66.85 108.594 68.8538 109.141 71.0399C109.323 71.5865 108.594 70.8576 108.594 70.8576C108.594 72.8618 110.234 74.137 110.963 75.9589C110.234 75.5947 109.688 75.048 108.959 75.048C109.688 77.5985 112.056 78.8737 113.331 81.0598C114.424 82.6997 114.242 84.5216 112.421 84.8858C102.947 86.5254 94.0204 81.4245 89.1015 73.7728C89.1015 74.3194 89.1015 75.048 89.1015 75.5947C87.2796 72.4976 84.7291 69.7647 84 66.1209C83.0892 68.8538 83.2716 71.7685 83.4534 74.5014C83.0892 74.5014 82.1783 73.5903 82.3606 74.5014C82.3606 74.8656 82.3606 75.5947 82.9073 75.7766C80.7212 75.2299 78.5349 74.6836 76.7131 73.0437C76.7131 73.9547 77.2597 74.6836 77.806 75.4122C74.8912 74.6836 72.5227 73.2261 69.9722 71.5865C70.1547 72.8618 70.8832 73.7728 70.8832 75.048C68.697 72.8618 67.7861 69.9471 66.8751 67.0319C66.1465 65.2101 64.1424 63.9348 62.6852 65.2101C60.4987 66.6676 60.8634 70.129 58.6773 71.2223C53.2117 74.137 46.6531 71.2223 42.0987 67.2142C41.9164 68.3072 42.4631 69.4005 42.4631 70.4932C41.5855 70.0945 40.8827 69.5211 40.278 68.8494C39.7437 67.1496 39.4353 65.3734 39.366 63.5705C40.6412 63.5705 41.9164 64.4815 43.1916 64.4815C42.2808 63.5705 42.4631 62.2954 41.552 61.3844C43.3739 61.931 45.5602 62.6596 47.0175 61.5668C47.7461 61.0202 46.8354 59.0159 47.564 57.7406C48.1108 58.8339 48.6569 59.9269 49.386 61.0202C50.2968 58.8339 50.4788 56.4654 51.2079 54.0969C51.3898 55.1902 52.3007 55.9188 52.4831 56.8298C52.4831 55.3721 52.1187 53.915 51.5721 52.4575C51.0254 50.8179 51.3898 48.996 51.3898 47.1741C51.5721 48.6318 52.3007 49.907 53.0292 51.1822C51.5005 45.8304 53.4356 39.1953 50.2191 34.6161C47.574 35.6513 42.7658 37.8104 39.2085 40.2356C37.3121 41.5288 35.0194 43.9853 32.862 46.7676C29.6254 50.9421 26.6936 55.851 25.8638 58.6705C26.8218 63.6516 28.9452 65.8069 30.6056 67.4995C32.266 69.1919 33.0004 70.5248 33.1682 72.0575C33.5753 71.1716 33.8626 69.9978 33.8865 69.3991C34.9164 72.1533 36.6886 73.8297 38.5805 75.027C38.3888 74.4047 38.1734 73.3507 38.1254 72.9195C39.5383 75.2426 41.4541 75.9611 42.987 76.464C42.5558 75.8652 42.2924 75.1708 42.1726 74.5721C43.8491 75.8893 47.4553 78.4442 52.7726 79.5939C58.0895 80.7436 62.0018 81.2776 64.5404 81.4214C68.3244 81.3017 72.9224 83.2416 75.0058 84.9659C74.7667 84.2474 74.0241 83.0977 73.7367 82.7622C76.1075 84.2951 79.6759 84.8221 81.5196 84.5824C80.5138 84.0077 79.5259 83.2892 79.1936 82.9542C80.9931 83.0977 83.1722 83.2892 84.2498 84.0077C84.1065 83.4331 83.4119 82.4272 83.1483 82.2116C84.9444 82.8821 87.6984 83.0736 89.3507 82.2834C88.8959 82.2357 87.7466 81.6846 87.0999 81.3493C88.3454 81.3734 89.83 81.1817 90.7641 80.8944C93.6137 83.888 98.7146 86.6421 103.217 87.8396C107.719 89.0369 111.695 89.9469 114.186 91.5274C114.856 92.3897 114.844 95.7422 114.389 97.1317C114.202 97.1286 113.993 97.1399 113.769 97.1648C114.107 97.46 114.24 97.8217 113.878 98.0027C112.421 98.9138 111.691 100.189 110.416 101.282C110.061 101.637 109.553 101.298 109.19 100.818C109.161 100.987 109.141 101.163 109.132 101.347C109.324 102.161 110.45 102.544 111.24 102.209C111.24 102.33 111.265 102.435 111.31 102.527C111.389 100.695 112.325 98.754 114.242 98.9138C114.607 98.9138 114.424 99.4604 114.424 99.6423C113.419 100.504 113.095 101.592 113.091 102.817C113.537 102.677 114.005 102.433 114.425 102.089C114.476 102.158 114.534 102.216 114.597 102.267C114.434 100.487 115.594 98.34 117.157 99.278C117.886 99.8246 116.246 100.736 115.7 101.646C115.617 101.936 115.563 102.216 115.533 102.491C116.428 102.414 117.525 101.791 118.065 101.347C119.167 100.484 121.131 99.6463 122.064 98.4247C122.819 97.4387 123.525 93.7678 123.77 90.8273C123.649 91.3407 123.509 91.8506 123.351 92.3552C123.169 93.2662 121.529 95.0881 121.347 93.9948Z" fill="#864515"/>
<path d="M40.2748 68.8463C40.1836 68.7448 40.0949 68.6408 40.0078 68.535C40.0948 68.6408 40.1836 68.7448 40.2748 68.8463Z" fill="#864515"/>
<path d="M121.953 98.34C121.364 99.1106 120.317 99.7467 119.393 100.308C118.869 100.627 118.373 100.928 117.976 101.239C117.411 101.704 116.224 102.359 115.355 102.359C114.985 102.359 114.71 102.24 114.537 102.006L114.45 101.888L114.336 101.981C113.707 102.498 112.906 102.819 112.246 102.819C111.986 102.819 111.379 102.759 111.379 102.209V101.997L111.185 102.08C111.015 102.152 110.818 102.19 110.616 102.19C110.055 102.19 109.417 101.896 109.273 101.333C109.424 98.2643 112.744 97.2708 114.332 97.2708C114.35 97.2708 114.369 97.2708 114.387 97.2711L114.49 97.2728L114.522 97.1749C114.971 95.8022 115.03 92.3858 114.296 91.4416L114.281 91.4225L114.26 91.4099C112.059 90.0125 108.74 89.1437 104.896 88.1368C104.358 87.996 103.809 87.8525 103.253 87.7044C98.5968 86.4663 93.6189 83.6907 90.865 80.7982L90.8056 80.7352L90.7226 80.7612C89.8465 81.0304 88.476 81.212 87.3127 81.212C87.2423 81.212 87.1719 81.2111 87.1024 81.2098L86.5047 81.1985L87.0354 81.4735C87.2638 81.5921 88.2399 82.0905 88.9089 82.3154C88.2739 82.5414 87.4859 82.6599 86.6012 82.6599C85.424 82.6599 84.1833 82.4488 83.1971 82.081L82.4074 81.7858L83.0598 82.3196C83.2596 82.4833 83.7403 83.1603 83.9865 83.6972C82.7729 83.0998 80.7324 82.9368 79.2049 82.8147L78.8292 82.785L79.0942 83.0526C79.3885 83.3492 80.1914 83.9461 81.0766 84.4835C80.9152 84.4932 80.7442 84.498 80.5653 84.498C78.6307 84.498 75.7924 83.9251 73.8124 82.645L73.0037 82.1225L73.6304 82.8533C73.839 83.0967 74.3515 83.8639 74.6725 84.5294C72.423 82.8781 68.3353 81.2762 64.8779 81.2762C64.7655 81.2762 64.6523 81.2779 64.5421 81.2815C62.4968 81.1652 58.8009 80.7545 52.8018 79.4574C48.9705 78.6287 45.4231 76.9481 42.259 74.4624L41.9614 74.2284L42.0356 74.5998C42.1478 75.1608 42.362 75.7175 42.6497 76.2033C41.0832 75.6611 39.4862 74.888 38.2448 72.8469L37.9168 72.3078L37.9865 72.9352C38.0276 73.3049 38.1855 74.0977 38.3452 74.7077C36.2338 73.2979 34.8538 71.5874 34.0173 69.3501L33.7745 68.7011L33.7469 69.3938C33.7281 69.8639 33.5323 70.7478 33.2313 71.5425C32.9623 70.1618 32.2012 68.9259 30.7053 67.4014L30.6942 67.3902C29.0295 65.6933 26.9582 63.5824 26.0075 58.6775C27.4143 53.9631 34.6292 43.5275 39.2871 40.3511C43.9072 37.2012 50.8706 34.3966 52.0471 34.1238C52.5058 34.0175 53.1088 33.9654 53.8903 33.9654C54.4754 33.9654 55.061 33.9948 55.5316 34.0184C55.6225 34.0232 55.71 34.0276 55.7926 34.0315C56.0096 34.042 56.2308 34.0638 56.4447 34.0857C56.75 34.1163 57.0657 34.1479 57.3875 34.1479C57.7838 34.1479 58.1419 34.0983 58.483 33.994C58.3016 34.1841 58.0544 34.3988 57.7679 34.5314L57.429 34.6884L57.7881 34.7924C58.737 35.0671 60.4198 35.2314 61.4983 35.2314C61.692 35.2314 61.8635 35.2263 62.0109 35.2162C61.5905 35.6177 61.0575 35.9928 60.3074 36.1332L59.969 36.1966L60.2564 36.3872C61.5119 37.2192 63.4522 37.9136 64.8465 38.0588C64.3077 38.3167 63.6153 38.5359 62.9506 38.5359C62.7556 38.5359 62.5666 38.5175 62.3891 38.4807L61.2945 38.2559L62.3 38.7436C62.5089 38.8446 62.7884 39.0161 63.0841 39.1975C63.5292 39.4703 64.0339 39.7795 64.4936 39.9755L64.5171 39.9855L64.5424 39.9864C64.6024 39.9891 64.6623 39.9903 64.7235 39.9903C66.3433 39.9903 68.3052 39.1179 70.3825 38.1943C72.1234 37.4207 73.9229 36.6208 75.7557 36.1993C77.164 35.8756 78.6666 35.7113 80.2225 35.7113C83.735 35.7113 87.3426 36.5557 90.6552 38.1527C95.7691 40.6183 103.454 48.6798 105.678 53.1292C107.632 57.0356 108.329 61.2703 108.79 64.0724C108.836 64.3525 108.88 64.6197 108.923 64.8725C109.373 67.5313 110.218 69.3441 111.797 70.9919C111.403 70.872 110.848 70.6788 110.398 70.4268L110.027 70.2196L110.202 70.6065C110.842 72.0174 112.315 74.1308 113.64 75.313C113.201 75.2429 112.835 75.1271 112.372 74.9811C112.151 74.9115 111.901 74.8324 111.614 74.7492L111.217 74.6343L111.463 74.9667C112.43 76.2717 115.014 78.0518 116.955 78.7972C116.625 78.8482 116.292 78.8737 115.958 78.8737C115.041 78.8737 114.178 78.6769 113.459 78.3038L113.043 78.0874L113.273 78.4962C114.198 80.138 116.772 82.4194 119.478 83.3969L119.499 83.4042L119.522 83.4051C122.426 83.483 123.721 85.1759 123.721 88.8931C123.721 91.9428 122.847 97.1715 121.953 98.34ZM119.552 83.1266C117.123 82.2427 114.811 80.295 113.759 78.7481C114.421 79.0139 115.172 79.153 115.958 79.153C116.484 79.153 117.011 79.0918 117.522 78.9707L118.026 78.8522L117.531 78.7013C115.764 78.1625 113.178 76.4893 111.974 75.149C112.086 75.1835 112.19 75.2163 112.288 75.2474C112.92 75.4472 113.376 75.5916 114.079 75.6454L114.545 75.6813L114.175 75.3957C112.927 74.4322 111.394 72.3397 110.635 70.8588C111.384 71.2013 112.198 71.3937 112.238 71.4034L112.734 71.5192L112.366 71.1663C110.59 69.4604 109.672 67.6237 109.198 64.8257C109.155 64.5734 109.111 64.3067 109.065 64.0269C108.602 61.2081 107.901 56.9487 105.929 53.0041C104.862 50.8717 102.423 47.7291 99.5629 44.8022C96.433 41.5997 93.2305 39.0843 90.7767 37.9009C87.4264 36.2859 83.7771 35.4318 80.2225 35.4318C78.6456 35.4318 77.122 35.5984 75.6928 35.9269C73.8342 36.3541 72.0219 37.1601 70.2692 37.9389C68.2195 38.8502 66.2838 39.7105 64.7232 39.7109C64.675 39.7109 64.6273 39.71 64.5797 39.7083C64.1449 39.5199 63.6596 39.2225 63.2305 38.9592C63.15 38.9102 63.0714 38.8617 62.9944 38.8149C64.13 38.8009 65.1355 38.2399 65.4198 38.0661L65.8434 37.8073H65.3467C64.1104 37.8073 62.0559 37.1466 60.6884 36.3292C61.5184 36.0847 62.0847 35.5639 62.4954 35.1204L62.806 34.7854L62.3611 34.8894C62.1867 34.9303 61.8879 34.9516 61.4983 34.9516C60.5768 34.9516 59.1438 34.8226 58.1957 34.6079C58.7042 34.2628 59.0297 33.7691 59.0454 33.7445L59.3204 33.3226L58.8674 33.5426C58.4101 33.7647 57.9399 33.8684 57.3875 33.8684C57.0797 33.8684 56.771 33.8373 56.4727 33.8076C56.2549 33.7857 56.0301 33.763 55.8058 33.7521C55.7235 33.7481 55.6365 33.7437 55.5456 33.7394C55.0719 33.7157 54.4824 33.686 53.8903 33.686C53.0874 33.686 52.4637 33.7403 51.9841 33.8513C50.7963 34.1269 43.7773 36.9515 39.1296 40.1203C36.9318 41.619 34.0279 44.7907 31.1628 48.8224C28.482 52.5948 26.4003 56.353 25.7298 58.631L25.7202 58.6635L25.7265 58.6966C26.6903 63.7083 28.7999 65.8585 30.4948 67.5859L30.5058 67.5974C32.1317 69.2544 32.8627 70.551 33.0291 72.0729L33.0841 72.575L33.295 72.1158C33.6138 71.4222 33.8507 70.5891 33.9602 69.9606C34.8774 72.1132 36.3335 73.7706 38.5056 75.145L38.8251 75.3475L38.7138 74.9858C38.5941 74.5967 38.4602 74.0167 38.3681 73.5393C39.714 75.4088 41.424 76.0984 42.9432 76.5969L43.351 76.7308L43.1004 76.3822C42.7958 75.9594 42.5542 75.4534 42.4029 74.9272C45.5199 77.305 48.9968 78.9203 52.7427 79.7304C58.7656 81.0326 62.4783 81.4446 64.5325 81.561L64.5385 81.5613L64.5446 81.561C64.654 81.5574 64.766 81.5557 64.8779 81.5557C68.5012 81.5557 72.8275 83.3442 74.9166 85.0735L75.2926 85.3844L75.1383 84.9213C74.9716 84.4215 74.5763 83.73 74.2435 83.2245C76.2168 84.2942 78.7723 84.7775 80.5653 84.7775C80.9227 84.7775 81.2498 84.7585 81.538 84.7209L81.9504 84.6676L81.5891 84.4613C80.8106 84.0164 80.0532 83.4922 79.6015 83.127C81.1977 83.2587 83.1836 83.465 84.1723 84.1241L84.4732 84.3243L84.3854 83.9741C84.2791 83.548 83.903 82.9259 83.5898 82.5074C84.5099 82.7841 85.5796 82.9394 86.6012 82.9394C87.7146 82.9394 88.6863 82.7561 89.4109 82.4093L89.8571 82.1963L89.3655 82.1444C89.0529 82.1116 88.344 81.8077 87.6818 81.4856C88.7449 81.4534 89.9147 81.2885 90.722 81.0528C93.52 83.957 98.513 86.7331 103.181 87.9747C103.738 88.123 104.286 88.2663 104.825 88.4076C108.634 89.4047 111.925 90.2662 114.089 91.6319C114.675 92.434 114.71 95.5529 114.286 96.9916C113.45 97.0005 112.182 97.2501 111.076 97.9298C110.171 98.486 109.074 99.5294 108.993 101.34L108.992 101.36L108.996 101.378C109.165 102.095 109.939 102.47 110.616 102.47C110.79 102.47 110.961 102.445 111.119 102.4C111.211 102.835 111.625 103.098 112.246 103.098C112.93 103.098 113.746 102.788 114.406 102.282C114.632 102.519 114.951 102.639 115.355 102.639C116.346 102.639 117.598 101.912 118.151 101.456C118.532 101.158 119.021 100.861 119.538 100.547C120.483 99.9729 121.554 99.3222 122.175 98.5096C123.165 97.2152 124 91.6822 124 88.8931C124 87.1192 123.73 85.8593 123.15 84.9278C122.426 83.7664 121.25 83.1768 119.552 83.1266Z" fill="#451800"/>
<path d="M64.4928 39.6702L64.3516 39.9112C67.7237 41.891 69.8797 46.4932 69.9012 46.5392C69.9012 46.5392 67.9415 41.6947 64.4928 39.6702Z" fill="#451800"/>
<path d="M85.1755 56.5884C85.1755 56.5884 83.7236 60.0781 83.8473 64.8419C83.9199 67.6406 84.4198 70.3093 85.3328 72.7721C86.4743 75.8526 88.2687 78.6186 90.6655 80.9937L90.8618 80.7952C85.503 75.4848 84.2418 69.1905 84.1268 64.8448C84.0026 60.1285 85.1637 56.6233 85.1755 56.5884Z" fill="#451800"/>
<path d="M112.515 99.3243C111.905 99.8092 111.164 100.702 111.1 102.203L111.379 102.214C111.427 101.099 111.865 100.202 112.68 99.5499C113.293 99.0588 113.903 98.8967 113.909 98.8953C113.909 98.8953 113.174 98.7995 112.515 99.3243Z" fill="#451800"/>
<path d="M116.608 99.184C116.608 99.184 116.608 99.184 116.608 99.1844L116.608 99.184Z" fill="#451800"/>
<path d="M114.286 102.11L114.563 102.068C114.205 99.7197 116.504 99.2062 116.608 99.1844C116.594 99.1857 113.889 99.5014 114.286 102.11Z" fill="#451800"/>
<path d="M66.448 83.4168C66.9268 83.8482 67.9007 84.0716 68.5235 84.1673C67.5654 82.89 67.1026 81.3095 66.943 79.2183C66.7833 77.1265 67.6834 72.8614 66.7515 68.8087C65.3783 62.8375 61.8657 62.3263 61.8657 62.3263L45.0063 64.7852C45.0063 64.7852 43.2346 69.3192 45.2698 74.3483C47.3052 79.3778 51.6321 82.2357 53.3559 85.1574C54.9846 88.8934 55.0007 94.7683 53.9149 97.9935C52.5416 98.4406 50.3866 97.8261 48.3991 98.712C46.4111 99.5981 44.2797 101.777 44.9263 103.238C44.3276 104.268 45.98 105.226 48.1833 105.058C47.9918 106.064 50.4343 106.208 52.6139 106.256C54.7929 106.303 57.7865 106.016 60.2774 105.178C62.7678 104.34 64.2286 103.119 64.54 100.844C64.8513 98.5682 64.6278 95.9023 64.8832 94.5129C65.394 95.5989 66.3041 96.3493 67.0069 96.6843C66.5276 95.6146 65.9529 92.9963 66.0011 91.799C66.5756 92.4693 67.5496 93.5872 67.7891 93.9065C67.885 92.2139 67.2941 88.6377 66.6714 87.6161C67.4376 88.2068 68.6192 88.0311 69.3377 87.8396C68.1723 87.3764 66.9588 84.7739 66.448 83.4168Z" fill="#A55F19"/>
<path d="M50.4087 102.777C50.4318 102.764 50.4558 102.752 50.4786 102.739C50.4558 102.751 50.4323 102.763 50.4087 102.777Z" fill="#864515"/>
<path d="M66.4482 83.4168C66.927 83.8482 67.9009 84.0716 68.5237 84.1673C67.5656 82.89 67.1028 81.3095 66.9432 79.2182C66.7835 77.1265 67.6836 72.8614 66.7517 68.8087C66.5387 67.883 66.2746 67.0892 65.9798 66.4079C67.0338 70.237 66.1267 74.6071 65.5997 78.6918C65.2355 77.9627 64.8713 77.4165 64.6888 76.6874C64.3246 78.5093 65.2355 80.3312 64.8713 82.1531C64.6888 82.1531 64.5064 81.9706 64.5064 81.7889C64.3246 82.8816 64.8713 83.9749 64.6888 85.0677C64.3246 84.1569 63.4136 83.6106 63.0494 82.6997C63.2313 85.0677 64.5064 87.254 64.3246 89.6225C63.9603 89.6225 64.1422 89.0758 63.778 89.0758C63.778 89.8044 63.778 90.7153 63.778 91.4444C63.4136 90.3511 63.2313 89.44 62.3203 88.7115C61.9561 93.2662 63.5955 98.0028 61.2275 102.011C58.6771 106.201 53.3937 105.472 49.2033 104.561C48.4977 104.385 49.6717 103.183 50.4087 102.777C48.7049 103.682 46.3767 104.057 44.8327 102.927C44.8519 103.034 44.8821 103.138 44.9265 103.238C44.3278 104.268 45.9802 105.226 48.1835 105.058C47.992 106.064 50.4345 106.208 52.6141 106.256C54.7931 106.303 57.7867 106.016 60.2776 105.178C62.768 104.34 64.2288 103.119 64.5402 100.844C64.8515 98.5682 64.628 95.9023 64.8834 94.5129C65.3942 95.5989 66.3043 96.3493 67.0071 96.6843C66.5278 95.6146 65.9531 92.9963 66.0013 91.799C66.5758 92.4693 67.5498 93.5872 67.7893 93.9065C67.8852 92.2139 67.2943 88.6377 66.6716 87.6161C67.4378 88.2068 68.6194 88.0311 69.3379 87.8396C68.1725 87.3764 66.959 84.7739 66.4482 83.4168Z" fill="#864515"/>
<path d="M47.6034 75.1883C47.5891 75.1416 47.5758 75.0948 47.564 75.048C47.5759 75.0957 47.5906 75.1416 47.6034 75.1883Z" fill="#864515"/>
<path d="M47.9534 76.1504C48.0653 76.5117 48.1086 76.873 47.9279 77.2341C45.6052 73.5174 45.1253 69.1429 45.0336 64.7813L45.0063 64.7852C45.0063 64.7852 43.2346 69.3192 45.2698 74.3483C47.3052 79.3778 51.6321 82.2357 53.3559 85.1574C54.1008 86.8657 54.5075 89.0207 54.6264 91.1652C54.7988 88.715 54.6766 86.2726 53.7579 83.9749C52.6178 80.8809 49.2967 79.0963 47.9534 76.1504Z" fill="#BB8651"/>
<mask id="mask0_25_100" style="mask-type:alpha" maskUnits="userSpaceOnUse" x="44" y="62" width="26" height="45">
<path d="M44.146 62.4519H69.8166V106.401H44.146V62.4519Z" fill="black"/>
</mask>
<g mask="url(#mask0_25_100)">
<path d="M66.7437 83.7865C67.2987 84.0834 68.0472 84.2356 68.5025 84.3055L68.8414 84.3576L68.6359 84.0834C67.7268 82.8716 67.2474 81.3676 67.0826 79.2073C67.0301 78.5199 67.0949 77.5822 67.1695 76.4968C67.3226 74.2696 67.5132 71.4979 66.888 68.7773C66.1698 65.6547 64.8579 64.0322 63.8835 63.221C62.8156 62.3321 61.8457 62.4645 61.8457 62.4645C61.8544 62.4659 62.7116 62.6024 63.7214 63.4495C64.6568 64.2341 65.918 65.8061 66.6155 68.8398C67.2317 71.5201 67.0428 74.2687 66.8906 76.4775C66.8149 77.5739 66.7498 78.5208 66.804 79.2287C66.9609 81.2832 67.3983 82.7639 68.2126 83.971C67.6982 83.8695 66.9357 83.6674 66.5421 83.3133L66.1157 82.9293L66.3176 83.4664C66.4568 83.8354 67.6284 86.8669 68.9524 87.7861C68.2961 87.9181 67.373 87.9803 66.7571 87.5054L66.1606 87.0454L66.5525 87.6886C67.1355 88.645 67.662 91.7758 67.6598 93.5225C67.3808 93.1861 66.9483 92.6841 66.5539 92.2267C66.3929 92.0404 66.2399 91.8624 66.1073 91.7079L65.876 91.4377L65.8615 91.7934C65.8169 92.9097 66.2901 95.1585 66.7331 96.3751C66.127 96.0012 65.432 95.35 65.0101 94.4535L64.8251 94.0599L64.7463 94.488C64.6218 95.1641 64.6095 96.1079 64.5952 97.2007C64.5803 98.3473 64.5632 99.6466 64.4023 100.824C64.1189 102.895 62.872 104.158 60.2333 105.046C58.0713 105.773 55.2246 106.174 52.6174 106.116C51.4148 106.09 48.912 106.035 48.4004 105.402C48.323 105.307 48.2981 105.206 48.3211 105.084L48.3553 104.905L48.1734 104.919C46.5715 105.041 45.3899 104.557 45.0508 104.016C44.9082 103.789 44.907 103.551 45.0476 103.309L45.0834 103.247L45.0546 103.182C44.7819 102.566 45.0404 101.737 45.7825 100.849C46.4644 100.033 47.4639 99.2819 48.4563 98.8398C49.5924 98.3333 50.8026 98.3285 51.8709 98.3246C52.6405 98.3215 53.3682 98.319 53.9586 98.1266L54.0256 98.1047L54.0479 98.0381C54.5946 96.4149 54.866 94.1272 54.7934 91.7626C54.7157 89.2245 54.2507 86.8587 53.4846 85.1015L53.4772 85.0862C52.8125 83.9601 51.7501 82.827 50.6259 81.6269C48.7624 79.639 46.6501 77.3854 45.4 74.2957C44.3608 71.7283 44.3443 69.2946 44.5132 67.7053C44.6967 65.9793 45.1325 64.8472 45.1367 64.836C45.1367 64.836 44.4246 65.9053 44.2363 67.6661C44.0626 69.2894 44.0786 71.776 45.1408 74.4008C46.4106 77.5385 48.5417 79.812 50.4221 81.8181C51.5329 83.0036 52.5829 84.1236 53.2319 85.2208C54.8512 88.9433 54.8341 94.743 53.8055 97.8811C53.2667 98.0395 52.5872 98.0421 51.8696 98.0451C50.774 98.0491 49.5321 98.054 48.3427 98.5844C47.3131 99.0431 46.2758 99.8229 45.5679 100.67C44.7782 101.615 44.4977 102.521 44.7722 103.23C44.613 103.544 44.627 103.866 44.814 104.164C45.2529 104.865 46.5633 105.285 48.0343 105.208C48.0427 105.342 48.0924 105.466 48.1829 105.578C48.6754 106.186 50.3092 106.345 52.6113 106.395C52.7775 106.399 52.9446 106.401 53.1128 106.401C55.6095 106.401 58.2698 106.001 60.3224 105.31C61.6515 104.863 62.6332 104.32 63.3239 103.65C64.0794 102.916 64.5226 102.005 64.679 100.862C64.8427 99.6676 64.8596 98.3588 64.8745 97.2043C64.8859 96.3375 64.896 95.5661 64.9619 94.9573C65.5104 95.8809 66.3215 96.512 66.9469 96.8107L67.2903 96.9742L67.1347 96.6274C66.7226 95.7068 66.204 93.474 66.144 92.1794C66.2079 92.2537 66.2744 92.3308 66.3422 92.409C66.8832 93.0366 67.4963 93.7481 67.6777 93.9904L67.9073 94.2965L67.9292 93.9144C68.0132 92.4266 67.5561 89.3587 66.9951 87.9641C67.7927 88.3039 68.7946 88.1289 69.374 87.9747L69.7825 87.8657L69.3898 87.7096C68.3998 87.3165 67.3296 85.223 66.7437 83.7865Z" fill="#451800"/>
</g>
<path d="M50.7509 102.529C49.8925 102.88 48.728 103.593 48.0571 104.998L48.3094 105.118C49.5191 102.584 52.457 102.382 52.4862 102.38C52.4862 102.38 51.6776 102.151 50.7509 102.529Z" fill="#451800"/>
<path d="M48.6159 100.379C47.5535 100.74 46.0318 101.514 44.8145 103.155L45.0389 103.321C47.2814 100.298 50.6217 100.265 50.6581 100.265C50.6581 100.265 49.7681 99.9878 48.6159 100.379Z" fill="#451800"/>
<path d="M16.3492 22.2755C13.2988 23.008 11.0022 26.1402 11.0729 29.4944C11.1438 32.8489 12.3066 35.9574 15.6879 35.0732C19.0693 34.1889 21.7029 29.7708 21.8053 26.4847C21.2456 23.8909 19.3999 21.543 16.3492 22.2755Z" fill="#A55F19"/>
<path d="M16.3491 22.2755C14.232 22.7838 12.4788 24.4485 11.6274 26.5406C12.6763 25.1723 13.8164 23.8087 15.2724 23.0806C18.1906 21.8522 20.6891 24.477 21.7667 27.0064C21.7853 26.8301 21.7999 26.6557 21.8052 26.4847C21.2455 23.8909 19.3997 21.543 16.3491 22.2755Z" fill="#BB8651"/>
<path d="M16.5931 25.3127C13.6781 25.4946 14.0425 29.1384 12.9495 31.1425C12.2758 32.1046 11.6531 31.6434 11.1616 30.8063C11.4913 33.6024 12.7544 35.8403 15.6877 35.0732C18.1114 34.4391 20.1506 31.9896 21.149 29.4431C20.17 27.1385 19.1803 24.9751 16.5931 25.3127Z" fill="#864515"/>
<path d="M19.8599 31.6017C18.6827 33.3515 17.1883 34.5362 15.6522 34.9381C15.2769 35.036 14.9192 35.0859 14.5888 35.0859H14.5885C13.4687 35.0859 12.6065 34.5204 12.0255 33.4056C11.5274 32.4497 11.2461 31.0962 11.2122 29.4916C11.1436 26.2336 13.4142 23.1239 16.3815 22.4115C16.7462 22.3241 17.1044 22.2795 17.4462 22.2795C19.8788 22.2795 21.2193 24.4551 21.6646 26.4974C21.6105 28.0949 20.9366 30.0012 19.8599 31.6017ZM20.4451 23.3683C19.6327 22.4732 18.5957 22 17.4462 22C17.0824 22 16.7023 22.0468 16.3162 22.1396C14.8076 22.5021 13.4267 23.4536 12.4275 24.8193C11.4288 26.1842 10.8979 27.8457 10.9328 29.4974C11.0115 33.2264 12.344 35.3648 14.5883 35.3654H14.5888C14.9431 35.3654 15.3246 35.3124 15.7229 35.2084C19.1562 34.3105 21.8394 29.8642 21.9446 26.489L21.9451 26.4721L21.9416 26.4553C21.679 25.2387 21.1476 24.1423 20.4451 23.3683Z" fill="#451800"/>
<path d="M16.7503 25.8663C15.4607 25.9359 14.2478 27.4367 14.07 29.6124C13.8937 31.7696 14.6867 33.1354 15.7574 33.3462C16.828 33.557 18.1313 31.8519 18.7891 29.9626C19.5254 28.3515 18.7715 25.7579 16.7503 25.8663Z" fill="#8D4030"/>
<path d="M16.7501 25.8663C15.6647 25.9249 14.6363 26.9998 14.231 28.6349C14.9177 27.4 15.9988 26.5905 17.1395 27.3165C18.1369 28.0148 18.4786 29.1501 18.6139 30.4232C18.6761 30.2715 18.7348 30.1179 18.789 29.9626C19.5252 28.3515 18.7714 25.7579 16.7501 25.8663Z" fill="#5E1E0B"/>
<path d="M18.662 29.9045L18.6572 29.9168C18.0009 31.8024 16.8331 33.2242 15.941 33.2242C15.8879 33.2242 15.8353 33.2189 15.7846 33.2088C14.8694 33.0288 14.0274 31.8501 14.2095 29.6237C14.3723 27.6305 15.468 26.0754 16.7579 26.0062C16.7967 26.004 16.8348 26.0028 16.8724 26.0028C17.7026 26.0028 18.1922 26.494 18.4566 26.9055C18.9903 27.7359 19.0767 28.9976 18.662 29.9045ZM16.8724 25.7234C16.8299 25.7234 16.7868 25.7247 16.7429 25.7268C15.3141 25.8038 14.1052 27.469 13.9309 29.601C13.735 31.9992 14.6935 33.2789 15.7306 33.483C15.7991 33.4967 15.8698 33.5037 15.941 33.5037C17.0974 33.5037 18.3137 31.7496 18.9191 30.0147C19.3745 29.0114 19.2816 27.672 18.6919 26.7541C18.2648 26.0894 17.6187 25.7234 16.8724 25.7234Z" fill="#451800"/>
<path d="M45.7409 30.124C43.1544 26.4839 35.4431 23.9452 30.3659 23.8494C25.2889 23.7537 19.1456 26.0049 16.4696 29.3574C14.3685 30.7469 12.261 34.5305 11.83 39.0327C9.96197 39.4157 6.22597 40.9967 5.17231 43.8703C4.11848 46.7443 4.38992 51.2145 5.4757 53.0986C6.08231 53.4496 6.8606 53.5813 7.44739 53.5931C8.16589 55.8686 11.351 58.4788 13.8177 59.1252C16.2843 59.772 19.0384 59.2214 20.7149 58.7661C23.4209 59.1252 28.1149 63.2046 34.1497 62.3263C33.5032 62.0233 32.7929 61.3729 32.2858 60.9078C36.0177 61.9276 38.2101 60.2715 40.5626 60.836C40.0411 60.1551 39.0352 59.389 38.2211 59.1734C40.9751 59.1016 43.3939 57.808 45.4295 57.808C45.0943 57.3055 43.7531 56.2756 43.1066 56.036C44.3519 55.7727 47.3214 55.7968 48.5667 56.3233C48.3035 54.7669 47.537 51.7971 46.7467 50.7676C47.7524 50.8394 48.1355 50.9111 48.854 51.7253C49.7401 49.2348 50.5784 45.3073 49.2852 42.3375C47.992 39.368 46.7945 31.7527 45.7409 30.124Z" fill="#A55F19"/>
<path d="M48.8118 41.0474C47.1121 42.4581 44.8833 43.0083 42.463 41.891C43.3739 43.8948 45.5601 44.2595 46.8353 45.7166C47.3818 46.6275 47.9283 47.7208 47.9283 48.8137C46.2887 48.2674 44.6491 47.9027 43.0095 48.0852C44.1026 49.5426 44.8314 50.9998 45.1957 52.8217C44.6491 52.6397 44.2847 52.4575 43.7382 52.4575C44.2847 52.8217 44.467 53.1864 44.6491 53.7327C42.0986 53.7327 39.548 53.5508 36.9976 54.0969C38.6372 54.4616 40.0945 55.0079 41.552 55.9188C39.9124 56.8298 38.0905 56.6479 36.2688 56.6479C36.2688 57.194 36.8153 57.194 37.1797 57.3764C35.358 57.5587 33.5361 57.194 31.8965 56.6479C32.443 57.3764 33.1717 57.9231 33.5361 58.6517C31.1677 58.2873 28.6171 58.2873 26.4311 57.194C26.4311 58.105 27.1598 58.8339 27.5242 59.5625C24.4271 59.3802 22.4231 57.194 19.8725 55.5546C21.1477 54.826 22.7875 55.0079 23.5161 53.915C25.8637 52.3358 27.3419 50.4537 29.5281 48.996C27.8884 49.5426 25.3379 48.6318 25.5202 46.6275C23.6983 51.9108 16.411 54.0969 11.4922 51.7289C9.30596 50.6356 11.3099 48.0852 12.221 46.4456C12.4031 46.0813 12.221 45.5347 12.0387 44.9881C10.0347 46.4456 7.84846 46.8099 5.66238 47.7208C6.57323 48.6318 7.66636 49.907 7.30198 51.3645C6.93761 52.2755 6.02676 52.6397 5.11591 52.0931C5.08516 52.0779 5.05748 52.0608 5.0293 52.0442C5.15708 52.4477 5.30638 52.8046 5.47584 53.0986C6.08245 53.4496 6.86074 53.5813 7.44753 53.5931C7.56659 53.9701 7.75433 54.3562 7.99435 54.7411C10.5523 56.1475 13.3904 54.5224 16.2289 55.1902C16.7754 55.1902 17.5041 56.4654 16.9577 56.8298C14.7429 58.3932 12.4352 58 10.2341 57.1827C11.3707 58.1001 12.6718 58.8247 13.8178 59.1252C16.2844 59.772 19.0385 59.2214 20.715 58.7661C23.4211 59.1252 28.1149 63.2046 34.1501 62.3263C33.5033 62.0233 32.793 61.3729 32.286 60.9078C36.0179 61.9276 38.2103 60.2715 40.5627 60.836C40.0412 60.1551 39.0354 59.389 38.2212 59.1734C40.9753 59.1016 43.394 57.8085 45.4296 57.8085C45.0943 57.3056 43.7533 56.2756 43.1067 56.036C44.352 55.7727 47.3215 55.7963 48.5668 56.3233C48.3036 54.7669 47.5371 51.7971 46.7469 50.7677C47.7525 50.8394 48.1357 50.9111 48.8542 51.7253C49.7403 49.2348 50.5785 45.3073 49.2853 42.3375C49.1258 41.9719 48.968 41.5346 48.8118 41.0474Z" fill="#864515"/>
<path d="M30.3657 23.8494C25.2887 23.7537 19.1454 26.0049 16.4694 29.3574C15.2114 30.1893 13.9516 31.8794 13.0503 34.0683C17.7853 26.1904 28.5286 23.0198 37.3616 25.8588C40.3041 26.8705 43.1996 28.3004 45.7682 30.1708C45.7591 30.1555 45.7497 30.138 45.7407 30.124C43.1542 26.4839 35.4428 23.9452 30.3657 23.8494Z" fill="#BB8651"/>
<path d="M11.8301 39.0327C10.14 39.3795 6.92071 40.7068 5.54248 43.0849C6.05394 43.4361 6.45846 43.8278 6.57325 43.7128C8.82014 39.1692 13.8606 40.4335 17.322 38.6119C18.2329 38.2472 18.7794 37.7011 19.5081 36.972C17.0779 38.0658 14.4855 38.671 11.8392 38.9544C11.8364 38.9806 11.8327 39.0064 11.8301 39.0327Z" fill="#BB8651"/>
<path d="M48.7994 51.4581C48.1588 50.7847 47.7384 50.6981 46.7567 50.6281L46.4466 50.6059L46.6359 50.8526C47.3558 51.7906 48.0809 54.4459 48.3865 56.1077C47.6662 55.8708 46.5045 55.7321 45.1999 55.7321C44.3542 55.7321 43.5806 55.7929 43.0776 55.8996L42.6051 55.9992L43.0581 56.1672C43.5859 56.3628 44.6625 57.1564 45.1432 57.6764C44.238 57.7258 43.2648 57.9952 42.2402 58.2786C40.9653 58.6315 39.6473 58.9962 38.2175 59.0338L37.2433 59.0593L38.1852 59.3085C38.8701 59.4896 39.6757 60.0711 40.1971 60.6239C39.9707 60.5916 39.7362 60.5754 39.4888 60.5754C38.8202 60.5754 38.147 60.6925 37.4345 60.8167C36.6114 60.9597 35.7605 61.1077 34.7842 61.1077C33.9521 61.1077 33.147 60.9983 32.3228 60.773L31.7669 60.6213L32.1914 61.011C32.5889 61.3757 33.1516 61.8921 33.7082 62.2416C33.2871 62.287 32.8609 62.3103 32.4362 62.3103C29.1719 62.3103 26.3613 60.9794 24.1029 59.9098C22.7884 59.2875 21.6531 58.7496 20.7332 58.6276L20.7053 58.624L20.6782 58.6315C19.0897 59.0627 17.6135 59.2808 16.2906 59.2808C15.4094 59.2808 14.5894 59.1835 13.8531 58.9901C11.3006 58.3209 8.2522 55.6779 7.58068 53.5511L7.55061 53.4558L7.45034 53.4536C6.76327 53.4397 6.06698 53.2691 5.57807 52.9958C5.07499 52.1001 4.73299 50.5546 4.66141 48.8496C4.58522 47.0364 4.81926 45.239 5.30355 43.9183C6.29384 41.2176 9.7659 39.599 11.858 39.1695L11.9592 39.149L11.9691 39.0462C12.1708 36.9388 12.7516 34.8795 13.6485 33.0904C14.4705 31.4505 15.4999 30.1661 16.5467 29.4742L16.5652 29.4619L16.579 29.4448C19.0627 26.3329 24.8549 23.9864 30.0522 23.9864C30.1564 23.9864 30.2602 23.9872 30.3634 23.9893C32.9072 24.0369 36.1126 24.7097 38.9376 25.7881C42.0784 26.9871 44.4532 28.5545 45.6251 30.2023C46.1557 31.0253 46.7336 33.4434 47.3452 36.0025C47.9262 38.4327 48.5266 40.9454 49.1571 42.3934C50.5243 45.5325 49.4257 49.6281 48.7994 51.4581ZM47.617 35.9378C46.9989 33.3515 46.4152 30.909 45.8581 30.048L45.8547 30.0432C43.2909 26.4343 35.6356 23.8092 30.3687 23.71C27.7892 23.6604 24.9145 24.2098 22.3121 25.2406C19.7419 26.2591 17.6342 27.6834 16.3742 29.2533C15.2935 29.9746 14.2375 31.2916 13.3985 32.9649C12.501 34.7557 11.9147 36.8116 11.701 38.9172C9.53836 39.3895 6.05485 41.0575 5.04116 43.8222C3.93027 46.8519 4.29755 51.3339 5.35463 53.1681L5.37325 53.2004L5.40571 53.2192C6.10593 53.6246 6.93615 53.7125 7.34528 53.73C7.71461 54.8072 8.61299 55.9914 9.88634 57.0763C11.139 58.1438 12.5589 58.9399 13.7822 59.2608C14.5415 59.4597 15.3856 59.5603 16.2906 59.5603C16.2906 59.5603 16.2906 59.5603 16.2908 59.5603C17.6306 59.5603 19.1221 59.3413 20.724 58.9083C21.5964 59.0321 22.7035 59.5564 23.9832 60.1625C26.267 61.244 29.109 62.5896 32.4362 62.5896C33.0167 62.5896 33.6001 62.5477 34.1699 62.465L34.6307 62.3977L34.2092 62.1999C33.7389 61.9796 33.2196 61.5568 32.7881 61.1744C33.4516 61.3174 34.1091 61.387 34.7842 61.387C35.7846 61.387 36.6476 61.237 37.4823 61.0918C38.1827 60.9698 38.8443 60.8548 39.4888 60.8548C39.8617 60.8548 40.2022 60.8933 40.53 60.972L40.913 61.0639L40.6735 60.7511C40.2845 60.2434 39.5826 59.6329 38.8663 59.2748C40.0958 59.1619 41.2649 58.8387 42.3146 58.548C43.4295 58.2396 44.4824 57.948 45.4295 57.948H45.6907L45.5458 57.7306C45.2508 57.2885 44.2728 56.503 43.5631 56.1021C44.0154 56.0438 44.5872 56.0115 45.1999 56.0115C46.6217 56.0115 47.86 56.1759 48.5121 56.4523L48.747 56.5515L48.7044 56.3001C48.4434 54.7573 47.7512 52.1172 47.0254 50.9294C47.7927 50.9972 48.132 51.1184 48.7495 51.8176L48.9062 51.9956L48.9858 51.7721C49.6023 50.0391 50.878 45.6454 49.4134 42.282C48.7929 40.8568 48.195 38.3562 47.617 35.9378Z" fill="#451800"/>
<path d="M19.554 53.7453C17.1592 54.3672 15.0345 54.3786 13.6737 54.2788C12.0312 54.1582 10.5996 53.8039 9.84456 53.3313C8.46154 52.4653 8.54371 50.6973 8.54491 50.6797C8.54491 50.6797 8.1708 52.6131 9.69628 53.5682C10.4882 54.0638 11.9674 54.4336 13.6532 54.5575C14.0356 54.5855 14.4776 54.6046 14.9682 54.6046C16.2502 54.6046 17.8656 54.4726 19.6243 54.0161C22.8939 53.1673 25.1377 51.4463 26.4835 48.7543L26.2336 48.6296C24.9259 51.2448 22.741 52.9184 19.554 53.7453Z" fill="#451800"/>
<path d="M25.5001 46.8051L25.3608 46.792L25.5001 46.8055C25.5001 46.8055 25.1157 48.0129 26.3175 48.8084C27.0469 49.2912 27.6855 49.387 28.0775 49.387C28.322 49.387 28.4706 49.3498 28.4858 49.3459C28.4858 49.3459 27.5452 49.2861 26.4719 48.5754C25.4145 47.8752 25.496 46.8489 25.5001 46.8051Z" fill="#451800"/>
<path d="M7.39 53.4524L7.36182 53.7305C7.45184 53.7397 7.5499 53.744 7.65342 53.744C8.21322 53.744 8.93462 53.6046 9.45035 53.2634L9.29609 53.0303C8.7421 53.3969 7.91957 53.5057 7.39 53.4524Z" fill="#451800"/>
<path d="M14.9119 32.8791C14.1708 33.8474 13.0271 36.2832 13.1822 38.7658C14.8946 38.4098 16.2937 38.2966 17.2421 37.9279C18.1682 36.5347 18.0189 34.119 18.0189 34.119C17.7635 31.4093 16.3489 31.0017 14.9119 32.8791Z" fill="#864515"/>
<path d="M14.56 33.9077C13.8187 34.7066 13.0271 36.718 13.1822 38.7658C14.8946 38.472 16.2937 38.3789 17.2421 38.0748C18.1682 36.9252 18.0085 35.1052 18.0085 35.1052C17.7531 32.8699 15.9968 32.3591 14.56 33.9077Z" fill="white"/>
<path d="M14.5599 33.9077C13.8187 34.7066 13.0273 36.718 13.1822 38.7658C13.1998 38.7628 13.2169 38.7602 13.2345 38.7571C13.7037 36.3768 14.9706 33.0636 17.3217 34.2396C17.5761 34.3486 17.778 34.5174 17.9469 34.7251C17.5446 32.8171 15.9112 32.4514 14.5599 33.9077Z" fill="#C4C2C2"/>
<path d="M17.1591 37.9542C16.5733 38.1362 15.8 38.2429 14.9077 38.3658C14.4252 38.4322 13.8831 38.507 13.3117 38.6024C13.2029 36.5526 14.0253 34.6892 14.6623 34.0027C15.1693 33.4564 15.7407 33.1555 16.2713 33.1555C17.1186 33.1555 17.731 33.9085 17.8692 35.1173C17.8707 35.1349 18.011 36.8592 17.1591 37.9542ZM16.4033 32.5875C15.7942 32.5875 15.0179 33.2088 14.4574 33.8129C13.6438 34.6897 12.8922 36.7861 13.0428 38.7764L13.0544 38.9295L13.2058 38.9037C13.8291 38.7964 14.4224 38.7148 14.946 38.6425C15.8717 38.5149 16.6712 38.4047 17.2846 38.2079L17.3246 38.1951L17.3509 38.1623C18.3012 36.9829 18.1543 35.1694 18.1473 35.0893C17.9912 33.724 17.4044 32.5875 16.4033 32.5875Z" fill="#2E1400"/>
<path d="M16.4676 35.0304C15.7821 34.8785 15.0291 35.6474 14.7856 36.7472C14.6358 37.4247 14.7144 38.0689 14.9566 38.5C15.7254 38.3941 16.3921 38.3005 16.9387 38.1606C17.0824 37.9105 17.1972 37.6179 17.2683 37.2966C17.5117 36.1966 17.1533 35.1817 16.4676 35.0304Z" fill="#0C40B6"/>
<path d="M14.7856 36.7472C14.6358 37.4247 14.7144 38.0689 14.9566 38.5C15.7254 38.3941 16.3921 38.3005 16.9387 38.1606C17.0824 37.9105 17.1972 37.6179 17.2683 37.2966C17.5117 36.1966 15.0291 35.6474 14.7856 36.7472Z" fill="#0C9FFF"/>
<path d="M16.4831 36.3813C16.1135 36.3042 15.7269 36.6585 15.6196 37.1724C15.5123 37.6866 15.725 38.1659 16.0948 38.2429C16.4643 38.3203 16.8509 37.9655 16.9582 37.4517C17.0655 36.9375 16.8528 36.4581 16.4831 36.3813Z" fill="#000713"/>
<path d="M16.2149 36.198C16.0051 36.1542 15.7921 36.3247 15.7391 36.5789C15.686 36.8329 15.8131 37.0748 16.0229 37.1186C16.2326 37.1623 16.4458 36.9916 16.4988 36.7371C16.5518 36.4831 16.4247 36.2417 16.2149 36.198Z" fill="white"/>
<path d="M16.5857 37.788C16.5072 37.7718 16.4276 37.8357 16.4078 37.9307C16.388 38.0255 16.4355 38.1157 16.5139 38.1322C16.5923 38.1485 16.6719 38.0849 16.6917 37.9896C16.7116 37.8948 16.6641 37.8046 16.5857 37.788Z" fill="white"/>
<path d="M17.1323 37.2663C17.0704 37.5453 16.9744 37.8051 16.8466 38.04C16.3304 38.1668 15.7018 38.2559 15.0355 38.3482C14.8374 37.9341 14.7945 37.3555 14.9224 36.7774C15.1276 35.8503 15.7166 35.1506 16.2926 35.1506C16.3415 35.1506 16.3904 35.1558 16.4377 35.1667C16.7204 35.2294 16.9503 35.4733 17.0849 35.8543C17.2276 36.2579 17.2443 36.7595 17.1323 37.2663ZM16.4981 34.8934C16.431 34.8785 16.3618 34.8712 16.2926 34.8712C15.5772 34.8712 14.8861 35.6474 14.6495 36.7171C14.4983 37.4006 14.5676 38.0928 14.8351 38.5687L14.8818 38.6514L14.9761 38.6386C15.7118 38.5371 16.4068 38.4409 16.9737 38.2962L17.0308 38.2814L17.0603 38.2301C17.2166 37.9582 17.3326 37.6538 17.4051 37.3266C17.5284 36.7696 17.5082 36.2133 17.3484 35.7612C17.1806 35.2858 16.8786 34.9779 16.4981 34.8934Z" fill="#0C1B40"/>
<path d="M17.1997 37.9416C16.6093 38.1309 15.8209 38.2399 14.908 38.3658C13.9924 38.4922 12.9545 38.6352 11.7993 38.8967L11.8608 39.1692C13.0045 38.9107 14.036 38.7681 14.9461 38.6425C15.872 38.5149 16.6715 38.4047 17.2849 38.2079C19.3497 37.5458 19.5648 36.6467 19.5648 36.6467C19.5607 36.6532 19.1381 37.3205 17.1997 37.9416Z" fill="#451800"/>
<path d="M18.0193 29.9163C17.1785 29.8048 15.9971 30.1879 15.0391 31.6569C16.3483 30.6987 18.2802 30.3794 19.1582 31.4649C19.1902 30.7469 18.86 30.0282 18.0193 29.9163Z" fill="#5B3C19"/>
<path d="M17.5347 30.6432C16.9136 30.6432 16.2274 30.8255 15.6008 31.147C16.2325 30.4349 16.9871 30.0379 17.7404 30.0379C17.8285 30.0379 17.9162 30.0436 18.0007 30.055C18.6436 30.1403 18.9314 30.6107 19.0023 31.1111C18.627 30.8036 18.127 30.6432 17.5347 30.6432ZM18.0375 29.7778C17.9408 29.765 17.8408 29.7585 17.7404 29.7585C16.7043 29.7585 15.677 30.4223 14.9219 31.5803L14.5039 32.2215L15.1214 31.7693C15.8463 31.2392 16.7484 30.9227 17.5347 30.9227C17.9931 30.9227 18.628 31.032 19.0494 31.5528L19.2813 31.8397L19.2977 31.4714C19.3288 30.7716 19.0175 29.9079 18.0375 29.7778Z" fill="#1D0D00"/>
<path d="M31.0444 33.5037C28.8369 33.5037 27.0474 36.3707 27.0474 39.9076C27.0474 43.4448 28.8369 45.0677 31.0444 45.0677C33.2518 45.0677 35.0412 43.4448 35.0412 39.9076C35.0412 36.3707 33.2518 33.5037 31.0444 33.5037Z" fill="#864515"/>
<path d="M31.0444 35.2258C28.8369 35.2258 27.0474 37.6661 27.0474 40.676C27.0474 43.6865 28.8369 45.0677 31.0444 45.0677C33.2518 45.0677 35.0412 43.6865 35.0412 40.676C35.0412 37.6661 33.2518 35.2258 31.0444 35.2258Z" fill="white"/>
<path d="M31.0444 35.2258C28.8369 35.2258 27.0474 37.6661 27.0474 40.676C27.0474 41.2411 27.1104 41.7488 27.2274 42.2007C27.2091 39.2718 29.0923 36.2255 32.0782 36.972C33.7694 37.289 34.6013 38.772 35.0378 40.4946C34.9674 37.5685 33.2071 35.2258 31.0444 35.2258Z" fill="#C4C2C2"/>
<path d="M34.9016 40.676C34.9016 43.3385 33.4596 44.9281 31.0445 44.9281C28.6291 44.9281 27.1872 43.3385 27.1872 40.676C27.1872 37.7479 28.9175 35.3654 31.0445 35.3654C33.1713 35.3654 34.9016 37.7479 34.9016 40.676ZM31.0445 34.6161C28.7634 34.6161 26.9077 37.5938 26.9077 40.676C26.9077 42.125 27.3268 43.3088 28.1194 44.0999C28.8459 44.8246 29.8572 45.2076 31.0445 45.2076C32.2315 45.2076 33.243 44.8246 33.9694 44.0999C34.7622 43.3088 35.1811 42.125 35.1811 40.676C35.1811 37.5938 33.3254 34.6161 31.0445 34.6161Z" fill="#2E1400"/>
<path d="M31.8484 38.1544C30.7703 38.1544 29.8965 39.3702 29.8965 40.8694C29.8965 42.3686 30.7703 43.5842 31.8484 43.5842C32.9263 43.5842 33.8002 42.3686 33.8002 40.8694C33.8002 39.3702 32.9263 38.1544 31.8484 38.1544Z" fill="#0C40B6"/>
<path d="M29.8965 40.8694C29.8965 42.3686 30.7703 43.5842 31.8484 43.5842C32.9263 43.5842 33.8002 42.3686 33.8002 40.8694C33.8002 39.3702 29.8965 39.3702 29.8965 40.8694Z" fill="#0C9FFF"/>
<path d="M31.8482 39.5684C31.3315 39.5684 30.9126 40.1509 30.9126 40.8694C30.9126 41.5879 31.3315 42.1704 31.8482 42.1704C32.3648 42.1704 32.7837 41.5879 32.7837 40.8694C32.7837 40.1509 32.3648 39.5684 31.8482 39.5684Z" fill="#000713"/>
<path d="M31.4382 39.3974C31.145 39.3974 30.9072 39.6856 30.9072 40.0407C30.9072 40.3962 31.145 40.6839 31.4382 40.6839C31.7315 40.6839 31.9691 40.3962 31.9691 40.0407C31.9691 39.6856 31.7315 39.3974 31.4382 39.3974Z" fill="white"/>
<path d="M32.379 41.4244C32.2695 41.4244 32.1807 41.5319 32.1807 41.6644C32.1807 41.7973 32.2695 41.905 32.379 41.905C32.4885 41.905 32.5773 41.7973 32.5773 41.6644C32.5773 41.5319 32.4885 41.4244 32.379 41.4244Z" fill="white"/>
<path d="M31.848 43.4443C30.8488 43.4443 30.0358 42.2893 30.0358 40.8694C30.0358 39.4495 30.8488 38.2945 31.848 38.2945C32.8471 38.2945 33.6601 39.4495 33.6601 40.8694C33.6601 42.2893 32.8471 43.4443 31.848 43.4443ZM31.848 38.0151C30.6945 38.0151 29.7563 39.2954 29.7563 40.8694C29.7563 42.4432 30.6945 43.7238 31.848 43.7238C33.0012 43.7238 33.9396 42.4432 33.9396 40.8694C33.9396 39.2954 33.0012 38.0151 31.848 38.0151Z" fill="#0C1B40"/>
<path d="M32.2497 29.629C30.9564 29.4694 29.4237 30.4271 28.8809 31.4811C30.4456 30.491 33.4471 30.491 35.6185 33.4927C35.0436 30.8745 33.5429 29.7887 32.2497 29.629Z" fill="#5B3C19"/>
<path d="M31.0567 30.7508C30.4317 30.7508 29.8225 30.875 29.2929 31.1058C29.9158 30.3283 31.0115 29.7515 31.9596 29.7515C32.0523 29.7515 32.1442 29.7568 32.2327 29.7677C32.7756 29.835 34.5071 30.2569 35.3136 32.8791C33.7396 31.0421 31.9997 30.7508 31.0567 30.7508ZM32.2669 29.4904C32.1671 29.4781 32.0638 29.4716 31.9596 29.4716C30.746 29.4716 29.3093 30.3444 28.7567 31.4172L28.5215 31.8738L28.9557 31.5991C29.5355 31.2322 30.2817 31.0301 31.0567 31.0301C32.0308 31.0301 33.9037 31.3608 35.5052 33.5746L35.899 34.119L35.755 33.4625C35.0134 30.0847 32.8977 29.5682 32.2669 29.4904Z" fill="#1D0D00"/>
<path d="M46.0283 28.0686C42.0688 28.4793 41.1747 31.4811 40.4723 32.5026C39.4185 34.0355 38.2051 34.3447 38.2051 34.3447L45.0942 43.8703C45.0942 43.8703 48.9499 44.6845 51.8239 42.3375C54.6976 39.9909 55.3508 35.1335 54.1386 32.5026C52.6378 29.246 49.9875 27.6576 46.0283 28.0686Z" fill="#A55F19"/>
<path d="M46.028 28.0686C42.0685 28.4793 41.1744 31.4811 40.472 32.5026C40.0219 33.1572 39.5435 33.5872 39.1421 33.867C39.665 33.8146 40.2764 33.4953 40.2764 33.3282C43.0091 29.3206 47.0171 28.0451 51.2074 29.3206C52.3081 29.7209 53.0245 30.6715 53.7181 31.6883C52.1639 28.9844 49.6415 27.6935 46.028 28.0686Z" fill="#BB8651"/>
<path d="M54.1221 36.2434C53.7579 37.1544 52.6646 38.9763 52.3002 38.0653C51.5716 36.2434 52.4826 32.964 50.1141 32.053C48.8389 31.5069 47.3814 31.6888 46.6526 32.7821C45.0318 34.9923 43.649 38.273 41.0591 38.2915L45.0939 43.8703C45.0939 43.8703 48.9496 44.6845 51.8236 42.3375C54.2381 40.3656 55.0847 36.6213 54.5743 33.9147C54.5538 34.7075 54.4374 35.4865 54.1221 36.2434Z" fill="#864515"/>
<path d="M46.0136 27.9296C42.6352 28.2803 41.44 30.4761 40.726 31.7881C40.588 32.0417 40.4687 32.2607 40.3568 32.4239C39.3491 33.8894 38.2393 34.4801 38.2393 34.4801C38.2908 34.467 39.5158 34.14 40.5871 32.5822C40.7072 32.4073 40.8299 32.182 40.9716 31.9215C41.6592 30.658 42.8104 28.5432 46.0423 28.2077C49.8184 27.8155 52.4997 29.2805 54.0116 32.5612C54.6045 33.8482 54.741 35.6942 54.3763 37.499C53.9748 39.4866 53.0367 41.1663 51.7348 42.2294C48.9482 44.5053 45.065 44.0072 45.065 44.0072C45.0978 44.0142 45.7408 44.1471 46.6969 44.1471C46.9132 44.1471 47.1457 44.1401 47.3905 44.1235C48.618 44.0403 50.3987 43.6814 51.9119 42.446C53.2632 41.3421 54.2359 39.6051 54.6499 37.5545C55.0261 35.6934 54.8823 33.7832 54.2651 32.4444C52.6982 29.043 49.9216 27.5242 46.0136 27.9296Z" fill="#451800"/>
<path d="M48.0075 33.4927C46.028 34.2589 46.4111 37.069 43.9844 38.3461C44.9424 39.5277 45.8044 40.2619 47.7829 40.1465C49.7618 40.031 51.2647 38.7658 51.552 36.494C51.7755 34.7285 49.9872 32.7266 48.0075 33.4927Z" fill="#8D4030"/>
<path d="M48.0075 33.4927C46.028 34.2589 46.4111 37.069 43.9844 38.3461C44.6308 39.1434 45.2347 39.7355 46.166 40.0021C47.158 39.7131 48.0373 39.0974 48.6565 38.0653C47.7456 38.2472 47.1993 39.3405 46.1062 38.9763C46.835 38.6119 47.1993 38.0653 47.5635 37.5186C46.835 37.883 46.4706 38.6119 45.5597 38.4297C45.9239 38.2472 46.2883 38.0653 46.4706 37.883C47.5635 36.6078 47.7456 34.2396 49.9317 34.9682C50.8427 35.3326 51.5717 36.0611 51.2075 36.972C51.0435 37.4631 50.9524 38.0639 50.771 38.5936C51.1724 38.0361 51.4458 37.3345 51.552 36.494C51.7755 34.7285 49.9872 32.7266 48.0075 33.4927Z" fill="#5E1E0B"/>
<path d="M51.4139 36.4766C51.1488 38.5699 49.7888 39.8897 47.7753 40.0071C47.6427 40.0149 47.5129 40.0189 47.3892 40.0189C45.869 40.0189 45.0991 39.4695 44.1994 38.3876C45.3822 37.7031 45.8851 36.6423 46.3309 35.7024C46.7705 34.7753 47.1502 33.9747 48.0587 33.6231C48.3308 33.5177 48.6084 33.4642 48.884 33.4642C49.557 33.4642 50.2024 33.7765 50.7019 34.3433C51.2398 34.953 51.5056 35.7506 51.4139 36.4766ZM48.884 33.1849C48.5739 33.1849 48.2621 33.2447 47.9577 33.3624C46.9454 33.7543 46.5243 34.6424 46.0785 35.5827C45.6112 36.568 45.128 37.5865 43.9197 38.2228L43.769 38.3019L43.8763 38.4344C44.8565 39.6432 45.7066 40.2983 47.3892 40.2983C47.5184 40.2983 47.6537 40.2942 47.7915 40.286C49.9501 40.1601 51.4081 38.7493 51.6912 36.512C51.793 35.7074 51.5017 34.8274 50.9118 34.1588C50.3582 33.5308 49.6383 33.1849 48.884 33.1849Z" fill="#451800"/>
<path d="M39.8311 38.2845C39.8311 38.2845 40.4787 38.9032 41.6714 38.9032C42.3279 38.9032 43.1263 38.7986 44.0312 38.4782L43.9379 38.2144C41.5067 39.0764 39.8475 38.2927 39.8311 38.2845Z" fill="#451800"/>
<path d="M8.06977 41.4755C4.54936 41.4273 3.75911 44.4448 4.28595 46.3132C4.81278 48.181 6.60885 49.474 7.90219 49.8577C8.90802 49.6419 11.8056 48.3489 12.2846 46.0976C12.7636 43.8462 11.5902 41.5232 8.06977 41.4755Z" fill="#6C0000"/>
<path d="M8.13315 42.1463C7.09555 42.1463 6.25439 42.2775 6.25439 42.4398C6.25439 42.6021 7.09555 42.7337 8.13315 42.7337C9.17076 42.7337 10.0119 42.6021 10.0119 42.4398C10.0119 42.2775 9.17076 42.1463 8.13315 42.1463Z" fill="#CC8E8E"/>
<path d="M4.70801 47.3064C5.4728 48.6361 6.85309 49.5466 7.90248 49.8577C8.73492 49.6792 10.8624 48.7616 11.8428 47.1747C9.41959 48.5609 6.74341 49.1697 4.70801 47.3064Z" fill="#3A0000"/>
<path d="M12.1482 46.0682C11.6883 48.2307 8.91697 49.482 7.90772 49.7133C6.78641 49.3677 4.95822 48.181 4.42063 46.2751C4.17498 45.404 4.17856 44.0027 4.99734 42.9212C5.64443 42.0664 6.67828 41.6146 7.9875 41.6146C8.01432 41.6146 8.04097 41.6151 8.06813 41.6151C9.62676 41.6364 10.8275 42.1197 11.5404 43.0123C12.181 43.8146 12.3969 44.9001 12.1482 46.0682ZM8.07189 41.3356C8.04353 41.3351 8.01551 41.3351 7.9875 41.3351C6.5874 41.3351 5.47651 41.8254 4.77458 42.7524C3.89379 43.9158 3.8885 45.4179 4.15157 46.3511C4.66508 48.1712 6.40718 49.5602 7.86262 49.9914L7.89679 50.0015L7.93164 49.994C8.95763 49.7741 11.9275 48.4494 12.4217 46.1264C12.688 44.8748 12.4526 43.7067 11.7587 42.8377C10.992 41.8775 9.71712 41.3583 8.07189 41.3356Z" fill="#270000"/>
<path d="M5.61187 45.2592C4.90892 45.4747 4.46835 46.0192 4.22168 46.0463C4.28625 46.3132 4.56658 46.792 4.56658 46.792C5.33991 46.9594 6.29791 46.8878 6.65716 46.3372C7.01624 45.7862 6.31483 45.0436 5.61187 45.2592Z" fill="#360000"/>
<path d="M6.53986 46.2607C6.3446 46.5602 5.89293 46.732 5.30067 46.732H5.3005C5.09073 46.732 4.86934 46.7098 4.65648 46.6678C4.58457 46.54 4.46345 46.3115 4.39597 46.1338C4.49044 46.0861 4.59379 46.0093 4.71901 45.9165C4.96261 45.7363 5.26565 45.5115 5.65275 45.3931C5.72211 45.3716 5.79368 45.3606 5.8656 45.3606C6.14251 45.3606 6.41583 45.5224 6.54601 45.7626C6.59999 45.8622 6.67105 46.0595 6.53986 46.2607ZM5.8656 45.0812C5.76601 45.0812 5.66676 45.0965 5.57075 45.1257C5.13771 45.2583 4.79947 45.5089 4.55262 45.6922C4.41442 45.7945 4.27144 45.9003 4.20636 45.9078L4.04834 45.9247L4.08575 46.0791C4.15425 46.3625 4.4339 46.8422 4.44585 46.8629L4.47695 46.9157L4.53691 46.9285C4.78717 46.9826 5.0511 47.0115 5.3005 47.0115H5.30067C5.99919 47.0115 6.52243 46.799 6.77406 46.4133C6.92763 46.178 6.93412 45.8919 6.79165 45.6292C6.61417 45.3015 6.24193 45.0812 5.8656 45.0812Z" fill="#270000"/>
<path d="M9.21949 44.8521C8.23757 44.9242 7.92633 46.0258 8.66874 46.5926C9.41116 47.1593 10.9199 47.0076 12.136 46.5926C12.136 46.5926 12.2848 46.0976 12.3347 45.8237C10.848 45.9059 10.2014 44.7803 9.21949 44.8521Z" fill="#360000"/>
<path d="M12.0227 46.4833C11.358 46.7028 10.6722 46.8231 10.084 46.8231C9.50645 46.8231 9.04641 46.705 8.75361 46.4814C8.45637 46.2546 8.33235 45.9095 8.43023 45.581C8.53 45.246 8.83646 45.0203 9.22988 44.9915C9.2567 44.9894 9.28352 44.9886 9.30982 44.9886C9.67813 44.9886 10.0056 45.1739 10.385 45.3881C10.862 45.6575 11.4019 45.9628 12.1611 45.9676C12.1167 46.1557 12.0545 46.3743 12.0227 46.4833ZM12.1806 45.6883C11.4846 45.6883 10.9955 45.4119 10.5225 45.1445C10.0963 44.904 9.69419 44.6775 9.20938 44.713C8.69741 44.7501 8.29614 45.0523 8.16238 45.5011C8.0305 45.9437 8.1921 46.4046 8.58398 46.7037C8.93076 46.9683 9.43538 47.1026 10.084 47.1026C10.7224 47.1026 11.4672 46.9686 12.1813 46.725L12.2492 46.7015L12.2701 46.6328C12.2762 46.6123 12.4216 46.1268 12.4722 45.8487L12.504 45.6746L12.327 45.6842C12.2779 45.6869 12.2287 45.6883 12.1806 45.6883Z" fill="#270000"/>
</svg>
