<svg width="128" height="128" viewBox="0 0 128 128" fill="none" xmlns="http://www.w3.org/2000/svg">
<mask id="mask0_25_100" style="mask-type:alpha" maskUnits="userSpaceOnUse" x="25" y="109" width="60" height="10">
<path d="M25.6885 109.305H84.0812V118.153H25.6885V109.305Z" fill="black"/>
</mask>
<g mask="url(#mask0_25_100)">
<path d="M54.0777 118.153C33.8244 118.153 23.213 116.234 26.2301 112.605C27.4741 111.108 36.8453 109.322 52.0154 109.322C55.69 109.322 59.7053 109.427 64.0279 109.666C87.0711 110.941 93.2986 117.137 66.2716 117.955C61.894 118.088 57.8213 118.153 54.0777 118.153ZM44.3838 110.086C34.2006 110.086 27.753 111.63 27.0002 112.891C25.9355 114.674 34.2899 117.069 49.4912 117.069C50.7512 117.07 52.056 117.053 53.4084 117.018C71.0802 116.566 67.0049 111.376 51.9422 110.351C49.2433 110.167 46.715 110.086 44.3838 110.086Z" fill="#CDCCCA"/>
</g>
<path d="M49.4914 117.069C34.2901 117.069 25.9357 114.674 27.0004 112.89C27.7533 111.63 34.2008 110.086 44.384 110.086C46.7152 110.086 49.2435 110.167 51.9424 110.351C67.0051 111.376 71.0805 116.566 53.4086 117.018C52.0562 117.053 50.7515 117.07 49.4914 117.069Z" fill="#9F9F9E"/>
<path d="M38.0492 45.3063C33.2155 35.4781 21.2537 26.9295 14.0232 35.2791C6.79286 43.6292 16.5221 49.6155 24.0595 55.8665" fill="#61C671"/>
<path d="M52.5124 38.2797C52.3057 20.3093 48.7711 11.5973 38.8358 15.8173C29.9466 19.593 33.9189 33.3005 39.3646 39.2004" fill="#61C671"/>
<path d="M58.9722 42.1239C62.5876 31.2647 61.4623 11.0623 75.1781 13.2263C88.894 15.3907 75.6779 36.7476 72.4537 42.9221" fill="#61C671"/>
<path d="M89.2012 61.6479C104.984 50.2105 122.437 47.4406 121.563 62.0247C120.771 75.2352 102.603 70.3556 94.0891 74.9284" fill="#61C671"/>
<path d="M76.4492 47.3905C86.0347 29.3847 101.123 17.3046 106.932 29.364C112.194 40.2871 92.9598 46.7054 87.063 55.1522" fill="#61C671"/>
<path d="M76.1313 63.993C88.2692 50.9562 104.012 27.8764 114.713 40.2696C125.435 52.688 88.6885 62.7402 78.5422 71.9208" fill="#4BBF6B"/>
<path d="M77.8789 77.145C96.7351 67.3392 120.368 65.3016 117.431 79.7802C114.494 94.2583 87.5348 78.4687 77.9038 81.109" fill="#4BBF6B"/>
<path d="M63.0713 62.4884C68.0438 39.9801 79.4479 14.2557 90.7715 19.6821C104.496 26.2592 76.7793 48.4541 66.2215 62.9196" fill="#4BBF6B"/>
<path d="M56.3513 61.3869C60.0895 40.8794 73.0651 9.60709 56.4532 12.3046C42.1364 14.6292 52.4837 46.8016 51.6695 63.3928" fill="#4BBF6B"/>
<path d="M41.7244 70.6161C33.3381 55.7316 16.1202 36.5121 8.46404 48.2684C-0.623529 62.2242 24.3585 66.2551 35.6915 72.5752" fill="#4BBF6B"/>
<path d="M46.0782 61.04C44.9847 43.0331 38.3567 16.7059 27.5642 24.0539C14.7539 32.7753 33.588 48.5861 40.3971 59.9737" fill="#3EB950"/>
<path d="M95.784 76.4865C91.4515 76.4167 81.418 78.5661 81.418 78.5661C86.2372 77.1474 93.5435 77.509 95.5284 77.7366" fill="#64C661"/>
<path d="M94.0388 77.1306C94.4323 72.5183 106.948 69.1244 105.683 77.666C104.419 86.2069 93.6865 81.2534 94.0388 77.1306Z" fill="#F6809E"/>
<path d="M103.129 76.9342C103.765 72.1066 95.9469 73.064 95.5337 77.1102C95.1207 81.1559 102.336 82.9548 103.129 76.9342Z" fill="#76D2E5"/>
<path d="M102.549 76.9634C102.041 80.2774 98.7784 80.4938 98.1796 79.1091C97.5806 77.7251 98.9634 77.4696 98.9955 76.8997C99.029 76.3302 97.9158 75.8513 98.7772 74.6599C99.7874 73.2638 102.986 74.1142 102.549 76.9634Z" fill="#4274C3"/>
<path d="M89.9429 55.8306C85.3587 59.4456 76.3154 69.7409 76.3154 69.7409C80.396 64.4747 88.2927 58.5807 90.5257 57.0867" fill="#64C661"/>
<path d="M88.5541 57.8459C85.8278 53.6758 97.4541 39.2645 101.942 47.4418C106.431 55.6186 90.9903 61.5735 88.5541 57.8459Z" fill="#F6809E"/>
<path d="M97.9382 49.9754C95.3196 45.4208 87.7848 52.8457 90.1053 56.5619C92.4258 60.2771 101.205 55.6565 97.9382 49.9754Z" fill="#76D2E5"/>
<path d="M97.3511 50.4915C99.0737 53.6795 95.8053 56.6258 94.2358 55.9812C92.6669 55.3373 93.9402 53.9533 93.5871 53.4512C93.2344 52.9493 91.742 53.4949 91.8342 51.7734C91.9415 49.7558 95.8697 47.7512 97.3511 50.4915Z" fill="#4274C3"/>
<path d="M75.0927 42.8409C71.9341 47.7177 66.7217 60.0004 66.7217 60.0004C68.8742 53.9359 74.4214 45.8143 76.0458 43.6632" fill="#64C661"/>
<path d="M74.4314 45.0919C70.5202 42.6786 75.9996 26.6558 82.8607 31.7326C89.7223 36.8086 77.927 47.2503 74.4314 45.0919Z" fill="#F6809E"/>
<path d="M80.7449 34.7125C76.8113 31.9321 72.0979 41.1959 75.4805 43.3907C78.8627 45.5841 85.6518 38.1805 80.7449 34.7125Z" fill="#76D2E5"/>
<path d="M80.358 35.3814C83.0076 37.3721 80.8744 41.1592 79.1874 41.246C77.5008 41.334 78.2565 39.6595 77.7621 39.3793C77.268 39.0988 76.0369 40.1548 75.5697 38.671C75.0226 36.9319 78.0805 33.6713 80.358 35.3814Z" fill="#4274C3"/>
<path d="M57.142 38.5478C57.316 43.8958 55.4141 56.3353 55.4141 56.3353C56.7132 50.3507 56.1766 41.339 55.9021 38.8941" fill="#64C661"/>
<path d="M56.4972 40.7175C61.0768 40.3345 64.7309 24.5526 56.2367 25.9271C47.7432 27.3009 52.4036 41.0607 56.4972 40.7175Z" fill="#F6809E"/>
<path d="M56.901 29.4313C61.699 28.7522 60.5709 38.4413 56.5514 38.8618C52.5332 39.282 50.9156 30.2784 56.901 29.4313Z" fill="#76D2E5"/>
<path d="M56.8582 30.1503C53.5617 30.7066 53.272 34.7531 54.631 35.5285C55.9899 36.3046 56.2743 34.5934 56.8392 34.5662C57.4046 34.5377 57.8543 35.9315 59.0544 34.8892C60.4608 33.6664 59.691 29.6729 56.8582 30.1503Z" fill="#4274C3"/>
<path d="M39.4148 43.7278C42.0039 47.8721 45.8651 58.8155 45.8651 58.8155C44.3669 53.3338 39.7764 46.4878 38.4102 44.7033" fill="#64C661"/>
<path d="M39.7949 45.8133C43.9113 42.9209 39.501 27.3915 32.1672 33.2831C24.8334 39.1734 36.1154 48.3992 39.7949 45.8133Z" fill="#F6809E"/>
<path d="M35.0532 36.6322C39.2408 33.3813 42.5789 41.7049 39.0041 44.3109C35.4306 46.9146 29.8309 40.6872 35.0532 36.6322Z" fill="#76D2E5"/>
<path d="M35.3397 37.2265C32.5039 39.5307 34.0681 42.9049 35.6931 42.7517C37.3176 42.5998 36.8079 41.0811 37.325 40.7402C37.8421 40.3982 38.8952 41.2498 39.5467 39.7441C40.3095 37.9799 37.7772 35.2472 35.3397 37.2265Z" fill="#4274C3"/>
<path d="M117.934 43.5176C116.163 43.2689 117.76 47.2483 112.429 49.8954C107.097 52.5424 95.7078 57.4022 90.5552 61.9535C97.5903 56.5351 108.79 52.5697 114.131 50.797C119.473 49.0248 120.691 43.9048 117.934 43.5176Z" fill="#8FD580"/>
<path d="M25.1227 59.1947C28.6864 61.4955 35.4527 68.7013 35.4527 68.7013C32.4513 64.9266 26.285 61.244 24.5269 60.3488" fill="#64C661"/>
<path d="M26.0954 60.7034C28.8728 56.848 19.8016 45.4534 15.0786 52.9053C10.3554 60.358 23.6133 64.1493 26.0954 60.7034Z" fill="#F6809E"/>
<path d="M19.0838 55.2273C21.8152 51.0614 27.3183 56.3906 24.9349 59.8126C22.5525 63.2336 15.6776 60.4234 19.0838 55.2273Z" fill="#76D2E5"/>
<path d="M19.5195 55.5894C17.7009 58.4923 20.1196 60.5729 21.517 59.8342C22.9144 59.0968 21.9988 58.0866 22.355 57.6202C22.7099 57.1531 23.9056 57.4284 24.0256 55.988C24.1663 54.2998 21.0828 53.0959 19.5195 55.5894Z" fill="#4274C3"/>
<path d="M114.411 37.7145C114.027 34.2959 103.744 36.1011 95.814 45.6915C104.075 37.5901 112.451 38.0497 114.411 37.7145Z" fill="#8FD580"/>
<path d="M89.0806 49.1427C99.7171 42.1852 107.339 37.8074 108.989 31.8911C110.379 26.9072 108.25 25.9699 107.099 26.9686C105.948 27.9674 109.372 28.4834 106.935 33.6577C104.498 38.8319 92.1735 47.5264 89.0806 49.1427Z" fill="#8FD580"/>
<path d="M16.2827 31.7436C17.5912 29.2244 24.9757 33.6615 28.2421 43.3983C24.2799 34.7103 17.6931 32.5823 16.2827 31.7436Z" fill="#8FD580"/>
<path d="M34.2812 48.0473C26.8356 38.9148 21.3296 32.908 21.5318 27.2178C21.7022 22.4243 23.8468 22.1942 24.5831 23.3991C25.3201 24.6037 22.1501 24.0991 22.8512 29.3548C23.5522 34.6105 32.0017 45.7513 34.2812 48.0473Z" fill="#8FD580"/>
<path d="M31.6023 54.3291C21.1365 48.9167 13.6937 45.5989 11.6137 40.2988C9.8614 35.8333 11.7371 34.7687 12.8918 35.5812C14.048 36.3923 10.9389 37.1915 13.6748 41.734C16.4106 46.2751 28.5976 53.1313 31.6023 54.3291Z" fill="#8FD580"/>
<path d="M32.3565 57.8944C23.1861 50.4968 17.1503 45.0219 11.4614 45.254C6.66852 45.4492 6.44961 47.5949 7.65881 48.3244C8.86713 49.0559 8.34592 45.8882 13.6055 46.5621C18.8641 47.2359 30.0493 55.6269 32.3565 57.8944Z" fill="#8FD580"/>
<path d="M30.1062 60.4034C18.7794 61.3203 10.9959 62.4077 6.58739 59.1332C2.87312 56.3755 3.86356 54.5462 5.2234 54.621C6.58384 54.6942 4.44847 56.9362 9.0061 59.2553C13.564 61.5735 27.0355 60.9574 30.1062 60.4034Z" fill="#4BBF6B"/>
<path d="M33.5037 62.6656C22.2231 61.2967 14.489 59.9006 9.95317 62.9959C6.13166 65.6034 7.04879 67.4704 8.4107 67.45C9.77261 67.4313 7.72878 65.1062 12.3753 62.9709C17.0218 60.8368 30.458 61.9891 33.5037 62.6656Z" fill="#4BBF6B"/>
<path d="M40.2119 14.4078C42.5708 11.9041 49.7114 19.5194 50.2987 31.9506C48.5534 20.512 41.5786 15.8528 40.2119 14.4078Z" fill="#8FD580"/>
<path d="M53.063 40.8252C50.4626 28.3845 48.1693 19.8982 51.1864 14.5485C53.7276 10.0412 55.8966 10.8849 56.0038 12.405C56.1115 13.9243 53.3258 11.8688 51.3896 17.2504C49.4532 22.6317 52.0187 37.4945 53.063 40.8252Z" fill="#8FD580"/>
<path d="M120.162 77.5595C122.582 75.1149 114.723 68.2431 102.279 68.0888C113.771 69.4353 118.671 76.2437 120.162 77.5595Z" fill="#61C671"/>
<mask id="mask1_25_100" style="mask-type:alpha" maskUnits="userSpaceOnUse" x="94" y="64" width="30" height="7">
<path d="M94.3569 64.4492H124V70.7435H94.3569V64.4492Z" fill="black"/>
</mask>
<g mask="url(#mask1_25_100)">
<path d="M94.3662 67.4512C106.81 70.0378 115.299 72.3224 120.645 69.2992C125.149 66.7522 124.303 64.5853 122.783 64.4796C121.263 64.3738 123.323 67.1569 117.943 69.0989C112.564 71.0407 97.6976 68.4915 94.3662 67.4512Z" fill="#61C671"/>
</g>
<path d="M110.405 94.038C112.856 92.3646 107.328 85.2544 96.8135 83.0807C106.326 86.108 109.358 92.6791 110.405 94.038Z" fill="#33B458"/>
<path d="M114.632 87.6155C119.042 86.9174 118.585 84.015 117.322 83.6509C116.059 83.2868 117.318 86.2183 112.404 86.6733C109.404 86.9512 99.0903 81.485 89.2925 82.1369C98.7706 81.5329 107.41 88.7588 114.632 87.6155Z" fill="#4BBF6B"/>
<path d="M122.203 55.6259C123.026 52.286 112.754 50.4202 101.994 56.672C112.55 51.9319 120.248 55.2618 122.203 55.6259Z" fill="#8FD580"/>
<path d="M71.1574 11.5878C71.8377 13.2414 67.5864 12.6821 66.3458 18.5036C65.1047 24.3258 63.2232 36.5651 60.0933 42.6858C63.596 34.5268 64.658 22.6923 65.0498 17.078C65.4403 11.4643 70.0981 9.01361 71.1574 11.5878Z" fill="#8FD580"/>
<path d="M59.1543 10.1822C62.185 8.5549 66.5414 18.0425 63.1558 30.0183C65.1282 18.6162 59.9919 11.9849 59.1543 10.1822Z" fill="#8FD580"/>
<path d="M70.165 43.3698C72.304 33.4685 84.4304 21.6599 78.8318 12.405C81.1418 9.87015 84.0712 17.0358 76.2736 30.2378" fill="#8FD580"/>
<path d="M90.8976 19.6737C85.2271 19.0512 79.1941 26.6434 77.2065 31.1255C75.2193 35.6077 69.6644 46.4275 67.5542 48.3408C71.2622 43.4634 74.0021 36.8366 76.6745 30.4317C80.7639 20.6345 89.072 16.6799 91.6609 17.1762C94.2499 17.6725 92.1402 19.6787 90.8976 19.6737Z" fill="#8FD580"/>
<path d="M74.6045 73.5793C86.8476 64.6259 103.765 47.5738 110.549 60.7367C117.347 73.9263 87.9219 72.6199 74.815 78.3566" fill="#33B458"/>
<path d="M65.6388 84.3512C84.0765 77.9895 109.09 80.6411 104.578 93.9613C100.067 107.282 73.9018 86.0526 64.7837 87.0472" fill="#33B458"/>
<path d="M80.7925 91.3243C88.6796 94.1995 89.9734 97.7676 95.6724 99.2629C101.371 100.758 104.412 96.8294 106.1 98.0811C107.788 99.3331 100.216 102.738 94.3088 99.5557C88.4025 96.3737 83.2358 92.9319 80.7925 91.3243Z" fill="#33B458"/>
<path d="M81.7968 92.169C88.3861 95.0171 90.0426 97.727 90.4738 99.5121C89.4223 100.328 83.9918 93.6721 80.064 91.2276" fill="#33B458"/>
<path d="M63.5864 70.3947C72.4569 50.5141 87.6651 29.3018 96.3319 37.4229C104.999 45.544 78.3985 60.6533 66.2562 71.5876" fill="#33B458"/>
<path d="M58.6861 69.9047C66.8593 52.2128 84.2823 28.5669 69.6533 25.9677C57.0462 23.7272 59.0123 55.3267 54.2578 70.3154" fill="#33B458"/>
<path d="M50.7352 66.2248C52.4108 44.9896 54.6972 21.5965 40.8008 28.7522C29.6371 34.501 44.3609 49.4293 47.4334 65.9306" fill="#33B458"/>
<path d="M44.9311 68.371C40.6884 53.3747 29.9415 32.5819 21.5169 41.2316C11.5174 51.4982 31.3942 60.6414 39.6048 68.7479" fill="#30A840"/>
<path d="M40.157 70.6267C27.0449 58.4465 12.2168 56.5101 10.9744 66.8331C9.45581 79.4516 29.8259 72.7424 40.6978 77.3403" fill="#32B340"/>
<path d="M85.1466 69.184C80.7703 70.7503 71.333 76.4814 71.333 76.4814C75.7492 73.3775 83.2026 70.9581 85.2669 70.4178" fill="#58C25D"/>
<path d="M83.5864 70.4272C82.5901 66.083 94.7167 58.0097 96.0253 66.2563C97.3334 74.5026 84.4775 74.3099 83.5864 70.4272Z" fill="#EE6376"/>
<path d="M92.6648 66.8278C91.847 62.1973 84.2764 66.0091 85.083 69.8456C85.8888 73.6821 93.6857 72.6044 92.6648 66.8278Z" fill="#58C9E6"/>
<path d="M92.0909 67.073C92.5809 70.2797 89.3666 71.7035 88.3463 70.6688C87.3262 69.6351 88.6389 68.8825 88.4999 68.352C88.3611 67.8212 87.0972 67.8041 87.6042 66.3963C88.1973 64.7469 91.6697 64.3165 92.0909 67.073Z" fill="#2A51AB"/>
<path d="M77.8076 55.3532C74.4974 58.7786 68.3135 67.9865 68.3135 67.9865C71.036 63.3511 76.7756 57.7079 78.4177 56.2457" fill="#58C25D"/>
<path d="M76.9065 57.1031C74.2428 54.2479 81.0638 41.962 85.5922 47.6768C90.1204 53.3933 79.2865 59.6553 76.9065 57.1031Z" fill="#EE6376"/>
<path d="M83.6322 49.7256C81.0141 46.5587 75.7348 53.3379 78.0197 55.8962C80.3046 58.4556 86.8984 53.6765 83.6322 49.7256Z" fill="#58C9E6"/>
<path d="M83.2137 50.2063C84.9575 52.4384 82.6369 55.1663 81.2969 54.8819C79.957 54.5987 80.8354 53.3523 80.4942 53.0125C80.1538 52.6717 79.0068 53.2981 78.8922 51.9532C78.7572 50.377 81.7148 48.2877 83.2137 50.2063Z" fill="#2A51AB"/>
<path d="M64.3489 48.3434C62.996 52.7043 58.5825 63.2135 58.5825 63.2135C61.1673 58.8469 62.8857 50.2552 63.3645 48.1944" fill="#58C25D"/>
<path d="M63.3182 49.8821C66.7733 50.982 74.0442 38.8141 67.4735 37.3137C60.9024 35.8126 60.2309 48.8989 63.3182 49.8821Z" fill="#EE6376"/>
<path d="M66.4054 40.8442C70.0933 41.7705 66.8699 49.2891 63.818 48.3919C60.7657 47.4953 61.8045 39.688 66.4054 40.8442Z" fill="#58C9E6"/>
<path d="M66.1956 41.4152C63.6399 40.8505 62.4275 44.047 63.2323 45.0951C64.037 46.1439 64.6687 44.8413 65.0907 44.9935C65.5124 45.1447 65.4971 46.4149 66.6354 45.938C67.9693 45.379 68.3917 41.9005 66.1956 41.4152Z" fill="#2A51AB"/>
<path d="M48.3927 50.5294C49.1472 55.0635 49.8039 66.6904 49.8039 66.6904C50.2866 61.4063 47.8478 53.0426 47.3306 50.9961" fill="#3EB950"/>
<path d="M48.1028 52.4632C52.1119 51.3128 52.7664 36.7464 45.4289 39.4378C38.0904 42.1292 44.5201 53.4911 48.1028 52.4632Z" fill="#EE6376"/>
<path d="M46.8248 42.8924C50.9838 41.4535 51.388 49.8116 47.8826 50.8908C44.3775 51.9705 41.6365 44.6874 46.8248 42.8924Z" fill="#58C9E6"/>
<path d="M46.891 43.5059C44.0463 44.5688 44.3771 48.0264 45.695 48.434C47.0126 48.8416 47.0177 47.3499 47.5147 47.2245C48.0121 47.0986 48.6136 48.1902 49.527 47.0959C50.5982 45.8133 49.3358 42.5921 46.891 43.5059Z" fill="#4274C3"/>
<path d="M38.1726 59.1366C40.7369 62.6398 46.0572 72.2582 46.0572 72.2582C44.4066 67.4955 38.6475 61.5614 37.3159 60.0693" fill="#3EB950"/>
<path d="M38.6646 60.9377C42.1424 57.9444 36.1246 45.1565 29.9955 51.1356C23.8656 57.1144 35.5566 63.612 38.6646 60.9377Z" fill="#EE6376"/>
<path d="M33.5598 53.3887C37.0691 50.0739 40.8271 57.022 37.8158 59.7023C34.8047 62.3831 29.1825 57.5236 33.5598 53.3887Z" fill="#58C9E6"/>
<path d="M33.872 53.8802C31.5036 56.2155 33.2185 59.0085 34.6774 58.696C36.1368 58.3843 35.5412 57.1057 35.9804 56.7497C36.4183 56.3922 37.4482 57.0254 37.9059 55.6319C38.4428 53.9973 35.9075 51.8735 33.872 53.8802Z" fill="#4274C3"/>
<path d="M32.2386 68.2842C36.3616 68.8833 46.2182 71.7179 46.2182 71.7179C42.1754 69.6351 33.9854 69.5953 32.0259 69.5051" fill="#3EB950"/>
<path d="M33.6549 69.1616C34.9589 64.7389 23.0717 58.7441 21.164 67.0176C19.2554 75.2906 32.4891 73.1148 33.6549 69.1616Z" fill="#EE6376"/>
<path d="M25.1287 67.5793C26.2807 62.915 33.3282 65.0218 32.2486 68.9128C31.1688 72.8024 23.6909 73.3955 25.1287 67.5793Z" fill="#58C9E6"/>
<path d="M25.6664 67.6953C24.9425 70.9088 27.9495 71.6148 29.0188 70.3969C30.0891 69.1798 28.8739 68.7248 29.0503 68.1811C29.2257 67.6372 30.4533 67.3552 30.0707 66.0967C29.6232 64.6205 26.2884 64.9338 25.6664 67.6953Z" fill="#4274C3"/>
<path d="M81.5703 86.301C77.5015 85.399 67.7241 85.5995 67.7241 85.5995C72.4801 85.1206 79.3028 86.8834 81.1365 87.49" fill="#58C25D"/>
<path d="M79.8274 86.6036C80.9092 82.1122 94.2004 80.8076 91.6921 89.0226C89.1842 97.2382 78.8602 90.6182 79.8274 86.6036Z" fill="#EE6376"/>
<path d="M88.4162 88.1563C89.7596 83.4985 82.2508 82.9434 81.2382 86.8708C80.2253 90.7979 86.7403 93.9663 88.4162 88.1563Z" fill="#58C9E6"/>
<path d="M87.8656 88.0736C86.8756 91.2582 83.7705 90.8457 83.4205 89.3589C83.0701 87.8726 84.411 87.8855 84.5296 87.3277C84.649 86.77 83.6746 86.0818 84.6696 85.0675C85.8358 83.8799 88.7161 85.337 87.8656 88.0736Z" fill="#2A51AB"/>
<path d="M51.7794 87.8586C59.8221 87.3785 74.3398 106.934 81.003 98.119C87.667 89.304 63.9964 81.8882 51.5356 85.6059" fill="#2B9A40"/>
<path d="M50.7002 84.4691C59.9931 76.1887 86.7907 67.1235 88.8027 76.3207C90.9844 86.2908 63.8485 85.2636 51.8161 86.7847" fill="#2B9A40"/>
<path d="M48.2956 84.3512C47.8496 72.6848 30.9216 59.3853 38.4928 52.1564C44.7746 46.1587 53.6628 61.7342 50.742 81.6702" fill="#2B9A40"/>
<path d="M47.7298 80.8435C45.4335 69.0255 32.9758 53.3807 26.7686 60.8145C20.0531 68.8575 40.8451 75.4474 46.1338 84.0658" fill="#2B9A40"/>
<path d="M45.6625 84.2345C38.7605 74.6035 27.3536 66.8289 21.7211 75.7853C16.0883 84.7418 37.1736 80.9678 44.2554 86.5725" fill="#2A8E3E"/>
<path d="M52.4951 81.7001C56.2842 64.8753 64.9199 47.4316 72.3934 51.2574C82.2439 56.3004 58.4224 78.3979 54.9716 84.6511" fill="#2B9A40"/>
<path d="M49.7505 83.0153C51.0314 66.7884 44.5444 47.8407 55.049 46.6337C66.7735 45.2861 56.5972 73.3469 51.2502 85.3205" fill="#2B9A40"/>
<path d="M49.7505 84.0658C55.0628 73.6434 78.2942 55.6448 82.8034 61.511C89.878 70.7131 59.7057 78.8995 50.6272 86.5042" fill="#2B9A40"/>
<path d="M49.3333 58.6266C50.8238 68.1923 51.8859 70.8091 53.4997 70.7617C55.1135 70.7146 58.0968 63.3442 59.1456 60.8266C57.5451 66.557 57.567 71.1909 58.2223 72.1851C58.8778 73.1792 68.1381 65.3077 68.1381 65.3077C63.5864 70.3946 62.0422 73.5576 62.9024 74.9261C63.7628 76.2945 73.3654 73.9186 73.3654 73.9186C66.9379 76.6991 64.3676 79.4087 64.3486 80.8117C64.3296 82.2142 72.1345 84.3562 72.1345 84.3562C72.1345 84.3562 62.0826 86.1306 61.4627 87.4499C60.8432 88.769 67.225 95.4041 67.225 95.4041C67.225 95.4041 55.0593 86.7518 48.7487 86.4488C44.4629 80.9811 35.2666 72.5752 35.2666 72.5752C39.186 73.9399 42.1636 76.3746 43.6074 75.5567C45.0513 74.7388 38.2136 63.554 38.2136 63.554C43.6229 67.3589 45.7851 72.8009 48.1018 71.6126C50.4181 70.4238 49.3333 58.6266 49.3333 58.6266Z" fill="#216630"/>
<path d="M52.8994 87.2652C61.2583 90.6566 68.5483 98.1961 66.85 100.119C65.1513 102.043 62.4657 91.3102 52.8994 87.2652Z" fill="#2B9A40"/>
<path d="M52.8994 87.2652C58.9579 90.5101 62.457 95.3093 59.0272 99.1749C60.3032 96.624 56.6289 89.4863 52.8994 87.2652Z" fill="#2B9A40"/>
<path d="M68.357 89.9782C65.38 87.674 56.2363 86.4318 56.2363 86.4318C60.3746 87.1162 66.7455 89.4586 67.7632 90.959" fill="#3EB950"/>
<path d="M64.7225 90.4411C65.8077 87.0725 76.9997 87.7972 74.6186 93.9178C72.2374 100.038 63.7519 93.4518 64.7225 90.4411Z" fill="#E34D6B"/>
<path d="M71.0597 92.2895C72.3508 88.8125 66.7619 87.8138 65.7624 90.7539C64.7632 93.6937 69.4487 96.625 71.0597 92.2895Z" fill="#43A8D2"/>
<path d="M70.6526 92.1838C69.7157 94.5548 67.416 94.0009 67.2447 92.8318C67.0736 91.6636 68.0769 91.7759 68.2002 91.3561C68.3234 90.9371 67.636 90.3334 68.4428 89.6309C69.3892 88.8065 71.4576 90.1457 70.6526 92.1838Z" fill="#2A3A8C"/>
<path d="M61.0662 67.5042C57.9293 70.6149 54.0405 79.2909 54.0405 79.2909C56.1483 74.8101 60.0189 69.2336 61.7295 68.214" fill="#3EB950"/>
<path d="M59.9718 69.5513C57.4344 68.0032 62.3758 55.848 66.8288 59.1077C71.2818 62.3676 62.239 70.9342 59.9718 69.5513Z" fill="#E34D6B"/>
<path d="M64.0307 62.8233C61.4781 61.0388 58.4512 67.0397 60.6458 68.448C62.8397 69.8554 67.2142 65.049 64.0307 62.8233Z" fill="#43A8D2"/>
<path d="M63.7814 63.2567C65.5013 64.5345 64.1303 66.9889 63.0389 67.0511C61.9485 67.1129 62.433 66.0281 62.1119 65.8487C61.7918 65.6691 60.9982 66.3557 60.6922 65.3979C60.3336 64.2751 62.3037 62.1581 63.7814 63.2567Z" fill="#2A3A8C"/>
<path d="M54.3105 65.0882C54.6194 69.3291 52.8101 78.0645 52.8101 78.0645C53.6044 73.6286 53.9418 67.0458 53.3117 65.2629" fill="#3EB950"/>
<path d="M53.8747 67.8484C56.9297 67.8766 60.4138 55.3104 54.7138 55.71C49.014 56.1089 51.1442 67.8234 53.8747 67.8484Z" fill="#E34D6B"/>
<path d="M54.7108 60.2127C57.9258 60.053 56.6897 66.5589 54.0044 66.592C51.3191 66.6248 50.7006 60.4117 54.7108 60.2127Z" fill="#43A8D2"/>
<path d="M54.6467 60.698C52.4332 60.8679 52.0377 63.5972 52.8988 64.2092C53.7603 64.8215 54.0352 63.6772 54.4114 63.6947C54.7874 63.7105 55.0149 64.685 55.8635 64.053C56.8573 63.3105 56.5487 60.552 54.6467 60.698Z" fill="#2A3A8C"/>
<path d="M46.2779 65.997C48.0535 69.5464 49.3181 77.9159 49.3181 77.9159C48.5537 73.7195 46.5975 67.8561 45.3618 66.5808" fill="#3EB950"/>
<path d="M46.9031 68.6619C49.902 67.3635 48.9462 54.9422 43.5077 57.7568C38.0701 60.5709 44.2236 69.822 46.9031 68.6619Z" fill="#E34D6B"/>
<path d="M45.0695 61.6679C48.1595 60.138 49.2101 66.3231 46.595 67.5144C43.9787 68.7058 41.2153 63.5775 45.0695 61.6679Z" fill="#43A8D2"/>
<path d="M45.1752 62.118C43.0684 63.2237 43.6296 65.7653 44.6852 65.9238C45.7404 66.0826 45.612 64.9698 45.9861 64.8218C46.3596 64.6728 46.9208 65.4207 47.5305 64.5049C48.2456 63.43 46.9848 61.1679 45.1752 62.118Z" fill="#2A3A8C"/>
<path d="M40.265 70.0174C42.9259 72.7394 46.2739 80.065 46.2739 80.065C44.465 76.4322 41.0477 71.6318 39.4937 70.8405" fill="#3EB950"/>
<path d="M41.8429 72.2325C44.247 69.7072 38.58 59.6504 34.3957 64.6198C30.2111 69.5877 39.6941 74.4893 41.8429 72.2325Z" fill="#E34D6B"/>
<path d="M37.3993 67.1865C39.8026 64.4219 43.1803 69.1558 41.1061 71.4082C39.031 73.6609 34.4008 70.6362 37.3993 67.1865Z" fill="#43A8D2"/>
<path d="M37.6732 67.5163C36.0581 69.455 37.571 71.3387 38.6524 70.9705C39.7336 70.602 39.1841 69.7227 39.4899 69.4198C39.7939 69.1157 40.6221 69.4812 40.8624 68.4161C41.1438 67.1663 39.0606 65.8517 37.6732 67.5163Z" fill="#2A3A8C"/>
<path d="M38.2581 79.0474C39.5428 75.7386 30.0463 70.2362 28.0428 76.4709C26.0385 82.7056 37.1102 82.0042 38.2581 79.0474Z" fill="#CA701E"/>
<path d="M31.9591 77.0919C33.1463 73.5846 38.2979 75.8176 37.219 78.7334C36.1398 81.6496 30.4786 81.4673 31.9591 77.0919Z" fill="#43A8D2"/>
<path d="M32.3549 77.2281C31.5899 79.6518 33.8016 80.4556 34.6894 79.6052C35.577 78.7547 34.6948 78.3004 34.8655 77.895C35.034 77.4893 35.976 77.3763 35.7759 76.3696C35.5409 75.19 33.0129 75.1465 32.3549 77.2281Z" fill="#2B4EA8"/>
<path d="M65.6005 73.1437C61.8443 75.0497 53.4521 82.0671 53.4521 82.0671C57.5164 79.4205 64.1288 74.4681 65.9629 74.1026" fill="#3EB950"/>
<path d="M70.955 79.1676C65.7884 79.3935 54.897 83.0214 54.897 83.0214C59.3075 81.7607 69.2416 79.8687 70.9516 80.2714" fill="#3EB950"/>
<path d="M64.5375 74.418C62.9511 71.776 71.8306 62.3023 74.4063 67.4643C76.9827 72.625 65.9546 76.7803 64.5375 74.418Z" fill="#E34D6B"/>
<path d="M70.5881 69.7751C69.0789 66.8975 64.1918 71.3084 65.5368 73.6601C66.882 76.0125 72.4696 73.3651 70.5881 69.7751Z" fill="#43A8D2"/>
<path d="M70.2085 70.0804C71.1967 72.0922 69.0836 73.836 68.1238 73.3999C67.1637 72.9646 67.9938 72.1396 67.7871 71.8207C67.5808 71.5018 66.6379 71.8037 66.7407 70.7423C66.8613 69.4971 69.36 68.3517 70.2085 70.0804Z" fill="#2A3A8C"/>
<path d="M67.2054 81.2298C66.9806 77.974 78.4676 73.1159 78.4661 79.2301C78.4646 85.3458 67.4057 84.1392 67.2054 81.2298Z" fill="#E34D6B"/>
<path d="M74.2693 79.6434C74.2086 76.1997 68.2242 78.1096 68.3683 80.9765C68.512 83.8427 74.344 83.9375 74.2693 79.6434Z" fill="#43A8D2"/>
<path d="M73.8208 79.7556C73.8056 82.1315 71.2879 82.8019 70.6611 81.9386C70.0347 81.0759 71.0835 80.679 71.0434 80.2789C71.0035 79.8801 70.0802 79.725 70.6149 78.763C71.2417 77.6357 73.8337 77.7137 73.8208 79.7556Z" fill="#2A3A8C"/>
<path d="M79.87 60.2824C79.3058 57.9926 72.4749 60.1315 67.9336 67.3552C72.8317 61.1144 78.5672 60.6847 79.87 60.2824Z" fill="#7CCE74"/>
<path d="M64.7266 69.8497C70.473 63.2988 74.7031 59.0058 74.7056 54.7954C74.7076 51.2474 73.1291 51.0199 72.5523 51.891C71.9756 52.7624 74.3318 52.4738 73.6733 56.3395C73.0149 60.2047 66.4724 68.2129 64.7266 69.8497Z" fill="#61C671"/>
<path d="M31.0532 58.3809C31.6992 56.5449 37.1388 58.8469 40.2923 65.1424C36.7672 59.6257 32.0912 58.8151 31.0532 58.3809Z" fill="#61C671"/>
<path d="M44.0382 69.3515C39.2639 62.835 35.7071 58.5268 36.0469 54.6376C36.3335 51.3616 37.81 51.2802 38.2715 52.131C38.7334 52.9822 36.5807 52.5246 36.8745 56.1475C37.1682 59.771 42.5592 67.6987 44.0382 69.3515Z" fill="#61C671"/>
<path d="M39.1862 73.9399C31.6566 71.0127 26.3409 69.2931 24.5371 65.8312C23.017 62.9143 24.218 62.0524 25.0645 62.5222C25.9117 62.9906 23.8504 63.7625 26.0466 66.6598C28.2427 69.5563 37.0504 73.342 39.1862 73.9399Z" fill="#61C671"/>
<path d="M40.9974 77.4988C34.2068 73.124 29.693 69.8315 25.8317 70.4034C22.5784 70.8868 22.5858 72.3652 23.4632 72.7743C24.3402 73.1845 23.7541 71.0635 27.3887 71.1397C31.0228 71.2159 39.2593 76.1212 40.9974 77.4988Z" fill="#61C671"/>
<path d="M41.9043 48.8632C43.5056 47.1319 48.4489 52.3084 48.9297 60.8266C47.6612 52.9959 42.8503 49.8449 41.9043 48.8632Z" fill="#61C671"/>
<path d="M50.8807 66.8937C49.0196 58.3809 47.3942 52.5777 49.4292 48.8909C51.143 45.7848 52.6355 46.3493 52.7185 47.3913C52.8016 48.4318 50.8788 47.0398 49.5854 50.7421C48.2916 54.4436 50.144 64.6171 50.8807 66.8937Z" fill="#61C671"/>
<path d="M94.9968 85.2962C96.1013 83.2122 89.5822 80.2573 81.3833 82.6184C89.1935 81.2283 93.7572 84.7281 94.9968 85.2962Z" fill="#61C671"/>
<path d="M75.5518 83.081C84.2015 82.0243 90.2155 81.6408 93.0229 78.5024C95.3882 75.8582 94.3617 74.6368 93.3516 74.9022C92.3416 75.1673 94.2905 76.522 91.2245 78.9666C88.1581 81.4104 77.944 83.0241 75.5518 83.081Z" fill="#61C671"/>
<path d="M77.6258 90.04C78.9663 88.5092 74.0783 84.7364 66.7261 85.0944C73.5596 85.4739 76.698 89.3173 77.6258 90.04Z" fill="#61C671"/>
<path d="M78.8547 84.7714C81.6625 83.5523 80.8623 81.7038 79.9615 81.6788C79.061 81.653 80.3983 83.3833 77.2143 84.5276C75.2703 85.2257 67.487 83.3643 61.0942 85.4751C67.2831 83.4499 74.2564 86.7674 78.8547 84.7714Z" fill="#61C671"/>
<path d="M60.1945 58.3088C61.7295 51.4637 61.0514 43.9772 59.7945 45.9641C58.1906 46.9355 61.9398 49.2743 60.1945 58.3088Z" fill="#61C671"/>
<path d="M60.5142 58.922C62.1055 55.9606 64.4887 50.9548 68.3915 50.6988C69.231 50.5544 70.4162 48.9478 68.6088 48.9216C66.8019 48.8955 62.0294 52.7884 59.6156 59.722C57.7136 65.1852 56.1787 72.022 56.1787 72.022C57.7613 65.8032 59.1786 61.4063 60.5142 58.922Z" fill="#61C671"/>
<path d="M83.0039 66.3652C81.7929 66.1771 82.8473 68.9208 79.1657 70.6817C75.4834 72.4425 67.6266 75.6591 64.0483 78.7265C68.926 75.0831 76.6442 72.4777 80.3236 71.3176C84.0031 70.1558 84.8903 66.6586 83.0039 66.3652Z" fill="#7CCE74"/>
<path d="M87.9117 74.2978C88.5942 72.0402 81.6272 70.3988 74.0381 74.2987C81.433 71.4264 86.5861 73.9793 87.9117 74.2978Z" fill="#7CCE74"/>
<path d="M21.1879 73.2217C26.0704 74.2819 34.7893 79.34 34.7893 79.34C30.2937 76.9179 23.1613 74.3118 20.8369 74.4548" fill="#3FB93C"/>
<path d="M29.2185 94.2992C33.1023 97.6117 34.4727 109.265 33.5591 110.406C32.6452 111.549 27.0481 110.521 27.2768 112.577C27.5051 114.633 31.233 112.005 32.3389 112.69C33.4449 113.376 29.4201 115.899 31.8896 116.461C34.3589 117.022 34.816 113.947 36.0725 113.605C37.3289 113.262 40.4685 115.292 40.7671 113.604C41.0499 112.005 38.1327 112.462 37.2146 111.092C35.4772 108.5 33.6629 97.6196 35.2675 95.7874" fill="#DB7B19"/>
<path d="M41.4409 95.9099C42.8886 96.4852 49.7804 106.181 50.237 110.179C49.8941 111.435 46.2389 110.293 46.1247 113.264C46.8099 113.834 49.62 112.333 50.8766 112.79C52.1332 113.248 51.1208 115.705 52.7235 115.743C55.5936 115.81 53.9813 113.961 54.9208 112.806C55.9772 111.507 59.6901 113.524 60.2183 112.063C60.9463 110.051 57.3191 109.951 53.5494 110.236C51.8359 109.608 44.9828 96.2421 45.668 93.5004" fill="#DB7B19"/>
<path d="M13.8529 75.1096C8.74562 75.3439 11.0466 86.8295 16.7822 92.458C22.5179 98.086 26.2976 97.2163 24.4662 93.8545" fill="#253E7C"/>
<path d="M15.3801 87.0035C16.1896 91.389 20.7856 98.061 24.2892 97.1809C26.7799 96.3036 19.4623 88.8191 16.7468 84.4328C15.6946 83.7544 14.9713 84.7899 15.3801 87.0035Z" fill="#40AEB8"/>
<path d="M16.4362 87.5488C18.0786 91.695 24.7153 97.7345 28.0602 96.3703C30.4028 95.1508 22.1045 88.7709 18.7992 84.8108C17.6615 84.2865 14.2549 82.0414 16.4362 87.5488Z" fill="#328D90"/>
<path d="M49.3206 83.7464C41.8845 78.421 44.9643 73.1084 48.4189 74.6038C48.7489 72.433 52.1068 71.7213 52.8905 74.7046C54.8228 71.8848 57.5786 74.4958 56.1764 76.8C59.4999 74.5155 60.3098 79.1373 57.4845 80.6119C61.0208 79.4428 60.4421 84.2136 57.6473 84.0369C60.3595 85.206 57.1911 88.9555 52.0886 86.5425" fill="#253671"/>
<path d="M55.1499 73.9467C53.3769 73.1046 51.712 77.7582 52.4711 78.5836C53.2302 79.4091 58.3429 75.4646 55.1499 73.9467Z" fill="#234D95"/>
<path d="M58.3982 77.5287C58.0448 75.4308 53.5362 79.2605 53.886 80.144C54.236 81.0278 58.8282 80.0818 58.3982 77.5287Z" fill="#234D95"/>
<path d="M53.9303 82.2475C53.8416 83.4348 59.222 84.0153 59.6903 81.9415C60.1589 79.8679 54.0194 81.0608 53.9303 82.2475Z" fill="#234D95"/>
<path d="M53.8209 84.5242C53.2661 85.5774 57.1147 87.4801 58.3524 85.7519C59.5907 84.0236 54.2111 83.7832 53.8209 84.5242Z" fill="#234D95"/>
<path d="M50.7956 77.5287C49.7446 77.517 47.9466 73.5911 50.6008 73.281C53.3831 72.956 51.8467 77.5416 50.7956 77.5287Z" fill="#234D95"/>
<path d="M50.3908 78.6383C50.0333 76.696 50.6976 74.5947 50.6976 74.5947C50.8364 77.0399 51.0612 78.5738 51.0612 78.5738" fill="#253671"/>
<path d="M52.8099 84.7395C50.8768 98.9559 24.7447 102.1 15.5109 84.7058C6.99998 68.6724 13.7967 47.5786 20.3081 42.8951L26.2178 49.5647C21.42 52.4753 20.6554 65.9511 25.334 70.2372C28.5329 73.1675 29.0368 69.5294 39.0422 71.2265C45.0964 72.2533 50.1235 77.0499 51.0373 81.3914" fill="#253671"/>
<path d="M18.8599 46.2769C18.6312 48.8435 19.6199 53.4986 22.3815 56.0709C22.858 53.5594 25.0283 50.5377 25.0283 50.5377" fill="#1B284B"/>
<path d="M16.6775 50.4312C15.0288 51.26 13.487 54.1551 12.6134 59.4232C11.1758 68.0931 12.4559 79.9688 18.7083 85.8205C28.5119 94.9946 44.3287 89.6467 45.0472 83.858C44.1834 75.3543 39.4473 79.1365 31.4195 80.4525C30.3522 80.6274 25.5602 77.1727 25.2489 72.458C16.6054 71.5951 19.2957 58.1537 18.7822 55.2997C18.3821 53.0767 18 49.7657 16.6775 50.4312Z" fill="#234D95"/>
<path d="M16.7987 73.3522C12.821 74.8336 13.2337 87.605 24.0309 94.1829C34.8285 100.761 44.9505 95.0701 45.617 91.389C46.4524 86.7726 38.6112 85.9824 31.912 81.4202C25.9901 77.3889 21.3394 71.6615 16.7987 73.3522Z" fill="#247637"/>
<path d="M27.3905 71.1489C25.3106 75.8316 33.7563 85.6343 42.241 87.6808C49.2091 89.3601 51.6085 86.0125 48.8398 84.6545C53.8726 85.3599 52.5606 81.9689 51.0606 79.8205C53.1901 79.2506 48.9805 72.4903 40.232 69.7007C32.6993 67.2998 28.4554 68.7509 27.3905 71.1489Z" fill="#40AEB8"/>
<path d="M26.6491 71.2299C27.7235 66.8929 38.8112 68.2023 42.2704 70.3643C45.7301 72.5263 45.6212 75.408 43.4035 75.2002C45.8674 76.6248 46.3732 81.459 43.4638 81.1014C45.3232 82.2173 41.2846 85.1934 37.2006 84.0043C30.4564 82.0413 25.5573 75.6363 26.6491 71.2299Z" fill="#234D95"/>
<path d="M27.8974 69.6883C25.5021 72.3367 31.7838 80.1083 37.3634 81.9442C42.8496 83.7487 43.9817 80.5356 41.441 78.8225C45.4541 79.8436 44.2184 75.1096 41.1554 73.5739C43.3831 73.6813 43.2868 71.7729 41.2726 70.4769C38.2407 68.5268 30.1727 67.1724 27.8974 69.6883Z" fill="#2F67B4"/>
<path d="M46.4676 77.5367C46.8804 78.1901 47.078 78.8213 47.1069 79.3848C48.2413 80.0893 50.5521 81.5701 51.2224 82.3413C51.2224 82.3413 48.9697 80.8939 47.0484 80.0772C46.8646 80.8761 46.2798 81.4427 45.4541 81.564C48.7522 83.9054 52.0411 84.007 52.0437 82.7803C52.0471 81.2211 47.83 78.0904 46.4676 77.5367Z" fill="#59C7BE"/>
<path d="M45.9535 72.9404C46.2396 73.3503 46.4574 73.8823 46.4956 74.3607C47.563 75.0891 49.5768 76.5042 50.227 77.2512C50.227 77.2512 48.2735 75.8176 46.4126 74.9985C46.2655 75.3429 45.9299 75.5772 45.3232 75.5772C48.8094 78.1366 51.0374 79.0921 51.0609 78.306C51.112 76.5941 47.4527 73.8281 45.9535 72.9404Z" fill="#59C7BE"/>
<path d="M44.9693 83.1429C45.1209 83.3419 45.0766 83.5481 44.8943 83.7487C45.7735 84.2063 47.6793 85.218 48.5237 85.8205C48.5237 85.8205 46.2798 84.8757 44.3365 84.1533C43.2126 84.7547 41.0239 85.2146 39.5278 85.1241C42.7265 86.528 48.8453 87.8605 49.4952 86.2471C50.0217 84.9382 44.9693 83.1429 44.9693 83.1429Z" fill="#59C7BE"/>
<path d="M30.4759 70.3871C31.8735 68.3676 37.1895 68.8503 39.671 70.0253C42.1522 71.2014 40.6419 72.8979 39.0424 72.4903C42.355 74.2576 43.6121 77.9079 38.8139 77.0919C40.9273 78.4222 40.0708 80.7058 36.5864 78.9931C33.1023 77.2796 28.7628 72.8619 30.4759 70.3871Z" fill="#3D84CD"/>
<path d="M16.4559 73.3522C12.2079 75.8305 15.5398 90.0718 25.2318 92.93C34.9243 95.7874 36.944 86.8751 32.7956 84.1339C28.6467 81.3922 21.5082 70.4049 16.4559 73.3522Z" fill="#29913E"/>
<path d="M27.3082 80.5986C29.7769 83.2289 28.6023 85.9454 24.4043 83.2289C26.375 83.597 28.4992 82.3982 27.3082 80.5986Z" fill="#2FAA41"/>
<path d="M20.0375 82.4322C22.5057 85.0629 21.3315 87.7797 17.1333 85.0629C19.1038 85.4318 21.2282 84.2318 20.0375 82.4322Z" fill="#2FAA41"/>
<path d="M21.3227 76.695C23.7909 79.3257 22.6166 82.0416 18.4185 79.3257C20.3888 79.6934 22.5137 78.4942 21.3227 76.695Z" fill="#2FAA41"/>
<path d="M25.2167 87.699C27.6848 90.3293 26.5108 93.0461 22.3125 90.3293C24.283 90.6982 26.4077 89.4989 25.2167 87.699Z" fill="#2FAA41"/>
<path d="M30.8964 86.2623C33.3645 88.893 32.1903 91.6094 27.9922 88.893C29.9627 89.2612 32.0874 88.0618 30.8964 86.2623Z" fill="#2FAA41"/>
<path d="M31.379 91.9772C34.3425 94.0342 33.7617 96.9353 29.0889 95.1569C31.0924 95.1046 32.9194 93.4878 31.379 91.9772Z" fill="#29913E"/>
<path d="M37.5981 88.8767C40.5617 90.934 39.9811 93.8347 35.3081 92.0564C37.3117 92.0044 39.1388 90.3873 37.5981 88.8767Z" fill="#29913E"/>
<path d="M11.8526 76.7485C10.2832 77.7817 11.729 90.1275 15.9055 90.2648C12.8816 84.6603 12.4648 76.3453 11.8526 76.7485Z" fill="#234D95"/>
<path d="M32.6903 98.9559C33.7874 101.055 34.8254 110.051 33.8138 110.65C32.8023 111.25 29.5325 110.78 28.4711 111.387C27.4096 111.993 28.4759 113.007 29.5894 112.535C30.7034 112.064 32.2026 111.507 32.8878 112.193C33.5735 112.878 32.7707 113.546 32.0314 114.206C31.2918 114.866 31.2072 115.534 32.1761 115.791C33.1452 116.048 34.0282 114.078 34.834 113.221C35.6556 112.348 36.5721 112.407 37.8571 113.007C39.1423 113.607 40.2637 113.392 40.1101 112.621C39.9562 111.85 37.6005 112.364 36.701 110.822C35.8015 109.28 34.3445 99.812 34.3445 99.812C33.659 99.084 32.6903 98.9559 32.6903 98.9559Z" fill="#F8A528"/>
<path d="M43.8545 96.8571C46.1246 99.7093 51.2824 107.709 51.1028 110.465C50.666 110.993 48.4884 110.901 47.3922 111.311C46.296 111.721 46.8101 112.578 47.1101 112.664C48.0096 111.935 51.3174 111.37 51.7882 112.226C52.2597 113.083 51.5461 115.622 53.098 115.471C54.6495 115.319 53.6311 112.796 53.9641 112.15C54.3012 111.494 57.8623 111.85 58.8906 111.807C59.9186 111.764 60.0471 110.907 58.9762 110.35C57.9051 109.794 54.3253 110.797 53.2352 110.179C51.9968 109.476 47.6633 101.207 46.0807 96.9166C45.3355 97.3273 43.8545 96.8571 43.8545 96.8571Z" fill="#F8A528"/>
<path d="M27.9828 111.85C28.3638 111.955 28.7013 112.457 28.5768 112.757C28.4522 113.057 27.1301 113.452 27.0404 113.242C26.8477 112.792 27.4791 111.711 27.9828 111.85Z" fill="#998876"/>
<path d="M27.5763 112.15C27.0022 112.396 27.1106 113.31 27.8042 112.792C28.4977 112.275 28.1759 111.893 27.5763 112.15Z" fill="#E4BC9E"/>
<path d="M31.6958 115.17C32.0912 115.165 32.5548 115.554 32.518 115.877C32.4814 116.2 31.3206 116.945 31.1765 116.769C30.8663 116.39 31.1732 115.176 31.6958 115.17Z" fill="#998876"/>
<path d="M31.3882 115.571C30.9049 115.966 31.2624 116.815 31.7854 116.125C32.3086 115.436 31.8931 115.158 31.3882 115.571Z" fill="#E4BC9E"/>
<path d="M40.3415 112.864C40.0041 113.071 39.8191 113.646 40.0218 113.9C40.2244 114.154 41.6038 114.167 41.6321 113.942C41.6933 113.456 40.7873 112.592 40.3415 112.864Z" fill="#998876"/>
<path d="M40.8154 113.04C41.4351 113.117 41.5835 114.025 40.774 113.72C39.9646 113.416 40.1681 112.959 40.8154 113.04Z" fill="#E4BC9E"/>
<path d="M46.7611 112.338C47.1554 112.36 47.5914 112.78 47.5323 113.1C47.4735 113.419 46.2643 114.083 46.1328 113.897C45.8496 113.498 46.2393 112.309 46.7611 112.338Z" fill="#998876"/>
<path d="M46.4264 112.717C45.9167 113.078 46.2152 113.949 46.7842 113.297C47.3537 112.645 46.9587 112.339 46.4264 112.717Z" fill="#E4BC9E"/>
<path d="M53.496 114.482C53.1307 114.329 52.5563 114.519 52.4703 114.833C52.3845 115.146 53.1861 116.268 53.3852 116.159C53.8137 115.922 53.9794 114.681 53.496 114.482Z" fill="#998876"/>
<path d="M53.6335 114.967C53.9358 115.514 53.2893 116.168 53.0591 115.335C52.829 114.501 53.3177 114.397 53.6335 114.967Z" fill="#E4BC9E"/>
<path d="M59.3993 110.727C59.1125 111 59.0531 111.602 59.3045 111.807C59.5563 112.012 60.9075 111.734 60.8875 111.508C60.845 111.021 59.7777 110.366 59.3993 110.727Z" fill="#998876"/>
<path d="M59.899 110.836C60.5212 110.78 60.8576 111.637 60.0015 111.509C59.1464 111.382 59.2488 110.893 59.899 110.836Z" fill="#E4BC9E"/>
<path d="M29.8355 30.4582C30.3073 26.8959 25.3923 22.2768 20.591 24.2709C15.7894 26.265 17.7766 31.6519 21.1754 30.0919C24.5745 28.5332 27.8132 25.6806 29.8355 30.4582Z" fill="#DA1740"/>
<path d="M29.8239 30.2378C32.0071 26.9414 29.627 18.989 24.1256 17.8138C18.6246 16.6396 17.8698 23.4226 21.8362 24.1037C25.8033 24.7842 30.2481 24.0495 29.8239 30.2378Z" fill="#DA1740"/>
<path d="M30.2149 29.8924C32.8121 27.2409 31.473 23.9129 29.6079 21.9013C27.7427 19.8891 31.1464 14.5901 34.0865 19.8156C36.3774 23.8876 32.9187 28.7906 30.2149 29.8924Z" fill="#DA1740"/>
<path d="M35.6853 30.7171C43.2329 34.6853 42.7316 42.3415 42.1363 45.6072C42.8772 49.6671 39.6317 55.5277 33.359 54.6342C26.9311 53.719 17.2991 49.8824 16.6872 41.8349C16.1185 34.3387 26.3436 25.8049 35.6853 30.7171Z" fill="#253671"/>
<path d="M36.0302 32.3594C29.2375 29.8151 21.139 34.8255 21.1509 42.5629C21.1617 49.7088 34.8776 55.5882 39.8644 51.7738C43.9854 48.6221 43.9722 35.3348 36.0302 32.3594Z" fill="#234D95"/>
<path d="M35.9379 33.2626C28.3493 31.1316 22.8967 43.2678 34.1687 45.4799C43.9853 47.4061 42.0371 34.9757 35.9379 33.2626Z" fill="#2F67B4"/>
<path d="M29.3883 44.1899C30.6408 43.7091 31.2529 38.1778 27.8673 36.9587C25.9432 36.2671 23.1921 37.8247 23.1497 40.2477C23.1077 42.6698 27.3861 44.9585 29.3883 44.1899Z" fill="#14222D"/>
<path d="M28.986 43.9415C30.0343 43.5393 30.5855 38.5365 27.712 37.6292C25.6804 36.9883 23.5392 38.6131 23.5037 40.6413C23.4683 42.6698 27.3092 44.5854 28.986 43.9415Z" fill="white"/>
<path d="M28.986 43.9415C30.0343 43.5393 30.5855 38.5365 27.712 37.6292C25.6804 36.9883 23.5392 38.6131 23.5037 40.6413C23.4683 42.6698 27.3092 44.5854 28.986 43.9415Z" fill="#F795A6"/>
<path d="M28.6927 43.6287C29.6679 43.2541 30.1811 38.5998 27.5075 37.7569C25.6174 37.1609 23.6255 38.671 23.5925 40.5591C23.5596 42.445 27.1329 44.2271 28.6927 43.6287Z" fill="white"/>
<path d="M26.7499 37.3099C29.1246 37.5128 29.9204 40.5673 27.486 42.3035C26.1819 43.2333 23.8413 42.2301 23.6377 40.5673C23.414 38.7417 24.9295 37.2939 26.7499 37.3099Z" fill="#3588AC"/>
<path d="M37.9588 47.2252C37.5873 46.1453 39.852 41.1721 41.8647 42.1037C42.9191 42.5928 43.5762 45.5027 42.5566 47.5388C41.5374 49.5749 38.507 48.8173 37.9588 47.2252Z" fill="#14222D"/>
<path d="M38.2442 47.2386C37.9504 46.33 39.8488 41.8706 41.5138 42.6934C42.6919 43.2746 42.9471 45.7985 42.0935 47.5031C41.2405 49.2079 38.7126 48.6934 38.2442 47.2386Z" fill="#F795A6"/>
<path d="M38.2424 47.1438C37.9655 46.2868 39.756 42.0814 41.3262 42.8572C42.4369 43.4051 42.8994 45.952 41.873 47.3929C40.883 48.7818 38.6847 48.5159 38.2424 47.1438Z" fill="white"/>
<path d="M41.7183 42.8625C40.8312 42.3544 38.8683 43.8404 38.4756 45.5573C38.0447 47.4428 40.1654 47.7099 40.9808 47.1407C42.5085 46.0734 42.8614 43.5139 41.7183 42.8625Z" fill="#3588AC"/>
<path d="M41.2594 42.8162C40.4693 42.4688 38.7005 43.8202 38.5216 45.2963C38.3257 46.9185 40.131 46.9569 40.7653 46.4062C41.9546 45.3748 42.2774 43.2636 41.2594 42.8162Z" fill="#14192B"/>
<path d="M30.1333 47.3417C30.4125 46.4968 30.9916 46.6341 32.0701 46.8256C33.1483 47.0171 34.7398 46.0753 36.2262 46.5989C37.9138 47.1934 37.7938 49.9519 37.4208 50.6291C37.0477 51.3062 35.8074 50.877 35.8074 50.877C35.8701 51.5534 35.2215 52.7225 34.4504 52.6987C33.4201 52.6652 32.8739 51.7955 32.1471 50.6298C31.3604 49.3695 29.8046 48.3343 30.1333 47.3417Z" fill="#F9B00C"/>
<path d="M34.5505 47.0903C33.7076 47.7857 35.8432 49.9135 36.8728 49.7088C37.5772 49.5686 37.6009 48.0203 37.1915 47.4702C36.7821 46.9192 35.139 46.6038 34.5505 47.0903Z" fill="#F9E62A"/>
<path d="M32.9983 48.0621C33.5551 47.8975 33.9 48.759 33.5134 48.9111C33.1266 49.0638 32.2413 48.2862 32.9983 48.0621Z" fill="#D6621D"/>
<path d="M35.4132 50.8612C33.9273 50.5552 31.5144 49.2553 31.2744 47.8645C31.7605 47.4379 30.4419 47.0728 30.7769 47.7447C30.9391 48.0693 31.7583 49.2485 32.8464 50.027C33.4317 51.0048 33.6049 51.9277 34.4506 52.0396C35.1033 52.1256 35.4132 50.8612 35.4132 50.8612Z" fill="#701E18"/>
<path d="M34.2811 50.8554C33.2877 50.1995 33.639 51.5823 34.4156 51.6744C35.1921 51.7666 35.1326 50.6796 34.2811 50.8554Z" fill="#B5292E"/>
<path d="M27.952 37.9066C26.4514 36.1004 22.5773 38.3745 24.0264 40.7781C25.7066 43.5658 29.8324 40.1699 27.952 37.9066Z" fill="#14192B"/>
<path d="M30.2565 41.9613C30.4823 37.6037 27.6289 35.8296 24.8524 37.0255C23.4641 36.7559 23.1819 35.7917 23.2655 34.7884C22.8088 35.7526 23.4254 37.6477 24.8137 37.9124C27.4472 36.5807 30.1848 38.2979 30.2565 41.9613Z" fill="#100F0D"/>
<path d="M38.5068 44.9142C39.9022 41.6324 42.1845 40.8711 43.027 43.7884C43.5325 43.9648 44.6628 43.8156 44.927 42.7843C44.9032 43.8684 43.4893 44.8843 42.5975 44.3523C42.3547 41.6081 39.2277 43.2427 38.5068 44.9142Z" fill="#100F0D"/>
<path d="M27.1279 41.0739C27.6152 40.8418 28.5549 42.4822 27.6678 42.7617C26.781 43.0407 26.4219 41.4106 27.1279 41.0739Z" fill="white"/>
<path d="M40.1674 46.1878C40.6056 45.9421 41.5164 47.5532 40.7143 47.8584C39.9119 48.1637 39.5325 46.5442 40.1674 46.1878Z" fill="white"/>
<path d="M25.1999 38.3745C24.7755 38.2206 24.4285 38.8482 24.9298 39.0742C25.4312 39.3005 25.6239 38.5297 25.1999 38.3745Z" fill="white"/>
<path d="M39.7232 43.9829C39.2988 43.829 38.9521 44.4558 39.4531 44.6821C39.9544 44.9089 40.1474 44.1372 39.7232 43.9829Z" fill="white"/>
<path d="M24.8719 37.4873C23.4555 37.7019 22.4248 37.0877 22.3374 36.3744C22.3935 37.4714 23.7241 38.7882 24.8719 37.4873Z" fill="#100F0D"/>
<path d="M42.5977 44.0436C43.8455 44.7439 44.8309 44.7368 45.0929 44.0682C44.7661 45.1162 43.3859 45.5892 42.5977 44.0436Z" fill="#100F0D"/>
<path d="M22.3227 18.1487C20.1695 18.6421 18.5625 21.7331 22.3816 22.2036C26.2008 22.6733 29.9404 24.1628 30.3915 27.12C29.608 21.9013 27.1995 17.0324 22.3227 18.1487Z" fill="#EF2E76"/>
<path d="M30.6279 18.3254C28.6907 19.5631 33.5801 24.5157 32.7107 27.4426C36.5368 23.6387 33.9389 16.2096 30.6279 18.3254Z" fill="#EF2E76"/>
<path d="M28.0262 26.7214C24.7256 22.4137 17.2144 23.6263 18.5199 27.7642C19.8266 31.9025 24.4984 25.2587 28.0262 26.7214Z" fill="#EF2E76"/>
<path d="M31.2665 18.8198C29.1331 20.0339 33.0471 22.3449 33.2788 24.3672C34.7231 21.3049 34.0302 17.2486 31.2665 18.8198Z" fill="#F9B00C"/>
<path d="M19.1224 27.4183C20.5403 29.2031 22.1429 25.5343 23.9663 25.0346C20.9502 24.1438 17.2857 25.1043 19.1224 27.4183Z" fill="#F9B00C"/>
<path d="M21.1428 19.8273C20.2055 22.2734 25.2264 20.6914 27.173 21.7528C25.3495 18.5488 22.3817 16.5934 21.1428 19.8273Z" fill="#F9B00C"/>
<path d="M21.4616 19.1645C20.4541 20.2281 22.8813 21.09 23.8005 19.9605C24.7197 18.83 22.5596 18.007 21.4616 19.1645Z" fill="#1B284B"/>
<path d="M31.8714 18.6553C30.9071 18.8991 30.9563 20.9213 32.4536 20.4916C33.9503 20.064 33.3504 18.2799 31.8714 18.6553Z" fill="#1B284B"/>
<path d="M18.9142 27.12C18.3256 26.0314 20.4496 24.8441 20.6812 26.3048C20.9124 27.7657 19.3388 27.9041 18.9142 27.12Z" fill="#1B284B"/>
<path d="M33.3539 32.681C32.5772 31.8111 31.279 33.6168 32.1293 34.0023C32.9795 34.388 33.9733 33.3745 33.3539 32.681Z" fill="#2F67B4"/>
<path d="M40.1759 36.103C39.2854 35.8095 39.1666 37.2314 39.942 37.4922C40.7172 37.7535 40.9075 36.3434 40.1759 36.103Z" fill="#2F67B4"/>
<path d="M35.2494 32.4166C34.0326 32.4292 33.4211 33.7164 34.8929 33.7607C36.3644 33.8052 36.4657 32.4037 35.2494 32.4166Z" fill="#2F67B4"/>
<path d="M29.8433 31.3634C28.9435 31.3792 28.8777 33.1863 30.1004 33.1178C31.3225 33.0487 31.7689 31.3288 29.8433 31.3634Z" fill="#234D95"/>
<path d="M33.142 30.5613C34.5552 30.3046 35.2747 32.0238 33.8722 32.2362C32.4696 32.4474 31.3241 30.8916 33.142 30.5613Z" fill="#234D95"/>
<path d="M31.3551 29.9872C30.7942 30.0577 30.5621 31.1194 31.3551 31.0008C32.1482 30.8821 33.0043 29.7813 31.3551 29.9872Z" fill="#234D95"/>
<path d="M39.2391 33.4892C38.5197 32.8568 38.247 33.7116 38.7494 34.3363C39.252 34.9605 40.4876 34.5866 39.2391 33.4892Z" fill="#234D95"/>
<path d="M36.4417 31.2253C35.259 30.7453 34.3384 31.8835 35.9433 32.5896C37.5482 33.2971 38.3464 31.9985 36.4417 31.2253Z" fill="#234D95"/>
<path d="M38.322 33.2326C37.3043 32.7579 36.1591 33.5125 37.6722 34.231C39.1858 34.9502 39.1309 33.61 38.322 33.2326Z" fill="#2F67B4"/>
<path d="M35.0131 33.6102C33.3694 33.1192 32.5295 35.1622 34.238 35.5618C35.9461 35.9623 36.3583 34.0137 35.0131 33.6102Z" fill="#3C80CB"/>
<path d="M37.9438 34.1503C36.8218 33.8237 35.5499 35.7992 37.3472 36.2262C39.1442 36.6536 39.6072 34.6333 37.9438 34.1503Z" fill="#3C80CB"/>
<path d="M37.1153 37.0544C36.2707 36.8799 35.5068 38.2165 36.811 38.4792C38.1153 38.7412 38.3152 37.3019 37.1153 37.0544Z" fill="#3C80CB"/>
<path d="M18.4693 62.3797C17.4652 62.3861 16.9744 64.2178 18.5619 64.3726C20.1491 64.5265 19.6935 62.372 18.4693 62.3797Z" fill="#234D95"/>
<path d="M20.3067 65.8783C19.7177 65.8378 19.1474 67.8034 20.5233 67.6714C21.8985 67.5387 22.0767 66.0011 20.3067 65.8783Z" fill="#234D95"/>
<path d="M20.2507 57.8227C19.5826 57.3822 18.3737 58.9091 19.6775 59.4028C20.9812 59.8964 21.3542 58.5516 20.2507 57.8227Z" fill="#234D95"/>
<path d="M22.2342 69.5737C21.0275 69.2324 20.3957 71.591 22.4205 72.2139C24.4457 72.8372 24.288 70.1546 22.2342 69.5737Z" fill="#234D95"/>
<path d="M15.6978 57.3203C12.593 56.6788 11.236 63.7295 14.5274 64.2781C17.8185 64.8261 17.5179 57.6972 15.6978 57.3203Z" fill="#2F67B4"/>
<path d="M14.4004 63.3583C12.9216 63.369 12.5802 65.9416 14.8997 65.9659C16.9846 65.9875 15.9113 63.3469 14.4004 63.3583Z" fill="#2F67B4"/>
<path d="M15.7911 54.966C16.7688 54.7988 17.4875 57.2002 15.7881 57.6843C14.0887 58.1678 14.2156 55.2341 15.7911 54.966Z" fill="#2F67B4"/>
<path d="M17.621 58.1909C16.8174 58.0769 16.4974 59.1347 17.6127 59.3887C18.7281 59.6432 18.425 58.3058 17.621 58.1909Z" fill="#2F67B4"/>
<path d="M17.6667 60.6484C16.4591 60.4796 16.7847 62.0555 17.6667 62.2599C18.5492 62.4642 18.6185 60.7814 17.6667 60.6484Z" fill="#2F67B4"/>
<path d="M15.8701 67.6994C15.1775 67.8326 15.1026 69.3568 16.0572 69.2469C17.0119 69.1361 17.0754 67.4678 15.8701 67.6994Z" fill="#2F67B4"/>
<path d="M13.8394 66.3473C12.9202 66.5013 13.073 68.2842 14.0284 68.0615C14.9834 67.8389 15.2314 66.1141 13.8394 66.3473Z" fill="#2F67B4"/>
<path d="M14.9046 70.5094C14.2381 70.7534 14.3252 71.6452 15.0886 71.6717C15.8519 71.6979 15.5713 70.2661 14.9046 70.5094Z" fill="#2F67B4"/>
<path d="M17.5549 64.3388C16.4695 64.2334 16.294 66.2162 17.5549 66.2787C18.8158 66.3416 18.9687 64.4764 17.5549 64.3388Z" fill="#2F67B4"/>
<path d="M53.4727 81.9692C54.4661 82.1604 57.3701 82.0656 57.3701 82.0656C56.2236 82.5043 53.5038 82.543 53.5038 82.543" fill="#253671"/>
<path d="M53.4087 80.0252C55.2683 79.0269 57.1766 77.9497 57.1766 77.9497C56.3003 79.3329 53.5244 80.4678 53.5244 80.4678" fill="#253671"/>
<path d="M53.4086 84.2799C54.9624 84.7964 56.8228 85.2886 56.8228 85.2886C55.6124 85.3696 53.1982 84.7843 53.1982 84.7843" fill="#253671"/>
<path d="M52.1768 79.1436C52.6697 77.7662 54.8227 75.2821 54.8227 75.2821C53.778 76.8107 52.5924 79.34 52.5924 79.34" fill="#253671"/>
</svg>
