<svg width="128" height="128" viewBox="0 0 128 128" fill="none" xmlns="http://www.w3.org/2000/svg">
<path d="M85.5764 34C84.9872 35.5461 84.5204 37.6697 82.43 37.1461C84.6627 38.6304 84.8978 40.1755 81.8396 40.1941C84.0096 41.5477 80.8636 40.0858 82.2337 44.373C82.0092 45.4988 81.509 44.0913 81.1516 43.9308C81.1518 43.9306 80.611 45.5038 80.611 45.5038C81.662 46.2764 80.574 48.0505 81.9876 49.2892C81.9876 49.2892 79.9226 49.879 79.7262 47.4211C78.235 48.28 76.8857 45.5409 75.5417 46.1219C75.9733 47.2842 77.6063 47.479 78.4035 48.3451C78.7621 49.0793 77.1264 48.7358 76.7274 48.6993C76.7272 48.6993 77.6121 50.2723 77.6121 50.2723C75.9791 49.3693 72.7892 43.1825 74.2199 48.6502L72.3518 48.6011L74.5149 50.283H72.3518C72.7337 51.2208 73.66 52.1785 72.3516 52.7797C77.2072 52.6988 73.1886 53.9473 72.3523 55.73C73.7334 56.5956 75.5215 56.4798 76.8227 57.3665C78.0501 58.653 75.3392 57.9378 75.0559 57.1549C74.7188 58.6703 75.3762 61.1234 72.7454 61.4817C73.6888 62.4399 78.1234 61.3378 75.0042 63.4811C71.6072 62.3742 73.636 62.6302 70.582 64.284C70.582 64.2835 72.5977 65.5195 71.6146 67.507C74.6714 66.9131 74.743 68.8651 71.221 68.3143C71.1597 69.0089 73.7242 69.5666 74.1216 69.7898C73.1644 70.6246 73.0091 70.7178 74.3678 71.1169C74.5833 72.7202 72.1406 70.2253 71.0242 70.9698C71.0244 70.9696 71.5651 72.9362 71.5651 72.9362C71.5651 72.9362 69.5496 73.9685 69.5988 71.6088C69.5988 71.6088 66.649 70.4288 66.7475 72.1004L67.6322 73.821C65.3239 75.709 69.1716 76.7563 71.172 76.5245C68.9003 78.4107 72.0849 79.7985 71.3203 80.5562C71.0769 80.6897 70.3076 80.8051 71.0738 81.1458C71.0735 81.146 73.3349 80.7527 73.3349 80.7527L72.4501 81.7853C74.7185 80.9606 75.4548 82.8944 77.3664 81.4413C77.3664 81.4411 78.497 81.8835 76.678 83.2109C76.7514 83.6856 77.3443 83.8466 77.7429 83.8766C80.4687 82.9831 81.729 84.567 84.7405 84.1459C84.7972 86.2046 84.1258 86.8909 86.8054 86.6026C86.1795 84.4277 89.4405 82.3099 91.0334 84.1449C92.0355 82.6712 94.2032 84.3911 95.0647 83.2606C95.0647 83.2601 92.5082 82.621 92.5082 82.621C92.573 82.3235 96.542 83.0514 95.9985 82.2277C95.9988 82.2277 93.344 81.6868 93.344 81.6868C94.4297 80.1485 96.8584 81.5955 98.3584 81.7848C99.0126 81.0735 99.9471 81.1055 100.711 81.585C103.833 80.7278 97.5279 79.7605 96.3923 79.8196C96.3921 79.8187 102.881 78.4913 102.881 78.4913C102.055 76.56 100.11 78.3358 98.7026 78.1965C99.3127 77.1778 100.204 75.5667 101.603 75.8366C101.989 75.9502 102.4 75.9684 102.257 75.4503C101.906 73.1211 96.7083 75.7444 97.7192 72.9362C95.4353 73.1334 96.13 72.8661 97.0805 71.412C94.398 69.8881 97.2727 70.6669 98.2271 70.3623C99.5934 67.2464 101.001 69.1919 101.751 65.906C97.4443 64.7109 101.609 64.2634 101.456 62.1202C100.55 62.7168 91.9882 65.4804 94.3014 62.8793C95.7138 62.7297 95.1707 61.8516 94.3269 61.2355C94.3272 61.2355 93.7374 61.9239 93.7374 61.9239C91.39 64.053 95.2295 57.1453 94.6595 55.9301C94.8241 55.5481 95.2006 55.2898 95.5573 55.1049C98.1911 54.2552 93.085 55.37 93.0492 55.2377C93.5433 54.5288 95.4233 54.2043 96.1955 54.058C92.8479 52.5733 96.3117 52.8578 96.2442 49.5348C92.1217 53.1236 87.5716 52.5479 94.5235 49.1901C93.5809 48.7387 92.511 48.5617 91.6724 49.3389C91.251 48.5625 90.1942 48.7936 89.509 48.9944C89.1054 48.5623 88.2681 48.0447 87.6409 48.1094C87.6412 48.1092 90.9349 44.8647 90.9349 44.8647L90.1483 43.6355L86.2155 47.0277C85.727 45.873 87.4628 44.8601 85.7731 44.4224C85.7731 44.4221 87.2479 40.1944 87.2479 40.1944C83.2447 41.6716 86.0936 39.6449 86.4116 37.8834C84.4084 38.7708 85.8285 34.7785 85.5764 34Z" fill="#083F3C"/>
<path d="M101.129 46.2802C100.676 47.4672 100.318 49.0971 98.7133 48.6953C100.427 49.8347 100.608 51.0208 98.2602 51.035C99.926 52.0742 97.5111 50.952 98.5629 54.2429C98.3905 55.1069 98.0065 54.0265 97.7321 53.9032C97.7324 53.9032 97.3171 55.1106 97.3171 55.1106C98.1239 55.7038 97.2887 57.0656 98.3739 58.0163C98.3739 58.0166 96.7888 58.4694 96.6378 56.5824C95.4934 57.2418 94.4576 55.1392 93.426 55.5851C93.7573 56.4773 95.0108 56.6271 95.6226 57.2919C95.8978 57.8554 94.6422 57.5918 94.3361 57.5636C94.3358 57.5636 95.0151 58.7712 95.0151 58.7712C93.7616 58.0781 91.313 53.329 92.4113 57.5261L90.9773 57.4883L92.6378 58.7793H90.9773C91.2704 59.4992 91.9815 60.2344 90.977 60.6958C94.7044 60.6338 91.6196 61.5923 90.9775 62.9605C92.0379 63.6249 93.4103 63.536 94.4091 64.2168C95.3513 65.2042 93.2703 64.6552 93.053 64.0543C92.7943 65.2174 93.299 67.1006 91.2794 67.3755C92.0033 68.111 95.4077 67.2651 93.0135 68.9102C90.4059 68.0608 91.9633 68.2571 89.6187 69.5267C89.6187 69.5263 91.166 70.475 90.4112 72.0006C92.7578 71.5448 92.8127 73.043 90.1093 72.6204C90.0625 73.1536 92.0308 73.5815 92.3359 73.753C91.6012 74.3938 91.4821 74.4653 92.5247 74.7717C92.6902 76.0023 90.815 74.0872 89.9581 74.6586C89.9583 74.6586 90.3736 76.1682 90.3736 76.1682C90.3736 76.1682 88.8263 76.9606 88.8641 75.1492C88.8641 75.1492 86.5999 74.2434 86.6752 75.5266L87.3545 76.8472C85.5827 78.2965 88.5363 79.1003 90.0717 78.9224C88.3279 80.3704 90.7725 81.4358 90.1854 82.0174C89.9987 82.1199 89.408 82.2086 89.9961 82.4698C89.9961 82.4701 91.732 82.1683 91.732 82.1683L91.0526 82.9607C92.7941 82.3278 93.3592 83.8121 94.8266 82.6966C94.8264 82.6966 95.6945 83.0363 94.2983 84.055C94.3545 84.4194 94.8095 84.5431 95.1154 84.566C97.208 83.8802 98.1753 85.0959 100.487 84.7729C100.53 86.353 100.015 86.8798 102.072 86.6586C101.592 84.989 104.095 83.3634 105.318 84.7721C106.087 83.6408 107.751 84.9611 108.412 84.0933C108.412 84.0928 106.449 83.6022 106.449 83.6022C106.499 83.374 109.546 83.9328 109.129 83.3004C109.129 83.3004 107.091 82.8854 107.091 82.8854C107.925 81.7044 109.789 82.8153 110.94 82.9605C111.442 82.4144 112.16 82.4388 112.746 82.8071C115.143 82.1491 110.303 81.4066 109.431 81.4519C109.431 81.4511 114.412 80.4324 114.412 80.4324C113.778 78.9499 112.285 80.3131 111.204 80.206C111.673 79.4241 112.357 78.1872 113.431 78.3946C113.727 78.4818 114.043 78.4955 113.933 78.098C113.664 76.31 109.674 78.3238 110.45 76.1682C108.697 76.3196 109.23 76.1142 109.959 74.998C107.9 73.8284 110.107 74.4263 110.84 74.1925C111.888 71.8006 112.968 73.294 113.544 70.7717C110.239 69.8543 113.436 69.5109 113.318 67.8658C112.623 68.3236 106.05 70.4452 107.826 68.4483C108.91 68.3337 108.493 67.6594 107.846 67.1865C107.846 67.1868 107.393 67.7148 107.393 67.7148C105.591 69.3494 108.539 64.0467 108.101 63.114C108.227 62.8208 108.516 62.6226 108.79 62.4807C110.812 61.8284 106.892 62.684 106.865 62.5826C107.244 62.0386 108.687 61.7894 109.28 61.6772C106.71 60.5376 109.369 60.7558 109.317 58.2051C106.153 60.9598 102.66 60.5179 107.997 57.9402C107.273 57.5941 106.452 57.458 105.808 58.0546C105.484 57.4587 104.673 57.6359 104.148 57.7903C103.838 57.4585 103.195 57.0611 102.714 57.111C102.714 57.1108 105.242 54.6201 105.242 54.6201L104.638 53.6767L101.619 56.2806C101.244 55.3941 102.577 54.6168 101.28 54.2807C101.28 54.2804 102.412 51.035 102.412 51.035C99.3387 52.1692 101.526 50.6136 101.77 49.2612C100.232 49.9423 101.322 46.8781 101.129 46.2802Z" fill="#083F3C"/>
<mask id="mask0_25_100" style="mask-type:alpha" maskUnits="userSpaceOnUse" x="32" y="53" width="40" height="31">
<path d="M32.9346 53.5172H71.4605V83.7786H32.9346V53.5172Z" fill="black"/>
</mask>
<g mask="url(#mask0_25_100)">
<mask id="mask1_25_100" style="mask-type:alpha" maskUnits="userSpaceOnUse" x="32" y="53" width="40" height="31">
<path d="M32.9551 78.7811C32.9551 78.7811 36.6137 55.61 57.1715 53.5195C57.1715 53.5195 66.2308 58.9202 71.4574 82.6137C71.4574 82.6137 44.4537 86.9692 32.9551 78.7811Z" fill="black"/>
</mask>
<g mask="url(#mask1_25_100)">
<mask id="mask2_25_100" style="mask-type:alpha" maskUnits="userSpaceOnUse" x="32" y="53" width="40" height="31">
<path d="M32.9551 78.7811C32.9551 78.7811 36.6137 55.61 57.1715 53.5195C57.1715 53.5195 66.2308 58.9202 71.4574 82.6137C71.4574 82.6137 44.4537 86.9692 32.9551 78.7811Z" fill="black"/>
</mask>
<g mask="url(#mask2_25_100)">
<path d="M78.0664 54.8807L34.522 45.9122L26.3462 85.6081L69.8906 94.5765L78.0664 54.8807Z" fill="url(#paint0_linear_25_100)"/>
</g>
</g>
</g>
<path d="M71.4574 82.6135C71.4574 82.6135 44.4534 86.9691 32.9551 78.7811C32.9551 78.7811 33.4359 75.7368 35.0278 71.7552C35.0921 71.595 35.1578 71.4329 35.2258 71.2694C38.1175 64.3034 44.366 54.8216 57.1713 53.5192C57.1713 53.5192 63.9568 57.5646 69.1708 74.0113C69.2272 74.1889 69.2829 74.3681 69.3388 74.5485C70.0884 76.9669 70.8028 79.6468 71.4574 82.6135Z" fill="#EA8E50"/>
<path d="M87.3113 78.4325C83.1299 76.3418 71.4575 82.6135 71.4575 82.6135C70.9339 79.7554 70.2035 77.0586 69.3475 74.5457C69.286 74.3645 69.2235 74.1846 69.1605 74.0058C64.717 61.3623 57.1714 53.5192 57.1714 53.5192C66.9518 54.3432 75.6983 62.8932 81.2169 69.7506C81.3966 69.9735 81.5727 70.1948 81.7451 70.4137C85.246 74.8581 87.3113 78.4325 87.3113 78.4325Z" fill="#DB722C"/>
<path d="M71.4571 82.8438C71.3478 82.8438 71.2508 82.7662 71.2307 82.6548C68.0578 65.3342 57.1154 53.7939 57.0053 53.6792C56.9171 53.5878 56.9198 53.4416 57.0116 53.3534C57.1035 53.2644 57.2494 53.2678 57.3376 53.3597C57.4485 53.4749 68.4855 65.11 71.6839 82.5722C71.7068 82.6971 71.624 82.8174 71.4988 82.84C71.4846 82.8428 71.4707 82.8438 71.4571 82.8438Z" fill="#6F2808"/>
<path d="M81.745 70.4136C81.6681 70.4752 81.5578 70.4818 81.4716 70.4235C77.6936 67.8406 69.4973 74.4404 69.4149 74.5074C69.3942 74.5243 69.3716 74.5374 69.3474 74.5457C69.3444 74.5465 69.3416 74.5475 69.3388 74.5485C69.3167 74.5556 69.2933 74.5591 69.2695 74.5591C69.2312 74.5591 69.1927 74.5498 69.1577 74.5304C53.9904 66.1285 35.3688 71.704 35.183 71.7617C35.1299 71.7783 35.0755 71.7749 35.0278 71.7552C35.0921 71.5949 35.1579 71.4329 35.2259 71.2694C37.1807 70.716 54.6678 66.1214 69.1605 74.0058C69.1637 74.0077 69.1675 74.0095 69.1708 74.0113C69.196 74.0249 69.2207 74.039 69.2459 74.0523C70.291 73.2242 77.2501 67.9026 81.2169 69.7506C81.3965 69.9735 81.5727 70.1948 81.745 70.4136Z" fill="#6F2808"/>
<path d="M81.2177 69.754C77.3991 67.9721 70.8134 72.8311 69.3926 73.9378L69.157 74.0045C64.7143 61.3589 57.1709 53.5212 57.1709 53.5212C66.9513 54.3455 75.6996 62.8975 81.2177 69.754Z" fill="#DB722C"/>
<mask id="mask3_25_100" style="mask-type:alpha" maskUnits="userSpaceOnUse" x="69" y="73" width="1" height="2">
<path d="M69.1426 73.9266H69.3945V74.0526H69.1426V73.9266Z" fill="black"/>
</mask>
<g mask="url(#mask3_25_100)">
<mask id="mask4_25_100" style="mask-type:alpha" maskUnits="userSpaceOnUse" x="69" y="73" width="1" height="2">
<path d="M69.1567 74.0045L69.3924 73.9378C69.3333 73.9808 69.2863 74.0201 69.2472 74.0516C69.2157 74.0357 69.1882 74.0201 69.1567 74.0045Z" fill="black"/>
</mask>
<g mask="url(#mask4_25_100)">
<mask id="mask5_25_100" style="mask-type:alpha" maskUnits="userSpaceOnUse" x="69" y="73" width="1" height="2">
<path d="M69.1567 74.0045L69.3924 73.9378C69.3333 73.9808 69.2863 74.0201 69.2472 74.0516C69.2157 74.0357 69.1882 74.0201 69.1567 74.0045Z" fill="black"/>
</mask>
<g mask="url(#mask5_25_100)">
<path d="M69.1589 73.914L69.145 74.0505L69.3897 74.0754L69.4036 73.9389L69.1589 73.914Z" fill="url(#paint1_linear_25_100)"/>
</g>
</g>
</g>
<path d="M42.6846 82.6137C42.6846 82.6137 50.551 71.949 59.2621 83.771C59.2621 83.771 45.2708 84.2686 42.6846 82.6137Z" fill="#6F2808"/>
<path d="M50.9731 69.8256C50.9495 69.8256 50.9249 69.8221 50.9013 69.814C50.7804 69.7745 50.7146 69.6442 50.7542 69.5232L54.6876 57.5416C54.7274 57.4205 54.8574 57.3529 54.9784 57.3948C55.0994 57.4343 55.1654 57.5645 55.1255 57.6858L51.1924 69.6674C51.1603 69.7641 51.0701 69.8256 50.9731 69.8256Z" fill="#6F2808"/>
<path d="M103.64 66.5386L101.196 86.993L94.5757 86.5223L96.4516 65.979L103.64 66.5386Z" fill="#BF4413"/>
<path d="M98.1693 83.703C99.9957 83.8726 101.35 85.3776 101.193 87.0645C101.037 88.7514 99.4291 89.9815 97.6023 89.812C95.7756 89.6424 94.4217 88.1376 94.5782 86.4507C94.7349 84.7635 96.3425 83.5334 98.1693 83.703Z" fill="#BF4413"/>
<path d="M100.376 63.0764C102.379 63.2624 103.863 64.9228 103.69 66.7856C103.517 68.6482 101.753 70.0075 99.7499 69.8215C97.7466 69.6359 96.2627 67.9752 96.4356 66.1124C96.6084 64.2498 98.3725 62.8904 100.376 63.0764Z" fill="#A8360E"/>
<path d="M98.2667 69.3164L96.188 89.3726" stroke="#912807" stroke-width="2.81111" stroke-miterlimit="10" stroke-linecap="round" stroke-linejoin="round"/>
<path d="M100.582 66.4149C101.097 67.7935 99.925 67.955 99.3368 67.3357C98.0936 65.8382 99.7599 64.4829 100.951 65.3791C101.563 66.0234 101.994 67.4309 101.177 68.0727C99.3799 69.2592 98.0125 67.6627 97.7557 66.4296C97.4612 65.0145 99.7314 62.9081 101.595 64.3005C106.543 68.56 97.79 71.9447 96.5894 65.7493" stroke="#912807" stroke-width="2.81111" stroke-miterlimit="10" stroke-linecap="round" stroke-linejoin="round"/>
<path d="M102.954 72.0296C102.954 72.0296 99.4082 73.7848 96.126 71.0935" stroke="#912807" stroke-width="11.8885" stroke-miterlimit="10" stroke-linecap="round" stroke-linejoin="round"/>
<path d="M101.685 83.1865C101.685 83.1865 98.1391 84.9417 94.8569 82.2504" stroke="#912807" stroke-width="11.8885" stroke-miterlimit="10" stroke-linecap="round" stroke-linejoin="round"/>
<path d="M82.7498 78.2295C82.7498 78.2295 82.0705 86.479 82.4951 87.7625C82.4951 87.7625 82.3215 88.781 84.9518 89.0533C87.5821 89.3256 94.5379 89.4597 95.8189 88.179C97.0999 86.898 96.4738 77.4285 96.4738 77.4285L82.7498 78.2295Z" fill="#DE8818"/>
<path d="M82.1589 74.2935C82.1589 74.2935 81.8746 76.138 82.1181 76.9785C82.1181 76.9785 82.7573 78.3517 83.2424 78.4359L82.1589 74.2935Z" fill="#DE8818"/>
<path d="M83.1795 78.3524C83.1795 78.3524 82.0885 74.9571 82.2217 74.3555C82.3551 73.7538 96.5074 72.568 96.5074 72.568C96.5074 72.568 97.0035 76.9092 96.3516 78.0244C96.3516 78.0244 86.2364 78.7916 83.1795 78.3524Z" fill="#EB9D39"/>
<path d="M81.7012 74.7092C81.7012 74.7092 81.9302 72.032 82.2631 71.191C82.5962 70.35 82.4714 67.7353 82.4714 67.7353C82.4714 67.7353 82.5879 67.1522 83.0336 66.5903C83.479 66.0282 90.0073 66.7068 92.3393 66.0697C93.7158 65.6939 96.4612 66.611 96.4612 66.611C96.4612 66.611 97.325 73.6669 97.1226 74.2935C97.1226 74.2935 83.0965 75.0007 81.7012 74.7092Z" fill="#EDAB4F"/>
<path d="M84.0944 83.1469C84.0944 83.1469 83.9587 87.7385 84.2267 88.1225C84.2267 88.1225 93.186 88.5912 94.6731 87.9908C94.6731 87.9908 95.1501 83.5883 94.9064 82.9124C94.6627 82.2366 84.0944 83.1469 84.0944 83.1469Z" fill="#EB9D39"/>
<path d="M83.7422 78.9786C83.7422 78.9786 94.7743 78.6762 95.2102 78.6129C95.2102 78.6129 95.6776 81.9982 95.304 83.4785C95.304 83.4785 87.8875 85.0296 84.0208 83.3084C84.0208 83.3084 83.1449 80.5494 83.7422 78.9786Z" fill="#EB9D39"/>
<path d="M82.958 79.4491L82.7886 78.8259C82.7886 78.8259 81.7191 78.1927 81.5191 79.1106L81.1421 79.9645L81.4729 81.1189L81.6422 79.6491L82.958 79.4491Z" fill="#BF710B"/>
<path d="M80.5382 82.2555C80.5382 82.2555 79.8494 86.4475 80.3313 88.0613C80.8136 89.6751 81.6655 90.0576 82.3884 89.8026L82.5874 89.3695C82.5874 89.3695 81.1581 89.4894 81.1581 87.1461C81.1581 84.8028 81.2664 84.5778 81.2664 84.5778L80.5382 82.2555Z" fill="#051A49"/>
<path d="M82.2894 89.8326L83.1358 89.5766C83.1358 89.5766 83.642 89.2793 83.4212 88.6222C83.2006 87.965 82.7815 87.0574 82.7815 87.0574L81.9648 87.0771C81.9648 87.0771 82.7596 88.859 82.5847 89.3012L82.2894 89.8326Z" fill="#21398E"/>
<path d="M83.0439 79.4556L81.5826 79.6226C81.5826 79.6226 81.2077 86.4235 81.7635 87.1514L83.1552 87.3462C83.1552 87.3462 82.5784 79.6478 83.0439 79.4556Z" fill="#EB9D39"/>
<path d="M81.7622 87.0705C81.7622 87.0705 80.6458 85.376 80.7123 84.3627C80.7123 84.3627 80.2928 80.5728 80.5684 79.8867L81.5964 80.7376L81.7622 87.0705Z" fill="#EDAB4F"/>
<path d="M82.0556 75.7539C82.0556 75.7539 82.0695 77.4942 83.0019 78.1542L82.8359 78.8471C82.8359 78.8471 81.7529 78.4441 81.4602 79.4908C81.1676 80.5375 81.4407 81.1105 81.4407 81.1105C81.4407 81.1105 80.2955 80.0117 80.5725 79.1983C80.5725 79.1983 80.3629 76.304 82.0556 75.7539Z" fill="#DE8818"/>
<path d="M80.6443 79.1815C80.6443 79.1815 79.9057 80.3176 79.8546 80.9144C79.8037 81.5112 79.1291 83.6017 78.9827 83.7111C78.8364 83.8207 78.9716 84.5337 79.394 84.0401C79.8163 83.5465 80.1557 82.5558 80.1836 82.2086C80.2116 81.8614 80.6498 79.9766 80.6498 79.9766L80.6443 79.1815Z" fill="#051A49"/>
<path d="M95.3037 83.506C95.3037 83.506 87.8872 85.0568 84.0205 83.3357" stroke="#051A49" stroke-width="3.54525" stroke-miterlimit="10" stroke-linecap="round" stroke-linejoin="round"/>
<path d="M96.3369 79.2973L96.5062 78.674C96.5062 78.674 97.5759 78.0408 97.7759 78.9587L98.1529 79.8129L97.8221 80.9669L97.6527 79.4974L96.3369 79.2973Z" fill="#BF710B"/>
<path d="M98.7568 82.1035C98.7568 82.1035 99.4457 86.2955 98.9637 87.9094C98.4814 89.5232 97.6295 89.9058 96.9066 89.6509L96.7075 89.2179C96.7075 89.2179 98.1369 89.3375 98.1369 86.9942C98.1369 84.6509 98.0287 84.4259 98.0287 84.4259L98.7568 82.1035Z" fill="#051A49"/>
<path d="M97.0054 89.6807L96.1591 89.425C96.1591 89.425 95.6529 89.1274 95.8736 88.4705C96.0946 87.8133 96.5134 86.9058 96.5134 86.9058L97.3302 86.9254C97.3302 86.9254 96.5352 88.7071 96.7101 89.1493L97.0054 89.6807Z" fill="#21398E"/>
<path d="M96.2515 79.3039L97.7127 79.4709C97.7127 79.4709 98.0876 86.2718 97.5318 86.9998L96.1401 87.1945C96.1401 87.1945 96.7169 79.4961 96.2515 79.3039Z" fill="#EB9D39"/>
<path d="M97.5332 86.9187C97.5332 86.9187 98.6497 85.2242 98.5832 84.211C98.5832 84.211 99.0027 80.4211 98.7271 79.7348L97.699 80.5859L97.5332 86.9187Z" fill="#EDAB4F"/>
<path d="M96.5008 75.6637C96.5008 75.6637 96.785 77.3411 96.293 78.0025L96.459 78.6951C96.459 78.6951 97.542 78.2925 97.8347 79.3391C98.1272 80.3859 97.8541 80.9588 97.8541 80.9588C97.8541 80.9588 98.9996 79.8597 98.7224 79.0464C98.7224 79.0464 98.1936 76.2137 96.5008 75.6637Z" fill="#DE8818"/>
<path d="M98.651 79.0298C98.651 79.0298 99.3896 80.1659 99.4407 80.7626C99.4916 81.3594 100.166 83.4501 100.313 83.5594C100.459 83.6688 100.324 84.382 99.9013 83.8884C99.479 83.3948 99.1396 82.4039 99.1116 82.0569C99.0837 81.7097 98.6455 79.8247 98.6455 79.8247L98.651 79.0298Z" fill="#051A49"/>
<path d="M82.4824 67.8912C82.4824 67.8912 87.0808 69.7092 90.6981 68.4665C94.3151 67.2235 96.5074 67.1988 96.5074 67.1988" stroke="#56110C" stroke-width="3.54525" stroke-miterlimit="10" stroke-linecap="round" stroke-linejoin="round"/>
<path d="M84.9471 68.572C84.9471 68.572 83.9216 77.4421 83.4799 78.6186C83.0384 79.7947 82.8497 81.5895 83.75 81.3766C84.65 81.1634 84.6865 79.2694 84.7357 78.8063C84.7849 78.3432 85.0845 75.0728 85.2638 74.2877C85.4435 73.5023 86.2967 68.8538 86.2967 68.8538L84.9471 68.572Z" fill="#051A49"/>
<path d="M92.3838 67.9411C92.3838 67.9411 93.3251 76.5196 93.1538 77.7643C92.9824 79.0091 93.1122 81.5169 93.9434 81.1105C94.7744 80.7041 94.4743 78.133 94.4202 77.6706C94.366 77.208 93.9366 73.9523 93.9387 73.1468C93.9407 72.3412 93.7477 67.6189 93.7477 67.6189L92.3838 67.9411Z" fill="#051A49"/>
<path d="M84.0554 71.5063L85.9802 71.4241C85.9802 71.4241 86.1316 72.0097 85.9331 72.316H84.0083C84.0083 72.316 83.9282 71.6581 84.0554 71.5063Z" fill="#BB6D51"/>
<path d="M94.4048 71.2495L92.48 71.1673C92.48 71.1673 92.3286 71.7529 92.5272 72.0593H94.452C94.452 72.0593 94.5321 71.4014 94.4048 71.2495Z" fill="#BB6D51"/>
<path d="M88.8145 86.421V81.7939H90.3739V86.421C90.3739 86.7725 90.089 87.0574 89.7375 87.0574H89.451C89.0995 87.0574 88.8145 86.7725 88.8145 86.421Z" fill="#051A49"/>
<path d="M88.4653 84.7343C88.4653 84.7343 90.5007 84.6443 90.799 84.7582C91.0976 84.8719 90.7831 85.816 90.7831 85.816L88.4807 85.7936" fill="#BB6D51"/>
<path d="M22.4883 87.6226H14.6891C14.2381 87.6226 13.9088 88.049 14.0227 88.4854L14.6823 91.0141C14.7807 91.3903 15.1706 91.6108 15.5435 91.5009L21.7788 89.6624L22.4883 87.6226Z" fill="#56110C"/>
<path d="M22.4883 87.6226H14.6891C14.2381 87.6226 13.9088 87.8912 14.0227 88.1661L14.6823 89.7596C14.7807 89.9967 15.1706 90.1355 15.5435 90.0662L21.7788 88.9076L22.4883 87.6226Z" fill="#BB6D51"/>
<path d="M22.5576 87.6226H29.6345C30.4508 87.6226 31.047 88.3941 30.8409 89.1841L30.4193 90.8002C30.2906 91.2936 29.7794 91.5825 29.2903 91.4384L23.267 89.6624L22.5576 87.6226Z" fill="#56110C"/>
<path d="M22.5576 87.6226H29.6347C30.4508 87.6226 31.047 88.1502 30.8409 88.6902L30.4193 89.7953C30.2906 90.1327 29.7794 90.3306 29.2903 90.2317L23.267 89.0173L22.5576 87.6226Z" fill="#BB6D51"/>
<path d="M21.2137 87.5226L19.746 92.4751C19.5878 93.0087 20.057 93.5177 20.6015 93.4033L22.1672 93.075C22.4612 93.0135 22.7038 92.8068 22.812 92.5267L24.514 88.111L21.2137 87.5226Z" fill="#56110C"/>
<path d="M21.745 86.1332L20.3564 90.6704C20.2067 91.1593 20.6365 91.6214 21.1404 91.5132L22.5886 91.2028C22.8604 91.1443 23.0862 90.9542 23.1877 90.6971L24.7892 86.6493L21.745 86.1332Z" fill="#BB6D51"/>
<path d="M27.8898 81.4821L25.9603 82.9925C26.1533 81.2559 25.9603 78.7473 25.9603 78.7473L24.8695 79.1333C24.5505 76.8177 21.3291 73.9234 21.3291 73.9234C21.9081 75.4672 19.689 81.4489 19.689 81.4489L17.6629 79.9051L18.2417 83.9814H16.1191C16.6118 88.7981 19.3804 89.2639 21.3213 88.9711L21.311 88.9745C21.311 88.9745 21.311 88.9745 24.8695 89.041C28.428 89.1077 27.8898 81.4821 27.8898 81.4821Z" fill="#E55324"/>
<path d="M25.6915 84.5503L24.6387 85.3743C24.744 84.4266 24.6387 83.0582 24.6387 83.0582L24.0435 83.2686C23.8694 82.0053 22.1119 80.4261 22.1119 80.4261C22.4277 81.2685 21.217 84.5319 21.217 84.5319L20.1116 83.6899L20.4276 85.9137H19.2695C19.5381 88.5418 21.0487 88.796 22.1077 88.6363L22.1019 88.638C22.1019 88.638 22.1019 88.638 24.0435 88.6744C25.9853 88.7106 25.6915 84.5503 25.6915 84.5503Z" fill="#F9A541"/>
<defs>
<linearGradient id="paint0_linear_25_100" x1="58.3542" y1="50.8207" x2="50.1784" y2="90.5166" gradientUnits="userSpaceOnUse">
<stop stop-color="#F7CC9F"/>
<stop offset="0.125" stop-color="#F7CC9F"/>
<stop offset="0.140625" stop-color="#F7CC9F"/>
<stop offset="0.148437" stop-color="#F7CC9F"/>
<stop offset="0.152344" stop-color="#F7CA9D"/>
<stop offset="0.15625" stop-color="#F6CA9C"/>
<stop offset="0.160156" stop-color="#F6C99B"/>
<stop offset="0.164062" stop-color="#F6C89A"/>
<stop offset="0.167969" stop-color="#F6C799"/>
<stop offset="0.171875" stop-color="#F5C698"/>
<stop offset="0.175781" stop-color="#F5C597"/>
<stop offset="0.179687" stop-color="#F5C596"/>
<stop offset="0.183594" stop-color="#F5C495"/>
<stop offset="0.1875" stop-color="#F4C394"/>
<stop offset="0.191406" stop-color="#F4C293"/>
<stop offset="0.195312" stop-color="#F4C192"/>
<stop offset="0.199219" stop-color="#F4C091"/>
<stop offset="0.203125" stop-color="#F3BF90"/>
<stop offset="0.207031" stop-color="#F3BF8F"/>
<stop offset="0.210937" stop-color="#F3BE8E"/>
<stop offset="0.214844" stop-color="#F3BD8D"/>
<stop offset="0.21875" stop-color="#F2BC8C"/>
<stop offset="0.222656" stop-color="#F2BB8B"/>
<stop offset="0.226562" stop-color="#F2BA8A"/>
<stop offset="0.230469" stop-color="#F2BA89"/>
<stop offset="0.234375" stop-color="#F2B988"/>
<stop offset="0.238281" stop-color="#F1B887"/>
<stop offset="0.242187" stop-color="#F1B786"/>
<stop offset="0.246094" stop-color="#F1B685"/>
<stop offset="0.25" stop-color="#F1B584"/>
<stop offset="0.253906" stop-color="#F0B583"/>
<stop offset="0.257812" stop-color="#F0B482"/>
<stop offset="0.261719" stop-color="#F0B381"/>
<stop offset="0.265625" stop-color="#F0B280"/>
<stop offset="0.269531" stop-color="#EFB17F"/>
<stop offset="0.273438" stop-color="#EFB07E"/>
<stop offset="0.277344" stop-color="#EFB07D"/>
<stop offset="0.28125" stop-color="#EFAF7C"/>
<stop offset="0.285156" stop-color="#EEAE7B"/>
<stop offset="0.289062" stop-color="#EEAD7A"/>
<stop offset="0.292969" stop-color="#EEAC79"/>
<stop offset="0.296875" stop-color="#EEAB78"/>
<stop offset="0.300781" stop-color="#EDAB77"/>
<stop offset="0.304687" stop-color="#EDAA76"/>
<stop offset="0.308594" stop-color="#EDA975"/>
<stop offset="0.3125" stop-color="#EDA874"/>
<stop offset="0.316406" stop-color="#EDA773"/>
<stop offset="0.320312" stop-color="#ECA672"/>
<stop offset="0.324219" stop-color="#ECA671"/>
<stop offset="0.328125" stop-color="#ECA570"/>
<stop offset="0.332031" stop-color="#ECA46F"/>
<stop offset="0.335937" stop-color="#EBA36E"/>
<stop offset="0.339844" stop-color="#EBA26D"/>
<stop offset="0.34375" stop-color="#EBA16C"/>
<stop offset="0.347656" stop-color="#EBA16B"/>
<stop offset="0.351562" stop-color="#EAA06A"/>
<stop offset="0.355469" stop-color="#EA9F69"/>
<stop offset="0.359375" stop-color="#EA9E68"/>
<stop offset="0.363281" stop-color="#EA9D67"/>
<stop offset="0.367188" stop-color="#E99C66"/>
<stop offset="0.371094" stop-color="#E99C65"/>
<stop offset="0.375" stop-color="#E99B64"/>
<stop offset="0.378906" stop-color="#E99A63"/>
<stop offset="0.382812" stop-color="#E89962"/>
<stop offset="0.386719" stop-color="#E89861"/>
<stop offset="0.390625" stop-color="#E89760"/>
<stop offset="0.394531" stop-color="#E8975F"/>
<stop offset="0.398437" stop-color="#E7965E"/>
<stop offset="0.402344" stop-color="#E7955D"/>
<stop offset="0.40625" stop-color="#E7945C"/>
<stop offset="0.410156" stop-color="#E7935B"/>
<stop offset="0.414062" stop-color="#E7925A"/>
<stop offset="0.417969" stop-color="#E69259"/>
<stop offset="0.421875" stop-color="#E69158"/>
<stop offset="0.425781" stop-color="#E69057"/>
<stop offset="0.429688" stop-color="#E68F56"/>
<stop offset="0.433594" stop-color="#E58E55"/>
<stop offset="0.4375" stop-color="#E58D54"/>
<stop offset="0.441406" stop-color="#E58D53"/>
<stop offset="0.445312" stop-color="#E58C52"/>
<stop offset="0.449219" stop-color="#E48B51"/>
<stop offset="0.453125" stop-color="#E48A50"/>
<stop offset="0.457031" stop-color="#E4894F"/>
<stop offset="0.460937" stop-color="#E4884E"/>
<stop offset="0.464844" stop-color="#E3884D"/>
<stop offset="0.46875" stop-color="#E3874C"/>
<stop offset="0.472656" stop-color="#E3864B"/>
<stop offset="0.476562" stop-color="#E3854A"/>
<stop offset="0.480469" stop-color="#E28449"/>
<stop offset="0.484375" stop-color="#E28348"/>
<stop offset="0.488281" stop-color="#E28347"/>
<stop offset="0.492188" stop-color="#E28246"/>
<stop offset="0.496094" stop-color="#E28145"/>
<stop offset="0.5" stop-color="#E18044"/>
<stop offset="0.503906" stop-color="#E17F43"/>
<stop offset="0.507812" stop-color="#E17E42"/>
<stop offset="0.511719" stop-color="#E17E41"/>
<stop offset="0.515625" stop-color="#E07D40"/>
<stop offset="0.519531" stop-color="#E07C3F"/>
<stop offset="0.523438" stop-color="#E07B3E"/>
<stop offset="0.527344" stop-color="#E07A3D"/>
<stop offset="0.53125" stop-color="#DF793C"/>
<stop offset="0.535156" stop-color="#DF793B"/>
<stop offset="0.539062" stop-color="#DF783A"/>
<stop offset="0.542969" stop-color="#DF7739"/>
<stop offset="0.546875" stop-color="#DE7638"/>
<stop offset="0.550781" stop-color="#DE7537"/>
<stop offset="0.554688" stop-color="#DE7436"/>
<stop offset="0.558594" stop-color="#DE7435"/>
<stop offset="0.5625" stop-color="#DD7334"/>
<stop offset="0.566406" stop-color="#DD7233"/>
<stop offset="0.570312" stop-color="#DD7132"/>
<stop offset="0.574219" stop-color="#DD7031"/>
<stop offset="0.578125" stop-color="#DD6F30"/>
<stop offset="0.582031" stop-color="#DC6F2F"/>
<stop offset="0.585938" stop-color="#DC6E2E"/>
<stop offset="0.589844" stop-color="#DC6D2D"/>
<stop offset="0.59375" stop-color="#DC6C2C"/>
<stop offset="0.597656" stop-color="#DB6B2B"/>
<stop offset="0.601562" stop-color="#DB6A2A"/>
<stop offset="0.605469" stop-color="#DB6929"/>
<stop offset="0.609375" stop-color="#DB6928"/>
<stop offset="0.613281" stop-color="#DA6827"/>
<stop offset="0.617188" stop-color="#DA6726"/>
<stop offset="0.621094" stop-color="#DA6625"/>
<stop offset="0.625" stop-color="#DA6524"/>
<stop offset="0.628906" stop-color="#D96423"/>
<stop offset="0.632812" stop-color="#D96422"/>
<stop offset="0.636719" stop-color="#D96321"/>
<stop offset="0.640625" stop-color="#D96220"/>
<stop offset="0.644531" stop-color="#D8611F"/>
<stop offset="0.648438" stop-color="#D8601E"/>
<stop offset="0.652344" stop-color="#D85F1D"/>
<stop offset="0.65625" stop-color="#D85F1C"/>
<stop offset="0.660156" stop-color="#D85E1B"/>
<stop offset="0.664062" stop-color="#D75D1A"/>
<stop offset="0.667969" stop-color="#D75C19"/>
<stop offset="0.671875" stop-color="#D75B18"/>
<stop offset="0.675781" stop-color="#D75A17"/>
<stop offset="0.679688" stop-color="#D65A16"/>
<stop offset="0.683594" stop-color="#D65915"/>
<stop offset="0.6875" stop-color="#D65814"/>
<stop offset="0.691406" stop-color="#D65713"/>
<stop offset="0.695312" stop-color="#D55612"/>
<stop offset="0.699219" stop-color="#D55511"/>
<stop offset="0.703125" stop-color="#D55510"/>
<stop offset="0.707031" stop-color="#D5540F"/>
<stop offset="0.710938" stop-color="#D4530E"/>
<stop offset="0.714844" stop-color="#D4520D"/>
<stop offset="0.71875" stop-color="#D4510C"/>
<stop offset="0.722656" stop-color="#D4500B"/>
<stop offset="0.726562" stop-color="#D3500A"/>
<stop offset="0.730469" stop-color="#D34F09"/>
<stop offset="0.734375" stop-color="#D34E08"/>
<stop offset="0.738281" stop-color="#D34D07"/>
<stop offset="0.742188" stop-color="#D34C06"/>
<stop offset="0.746094" stop-color="#D24B05"/>
<stop offset="0.75" stop-color="#D24B04"/>
<stop offset="0.753906" stop-color="#D24A03"/>
<stop offset="0.757812" stop-color="#D24902"/>
<stop offset="0.761719" stop-color="#D14801"/>
<stop offset="0.765625" stop-color="#D14700"/>
<stop offset="0.78125" stop-color="#D14700"/>
<stop offset="0.8125" stop-color="#D14700"/>
<stop offset="0.875" stop-color="#D14700"/>
<stop offset="1" stop-color="#D14700"/>
</linearGradient>
<linearGradient id="paint1_linear_25_100" x1="69.1525" y1="73.9778" x2="69.3971" y2="74.0026" gradientUnits="userSpaceOnUse">
<stop stop-color="#C35D01"/>
<stop offset="0.03125" stop-color="#C35D01"/>
<stop offset="0.046875" stop-color="#C35D01"/>
<stop offset="0.0546875" stop-color="#C35D01"/>
<stop offset="0.0625" stop-color="#C25C01"/>
<stop offset="0.0703125" stop-color="#C15C01"/>
<stop offset="0.078125" stop-color="#C05B01"/>
<stop offset="0.0859375" stop-color="#BF5B01"/>
<stop offset="0.09375" stop-color="#BE5A01"/>
<stop offset="0.101562" stop-color="#BD5A01"/>
<stop offset="0.109375" stop-color="#BD5902"/>
<stop offset="0.117188" stop-color="#BC5802"/>
<stop offset="0.125" stop-color="#BB5802"/>
<stop offset="0.132812" stop-color="#BA5702"/>
<stop offset="0.140625" stop-color="#B95702"/>
<stop offset="0.148438" stop-color="#B85602"/>
<stop offset="0.15625" stop-color="#B75502"/>
<stop offset="0.164062" stop-color="#B65502"/>
<stop offset="0.171875" stop-color="#B55402"/>
<stop offset="0.179688" stop-color="#B45402"/>
<stop offset="0.1875" stop-color="#B35302"/>
<stop offset="0.195312" stop-color="#B25202"/>
<stop offset="0.203125" stop-color="#B15202"/>
<stop offset="0.210938" stop-color="#B05103"/>
<stop offset="0.21875" stop-color="#AF5103"/>
<stop offset="0.226562" stop-color="#AE5003"/>
<stop offset="0.234375" stop-color="#AE4F03"/>
<stop offset="0.242188" stop-color="#AD4F03"/>
<stop offset="0.25" stop-color="#AC4E03"/>
<stop offset="0.257812" stop-color="#AB4E03"/>
<stop offset="0.265625" stop-color="#AA4D03"/>
<stop offset="0.273438" stop-color="#A94C03"/>
<stop offset="0.28125" stop-color="#A84C03"/>
<stop offset="0.289062" stop-color="#A74B03"/>
<stop offset="0.296875" stop-color="#A64B03"/>
<stop offset="0.304688" stop-color="#A54A03"/>
<stop offset="0.3125" stop-color="#A44A04"/>
<stop offset="0.320312" stop-color="#A34904"/>
<stop offset="0.328125" stop-color="#A24804"/>
<stop offset="0.335938" stop-color="#A14804"/>
<stop offset="0.34375" stop-color="#A04704"/>
<stop offset="0.351562" stop-color="#9F4704"/>
<stop offset="0.359375" stop-color="#9E4604"/>
<stop offset="0.367188" stop-color="#9E4504"/>
<stop offset="0.375" stop-color="#9D4504"/>
<stop offset="0.382812" stop-color="#9C4404"/>
<stop offset="0.390625" stop-color="#9B4404"/>
<stop offset="0.398438" stop-color="#9A4304"/>
<stop offset="0.40625" stop-color="#994205"/>
<stop offset="0.414062" stop-color="#984205"/>
<stop offset="0.421875" stop-color="#974105"/>
<stop offset="0.429688" stop-color="#964105"/>
<stop offset="0.4375" stop-color="#954005"/>
<stop offset="0.445312" stop-color="#943F05"/>
<stop offset="0.453125" stop-color="#933F05"/>
<stop offset="0.460938" stop-color="#923E05"/>
<stop offset="0.46875" stop-color="#913E05"/>
<stop offset="0.476562" stop-color="#903D05"/>
<stop offset="0.484375" stop-color="#8F3C05"/>
<stop offset="0.492188" stop-color="#8F3C05"/>
<stop offset="0.5" stop-color="#8E3B05"/>
<stop offset="0.507812" stop-color="#8D3B06"/>
<stop offset="0.515625" stop-color="#8C3A06"/>
<stop offset="0.523438" stop-color="#8B3A06"/>
<stop offset="0.53125" stop-color="#8A3906"/>
<stop offset="0.539062" stop-color="#893806"/>
<stop offset="0.546875" stop-color="#883806"/>
<stop offset="0.554688" stop-color="#873706"/>
<stop offset="0.5625" stop-color="#863706"/>
<stop offset="0.570312" stop-color="#853606"/>
<stop offset="0.578125" stop-color="#843506"/>
<stop offset="0.585938" stop-color="#833506"/>
<stop offset="0.59375" stop-color="#823406"/>
<stop offset="0.601562" stop-color="#813406"/>
<stop offset="0.609375" stop-color="#803307"/>
<stop offset="0.617188" stop-color="#803207"/>
<stop offset="0.625" stop-color="#7F3207"/>
<stop offset="0.632812" stop-color="#7E3107"/>
<stop offset="0.640625" stop-color="#7D3107"/>
<stop offset="0.648438" stop-color="#7C3007"/>
<stop offset="0.65625" stop-color="#7B2F07"/>
<stop offset="0.664062" stop-color="#7A2F07"/>
<stop offset="0.671875" stop-color="#792E07"/>
<stop offset="0.679688" stop-color="#782E07"/>
<stop offset="0.6875" stop-color="#772D07"/>
<stop offset="0.695312" stop-color="#762C07"/>
<stop offset="0.703125" stop-color="#752C07"/>
<stop offset="0.710938" stop-color="#742B08"/>
<stop offset="0.71875" stop-color="#732B08"/>
<stop offset="0.726562" stop-color="#722A08"/>
<stop offset="0.734375" stop-color="#712A08"/>
<stop offset="0.742188" stop-color="#702908"/>
<stop offset="0.75" stop-color="#702808"/>
<stop offset="1" stop-color="#6F2808"/>
</linearGradient>
</defs>
</svg>
