<svg width="128" height="128" viewBox="0 0 128 128" fill="none" xmlns="http://www.w3.org/2000/svg">
<path d="M61.6064 64.6319H55.9523C52.0259 64.6319 48.8412 67.8167 48.8412 71.7431V84.6556H48.8426V84.6722C48.8426 88.5986 45.6592 91.7833 41.7314 91.7833H48.0953C52.0231 91.7833 55.2064 88.5986 55.2064 84.6722V71.7597H54.4953L55.2064 71.7431C55.2064 67.8167 57.6787 64.6319 61.6064 64.6319Z" fill="#D34435"/>
<path d="M61.0453 72.0597L60.9411 71.3847H57.962L60.8842 87.2917H57.8828L62.8106 102.815H65.2467L63.3745 90.3389C67.1342 90.6056 71.1425 85.0403 70.7703 81.3597C70.3703 77.4208 65.3023 73.3944 61.0453 72.0597Z" fill="#A76832"/>
<path d="M85.6093 103.399H82.8162L83.1301 100.979L82.4648 100.956L85.2885 88.9347L86.4343 71.9694H97.1773L89.0662 88.6625L85.6093 103.399Z" fill="#A76832"/>
<path d="M87.2793 62.6014C87.2793 58.7764 90.3821 39.7042 107.879 43.6764L105.811 47.1361L87.2793 62.6014Z" fill="#D34435"/>
<path d="M113.451 59.8319L95.6665 57.2611L104.114 44.5611L117.792 55.7972L113.451 59.8319Z" fill="#CE8739"/>
<path d="M118.728 57.2139C119.443 58.975 118.787 60.9042 117.262 61.525C115.737 62.1458 113.919 61.2208 113.204 59.4597C112.487 57.6986 113.143 55.768 114.669 55.1472C116.194 54.5278 118.011 55.4528 118.728 57.2139Z" fill="#CE8739"/>
<path d="M98.6932 69.9611L87.2793 61.5042L104.222 44.5611L109.852 51.8819L98.6932 69.9611Z" fill="#CE8739"/>
<path d="M104.721 50.8264C103.44 53.3333 100.639 55.2306 102.862 58.1139C105.087 60.9972 109.001 61.45 110.283 58.9458L104.721 50.8264Z" fill="#CE8739"/>
<path d="M102.618 41.5292V50.5486C104.382 50.5486 105.811 48.5305 105.811 46.0389C105.811 43.5486 104.382 41.5292 102.618 41.5292Z" fill="#CE8739"/>
<path d="M108.243 49.8403C107.968 50.4583 108.246 51.1847 108.865 51.4583C109.484 51.7333 110.208 51.4542 110.483 50.8347L108.243 49.8403Z" fill="#A76832"/>
<path d="M98.1539 70.5708C98.1539 74.2903 95.665 82.575 92.5928 82.575H61.7358C58.6636 82.575 56.1733 74.2903 56.1733 70.5708C56.1733 66.85 58.6636 63.8361 61.7358 63.8361H92.5928C95.665 63.8361 98.1539 66.85 98.1539 70.5708Z" fill="#CE8739"/>
<path d="M96.3721 103.399H93.5777L93.011 100.979L92.3374 100.956L90.9152 88.9347L87.0513 71.9694H97.7943L94.5943 88.6625L96.3721 103.399Z" fill="#CE8739"/>
<path d="M60.2817 72.0597L60.422 71.3847H57.4428L55.7414 87.2917H52.7386L52.147 102.815H54.5831L57.122 90.3389C60.7845 90.6056 65.2984 85.0403 66.265 81.3597C67.2998 77.4208 64.0511 73.3944 60.2817 72.0597Z" fill="#CE8739"/>
<path d="M32.9721 48.7361C32.0763 47.8403 30.6207 47.8403 29.7235 48.7375C29.086 49.375 29.129 51.0917 29.129 51.0917C29.129 56.4694 33.504 60.8444 38.8818 60.8444L38.8832 56.5722C35.9457 56.5722 33.6346 54.4319 33.5082 51.425C33.4693 50.4806 33.679 49.4431 32.9721 48.7361Z" fill="#E0A769"/>
<path d="M38.8816 58.7236L38.883 56.5722C35.9455 56.5722 33.6344 54.4319 33.508 51.425C33.4691 50.4805 33.6788 49.443 32.9719 48.7361C32.5552 48.3194 31.8622 47.9764 31.083 48.0708C31.083 48.0708 31.1136 49.4514 31.1136 50.1805C31.1136 54.7555 34.3066 58.7236 38.8816 58.7236Z" fill="#FFD097"/>
<path d="M34.0456 56.3972C34.5567 55.875 35.2595 55.6569 35.9317 55.7403C36.7734 56.2722 37.7845 56.5722 38.8831 56.5722L38.8817 60.8444C37.1317 60.8444 35.4887 60.3778 34.0664 59.5667C33.1914 58.6972 33.1789 57.2806 34.0456 56.3972Z" fill="#A76832"/>
<path d="M34.3027 57.1653C34.3694 57.0639 34.4458 56.968 34.5333 56.8792C34.9291 56.475 35.4805 56.2694 36.05 56.318C36.8555 56.8111 37.5513 56.8597 38.5291 56.9153V58.6486C37.1055 58.5861 35.9152 58.4 34.6569 57.6903C34.5055 57.5333 34.3888 57.3542 34.3027 57.1653Z" fill="#EBC071"/>
<path d="M34.0663 59.8028C34.1274 59.8028 34.1872 59.7792 34.233 59.7333C34.3247 59.6417 34.3247 59.4917 34.233 59.4C33.4497 58.6222 33.4413 57.3486 34.2136 56.5611C34.6552 56.1097 35.2719 55.8958 35.9024 55.9736C36.033 55.9917 36.1497 55.8986 36.1649 55.7694C36.1816 55.6403 36.0899 55.5236 35.9608 55.5069C35.183 55.4111 34.4233 55.675 33.8774 56.2319C32.9247 57.2042 32.9358 58.775 33.9011 59.7347C33.9469 59.7792 34.0066 59.8028 34.0663 59.8028Z" fill="#EBC071"/>
<path d="M25.3027 84.4H19.1943C19.1943 82.9181 22.1429 81.6875 25.3027 81.4236V84.4Z" fill="#FFD097"/>
<path d="M21.5234 62.4722L20.8179 65.6528L21.5234 82.3708H25.3026V62.4722H21.5234Z" fill="#FFD097"/>
<path d="M23.4121 64.1014V82.3708H25.3024V64.1014H23.4121Z" fill="#E0A769"/>
<path d="M25.3026 84.9667H18.9165V84.4H25.3026V84.9667Z" fill="#A76832"/>
<path d="M21.5138 82.1167H25.3027V76.6236C25.3027 76.2333 24.9874 75.8986 24.5971 75.8764L23.9902 75.8403C23.5999 75.818 23.2846 75.5014 23.2846 75.1333C23.2846 74.7653 22.968 74.4667 22.5791 74.4667H21.1235L21.5138 82.1167Z" fill="#A76832"/>
<path d="M21.5138 82.1167H25.3027V76.6236C25.3027 76.2333 24.9874 75.8986 24.5971 75.8764L23.9902 75.8403C23.5999 75.818 23.2846 75.5014 23.2846 75.1333C23.2846 74.7653 22.968 74.4667 22.5791 74.4667H21.1235L21.5138 82.1167Z" fill="#A76832"/>
<path d="M23.3566 76.2458C22.9928 76.0514 22.6955 75.7264 22.6955 75.3681C22.6955 75.1958 22.5372 75.0542 22.3428 75.0542H21.4941L21.8483 81.7639H23.3566V76.2458Z" fill="#EBC071"/>
<path d="M25.3025 76.8583C25.1719 76.8583 25.0664 76.7542 25.0664 76.6236C25.0664 76.3569 24.8497 76.1264 24.583 76.1111L23.9761 76.075C23.465 76.0458 23.0483 75.6236 23.0483 75.1333C23.0483 74.8944 22.8372 74.7014 22.5789 74.7014H21.1233C20.9928 74.7014 20.8872 74.5958 20.8872 74.4667C20.8872 74.3361 20.9928 74.2305 21.1233 74.2305H22.5789C23.0969 74.2305 23.5192 74.6361 23.5192 75.1333C23.5192 75.3778 23.7372 75.5903 24.0025 75.6055L24.6108 75.6417C25.1219 75.6708 25.5372 76.1111 25.5372 76.6236C25.5372 76.7542 25.4317 76.8583 25.3025 76.8583Z" fill="#CE8739"/>
<path d="M21.1611 84.8083C21.0306 84.8083 20.925 84.7028 20.925 84.5736C20.925 83.9166 20.3917 83.3819 19.7347 83.3819C19.6056 83.3819 19.5 83.2778 19.5 83.1472C19.5 83.0166 19.6056 82.9125 19.7347 82.9125C20.6514 82.9125 21.3958 83.6569 21.3958 84.5736C21.3958 84.7028 21.2917 84.8083 21.1611 84.8083Z" fill="#CE8739"/>
<path d="M25.3026 82.5292H21.4373C21.3067 82.5292 21.2012 82.4236 21.2012 82.2931C21.2012 82.1639 21.3067 82.0583 21.4373 82.0583H25.3026C25.4317 82.0583 25.5373 82.1639 25.5373 82.2931C25.5373 82.4236 25.4317 82.5292 25.3026 82.5292Z" fill="#CE8739"/>
<path d="M26.4888 84.4H32.5957C32.5957 82.9181 29.6485 81.6875 26.4888 81.4236V84.4Z" fill="#FFD097"/>
<path d="M30.2679 62.4722L30.9735 65.6528L30.2679 82.3708H26.4888V62.4722H30.2679Z" fill="#FFD097"/>
<path d="M28.3777 64.1014V82.3708H26.4888V64.1014H28.3777Z" fill="#E0A769"/>
<path d="M26.4888 84.9667H32.8749V84.4H26.4888V84.9667Z" fill="#A76832"/>
<path d="M30.2777 82.1167H26.4888V76.6236C26.4888 76.2333 26.804 75.8986 27.1943 75.8764L27.8013 75.8403C28.1915 75.818 28.5068 75.5014 28.5068 75.1333C28.5068 74.7653 28.8235 74.4667 29.2124 74.4667H30.6679L30.2777 82.1167Z" fill="#A76832"/>
<path d="M30.2777 82.1167H26.4888V76.6236C26.4888 76.2333 26.804 75.8986 27.1943 75.8764L27.8013 75.8403C28.1915 75.818 28.5068 75.5014 28.5068 75.1333C28.5068 74.7653 28.8235 74.4667 29.2124 74.4667H30.6679L30.2777 82.1167Z" fill="#A76832"/>
<path d="M28.4346 76.2458C28.7985 76.0514 29.0957 75.7264 29.0957 75.3681C29.0957 75.1958 29.254 75.0542 29.4485 75.0542H30.2971L29.9429 81.7639H28.4346V76.2458Z" fill="#EBC071"/>
<path d="M26.4886 76.8583C26.6192 76.8583 26.7247 76.7542 26.7247 76.6236C26.7247 76.3569 26.9414 76.1264 27.2067 76.1111L27.815 76.075C28.3261 76.0458 28.7428 75.6236 28.7428 75.1333C28.7428 74.8944 28.9525 74.7014 29.2122 74.7014H30.6678C30.7984 74.7014 30.9039 74.5958 30.9039 74.4667C30.9039 74.3361 30.7984 74.2305 30.6678 74.2305H29.2122C28.6942 74.2305 28.272 74.6361 28.272 75.1333C28.272 75.3778 28.0539 75.5903 27.7886 75.6055L27.1803 75.6417C26.6692 75.6708 26.2539 76.1111 26.2539 76.6236C26.2539 76.7542 26.3595 76.8583 26.4886 76.8583Z" fill="#CE8739"/>
<path d="M30.6306 84.8083C30.7612 84.8083 30.8654 84.7028 30.8654 84.5736C30.8654 83.9166 31.4001 83.3819 32.057 83.3819C32.1862 83.3819 32.2918 83.2778 32.2918 83.1472C32.2918 83.0166 32.1862 82.9125 32.057 82.9125C31.1404 82.9125 30.3945 83.6569 30.3945 84.5736C30.3945 84.7028 30.5001 84.8083 30.6306 84.8083Z" fill="#CE8739"/>
<path d="M26.4886 82.5292H30.3539C30.4845 82.5292 30.59 82.4236 30.59 82.2931C30.59 82.1639 30.4845 82.0583 30.3539 82.0583H26.4886C26.3595 82.0583 26.2539 82.1639 26.2539 82.2931C26.2539 82.4236 26.3595 82.5292 26.4886 82.5292Z" fill="#CE8739"/>
<path d="M20.915 53.3986C20.915 56.1486 23.1456 58.3792 25.897 58.3792C28.647 58.3792 30.8775 56.1486 30.8775 53.3986V51.275C30.8775 48.5236 28.647 46.2958 25.897 46.2958C23.1456 46.2958 20.915 48.5236 20.915 51.275V53.3986Z" fill="#D3985E"/>
<path d="M23.6914 47.1361C23.6914 48.2222 24.5734 49.1042 25.6609 49.1042C26.7484 49.1042 27.6289 48.2222 27.6289 47.1361V44.6486C27.6289 43.5611 26.7484 42.6806 25.6609 42.6806C24.5734 42.6806 23.6914 43.5611 23.6914 44.6486V47.1361Z" fill="#D3985E"/>
<path d="M22.0996 42.0556C22.0996 44.3458 23.9579 46.2042 26.2482 46.2042C28.5399 46.2042 30.3968 44.3458 30.3968 42.0556V40.2861C30.3968 37.9944 28.5399 36.1389 26.2482 36.1389C23.9579 36.1389 22.0996 37.9944 22.0996 40.2861V42.0556Z" fill="#D3985E"/>
<path d="M18.7027 48.7361C19.5985 47.8403 21.0541 47.8403 21.9513 48.7375C22.5888 49.375 22.5457 51.0917 22.5457 51.0917C22.5457 56.4694 18.1707 60.8444 12.793 60.8444V56.5722C15.7291 56.5722 18.0416 54.4319 18.1666 51.425C18.2055 50.4806 17.9971 49.4431 18.7027 48.7361Z" fill="#E0A769"/>
<path d="M12.793 58.7236V56.5722C15.7291 56.5722 18.0416 54.4319 18.1666 51.425C18.2055 50.4805 17.9971 49.443 18.7027 48.7361C19.1194 48.3194 19.8138 47.9764 20.5916 48.0708C20.5916 48.0708 20.561 49.4514 20.561 50.1805C20.561 54.7555 17.368 58.7236 12.793 58.7236Z" fill="#FFD097"/>
<path d="M17.6305 56.3972C17.118 55.875 16.4166 55.6569 15.743 55.7403C14.9013 56.2722 13.8902 56.5722 12.793 56.5722V60.8444C14.543 60.8444 16.186 60.3778 17.6082 59.5667C18.4832 58.6972 18.4957 57.2806 17.6305 56.3972Z" fill="#A76832"/>
<path d="M17.3719 57.1653C17.3052 57.0639 17.2302 56.968 17.1427 56.8792C16.7455 56.475 16.1941 56.2694 15.6247 56.318C14.8191 56.8111 14.1233 56.8597 13.1455 56.9153V58.6486C14.5705 58.5861 15.7608 58.4 17.0177 57.6903C17.1691 57.5333 17.2858 57.3542 17.3719 57.1653Z" fill="#EBC071"/>
<path d="M17.6084 59.8028C17.5473 59.8028 17.4875 59.7792 17.4417 59.7333C17.35 59.6417 17.35 59.4917 17.4431 59.4C18.225 58.6222 18.2334 57.3486 17.4612 56.5611C17.0195 56.1097 16.4028 55.8958 15.7723 55.9736C15.6431 55.9917 15.5264 55.8986 15.5098 55.7694C15.4931 55.6403 15.5848 55.5236 15.7139 55.5069C16.4931 55.4111 17.2514 55.675 17.7973 56.2319C18.75 57.2042 18.7403 58.775 17.7737 59.7347C17.7278 59.7792 17.6681 59.8028 17.6084 59.8028Z" fill="#EBC071"/>
<path d="M10.9082 34.5472C11.3735 31.7069 11.8026 28.5083 12.1929 25C12.5832 28.5083 13.0138 31.7069 13.4776 34.5472C13.2124 34.8792 12.9568 35.2361 12.7151 35.6139V44.7306H11.6721V35.6139C11.429 35.2347 11.1749 34.8792 10.9082 34.5472Z" fill="white"/>
<path d="M10.9082 34.5472C11.3735 31.7069 11.8026 28.5083 12.1929 25V44.7306H11.6721V35.6139C11.429 35.2347 11.1749 34.8792 10.9082 34.5472Z" fill="#A76832"/>
<path d="M11.6719 84.9667H12.7149V41.9944H11.6719V84.9667Z" fill="#9C662B"/>
<path d="M11.6719 84.9667H12.1927V41.9944H11.6719V84.9667Z" fill="#754923"/>
<path d="M11.1499 39.8972C11.1513 40.4722 11.618 40.9389 12.193 40.9389C12.7693 40.9389 13.236 40.4722 13.236 39.8972C13.236 39.3208 12.7693 38.8542 12.193 38.8542C11.618 38.8542 11.1513 39.3208 11.1499 39.8972Z" fill="#B99759"/>
<path d="M11.3916 38.1347C11.3916 38.3069 11.5305 38.4458 11.7013 38.4458H12.6847C12.8569 38.4458 12.9958 38.3069 12.9958 38.1347V38.0319C12.9958 37.8597 12.8569 37.7208 12.6847 37.7208H11.7027C11.5305 37.7208 11.3916 37.8597 11.3916 38.0319V38.1347Z" fill="#A76832"/>
<path d="M11.3916 42.0264C11.3916 42.1972 11.5305 42.3375 11.7013 42.3375L12.6847 42.3361C12.8569 42.3361 12.9958 42.1972 12.9958 42.0264V41.9222C12.9958 41.7514 12.8569 41.6125 12.6847 41.6125H11.7013C11.5305 41.6125 11.3916 41.7514 11.3916 41.9236V42.0264Z" fill="#A76832"/>
<path d="M12.4497 39.5361C12.4497 39.6819 12.5678 39.8 12.715 39.8C12.8608 39.8 12.9789 39.6819 12.9803 39.5361C12.9803 39.3889 12.8608 39.2708 12.715 39.2708C12.5678 39.2708 12.4497 39.3889 12.4497 39.5361Z" fill="white"/>
<path d="M23.1835 66.5305C22.5807 66.4944 21.9793 66.4458 21.3779 66.3847C21.5765 64.4305 21.7738 62.475 21.9724 60.5194C22.4946 60.5736 23.0168 60.6139 23.5404 60.6472C23.421 62.6083 23.3015 64.5694 23.1835 66.5305Z" fill="#C4B1A0"/>
<path d="M19.5791 66.1653C19.7958 64.6417 20.0124 63.1181 20.2291 61.5944C20.3291 60.8958 20.7583 60.3806 21.1902 60.4333C21.4499 60.4639 21.711 60.4931 21.9722 60.5194C21.7735 62.475 21.5763 64.4306 21.3777 66.3847C20.7777 66.325 20.1777 66.2514 19.5791 66.1653Z" fill="#EFECEA"/>
<path d="M24.9914 66.6042C24.3887 66.5917 23.7845 66.5681 23.1831 66.5306C23.3012 64.5694 23.4206 62.6083 23.54 60.6472C24.0623 60.6792 24.5859 60.7 25.1095 60.7097C25.0706 62.6736 25.0303 64.6389 24.9914 66.6042Z" fill="#EFECEA"/>
<path d="M26.7995 66.6042C26.1968 66.6167 25.594 66.6167 24.9912 66.6042C25.0301 64.6389 25.0704 62.6736 25.1093 60.7097C25.6329 60.7208 26.1579 60.7208 26.6815 60.7097C26.7204 62.6736 26.7607 64.6389 26.7995 66.6042Z" fill="#C4B1A0"/>
<path d="M28.608 66.5306C28.0053 66.5681 27.4025 66.5917 26.7997 66.6042C26.7608 64.6389 26.7205 62.6736 26.6816 60.7097C27.2053 60.7 27.7289 60.6792 28.2511 60.6472C28.3705 62.6083 28.49 64.5694 28.608 66.5306Z" fill="#EFECEA"/>
<path d="M30.4135 66.3847C29.8121 66.4458 29.2107 66.4944 28.6079 66.5305C28.4899 64.5694 28.3704 62.6083 28.251 60.6472C28.7746 60.6139 29.2968 60.5736 29.819 60.5194C30.0176 62.475 30.2149 64.4305 30.4135 66.3847Z" fill="#C4B1A0"/>
<path d="M30.4138 66.3847C30.2152 64.4306 30.0179 62.475 29.8193 60.5194C30.0804 60.4931 30.3416 60.4639 30.6013 60.4333C31.0332 60.3806 31.4624 60.8958 31.561 61.5944C31.7791 63.1181 31.9957 64.6417 32.2124 66.1653C31.6138 66.2514 31.0138 66.325 30.4138 66.3847Z" fill="#EFECEA"/>
<path d="M31.1871 50.4097C31.1871 49.4486 31.3093 48.5458 31.5204 47.7625L29.2107 47.4319C28.6288 48.4597 27.3635 49.5236 25.8954 49.5236C24.4274 49.5236 23.1621 48.4597 22.5801 47.4319L20.2704 47.7625C20.4815 48.5458 20.6038 49.4486 20.6038 50.4097C20.6038 51.4 20.4746 56.5639 20.251 57.3639L20.469 60.725C20.469 60.725 22.1246 60.6819 22.7121 60.9583C23.519 61.3389 24.4913 62.1236 25.8954 62.1236C27.2996 62.1236 28.2718 61.3389 29.0788 60.9583C29.6663 60.6819 31.3218 60.725 31.3218 60.725L31.5399 57.3639C31.3163 56.5639 31.1871 51.4 31.1871 50.4097Z" fill="#A76832"/>
<path d="M30.8942 53.5889C30.8942 51.2889 30.4817 49.1778 29.7928 47.5153L29.2109 47.4319C28.6289 48.4597 27.3636 49.5236 25.8956 49.5236C24.4275 49.5236 23.1623 48.4597 22.5803 47.4319L21.9984 47.5153C21.3095 49.1778 20.897 51.2889 20.897 53.5889C20.897 58.9486 23.1345 62.1236 25.8956 62.1236C28.6567 62.1236 30.8942 58.9486 30.8942 53.5889Z" fill="#CE8739"/>
<path d="M25.5426 52.775C25.5426 53.4208 25.019 53.9458 24.3717 53.9458H22.1259C21.4787 53.9458 20.9551 53.4208 20.9551 52.775V51.2125C20.9551 50.5653 21.4787 50.0417 22.1259 50.0417H24.3717C25.019 50.0417 25.5426 50.5653 25.5426 51.2125V52.775Z" fill="#EBC071"/>
<path d="M30.836 52.775C30.836 53.4208 30.3124 53.9458 29.6652 53.9458H27.4194C26.7721 53.9458 26.2485 53.4208 26.2485 52.775V51.2125C26.2485 50.5653 26.7721 50.0417 27.4194 50.0417H29.6652C30.3124 50.0417 30.836 50.5653 30.836 51.2125V52.775Z" fill="#EBC071"/>
<path d="M28.718 55.9833C28.718 56.3069 28.4555 56.568 28.1333 56.568H26.8333C26.511 56.568 26.2485 56.3069 26.2485 55.9833V55.2028C26.2485 54.8792 26.511 54.6167 26.8333 54.6167H28.1333C28.4555 54.6167 28.718 54.8792 28.718 55.2028V55.9833Z" fill="#EBC071"/>
<path d="M28.718 58.2653C28.718 58.5889 28.4555 58.85 28.1333 58.85H26.8333C26.511 58.85 26.2485 58.5889 26.2485 58.2653V57.4833C26.2485 57.1611 26.511 56.8986 26.8333 56.8986H28.1333C28.4555 56.8986 28.718 57.1611 28.718 57.4833V58.2653Z" fill="#EBC071"/>
<path d="M25.5427 55.9833C25.5427 56.3069 25.2802 56.568 24.958 56.568H23.658C23.3357 56.568 23.0732 56.3069 23.0732 55.9833V55.2028C23.0732 54.8792 23.3357 54.6167 23.658 54.6167H24.958C25.2802 54.6167 25.5427 54.8792 25.5427 55.2028V55.9833Z" fill="#EBC071"/>
<path d="M25.5427 58.2653C25.5427 58.5889 25.2802 58.85 24.958 58.85H23.658C23.3357 58.85 23.0732 58.5889 23.0732 58.2653V57.4833C23.0732 57.1611 23.3357 56.8986 23.658 56.8986H24.958C25.2802 56.8986 25.5427 57.1611 25.5427 57.4833V58.2653Z" fill="#EBC071"/>
<path d="M25.8955 49.8167C24.3053 49.8167 22.9566 48.6917 22.3247 47.5764C22.2455 47.4361 22.2955 47.2569 22.4358 47.1778C22.5761 47.0986 22.7553 47.1472 22.8344 47.2889C23.365 48.2236 24.5483 49.2305 25.8955 49.2305C27.2428 49.2305 28.4261 48.2236 28.9567 47.2889C29.0358 47.1472 29.215 47.0986 29.3553 47.1778C29.4969 47.2569 29.5455 47.4361 29.4664 47.5764C28.8344 48.6917 27.4858 49.8167 25.8955 49.8167Z" fill="#EBC071"/>
<path d="M20.2512 58.1264C20.2248 58.1264 20.1984 58.1236 20.172 58.1153C20.0165 58.0722 19.9262 57.9111 19.9692 57.7542C20.1928 56.9555 20.3123 52.9847 20.3123 52.0569C20.3123 51.1569 20.1998 48.6194 19.9873 47.8375C19.9456 47.6819 20.0373 47.5222 20.1942 47.4792C20.3484 47.4375 20.5109 47.5292 20.5526 47.6861C20.7776 48.5167 20.897 51.1055 20.897 52.0569C20.897 53.0375 20.7706 57.0639 20.5331 57.9125C20.497 58.0417 20.379 58.1264 20.2512 58.1264Z" fill="#EBC071"/>
<path d="M31.5404 58.1264C31.4126 58.1264 31.2945 58.0417 31.2584 57.9125C31.0209 57.0639 30.8945 53.0375 30.8945 52.0569C30.8945 51.1055 31.014 48.5167 31.239 47.6861C31.2806 47.5292 31.4431 47.4375 31.5973 47.4792C31.7543 47.5222 31.8459 47.6819 31.8043 47.8375C31.5918 48.6194 31.4806 51.1569 31.4806 52.0569C31.4806 52.9847 31.5987 56.9555 31.8223 57.7542C31.8654 57.9111 31.7751 58.0722 31.6195 58.1153C31.5931 58.1236 31.5668 58.1264 31.5404 58.1264Z" fill="#EBC071"/>
<path d="M25.8959 62.4153C24.7417 62.4153 23.8653 61.925 23.1612 61.5292C22.9584 61.4167 22.7653 61.3069 22.5876 61.2236C22.1584 61.0208 20.9181 61.0055 20.4764 61.0167C20.4751 61.018 20.4723 61.018 20.4695 61.018C20.3112 61.018 20.1806 60.8917 20.1778 60.7319C20.1737 60.5708 20.3001 60.4361 20.4626 60.4319C20.6389 60.4278 22.2056 60.3972 22.8362 60.6944C23.0334 60.7861 23.2348 60.9 23.4487 61.0194C24.1264 61.4 24.8945 61.8305 25.8959 61.8305C26.8973 61.8305 27.6653 61.4 28.3431 61.0194C28.557 60.9 28.7584 60.7861 28.9556 60.6944C29.5862 60.3972 31.1528 60.4278 31.3292 60.4319C31.4917 60.4361 31.6181 60.5708 31.6153 60.7319C31.6112 60.8917 31.4806 61.018 31.3223 61.018C31.3195 61.018 31.3167 61.018 31.3153 61.0167C30.8737 61.0069 29.6334 61.0208 29.2042 61.2236C29.0264 61.3069 28.8334 61.4167 28.6306 61.5292C27.9264 61.925 27.0501 62.4153 25.8959 62.4153Z" fill="#EBC071"/>
<path d="M26.2899 59.6931C26.2899 59.9111 26.1135 60.0875 25.8954 60.0875C25.6788 60.0875 25.501 59.9111 25.501 59.6931C25.501 59.475 25.6788 59.3 25.8954 59.3C26.1135 59.3 26.2899 59.475 26.2899 59.6931Z" fill="#A76832"/>
<path d="M10.8012 60.2986C9.9304 59.4097 9.94568 57.9861 10.8332 57.1153C11.7207 56.2472 13.1457 56.2611 14.0151 57.1486C14.886 58.0361 14.8707 59.4625 13.9832 60.3306C13.0957 61.2 11.6721 61.1861 10.8012 60.2986Z" fill="#E0A769"/>
<path d="M10.5859 60.2986C9.71507 59.4097 9.73035 57.9861 10.6178 57.1153C11.5053 56.2472 12.9303 56.2611 13.8012 57.1486C14.6706 58.0361 14.6553 59.4625 13.7678 60.3306C12.8803 61.2 11.4567 61.1861 10.5859 60.2986Z" fill="#FFD097"/>
<path d="M14.2203 59.6847C13.3328 60.5542 11.9078 60.5389 11.0384 59.6514C10.3634 58.9625 10.2231 57.9542 10.6064 57.1292C9.73144 58 9.72032 59.4153 10.5856 60.2986C11.4564 61.1861 12.88 61.2 13.7675 60.3306C13.9675 60.1347 14.1203 59.9111 14.2314 59.6722C14.2287 59.6764 14.2245 59.6806 14.2203 59.6847Z" fill="#E0A769"/>
<path d="M31.6442 46.2708H27.9512V40.7472H31.6442V46.2708Z" fill="#A76832"/>
<path d="M27.7234 30.4111H22.897L20.165 33.3486L24.6831 37.1222L26.9928 35.9722L29.6817 32.7153L27.7234 30.4111Z" fill="#A76832"/>
<path d="M31.3219 45.1097C31.3232 45.2819 31.4649 45.4222 31.6385 45.4208L31.6024 40.4944H31.601C31.5441 37.7417 29.2857 35.5361 26.5232 35.5555C23.7371 35.5764 21.4941 37.85 21.5149 40.6361C21.5149 40.6597 21.5149 40.6819 21.5149 40.7055C21.5149 40.7083 21.5149 40.7111 21.5149 40.7153C21.5205 41.0361 21.5371 41.3278 21.5705 41.593C21.651 43.4694 21.3344 43.4944 20.4469 44.4514C20.0246 44.9069 19.2413 45.9278 21.126 45.9055C24.8885 45.8625 25.0607 43.6889 25.0607 43.6889V43.65L25.0594 43.4639C25.0552 42.843 25.5552 42.3361 26.176 42.3319L26.2969 42.3305C26.9191 42.3264 27.426 42.8264 27.4302 43.4472L27.4399 44.8694L27.4413 44.9278C27.4524 46.6764 29.3427 48.4403 31.6594 48.4236L31.6413 45.9528C31.176 45.9555 30.7941 45.5805 30.7899 45.1125L30.7705 42.2153C30.4302 42.543 30.0205 42.7111 29.5191 42.6264C28.6802 42.4861 28.1135 41.693 28.2538 40.8542L31.2927 41.3597L31.3191 45.1097H31.3219Z" fill="#A76832"/>
<path d="M30.7903 45.1125L30.7709 42.2153C30.4306 42.543 30.0209 42.7111 29.5195 42.6264C28.6806 42.4861 28.1139 41.693 28.2542 40.8542L31.2931 41.3597L31.3195 45.1097H31.3222C31.3236 45.2819 31.4653 45.4222 31.6389 45.4208L31.6028 40.4944H31.6014C31.5445 37.7667 29.3264 35.5778 26.5986 35.5569V42.3708C27.075 42.4986 27.4264 42.9305 27.4306 43.4472L27.4403 44.8694L27.4417 44.9278C27.4528 46.6764 29.3431 48.4403 31.6597 48.4236L31.6417 45.9528C31.1764 45.9555 30.7945 45.5805 30.7903 45.1125Z" fill="#CE8739"/>
<path d="M30.3218 39.0319C30.1941 39.0319 30.0732 38.9542 30.0218 38.8292C29.6302 37.8514 28.833 37.1 27.8343 36.7681C27.6649 36.7125 27.5732 36.5292 27.6302 36.3597C27.6857 36.1903 27.8691 36.0986 28.0371 36.1556C29.2177 36.5472 30.1593 37.4347 30.6218 38.5889C30.6871 38.7542 30.608 38.9431 30.4413 39.0083C30.4024 39.0236 30.3621 39.0319 30.3218 39.0319Z" fill="#E8AD72"/>
<path d="M20.5279 44.1014L17.2599 44.0875L17.2807 39.5194C17.2807 39.5194 17.221 38.2278 17.2904 37.6042C17.7641 33.3347 21.1807 29.8236 25.6224 29.3958C27.8571 29.1806 30.0932 29.7819 31.9168 31.0903L29.9502 33.8319C28.7904 32.9986 27.3682 32.6167 25.946 32.7542C23.2474 33.0139 21.1446 35.0611 20.696 37.6083C20.6057 38.1208 20.5779 39.1944 20.5779 39.1944L20.5279 44.1014Z" fill="#BB3416"/>
<path d="M26.5376 33.1208C26.3529 33.1194 26.1668 33.1278 25.9834 33.1458C24.4765 33.2903 23.1668 34.0333 22.2695 35.1167L23.4973 36.1292C24.2181 35.6375 25.0668 35.3125 25.9945 35.2167C26.189 35.1972 26.3876 35.1875 26.5806 35.1889C26.9154 35.1903 27.2418 35.2222 27.5598 35.2819L28.8945 33.6625C28.164 33.3097 27.364 33.1236 26.5376 33.1208Z" fill="#CE8739"/>
<path d="M25.8679 31.9514C22.8763 32.2389 20.4221 34.5069 19.9013 37.468C19.8026 38.0236 19.7735 39.0583 19.7707 39.1736L19.7207 44.0944L20.5276 44.1014L20.5776 39.1944C20.5776 39.1944 20.6054 38.1208 20.6957 37.6083C21.1443 35.0611 23.2471 33.0139 25.9457 32.7542C27.3679 32.6167 28.7901 32.9986 29.9499 33.8319L30.4207 33.1764C29.1013 32.2292 27.4846 31.7944 25.8679 31.9514Z" fill="#CE8739"/>
<path d="M31.9165 39.8764C31.9165 40.1333 31.7081 40.3417 31.4512 40.3417H21.7456C21.4901 40.3417 21.2817 40.1333 21.2817 39.8764C21.2817 39.6194 21.4901 39.4111 21.7456 39.4111H31.4512C31.7081 39.4111 31.9165 39.6194 31.9165 39.8764Z" fill="#EBC071"/>
<path d="M31.3053 39.725C31.3053 39.8069 31.2387 39.8722 31.1581 39.8722H28.097C28.0164 39.8722 27.9512 39.8069 27.9512 39.725C27.9512 39.6444 28.0164 39.5792 28.097 39.5792H31.1581C31.2387 39.5792 31.3053 39.6444 31.3053 39.725Z" fill="#FCE2B9"/>
<path d="M31.6259 48.8264C30.4468 48.8264 29.3107 48.4069 28.4232 47.6431C27.5495 46.8903 27.044 45.9014 27.037 44.9292L27.0273 43.45C27.0245 43.2583 26.9482 43.0778 26.812 42.9431C26.6745 42.8069 26.4912 42.7347 26.3009 42.7347L26.1787 42.7361C25.987 42.7361 25.8065 42.8125 25.6704 42.95C25.5357 43.0875 25.4607 43.2694 25.4634 43.4611L25.4648 43.6806C25.4648 43.6917 25.4648 43.7097 25.4634 43.7208C25.4551 43.825 25.2134 46.2625 21.1301 46.3097C20.3398 46.3181 19.8648 46.1583 19.6398 45.8069C19.5259 45.6278 19.4329 45.3222 19.6426 44.8847C19.7384 44.6833 19.9787 44.5972 20.1801 44.6931C20.3815 44.7889 20.4662 45.0292 20.3704 45.2306C20.3315 45.3139 20.3259 45.3597 20.3245 45.3764C20.3551 45.4 20.5259 45.5097 21.1218 45.5028C24.3301 45.4653 24.6357 43.8278 24.6579 43.6694L24.6565 43.4681C24.6537 43.0583 24.8093 42.6736 25.0968 42.3833C25.3829 42.0931 25.7648 41.9319 26.1732 41.9278H26.294C26.2982 41.9278 26.3023 41.9278 26.3065 41.9278C26.7107 41.9278 27.0898 42.0833 27.3787 42.3681C27.669 42.6542 27.8301 43.0361 27.8343 43.4444L27.844 44.925C27.8482 45.6625 28.2523 46.4306 28.9495 47.0319C29.6968 47.675 30.6593 48.0306 31.6565 48.0194C31.6579 48.0194 31.6579 48.0194 31.6593 48.0194C31.8801 48.0194 32.0607 48.1986 32.062 48.4194C32.0634 48.6431 31.8843 48.825 31.662 48.8264C31.6495 48.8264 31.6384 48.8264 31.6259 48.8264Z" fill="#EBC071"/>
<path d="M28.4667 29.5611L27.7236 32.8542C28.0542 32.9222 28.3764 33.0194 28.6903 33.1444L29.9972 30.0333C29.5014 29.8319 28.9889 29.675 28.4667 29.5611Z" fill="#BB3416"/>
<path d="M31.1193 30.5792L29.3999 33.4833C29.5471 33.5653 29.6916 33.6556 29.8318 33.7514L31.7985 31.0083C31.5777 30.8556 31.3513 30.7125 31.1193 30.5792Z" fill="#BB3416"/>
<path d="M25.6416 29.3944L25.943 32.7542C25.9444 32.7542 25.9444 32.7542 25.9458 32.7542C26.2805 32.7208 26.6166 32.7181 26.9485 32.7431L27.2374 29.3819C26.7083 29.3403 26.1749 29.3444 25.6416 29.3944Z" fill="#BB3416"/>
<path d="M22.897 30.0861L24.2178 33.1903C24.5234 33.0611 24.8414 32.9569 25.1706 32.8805L24.4164 29.5917C23.89 29.7139 23.3831 29.8805 22.897 30.0861Z" fill="#BB3416"/>
<path d="M20.4912 31.5764L22.7023 34.1222C22.9579 33.9069 23.2315 33.7111 23.5218 33.5403L21.7884 30.6472C21.3273 30.9194 20.894 31.2319 20.4912 31.5764Z" fill="#BB3416"/>
<path d="M18.6445 33.7236L21.5251 35.475C21.707 35.1889 21.9112 34.9194 22.1376 34.6681L19.6043 32.4458C19.2487 32.8431 18.9279 33.2708 18.6445 33.7236Z" fill="#BB3416"/>
<path d="M17.522 36.3403L20.8025 37.1222C20.89 36.7917 21.0067 36.4736 21.1484 36.1681L18.0553 34.8222C17.8345 35.3083 17.6553 35.8167 17.522 36.3403Z" fill="#BB3416"/>
<path d="M17.2898 37.6042C17.2481 37.975 17.2523 38.5792 17.2634 39.0097L20.5801 39.1056C20.587 38.8903 20.6092 38.3236 20.6564 37.8903L17.2912 37.5847C17.2912 37.5917 17.2898 37.5972 17.2898 37.6042Z" fill="#BB3416"/>
<path d="M17.272 41.3847L20.5539 41.4347L20.5678 40.1139L17.2789 40.0583L17.272 41.3847Z" fill="#BB3416"/>
<path d="M17.2622 43.7417L20.5303 43.7819L20.5442 42.4611L17.2678 42.4153L17.2622 43.7417Z" fill="#BB3416"/>
<path d="M32.8249 60.9139C31.5722 64.7722 26.6944 67.6486 20.868 67.6486C14.0902 67.6486 8.59717 71.5417 8.59717 76.3417V85.2361H39.7166V58.9556H35.1277C34.0291 58.9556 33.1652 59.8681 32.8249 60.9139Z" fill="#BB3416"/>
<path d="M32.8248 60.9139C31.8165 64.0167 28.4623 66.4847 24.1567 67.3319V85.2361H39.7165V58.9556H35.1276C34.029 58.9556 33.1651 59.8681 32.8248 60.9139Z" fill="#D34435"/>
<path d="M8.59722 76.9403C8.26806 76.9403 8 76.6736 8 76.3417C8 71.2208 13.7722 67.0514 20.8681 67.0514C26.2778 67.0514 31.0681 64.3917 32.2569 60.7292C32.6403 59.55 33.6764 58.3583 35.1278 58.3583H39.7167C40.0472 58.3583 40.3153 58.625 40.3153 58.9555C40.3153 59.2847 40.0472 59.5528 39.7167 59.5528H35.1278C34.2764 59.5528 33.6431 60.3292 33.3931 61.0972C32.0264 65.3069 26.875 68.2458 20.8681 68.2458C14.4306 68.2458 9.19444 71.8792 9.19444 76.3417C9.19444 76.6736 8.92639 76.9403 8.59722 76.9403Z" fill="#CE8739"/>
<path d="M25.1344 79.4569C25.1344 82.2903 24.6914 84.5875 24.1442 84.5875C23.5983 84.5875 23.1553 82.2903 23.1553 79.4569C23.1553 76.6236 23.5983 74.3278 24.1442 74.3278C24.6914 74.3278 25.1344 76.6236 25.1344 79.4569Z" fill="#A76832"/>
<path d="M25.1344 97.4125C25.1344 100.246 24.6914 102.543 24.1442 102.543C23.5983 102.543 23.1553 100.246 23.1553 97.4125C23.1553 94.5792 23.5983 92.2833 24.1442 92.2833C24.6914 92.2833 25.1344 94.5792 25.1344 97.4125Z" fill="#A76832"/>
<path d="M33.1223 89.425C30.289 89.425 27.9932 88.9819 27.9932 88.4347C27.9932 87.8889 30.289 87.4458 33.1223 87.4458C35.9557 87.4458 38.2529 87.8889 38.2529 88.4347C38.2529 88.9819 35.9557 89.425 33.1223 89.425Z" fill="#A76832"/>
<path d="M15.1677 89.425C12.3329 89.425 10.0371 88.9805 10.0371 88.4347C10.0371 87.8889 12.3329 87.4444 15.1677 87.4458C17.9996 87.4458 20.2968 87.8889 20.2968 88.4347C20.2968 88.9819 17.9996 89.425 15.1677 89.425Z" fill="#A76832"/>
<path d="M31.1917 82.7861C29.189 84.7903 27.2515 86.1014 26.8653 85.7139C26.4792 85.3278 27.789 83.3903 29.7931 81.3875C31.7973 79.3833 33.7334 78.0736 34.1209 78.4597C34.507 78.8458 33.1959 80.7833 31.1917 82.7861Z" fill="#A76832"/>
<path d="M18.4954 95.4834C16.4927 97.4861 14.5552 98.7972 14.1691 98.4111C13.7829 98.025 15.0927 96.0875 17.0968 94.0834C19.101 92.0806 21.0371 90.7695 21.4246 91.1556C21.8107 91.5431 20.4996 93.4792 18.4954 95.4834Z" fill="#A76832"/>
<path d="M29.7931 95.4834C27.789 93.4792 26.4792 91.5431 26.8653 91.1556C27.2515 90.7695 29.189 92.0806 31.1917 94.0834C33.1959 96.0875 34.507 98.025 34.1209 98.4111C33.7334 98.7972 31.7973 97.4861 29.7931 95.4834Z" fill="#A76832"/>
<path d="M17.0968 82.7861C15.094 80.7833 13.7829 78.8458 14.169 78.4597C14.5551 78.0736 16.4926 79.3833 18.4954 81.3875C20.4996 83.3903 21.8093 85.3291 21.4246 85.7139C21.0371 86.1014 19.1009 84.7903 17.0968 82.7861Z" fill="#A76832"/>
<path d="M24.0705 75.1069C16.7413 75.1069 10.7788 81.0694 10.7788 88.4C10.7788 95.7292 16.7413 101.692 24.0705 101.692C31.401 101.692 37.3635 95.7292 37.3635 88.4C37.3635 81.0694 31.401 75.1069 24.0705 75.1069ZM24.0705 103.399C15.801 103.399 9.07324 96.668 9.07324 88.4C9.07324 80.1292 15.801 73.4014 24.0705 73.4014C32.3413 73.4014 39.0691 80.1292 39.0691 88.4C39.0691 96.668 32.3413 103.399 24.0705 103.399Z" fill="#CE8739"/>
<path d="M29.0181 88.4C29.0181 91.1305 26.8028 93.3472 24.0708 93.3472C21.3389 93.3472 19.125 91.1305 19.125 88.4C19.125 85.6666 21.3389 83.4528 24.0708 83.4528C26.8028 83.4528 29.0181 85.6666 29.0181 88.4Z" fill="#CE8739"/>
<path d="M26.6303 88.4C26.6303 89.8125 25.4844 90.9583 24.0705 90.9583C22.658 90.9583 21.5122 89.8125 21.5122 88.4C21.5122 86.9875 22.658 85.8403 24.0705 85.8403C25.4844 85.8403 26.6303 86.9875 26.6303 88.4Z" fill="#D3C6BA"/>
<path d="M39.7168 85.2458H99.0043V83.6528H39.7168V85.2458Z" fill="#EBC071"/>
<path d="M74.5622 83.1458C74.5622 84.1514 73.7469 84.9667 72.7413 84.9667C71.7372 84.9667 70.9219 84.1514 70.9219 83.1458V63.5819C70.9219 62.5778 71.7372 61.7625 72.7413 61.7625C73.7469 61.7625 74.5622 62.5778 74.5622 63.5819V83.1458Z" fill="#EBC071"/>
<path d="M94.1039 67.4917C89.7108 68.5625 80.2025 71.3903 72.3302 71.3903C72.3122 71.3903 72.2927 71.3903 72.2747 71.3917C72.008 71.4139 45.5539 73.3333 40.3858 58.1306C40.2594 57.7625 39.8594 57.5653 39.4886 57.6889C39.1205 57.8153 38.9233 58.2167 39.0483 58.5847C41.3441 65.3403 47.8691 69.9375 57.9164 71.8819C62.258 72.7222 66.3372 72.9042 69.0525 72.9042C70.9122 72.9042 72.133 72.8181 72.358 72.8014C80.2025 72.8 89.665 70.0222 94.1039 68.9653V67.4917Z" fill="#A76832"/>
<path d="M40.8735 60.2986C41.7443 59.4097 41.729 57.9861 40.8415 57.1153C39.9554 56.2472 38.529 56.2611 37.6596 57.1486C36.7901 58.0361 36.8054 59.4625 37.6915 60.3306C38.579 61.2 40.004 61.1861 40.8735 60.2986Z" fill="#E0A769"/>
<path d="M41.0889 60.2986C41.9597 59.4097 41.9444 57.9861 41.0569 57.1153C40.1694 56.2472 38.7444 56.2611 37.875 57.1486C37.0041 58.0361 37.0194 59.4625 37.9069 60.3306C38.7944 61.2 40.218 61.1861 41.0889 60.2986Z" fill="#FFD097"/>
<path d="M37.4554 59.6847C38.3415 60.5542 39.7665 60.5389 40.6359 59.6514C41.3109 58.9625 41.4512 57.9542 41.0679 57.1292C41.9429 58 41.9554 59.4153 41.0887 60.2986C40.2179 61.1861 38.7943 61.2 37.9068 60.3306C37.7068 60.1347 37.554 59.9111 37.4429 59.6722C37.4456 59.6764 37.4512 59.6806 37.4554 59.6847Z" fill="#E0A769"/>
<path d="M100.866 69.7903C101.858 70.4694 102.111 71.8222 101.433 72.8125C100.755 73.8042 99.4024 74.0569 98.4107 73.3792L83.6843 63.3014C82.694 62.6236 82.4399 61.2694 83.119 60.2792C83.7968 59.2889 85.1496 59.0347 86.1413 59.7125L100.866 69.7903Z" fill="#EBC071"/>
<path d="M87.0513 67.6486C86.7541 60.7097 88.2916 53.2555 92.4222 48.2569C95.5222 44.5069 102.618 46.1653 102.618 46.1653C96.7388 50.8264 96.0833 56.5028 95.2875 62.6014L87.0513 67.6486Z" fill="#D34435"/>
</svg>
