<svg width="128" height="128" viewBox="0 0 128 128" fill="none" xmlns="http://www.w3.org/2000/svg">
<g clip-path="url(#clip0_25_100)">
<path d="M115.761 21.186C108.97 23.8184 109.069 27.3357 105.064 28.6752L106.359 36.5787C107.967 37.8305 113.245 37.6619 116.232 35.0197C119.692 31.9588 120.212 27.7536 121.531 25.1692C122.587 23.0968 124.201 21.8819 123.91 20.9468C123.389 19.2658 118.901 19.9689 115.761 21.186Z" fill="#DEBA80"/>
<path d="M115.761 21.186C108.97 23.8184 109.069 27.3357 105.064 28.6752L106.359 36.5787C108.998 36.6349 112.727 36.1082 115.714 33.466C119.174 30.4048 119.267 26.9351 120.585 24.3503C121.642 22.2782 124.201 21.8819 123.91 20.9468C123.389 19.2658 118.901 19.9689 115.761 21.186Z" fill="#F6E4B4"/>
<path d="M115.761 21.186C108.97 23.8184 109.069 27.3357 105.064 28.6752L105.266 29.9095C105.88 29.7555 106.414 29.4294 106.906 29.1091C108.603 28.0054 110.501 25.3965 113.404 23.3908C116.044 21.5669 119.578 20.2833 123.302 20.2764C121.862 19.5281 118.353 20.1811 115.761 21.186Z" fill="#FFFFCD"/>
<mask id="mask0_25_100" style="mask-type:alpha" maskUnits="userSpaceOnUse" x="105" y="19" width="19" height="19">
<path d="M105.029 19.8755H124V37.3957H105.029V19.8755Z" fill="black"/>
</mask>
<g mask="url(#mask0_25_100)">
<path d="M123.279 20.2015C121.796 19.4855 118.288 20.1481 115.741 21.1357C111.953 22.6039 110.327 24.3205 108.893 25.8353C107.776 27.0149 106.811 28.0335 105.047 28.6234L105.081 28.7267C106.871 28.1282 107.845 27.1001 108.972 25.9099C110.399 24.4037 112.015 22.6962 115.781 21.2366C118.306 20.2576 121.776 19.5968 123.232 20.2996C123.56 20.4582 123.771 20.6816 123.859 20.9631C124.02 21.484 123.556 22.1031 122.913 22.9599C122.449 23.5792 121.922 24.281 121.482 25.1445C121.097 25.8996 120.778 26.7991 120.439 27.7511C119.595 30.126 118.639 32.8181 116.196 34.9792C113.254 37.5818 108.005 37.7906 106.392 36.5359L106.325 36.6216C106.864 37.0406 107.799 37.3 108.918 37.3663C111.208 37.5023 114.268 36.8301 116.268 35.0603C118.732 32.8811 119.694 30.1748 120.542 27.7873C120.879 26.8387 121.197 25.9426 121.579 25.1936C122.015 24.3387 122.538 23.6409 123 23.0249C123.662 22.1426 124.14 21.5045 123.962 20.9307C123.866 20.6192 123.636 20.3741 123.279 20.2015Z" fill="#714118"/>
</g>
<path d="M119.187 24.6079C115.962 25.0646 114.049 27.3125 112.349 29.3103C110.628 31.3333 109.002 33.2426 106.33 32.9348L106.318 33.0427C106.416 33.0539 106.512 33.0626 106.607 33.0681C109.165 33.2199 110.754 31.353 112.432 29.3806C114.232 27.2663 116.271 24.8696 119.857 24.6498C119.857 24.6498 119.403 24.5777 119.187 24.6079Z" fill="#714118"/>
<path d="M107.502 32.9839C108.237 34.673 111.317 34.8811 113.467 33.9196C115.505 33.0078 118.709 27.9072 119.138 24.6684C113.232 25.5417 111.862 32.4006 107.502 32.9839Z" fill="#E38A80"/>
<path d="M111.852 32.812C112.185 34.2777 114.415 33.3202 114.93 32.7834C116.774 30.8651 118.803 27.1984 119.138 24.6684C118.879 24.7067 118.63 24.7571 118.388 24.8171C114.499 25.9808 111.518 31.3468 111.852 32.812Z" fill="#F1A19A"/>
<path d="M113.445 33.8702C112.515 34.2859 111.385 34.4888 110.344 34.4272C108.975 34.346 107.974 33.8372 107.582 33.0279C109.585 32.7253 110.969 31.1 112.432 29.3806C114.172 27.3346 115.972 25.2196 119.074 24.733C118.623 27.8613 115.493 32.9537 113.445 33.8702ZM112.348 29.3101C110.882 31.0343 109.496 32.6622 107.495 32.9302L107.423 32.9397L107.452 33.0061C107.838 33.8919 108.89 34.4499 110.337 34.5357C111.396 34.5984 112.544 34.3921 113.489 33.9691C115.577 33.0347 118.775 27.8233 119.192 24.6752L119.202 24.604L119.13 24.6145C115.944 25.0857 114.034 27.33 112.348 29.3101Z" fill="#714118"/>
<path d="M93.9382 111.887C94.28 114.145 84.283 114.066 83.1007 112.27C81.9165 110.476 83.5478 108.047 83.8458 106.843C84.1437 105.641 83.0796 104.252 83.0081 103.493C82.9361 102.732 83.5195 102.067 83.2792 101.094C83.0711 100.252 82.4188 95.7314 79.7852 90.4658C85.3335 89.1358 89.7779 86.3167 92.4171 80.3286C92.4689 92.0756 88.2314 100.463 88.2383 100.799C88.2466 101.18 88.9118 102.487 88.823 103.414C88.736 104.339 88.5448 105.486 89.0494 106.181C89.5556 106.877 92.4115 107.337 94.9013 110.016C96.6516 111.9 94.3489 111.987 93.9382 111.887Z" fill="#DEBA80"/>
<path d="M95.5463 111.239C95.4928 111.794 93.883 110.522 93.4122 110.516C93.6567 110.783 93.8929 111.425 93.9378 111.887C94.2796 114.145 85.8884 111.865 84.6158 109.883C84.0618 109.021 84.5865 107.917 84.8848 106.714C85.184 105.51 84.1747 104.232 84.1028 103.473C84.0312 102.712 85.2194 101.637 85.2052 100.634C85.1659 97.6702 84.5049 92.8154 83.9243 89.0768C87.5474 87.4316 90.4721 84.7406 92.4167 80.3286C92.4685 92.0756 88.231 100.463 88.238 100.799C88.2462 101.18 88.9114 102.487 88.8226 103.414C88.7356 104.339 88.5445 105.486 89.049 106.181C89.5552 106.877 92.4111 107.337 94.9009 110.016C95.4071 110.561 95.5744 110.955 95.5463 111.239Z" fill="#F6E4B4"/>
<path d="M89.9208 106.742C89.0551 106.746 88.207 106.546 87.7656 106.032C87.1638 105.309 88.2662 104.211 88.1903 103.217C88.1156 102.224 87.5251 101.337 87.4043 100.735C87.2047 100.333 91.4396 92.5438 90.6437 83.5231C91.3017 82.5739 91.8949 81.5137 92.4168 80.3286C92.4686 92.0756 88.2311 100.463 88.2381 100.799C88.2463 101.18 88.9115 102.487 88.8227 103.414C88.7357 104.339 88.5446 105.486 89.0491 106.181C89.1856 106.369 89.4948 106.539 89.9208 106.742Z" fill="#FFFFCD"/>
<path d="M79.8668 90.5041C82.1189 95.029 82.9182 99.0276 83.2196 100.537C83.2695 100.787 83.3055 100.966 83.3338 101.081C83.4751 101.652 83.3421 102.11 83.2134 102.553C83.1214 102.872 83.0339 103.173 83.0637 103.487C83.0887 103.751 83.2384 104.096 83.4121 104.495C83.7166 105.196 84.0957 106.068 83.9004 106.857C83.8264 107.155 83.676 107.518 83.5011 107.938C82.9812 109.192 82.2691 110.908 83.1475 112.239C83.738 113.136 86.4891 113.544 88.7951 113.544C91.2485 113.544 93.1296 113.129 93.7047 112.461C93.8532 112.288 93.9128 112.097 93.8826 111.895L93.87 111.812L93.9515 111.832C94.0168 111.848 94.13 111.857 94.2537 111.857C94.711 111.857 95.2996 111.732 95.4528 111.381C95.5883 111.07 95.3887 110.624 94.8599 110.055C93.2599 108.333 91.496 107.526 90.3287 106.992C89.6685 106.691 89.192 106.472 89.0036 106.214C88.5423 105.579 88.645 104.593 88.7354 103.723C88.7466 103.616 88.7574 103.511 88.7671 103.409C88.8232 102.822 88.5658 102.064 88.378 101.511C88.2701 101.194 88.1851 100.943 88.1817 100.8C88.1804 100.742 88.2409 100.59 88.4312 100.122C91.0334 93.7141 92.3549 87.1449 92.3608 80.5905C89.9602 85.867 85.982 89.0216 79.8668 90.5041ZM88.7951 113.657C86.4598 113.657 83.6667 113.233 83.0538 112.301C82.1424 110.921 82.8676 109.172 83.3972 107.896C83.5701 107.479 83.7192 107.12 83.7911 106.83C83.9776 106.078 83.6067 105.225 83.3088 104.54C83.1316 104.132 82.9785 103.78 82.9518 103.498C82.9201 103.162 83.0102 102.851 83.1056 102.521C83.2299 102.093 83.3586 101.65 83.2247 101.108C83.1957 100.991 83.1597 100.81 83.1094 100.559C82.8072 99.0467 82.0041 95.0283 79.7348 90.4909L79.7031 90.4275L79.7721 90.411C85.9814 88.9227 89.9829 85.7114 92.3652 80.3058L92.4716 80.064L92.4731 80.3282C92.5023 86.984 91.178 93.6574 88.5355 100.164C88.4018 100.493 88.2963 100.753 88.2942 100.798C88.2972 100.923 88.3837 101.179 88.4843 101.475C88.6757 102.038 88.9374 102.808 88.879 103.419C88.8693 103.522 88.8585 103.627 88.8473 103.735C88.7589 104.585 88.6584 105.548 89.095 106.148C89.2656 106.383 89.7312 106.596 90.3756 106.89C91.5508 107.428 93.3272 108.24 94.9424 109.978C95.5046 110.583 95.7108 111.07 95.556 111.426C95.3811 111.827 94.7685 111.97 94.2537 111.97C94.159 111.97 94.0712 111.965 94.0016 111.955C94.0132 112.163 93.942 112.357 93.7899 112.534C93.0778 113.362 90.7428 113.657 88.7951 113.657Z" fill="#714118"/>
<path d="M91.3237 107.4C91.3227 107.4 91.3227 107.399 91.3214 107.399C89.0503 106.479 83.8655 109.273 83.1001 112.271C84.283 114.065 94.2804 114.144 93.9382 111.887C94.3483 111.986 96.6516 111.9 94.9013 110.016C93.693 108.715 92.395 107.937 91.3237 107.4Z" fill="#51281B"/>
<path d="M91.3232 107.4C91.3219 107.4 91.3219 107.399 91.3208 107.399C89.6846 106.736 86.5334 108.002 84.6157 109.884C85.8879 111.865 94.074 113.926 93.938 111.887C93.8934 111.425 93.6562 110.783 93.4117 110.516C93.8836 110.523 95.4921 111.793 95.5461 111.238C95.5461 111.236 95.5475 111.234 95.5475 111.232C95.5716 110.949 95.4029 110.557 94.9011 110.016C93.6922 108.715 92.3945 107.937 91.3232 107.4Z" fill="#663320"/>
<path d="M95.4563 111.376C95.3128 111.716 94.7699 111.848 94.3101 111.859C94.1365 111.863 94.0104 111.849 93.9508 111.834L93.8719 111.815L93.8844 111.895C93.9144 112.095 93.8571 112.282 93.7135 112.453C93.1847 113.082 91.5174 113.489 89.253 113.541C86.7632 113.598 83.795 113.168 83.1586 112.261C83.8174 109.758 87.6708 107.334 90.1943 107.276C90.617 107.267 90.9865 107.324 91.293 107.447L91.3023 107.455L91.3112 107.455C92.2285 107.915 93.5897 108.684 94.8613 110.053C95.3877 110.62 95.588 111.065 95.4563 111.376ZM91.3531 107.354L91.3419 107.344L91.3309 107.345C91.0113 107.217 90.6282 107.157 90.1919 107.167C87.6247 107.226 83.6987 109.705 83.0471 112.257L83.041 112.281L83.0543 112.301C83.6897 113.265 86.655 113.709 89.2553 113.65C91.5504 113.597 93.2479 113.176 93.797 112.523C93.9432 112.348 94.0115 112.157 93.9996 111.953C94.084 111.965 94.1949 111.97 94.3124 111.967C94.5523 111.962 95.3507 111.906 95.5565 111.418C95.706 111.064 95.4992 110.58 94.9408 109.979C93.6541 108.594 92.2782 107.818 91.3531 107.354Z" fill="#2D110B"/>
<path d="M92.647 109.745C93.3847 110.4 93.7434 111.022 93.8845 111.896L93.9918 111.878C93.8955 111.282 93.7007 110.799 93.3602 110.346C93.1867 110.115 92.647 109.745 92.647 109.745Z" fill="#2D110B"/>
<path d="M59.6198 108.36C60.1471 109.986 51.6969 111.129 48.7682 108.696C47.8516 107.934 47.6701 103.997 47.5787 103.404C47.4886 102.811 46.2488 102.096 45.8383 101.167C45.4288 100.237 45.7775 98.802 45.5245 98.2186C45.2714 97.6336 40.3632 90.0652 40.079 88.4694C39.9244 87.5976 40.2816 86.65 40.8762 85.7571C41.9252 86.4867 43.0978 87.1803 44.404 87.8256C45.3585 88.2977 47.455 88.991 50.3107 89.6561C50.3276 91.8355 50.9716 95.5909 51.2402 96.3682C51.548 97.2571 52.4128 97.7491 52.6909 98.7487C52.968 99.7498 53.1142 100.974 53.5558 101.658C53.9959 102.34 58.6708 103.807 60.7222 106.648C62.2224 108.722 59.8237 108.401 59.6198 108.36Z" fill="#DEBA80"/>
<path d="M61.1344 108.047C60.9669 108.317 59.5147 107.415 59.0816 106.95C59.201 107.209 59.5566 107.945 59.62 108.36C59.6721 109.974 52.9006 109.181 49.9721 106.749C49.0552 105.988 49.4224 103.394 49.3323 102.801C49.2422 102.208 47.2543 101.644 46.8448 100.714C46.4345 99.7848 47.1784 98.0879 46.925 97.5042C46.672 96.9209 43.2554 90.4447 42.973 88.8474C42.873 88.2865 42.9208 87.7046 43.0838 87.1308C43.5085 87.3683 43.9472 87.6006 44.4043 87.8256C45.3588 88.2977 47.4552 88.991 50.3109 89.6561C50.3278 91.8355 50.9719 95.5909 51.2405 96.3682C51.5482 97.2571 52.413 97.7491 52.6912 98.7487C52.9683 99.7498 53.1144 100.974 53.556 101.658C53.9961 102.34 58.6711 103.807 60.7224 106.648C61.2385 107.362 61.2932 107.792 61.1344 108.047Z" fill="#F6E4B4"/>
<path d="M56.8938 103.543C55.8311 103.172 55.1407 103.044 54.4235 102.646C53.9428 102.404 53.175 102.503 53.0542 102.262C52.6731 101.225 52.5115 99.8089 52.067 98.8837C51.5314 97.7685 51.1448 97.655 50.4206 96.5372C49.3157 94.7669 49.6545 91.5626 48.7827 89.2793C49.2635 89.4044 49.7738 89.5311 50.311 89.6561C50.3279 91.8354 50.972 95.5909 51.2406 96.3682C51.5483 97.2571 52.4132 97.7491 52.6913 98.7487C52.9684 99.7498 53.1145 100.974 53.5561 101.658C53.7936 102.026 55.2659 102.624 56.8938 103.543Z" fill="#FFFFCD"/>
<path d="M40.8914 85.836C40.253 86.8103 39.9986 87.6926 40.1346 88.4594C40.337 89.5974 42.9218 93.8158 44.4664 96.3359C45.0685 97.3187 45.5037 98.0289 45.5763 98.1961C45.6925 98.464 45.6872 98.8837 45.6813 99.3694C45.6739 99.9629 45.6654 100.635 45.8898 101.145C46.0923 101.604 46.51 102.017 46.8782 102.382C47.2587 102.758 47.587 103.083 47.6341 103.396C47.6504 103.5 47.6685 103.699 47.6939 103.975C47.8044 105.191 48.0645 108.038 48.8041 108.653C49.8672 109.536 51.8424 110.042 54.2229 110.042C56.6621 110.042 58.9734 109.491 59.4849 108.788C59.5849 108.65 59.6112 108.516 59.5663 108.378L59.5367 108.286L59.631 108.305C59.6835 108.316 59.8887 108.346 60.1352 108.346C60.4935 108.346 60.9525 108.283 61.1046 107.985C61.2461 107.708 61.1022 107.269 60.6767 106.681C59.3216 104.804 56.8077 103.527 55.144 102.682C54.2849 102.245 53.6643 101.93 53.5086 101.688C53.1951 101.203 53.0264 100.444 52.8635 99.7106C52.7931 99.3935 52.7203 99.0655 52.6368 98.7637C52.4919 98.2434 52.1795 97.8572 51.8775 97.4837C51.6104 97.1535 51.3342 96.812 51.1867 96.3866C50.9076 95.578 50.2796 91.838 50.2546 89.7007C47.2009 88.9876 45.2179 88.2908 44.3789 87.8757C43.1255 87.2564 41.9525 86.5705 40.8914 85.836ZM54.2229 110.155C51.8162 110.155 49.8151 109.639 48.7322 108.74C47.9565 108.095 47.7035 105.319 47.5817 103.985C47.5576 103.722 47.5388 103.514 47.523 103.413C47.4814 103.137 47.1502 102.809 46.7991 102.462C46.4236 102.09 45.9983 101.668 45.7868 101.19C45.5525 100.658 45.5611 99.9729 45.5687 99.3684C45.5743 98.9151 45.5796 98.4868 45.473 98.241C45.4038 98.0806 44.9702 97.3735 44.3706 96.3949C42.8219 93.8676 40.2298 89.6383 40.0236 88.4791C39.8801 87.6705 40.1513 86.744 40.8294 85.7262L40.8613 85.6783L40.9085 85.711C41.9772 86.4544 43.1614 87.1489 44.4288 87.775C45.2661 88.1892 47.2544 88.8863 50.3232 89.6014L50.3665 89.6113L50.3668 89.6555C50.3832 91.7756 51.0138 95.541 51.2933 96.35C51.4342 96.7565 51.6922 97.0757 51.9651 97.4132C52.2743 97.7956 52.5939 98.1908 52.7451 98.7336C52.8295 99.0382 52.9027 99.3677 52.9733 99.6861C53.1344 100.41 53.3007 101.159 53.6029 101.627C53.7425 101.843 54.3836 102.169 55.1952 102.581C56.868 103.432 59.3967 104.716 60.7677 106.615C61.22 107.24 61.3672 107.718 61.2046 108.036C61.0267 108.385 60.5248 108.458 60.1352 108.458C59.9534 108.458 59.792 108.442 59.694 108.429C59.7161 108.573 59.6765 108.715 59.5758 108.854C59.0367 109.595 56.7354 110.154 54.2229 110.155Z" fill="#714118"/>
<path d="M57.3988 103.835C57.3977 103.835 57.3977 103.835 57.3977 103.835C55.1346 102.918 49.5867 105.726 48.7905 108.713C51.7359 111.124 60.1472 109.982 59.6196 108.361C59.8239 108.401 62.2213 108.722 60.7234 106.647C59.8922 105.498 58.6337 104.574 57.3988 103.835Z" fill="#51281B"/>
<path d="M57.3988 103.835C57.3977 103.835 57.3977 103.835 57.3977 103.835C55.6488 103.126 51.9348 104.644 49.9727 106.749C52.9029 109.182 59.6731 109.974 59.62 108.361C59.5572 107.945 59.201 107.209 59.0805 106.949C59.5153 107.416 60.9658 108.318 61.1344 108.048C61.1367 108.043 61.139 108.039 61.1426 108.035C61.2921 107.778 61.2317 107.35 60.724 106.646C59.8918 105.498 58.6341 104.574 57.3988 103.835Z" fill="#663320"/>
<path d="M61.1085 107.981C60.9654 108.269 60.536 108.339 60.2012 108.347C59.9313 108.353 59.6927 108.319 59.6304 108.307L59.5396 108.29L59.568 108.378C59.6126 108.514 59.5878 108.647 59.4914 108.782C59.021 109.446 56.9189 109.987 54.602 110.04C52.0849 110.098 49.9927 109.607 48.8523 108.693C49.5488 106.195 53.6003 103.774 56.2594 103.713C56.6959 103.704 57.0716 103.761 57.3772 103.885C58.8992 104.797 59.9795 105.711 60.6792 106.679C61.1026 107.265 61.2468 107.703 61.1085 107.981ZM57.4271 103.788L57.4125 103.78H57.4079C57.0904 103.653 56.7034 103.595 56.2571 103.605C53.5505 103.667 49.4179 106.148 48.7383 108.699L48.729 108.733L48.7561 108.755C49.9098 109.699 52.0416 110.208 54.6044 110.148C56.9908 110.094 59.0836 109.546 59.5802 108.845C59.6769 108.709 59.7145 108.568 59.6917 108.427C59.8027 108.442 59.995 108.46 60.2035 108.455C60.5684 108.447 61.0386 108.367 61.2059 108.03C61.3639 107.712 61.2162 107.236 60.7674 106.615C60.058 105.634 58.9652 104.709 57.4271 103.788Z" fill="#2D110B"/>
<path d="M57.1616 104.87C57.1798 104.88 58.9625 105.967 59.5673 108.374L59.6726 108.348C59.3215 106.95 58.5791 105.988 58.0017 105.418C57.5664 104.988 57.1616 104.87 57.1616 104.87Z" fill="#2D110B"/>
<path d="M73.8726 48.1849C72.2032 51.268 67.5393 51.8097 64.5507 54.2705C61.5624 56.7311 60.1399 56.3138 57.966 56.3784C54.1808 56.4913 51.7673 56.1144 49.8968 55.4031C47.7392 54.5825 44.3435 53.5004 40.6263 55.7965C34.665 59.479 25.4862 78.4714 44.4038 87.8256C46.9431 89.0811 57.5462 91.8971 69.0664 91.6111C80.1549 91.3353 89.2834 89.6257 93.125 78.5188C95.4703 71.739 92.6878 62.5794 99.2888 56.4114L76.9534 33.7472C75.1271 38.0084 75.5418 45.1018 73.8726 48.1849Z" fill="#DEBA80"/>
<path d="M86.4296 59.9682C79.0042 57.9576 76.1834 50.8621 75.0415 43.7858C74.7828 45.546 74.4545 47.1096 73.8725 48.1849C72.203 51.268 67.5392 51.8097 64.5506 54.2705C61.5623 56.7311 60.1398 56.3138 57.9659 56.3784C54.1806 56.4913 51.7671 56.1144 49.8966 55.4031C47.7391 54.5825 44.3433 53.5004 40.6262 55.7965C34.6648 59.479 26.2382 68.1731 45.156 77.527C47.6474 82.5372 58.401 90.3285 66.7777 81.4138C69.091 84.6627 76.041 83.7167 82.1 75.4338C83.2294 83.7167 90.511 86.0762 93.1248 78.5188C94.6703 74.0507 93.9892 68.5491 95.2345 63.5515C92.0875 68.2925 89.5254 60.8918 86.4296 59.9682Z" fill="#F6E4B4"/>
<path d="M72.3364 54.7174C73.3513 53.1229 71.173 50.7858 69.2458 51.676C67.6288 52.4241 65.915 53.1472 64.5508 54.2705C61.5624 56.7311 60.1403 56.3134 57.966 56.3784C55.9622 56.4384 54.3422 56.36 52.9838 56.1683C52.5285 57.5118 53.5532 60.2797 54.8783 60.6812C56.8307 61.2729 56.4139 62.112 56.4142 63.2668C56.4145 64.4216 57.0513 66.3547 59.4366 66.424C61.8207 66.4923 62.6565 64.4288 64.452 64.4434C66.2469 64.4588 68.5514 65.6664 70.5956 64.9422C72.6396 64.218 73.6691 62.8741 73.8667 59.9597C74.0653 57.0452 70.6277 57.4012 72.3364 54.7174Z" fill="#A6652F"/>
<path d="M62.8333 74.2862C62.1991 73.5034 60.7991 71.025 58.8426 70.9702C56.7025 70.9106 56.2475 73.2047 55.4045 74.3839C54.5618 75.5632 53.3021 75.9541 52.2909 76.1178C51.2795 76.2811 50.0103 77.8421 50.8483 79.5987C51.6858 81.3557 54.4216 80.5321 56.2281 80.2732C58.0345 80.0145 58.9584 80.7908 60.3023 80.9054C61.6461 81.0192 63.7383 80.5727 64.707 78.5568C65.6757 76.5412 63.467 75.0692 62.8333 74.2862Z" fill="#A6652F"/>
<path d="M45.345 54.4729C43.7059 54.4729 42.1281 54.9342 40.6555 55.8439C38.8616 56.9519 36.9349 59.313 35.5013 62.16C33.831 65.477 32.9977 69.1441 33.1551 72.4858C33.3689 77.0235 35.4982 83.3597 44.4284 87.7754C47.0248 89.0593 56.7358 91.5754 67.4197 91.5754C67.97 91.5754 68.5233 91.5685 69.0648 91.5553C79.013 91.3078 89.0616 90.0963 93.0721 78.5006C93.9035 76.097 94.0856 73.4374 94.2783 70.6219C94.6225 65.5938 94.9788 60.3948 99.2087 56.4098L76.972 33.8458C76.0841 35.9644 75.74 38.7435 75.4071 41.4318C75.0738 44.1226 74.7593 46.6638 73.9213 48.2116C72.9226 50.0561 70.8917 50.9852 68.7415 51.9691C67.294 52.6313 65.797 53.3162 64.5862 54.3133C62.204 56.2749 60.8013 56.4266 59.0794 56.4266L58.6408 56.4257C58.4458 56.4257 58.2133 56.427 57.9674 56.4342C57.5276 56.4471 57.097 56.4537 56.688 56.4537C53.8325 56.454 51.6681 56.1366 49.8769 55.4553C48.5996 54.9695 47.0627 54.4729 45.345 54.4729ZM67.4197 91.687C56.7176 91.687 46.9832 89.1629 44.3789 87.8755C35.4003 83.4356 33.259 77.0588 33.0439 72.4911C32.8856 69.1301 33.7229 65.4436 35.4017 62.1099C36.8442 59.2453 38.7863 56.8674 40.5968 55.7489C42.0872 54.8284 43.6847 54.3615 45.345 54.3615C47.0809 54.3615 48.6299 54.8617 49.9165 55.351C51.6948 56.0274 53.8464 56.3424 56.688 56.3424C57.0957 56.3424 57.5253 56.3359 57.9642 56.3227C58.2116 56.3155 58.4452 56.3141 58.6408 56.3141L59.0794 56.3147C60.8317 56.3147 62.1564 56.1696 64.5153 54.2272C65.7376 53.2208 67.2412 52.533 68.6953 51.8678C70.8278 50.8917 72.8424 49.97 73.8234 48.1585C74.6512 46.6295 74.9646 44.0982 75.2965 41.4184C75.6345 38.6894 75.9839 35.8677 76.9018 33.7254L76.9344 33.6488L99.3684 56.4131L99.3269 56.4524C95.089 60.412 94.7333 65.6064 94.3896 70.6295C94.1962 73.4528 94.0137 76.1195 93.1773 78.537C91.3959 83.6881 88.3403 87.1684 83.8359 89.1773C79.3958 91.1578 73.8788 91.547 69.0675 91.6665C68.5254 91.68 67.9707 91.687 67.4197 91.687Z" fill="#714118"/>
<path d="M92.0975 61.8499C87.5977 65.8406 87.9042 75.3028 81.7869 80.409C76.0217 85.2203 53.9491 88.1792 44.9841 79.2341C38.9095 79.0359 37.0479 78.1683 33.6138 75.8928C34.7735 80.3312 37.9582 84.6373 44.4044 87.8249C46.9431 89.0804 57.5468 91.8968 69.0668 91.6104C80.1543 91.3346 89.2836 89.6255 93.1258 78.5185C94.5974 74.2635 94.049 69.0694 95.0699 64.2672C95.0712 64.2649 95.0712 64.2625 95.0712 64.2605C95.4164 61.9525 94.0052 60.1579 92.0975 61.8499Z" fill="#F3E0D2"/>
<path d="M61.393 84.965C57.1077 84.7931 52.8643 83.9828 49.3804 82.2888C52.5848 84.7073 57.0114 86.3736 61.393 84.965Z" fill="#FFF8E8"/>
<path d="M90.5733 63.6454C87.8466 67.7867 87.2207 74.5569 83.1436 79.0966C85.5321 84.1896 90.867 84.7941 93.0736 78.6643C93.0918 78.6161 93.1086 78.568 93.1254 78.5185C94.5976 74.2631 94.0487 69.0701 95.0694 64.2668C95.0708 64.2645 95.0708 64.2619 95.0708 64.2609C95.0986 64.0767 95.114 63.895 95.1189 63.719C93.5036 66.0149 92.0396 65.1372 90.5733 63.6454Z" fill="#FDFAF0"/>
<path d="M33.7053 76.0201C35.0451 80.9644 38.6521 84.9185 44.4291 87.7748C47.0241 89.0586 56.7337 91.5747 67.4191 91.5751C67.4193 91.5751 67.4197 91.5751 67.42 91.5751C67.9701 91.5751 68.5236 91.5682 69.0655 91.5546C79.0137 91.3076 89.0619 90.0956 93.073 78.5004C93.9041 76.0977 94.0859 73.4387 94.2786 70.6238C94.4228 68.5185 94.572 66.3419 95.0153 64.2552L95.0174 64.248C95.1691 63.2087 94.9738 62.262 94.4937 61.7048C94.2314 61.4003 93.8985 61.2392 93.5316 61.2392C93.0927 61.2392 92.6226 61.4587 92.1344 61.8918C90.0824 63.7114 89.0272 66.6975 87.91 69.859C86.552 73.7022 85.1474 77.6764 81.8225 80.4519C78.625 83.1203 70.7854 85.0574 63.1823 85.0574C58.5408 85.0574 50.0058 84.3074 44.9603 79.2893C38.9543 79.0909 37.055 78.2311 33.7053 76.0201ZM67.42 91.6863C67.4197 91.6863 67.4193 91.6863 67.4191 91.6863C61.4194 91.6863 56.1204 90.8947 52.7315 90.2306C48.626 89.4262 45.5786 88.4677 44.3796 87.8748C38.5178 84.9762 34.8774 80.9496 33.5598 75.9069L33.5229 75.7658L33.6446 75.8466C37.0565 78.1074 38.918 78.9805 44.9857 79.1784L45.0078 79.1791L45.0232 79.1945C50.0384 84.1989 58.5531 84.9458 63.1823 84.9458C70.7621 84.9458 78.5715 83.02 81.7512 80.3662C85.0526 77.6104 86.4517 73.6511 87.8051 69.8218C88.9269 66.6464 89.987 63.6471 92.0601 61.8083C92.5699 61.3567 93.0648 61.1277 93.5316 61.1277C93.9322 61.1277 94.2941 61.3019 94.5782 61.6319C95.0811 62.2155 95.286 63.2014 95.1263 64.2687L95.1242 64.2787H95.1246C94.6828 66.3573 94.5337 68.5301 94.3898 70.6312C94.1968 73.4539 94.0143 76.1201 93.1782 78.5366C91.3965 83.6877 88.3406 87.168 83.8358 89.1771C79.3961 91.157 73.8793 91.5464 69.0684 91.6661C68.5257 91.6794 67.971 91.6863 67.42 91.6863Z" fill="#A7907F"/>
<path d="M109.737 11.0544C108.677 11.0419 109.243 13.1565 108.962 15.5493C108.681 17.9424 108.372 21.3798 104.793 25.316C104.022 26.1636 102.858 27.4967 102.604 28.6375C103.177 31.1026 107.077 32.7371 108.914 31.8021C116.447 25.3374 111.579 11.0762 109.737 11.0544Z" fill="#B78232"/>
<path d="M109.737 11.0544C108.677 11.0419 109.243 13.1565 108.962 15.5493C108.681 17.9424 108.372 21.3798 104.793 25.316C104.022 26.1636 102.858 27.4967 102.604 28.6375C102.928 30.0313 104.316 31.1593 105.793 31.7081C116.348 26.289 111.579 11.0762 109.737 11.0544Z" fill="#D5A050"/>
<path d="M108.962 15.5493C108.681 17.9424 108.372 21.3798 104.793 25.316C104.022 26.1636 102.858 27.4966 102.604 28.6375C102.717 29.1197 102.958 29.569 103.284 29.9745C106.339 26.6361 108.076 24.0731 109.081 20.8654C109.976 18.0074 109.443 13.4486 109.201 11.4332C108.912 12.144 109.171 13.7692 108.962 15.5493Z" fill="#E4C28F"/>
<path d="M108.884 31.7566C108.545 31.9279 108.129 32.0146 107.646 32.0146H107.646C105.667 32.0142 103.119 30.5707 102.66 28.6373C102.9 27.5861 103.893 26.3873 104.834 25.3523C108.324 21.5147 108.71 18.1892 108.992 15.7608L109.016 15.5556C109.113 14.729 109.109 13.9452 109.107 13.2536C109.102 12.2887 109.098 11.5273 109.386 11.2382C109.473 11.1511 109.587 11.1115 109.737 11.1089C110.238 11.1144 111.005 12.302 111.646 14.0636C113.114 18.1014 114.426 26.9945 108.884 31.7566ZM109.728 11C109.557 11 109.415 11.0544 109.309 11.1614C108.989 11.4824 108.993 12.2254 108.998 13.2538C109.001 13.9424 109.004 14.7231 108.908 15.5431L108.884 15.7486C108.604 18.1618 108.22 21.4675 104.753 25.2794C103.799 26.3286 102.791 27.5468 102.551 28.6257L102.549 28.6375L102.551 28.6498C103.013 30.6375 105.622 32.1231 107.646 32.1231H107.646C108.149 32.1231 108.583 32.0315 108.939 31.8506L108.95 31.8433C111.333 29.7983 112.732 26.7054 112.997 22.8988C113.196 20.0415 112.729 16.7249 111.748 14.0262C111.082 12.1944 110.293 11.0066 109.728 11Z" fill="#6B4712"/>
<path d="M109.188 32.8117C108.862 31.3441 108.427 26.778 105.275 24.6581C102.122 22.5382 99.5582 23.8979 97.5557 23.6795C95.7256 23.4806 91.4858 22.2482 88.2609 23.5891C85.7252 24.6433 81.2304 25.9808 77.8241 35.3302C74.4176 44.6796 77.208 51.3837 81.2304 54.3915C85.4742 57.5647 92.1744 58.7402 97.5557 57.0004C100.111 59.1025 103.264 59.5374 106.039 58.8125C108.816 58.0875 110.366 54.7538 110.366 50.9126C111.38 49.898 114.859 45.8393 114.497 41.998C114.135 38.1569 109.514 34.2794 109.188 32.8117Z" fill="#DEBA80"/>
<path d="M108.899 32.8117C108.572 31.3441 108.138 26.778 104.985 24.6581C101.832 22.5382 99.2685 23.8979 97.2664 23.6795C95.4361 23.4806 91.1963 22.2482 87.971 23.5891C85.4357 24.6433 80.941 25.9808 77.5346 35.3302C77.3611 37.4996 77.6025 45.0709 80.6912 49.2697C85.1267 55.2999 93.8022 57.2047 94.7169 53.0516C97.7448 56.5325 101.679 58.7878 105.892 57.8041C108.686 57.1518 110.076 54.7538 110.076 50.9126C111.091 49.898 114.57 45.8393 114.207 41.998C113.845 38.1569 109.225 34.2794 108.899 32.8117Z" fill="#F6E4B4"/>
<path d="M89.5296 49.544C88.9228 48.2896 90.6546 45.7604 88.5599 44.3899C87.0649 43.4113 84.782 44.7433 83.2054 44.7158C81.1921 44.6812 79.292 43.6831 78.0145 44.1995C77.2992 44.4889 76.7795 45.0432 76.4849 45.9224C77.0718 49.8027 78.9538 52.689 81.2302 54.3915C83.6688 56.2144 86.918 57.3779 90.262 57.7085C92.1777 56.9278 92.67 54.6493 92.2351 53.1954C91.4947 50.7202 90.0819 50.6876 89.5296 49.544Z" fill="#975620"/>
<path d="M92.282 55.1787C89.1568 55.7654 83.8493 53.563 80.6911 49.2697C79.6273 47.8233 78.9008 45.9762 78.4131 44.0883C79.6706 43.8719 81.3923 44.6849 83.2056 44.7162C84.7821 44.7429 87.065 43.4113 88.56 44.3895C90.6547 45.7604 88.9229 48.2896 89.5297 49.544C90.082 50.6876 91.4952 50.7202 92.2352 53.1958C92.4085 53.7749 92.4342 54.4846 92.282 55.1787Z" fill="#A6652F"/>
<path d="M104.534 25.8907C106.467 25.708 108.031 27.6646 108.031 27.6646C107.374 25.8641 105.873 24.0949 104.534 25.8907Z" fill="black"/>
<path d="M86.3511 28.8715C86.3511 28.8715 88.1118 26.6216 90.3622 26.775C88.7548 24.7858 87.0632 26.8226 86.3511 28.8715Z" fill="black"/>
<path d="M110.328 50.874L110.312 50.8901V50.9126C110.312 55 108.63 58.0803 106.026 58.7601C105.203 58.9748 104.36 59.0837 103.521 59.0837C101.331 59.0837 99.2803 58.3489 97.5904 56.9585L97.5672 56.9397L97.5392 56.949C95.8927 57.4811 94.1015 57.751 92.2159 57.751C88.2077 57.751 84.113 56.4788 81.2633 54.3479C77.3461 51.419 74.3994 44.8897 77.8755 35.3487C81.0802 26.5527 85.3061 24.8438 87.8312 23.823C87.9873 23.76 88.1377 23.6993 88.2819 23.6392C89.2737 23.2268 90.4246 23.0261 91.7994 23.0261C93.3938 23.0261 94.9313 23.2974 96.1663 23.5151C96.7091 23.6105 97.1779 23.6934 97.55 23.734C97.7042 23.7505 97.8652 23.7587 98.042 23.7587C98.5043 23.7587 98.992 23.7019 99.5079 23.6416C100.09 23.5735 100.691 23.5037 101.333 23.5037C102.784 23.5037 104.027 23.8848 105.244 24.7033C107.98 26.5424 108.644 30.1762 109.001 32.1281C109.051 32.4012 109.094 32.6372 109.136 32.8233C109.255 33.3625 109.919 34.1918 110.76 35.2424C112.217 37.0628 114.212 39.5558 114.443 42.0031C114.767 45.4404 111.893 49.3087 110.328 50.874ZM110.845 35.1745C110.013 34.1351 109.356 33.3139 109.241 32.7999C109.201 32.6154 109.158 32.3805 109.108 32.1087C108.773 30.2807 108.078 26.4778 105.305 24.6128C104.069 23.7818 102.806 23.3948 101.333 23.3948C100.685 23.3948 100.08 23.4654 99.4958 23.5333C98.9827 23.5934 98.498 23.6501 98.042 23.6501C97.8692 23.6501 97.712 23.6418 97.5616 23.6257C97.193 23.5855 96.7258 23.5033 96.1851 23.4079C94.9458 23.1896 93.403 22.9176 91.7994 22.9176C90.4101 22.9176 89.2457 23.1209 88.24 23.539C88.0962 23.5986 87.9463 23.6594 87.7903 23.7224C85.2487 24.7498 80.9947 26.4702 77.7735 35.3117C76.2141 39.5905 75.8393 43.7194 76.6889 47.2518C77.4098 50.2487 79.0111 52.7995 81.1983 54.4351C84.1091 56.6114 88.1245 57.8599 92.2159 57.8599C94.1021 57.8599 95.8948 57.5909 97.5441 57.0615C99.2493 58.4558 101.316 59.1926 103.521 59.1926C104.369 59.1926 105.221 59.0824 106.053 58.8652C108.702 58.1736 110.414 55.062 110.42 50.9351C110.762 50.5899 114.953 46.2534 114.551 41.9927C114.318 39.5133 112.31 37.0054 110.845 35.1745Z" fill="#714118"/>
<path d="M104.925 27.4967C103.542 27.9814 103.068 30.2181 103.865 32.4926C104.662 34.7673 106.428 36.2187 107.811 35.7343C109.193 35.25 109.668 33.0133 108.871 30.7386C108.074 28.4637 106.307 27.0126 104.925 27.4967Z" fill="#DEBA80"/>
<path d="M105.149 28.1377C103.766 28.6221 103.241 30.7153 103.977 32.8128C104.712 34.9105 106.428 36.2187 107.811 35.7343C109.193 35.25 109.718 33.1569 108.983 31.059C108.248 28.9609 106.531 27.653 105.149 28.1377Z" fill="black"/>
<path d="M105.288 28.533C103.905 29.0174 103.349 31.022 104.046 33.0107C104.743 34.9993 106.428 36.2187 107.811 35.7343C109.193 35.25 109.749 33.2453 109.053 31.2567C108.356 29.2678 106.67 28.0487 105.288 28.533Z" fill="#CCCCCC"/>
<path d="M105.288 28.533C103.905 29.0174 103.349 31.022 104.046 33.0107C104.217 33.4987 104.448 33.9401 104.719 34.3215C106.169 34.6139 108.203 34.0395 109.352 33.04C109.361 32.4732 109.265 31.8642 109.053 31.2567C108.356 29.2678 106.67 28.0487 105.288 28.533Z" fill="white"/>
<path d="M105.268 30.0451C104.314 30.4704 104.011 31.8701 104.591 33.1713C105.171 34.4733 106.415 35.1837 107.369 34.7584C108.323 34.3331 108.626 32.9335 108.045 31.6318C107.466 30.3302 106.222 29.6202 105.268 30.0451Z" fill="#2AC8FF"/>
<path d="M105.404 29.9541C104.419 30.2995 104.002 31.6698 104.473 33.0144C104.944 34.3591 106.125 35.1696 107.11 34.824C108.096 34.479 108.513 33.109 108.042 31.7638C107.571 30.419 106.39 29.609 105.404 29.9541Z" fill="#2AC8FF"/>
<path d="M105.404 29.9541C104.419 30.2995 104.002 31.6698 104.473 33.0144C104.589 33.3462 104.749 33.6451 104.938 33.9025C106.063 34.0658 107.402 33.7527 108.234 32.9493C108.243 32.5706 108.183 32.1664 108.042 31.7638C107.571 30.419 106.39 29.609 105.404 29.9541Z" fill="#0079FF"/>
<path d="M107.092 34.773C106.91 34.8369 106.717 34.861 106.518 34.8445C105.689 34.7762 104.887 34.0336 104.524 32.9966C104.063 31.6819 104.466 30.3401 105.422 30.0053C105.604 29.9415 105.798 29.9175 105.996 29.934C106.826 30.0023 107.628 30.7449 107.991 31.7817C108.451 33.0962 108.048 34.438 107.092 34.773ZM106.005 29.826C105.791 29.8079 105.583 29.8342 105.386 29.9029C104.374 30.2576 103.941 31.6616 104.422 33.0325C104.799 34.1091 105.638 34.8809 106.509 34.9528C106.723 34.9702 106.932 34.9441 107.128 34.8752C108.14 34.5205 108.573 33.1169 108.093 31.746C107.716 30.6694 106.877 29.8976 106.005 29.826Z" fill="#00418E"/>
<path d="M105.8 30.6104C105.745 30.6179 105.691 30.6307 105.638 30.6489C105.345 30.7513 105.118 31.0182 104.999 31.4008C104.866 31.8338 104.89 32.3693 105.067 32.8697C105.379 33.7523 106.118 34.376 106.749 34.2902C106.804 34.2826 106.858 34.2698 106.911 34.2516C107.204 34.1497 107.431 33.8828 107.55 33.4997C107.684 33.0668 107.659 32.5313 107.482 32.0304C107.171 31.1481 106.431 30.5245 105.8 30.6104Z" fill="black"/>
<path d="M109.159 34.0451C108.929 34.8729 108.444 35.4549 107.792 35.6833C107.677 35.7235 107.557 35.7523 107.435 35.769C106.148 35.9443 104.713 34.7504 104.097 32.9928C103.764 32.0413 103.708 31.0574 103.939 30.2223C104.169 29.3941 104.654 28.8124 105.306 28.5844C105.421 28.5438 105.541 28.5148 105.663 28.4984C106.95 28.3232 108.385 29.5169 109.001 31.2745C109.334 32.2261 109.39 33.21 109.159 34.0451ZM105.648 28.3907C105.519 28.4083 105.392 28.4389 105.269 28.4819C104.583 28.7221 104.074 29.3298 103.834 30.1933C103.597 31.0495 103.654 32.0565 103.994 33.0288C104.627 34.8343 106.112 36.0588 107.45 35.8766C107.579 35.8591 107.706 35.8284 107.828 35.7855C108.514 35.5454 109.024 34.9376 109.263 34.0741C109.501 33.2179 109.444 32.2109 109.103 31.2386C108.471 29.4332 106.985 28.2086 105.648 28.3907Z" fill="black"/>
<path d="M104.423 27.6039C104.423 27.6039 103.365 28.2206 102.846 29.7166C102.243 31.4586 102.275 34.217 104.068 35.8536C106.839 38.3819 110.87 35.25 110.87 35.25C104.442 35.7024 103.508 30.4655 104.423 27.6039Z" fill="#F6E4B4"/>
<path d="M107.778 34.9452C107.752 34.9465 107.725 34.9494 107.7 34.9507C105.006 35.1645 103.038 36.2739 101.745 36.461C101.109 36.5537 100.099 35.703 98.8043 35.3487C98.5187 35.2698 98.1956 35.2237 97.8512 35.2206C97.8438 34.9353 97.8624 34.636 97.903 34.3209C98.1224 32.6125 99.0238 29.7765 100.469 29.4067C101.914 29.0372 103.902 31.1362 105.2 33.1427C105.777 33.93 106.614 34.5782 107.778 34.9452Z" fill="#FFF8C3"/>
<path d="M105.418 33.3377C104.003 31.6163 103.998 29.1731 104.423 27.6039C104.423 27.6039 104.179 28.1661 104.136 28.4943C103.933 30.024 104.147 31.9632 105.334 33.4069C106.454 34.7696 108.192 35.4141 110.502 35.3246C110.625 35.32 110.748 35.3134 110.874 35.3045L110.866 35.1959C108.406 35.3688 106.574 34.7439 105.418 33.3377Z" fill="#714118"/>
<path d="M94.8765 46.6276C98.1993 48.8761 99.0156 57.6656 105.897 55.9422C109.976 54.9211 108.011 50.124 109.292 47.4421C102.932 52.0298 94.8765 46.6276 94.8765 46.6276Z" fill="#4A0000"/>
<path d="M105.576 56.0162C105.682 55.9941 105.789 55.9697 105.897 55.9422C109.976 54.9211 108.011 50.124 109.292 47.4421C107.692 48.5963 105.985 49.118 104.325 49.2526C103.976 51.5391 104.506 53.9226 105.576 56.0162Z" fill="#630000"/>
<path d="M106.483 55.7536C109.781 54.4295 108.077 49.985 109.292 47.4421C108.127 48.2829 106.904 48.7867 105.684 49.051C105.062 51.2854 105.401 53.6838 106.483 55.7536Z" fill="#770000"/>
<path d="M102.932 52.0298C101.651 50.8983 99.0348 51.2606 99.0464 52.7648C99.0678 52.7978 99.089 52.8308 99.1105 52.8642C100.583 55.0831 102.501 56.7931 105.897 55.942C107.307 55.4966 107.615 53.5089 106.818 52.2191C106.056 50.9865 104.049 50.5512 102.932 52.0298Z" fill="#FC6972"/>
<path d="M105.731 51.2993C105.526 51.2109 105.309 51.1491 105.086 51.1181C104.353 51.0753 103.51 51.9879 103.747 53.045C103.469 52.5669 103.251 52.3079 102.932 52.0298C102.108 51.3022 100.532 51.1362 99.6617 51.6912C98.7797 52.7227 103.332 56.9704 106.362 55.1118C107.438 54.3948 107.422 52.0812 105.731 51.2993Z" fill="#FD8A91"/>
<path d="M107.03 54.7356C106.815 55.3137 106.407 55.7238 105.884 55.8895C105.299 56.0359 104.735 56.1106 104.21 56.1106C101.657 56.1106 100.168 54.3595 99.155 52.8331L99.1003 52.749C99.1019 52.4484 99.2121 52.1859 99.4281 51.9677C99.768 51.6256 100.364 51.4209 101.021 51.4209C101.745 51.4209 102.428 51.6576 102.895 52.0704L102.939 52.1093L102.975 52.0624C103.42 51.4735 104.053 51.1487 104.758 51.1487C105.568 51.1487 106.359 51.58 106.771 52.2479C107.22 52.9738 107.321 53.9503 107.03 54.7356ZM104.758 51.0402C104.037 51.0402 103.388 51.3632 102.924 51.9512C102.438 51.5444 101.749 51.3122 101.021 51.3122C100.325 51.3122 99.7166 51.5233 99.3513 51.8915C99.1098 52.1343 98.989 52.4283 98.9917 52.7652L98.992 52.7811L99.065 52.8942C100.092 54.442 101.605 56.2191 104.21 56.2191C104.744 56.2191 105.316 56.1436 105.913 55.9938C106.472 55.8172 106.905 55.3837 107.132 54.7736C107.435 53.9579 107.329 52.944 106.864 52.1908C106.432 51.4916 105.605 51.0402 104.758 51.0402Z" fill="#B0383F"/>
<path d="M102.966 51.9879L102.896 52.0717C103.29 52.3976 103.486 52.7303 103.688 53.0434C103.997 53.5218 104.263 53.6432 104.263 53.6432C104.061 53.441 103.925 53.2199 103.78 52.9863C103.58 52.6613 103.373 52.3253 102.966 51.9879Z" fill="#B0383F"/>
<path d="M108.688 50.7775C108.594 52.9691 108.497 55.2356 105.884 55.8898C105.299 56.0359 104.736 56.1106 104.211 56.1106C100.884 56.1106 99.2355 53.1269 97.7818 50.4945C97.0467 49.1631 96.3453 47.8926 95.4818 47.0552C96.7884 47.7936 99.9434 49.3437 103.412 49.3437C105.556 49.3437 107.49 48.7574 109.163 47.6005C108.784 48.5201 108.735 49.6667 108.688 50.7775ZM103.412 49.235C98.9149 49.235 94.9462 46.609 94.9067 46.5823L94.8457 46.6724C95.9652 47.43 96.8013 48.9442 97.6868 50.5474C99.1554 53.206 100.82 56.2191 104.211 56.2191C104.745 56.2191 105.317 56.1438 105.91 55.9953C108.602 55.321 108.701 53.0137 108.796 50.7822C108.846 49.6077 108.898 48.3934 109.341 47.4656L109.433 47.2735L109.26 47.3979C107.571 48.6172 105.603 49.235 103.412 49.235Z" fill="#714118"/>
<path d="M105.37 30.3187C105.013 30.2893 104.7 30.5546 104.671 30.9116C104.641 31.2686 104.907 31.5814 105.264 31.6111C105.621 31.6404 105.934 31.3752 105.963 31.0182C105.993 30.6612 105.727 30.348 105.37 30.3187Z" fill="white"/>
<path d="M105.678 32.6402C105.505 32.626 105.354 32.754 105.339 32.9266C105.325 33.0992 105.454 33.2506 105.626 33.2648C105.798 33.279 105.95 33.151 105.964 32.978C105.979 32.8058 105.85 32.6544 105.678 32.6402Z" fill="white"/>
<path d="M82.3527 25.2691C78.2643 21.7345 77.5355 18.305 76.9617 15.9257C76.3879 13.5463 76.7013 11.3448 75.6339 11.4863C73.7783 11.7322 69.8629 26.5527 79.0162 33.2195C83.6981 32.8331 84.7124 28.1741 84.2858 27.2756C83.8556 26.4867 83.2336 26.0307 82.3527 25.2691Z" fill="#B78232"/>
<path d="M82.3527 25.2691C78.2644 21.7345 77.5355 18.305 76.9617 15.9257C76.3879 13.5463 76.7014 11.3448 75.634 11.4863C75.5958 11.4913 75.5561 11.5048 75.5166 11.5222C71.4354 15.8855 77.2883 32.3376 82.7678 31.4972C84.244 29.9491 84.5577 27.8484 84.2859 27.2756C83.8557 26.4867 83.2337 26.0307 82.3527 25.2691Z" fill="#D5A050"/>
<path d="M82.3525 25.2691C78.2641 21.7344 77.5353 18.3049 76.9615 15.9257C76.7424 15.0177 76.6527 14.1358 76.5662 13.4C75.445 17.7328 78.0351 24.2031 84.2932 28.5654C84.409 27.9797 84.3942 27.5049 84.2856 27.2756C83.8554 26.4867 83.2334 26.0307 82.3525 25.2691Z" fill="#E4C28F"/>
<path d="M83.558 30.3464C82.8858 31.5137 81.5552 32.9484 79.0314 33.1637C72.5282 28.4116 72.7383 19.4866 73.8895 14.959C74.3832 13.0173 75.1035 11.6114 75.6406 11.5402C75.671 11.5366 75.7 11.5342 75.7281 11.5342C76.2956 11.5342 76.3971 12.4122 76.5377 13.6271C76.6185 14.3252 76.7103 15.1165 76.9085 15.9384L76.9574 16.1419C77.5371 18.5568 78.3303 21.8639 82.3171 25.3104C82.4467 25.4226 82.5707 25.5278 82.6893 25.6288C83.3782 26.2145 83.8757 26.6378 84.236 27.2989C84.4353 27.7177 84.308 29.0438 83.558 30.3464ZM82.7598 25.546C82.6414 25.4453 82.5174 25.3401 82.388 25.2283C78.4284 21.8044 77.6391 18.5168 77.0633 16.1167L77.0142 15.9128C76.8175 15.0973 76.7264 14.3096 76.6456 13.6144C76.4915 12.2819 76.38 11.3319 75.6264 11.4325C75.0371 11.5104 74.2964 12.917 73.7844 14.9323C73.4326 16.3151 72.7008 19.9821 73.4946 24.1496C74.2456 28.0912 76.0923 31.1574 78.984 33.2635L79.0001 33.2753L79.0202 33.2737C81.6041 33.0605 82.9651 31.5935 83.6521 30.4004C84.4307 29.0484 84.5485 27.7035 84.333 27.2498C83.9615 26.5678 83.4573 26.1392 82.7598 25.546Z" fill="#6B4712"/>
<path d="M73.5527 21.6008C67.6747 17.2159 61.9352 17.9443 61.9669 19.1995C61.9989 20.4549 63.7994 21.3372 63.8106 24.4466C63.8203 27.0453 64.5933 35.6977 70.1974 38.2301C75.802 40.7622 79.3138 38.461 79.3138 38.461L82.1721 32.8764C76.4334 30.6713 77.6994 24.6951 73.5527 21.6008Z" fill="#DEBA80"/>
<path d="M73.5527 21.6008C67.6747 17.2159 61.9352 17.9443 61.9669 19.1995C61.9989 20.4549 65.6591 20.7516 65.3222 23.8428C64.7784 28.8276 66.5041 34.2071 70.2506 36.6349C75.1476 39.8089 79.3138 38.461 79.3138 38.461L82.1721 32.8764C76.4334 30.6713 77.6994 24.6951 73.5527 21.6008Z" fill="#F6E4B4"/>
<path d="M73.5525 21.6008C69.3691 18.4802 65.2573 17.9496 63.2446 18.3555C65.9034 18.2449 68.4997 19.5611 70.7921 20.803C74.0425 22.6088 74.7646 26.581 76.4501 29.8313C77.4086 31.7479 79.5911 32.9101 81.8318 32.7369C76.4833 30.4289 77.6151 24.632 73.5525 21.6008Z" fill="#FFFFCD"/>
<path d="M76.9616 26.6902C76.1989 24.8363 75.4096 22.9189 73.5847 21.5576C68.681 17.8992 63.8926 17.8058 62.4186 18.5686C62.0815 18.7432 61.9066 18.9619 61.9122 19.2011C61.9251 19.6987 62.2098 20.1437 62.5398 20.6592C63.0785 21.5009 63.749 22.5485 63.7559 24.4466C63.7583 25.0369 63.8213 28.1436 64.854 31.3798C65.9662 34.8653 67.7565 37.1869 70.1747 38.2793C71.3787 38.8233 72.4902 39.1461 73.4933 39.3172C75.6383 39.6831 77.2884 39.3578 78.2871 39.0255C78.9813 38.7946 79.3135 38.461 79.3135 38.461C79.2782 38.4838 75.73 40.67 70.2195 38.1803C67.8308 37.101 66.06 34.8016 64.9577 31.3464C63.9298 28.1259 63.8672 25.0335 63.8649 24.4466C63.8579 22.5164 63.1779 21.454 62.6312 20.6004C62.297 20.0781 62.033 19.6657 62.0212 19.1981C62.0148 18.9523 62.261 18.7725 62.4685 18.6649C63.9216 17.9134 68.655 18.015 73.5198 21.6447C75.3205 22.9882 76.1038 24.8911 76.8614 26.7315C77.6942 28.7557 78.5514 30.8384 80.7545 32.2584C81.5605 32.7777 82.1718 32.8764 82.1718 32.8764C78.9539 31.5309 77.9413 29.0698 76.9616 26.6902Z" fill="#714118"/>
<path d="M70.8324 28.1862C69.8746 25.8446 68.9646 23.6208 67.1456 22.3468C66.9589 22.2158 66.5039 22.0809 66.5039 22.0809C68.6924 23.2423 69.6829 25.6638 70.7321 28.2274C72.0618 31.4768 73.4268 34.8139 77.4099 35.4938C78.1176 35.6146 78.9082 35.6512 79.7957 35.5888C80.1778 35.5619 80.9805 35.3443 80.9805 35.3443C74.1919 36.3957 72.4842 32.2225 70.8324 28.1862Z" fill="#714118"/>
<path d="M67.2172 22.4663C67.4785 24.4245 66.6203 25.7862 66.6002 28.6785C66.5781 32.008 69.2157 35.7914 72.2432 36.6704C75.2698 37.5488 77.988 37.4943 78.7841 35.5634C70.6163 35.4202 71.748 25.8067 67.2172 22.4663Z" fill="#E38A80"/>
<path d="M68.6594 23.954C68.2453 23.3829 67.7741 22.8768 67.2172 22.4663C67.4785 24.4245 66.6203 25.7862 66.6002 28.6785C66.5863 30.7694 67.6214 33.0387 69.1431 34.6558C70.292 35.6789 72.6415 36.3168 72.9143 35.357C73.1912 34.3823 72.138 33.0453 71.4828 31.2897C70.3437 28.2377 69.0909 24.5641 68.6594 23.954Z" fill="#F1A19A"/>
<path d="M73.947 37.0122C73.4151 36.9215 72.8467 36.7889 72.2584 36.6184C69.2506 35.7453 66.6325 32.0351 66.655 28.6788C66.6641 27.298 66.8661 26.264 67.0442 25.3516C67.2313 24.3932 67.3944 23.5601 67.2864 22.5868C68.9494 23.8705 69.8161 25.9882 70.7324 28.2272C72.0572 31.4653 73.4273 34.8138 77.4127 35.4942C77.8192 35.5634 78.2528 35.6044 78.7022 35.6159C77.9421 37.3085 75.704 37.3122 73.947 37.0122ZM77.4313 35.387H77.4309C73.5052 34.7168 72.1465 31.3966 70.8326 28.1859C69.892 25.8869 69.0038 23.7158 67.2491 22.4224L67.1461 22.3465L67.1634 22.4735C67.2983 23.4845 67.1311 24.34 66.9377 25.3309C66.7584 26.2478 66.5556 27.2871 66.546 28.6781C66.5232 32.0783 69.1784 35.8373 72.2281 36.7226C72.8206 36.8944 73.3927 37.0281 73.9288 37.1195C76.5404 37.5653 78.2367 37.034 78.8342 35.5839L78.8645 35.5103L78.7847 35.5087C78.3122 35.5008 77.8569 35.4596 77.4313 35.387Z" fill="#714118"/>
<path d="M116.983 34.2404C115.46 32.7409 113.304 33.7881 112.094 35.5057C112.094 35.5057 110.167 34.7538 107.701 34.9505C105.006 35.1652 103.038 36.2732 101.746 36.4606C101.109 36.5533 100.099 35.7028 98.8041 35.3487C97.8212 35.0795 96.4004 35.1755 95.2305 36.164C93.1436 37.9272 93.39 40.7129 93.4173 41.4388C93.2003 42.7078 92.2292 44.4902 92.8399 46.5635C93.4803 48.7382 96.6861 50.8693 102.282 50.3404C106.962 49.8977 108.486 48.267 110.728 47.9411C112.558 47.6752 114.467 48.4478 116.726 46.5369C118.985 44.6257 117.787 40.4341 117.774 39.6238C117.761 38.8134 118.771 36.0004 116.983 34.2404Z" fill="#F56766"/>
<path d="M116.983 34.2404C115.46 32.7409 113.304 33.7881 112.093 35.5057C112.093 35.5057 110.167 34.7538 107.701 34.9505C105.006 35.1652 103.037 36.2732 101.746 36.4606C101.109 36.5533 100.098 35.7028 98.8038 35.3487C97.821 35.0795 96.4001 35.1755 95.2303 36.164C93.1433 37.9272 93.9833 41.0551 96.4813 42.2C94.8455 42.8619 94.2426 44.9755 95.4113 46.0821C99.2886 49.7545 109.803 49.473 110.686 43.494C111.749 46.263 114.173 46.8256 116.204 45.5005C118.681 43.8831 117.786 40.4341 117.773 39.6238C117.761 38.8134 118.771 36.0004 116.983 34.2404Z" fill="#FF8F8E"/>
<path d="M112.094 35.5057C112.094 35.5057 110.167 34.7538 107.701 34.9505C105.006 35.1652 103.038 36.2732 101.746 36.4606C101.109 36.5533 100.099 35.7028 98.8041 35.3487C97.8687 35.0926 96.5374 35.1689 95.4023 36.0283C98.1671 34.7062 100.517 36.1307 101.793 37.946C105.201 35.0313 111.361 35.3688 113.889 36.9337C113.405 34.8818 115.141 32.8856 117.279 34.5727C117.19 34.4585 117.092 34.3473 116.984 34.2404C115.46 32.7409 113.304 33.7881 112.094 35.5057Z" fill="#F2CBC9"/>
<path d="M116.691 46.4952C115.235 47.7266 113.942 47.8298 112.742 47.8298C112.588 47.8298 112.434 47.8276 112.281 47.826C112.131 47.8239 111.981 47.822 111.832 47.822C111.504 47.822 111.116 47.8298 110.72 47.8873C109.841 48.0153 109.076 48.3403 108.189 48.7168C106.825 49.2959 105.129 50.0165 102.277 50.2864C101.705 50.3401 101.141 50.3675 100.601 50.3675C96.0527 50.3675 93.4518 48.4493 92.8922 46.5481C92.4478 45.0399 92.8545 43.6689 93.1815 42.5676C93.3006 42.1664 93.4131 41.7876 93.4713 41.4481L93.4722 41.4424L93.4719 41.4369C93.4706 41.3996 93.4685 41.3567 93.4666 41.3089C93.4267 40.4563 93.3063 37.861 95.2657 36.2056C96.1771 35.4351 97.1531 35.2738 97.8113 35.2738C98.1515 35.2738 98.4808 35.3164 98.7896 35.4012C99.3769 35.5619 99.9042 35.8251 100.369 36.0571C100.869 36.3065 101.301 36.522 101.646 36.522C101.683 36.522 101.719 36.5196 101.754 36.5144C102.244 36.4435 102.829 36.2415 103.507 36.008C104.63 35.6205 106.029 35.1381 107.705 35.0046C107.977 34.9828 108.255 34.9719 108.533 34.9719C110.552 34.9719 112.059 35.5503 112.074 35.5562L112.114 35.5717L112.138 35.5372C112.991 34.3265 114.2 33.5746 115.293 33.5746C115.914 33.5746 116.47 33.8115 116.945 34.279C118.339 35.651 118.009 37.6666 117.812 38.8712C117.759 39.1945 117.717 39.4502 117.72 39.6247C117.722 39.77 117.761 40.0194 117.811 40.3355C118.045 41.8292 118.533 44.9375 116.691 46.4952ZM117.828 39.6232C117.826 39.4582 117.867 39.207 117.919 38.8887C118.12 37.6636 118.455 35.6129 117.021 34.2015C116.526 33.7134 115.944 33.466 115.293 33.466C114.176 33.466 112.945 34.2212 112.074 35.4401C111.82 35.3483 110.39 34.8633 108.533 34.8633C108.252 34.8633 107.971 34.8742 107.697 34.8963C106.006 35.0309 104.601 35.5156 103.471 35.9053C102.799 36.137 102.218 36.3373 101.738 36.4069C101.407 36.4547 100.954 36.2277 100.418 35.96C99.9484 35.7255 99.4158 35.4596 98.8183 35.2963C98.5 35.2091 98.161 35.1649 97.8113 35.1649C97.1349 35.1649 96.1322 35.3312 95.1959 36.1224C93.1951 37.8124 93.3175 40.4481 93.3577 41.3138C93.3596 41.359 93.3617 41.3996 93.3634 41.4352C93.3059 41.7671 93.1947 42.141 93.0773 42.5365C92.7463 43.6518 92.3345 45.0399 92.7879 46.579C93.359 48.5189 95.9966 50.4764 100.601 50.4764C101.145 50.4764 101.712 50.4486 102.287 50.3943C105.156 50.1233 106.861 49.3988 108.231 48.8171C109.111 48.4432 109.871 48.1206 110.736 47.9948C111.125 47.9385 111.508 47.9309 111.832 47.9309C111.98 47.9309 112.13 47.9326 112.28 47.9345C112.433 47.9364 112.587 47.9385 112.742 47.9385C113.962 47.9385 115.277 47.8336 116.761 46.5784C118.649 44.9811 118.155 41.8322 117.918 40.3187C117.869 40.0069 117.83 39.7607 117.828 39.6232Z" fill="#A93635"/>
<path d="M112.112 35.4513L112.075 35.5598C112.717 35.7832 113.397 36.251 113.404 36.2557C113.404 36.2557 112.955 35.8066 112.395 35.5625C112.301 35.5216 112.207 35.4839 112.112 35.4513Z" fill="#A93635"/>
<path d="M97.8536 37.7635C96.4134 37.424 95.6247 38.5393 95.9267 39.4324C96.1893 40.2097 96.9515 40.5932 97.9582 40.6552C98.9648 40.7173 99.626 41.194 99.626 41.194C99.4739 39.0388 98.9315 38.0177 97.8536 37.7635Z" fill="#420000"/>
<path d="M96.5867 37.8774C95.9917 38.1882 95.7324 38.8563 95.9271 39.4324C96.1897 40.2097 96.9519 40.5932 97.9586 40.6552C98.9652 40.7173 99.6264 41.194 99.6264 41.194C99.5964 40.7687 99.5513 40.3883 99.4895 40.0488C98.21 39.5617 96.3389 39.5056 96.5867 37.8774Z" fill="#770000"/>
<path d="M97.9615 40.5974C97.2251 40.5523 96.2841 40.31 95.9812 39.4143C95.8621 39.0619 95.9215 38.6617 96.1396 38.3443C96.3854 37.9873 96.7856 37.7798 97.2674 37.7603C97.4492 37.7529 97.6422 37.7728 97.8405 37.8197C98.8828 38.0655 99.4001 39.0437 99.5601 41.0828C99.3374 40.9479 98.7593 40.6469 97.9615 40.5974ZM97.8669 37.7074C97.0965 37.5253 96.4105 37.747 96.0449 38.2789C95.8061 38.6264 95.7414 39.0645 95.872 39.4509C96.128 40.2081 96.8483 40.6446 97.9546 40.7127C98.9316 40.7727 99.5859 41.2359 99.5924 41.2406L99.6921 41.3125L99.6836 41.1901C99.5298 39.0131 98.9864 37.9714 97.8669 37.7074Z" fill="#A93635"/>
<path d="M116.426 36.482C115.452 36.7971 115.629 38.9032 116.513 39.6588C116.458 38.8726 117.26 38.4445 117.408 37.8519C117.578 37.1726 117.199 36.232 116.426 36.482Z" fill="#420000"/>
<path d="M116.808 36.4557C117.233 37.7447 116 37.8263 116 38.9124C116.125 39.211 116.298 39.475 116.513 39.6588C116.458 38.8726 117.26 38.4445 117.408 37.8519C117.547 37.2963 117.319 36.5668 116.808 36.4557Z" fill="#770000"/>
<path d="M117.355 37.8388C117.298 38.0687 117.134 38.276 116.961 38.4957C116.722 38.7992 116.475 39.112 116.457 39.5314C115.977 39.0391 115.714 38.0833 115.865 37.3257C115.949 36.9086 116.154 36.6273 116.443 36.5336C116.522 36.5082 116.6 36.4953 116.672 36.4953C116.861 36.4953 117.028 36.5824 117.157 36.7474C117.367 37.0166 117.449 37.4657 117.355 37.8388ZM116.41 36.4302C116.081 36.5365 115.85 36.847 115.759 37.3045C115.591 38.1433 115.914 39.2176 116.478 39.7L116.577 39.7842L116.568 39.6548C116.536 39.2097 116.796 38.8811 117.047 38.563C117.227 38.3341 117.398 38.1179 117.461 37.8652C117.564 37.4553 117.476 36.9792 117.243 36.6804C117.036 36.4151 116.737 36.324 116.41 36.4302Z" fill="#A93635"/>
<path d="M95.3145 54.6558C95.3145 54.6558 95.6224 55.1988 96.1351 55.7443C96.5568 56.1931 97.0659 56.6965 97.5228 57.044L97.5885 56.9572C96.5864 56.1956 95.3271 54.6713 95.3145 54.6558Z" fill="#714118"/>
<path d="M18.7924 70.0956C13.0739 68.6854 13.6937 61.9377 14.1833 59.3677C14.1833 59.3677 14.1833 59.3677 14.1836 59.3665C14.0424 58.9572 14.0646 58.3963 14.0646 58.3963C13.659 58.9107 13.6058 59.402 13.6058 59.402C13.4853 58.9101 13.3789 58.2502 13.3789 58.2502C13.3256 58.8193 13.0596 59.2645 13.0596 59.2645C13.0728 60.2125 12.8587 61.2432 12.8303 62.0915C12.7696 63.8973 12.8214 70.3021 17.4367 72.0855C20.1362 73.1292 24.7573 73.3399 30.386 67.3505L34.8707 58.3109C30.9799 62.8223 24.6199 71.5342 18.7924 70.0956Z" fill="#DEBA80"/>
<path d="M18.7923 70.0956C13.0738 68.6854 13.6936 61.9377 14.1832 59.3678C14.1832 59.3678 14.1832 59.3678 14.1835 59.3665C14.0423 58.9573 14.0645 58.3963 14.0645 58.3963C13.6589 58.9107 13.6057 59.402 13.6057 59.402C13.3315 60.901 13.2822 61.2445 13.2537 62.0928C13.193 63.8986 13.4988 69.7587 18.1141 71.5425C20.8136 72.5857 26.7815 71.1214 31.9343 64.2296L34.8706 58.3109C30.9798 62.8223 24.6198 71.5343 18.7923 70.0956Z" fill="#F6E4B4"/>
<path d="M18.7923 70.0956C16.2605 69.4713 14.9711 67.8006 14.3628 65.9093C14.3628 67.3867 16.1531 70.0161 18.7794 70.5506C22.7841 71.3653 27.7435 68.6181 33.6118 60.8483L34.8706 58.3109C30.9798 62.8223 24.6199 71.5343 18.7923 70.0956Z" fill="#FFFFCD"/>
<path d="M30.3407 67.3194C25.6525 72.3052 21.6939 72.8892 19.1985 72.5015C18.6051 72.4095 18.019 72.2525 17.4562 72.0347C13.0851 70.3454 12.8028 64.5195 12.8843 62.0934C12.8965 61.7309 12.9424 61.3385 12.991 60.9231C13.0544 60.3797 13.12 59.8178 13.1139 59.2787C13.1499 59.2153 13.2954 58.9454 13.3803 58.5778C13.423 58.8144 13.486 59.1421 13.5529 59.4153L13.626 59.7129L13.6598 59.408C13.6602 59.4037 13.7073 59.0075 14.0096 58.5634C14.0136 58.7603 14.0352 59.0942 14.1272 59.3704C13.7145 61.5471 12.8483 68.6858 18.7792 70.1487C18.9332 70.1866 19.0914 70.2181 19.2486 70.2428C19.249 70.2428 19.249 70.2428 19.2494 70.2428C24.2999 71.0277 29.5972 64.6892 33.465 60.061C33.8714 59.5746 34.2597 59.1101 34.6278 58.6778L30.3407 67.3194ZM33.3816 59.991C29.5302 64.5997 24.2554 70.9116 19.2654 70.1356C19.1111 70.1115 18.9563 70.0804 18.8051 70.0432C12.9551 68.6003 13.8292 61.5151 14.237 59.375L14.2391 59.3614L14.2347 59.3487C14.0987 58.9543 14.1186 58.4039 14.1189 58.3987L14.1256 58.2314L14.0218 58.3627C13.7826 58.6664 13.6632 58.9596 13.6049 59.1562C13.5096 58.7184 13.4333 58.2472 13.4324 58.2413L13.3645 57.82L13.3247 58.2449C13.2732 58.7946 13.0152 59.2322 13.0128 59.2364L13.0048 59.2497L13.005 59.2652C13.0125 59.802 12.9465 60.3656 12.883 60.9106C12.8341 61.328 12.788 61.7226 12.7759 62.0895C12.6935 64.5394 12.9809 70.422 17.417 72.1364C17.9871 72.3564 18.5809 72.5154 19.1817 72.6091C21.7041 73.0011 25.7025 72.4135 30.4254 67.3881L35.1105 57.9496L34.8294 58.2756C34.3782 58.7986 33.8941 59.3777 33.3816 59.991Z" fill="#714118"/>
<path d="M12.9117 48.5631C12.9117 48.5631 13.4455 49.6244 13.4652 50.3966C11.0036 46.4491 7.7801 47.4032 4.05957 45.2592C4.46672 52.9814 5.54665 54.1279 8.16572 54.8145C8.16572 54.8145 7.69465 54.986 7.12149 54.9319C7.12149 54.9319 8.28494 55.8466 11.1475 56.9902C12.6663 57.597 12.9976 58.8237 13.0166 60.1854C13.0166 60.1854 13.2587 59.6598 13.48 58.8989C13.48 58.8989 13.3231 59.7884 13.4762 60.4134C13.4762 60.4134 13.425 59.8508 13.9403 59.1972C13.9403 59.1972 13.8515 59.796 14.0308 60.3157C16.352 54.534 15.5021 50.7826 12.9117 48.5631Z" fill="#421800"/>
<path d="M12.9102 48.5631C12.9102 48.5631 13.444 49.6244 13.4636 50.3966C11.0022 46.4491 7.77863 47.4032 4.05811 45.2592C4.05836 45.2655 4.05862 45.2715 4.05914 45.2778C4.76904 47.0773 5.89098 48.9345 7.89772 49.5855C7.35692 49.7067 6.70476 49.7217 6.16138 49.7344C7.15947 50.5813 8.25873 51.1 9.46161 51.3985C8.81951 51.8483 8.17238 52.0806 7.41157 52.0981C8.20086 53.3304 10.3621 53.92 11.58 54.8706C10.9279 54.8854 10.1974 55.0389 9.55029 55.2711C10.6421 55.4638 11.5878 55.4279 12.3944 56.0076C11.9597 56.0175 11.5251 56.0274 11.2039 56.2521C12.7371 56.6652 13.5515 57.9813 13.7534 59.4674C13.8054 59.38 13.8659 59.2899 13.9387 59.1972C13.9387 59.1972 13.85 59.796 14.0293 60.3157C16.3504 54.534 15.5004 50.7828 12.9102 48.5631Z" fill="#51270B"/>
<path d="M12.9099 48.563C12.9099 48.563 13.4437 49.6244 13.4633 50.3966C11.7684 47.6784 9.712 47.2845 7.38086 46.6024C10.0728 47.8055 12.9479 48.9692 13.1303 52.3426C13.2507 51.9812 13.3711 51.4998 13.4914 51.1389C14.0933 51.8612 13.9729 52.7035 13.9729 53.5461C14.0933 53.0647 14.5748 52.7035 14.5748 52.2221C15.1766 53.5461 15.1766 54.8703 14.9358 56.1947C14.8424 57.2231 14.5322 58.1793 14.4542 59.1754C16.2265 54.0365 15.3257 50.6335 12.9099 48.563Z" fill="#6F452E"/>
<path d="M14.0385 60.1494C13.9251 59.6882 13.9932 59.2104 13.994 59.2051L14.0238 59.0035L13.8976 59.1635C13.6489 59.4792 13.5286 59.7732 13.4713 59.9974C13.4371 59.4667 13.5323 58.9154 13.5336 58.9085L13.4278 58.8838C13.2955 59.3388 13.1545 59.7116 13.0637 59.9352C13.0151 58.825 12.707 57.5547 11.1676 56.9401C8.90807 56.0372 7.70081 55.2701 7.30436 54.9964C7.79348 55.0055 8.16686 54.872 8.18426 54.8657L8.34794 54.806L8.17949 54.7617C5.62202 54.0916 4.53358 53.0493 4.11922 45.356C5.45434 46.1102 6.70646 46.4675 7.91798 46.8133C10.0385 47.4182 11.8697 47.9408 13.4192 50.4252L13.5247 50.5945L13.5196 50.3949C13.5053 49.835 13.231 49.1378 13.0717 48.7778C15.7292 51.2174 16.0546 55.0412 14.0385 60.1494ZM12.9469 48.5218L12.7415 48.3456L12.8629 48.5874C12.8679 48.597 13.2994 49.4622 13.3935 50.183C11.8477 47.8213 10.0367 47.3046 7.94788 46.7088C6.71638 46.3573 5.44287 45.9941 4.08661 45.2124L4 45.1626L4.00528 45.2623C4.20841 49.1166 4.57599 51.3408 5.2342 52.6989C5.85479 53.9795 6.71136 54.4655 7.96167 54.8155C7.77569 54.8594 7.46843 54.9099 7.12662 54.8779L6.94283 54.8604L7.08783 54.9746C7.09956 54.9837 8.2902 55.9069 11.1272 57.041C12.7143 57.6748 12.9454 58.9864 12.9622 60.186L12.9655 60.4259L13.0658 60.2081C13.0677 60.2042 13.2039 59.9069 13.3644 59.442C13.3456 59.7419 13.3469 60.1141 13.4234 60.4263L13.5304 60.4084C13.5298 60.4035 13.4937 59.9481 13.8681 59.3889C13.8558 59.6116 13.8598 59.987 13.9794 60.3335L14.0269 60.4714L14.0813 60.3362C15.1929 57.5672 15.6254 55.1316 15.367 53.0968C15.1305 51.2346 14.3162 49.6951 12.9469 48.5218Z" fill="#301000"/>
<path d="M37.8521 55.3407C33.5591 57.0753 28.9665 64.2381 27.7265 71.4503C26.4865 78.6624 25.7783 85.3144 23.9558 86.3787C22.1333 87.4442 20.9318 87.7236 20.4835 89.1213C19.9881 90.6651 22.9499 101.512 23.1228 102.124C23.2957 102.737 22.7582 104.113 23.0406 105.088C23.323 106.064 24.4578 106.937 24.468 107.538C24.4783 108.138 24.136 113.356 24.7134 114.398C26.3366 117.332 35.1148 116.738 34.8078 115.057C36.2979 115.548 37.7172 115.774 37.2349 113.815C36.397 110.413 30.9689 107.337 30.6233 106.602C30.2778 105.867 30.2961 104.633 30.1538 103.605C30.0114 102.577 29.2203 101.974 29.0338 101.052C28.8473 100.13 28.6912 95.276 29.1521 93.4568C32.5034 92.3594 44.4218 87.0094 45.1561 77.527L44.9256 55.1927C42.6562 54.4044 40.2202 54.3839 37.8521 55.3407Z" fill="#DEBA80"/>
<path d="M37.852 55.3407C33.559 57.0753 30.4692 64.4506 29.2292 71.6629C27.9893 78.8752 29.0693 87.109 27.2029 88.0948C26.0893 88.6832 23.9953 87.9821 22.9227 89.4258C21.244 91.6853 25.0437 101.226 25.2165 101.838C25.3895 102.45 24.292 103.712 24.5745 104.687C24.8569 105.663 26.1692 106.414 26.1795 107.015C26.1898 107.614 26.4852 111.682 27.0624 112.725C28.6857 115.658 35.1147 116.738 34.8077 115.057C34.7719 114.517 34.4762 113.52 34.2263 113.095C36.2162 115.241 37.6439 115.476 37.2348 113.815C36.3969 110.413 30.9688 107.337 30.6232 106.602C30.2777 105.867 30.296 104.633 30.1537 103.605C30.0113 102.577 29.2202 101.974 29.0337 101.052C28.8472 100.13 28.6911 95.276 29.152 93.4568C32.5033 92.3594 44.4217 87.0094 45.156 77.527L44.9255 55.1927C42.6561 54.4044 40.2201 54.3839 37.852 55.3407Z" fill="#F6E4B4"/>
<path d="M26.5913 93.6881C29.1345 94.9069 28.5875 99.5911 27.5762 100.976C29.9497 102.784 29.1412 105.069 29.8634 106.875C30.2139 107.575 31.3291 107.767 32.3745 108.097C31.4543 107.378 30.7415 106.853 30.6235 106.602C30.2779 105.867 30.2962 104.633 30.154 103.605C30.0115 102.577 29.2204 101.974 29.0339 101.052C28.8474 100.13 28.6914 95.276 29.1523 93.4568C32.4555 92.3752 44.0817 87.1614 45.1174 77.9315C42.4319 85.5348 31.9962 93.4044 26.5913 93.6881Z" fill="#FFFFCD"/>
<path d="M44.9101 59.1628C44.9531 57.0143 41.7441 55.3325 39.0144 54.9482C38.6276 55.0537 38.2414 55.1844 37.8523 55.3414C33.5596 57.075 28.9672 64.2384 27.727 71.4503C27.3154 73.8441 26.962 76.1766 26.6074 78.2628V78.2637C27.1927 79.2668 28.02 79.5905 28.8779 79.4925C30.2337 79.3388 31.1087 77.332 32.4191 76.8107C33.7285 76.2891 39.2285 77.0941 41.3488 73.4713C42.9939 70.6608 40.669 67.8985 40.9472 65.811C41.2247 63.7241 44.8561 61.8849 44.9101 59.1628Z" fill="#975620"/>
<path d="M44.9098 59.1626C44.953 57.0152 41.7459 55.3335 39.0182 54.9494C39.0173 54.9482 39.016 54.9482 39.0146 54.9482C38.9424 54.9676 38.8714 54.9881 38.7992 55.0095C38.7051 55.0372 38.6124 55.0662 38.5188 55.0977C38.4501 55.1191 38.3815 55.1432 38.3128 55.1675C38.2561 55.1867 38.1996 55.2068 38.1432 55.2286C38.1034 55.2432 38.0651 55.2576 38.0251 55.2722C37.9674 55.2949 37.9096 55.3181 37.8519 55.3407C37.7842 55.3684 37.7182 55.3962 37.6506 55.4262C33.4627 57.3079 30.4496 64.5641 29.229 71.6629C28.7799 74.2754 28.6355 77.0209 28.5439 79.508C28.6535 79.5107 28.7655 79.5057 28.8774 79.4925C30.2329 79.3384 31.1081 77.3316 32.419 76.8103C33.7287 76.2891 39.229 77.0945 41.3487 73.471C42.9931 70.6601 40.6687 67.8988 40.9468 65.8112C41.225 63.7241 44.8556 61.8846 44.9098 59.1626Z" fill="#A6652F"/>
<path d="M29.1353 93.4053L29.1069 93.4142L29.0996 93.4436C28.6237 95.3213 28.8005 100.171 28.9805 101.062C29.0697 101.504 29.2979 101.879 29.5184 102.242C29.7679 102.652 30.0258 103.077 30.1 103.612C30.1432 103.924 30.172 104.261 30.1999 104.587C30.2639 105.333 30.3298 106.105 30.5743 106.625C30.6807 106.851 31.2131 107.264 31.9501 107.836C33.6865 109.182 36.5933 111.437 37.1822 113.828C37.3412 114.473 37.2976 114.916 37.0525 115.143C36.6308 115.533 35.6406 115.274 34.8251 115.005L34.7381 114.977L34.7546 115.067C34.8141 115.394 34.4711 115.709 33.7881 115.952C32.6035 116.375 30.6286 116.518 28.874 116.306C27.6564 116.159 25.503 115.713 24.7611 114.372C24.2998 113.539 24.4395 109.875 24.4993 108.311C24.514 107.928 24.5245 107.651 24.5225 107.537C24.5171 107.221 24.2351 106.855 23.9087 106.432C23.5917 106.021 23.2327 105.556 23.0929 105.073C22.9382 104.538 23.0361 103.872 23.1227 103.285C23.1933 102.805 23.2544 102.39 23.175 102.109C23.1433 101.997 20.0318 90.7077 20.5355 89.1375C20.8726 88.0862 21.6441 87.6807 22.8121 87.0665C23.1619 86.8827 23.5585 86.6741 23.9834 86.426C25.5001 85.5397 26.2296 81.0067 27.1532 75.2675C27.3517 74.0332 27.5571 72.7563 27.7802 71.4592C29.0017 64.3542 33.529 57.1459 37.8725 55.3913C40.1134 54.4858 42.4207 54.4209 44.9257 55.1927C44.9257 55.1927 44.442 54.9207 43.6309 54.7542C41.6081 54.3388 39.6957 54.5374 37.8319 55.2903C33.4575 57.0575 28.9003 64.3028 27.6731 71.4408C27.4499 72.7386 27.2443 74.0154 27.0457 75.2498C26.1632 80.7351 25.4012 85.4718 23.9285 86.3319C23.5058 86.5794 23.1103 86.7873 22.7615 86.9704C21.5699 87.5969 20.7827 88.0107 20.432 89.1045C19.9189 90.7037 23.0387 102.026 23.0706 102.139C23.1435 102.397 23.0811 102.82 23.0151 103.269C22.9269 103.868 22.8271 104.546 22.9885 105.104C23.1341 105.606 23.4997 106.08 23.8224 106.498C24.1372 106.907 24.409 107.259 24.4138 107.538C24.4157 107.65 24.4053 107.926 24.3907 108.307C24.3255 110.013 24.19 113.565 24.666 114.425C25.5387 116.002 28.387 116.567 30.8462 116.511C32.0096 116.485 33.0861 116.319 33.8247 116.055C34.5182 115.807 34.877 115.491 34.8703 115.135C35.7444 115.418 36.6792 115.636 37.1261 115.222C37.4065 114.963 37.4593 114.498 37.2877 113.802C36.6898 111.374 33.7644 109.105 32.0166 107.75C31.319 107.209 30.7679 106.781 30.6727 106.578C30.4364 106.076 30.3713 105.315 30.3082 104.578C30.2802 104.251 30.2512 103.912 30.2077 103.598C30.1306 103.039 29.8665 102.605 29.6113 102.185C29.3856 101.814 29.1726 101.463 29.0871 101.041C28.9143 100.186 28.7448 95.3441 29.1977 93.499C29.7938 93.3017 33.9943 91.8431 38.1354 88.6828C41.8716 85.8317 44.1675 82.66 44.9841 79.2341C45.2348 78.1827 45.1563 77.527 45.1563 77.527C44.3073 86.5263 33.3036 92.0404 29.1353 93.4053Z" fill="#714118"/>
<path d="M33.7002 109.171C33.6992 109.17 33.3036 109.085 33.3026 109.085C29.2856 107.98 25.2626 112.658 24.8022 114.545C26.4263 117.477 35.1152 116.738 34.8084 115.057C36.2976 115.548 37.7172 115.773 37.2351 113.814C36.8115 112.097 35.2182 110.462 33.7002 109.171Z" fill="#51281B"/>
<path d="M37.2356 113.814C36.8117 112.097 35.2179 110.463 33.6999 109.17C33.6988 109.17 33.3027 109.086 33.3027 109.084C30.8313 108.405 28.3575 109.916 26.7119 111.617C26.8141 112.092 26.931 112.487 27.0622 112.725C28.6862 115.658 34.403 116.699 34.8074 115.056C34.7725 114.517 34.4763 113.521 34.226 113.095C36.2171 115.241 37.4607 115.516 37.2356 113.815V113.814Z" fill="#663320"/>
<mask id="mask1_25_100" style="mask-type:alpha" maskUnits="userSpaceOnUse" x="24" y="108" width="14" height="9">
<path d="M24.7207 108.862H37.3906V116.586H24.7207V108.862Z" fill="black"/>
</mask>
<g mask="url(#mask1_25_100)">
<path d="M37.1202 115.068C36.9848 115.244 36.7623 115.334 36.4397 115.341C35.9413 115.353 35.2797 115.155 34.8256 115.006L34.7386 114.977L34.755 115.067C34.7794 115.201 34.7394 115.332 34.6359 115.46C34.1844 116.014 32.5578 116.431 30.6799 116.474C28.4231 116.525 25.7145 116.043 24.8604 114.537C25.2769 112.906 28.4373 109.054 31.949 108.974C32.4053 108.963 32.8559 109.019 33.2919 109.138C33.2973 109.139 33.3945 109.16 33.4912 109.181C33.6051 109.206 33.6539 109.216 33.6756 109.221C35.695 110.941 36.8422 112.448 37.1826 113.827C37.326 114.409 37.3049 114.827 37.1202 115.068ZM33.7355 109.129L33.7247 109.12L33.7112 109.117C33.7059 109.116 33.6101 109.095 33.514 109.075C33.3478 109.039 33.3186 109.033 33.3161 109.033C32.8738 108.911 32.4129 108.854 31.9465 108.865C28.369 108.947 25.1504 112.889 24.7497 114.531L24.7446 114.552L24.7549 114.571C25.6207 116.134 28.3845 116.635 30.6825 116.582C32.62 116.538 34.2427 116.114 34.7202 115.528C34.8228 115.402 34.8732 115.27 34.8709 115.135C35.572 115.361 36.0591 115.459 36.442 115.45C36.7949 115.442 37.0521 115.336 37.2067 115.134C37.4151 114.862 37.4419 114.426 37.2881 113.801C36.9415 112.396 35.7794 110.868 33.7355 109.129Z" fill="#2D110B"/>
</g>
<path d="M26.3442 93.6244C26.3442 93.6244 26.5184 93.8243 27.0116 93.8303C27.8094 93.8401 28.8072 93.6013 29.1655 93.5095L29.1385 93.4044C28.1676 93.6538 26.9236 93.8431 26.3442 93.6244Z" fill="#714118"/>
<path d="M32.6099 110.978C32.6286 110.994 34.4755 112.594 34.7545 115.063L34.8625 115.051C34.707 113.675 34.0723 112.564 33.527 111.838C33.0776 111.239 32.6099 110.978 32.6099 110.978Z" fill="#2D110B"/>
<path d="M105.313 19.5033C106.542 18.3785 108.589 18.7306 108.589 18.7306C103.912 14.7756 99.2223 17.528 99.2223 17.528C99.2487 16.4124 101.501 15.0444 101.501 15.0444C97.0576 14.4852 94.91 18.0014 94.91 18.0014C90.2999 14.4776 85.8997 16.71 85.8997 16.71C87.5703 16.9974 88.3436 18.31 88.3436 18.31C81.0083 17.559 78.0352 22.9813 78.0352 22.9813C79.6189 21.6553 82.6224 21.9001 82.6224 21.9001C77.9421 23.8989 79.7221 28.4066 79.7221 28.4066C83.0194 25.3427 82.9943 25.4328 82.9943 25.4328C81.986 27.3522 83.2946 29.7166 83.2946 29.7166C84.7248 25.1798 87.0536 24.5644 87.0536 24.5644C86.5775 27.0637 87.4393 29.7014 87.4393 29.7014C87.5346 27.518 90.77 24.8874 90.77 24.8874C90.5771 26.9915 93.4034 29.7673 93.4034 29.7673C92.8963 27.0193 94.7588 24.6077 94.7588 24.6077C96.0713 25.3916 97.6164 28.7452 97.6164 28.7452C98.275 26.9277 98.1999 24.3662 98.1999 24.3662C102.374 25.6073 103.659 28.3211 103.659 28.3211C104.316 26.5546 103.659 23.9834 103.659 23.9834C105.61 25.1273 106.505 27.3759 106.505 27.3759C107.307 24.6706 106.221 22.946 106.221 22.946C108.165 23.012 109.494 25.1197 109.494 25.1197C109.523 19.6924 105.313 19.5033 105.313 19.5033Z" fill="#421800"/>
<path d="M105.313 19.5033C106.542 18.3785 108.589 18.7306 108.589 18.7306C103.912 14.7756 99.2223 17.528 99.2223 17.528C99.2487 16.4124 101.501 15.0444 101.501 15.0444C97.0576 14.4852 94.91 18.0014 94.91 18.0014C90.2999 14.4776 85.8997 16.71 85.8997 16.71C87.5703 16.9974 88.3436 18.31 88.3436 18.31C81.0083 17.559 78.0352 22.9813 78.0352 22.9813C79.6189 21.6553 82.6224 21.9001 82.6224 21.9001C77.9421 23.8989 79.7221 28.4066 79.7221 28.4066C81.0429 24.8752 83.7614 24.2833 83.7614 24.2833C82.7531 26.2026 83.32 28.3162 83.32 28.3162C84.7502 23.7795 87.7438 23.3907 87.7438 23.3907C87.2677 25.8901 87.6135 27.6039 87.6135 27.6039C89.0118 24.675 91.2247 23.9125 91.2247 23.9125C91.4413 25.2748 92.7188 28.0212 92.7188 28.0212C92.2116 25.2731 94.7706 22.9176 94.7706 22.9176C96.0832 23.7016 97.4469 26.8596 97.4469 26.8596C98.1051 25.0422 97.5284 22.9721 97.5284 22.9721C101.703 24.2133 102.869 26.1531 102.869 26.1531C103.526 24.3865 103.055 22.9721 103.055 22.9721C105.006 24.116 106.364 25.6651 106.364 25.6651C106.364 23.3681 105.329 22.0354 105.329 22.0354C107.272 22.1016 109.494 25.1197 109.494 25.1197C109.523 19.6924 105.313 19.5033 105.313 19.5033Z" fill="#51270B"/>
<path d="M105.313 19.5033C106.542 18.3785 108.589 18.7306 108.589 18.7306C103.912 14.7756 99.2223 17.528 99.2223 17.528C99.2487 16.4124 101.501 15.0444 101.501 15.0444C97.0576 14.4852 94.91 18.0014 94.91 18.0014C90.2999 14.4776 85.8997 16.71 85.8997 16.71C87.5703 16.9974 88.3436 18.31 88.3436 18.31C81.0083 17.559 78.0352 22.9813 78.0352 22.9813C79.6189 21.6553 82.6224 21.9001 82.6224 21.9001C80.3029 22.8905 79.5707 24.4974 79.4216 25.866C80.2927 23.6517 82.3109 22.0885 84.6361 21.6456C83.5525 21.2844 81.9156 20.7723 80.8321 21.1333C83.4803 19.087 87.2724 18.6357 90.5346 19.7195C90.2939 18.9972 89.5714 18.7563 89.09 18.1545C90.2939 18.2749 91.4976 18.3954 92.5811 18.9972C91.8589 17.9136 90.1736 17.6731 88.9696 17.1914C91.3775 16.9506 93.6647 17.4323 95.5906 18.8768C95.711 17.1914 97.3964 16.5896 98.7204 15.9878C98.1187 16.9506 97.1555 17.7935 97.276 18.9972C98.6001 17.9136 100.406 17.3119 102.211 17.3119C101.73 17.6731 101.008 17.7935 100.526 18.2749C102.573 18.0342 104.499 17.4323 106.545 18.0342C105.101 18.5158 103.295 18.3954 102.211 19.7195C103.656 19.9603 105.221 19.5991 106.666 20.2008C106.184 20.4417 105.702 20.2008 105.221 20.5621C107.469 20.472 108.575 22.2634 109.443 24.0787C108.966 19.6683 105.313 19.5033 105.313 19.5033Z" fill="#6F452E"/>
<path d="M106.223 22.8916L106.121 22.888L106.176 22.9747C106.186 22.9916 107.201 24.6473 106.495 27.2158C106.261 26.7035 105.35 24.9115 103.687 23.9362L103.574 23.8705L103.607 23.9965C103.613 24.0216 104.225 26.4609 103.649 28.1872C103.35 27.6616 101.886 25.4055 98.2156 24.314L98.1433 24.2926L98.1456 24.3677C98.1466 24.3928 98.2096 26.8239 97.6094 28.6016C97.3154 27.9846 95.9722 25.2691 94.7867 24.5608L94.7455 24.536L94.7162 24.5743C94.6977 24.598 92.9212 26.9357 93.3214 29.6056C92.7867 29.0467 90.6588 26.6991 90.8248 24.8924L90.8363 24.7636L90.7364 24.8452C90.609 24.9485 87.7415 27.3019 87.4135 29.4176C87.2138 28.6868 86.7262 26.5745 87.107 24.5747L87.1235 24.4899L87.0397 24.5117C86.9446 24.5371 84.7085 25.1748 83.2832 29.574C83.0421 29.0777 82.1848 27.0908 83.0427 25.4579L83.0592 25.4262L83.0189 25.3764L82.9909 25.378C82.9651 25.3797 82.8968 25.3837 79.7458 28.3109C79.6519 28.0364 79.3541 27.0523 79.4719 25.9043C79.5994 24.664 80.2526 22.9714 82.6438 21.9502L82.8464 21.8639L82.6273 21.8459C82.6223 21.8457 82.1214 21.8057 81.4328 21.8459C80.4738 21.9024 79.1773 22.109 78.2386 22.7586C78.8563 21.8288 81.3437 18.601 86.2553 18.3136C86.9274 18.2743 87.6283 18.2914 88.3383 18.3641L88.4456 18.3749L88.3908 18.2823C88.3832 18.2694 87.6389 17.0334 86.0768 16.689C86.442 16.5329 87.4376 16.1603 88.7814 16.0818C90.9561 15.9549 93.0071 16.615 94.8772 18.0447L94.9254 18.0809L94.9567 18.0298C94.9739 18.0018 96.6915 15.2527 100.148 15.0505C100.536 15.0277 100.937 15.0378 101.341 15.0805C100.852 15.3965 99.1915 16.5405 99.1682 17.5266L99.1661 17.6243L99.2503 17.5748C99.2638 17.567 100.627 16.7789 102.583 16.6642C104.684 16.5412 106.644 17.2102 108.41 18.6524C108.22 18.6323 107.899 18.6112 107.516 18.6336C106.866 18.6716 105.95 18.8464 105.277 19.4631L105.18 19.5515L105.311 19.5575C105.321 19.5578 106.364 19.6133 107.388 20.3239C108.312 20.965 109.407 22.2852 109.44 24.9445C109.091 24.4618 107.869 22.9476 106.223 22.8916ZM105.444 19.4618C106.084 18.9322 106.92 18.7772 107.523 18.7421C108.121 18.7072 108.575 18.7834 108.58 18.7841L108.776 18.818L108.624 18.689C106.799 17.1456 104.764 16.4276 102.577 16.556C100.882 16.655 99.6227 17.255 99.2849 17.432C99.4324 16.3764 101.508 15.1038 101.529 15.0907L101.662 15.0099L101.508 14.9904C101.045 14.9323 100.585 14.9158 100.141 14.9418C96.8912 15.1319 95.1517 17.5418 94.8967 17.9225C93.043 16.5213 90.9274 15.8472 88.7751 15.9733C87.0505 16.0742 85.8871 16.6556 85.8756 16.6611L85.7291 16.7354L85.8908 16.7635C87.2578 16.9987 88.0226 17.943 88.2354 18.2446C87.5586 18.181 86.8908 18.1677 86.2491 18.2051C80.4717 18.5433 78.0119 22.911 77.9876 22.9549L77.8486 23.2084L78.0701 23.0229C78.9946 22.2488 80.4123 22.0145 81.4391 21.9546C81.8446 21.9307 82.1842 21.9351 82.393 21.9426C77.9783 23.9827 79.6542 28.3818 79.672 28.4268L79.701 28.5007L79.7594 28.4465C81.7816 26.5671 82.5504 25.878 82.8424 25.6252C82.0313 27.5059 83.2347 29.7198 83.2472 29.7429L83.3086 29.8538L83.3465 29.7331C84.5967 25.7677 86.5552 24.8118 86.9835 24.6462C86.548 27.1037 87.3792 29.6921 87.3874 29.7181L87.4807 30.0026L87.4936 29.7037C87.5778 27.7817 90.1708 25.4698 90.708 25.0108C90.6324 27.0965 93.2518 29.6944 93.3656 29.8065L93.4885 29.9266L93.4571 29.7574C92.9952 27.2545 94.5393 25.0026 94.7729 24.6802C96.0472 25.4922 97.5523 28.735 97.5672 28.768L97.623 28.888L97.6678 28.7636C98.2591 27.1314 98.2615 24.8776 98.2558 24.4396C102.3 25.6684 103.598 28.3179 103.61 28.3446L103.666 28.4611L103.71 28.3403C104.282 26.8018 103.862 24.6384 103.741 24.0963C105.578 25.2361 106.446 27.3742 106.455 27.396L106.513 27.5415L106.558 27.3913C107.256 25.0346 106.521 23.3937 106.317 23.0051C108.156 23.135 109.436 25.1283 109.449 25.149L109.548 25.3065L109.549 25.12C109.575 20.2411 106.154 19.5519 105.444 19.4618Z" fill="#301000"/>
<path d="M89.9414 29.3116C87.7891 29.1447 85.8642 31.3323 85.6421 34.1978C85.4198 37.0638 86.9843 39.5221 89.1366 39.6892C91.2889 39.8557 93.2138 37.6683 93.4358 34.8026C93.6579 31.9367 92.0932 29.4786 89.9414 29.3116Z" fill="#DEBA80"/>
<path d="M89.8844 30.4355C87.9142 30.2828 86.1566 32.231 85.9583 34.7868C85.7597 37.3428 87.1966 39.5386 89.167 39.6914C91.1371 39.8442 92.8951 37.8963 93.0934 35.3401C93.2913 32.7843 91.8552 30.5886 89.8844 30.4355Z" fill="black"/>
<path d="M89.8577 30.9687C87.9269 30.8189 86.2102 32.6504 86.0234 35.0594C85.8366 37.4686 87.2501 39.5429 89.1813 39.6928C91.1122 39.8422 92.8289 38.0107 93.0157 35.6015C93.2027 33.1925 91.7886 31.1181 89.8577 30.9687Z" fill="#CCCCCC"/>
<path d="M89.8577 30.9687C87.9269 30.8189 86.2101 32.6504 86.0234 35.0594C85.9601 35.8746 86.0809 36.6516 86.3425 37.3286C87.9493 38.0318 90.8746 37.6313 92.8441 36.5966C92.9298 36.2795 92.9888 35.9469 93.0157 35.6015C93.2027 33.1925 91.7885 31.1181 89.8577 30.9687Z" fill="white"/>
<path d="M89.5295 32.7576C88.2628 32.6593 87.1368 33.8606 87.0143 35.4411C86.8916 37.0211 87.8187 38.3819 89.0858 38.4802C90.3521 38.5786 91.4781 37.3769 91.601 35.7967C91.7233 34.2163 90.7958 32.8556 89.5295 32.7576Z" fill="#2AC8FF"/>
<path d="M89.5295 32.7576C88.2628 32.6593 87.1368 33.8606 87.0143 35.4411C86.9685 36.0313 87.0691 36.5909 87.2793 37.0653C88.3464 37.4712 90.299 37.2485 91.394 36.7451C91.5029 36.452 91.5748 36.133 91.601 35.7967C91.7233 34.2163 90.7958 32.8556 89.5295 32.7576Z" fill="#0079FF"/>
<path d="M91.5469 35.7925C91.4274 37.3307 90.3284 38.5211 89.0901 38.4261C88.4943 38.3802 87.9554 38.046 87.5736 37.4858C87.1896 36.9221 87.0102 36.1973 87.0682 35.445C87.183 33.9655 88.2005 32.8061 89.3847 32.8061C89.4313 32.8061 89.4782 32.8081 89.5254 32.8113C90.7599 32.9074 91.6667 34.2447 91.5469 35.7925ZM89.5336 32.7035C88.231 32.6013 87.084 33.8395 86.9603 35.4367C86.9002 36.2135 87.0861 36.9627 87.4842 37.5467C87.8852 38.1347 88.4523 38.4855 89.0815 38.534C89.1314 38.538 89.1812 38.5399 89.2307 38.5399C90.471 38.5399 91.5357 37.3369 91.6548 35.8011C91.7796 34.1933 90.8279 32.8037 89.5336 32.7035Z" fill="#00418E"/>
<path d="M89.4807 33.5419C89.449 33.5396 89.417 33.5383 89.3853 33.5383C88.5169 33.5383 87.7368 34.4575 87.6469 35.5869C87.5983 36.1927 87.7435 36.7705 88.0547 37.2138C88.3351 37.6135 88.7184 37.851 89.1342 37.882C89.1662 37.8843 89.1983 37.8857 89.2299 37.8857C90.098 37.8857 90.8776 36.9667 90.9677 35.8371C91.0166 35.2316 90.8713 34.6538 90.5602 34.2104C90.2798 33.8109 89.8964 33.5732 89.4807 33.5419Z" fill="black"/>
<path d="M88.4883 33.5383C88.1302 33.5383 87.8398 33.8286 87.8398 34.1869C87.8398 34.545 88.1302 34.8352 88.4883 34.8352C88.8462 34.8352 89.1368 34.545 89.1368 34.1869C89.1368 33.8286 88.8462 33.5383 88.4883 33.5383Z" fill="white"/>
<path d="M88.3467 35.585C88.1734 35.585 88.0332 35.7252 88.0332 35.8984C88.0332 36.0712 88.1734 36.2119 88.3467 36.2119C88.5199 36.2119 88.6604 36.0712 88.6604 35.8984C88.6604 35.7252 88.5199 35.585 88.3467 35.585Z" fill="white"/>
<path d="M92.9612 35.5975C92.7854 37.8682 91.2221 39.6469 89.4021 39.6469C89.3305 39.6469 89.2575 39.6439 89.1853 39.6387C87.2878 39.4912 85.8935 37.4388 86.0775 35.0636C86.2537 32.7929 87.817 31.0142 89.6369 31.0142C89.709 31.0142 89.7816 31.0171 89.8535 31.0228C90.7704 31.0937 91.5992 31.607 92.1858 32.4683C92.7754 33.3333 93.051 34.4446 92.9612 35.5975ZM89.8617 30.9142C89.7875 30.9082 89.7116 30.9057 89.6369 30.9057C87.7609 30.9057 86.1494 32.7282 85.9693 35.055C85.7806 37.4904 87.2195 39.5951 89.1771 39.7469C89.2516 39.7525 89.3275 39.7554 89.4021 39.7554C91.2784 39.7554 92.8896 37.9329 93.0698 35.6057C93.1612 34.4285 92.8791 33.2925 92.2756 32.4072C91.6699 31.5184 90.8126 30.9881 89.8617 30.9142Z" fill="black"/>
<path d="M86.895 40.5885L92.0699 39.369C90.3776 38.5194 87.7714 39.2265 86.895 40.5885Z" fill="#F6E4B4"/>
<path d="M87.5906 39.7861C87.0267 40.1824 86.895 40.5885 86.895 40.5885C87.8599 39.3377 90.1695 38.5492 92.0699 39.369C92.0699 39.369 91.797 39.1177 91.2962 39.0137C89.9701 38.7379 88.56 39.1051 87.5906 39.7861Z" fill="#714118"/>
<path d="M77.6125 84.4546C79.601 81.7932 82.2125 77.2785 82.1 75.4338L67.4438 79.8901C65.2404 84.3476 65.1593 91.4996 67.6894 92.7467C70.2187 93.9936 78.0097 92.3116 80.1626 91.3557C80.4648 92.6715 79.0065 95.478 77.8075 95.3424C76.6078 95.2064 75.4543 94.6895 74.3192 94.9871C73.1842 95.2851 63.528 102.574 68.6709 103.979C68.0447 105.117 70.0576 105.379 72.066 105.025C73.5294 104.767 77.3627 103.635 79.313 101.742C81.263 99.8485 82.0281 100.012 83.0532 98.8652C84.0781 97.718 83.6389 95.9522 83.9071 95.0036C84.1754 94.0546 87.366 88.8609 86.5828 86.7701C85.9307 85.0299 81.56 84.0969 77.6125 84.4546Z" fill="#DEBA80"/>
<path d="M77.6128 84.4546C79.6014 81.7932 82.2128 77.2785 82.1003 75.4338C82.1003 75.4338 77.973 74.9934 74.1298 76.4069C70.2867 77.8206 67.4441 79.8901 67.4441 79.8901C66.1848 86.1086 66.8665 89.7974 69.3961 91.0442C71.9259 92.2911 79.5624 90.5954 81.7153 89.64C82.0172 90.9558 79.995 97.1988 78.796 97.063C77.5963 96.9274 76.8964 95.9152 75.7615 96.2128C74.6264 96.5108 65.7614 101.838 68.6713 103.979C68.045 105.117 70.0579 105.379 72.0663 105.025C73.5297 104.767 77.363 103.635 79.3133 101.742C81.2633 99.8485 82.0284 100.012 83.0535 98.8652C84.0784 97.718 83.6392 95.9522 83.9074 95.0036C84.1757 94.0546 87.3663 88.8609 86.5831 86.7701C85.931 85.0299 81.5603 84.0969 77.6128 84.4546Z" fill="#F6E4B4"/>
<path d="M77.6124 84.4546C79.4178 82.038 81.7368 78.0941 82.064 76.0076C80.41 79.1461 78.104 82.4022 75.4238 84.8495C79.307 84.4337 84.7442 85.0507 85.7274 86.8309C86.4431 88.1268 84.2746 92.0681 83.071 94.4753C82.49 95.6374 84.1727 96.4012 82.8675 99.0619C82.9286 99.0008 82.9905 98.9359 83.0532 98.8652C84.0781 97.718 83.6388 95.9522 83.907 95.0036C84.1754 94.0546 87.3659 88.8609 86.5827 86.7702C85.9307 85.0299 81.5599 84.0969 77.6124 84.4546Z" fill="#FFFFCD"/>
<path d="M77.7283 84.3899C79.2983 82.2666 81.4102 78.6854 82.0312 76.4923C82.2266 75.8033 82.1001 75.4338 82.1001 75.4338C82.1058 77.3092 79.4246 81.9388 77.569 84.4219L77.4961 84.5198L77.6175 84.5086C81.3825 84.1674 85.8625 85.0022 86.532 86.7892C87.1108 88.3344 85.4772 91.6203 84.5015 93.5838C84.1785 94.2331 83.9237 94.7462 83.8548 94.9888C83.7648 95.3084 83.7526 95.7208 83.7403 96.1574C83.7149 97.0565 83.6859 98.0757 83.0127 98.829C82.5449 99.3523 82.1411 99.5941 81.6299 99.9006C81.0506 100.247 80.3296 100.679 79.2752 101.703C77.377 103.546 73.5921 104.701 72.0566 104.972C70.4251 105.259 69.0422 105.12 68.6945 104.634C68.5737 104.465 68.582 104.254 68.7189 104.005L68.7523 103.945L68.6855 103.927C67.7145 103.661 67.2239 103.164 67.2272 102.449C67.2345 100.987 69.2501 98.9507 70.4507 97.8675C72.1499 96.3342 73.9129 95.1501 74.3332 95.0398C75.0862 94.8426 75.8398 95.0078 76.6376 95.1827C77.016 95.2659 77.4077 95.352 77.8013 95.3966C78.1781 95.4391 78.5982 95.2144 79.0158 94.7466C79.8556 93.8065 80.4161 92.2166 80.2162 91.3435L80.201 91.2792L80.1409 91.3063C78.5172 92.0268 74.0858 93.0519 70.8064 93.1269C69.5171 93.1565 68.4048 93.0391 67.7132 92.698C66.56 92.1294 65.8883 90.2375 65.8705 87.5081C65.853 84.8914 66.4412 82.0433 67.4439 79.8901C67.4439 79.8901 67.1451 80.247 66.8517 81.0505C66.136 83.0103 65.7474 85.3408 65.7616 87.5088C65.78 90.2814 66.4736 92.2079 67.6654 92.7953C70.1192 94.0048 77.7723 92.4431 80.1231 91.4326C80.2759 92.2885 79.7338 93.7794 78.935 94.6739C78.6604 94.9814 78.2431 95.3367 77.8135 95.2883C77.4258 95.2445 77.0371 95.1593 76.661 95.0765C75.85 94.8987 75.0839 94.7307 74.3055 94.9346C73.8644 95.0504 72.115 96.2187 70.3779 97.7866C69.1639 98.8824 67.1262 100.945 67.1186 102.448C67.1146 103.202 67.6106 103.729 68.5922 104.013C68.4648 104.276 68.4691 104.506 68.606 104.697C68.8947 105.101 69.7311 105.243 70.6616 105.221C71.1285 105.21 71.6188 105.159 72.0757 105.078C73.6219 104.806 77.4343 103.641 79.351 101.781C80.3964 100.766 81.1113 100.338 81.6857 99.9936C82.1843 99.6951 82.6149 99.4371 83.0937 98.9016C83.7931 98.1182 83.8232 97.0782 83.8492 96.1603C83.8615 95.7307 83.8729 95.3249 83.9598 95.0181C84.0254 94.7855 84.2784 94.2764 84.5988 93.6324C85.5825 91.6533 87.2288 88.3406 86.6336 86.7509C85.9539 84.9373 81.5072 84.0741 77.7283 84.3899Z" fill="#714118"/>
<path d="M74.3194 94.9871C73.1844 95.2851 63.5286 102.574 68.6717 103.979C68.0451 105.117 70.0575 105.379 72.0666 105.024C72.8822 104.881 74.4319 104.466 75.984 103.8V103.798C77.7713 101.316 76.9741 96.1409 74.3194 94.9871Z" fill="#51281B"/>
<path d="M68.6715 103.979C68.0457 105.117 70.0583 105.379 72.0664 105.024C72.8823 104.88 74.4318 104.465 75.9836 103.8V103.798C77.388 101.847 77.1968 98.2307 75.7609 96.2134C74.6209 96.5141 65.7631 101.84 68.6715 103.979Z" fill="#663320"/>
<path d="M75.9472 103.756C74.4964 104.377 72.9493 104.814 72.0571 104.971C71.5794 105.055 71.093 105.105 70.6509 105.115C69.6069 105.139 68.8866 104.952 68.6744 104.603C68.5754 104.44 68.5906 104.239 68.7194 104.005L68.7527 103.944L68.686 103.927C67.7146 103.661 67.2241 103.164 67.2277 102.449C67.2353 100.987 69.2503 98.9507 70.4512 97.8672C72.127 96.3547 73.8651 95.1823 74.3156 95.0448C75.3463 95.5017 76.1788 96.6424 76.6011 98.1787C77.1554 100.195 76.8928 102.434 75.9472 103.756ZM76.706 98.1495C76.2725 96.5728 75.4106 95.4018 74.3412 94.9372L74.3241 94.93L74.3057 94.9346C73.8645 95.0504 72.1151 96.2187 70.378 97.7866C69.1644 98.8824 67.1266 100.945 67.1192 102.449C67.1152 103.202 67.6111 103.729 68.5927 104.013C68.4739 104.259 68.4703 104.476 68.5814 104.659C68.814 105.043 69.5693 105.249 70.6532 105.224C71.1006 105.214 71.5929 105.163 72.0758 105.078C72.9776 104.919 74.5419 104.478 76.0055 103.849L76.0389 103.834L76.0385 103.815C76.9996 102.467 77.268 100.193 76.706 98.1495Z" fill="#2D110B"/>
<path d="M75.5883 84.7066C74.9472 84.8307 74.4658 85.0507 74.4658 85.0507C74.4855 85.0468 76.4405 84.6031 77.6171 84.5086L77.6086 84.4001C77.0162 84.4479 76.2294 84.5828 75.5883 84.7066Z" fill="#A36530"/>
<path d="M68.6823 103.926L68.6602 104.032C69.3936 104.185 70.0216 104.247 70.6534 104.232C71.0724 104.223 71.4931 104.18 71.9475 104.108C72.3773 104.04 73.3306 103.724 73.3306 103.724C71.4579 104.144 70.3422 104.272 68.6823 103.926Z" fill="#2D110B"/>
<path d="M106.692 53.3535C106.661 53.8234 106.556 54.5694 105.594 55.1131C105.319 55.2682 105.423 55.3919 105.751 55.2589C106.639 54.8983 106.99 54.1918 106.925 53.4983C106.902 53.2559 106.715 52.9998 106.692 53.3535Z" fill="#FEB9BD"/>
<path d="M89.3994 39.8413C88.1578 40.1554 87.2763 40.9026 87.43 41.5111C87.5834 42.1192 88.7147 42.3577 89.9564 42.0436C91.1982 41.7298 92.0799 40.9822 91.9262 40.3738C91.772 39.7653 90.6413 39.5272 89.3994 39.8413Z" fill="#FFF8C3"/>
</g>
<defs>
<clipPath id="clip0_25_100">
<rect width="120" height="105.586" fill="white" transform="translate(4 11)"/>
</clipPath>
</defs>
</svg>
