<svg width="128" height="128" viewBox="0 0 128 128" fill="none" xmlns="http://www.w3.org/2000/svg">
<g clip-path="url(#clip0_25_100)">
<path d="M77.594 75.0955C77.1549 78.6942 77.1397 85.2593 79.305 89.5181C80.7288 92.3187 83.3802 94.3639 87.1903 93.672C88.2812 94.3266 87.7799 96.5582 87.2704 97.141C81.5947 98.5951 75.8471 94.3031 74.1016 86.5905C72.5011 79.6057 75.5558 74.8041 77.594 75.0955Z" fill="#E57917"/>
<path d="M83.4865 95.9037C84.8937 96.1854 86.3906 96.3732 87.7453 96.0045C87.9332 95.1428 87.8848 94.0877 87.1902 93.672C83.3802 94.3639 80.7287 92.3187 79.305 89.5181C77.1396 85.2593 77.1548 78.6943 77.594 75.0955C76.463 74.9339 75.0185 76.3453 74.23 78.8254C74.5559 82.3911 75.0171 85.8738 76.2835 89.3552C77.594 92.4112 79.9941 95.2491 83.4865 95.9037Z" fill="#F3A821"/>
<path d="M77.4146 75.1922C76.8388 75.1922 76.198 75.5982 75.6125 76.3342C74.2688 78.0203 73.095 81.7102 74.208 86.5671C75.6636 92.994 80.0246 97.3122 85.0623 97.3122C85.779 97.3122 86.5013 97.2225 87.2097 97.0429C87.508 96.6729 87.838 95.6206 87.6999 94.7381C87.6295 94.2921 87.4514 93.9717 87.1683 93.7867C83.7628 94.3901 80.8725 92.8407 79.2085 89.5679C77.1495 85.5189 76.9838 79.324 77.4712 75.1935C77.4533 75.1922 77.4339 75.1922 77.4146 75.1922ZM85.0623 97.5304C79.921 97.5304 75.473 93.1445 73.9954 86.6154C72.8658 81.684 74.0672 77.9223 75.4412 76.1975C76.1345 75.3289 76.9216 74.8897 77.6093 74.9878L77.7157 75.003L77.7019 75.1093C77.3 78.4084 77.2047 85.1474 79.4018 89.4684C80.2055 91.0482 82.096 93.6983 85.7335 93.6983C86.1988 93.6983 86.6822 93.6527 87.171 93.5643L87.2125 93.5574L87.247 93.5781C87.6019 93.7908 87.8339 94.1816 87.9154 94.705C88.0576 95.6095 87.7358 96.775 87.3519 97.2128L87.3298 97.2377L87.2967 97.2459C86.5607 97.4351 85.808 97.5304 85.0623 97.5304Z" fill="#843B1B"/>
<mask id="mask0_25_100" style="mask-type:alpha" maskUnits="userSpaceOnUse" x="84" y="88" width="22" height="15">
<path d="M84.2197 88.8456H105.329V102.987H84.2197V88.8456Z" fill="black"/>
</mask>
<g mask="url(#mask0_25_100)">
<path d="M84.942 93.2122C86.1779 90.8107 89.053 88.7006 93.3091 89.2102C97.5652 89.7198 99.7485 93.0299 100.875 95.2132C102.004 97.3951 102.95 100.378 105.096 101.033C103.822 102.016 101.385 101.324 100.112 100.342C100.548 101.324 100.73 102.088 100.639 102.906C100.003 101.488 98.7087 100.834 96.0917 101.27C92.435 101.879 89.1069 101.933 85.3424 97.8688C84.5788 96.7764 84.0595 94.5352 84.942 93.2122Z" fill="#391815"/>
</g>
<path d="M100.875 95.2132C99.7486 93.0299 97.5653 89.7198 93.3092 89.2102C89.0531 88.7006 86.178 90.8107 84.9421 93.2122C84.438 93.9662 84.3924 95.0198 84.5858 95.9893C86.5011 98.3811 90.0833 99.1682 93.3092 98.5233C92.6547 98.0869 92.0001 97.8687 91.3441 97.431C93.5274 97.2142 95.4911 98.0869 97.4562 98.9597C97.0199 98.0869 96.1457 97.2142 96.1457 96.1218C96.8017 96.1218 97.4562 96.5582 98.1108 96.7764C100.001 98.0372 101.892 99.8656 104.028 100.457C102.596 99.3118 101.797 96.996 100.875 95.2132Z" fill="#662518"/>
<path d="M96.1457 92.8476C96.1457 91.9748 95.4911 91.3203 95.0547 90.6657C97.0198 91.3203 98.7653 92.6294 99.6381 94.3763C100.197 95.412 100.932 96.3317 101.787 97.1134C101.478 96.4629 101.183 95.8084 100.875 95.2132C99.7486 93.0299 97.5653 89.7198 93.3092 89.2102C89.0531 88.7006 86.178 90.8107 84.942 93.2122C84.7818 93.4511 84.6727 93.7231 84.5981 94.0117C87.7481 90.9502 92.4627 89.746 96.1457 92.8476Z" fill="#83361F"/>
<mask id="mask1_25_100" style="mask-type:alpha" maskUnits="userSpaceOnUse" x="84" y="88" width="22" height="16">
<path d="M84.2197 88.8456H105.329V103.34H84.2197V88.8456Z" fill="black"/>
</mask>
<g mask="url(#mask1_25_100)">
<path d="M97.5472 101.027C98.9986 101.027 99.9639 101.497 100.554 102.5C100.554 101.872 100.386 101.229 100.012 100.386L99.8368 99.9913L100.178 100.255C101.066 100.94 102.39 101.4 103.476 101.4C104.025 101.4 104.488 101.288 104.855 101.066C103.215 100.435 102.306 98.4888 101.428 96.6066C101.207 96.1329 100.998 95.6869 100.779 95.2629C98.9074 91.642 96.459 89.6977 93.2952 89.3179C92.8754 89.2682 92.457 89.242 92.0524 89.242C88.9563 89.242 86.3353 90.7444 85.0385 93.2619C84.1616 94.5793 84.7154 96.7819 85.4307 97.8052C87.7728 100.332 90.1149 101.463 93.0163 101.463C94.1211 101.463 95.2313 101.302 96.0737 101.162C96.6109 101.073 97.1067 101.027 97.5472 101.027ZM100.703 103.317L100.54 102.951C99.87 101.459 98.4973 100.979 96.1096 101.376C95.259 101.519 94.1376 101.682 93.0163 101.682C90.0486 101.682 87.6568 100.528 85.2623 97.9419C84.5014 96.8579 83.9255 94.5379 84.8507 93.1514C86.1792 90.5718 88.8734 89.0251 92.0524 89.0251C92.4653 89.0251 92.8934 89.05 93.3215 89.1025C96.5626 89.4891 99.0649 91.4722 100.972 95.1621C101.194 95.5902 101.403 96.039 101.625 96.514C102.52 98.4322 103.447 100.417 105.127 100.929L105.329 100.991L105.162 101.12C104.734 101.45 104.166 101.618 103.476 101.618C102.469 101.618 101.265 101.238 100.362 100.651C100.714 101.531 100.827 102.208 100.747 102.919L100.703 103.317Z" fill="#221411"/>
</g>
<path d="M81.7412 56.8338C82.5408 62.0717 82.7589 67.0929 81.1584 71.6763C79.5579 76.2596 76.8844 79.3157 76.1746 81.771C75.7382 85.3725 76.6386 89.793 75.9025 92.7938C75.1651 95.7946 71.4821 100.778 72.5012 109.8C71.5553 110.455 67.8447 110.673 64.4254 108.927C64.2072 103.688 65.8078 92.4112 66.8987 84.99C67.9897 77.5688 69.1897 61.0899 69.1897 61.0899C69.1897 61.0899 75.8473 56.1792 81.7412 56.8338Z" fill="#E57917"/>
<path d="M81.0117 72.074C81.06 71.9414 81.1111 71.8116 81.1581 71.6763C82.7586 67.0929 82.5404 62.0717 81.7409 56.8338C75.847 56.1792 69.1894 61.0899 69.1894 61.0899C69.1894 61.0899 67.9893 77.5688 66.8984 84.99C66.7202 86.1983 66.5297 87.5102 66.335 88.8815C71.613 83.6229 77.4447 78.552 81.0117 72.074Z" fill="#F3A821"/>
<path d="M64.5316 108.858C66.7977 110 68.9285 110.172 70.0015 110.172C71.0483 110.172 71.9501 110.01 72.3851 109.745C71.6366 102.973 73.5533 98.4073 74.8252 95.3844C75.2491 94.375 75.6151 93.5036 75.796 92.7675C76.1965 91.138 76.1095 89.108 76.0183 86.9579C75.9451 85.2054 75.8678 83.3964 76.0667 81.7572C76.394 80.6207 77.119 79.3806 77.9586 77.9458C78.9998 76.1657 80.1791 74.1482 81.056 71.6404C82.7933 66.6634 82.2892 61.1769 81.6457 56.9332C81.3157 56.9001 80.9746 56.8835 80.6293 56.8835C75.3817 56.8835 69.8234 60.7709 69.2959 61.1479C69.2199 62.167 68.0558 77.8698 67.0062 85.0066C65.6764 94.056 64.3424 103.959 64.5316 108.858ZM70.0015 110.39C68.8995 110.39 66.7024 110.213 64.3755 109.024L64.3189 108.995L64.3162 108.932C64.1118 104.036 65.4527 94.0739 66.7908 84.9748C67.868 77.642 69.0694 61.2473 69.0818 61.0816L69.0846 61.0319L69.126 61.0015C69.184 60.9587 75.0696 56.6639 80.6293 56.6639C81.0119 56.6639 81.3902 56.6847 81.7534 56.7247L81.8363 56.7344L81.8487 56.8172C82.5019 61.0968 83.0267 66.6579 81.2618 71.7122C80.3794 74.2407 79.1931 76.2679 78.1464 78.0563C77.315 79.4786 76.5956 80.7077 76.2793 81.8014C76.0874 83.4047 76.1633 85.2054 76.2365 86.9482C76.329 89.1149 76.4147 91.1615 76.0073 92.82C75.8236 93.5726 75.4535 94.4509 75.0254 95.4687C73.7605 98.4819 71.8465 103.035 72.6088 109.788L72.6171 109.853L72.5632 109.89C72.1102 110.203 71.1532 110.39 70.0015 110.39Z" fill="#843B1B"/>
<path d="M69.808 107.036C71.0454 106.163 72.8282 106.574 73.654 107.946C74.7919 109.836 74.4411 112.456 73.5615 113.874C72.6818 115.294 70.7181 114.711 70.3535 114.421C69.2626 115.147 66.8984 115.439 65.7701 114.129C64.6433 112.819 64.8214 110.455 65.2053 107.981C66.2079 105.471 68.608 105.798 69.808 107.036Z" fill="#EBAE5C"/>
<path d="M68.8622 110.746C69.5182 110.528 70.1727 109.655 70.1727 108.563C70.6091 109.436 70.8273 110.528 71.7001 111.183C72.5728 111.619 73.6652 110.746 73.8833 110.092C74.0422 109.774 74.1126 109.429 74.1402 109.064C74.0256 108.675 73.8654 108.296 73.6541 107.946C72.8283 106.574 71.0455 106.163 69.8082 107.036C68.6081 105.798 66.208 105.471 65.2054 107.981C65.1019 108.648 65.0135 109.307 64.9624 109.94C66.0257 110.873 67.5641 111.232 68.8622 110.746Z" fill="#FCDB8C"/>
<path d="M65.3107 108.01C64.942 110.397 64.7528 112.779 65.8534 114.058C66.3381 114.62 67.1267 114.929 68.0768 114.929C68.8888 114.929 69.738 114.7 70.2946 114.33L70.3608 114.286L70.423 114.335C70.5735 114.455 71.1273 114.679 71.786 114.679C72.3094 114.679 73.0275 114.53 73.4694 113.817C74.3642 112.372 74.6446 109.802 73.5605 108.001C73.073 107.19 72.1948 106.686 71.2695 106.686C70.7613 106.686 70.278 106.838 69.872 107.124L69.796 107.179L69.7311 107.111C69.1774 106.543 68.4027 106.203 67.6542 106.203C66.6116 106.203 65.7802 106.845 65.3107 108.01ZM68.0768 115.147C67.0631 115.147 66.2139 114.812 65.6877 114.2C64.5277 112.852 64.7183 110.406 65.0967 107.965L65.1036 107.941C65.783 106.239 66.9941 105.985 67.6542 105.985C68.4317 105.985 69.234 106.323 69.8223 106.895C70.249 106.614 70.7475 106.468 71.2695 106.468C72.2707 106.468 73.2208 107.012 73.7483 107.889C74.8738 109.76 74.5852 112.431 73.6544 113.932C73.16 114.73 72.366 114.897 71.786 114.897C71.1618 114.897 70.5998 114.705 70.3526 114.552C69.7629 114.921 68.8998 115.147 68.0768 115.147Z" fill="#843B1B"/>
<path d="M70.3494 113.178L70.1409 113.114C70.1506 113.083 71.1283 109.778 69.7114 107.087L69.9048 106.984C71.3644 109.757 70.3605 113.145 70.3494 113.178Z" fill="#843B1B"/>
<path d="M40.4231 51.0242C39.6221 56.2635 39.4039 61.2832 41.0058 65.8666C42.605 70.45 45.2799 73.506 45.9883 75.9614C46.426 79.5629 45.5257 83.9833 46.2617 86.9841C46.9991 89.9849 50.6821 94.9688 49.663 103.991C50.6089 104.645 54.3196 104.865 57.7388 103.118C57.957 97.8798 56.3565 86.6016 55.2655 79.1804C54.1746 71.7605 52.9731 55.2802 52.9731 55.2802C52.9731 55.2802 46.3156 50.3696 40.4231 51.0242Z" fill="#E57917"/>
<path d="M55.1576 79.1969C54.1081 72.0602 52.9426 56.3574 52.868 55.3396C52.3405 54.9612 46.7822 51.0739 41.5345 51.0739C41.1893 51.0739 40.8482 51.0904 40.5182 51.1236C39.8733 55.3672 39.3706 60.8538 41.1078 65.8307C41.9834 68.3385 43.1641 70.3561 44.2053 72.1361C45.0449 73.5723 45.7699 74.8124 46.0972 75.9489C46.2961 77.5867 46.2187 79.3972 46.1442 81.1482C46.053 83.2983 45.9674 85.3297 46.3679 86.9579C46.5488 87.6953 46.9147 88.5667 47.3387 89.5748C48.6092 92.5991 50.5273 97.1631 49.7788 103.937C50.2138 104.2 51.1156 104.363 52.1623 104.363C53.2353 104.363 55.3661 104.191 57.6323 103.05C57.8215 98.1491 56.4875 88.2477 55.1576 79.1969ZM49.6007 104.08L49.5468 104.043L49.5537 103.979C50.3174 97.2252 48.4034 92.6722 47.1371 89.6604C46.7103 88.6426 46.3403 87.763 46.1552 87.0103C45.7478 85.3518 45.8348 83.3053 45.926 81.1385C46.0005 79.3972 46.0765 77.595 45.8832 75.9917C45.5683 74.898 44.8488 73.669 44.0175 72.2466C42.9707 70.4583 41.7845 68.431 40.9021 65.9025C39.1372 60.8482 39.6606 55.2871 40.3152 51.0076L40.3276 50.9247L40.4104 50.9164C40.7736 50.875 41.152 50.8557 41.5345 50.8557C47.0943 50.8557 52.9799 55.149 53.0379 55.1932L53.0779 55.2222L53.0821 55.2719C53.0945 55.4377 54.2945 71.8323 55.373 79.1652C56.7112 88.2642 58.0521 98.2264 57.8477 103.122L57.845 103.185L57.7883 103.214C55.4614 104.403 53.2643 104.582 52.1623 104.582C51.0106 104.582 50.0536 104.394 49.6007 104.08Z" fill="#843B1B"/>
<path d="M52.3544 101.226C51.1184 100.353 49.3343 100.765 48.5098 102.136C47.3719 104.028 47.7227 106.646 48.6024 108.066C49.4806 109.484 51.4457 108.903 51.8089 108.611C52.9013 109.339 55.2654 109.629 56.3923 108.32C57.5205 107.011 57.3424 104.645 56.9585 102.172C55.9559 99.6612 53.5558 99.9899 52.3544 101.226Z" fill="#EBAE5C"/>
<path d="M53.3005 104.936C52.6459 104.718 51.9913 103.846 51.9913 102.755C51.5549 103.627 51.3367 104.718 50.464 105.373C49.5898 105.809 48.4989 104.936 48.2807 104.282C48.1219 103.964 48.0515 103.619 48.0225 103.254C48.1385 102.865 48.2973 102.488 48.5099 102.136C49.3344 100.765 51.1186 100.353 52.3545 101.226C53.5559 99.9899 55.956 99.6612 56.9586 102.172C57.0622 102.84 57.1492 103.498 57.2016 104.131C56.1383 105.065 54.5999 105.424 53.3005 104.936Z" fill="#FCDB8C"/>
<path d="M54.5101 100.393C53.7617 100.393 52.9856 100.733 52.4332 101.302L52.3683 101.369L52.2923 101.316C51.8849 101.028 51.4016 100.876 50.8948 100.876C49.9696 100.876 49.0913 101.381 48.6038 102.193C47.5198 103.992 47.7987 106.562 48.6949 108.008C49.1368 108.72 49.8536 108.869 50.3783 108.871C51.037 108.871 51.5908 108.646 51.7413 108.526L51.8035 108.476L51.8698 108.52C52.4249 108.89 53.2756 109.121 54.0876 109.121C55.0377 109.121 55.8262 108.811 56.3109 108.249C57.4115 106.969 57.2223 104.587 56.8536 102.201C56.3841 101.035 55.5514 100.393 54.5101 100.393ZM51.8118 108.742C51.5646 108.896 51.0025 109.089 50.3783 109.089C49.7983 109.089 49.0043 108.921 48.5085 108.122C47.5791 106.621 47.2891 103.95 48.416 102.079C48.9435 101.202 49.8936 100.658 50.8948 100.658C51.4168 100.658 51.9139 100.806 52.342 101.085C52.9289 100.513 53.7327 100.175 54.5101 100.175C55.1702 100.175 56.3799 100.429 57.0594 102.132L57.0663 102.155C57.446 104.597 57.6366 107.042 56.4752 108.39C55.9491 109.002 55.1012 109.339 54.0876 109.339C53.2645 109.339 52.4 109.111 51.8118 108.742Z" fill="#843B1B"/>
<path d="M51.8146 107.37L52.0231 107.306C52.0135 107.273 51.0358 103.968 52.4512 101.277L52.2593 101.176C50.7996 103.948 51.8036 107.335 51.8146 107.37Z" fill="#843B1B"/>
<path d="M30.157 59.5985C29.211 61.9999 29.0287 65.7465 29.9015 68.402C30.7756 71.0576 32.8125 75.2046 33.1025 78.1143C31.9384 80.7698 31.8666 85.4264 33.4312 90.2293C34.9944 95.0309 36.4859 97.5774 36.9954 101.798C37.505 106.016 35.6863 109.727 37.8682 115.038C39.9783 117.658 49.801 117.221 51.5465 115.038C52.857 110.746 52.2011 105.871 50.6738 101.506C49.1464 97.141 49.7637 93.2771 49.2182 89.1342C48.6728 84.99 49.6546 77.3506 49.6546 77.3506C49.6546 77.3506 35.1035 59.8526 30.157 59.5985Z" fill="#E57917"/>
<path d="M48.7848 105.985C48.5666 104.02 48.0943 101.622 45.5078 98.9597C47.0365 91.9749 44.635 85.2082 39.1789 79.9703C38.7425 79.5339 38.5243 78.6611 38.0879 77.787C37.2138 79.0975 36.1228 80.1885 34.5955 80.6248C36.1228 78.2234 36.7774 74.9505 35.0319 72.549C32.7782 69.4281 30.802 66.1704 29.4266 62.7747C29.225 64.6818 29.3603 66.7532 29.9016 68.402C30.7758 71.0576 32.8127 75.2046 33.1027 78.1143C31.9386 80.7698 31.8667 85.4264 33.4314 90.2293C34.9946 95.0309 36.486 97.5774 36.9956 101.798C37.5052 106.016 35.6865 109.727 37.8684 115.038C39.5241 117.093 45.9207 117.267 49.4462 116.194C49.6672 112.113 49.38 110 48.7848 105.985Z" fill="#F3A821"/>
<path d="M38.0878 105.508C38.5242 103.543 39.8334 101.579 38.9606 99.8325C35.4019 93.5063 32.5585 86.8212 32.5419 79.9399C31.9785 82.6452 32.1801 86.3889 33.4313 90.2293C34.9945 95.0309 36.4859 97.5774 36.9955 101.798C37.5051 106.016 35.6864 109.727 37.8683 115.038C38.3378 115.621 39.1871 116.05 40.2435 116.346C38.3502 113.073 37.0466 109.498 38.0878 105.508Z" fill="#FADB99"/>
<path d="M37.9635 114.983C38.8487 116.063 41.3288 116.734 44.4457 116.734H44.447C47.7296 116.734 50.6019 116.016 51.4485 114.987C52.9178 110.147 51.7826 105.006 50.5702 101.542C49.5745 98.696 49.4847 96.0224 49.3977 93.4373C49.3508 92.0425 49.3011 90.5994 49.1105 89.1481C48.5913 85.2082 49.4599 78.0383 49.5414 77.3837C48.797 76.4958 35.0386 60.1301 30.2288 59.7131C29.2856 62.1767 29.1875 65.879 30.0051 68.3675C30.2785 69.1975 30.6665 70.1766 31.0767 71.2123C31.984 73.4991 33.01 76.0912 33.2116 78.1046L33.2144 78.1322L33.2033 78.1584C31.9522 81.0129 32.082 85.7371 33.5348 90.1948C34.043 91.7581 34.5553 93.11 35.0082 94.3031C35.9473 96.7833 36.7593 98.9266 37.1045 101.784C37.2909 103.333 37.1694 104.783 37.0396 106.319C36.82 108.933 36.5936 111.637 37.9635 114.983ZM44.447 116.952H44.4457C41.2046 116.952 38.7147 116.263 37.7839 115.107L37.7674 115.081C36.3699 111.68 36.6005 108.945 36.8228 106.299C36.9499 104.776 37.0714 103.336 36.8877 101.81C36.5452 98.979 35.7774 96.9504 34.8039 94.3805C34.3509 93.1846 33.8372 91.8299 33.3262 90.2625C31.8638 85.7703 31.7326 81.0004 32.992 78.0977C32.7863 76.1174 31.7713 73.5557 30.8737 71.2937C30.4621 70.2539 30.0727 69.2706 29.7979 68.4366C28.9445 65.8376 29.0522 62.1049 30.0548 59.5584L30.0838 59.4852L30.1625 59.4894C35.1008 59.7435 49.1437 76.5648 49.7388 77.2815L49.7692 77.3175L49.7637 77.3644C49.754 77.4404 48.7887 85.0383 49.3273 89.1191C49.5193 90.5815 49.5676 92.0301 49.6159 93.4304C49.7016 95.999 49.7913 98.6545 50.7773 101.47C52.0008 104.968 53.147 110.168 51.6515 115.07L51.6321 115.107C50.6171 116.375 47.1965 116.952 44.447 116.952Z" fill="#843B1B"/>
<path d="M39.7972 111.779C38.814 110.828 37.2135 111.091 36.041 112.765C34.638 114.766 34.493 117.757 35.6129 119.84C36.5865 121.647 38.3417 121.368 38.8872 120.748C40.2695 122.526 42.8519 122.733 44.1251 121.163C45.6538 122.691 48.5994 122.403 49.7276 120.253C51.3654 121.947 53.9478 121.823 54.8579 119.84C55.7665 117.855 55.0388 113.515 54.0928 111.738C53.1469 109.96 49.8008 108.926 48.3094 112.358C47.2184 110.043 44.3074 109.919 43.1433 112.151C42.671 110.952 40.6327 110.839 39.7972 111.779Z" fill="#EBAE5C"/>
<path d="M35.2502 118.167C36.7775 119.477 37.2139 117.295 38.0881 116.202C38.3049 117.295 38.7426 118.386 39.8336 118.604C41.3609 119.04 42.0155 117.513 42.4533 116.422C43.326 117.295 43.9806 119.04 45.5079 118.822C46.8184 118.386 47.2548 117.076 47.9094 115.984C49.2185 118.604 52.0564 117.949 53.1473 115.984C53.9731 114.451 54.0974 112.853 53.7964 111.296C52.5811 109.815 49.6715 109.223 48.3099 112.358C47.2189 110.043 44.3079 109.919 43.1437 112.151C42.6714 110.952 40.6345 110.839 39.7977 111.779C38.8144 110.828 37.2139 111.091 36.0415 112.765C35.0334 114.203 34.6785 116.148 34.9713 117.904C35.0527 118 35.1453 118.089 35.2502 118.167Z" fill="#FCDB8C"/>
<path d="M38.8928 120.577L38.9729 120.682C39.6703 121.578 40.7336 122.113 41.8177 122.113C42.7181 122.113 43.508 121.751 44.041 121.094L44.117 121L44.2026 121.085C44.7936 121.675 45.6498 122.015 46.5516 122.015C47.8649 122.015 49.0442 121.32 49.6311 120.201L49.7015 120.068L49.8065 120.177C50.5108 120.906 51.4388 121.324 52.353 121.324C53.4204 121.324 54.3194 120.752 54.7586 119.794C55.6521 117.844 54.9367 113.555 53.9977 111.789C53.4992 110.854 52.3792 110.201 51.2717 110.201C50.0426 110.201 49.0263 110.982 48.409 112.4L48.3137 112.621L48.2101 112.403C47.7019 111.326 46.7187 110.656 45.6443 110.656C44.6431 110.656 43.7455 111.234 43.2401 112.202L43.1296 112.413L43.0426 112.191C42.8189 111.626 42.1657 111.261 41.3758 111.261C40.7668 111.261 40.2075 111.482 39.8788 111.851L39.8029 111.936L39.7214 111.858C39.372 111.519 38.9384 111.341 38.4675 111.341C37.6445 111.341 36.7924 111.883 36.1296 112.829C34.7652 114.777 34.5884 117.703 35.7097 119.787C36.3298 120.939 37.1998 121.112 37.6638 121.112C38.125 121.112 38.5725 120.94 38.8058 120.677L38.8928 120.577ZM41.8177 122.331C40.706 122.331 39.6165 121.803 38.879 120.913C38.5918 121.172 38.1402 121.33 37.6638 121.33C37.1515 121.33 36.1903 121.143 35.5164 119.891C34.3592 117.738 34.5415 114.715 35.9514 112.703C36.6557 111.699 37.5726 111.123 38.4675 111.123C38.9605 111.123 39.4162 111.296 39.7918 111.626C40.1675 111.26 40.7502 111.043 41.3758 111.043C42.1643 111.043 42.8355 111.379 43.1503 111.916C43.7082 110.986 44.6265 110.437 45.6443 110.437C46.7339 110.437 47.7351 111.072 48.304 112.106C49.1892 110.264 50.5329 109.982 51.2717 109.982C52.4565 109.982 53.6552 110.683 54.1896 111.687C55.1494 113.49 55.8758 117.881 54.9561 119.885C54.481 120.922 53.5074 121.542 52.353 121.542C51.425 121.542 50.4845 121.139 49.754 120.432C49.1077 121.547 47.8953 122.233 46.5516 122.233C45.6346 122.233 44.7605 121.903 44.1335 121.321C43.5618 121.973 42.7429 122.331 41.8177 122.331Z" fill="#843B1B"/>
<path d="M38.7868 120.791C38.2496 119.543 36.7264 115.196 39.7134 111.707L39.8805 111.85C36.9736 115.243 38.4623 119.486 38.9884 120.706L38.7868 120.791Z" fill="#843B1B"/>
<path d="M44.0452 121.236C42.3839 119.413 41.565 115.215 43.0454 112.104L43.2428 112.198C41.7997 115.23 42.5924 119.318 44.2067 121.088L44.0452 121.236Z" fill="#843B1B"/>
<path d="M49.6518 120.33C47.8455 118.551 47.2779 115.41 48.2045 112.326L48.4144 112.389C47.5085 115.396 48.0554 118.452 49.8051 120.175L49.6518 120.33Z" fill="#843B1B"/>
<path d="M72.9001 66.7642C74.3197 71.349 75.3734 77.7152 74.81 84.1904C74.2465 90.6657 72.2096 94.7395 69.8082 99.5411C67.4081 104.344 64.7884 109.219 68.5722 113.146C67.6276 115.015 65.5162 119.646 60.8596 120.253C56.203 120.859 54.4575 119.695 53.2934 117.295C52.1292 114.893 52.4924 111.256 53.8748 106.817C55.2571 102.379 55.4035 101.07 54.8939 96.5582C54.3843 92.0481 53.7298 82.9531 57.0758 76.696C60.4232 70.4389 69.9545 65.4192 72.9001 66.7642Z" fill="#E57917"/>
<path d="M63.4061 104.416C67.1167 96.9946 75.4107 89.137 70.8273 80.6248C70.6105 80.2464 70.3012 80.0959 69.9311 80.0973C68.9133 81.104 67.89 82.1356 66.8985 83.2445C65.8075 84.3354 65.5894 86.3005 64.7152 87.8279C64.497 86.3005 63.8425 84.99 63.6243 83.4627C61.6606 84.99 59.6955 87.1733 59.2591 89.5734C59.0409 88.9188 59.4773 88.0461 59.0409 87.3915C57.4183 89.9863 55.7984 92.7026 54.8027 95.7172C54.8331 96.0128 54.8635 96.2945 54.8939 96.5582C55.4035 101.07 55.2571 102.379 53.8748 106.817C52.4924 111.256 52.1292 114.893 53.2934 117.295C54.4575 119.695 56.203 120.859 60.8596 120.253C62.6659 120.018 64.0883 119.175 65.2082 118.126C62.7349 113.793 60.9922 109.244 63.4061 104.416Z" fill="#F3A821"/>
<path d="M71.6986 66.6538C68.0943 66.6538 60.1525 71.1764 57.1724 76.7471C54.7585 81.2615 54.028 87.9218 55.0015 96.5458C55.507 101.024 55.3744 102.372 53.9796 106.849C52.4979 111.606 52.3045 115.008 53.3913 117.246C54.2807 119.08 55.5166 120.302 58.6597 120.302C59.3073 120.302 60.042 120.248 60.8457 120.145C65.2358 119.573 67.332 115.381 68.3401 113.366L68.4396 113.167C64.7925 109.309 67.1829 104.537 69.496 99.9209L69.7114 99.4928C72.088 94.7395 74.1401 90.6353 74.7008 84.1808C75.1841 78.6252 74.495 72.3101 72.8117 66.8443C72.5134 66.7187 72.1391 66.6538 71.6986 66.6538ZM58.6597 120.521C55.8729 120.521 54.289 119.599 53.1952 117.342C52.0836 115.049 52.2728 111.597 53.7711 106.784C55.1534 102.346 55.286 101.009 54.7847 96.5707C53.8056 87.9011 54.5444 81.1979 56.9804 76.6449C60.0959 70.8201 68.0557 66.4356 71.6986 66.4356C72.193 66.4356 72.6128 66.5129 72.9456 66.6662L72.9898 66.6855L73.005 66.7325C74.7077 72.2356 75.4051 78.6017 74.919 84.1987C74.3542 90.6947 72.2924 94.8169 69.9061 99.5894L69.6907 100.019C67.4011 104.59 65.0328 109.315 68.6509 113.072L68.7047 113.127L68.5349 113.464C67.5102 115.512 65.3794 119.775 60.8733 120.36C60.0613 120.467 59.3156 120.521 58.6597 120.521Z" fill="#843B1B"/>
<mask id="mask2_25_100" style="mask-type:alpha" maskUnits="userSpaceOnUse" x="52" y="110" width="21" height="15">
<path d="M52.7563 110.764H72.9072V124.001H52.7563V110.764Z" fill="black"/>
</mask>
<g mask="url(#mask2_25_100)">
<path d="M66.0979 112.358C66.5357 111 68.6941 110.654 70.2007 111.647C71.8371 112.724 72.8287 114.1 72.8287 116.734C72.8287 119.367 71.5499 120.893 69.6428 120.748C68.5726 123.223 65.3715 123.661 64.0251 122.896C60.6418 125.261 52.9872 123.496 53.03 116.657C53.9842 117.949 55.2353 118.899 56.2172 117.989C57.1991 117.081 57.2405 115.646 58.8231 114.421C60.2551 113.311 61.9882 113.547 62.7519 114.239C63.115 112.71 64.5347 112.041 66.0979 112.358Z" fill="#EBAE5C"/>
</g>
<path d="M61.2231 122.096C63.8428 121.223 64.2792 118.822 64.2792 116.202C65.1519 117.295 65.8079 119.477 67.7716 118.822C69.5185 118.167 69.0821 116.202 68.8625 114.893C69.5185 115.766 69.7367 117.513 71.0458 116.857C72.2403 116.26 72.2086 114.744 71.9296 113.287C71.4919 112.633 70.9063 112.112 70.2007 111.647C68.6941 110.654 66.5356 111 66.0979 112.358C64.5346 112.041 63.115 112.71 62.7518 114.239C61.9882 113.547 60.2551 113.311 58.823 114.421C57.2405 115.646 57.199 117.081 56.2172 117.989C55.2353 118.899 53.9842 117.949 53.0299 116.657C53.023 117.846 53.2523 118.877 53.6472 119.765C55.6054 121.83 58.2762 122.789 61.2231 122.096Z" fill="#FCDB8C"/>
<mask id="mask3_25_100" style="mask-type:alpha" maskUnits="userSpaceOnUse" x="52" y="110" width="22" height="15">
<path d="M52.7563 110.764H73.2607V124.001H52.7563V110.764Z" fill="black"/>
</mask>
<g mask="url(#mask3_25_100)">
<path d="M53.1429 116.983C53.2009 118.827 53.8541 120.427 55.0431 121.623C56.3868 122.974 58.4181 123.781 60.4771 123.781C61.8249 123.781 63.0623 123.436 63.9627 122.807L64.0179 122.767L64.0787 122.802C64.4501 123.012 64.9763 123.129 65.5604 123.129C66.9138 123.129 68.7684 122.494 69.5417 120.706L69.5735 120.634L69.6508 120.641C71.5303 120.784 72.7193 119.257 72.7193 116.734C72.7193 114.392 71.9722 112.943 70.1397 111.738C69.5997 111.381 68.941 111.185 68.285 111.185C67.2548 111.185 66.4373 111.659 66.2012 112.391L66.1722 112.483L66.0769 112.464C65.8311 112.416 65.588 112.389 65.3519 112.389C64.069 112.389 63.1369 113.09 62.8579 114.263L62.8151 114.443L62.6784 114.32C62.2931 113.971 61.6675 113.764 61.006 113.764C60.4785 113.764 59.6831 113.892 58.889 114.506C57.997 115.198 57.5965 115.973 57.2443 116.657C56.9751 117.179 56.721 117.672 56.2915 118.071C56.0125 118.328 55.6977 118.459 55.3566 118.459C54.4949 118.459 53.6594 117.625 53.1429 116.983ZM60.4771 124.001C58.3601 124.001 56.2721 123.169 54.8884 121.776C53.5876 120.468 52.9081 118.698 52.9206 116.657L52.9233 116.328L53.1181 116.592C53.9024 117.655 54.6979 118.241 55.3566 118.241C55.6411 118.241 55.9062 118.129 56.1423 117.911C56.5456 117.538 56.79 117.061 57.051 116.557C57.4142 115.853 57.8257 115.055 58.7551 114.334C59.5975 113.682 60.444 113.544 61.006 113.544C61.6482 113.544 62.2641 113.73 62.6894 114.047C63.0388 112.885 64.0441 112.171 65.3519 112.171C65.5729 112.171 65.7993 112.192 66.0272 112.232C66.3269 111.461 67.201 110.967 68.285 110.967C68.9838 110.967 69.6853 111.177 70.2598 111.555C72.1365 112.791 72.9375 114.339 72.9375 116.734C72.9375 119.283 71.7692 120.867 69.8883 120.867C69.8289 120.867 69.7709 120.866 69.7116 120.863C68.8788 122.694 66.9621 123.347 65.5604 123.347C64.9694 123.347 64.4308 123.233 64.0317 123.024C63.1009 123.654 61.8415 123.999 60.4771 124.001Z" fill="#843B1B"/>
</g>
<path d="M64.0994 122.977L63.9502 122.817C64.8617 121.976 65.3077 120.892 65.276 119.594C65.2262 117.516 63.9323 115.368 62.6812 114.321L62.822 114.154C64.1104 115.233 65.4417 117.445 65.4941 119.59C65.5273 120.953 65.0578 122.092 64.0994 122.977Z" fill="#843B1B"/>
<path d="M69.7432 120.793L69.5416 120.706C70.1202 119.366 70.0981 117.771 69.4781 116.215C68.7986 114.511 67.4867 113.072 66.0547 112.459L66.1403 112.257C67.6234 112.892 68.9795 114.378 69.6797 116.135C70.3218 117.745 70.3439 119.399 69.7432 120.793Z" fill="#843B1B"/>
<path d="M52.8199 8.10557C50.2555 6.19571 42.2335 4.667 36.7774 8.05033C31.3212 11.4337 28.5925 15.745 27.8827 21.8018C27.4463 23.8746 27.5554 29.2231 26.4644 31.8966C24.1182 36.2618 21.5745 44.2644 25.5364 53.2323C25.4273 59.1262 27.9738 61.7818 30.3021 64.5464C32.6304 67.3111 35.4682 71.2399 32.9218 75.4601C34.3773 75.2405 36.3852 73.7132 37.4361 71.2399C37.9774 75.4228 40.2698 77.2415 43.1077 79.0423C45.9441 80.843 48.8911 85.8628 49.9282 89.793C50.7471 87.2272 52.6017 84.7718 54.6206 82.2626C54.5116 83.5165 54.6206 86.1901 55.3843 87.9922C56.5857 83.2445 62.5335 81.0612 64.7154 78.0604C64.6615 79.3157 64.8797 80.8983 65.207 81.9892C66.0798 78.9884 68.154 77.4058 70.7184 75.6051C73.2828 73.8043 79.805 70.1337 82.3004 61.9917C82.8321 62.9445 83.4508 64.3641 83.5958 65.201C84.9063 62.9445 88.7025 53.8869 87.8408 46.902C88.4346 47.3025 88.726 47.9211 88.726 47.9211C89.2342 45.8842 88.9442 40.3549 86.6518 34.8974C84.3594 29.4413 80.6488 25.2943 79.4488 18.5276C78.2487 11.7609 74.2108 6.95938 68.426 4.99567C62.6426 3.03057 55.985 4.44881 52.8199 8.10557Z" fill="#391815"/>
<path d="M69.0817 59.0157C68.6439 59.2353 69.0817 57.9248 68.6439 58.1429C66.2438 58.7989 66.0257 61.6354 64.4969 63.3823C64.4969 62.9445 64.4969 62.2899 64.4969 61.8536C62.7514 63.3823 63.406 66.4369 61.2227 67.7475C61.0059 66.4369 61.2227 64.6914 60.3499 64.255C59.0408 63.8187 58.6044 66.4369 57.0757 67.0929C57.0757 66.6551 57.0757 66.4369 57.0757 66.0006C54.6756 66.6551 53.3651 69.2748 50.965 69.9294C51.1832 68.402 50.3104 67.0929 50.5286 65.5642C49.2181 65.7824 49.4363 67.3111 48.3453 67.7475C48.5635 65.1278 47.909 62.0718 45.2893 60.7626C45.473 61.3136 44.7328 61.7099 44.6223 62.2126C44.6306 62.3134 44.6347 62.4129 44.6347 62.5095C44.6002 62.4046 44.6016 62.3065 44.6223 62.2126C44.4966 60.7143 43.4609 58.7989 42.2333 58.7989C41.5787 58.7989 40.4877 60.108 40.0514 61.199C40.0514 59.4535 39.1786 57.9248 38.3044 56.3974C38.0876 57.052 38.7422 57.7066 38.0876 58.1429C36.5589 53.1232 32.4119 48.3216 34.1575 42.8641C35.9044 37.8444 38.3044 33.4792 39.8332 28.2412C40.2792 27.2014 40.9269 25.9599 41.7775 24.9283C41.6394 24.793 41.5027 24.6604 41.3605 24.5292C41.5027 24.6604 41.6394 24.793 41.7775 24.9283C42.1753 24.4436 42.6185 24.0058 43.1074 23.6565C42.6185 24.0058 42.1753 24.4436 41.7775 24.9283C44.0147 27.124 45.7036 29.9025 47.4381 32.5705C48.152 30.8291 49.0676 29.1554 50.055 27.5066C49.1587 27.4334 48.2763 27.3671 47.4726 27.3671C48.2763 27.3671 49.1587 27.4334 50.055 27.5066C50.5645 26.6559 51.0921 25.8107 51.6196 24.967C55.112 19.2913 51.1832 14.2715 45.5075 12.9624C48.3453 12.0882 51.1832 13.8351 53.8029 14.9261C53.1469 11.87 49.8727 10.3427 47.4726 8.814C50.0922 8.15943 52.4923 10.3427 54.4574 11.87C53.5847 10.9973 53.8029 9.90633 53.3651 8.814C54.2392 9.03219 54.4574 10.1245 54.6756 10.1245C58.168 8.59719 62.0969 8.59719 65.5893 9.68814C62.315 9.68814 59.0408 10.5609 56.6393 12.7442C59.9136 12.7442 63.1878 12.3064 66.0257 14.0533C62.9696 14.0533 59.0408 14.0533 57.9499 16.8912C56.6393 20.164 58.8226 24.967 56.8575 26.7125C55.7044 28.0299 52.8127 27.733 50.055 27.5066C49.0676 29.1554 48.152 30.8291 47.4381 32.5705C49.6987 36.0477 52.0366 39.3358 55.7666 40.9004C60.1318 42.8641 65.5893 41.555 70.609 43.0823C71.9182 43.3019 73.4469 42.2095 74.1015 43.3019C78.2485 49.4126 74.3196 55.5247 69.0817 59.0157ZM82.1773 27.5853C81.937 26.8658 81.7961 26.1339 81.7257 25.3965C80.7452 23.3457 79.9111 21.1307 79.4485 18.5276C78.2485 11.7609 74.2106 6.95938 68.4258 4.99567C62.6423 3.03057 55.9848 4.44881 52.8196 8.10557C50.2552 6.19571 42.2333 4.667 36.7771 8.05033C31.321 11.4337 28.5922 15.745 27.8824 21.8018C27.446 23.8746 27.5551 29.2231 26.4642 31.8966C24.6178 35.331 22.6528 41.0164 23.8266 47.6519C24.1097 46.2902 24.4452 44.9604 25.2089 43.7369C25.2089 45.9202 24.5543 48.1034 25.2089 50.2853C26.518 49.4126 27.3922 48.3216 28.7013 47.4475C24.7725 52.6868 26.9558 59.6717 30.8846 64.255C30.8846 63.1641 30.8846 61.8536 30.8846 60.7626C31.7574 64.6914 35.2498 67.7475 34.5952 72.1127C35.468 71.6763 35.2498 70.5853 35.468 69.9294C36.3407 67.3111 36.3407 64.4732 38.7422 62.7263C37.2135 67.0929 37.8681 71.8945 40.9241 75.6051C40.9241 72.1127 40.4877 68.6202 42.671 65.5642C42.4528 70.3657 42.2333 75.3869 45.7257 79.0975C44.8529 76.0415 45.2893 72.9854 46.1634 69.9294C46.1634 74.9505 48.3453 79.5339 49.2181 84.3354C49.2181 83.0263 50.0922 82.3717 50.7468 81.2794C52.7105 77.3506 57.2939 74.9505 58.3862 70.3657C58.168 73.4218 59.259 76.9142 56.8575 79.3157C59.6954 76.696 62.315 73.8582 64.0606 70.3657C63.8424 71.8945 64.4969 73.4218 63.6242 74.9505C65.8075 72.3308 67.3348 69.0566 68.2076 65.7824C68.6439 68.6202 68.6439 71.6763 67.7712 74.5141C71.4818 70.1476 76.2834 66.8747 77.5939 60.9808C77.5939 62.2899 78.0303 63.3823 77.8121 64.6914C80.4304 60.3262 80.4304 54.8687 79.994 49.849C81.7409 52.0322 83.2682 54.4323 83.2682 57.2702C84.7969 53.996 83.9228 50.5035 84.141 47.2293C84.7969 47.8852 84.7969 48.758 85.4515 49.4126C85.2333 46.3565 85.8879 43.3019 84.3592 40.464C85.4515 40.464 85.8879 41.3368 86.5424 42.2095C87.4152 36.7534 83.9228 32.3882 82.1773 27.5853Z" fill="#662518"/>
<path d="M49.4364 7.50485C44.6237 6.17776 39.4328 6.74395 35.2057 9.10675C32.7614 10.8882 30.973 12.9209 29.7578 15.3045C30.8612 13.6432 32.3264 12.2015 34.1575 11.2155C32.8484 12.3064 31.7574 13.6169 31.321 15.3625C34.8135 11.2155 40.0514 8.59718 45.5076 9.03218C43.3257 8.15942 41.3606 8.59718 39.1787 8.81399C42.4529 7.28666 45.9439 7.50485 49.4364 7.50485Z" fill="#83361F"/>
<path d="M32.4121 17.3276C35.9045 15.5807 39.397 13.6169 43.3258 14.0533C41.7971 13.3988 40.0515 14.0533 38.5242 13.8351C40.4879 13.3988 42.2334 12.3064 44.1985 12.5246C40.0971 11.9391 36.3464 13.1018 33.2573 15.542C34.4407 15.0062 35.6532 14.4897 36.9955 14.4897C35.25 15.1443 33.7213 15.7988 32.4121 17.3276Z" fill="#83361F"/>
<path d="M32.1938 52.6868C31.7574 51.1581 32.412 49.4126 31.7574 47.8852C31.1029 49.4126 30.2287 50.7217 29.356 52.0322C29.356 50.7466 29.356 49.4609 29.356 48.1752C27.2017 51.1871 27.6243 54.9861 28.0468 58.5793C28.0468 56.8338 28.265 55.3065 28.9196 53.7778C29.1378 55.3065 30.0105 56.8338 30.8847 58.1429C30.8847 56.3974 30.4483 54.6505 30.6665 52.905C31.3211 54.6505 32.412 56.3974 33.2848 57.9248C33.0666 55.0883 32.6302 52.2504 33.2848 49.4126C32.8484 50.5035 32.6302 51.5959 32.1938 52.6868Z" fill="#83361F"/>
<path d="M40.4877 66.2187C40.4877 64.6914 41.5787 63.6005 41.7969 62.0717C41.1423 63.1641 40.0513 64.0368 39.6149 65.346C39.434 64.4428 39.7019 63.6888 39.9243 62.8368C39.0515 64.592 38.7422 66.6054 38.7422 68.6202C38.7422 67.7475 39.3968 67.0929 39.6149 66.4369C39.3968 68.6202 39.1786 71.0217 40.0513 73.2036C40.0513 69.7112 40.9241 66.2187 42.8892 63.3823C42.2332 64.4732 40.9241 64.9096 40.4877 66.2187Z" fill="#83361F"/>
<path d="M44.8532 68.6202C44.8532 67.3111 45.5078 66.0005 45.9442 64.6914C45.0424 65.5932 44.2484 66.7035 43.6256 67.8773C43.308 69.1809 43.1906 70.5384 43.3259 71.8944C43.5441 71.0217 43.7623 70.3657 44.1987 69.7112C44.1987 71.4581 43.9805 72.9854 44.4169 74.7309C44.4169 71.4581 45.726 68.402 47.2547 65.5642C46.1638 66.4369 45.2896 67.3111 44.8532 68.6202Z" fill="#83361F"/>
<path d="M53.1473 70.3657C52.4927 71.8945 51.6199 73.2036 50.3108 74.2959C50.3108 72.9854 50.3108 71.6763 50.3108 70.3657C50.0926 71.4581 49.2185 72.1126 49.2185 73.2036C49.2185 71.9856 48.6661 70.9057 48.7724 69.7429C48.0129 72.3516 48.5473 74.9602 48.3457 77.5688C48.5639 76.2596 49.0003 75.1687 49.6548 74.0764C49.873 75.8233 49.4367 77.5688 49.2185 79.3157C51.4017 76.4778 54.676 74.0764 55.5487 70.3657C54.676 71.8945 53.3655 72.9854 52.4927 74.2959C52.2745 72.9854 53.1473 71.6763 53.1473 70.3657Z" fill="#83361F"/>
<path d="M61.6609 5.10338C60.1321 5.75933 58.3866 5.97752 57.0761 7.06847C61.2963 6.15152 65.8244 6.31447 69.6248 8.33342C68.1803 7.364 66.7082 6.42081 64.9337 5.97752C69.5848 6.57685 74.0287 8.92999 77.2739 12.3258C75.2908 8.81676 72.2389 6.28962 68.4261 4.99566C64.072 3.51667 59.2221 3.95581 55.7407 5.82285C57.6271 5.16 59.6005 4.82995 61.6609 5.10338Z" fill="#83361F"/>
<path d="M67.7714 10.1245C68.8624 10.3427 69.7365 10.9973 70.3911 11.87C68.6442 11.4337 66.8987 10.9973 64.9336 11.2155C66.3518 11.4999 67.6762 12.0606 68.7906 12.8367C71.9461 14.1141 74.7839 16.4796 76.5032 19.2913C76.5032 17.1094 74.3199 16.017 73.8835 14.0533C74.9745 14.9261 76.0654 15.7988 76.9382 16.673C75.6291 12.9624 71.4821 10.3427 67.7714 10.1245Z" fill="#83361F"/>
<path d="M74.3197 23.6565C72.5728 21.2564 71.2637 18.2003 68.4258 16.8912C69.0818 18.2003 69.7364 19.5095 70.1727 20.82C68.7987 19.0537 66.719 18.5235 64.5688 18.4337C68.8526 20.5258 71.4819 25.1465 71.4819 29.7685C71.4819 28.6776 71.7001 27.8048 71.9183 26.7125C72.3546 30.4231 73.6652 34.1337 75.4107 37.408C74.5379 34.1337 74.7561 30.8595 74.7561 27.5853C75.8471 29.3322 75.8471 31.5141 75.8471 33.4792C76.503 28.6776 77.1576 23.2201 73.6652 19.5095C73.6652 20.82 74.5379 22.1291 74.3197 23.6565Z" fill="#83361F"/>
<path d="M71.482 59.6717C71.0456 61.199 70.391 62.7263 70.1728 64.255C70.0651 63.8256 69.9063 63.3975 69.7447 62.9694C69.7724 65.2162 69.8 67.4644 68.8623 69.7112C69.7364 67.9656 70.6092 66.4369 71.2638 64.6914C71.2638 66.0006 71.2638 67.5293 70.6092 68.8384C72.3547 65.7824 74.538 62.7263 74.538 59.0157C73.8834 60.9808 73.0093 62.7263 71.9183 64.4732C71.7002 62.9445 71.482 61.199 71.482 59.6717Z" fill="#83361F"/>
<path d="M61.0061 68.402C61.0061 69.493 60.3502 70.3657 60.3502 71.2399C60.0643 70.8104 60.0588 70.3823 59.9663 69.9528C60.0063 71.784 59.6044 73.477 59.041 75.1687C59.9138 74.0764 60.3502 72.7672 61.0061 71.4581C61.2229 72.7672 60.5683 73.64 60.132 74.7309C61.4411 72.7672 62.0971 70.5853 62.3153 68.1838C62.0971 69.0566 61.6607 69.7112 61.4411 70.5853C61.2229 69.9294 61.0061 69.0566 61.0061 68.402Z" fill="#83361F"/>
<path d="M34.1578 33.9155C35.2501 28.8958 36.341 22.5655 41.3608 20.164C38.5243 20.6018 36.341 23.0019 35.2501 25.4034C36.1229 23.0019 37.432 20.6018 39.8335 19.5095C37.432 20.3836 34.8137 21.6928 33.7214 24.0942C34.1578 20.82 37.2138 19.0731 40.0517 17.7639C38.418 18.308 36.5302 18.6823 35.0236 19.5758C32.3874 22.0145 31.574 26.1104 32.1941 29.9867C32.1941 28.8958 32.6304 27.8048 32.8486 26.7125C32.4122 31.0777 32.8486 35.4429 31.3213 39.5913C34.166 37.5585 35.1189 34.2 35.942 30.9286C35.547 32.0388 34.7019 32.8274 34.1578 33.9155Z" fill="#83361F"/>
<path d="M35.9419 30.9285C36.022 30.7021 36.0855 30.4632 36.1228 30.2049C36.0634 30.4452 36.0027 30.6869 35.9419 30.9285Z" fill="#83361F"/>
<path d="M37.4924 70.827L37.5435 71.2247C38.0863 75.4145 40.4104 77.2028 43.1654 78.9511C46.053 80.7823 48.8729 85.7219 49.939 89.4201C50.8214 86.9316 52.6152 84.5799 54.5361 82.1936L54.7599 81.9146L54.7295 82.2709C54.6273 83.453 54.7184 85.8821 55.3675 87.6484C56.2306 84.8091 58.8005 82.8772 61.0777 81.1648C62.489 80.1042 63.823 79.103 64.6268 77.9969L64.8408 77.7027L64.8242 78.0646C64.7787 79.132 64.9319 80.5061 65.2123 81.6039C66.1278 78.8627 68.0584 77.3382 70.656 75.5153C70.9101 75.3372 71.2028 75.1397 71.5287 74.9215C74.4743 72.9426 79.9581 69.2596 82.1966 61.9599L82.2712 61.7155L82.3954 61.9392C82.876 62.8009 83.4256 64.0327 83.6424 64.8958C85.1532 62.1339 88.5559 53.5872 87.7328 46.9158L87.7024 46.6783L87.9013 46.8122C88.2755 47.0636 88.5324 47.3964 88.6788 47.6215C89.0972 45.4023 88.7257 40.116 86.5507 34.9402C85.7484 33.029 84.7513 31.2434 83.7874 29.5172C81.9853 26.2913 80.1238 22.9549 79.3408 18.5469C78.1739 11.9667 74.1829 7.06571 68.3912 5.09786C66.6719 4.51371 64.856 4.21819 62.9931 4.21819C58.8199 4.21819 55.0485 5.69857 52.9025 8.17738L52.8362 8.25333L52.7547 8.19257C51.4401 7.21347 48.3246 6.15981 44.5919 6.15981C42.5136 6.15981 39.4796 6.50366 36.8351 8.14285C31.4342 11.4917 28.7068 15.7077 27.9915 21.8143C27.8341 22.5641 27.7485 23.7145 27.6504 25.0471C27.4806 27.3477 27.2693 30.2118 26.565 31.938C24.8595 35.1128 21.3643 43.5173 25.6356 53.1881L25.6467 53.2102L25.6453 53.2337C25.5431 58.7658 27.8106 61.4393 30.0036 64.0244L30.3861 64.476C33.0154 67.5997 35.3837 71.3214 33.1369 75.3054C34.5289 74.9767 36.3504 73.5129 37.335 71.1971L37.4924 70.827ZM49.9182 90.1824L49.823 89.8206C48.8494 86.1307 45.9825 80.9963 43.048 79.1348C40.3289 77.4086 38.0227 75.6437 37.382 71.6252C36.2758 73.9438 34.3439 75.3565 32.9381 75.5664L32.7075 75.6009L32.8276 75.4035C35.2097 71.4567 32.8455 67.735 30.219 64.6169L29.8378 64.1653C27.6214 61.5539 25.3304 58.8514 25.4271 53.2544C21.1309 43.5049 24.6524 35.0355 26.3675 31.8455C27.0552 30.1607 27.2651 27.316 27.4322 25.0319C27.5316 23.691 27.6173 22.5337 27.7761 21.7784C28.4983 15.611 31.2575 11.3453 36.7191 7.95781C39.4078 6.291 42.4846 5.94162 44.5919 5.94162C48.2998 5.94162 51.4166 6.97595 52.8031 7.95781C55.0001 5.47762 58.8005 4 62.9931 4C64.8795 4 66.7189 4.29967 68.4617 4.89209C74.3307 6.88481 78.3741 11.8479 79.5562 18.5083C80.3323 22.8804 82.1855 26.2002 83.978 29.4109C84.9447 31.1426 85.9445 32.9337 86.7523 34.856C89.0406 40.3038 89.3458 45.8884 88.8307 47.9474L88.7575 48.2443L88.6263 47.9681C88.6235 47.9626 88.4067 47.511 87.9786 47.1437C88.7161 54.0498 85.109 62.8106 83.6908 65.2548L83.5403 65.5145L83.4878 65.2189C83.3566 64.4594 82.8153 63.1889 82.3278 62.2706C80.0216 69.4792 74.5848 73.1318 71.6503 75.1024C71.3257 75.3192 71.0344 75.5167 70.7803 75.6948C68.1109 77.5688 66.1555 79.1196 65.3117 82.0196L65.2081 82.3745L65.1018 82.021C64.7842 80.9618 64.5908 79.5477 64.5978 78.3918C63.7664 79.4179 62.5208 80.3542 61.2089 81.3402C58.8765 83.0926 56.2333 85.0798 55.4904 88.0184L55.4103 88.3333L55.2846 88.0336C54.5776 86.3696 54.4243 83.9681 54.4892 82.601C52.5793 84.9859 50.8255 87.3404 50.0315 89.8261L49.9182 90.1824Z" fill="#221411"/>
<path d="M24.0476 49.2137C23.9771 41.3989 29.2303 38.3249 29.2828 38.2959C29.2828 38.2959 24.1953 41.5315 24.2658 49.211L24.0476 49.2137Z" fill="#221411"/>
<path d="M25.644 53.8192L25.4258 53.8082C25.6426 49.3297 29.5976 46.9559 29.5976 46.9559C29.5603 46.9807 25.8553 49.454 25.644 53.8192Z" fill="#221411"/>
<path d="M37.4265 71.8834C36.5869 66.7159 38.1501 63.791 38.1501 63.791C38.1363 63.8186 36.8134 66.7532 37.6419 71.8489L37.4265 71.8834Z" fill="#221411"/>
<path d="M43.9308 79.7866C38.7619 70.4279 43.9169 64.6541 43.9169 64.6541C43.8672 64.7107 39.0298 70.461 44.1227 79.6803L43.9308 79.7866Z" fill="#221411"/>
<path d="M49.7225 89.4477C49.5181 86.4151 48.8248 84.3631 48.0902 82.1908C47.3555 80.0186 46.5974 77.7732 46.1996 74.3084C45.5782 68.8771 47.7739 66.6165 47.7739 66.6165C47.7532 66.6399 45.8075 68.9585 46.4165 74.2835C46.8114 77.7248 47.5668 79.9592 48.2973 82.1204C49.0361 84.3064 49.7335 86.3723 49.9393 89.4325L49.7225 89.4477Z" fill="#221411"/>
<path d="M54.7078 82.3289L54.5352 82.195C59.3146 76.018 58.8575 70.8601 58.8575 70.8601C58.8658 70.9112 59.548 76.0732 54.7078 82.3289Z" fill="#221411"/>
<path d="M64.8064 78.1225L64.6255 77.9983C68.6302 72.19 67.9522 65.6208 67.9522 65.6208C67.9619 65.6871 68.8581 72.2438 64.8064 78.1225Z" fill="#221411"/>
<path d="M82.2492 62.5081L82.0421 62.4405C83.6509 57.487 81.1596 52.6399 81.1348 52.5915C81.1348 52.5915 83.887 57.4677 82.2492 62.5081Z" fill="#221411"/>
<path d="M32.0405 22.4827C30.1928 20.8559 27.3757 19.5371 24.7726 21.0382C21.5536 22.8928 21.6627 27.0398 22.9166 29.9867C24.1014 32.768 27.424 35.9345 31.0517 34.5397C31.0269 34.1821 30.991 33.8106 30.9385 33.4239C30.3392 29.0049 30.8598 25.4821 32.0405 22.4827Z" fill="#E57917"/>
<path d="M32.0406 22.4827C30.1929 20.8559 27.3758 19.5371 24.7727 21.0382C22.095 22.5807 21.7208 25.7086 22.3919 28.4125C22.9871 29.4454 23.7646 30.274 24.7727 30.6413C26.5693 31.3608 28.7609 31.6826 30.7329 31.2876C30.534 27.8463 31.0574 24.9822 32.0406 22.4827Z" fill="#F3A821"/>
<path d="M26.0819 21.9109C28.0387 21.6499 29.9941 22.4026 31.625 23.6551C31.7535 23.256 31.8902 22.8638 32.0407 22.4827C30.193 20.8559 27.3759 19.5371 24.7728 21.0382C22.4403 22.3818 21.8562 24.9283 22.1876 27.3505C23.0797 24.9974 22.9927 22.0932 26.0819 21.9109Z" fill="#FADB99"/>
<path d="M27.2087 20.4899C26.3677 20.4899 25.5668 20.7054 24.8279 21.1321C21.7581 22.9011 21.7388 26.939 23.0175 29.9439C24.0394 32.3426 26.5099 34.7703 29.2553 34.7703C29.2553 34.7703 29.2553 34.7703 29.2567 34.7703C29.8215 34.7703 30.3863 34.6682 30.9373 34.4665C30.9124 34.1213 30.8765 33.7761 30.8309 33.4391C30.2786 29.3777 30.6321 25.8025 31.9108 22.5144C31.0118 21.7342 29.2539 20.4899 27.2087 20.4899ZM29.2567 34.9885C29.2553 34.9885 29.2553 34.9885 29.2553 34.9885C26.4147 34.9885 23.8668 32.4945 22.8173 30.0295C21.5012 26.939 21.5344 22.7782 24.7188 20.9429C25.4922 20.4968 26.329 20.2717 27.2087 20.2717C29.3699 20.2717 31.2093 21.6057 32.1125 22.4012L32.1705 22.4509L32.1428 22.5227C30.8544 25.7955 30.4967 29.357 31.0464 33.4101C31.0975 33.7788 31.1347 34.1558 31.1596 34.5328L31.1651 34.6129L31.0906 34.6419C30.4912 34.8725 29.8739 34.9885 29.2567 34.9885Z" fill="#843B1B"/>
<path d="M30.8422 27.2676C29.4971 26.1532 27.7765 25.3302 26.5184 25.8397C24.5008 26.6586 26.2077 30.1511 27.5362 31.405C28.4117 32.2322 29.7512 32.536 30.8284 32.4918C30.6336 30.5902 30.6516 28.8599 30.8422 27.2676Z" fill="#A1421E"/>
<path d="M30.2288 29.114C30.0106 28.4594 29.356 27.8048 28.7015 27.3671C27.8287 27.1489 26.9559 27.1489 26.5182 28.0216C26.3787 28.5146 26.2834 29.0739 26.2627 29.6429C26.6342 30.3541 27.1051 30.9976 27.5359 31.405C28.4115 32.2322 29.751 32.536 30.8281 32.4918C30.7549 31.7764 30.7121 31.0846 30.6955 30.4162C30.5423 29.9867 30.3931 29.5504 30.2288 29.114Z" fill="#DB671B"/>
<path d="M27.3564 25.7942C27.0678 25.7942 26.7999 25.8439 26.5596 25.9405C26.1039 26.1256 25.8263 26.4681 25.7338 26.9597C25.4769 28.3241 26.6549 30.4217 27.6119 31.3263C28.3148 31.9905 29.4416 32.3868 30.6265 32.3868C30.6541 32.3868 30.6803 32.3868 30.708 32.3868C30.534 30.6164 30.5395 28.911 30.7259 27.3132C29.5466 26.3479 28.3217 25.7942 27.3564 25.7942ZM30.6265 32.605C29.3878 32.605 28.2043 32.1866 27.4613 31.4851C26.4684 30.5474 25.2491 28.3558 25.5197 26.9196C25.6261 26.3507 25.9492 25.953 26.4781 25.7389C26.7432 25.6312 27.0388 25.576 27.3564 25.576C28.3838 25.576 29.6791 26.1615 30.9123 27.1834L30.9579 27.2221L30.951 27.2801C30.7549 28.9137 30.7494 30.6634 30.9372 32.4807L30.9496 32.5967L30.8322 32.6009C30.7646 32.6036 30.6955 32.605 30.6265 32.605Z" fill="#843B1B"/>
<path d="M30.2163 40.5151C30.2163 40.5151 31.4191 37.7684 30.8308 33.4391C30.2743 29.3474 30.6375 25.75 31.9397 22.4426C33.2392 19.1394 36.0039 18.0816 36.0039 18.0816C35.979 18.0926 33.4091 19.3051 32.1427 22.5227C30.8543 25.7956 30.4966 29.3556 31.0463 33.4101C31.6456 37.814 30.2301 40.4889 30.2163 40.5151Z" fill="#221411"/>
<path d="M77.7363 22.5904C79.5854 20.9636 82.4012 19.6462 85.0043 21.1459C88.2247 23.0005 88.1156 27.1475 86.8603 30.0945C85.6754 32.8757 82.3528 36.0422 78.7265 34.6474C78.7499 34.2898 78.7859 33.9183 78.8383 33.5316C79.439 29.1126 78.917 25.5912 77.7363 22.5904Z" fill="#E57917"/>
<path d="M77.7363 22.5904C79.5854 20.9636 82.4012 19.6462 85.0043 21.1459C87.6819 22.6884 88.0562 25.8163 87.385 28.5202C86.7898 29.5531 86.0137 30.3831 85.0043 30.749C83.2077 31.4685 81.0175 31.7903 79.0441 31.3953C79.2443 27.954 78.7196 25.0899 77.7363 22.5904Z" fill="#F3A821"/>
<path d="M83.6951 22.0187C81.7383 21.7577 79.7829 22.5103 78.1534 23.7628C78.0249 23.3637 77.8869 22.9729 77.7363 22.5904C79.5854 20.9636 82.4012 19.6462 85.0043 21.1459C87.3367 22.4896 87.9222 25.0374 87.5894 27.4596C86.6973 25.1051 86.7843 22.2009 83.6951 22.0187Z" fill="#FADB99"/>
<path d="M77.8661 22.6221C79.1448 25.9115 79.4983 29.4854 78.9473 33.5468C78.9004 33.8838 78.8659 34.2304 78.841 34.5743C79.3906 34.7759 79.9568 34.8794 80.5216 34.8794C83.267 34.8781 85.7389 32.4503 86.7594 30.0516C88.0395 27.0481 88.0188 23.0088 84.9503 21.2398C84.2102 20.8131 83.4092 20.5976 82.5696 20.5976C80.523 20.5976 78.7651 21.8433 77.8661 22.6221ZM78.6863 34.7496L78.6118 34.7206L78.6173 34.6405C78.6422 34.2635 78.6808 33.8865 78.7305 33.5178C79.2802 29.4647 78.9225 25.9033 77.6341 22.6304L77.6064 22.5586L77.6644 22.5089C78.5676 21.7135 80.407 20.3795 82.5696 20.3795C83.4479 20.3795 84.2861 20.6059 85.0594 21.0506C88.2425 22.8859 88.2771 27.0467 86.961 30.1373C85.9101 32.6023 83.3622 35.0976 80.5216 35.0976C79.903 35.0976 79.2871 34.9803 78.6863 34.7496Z" fill="#843B1B"/>
<path d="M78.9351 27.3754C80.2801 26.2609 82.0022 25.4379 83.2588 25.9475C85.2778 26.7664 83.5695 30.2588 82.2411 31.5127C81.3655 32.3399 80.0274 32.6437 78.9489 32.5995C79.145 30.6979 79.127 28.9676 78.9351 27.3754Z" fill="#A1421E"/>
<path d="M79.5481 29.2217C79.7663 28.5671 80.4208 27.9125 81.0754 27.4748C81.9482 27.2566 82.8223 27.2566 83.2587 28.1307C83.3995 28.6224 83.4934 29.1816 83.5142 29.7506C83.1427 30.4618 82.6718 31.1053 82.2409 31.5127C81.3654 32.3399 80.0273 32.6437 78.9487 32.5995C79.0219 31.8842 79.0661 31.1923 79.0813 30.5239C79.2346 30.0945 79.3837 29.6581 79.5481 29.2217Z" fill="#DB671B"/>
<path d="M79.0509 27.4223C79.2374 29.0187 79.2443 30.7242 79.0689 32.4945C79.0965 32.4945 79.1241 32.4945 79.1517 32.4945C80.3352 32.4945 81.4621 32.0982 82.1664 31.434C83.1234 30.5308 84.2999 28.4318 84.0431 27.0674C83.9505 26.5758 83.673 26.2333 83.2173 26.0483C82.9784 25.9516 82.7105 25.9019 82.4205 25.9019C81.4565 25.9019 80.2303 26.4556 79.0509 27.4223ZM78.9446 32.7086L78.8286 32.7044L78.8396 32.5884C79.0275 30.7711 79.0233 29.0214 78.8272 27.3878L78.8203 27.3298L78.8659 27.2911C80.0977 26.2692 81.3944 25.6837 82.4205 25.6837C82.7381 25.6837 83.0336 25.7389 83.3001 25.8466C83.829 26.0607 84.1508 26.4584 84.2585 27.0274C84.5278 28.4635 83.3098 30.6551 82.3155 31.5928C81.5725 32.2943 80.3905 32.7127 79.1517 32.7127C79.0813 32.7127 79.0123 32.7113 78.9446 32.7086Z" fill="#843B1B"/>
<path d="M79.5605 40.6242C79.5605 40.6242 78.3591 37.8761 78.9474 33.5468C79.5025 29.4564 79.1393 25.8591 77.8385 22.5503C76.5376 19.2485 73.7729 18.1893 73.7729 18.1893C73.7992 18.2017 76.3691 19.4128 77.6341 22.6304C78.9225 25.9033 79.2802 29.4647 78.7306 33.5178C78.1326 37.9217 79.5467 40.5966 79.5605 40.6242Z" fill="#221411"/>
<path d="M54.1608 21.6389L53.973 21.527C56.1079 17.931 55.4105 10.3275 52.748 8.1898L52.8848 8.01994C55.6108 10.2088 56.3385 17.9725 54.1608 21.6389Z" fill="#221411"/>
<path d="M54.9659 11.7817L54.8223 11.6173C59.3283 7.69404 65.9223 9.76685 65.9223 9.76685C65.8574 9.74752 59.3808 7.93709 54.9659 11.7817Z" fill="#221411"/>
<path d="M55.4173 15.4232L55.2861 15.2492C59.2605 12.2774 65.8987 14.0423 65.8987 14.0423C65.8325 14.0271 59.3075 12.5136 55.4173 15.4232Z" fill="#221411"/>
<path d="M55.2515 15.3804C52.6498 9.52104 47.5775 9.07223 47.5278 9.06947C47.5278 9.06947 52.7934 9.30838 55.4503 15.292L55.2515 15.3804Z" fill="#221411"/>
<path d="M54.7917 19.5799C52.5435 12.9665 45.1969 12.9651 45.1182 12.9624C45.1182 12.9624 52.6996 12.7442 54.9975 19.5095L54.7917 19.5799Z" fill="#221411"/>
<path d="M72.4831 37.2436C70.9005 34.6254 71.1187 33.6974 70.7362 29.7685C70.3537 25.8397 68.6082 22.4923 65.4071 20.5617C62.3027 18.6906 56.7361 19.8354 54.876 20.57C53.0145 19.8354 47.4479 18.6906 44.3449 20.5617C41.1424 22.4923 39.3969 25.8397 39.0144 29.7685C38.6332 33.6974 38.8514 34.6254 37.2689 37.2436C34.7583 41.555 33.5582 45.2103 35.0317 50.0671C36.5052 54.924 41.3606 57.8157 46.7629 58.6346C47.5266 60.3262 62.224 60.3262 62.9877 58.6346C68.39 57.8157 73.2468 54.924 74.7203 50.0671C76.1937 45.2103 74.9923 41.555 72.4831 37.2436Z" fill="#E57917"/>
<path d="M42.0152 54.4323C51.6197 56.1792 61.8788 57.9248 70.6092 52.6868C73.795 50.7466 74.8708 47.4005 75.1746 43.8736C74.7893 41.6627 73.8226 39.5471 72.4831 37.2436C70.9005 34.6254 71.1187 33.6974 70.7362 29.7685C70.3537 25.8397 68.6082 22.4923 65.4071 20.5617C62.3027 18.6906 56.7361 19.8354 54.876 20.57C53.0145 19.8354 47.4478 18.6906 44.3448 20.5617C41.1424 22.4923 39.3969 25.8397 39.0144 29.7685C38.6332 33.6974 38.8514 34.6254 37.2689 37.2436C35.0372 41.0772 33.8413 44.3942 34.6395 48.4956C36.1379 51.4868 38.5449 53.8993 42.0152 54.4323Z" fill="#F3A821"/>
<path d="M48.8814 19.6531C47.0102 19.6531 45.5022 19.9914 44.4002 20.6557C41.3925 22.4688 39.5185 25.7086 39.1236 29.7796C39.0559 30.4715 39.0076 31.0722 38.9634 31.6025C38.7618 34.0909 38.6789 35.1211 37.3615 37.3003C34.891 41.5453 33.655 45.1565 35.1354 50.0354C36.4749 54.4503 40.8277 57.6251 46.7796 58.5269L46.8389 58.5351L46.8624 58.589C47.1773 59.2878 50.5482 59.7946 54.8761 59.7946C59.204 59.7946 62.5735 59.2878 62.8884 58.589L62.9132 58.5351L62.9712 58.5269C68.9231 57.6251 73.2759 54.4503 74.6154 50.0354C76.0958 45.1565 74.8598 41.5453 72.3879 37.2989C71.0733 35.1211 70.989 34.0909 70.7874 31.6025C70.7446 31.0722 70.6949 30.4715 70.6272 29.7796C70.2323 25.7086 68.3583 22.4688 65.3506 20.6557C64.2486 19.9914 62.7406 19.6531 60.8694 19.6531C58.392 19.6531 55.9518 20.2621 54.9161 20.6708L54.8761 20.6874L54.836 20.6708C53.7989 20.2621 51.3588 19.6531 48.8814 19.6531ZM54.8761 60.0128C51.4306 60.0128 47.267 59.6758 46.6926 58.734C40.684 57.8088 36.2871 54.5829 34.9269 50.0989C33.4244 45.1441 34.6728 41.4859 37.1737 37.1898C38.4649 35.0534 38.5477 34.0384 38.7466 31.5859C38.7894 31.0542 38.8391 30.4521 38.9068 29.7575C39.3086 25.6174 41.2199 22.3197 44.2883 20.4692C45.4249 19.7829 46.9701 19.4349 48.8814 19.4349C51.3574 19.4349 53.8017 20.0384 54.8761 20.4527C55.9491 20.0384 58.3934 19.4349 60.8694 19.4349C62.7806 19.4349 64.3259 19.7829 65.4638 20.4692C68.5309 22.3197 70.4422 25.6174 70.8454 29.7575C70.9131 30.4521 70.9614 31.0542 71.0042 31.5859C71.2031 34.0384 71.2859 35.0534 72.5757 37.1884C75.0794 41.4859 76.3278 45.1441 74.8239 50.0989C73.4637 54.5829 69.0681 57.8088 63.0582 58.734C62.4837 59.6758 58.3202 60.0128 54.8761 60.0128Z" fill="#843B1B"/>
<path d="M39.8653 37.2947C41.6274 39.8371 46.36 39.9945 47.984 38.5859C48.847 35.3379 50.152 25.3288 45.7261 25.1299C41.3733 24.9352 39.208 33.9293 39.8653 37.2947Z" fill="#FCDB8C"/>
<path d="M69.8868 37.3293C68.1248 39.873 63.3909 40.029 61.7669 38.6204C60.9038 35.3725 59.7728 27.0218 64.1973 26.8244C68.5515 26.6283 70.5428 33.9639 69.8868 37.3293Z" fill="#FCDB8C"/>
<path d="M40.7615 37.9535C42.1521 39.7266 45.8904 39.8357 47.1733 38.8538C47.8554 36.5891 48.2117 32.4448 44.7179 32.3054C41.2794 32.17 40.2423 35.6072 40.7615 37.9535Z" fill="#CFCBCA"/>
<path d="M44.6349 38.0625C46.0987 37.4121 47.1966 36.1568 47.4825 34.6557C47.1966 33.3797 46.4081 32.373 44.7178 32.3054C41.4132 32.1742 40.3278 35.3434 40.7075 37.6731C41.873 38.4133 43.254 38.5804 44.6349 38.0625Z" fill="white"/>
<path d="M40.8624 37.9051C41.7213 38.9795 43.413 39.3634 44.7138 39.3634C45.7054 39.3634 46.585 39.1493 47.078 38.7875C47.5904 37.0682 47.7989 34.7772 46.8626 33.4626C46.3944 32.8053 45.6708 32.4531 44.7125 32.4144C43.4599 32.3647 42.4339 32.8053 41.7282 33.6849C40.8762 34.7455 40.5378 36.3999 40.8624 37.9051ZM44.7138 39.5816C43.3536 39.5816 41.5777 39.1714 40.6759 38.0211L40.6552 37.9769C40.3072 36.4026 40.6621 34.664 41.5584 33.5468C42.3082 32.6133 43.3936 32.1465 44.7221 32.1963C45.7495 32.2377 46.5298 32.6216 47.0407 33.3369C48.0295 34.7234 47.8113 37.1124 47.2769 38.8856L47.2672 38.9187L47.2396 38.9408C46.7148 39.3413 45.7703 39.5816 44.7138 39.5816Z" fill="#221411"/>
<path d="M46.723 36.7396C46.723 38.0501 45.8309 39.1134 44.7289 39.1134C43.6269 39.1134 42.7334 38.0501 42.7334 36.7396C42.7334 35.4291 43.6269 34.3657 44.7289 34.3657C45.8309 34.3657 46.723 35.4291 46.723 36.7396Z" fill="#235282"/>
<path d="M46.723 36.7396C46.723 38.0501 45.8309 39.1134 44.7289 39.1134C43.6269 39.1134 42.7334 38.0501 42.7334 36.7396C43.5302 38.0073 45.9317 37.9258 46.723 36.7396Z" fill="#599BDA"/>
<path d="M45.726 36.7396C45.726 37.3955 45.28 37.9258 44.729 37.9258C44.178 37.9258 43.7319 37.3955 43.7319 36.7396C43.7319 36.0836 44.178 35.5533 44.729 35.5533C45.28 35.5533 45.726 36.0836 45.726 36.7396Z" fill="#131516"/>
<path d="M45.0093 35.8875C45.0093 36.3073 44.7235 36.6471 44.3699 36.6471C44.0178 36.6471 43.7319 36.3073 43.7319 35.8875C43.7319 35.4677 44.0178 35.1266 44.3699 35.1266C44.7235 35.1266 45.0093 35.4677 45.0093 35.8875Z" fill="white"/>
<path d="M44.1267 37.0586C44.1267 37.2685 43.9831 37.4397 43.8077 37.4397C43.6309 37.4397 43.4873 37.2685 43.4873 37.0586C43.4873 36.8487 43.6309 36.6788 43.8077 36.6788C43.9831 36.6788 44.1267 36.8487 44.1267 37.0586Z" fill="white"/>
<path d="M44.7286 34.4748C43.6887 34.4748 42.8422 35.4898 42.8422 36.7396C42.8422 37.988 43.6887 39.0043 44.7286 39.0043C45.7684 39.0043 46.6136 37.988 46.6136 36.7396C46.6136 35.4898 45.7684 34.4748 44.7286 34.4748ZM44.7286 39.2225C43.5686 39.2225 42.624 38.1081 42.624 36.7396C42.624 35.3697 43.5686 34.2566 44.7286 34.2566C45.8886 34.2566 46.8318 35.3697 46.8318 36.7396C46.8318 38.1081 45.8886 39.2225 44.7286 39.2225Z" fill="#1D2F55"/>
<path d="M41.061 30.0143C42.616 28.0769 45.0437 25.5401 47.8277 27.8587C48.0735 26.9859 47.3637 25.1852 45.7259 25.1299C44.0895 25.0761 41.5527 27.0674 41.061 30.0143Z" fill="#662518"/>
<path d="M45.6596 25.2377C44.2303 25.2377 41.902 26.9252 41.2558 29.6028C42.3895 28.2426 43.8602 26.8244 45.5533 26.8244C46.3017 26.8244 47.0419 27.1047 47.7545 27.6598C47.8042 27.2373 47.6689 26.6145 47.285 26.0897C47.0116 25.7155 46.5199 25.2653 45.7231 25.239L45.6596 25.2377ZM40.8843 30.4079L40.9533 29.9964C41.4201 27.1931 43.8671 25.0208 45.6596 25.0208C45.6831 25.0208 45.7066 25.0208 45.73 25.0208C46.4205 25.0443 47.035 25.3771 47.4617 25.9599C47.8926 26.5496 48.0859 27.3422 47.9327 27.8877L47.8871 28.0506L47.7573 27.9429C47.0406 27.345 46.299 27.0426 45.5533 27.0426C43.8105 27.0426 42.2818 28.6666 41.1467 30.082L40.8843 30.4079Z" fill="#221411"/>
<path d="M48.5706 45.7641C46.629 42.1212 50.0717 36.8998 50.2195 36.6788C50.2195 36.6788 46.8831 42.1336 48.7639 45.6605L48.5706 45.7641Z" fill="#843B1B"/>
<path d="M65.407 48.6848C63.5095 44.7933 59.0366 45.5155 54.8758 45.9782C50.715 45.5155 46.2421 44.7933 44.3447 48.6848C42.1973 53.0873 45.872 56.3974 46.7627 58.6346C47.5264 60.3262 48.018 62.243 49.1642 63.617C50.1544 64.8047 52.4564 65.6222 54.8758 65.6208C57.2939 65.6194 59.5973 64.8047 60.5861 63.617C61.7322 62.243 62.2239 60.3262 62.9875 58.6346C63.8796 56.3974 67.553 53.0873 65.407 48.6848Z" fill="#EBAE5C"/>
<path d="M46.6 57.052C47.2118 58.8873 48.4905 61.2625 50.0924 62.5095C53.0615 64.8185 57.1864 64.2398 59.4787 62.2181C62.0584 59.9409 62.2172 57.0548 64.9294 55.2747C65.9306 53.4463 67.1555 51.8334 66.0203 49.2137C63.9199 44.3693 59.0368 45.5155 54.876 45.9782C50.7152 45.5155 45.8888 44.223 43.2705 49.7564C42.0774 52.278 43.7884 53.3441 44.7523 55.1477C45.5878 55.6462 46.2907 56.2262 46.6 57.052Z" fill="#FCDB8C"/>
<path d="M62.8885 58.589C62.6634 59.0889 62.4576 59.6164 62.2601 60.126C61.7879 61.3385 61.3004 62.591 60.5036 63.548C59.5245 64.7204 57.2639 65.5103 54.8762 65.5117L54.8679 65.6208V65.5117C52.4858 65.5117 50.2279 64.7218 49.2488 63.548C48.4506 62.591 47.9632 61.3385 47.4923 60.126C47.2934 59.6164 47.089 59.0889 46.8653 58.5945C46.6747 58.1181 46.3571 57.5878 46.0063 57.0271C46.0561 57.2508 46.1058 57.4718 46.1555 57.6914C46.3613 58.0407 46.5422 58.3736 46.6637 58.6801C46.8874 59.1745 47.0918 59.6979 47.2879 60.2047C47.7657 61.4337 48.2601 62.7042 49.0803 63.6875C50.0995 64.9082 52.425 65.7299 54.8679 65.7299H54.8762C57.3246 65.7285 59.6543 64.9068 60.6707 63.6875C61.491 62.7042 61.9853 61.4337 62.4631 60.2047C62.6606 59.6979 62.8636 59.1745 63.0901 58.6746C63.1536 58.5144 63.2365 58.3446 63.3276 58.1692C63.311 58.0421 63.2972 57.9165 63.2876 57.7894C63.1288 58.0684 62.9893 58.3377 62.8885 58.589Z" fill="#9D6E35"/>
<path d="M68.9906 37.9535C67.5986 39.7266 63.8603 39.8357 62.5788 38.8538C61.8966 36.5891 61.539 32.4448 65.0342 32.3054C68.4713 32.17 69.5084 35.6072 68.9906 37.9535Z" fill="#CFCBCA"/>
<path d="M68.597 34.3961C67.9963 33.1602 66.8501 32.2335 65.0342 32.3054C61.539 32.4448 61.8966 36.5891 62.5788 38.8538C62.768 38.9988 63.0124 39.1204 63.2942 39.2156C64.3685 38.9201 65.3711 38.4271 66.2439 37.8444C67.4784 37.2271 68.4934 35.8461 68.597 34.3961Z" fill="white"/>
<path d="M62.6728 38.7875C63.1658 39.1493 64.0455 39.3634 65.0384 39.3634C66.3393 39.3634 68.0295 38.9795 68.8885 37.9051C69.2144 36.3999 68.8747 34.7455 68.0226 33.6849C67.3529 32.8508 66.3876 32.4103 65.2303 32.4103C65.1682 32.4103 65.1033 32.4117 65.0384 32.4144C64.08 32.4531 63.3578 32.8053 62.8883 33.4626C61.952 34.7773 62.1605 37.0682 62.6728 38.7875ZM65.0384 39.5816C63.9806 39.5816 63.036 39.3413 62.5126 38.9408L62.4836 38.9187L62.474 38.8856C61.9395 37.1124 61.7214 34.7234 62.7115 33.3369C63.2211 32.6216 64.0013 32.2377 65.0301 32.1963C66.3558 32.1438 67.4426 32.6133 68.1925 33.5468C69.0901 34.664 69.445 36.4026 69.097 37.9769L69.0763 38.0211C68.1732 39.1714 66.3986 39.5816 65.0384 39.5816Z" fill="#221411"/>
<path d="M67.0174 36.7396C67.0174 38.0501 66.1239 39.1134 65.0219 39.1134C63.9213 39.1134 63.0278 38.0501 63.0278 36.7396C63.0278 35.4291 63.9213 34.3657 65.0219 34.3657C66.1239 34.3657 67.0174 35.4291 67.0174 36.7396Z" fill="#235282"/>
<path d="M67.0174 36.7396C67.0174 38.0501 66.1239 39.1134 65.0219 39.1134C63.9213 39.1134 63.0278 38.0501 63.0278 36.7396C63.8246 38.0073 66.2247 37.9258 67.0174 36.7396Z" fill="#599BDA"/>
<path d="M66.0204 36.7396C66.0204 37.3955 65.5729 37.9258 65.0219 37.9258C64.4723 37.9258 64.0249 37.3955 64.0249 36.7396C64.0249 36.0836 64.4723 35.5533 65.0219 35.5533C65.5729 35.5533 66.0204 36.0836 66.0204 36.7396Z" fill="#131516"/>
<path d="M65.3037 35.8875C65.3037 36.3073 65.0178 36.6471 64.6643 36.6471C64.3108 36.6471 64.0249 36.3073 64.0249 35.8875C64.0249 35.4677 64.3108 35.1266 64.6643 35.1266C65.0178 35.1266 65.3037 35.4677 65.3037 35.8875Z" fill="white"/>
<path d="M64.4197 37.0586C64.4197 37.2685 64.2775 37.4397 64.1007 37.4397C63.9254 37.4397 63.7817 37.2685 63.7817 37.0586C63.7817 36.8487 63.9254 36.6788 64.1007 36.6788C64.2775 36.6788 64.4197 36.8487 64.4197 37.0586Z" fill="white"/>
<path d="M65.0221 34.4748C63.9837 34.4748 63.1371 35.4898 63.1371 36.7396C63.1371 37.988 63.9837 39.0043 65.0221 39.0043C66.062 39.0043 66.9085 37.988 66.9085 36.7396C66.9085 35.4898 66.062 34.4748 65.0221 34.4748ZM65.0221 39.2225C63.8621 39.2225 62.9189 38.1081 62.9189 36.7396C62.9189 35.3697 63.8621 34.2566 65.0221 34.2566C66.1835 34.2566 67.1267 35.3697 67.1267 36.7396C67.1267 38.1081 66.1835 39.2225 65.0221 39.2225Z" fill="#1D2F55"/>
<path d="M68.6898 30.0143C67.1348 28.0769 64.7071 25.5401 61.9245 27.8587C61.6787 26.9859 62.3871 25.1852 64.0249 25.1299C65.6613 25.0761 68.1995 27.0674 68.6898 30.0143Z" fill="#662518"/>
<path d="M64.1974 26.8244C65.8905 26.8244 67.3612 28.2426 68.4949 29.6028C67.8487 26.9252 65.5218 25.2377 64.0911 25.2377L64.0276 25.239C63.2321 25.2653 62.7391 25.7155 62.4657 26.0897C62.0818 26.6145 61.9465 27.2373 61.9962 27.6598C62.7101 27.1047 63.4489 26.8244 64.1974 26.8244ZM68.8664 30.4079L68.6054 30.082C67.4689 28.6666 65.9402 27.0426 64.1974 27.0426C63.4517 27.0426 62.7101 27.345 61.9934 27.9429L61.865 28.0506L61.8194 27.8877C61.6648 27.3422 61.8581 26.5496 62.2903 25.9599C62.7157 25.3771 63.3302 25.0443 64.0207 25.0208C64.0441 25.0208 64.0676 25.0208 64.0911 25.0208C65.8836 25.0208 68.3306 27.1931 68.7974 29.9964L68.8664 30.4079Z" fill="#221411"/>
<path d="M61.1799 45.7641L57.8794 45.1786C61.7972 44.223 59.531 36.6788 59.531 36.6788C59.6788 36.8998 63.1215 42.1212 61.1799 45.7641Z" fill="#E57917"/>
<path d="M61.1801 45.7641L60.9868 45.6605C62.869 42.1322 59.5312 36.6788 59.5312 36.6788C59.679 36.8998 63.1217 42.1212 61.1801 45.7641Z" fill="#843B1B"/>
<path d="M54.5351 50.6955C54.0269 50.5505 47.8389 51.3846 46.6733 52.8677C48.4824 55.0607 48.8621 57.1928 50.065 58.6249C51.1076 59.8677 53.1528 60.1108 54.5158 60.0997C54.5213 60.0997 54.5282 60.0997 54.5351 60.0997C54.5406 60.0997 54.5475 60.0997 54.5544 60.0997C55.916 60.1108 57.9626 59.8677 59.0052 58.6249C60.2067 57.1928 60.5864 55.0607 62.3968 52.8677C61.2313 51.3846 55.0433 50.5505 54.5351 50.6955Z" fill="#2A1413"/>
<path d="M54.5142 59.9727H54.6496C55.7916 59.9727 57.8644 59.7877 58.9084 58.5434C59.4401 57.9096 59.8033 57.1445 60.2231 56.2607C60.7147 55.225 61.2712 54.0553 62.2324 52.8691C61.0586 51.6028 55.8924 50.806 54.7407 50.806C54.6192 50.806 54.5792 50.8142 54.5695 50.817L54.535 50.8267L54.4991 50.817C54.4908 50.8142 54.4507 50.806 54.3292 50.806C53.1761 50.806 48.01 51.6028 46.8375 52.8691C47.7987 54.0553 48.3538 55.225 48.8454 56.2607C49.2653 57.1445 49.6284 57.9096 50.1615 58.5434C51.2041 59.7877 53.2769 59.9727 54.419 59.9727H54.5142ZM54.6496 60.2268L54.5529 60.2254L54.5281 60.0998L54.5212 60.2254L54.419 60.2268C53.2327 60.2268 51.0771 60.0279 49.9668 58.7064C49.4144 58.0463 49.0263 57.2315 48.6176 56.3684C48.1204 55.323 47.557 54.1382 46.5752 52.9478L46.5103 52.8691L46.5738 52.789C47.691 51.3666 53.0449 50.5532 54.3292 50.5532C54.4369 50.5532 54.4963 50.5588 54.535 50.5657C54.5722 50.5588 54.633 50.5532 54.7407 50.5532C56.0236 50.5532 61.3776 51.3666 62.4961 52.789L62.5583 52.8691L62.4948 52.9478C61.5115 54.1382 60.9481 55.323 60.4523 56.3684C60.0422 57.2315 59.6555 58.0463 59.1018 58.7064C57.9929 60.0279 55.8358 60.2268 54.6496 60.2268Z" fill="#221411"/>
<path d="M54.5351 50.6941C54.0532 50.5643 48.1952 51.31 47.0918 52.6371C48.8056 54.5994 49.1646 56.5079 50.3025 57.7894C51.2899 58.9025 53.2274 59.1193 54.5158 59.1082C54.5227 59.1096 54.5296 59.1082 54.5351 59.1082C54.5406 59.1082 54.5476 59.1096 54.5531 59.1082C55.8429 59.1193 57.7804 58.9025 58.7677 57.7894C59.9056 56.5079 60.2647 54.5994 61.9784 52.6371C60.8751 51.31 55.0157 50.5643 54.5351 50.6941Z" fill="#6D1417"/>
<path d="M52.0259 54.3011C50.9501 54.946 50.2431 55.9569 49.7432 57.023C49.913 57.2964 50.0939 57.5547 50.3024 57.7894C51.2898 58.9025 53.2273 59.1193 54.5157 59.1082C54.5226 59.1082 54.5295 59.1082 54.5351 59.1082C54.5406 59.1082 54.5475 59.1082 54.553 59.1082C55.8428 59.1193 57.7803 58.9025 58.7677 57.7894C59.211 57.2895 59.5369 56.6929 59.8697 56.037C57.9709 53.8648 54.7394 53.0486 52.0259 54.3011Z" fill="#E04D5F"/>
<path d="M53.042 55.0731C52.3612 55.4818 51.9123 56.1226 51.5947 56.7993C51.7024 56.9719 51.8171 57.1362 51.9496 57.2854C52.5752 57.9897 53.8042 58.1278 54.6218 58.1222C54.6259 58.1222 54.6301 58.1208 54.6342 58.1222C54.6383 58.1208 54.6425 58.1222 54.6452 58.1222C55.4628 58.1278 56.6918 57.9897 57.3188 57.2854C57.5991 56.9678 57.8062 56.5894 58.0175 56.1737C56.8133 54.7955 54.764 54.2777 53.042 55.0731Z" fill="#F4697F"/>
<path d="M54.5158 58.9826H54.6442C55.7255 58.9826 57.6865 58.8169 58.6725 57.7052C59.1019 57.2219 59.4265 56.628 59.7178 56.0563C58.4681 54.6657 56.6121 53.8371 54.734 53.8371C53.8046 53.8371 52.9111 54.0319 52.0784 54.4158C51.1863 54.9529 50.4655 55.805 49.8868 57.0147C50.0608 57.2895 50.2238 57.5105 50.3964 57.7052C51.3838 58.8169 53.3447 58.9826 54.426 58.9826H54.5158ZM54.6442 59.2353H54.5517L54.5227 59.1082V59.2353H54.426C53.3019 59.2353 51.2595 59.0585 50.2072 57.8737C50.0125 57.6527 49.8302 57.4041 49.6355 57.0893L49.5996 57.0313L49.6286 56.9691C50.2335 55.6793 50.9958 54.7707 51.9597 54.192C52.8379 53.786 53.7673 53.5844 54.734 53.5844C56.7115 53.5844 58.6683 54.4696 59.965 55.9541L60.0216 56.0177L59.983 56.0936C59.6723 56.7054 59.3312 57.3448 58.8616 57.8737C57.8094 59.0585 55.7683 59.2353 54.6442 59.2353Z" fill="#B82C37"/>
<path d="M56.173 56.751C55.9493 56.8186 53.197 56.8186 52.9664 56.751C52.6502 56.1737 52.432 55.4653 52.0812 55.1711C51.3438 55.8409 50.6271 56.9374 50.3398 57.6928C51.3341 58.7782 53.2467 58.9936 54.5241 58.9826C54.531 58.9826 54.5366 58.9826 54.5435 58.9826C54.549 58.9826 54.5545 58.9826 54.5614 58.9826C55.8388 58.9936 57.75 58.7782 58.7457 57.6941C58.464 56.9388 57.7625 55.8409 57.0402 55.1711C56.6964 55.4653 56.4837 56.1737 56.173 56.751Z" fill="white"/>
<path d="M52.0809 55.1711C52.0809 55.1711 52.1182 57.2964 52.0229 57.9496C52.3074 57.7383 52.7714 57.0216 52.9289 56.7371C52.7921 56.3049 52.3185 55.2499 52.0809 55.1711Z" fill="#A5A5A4"/>
<path d="M57.0151 55.2139C57.0151 55.2139 57.6034 57.9924 57.5081 58.6456C57.7926 58.4357 58.5273 57.8018 58.6861 57.5174C58.5494 57.0851 57.2527 55.2927 57.0151 55.2139Z" fill="#A5A5A4"/>
<path d="M54.524 58.8569H54.6511C55.6992 58.8569 57.587 58.6995 58.5978 57.6651C58.3368 57.0064 57.7264 56.0163 57.0415 55.3479C56.8689 55.5454 56.7239 55.8699 56.5706 56.2096C56.4808 56.4098 56.3883 56.617 56.2847 56.8103L56.2599 56.8573L56.2102 56.8725C56.0375 56.9236 54.9107 56.9291 54.5696 56.9291C54.2299 56.9291 53.1072 56.9236 52.9304 56.8725L52.8807 56.8573L52.8558 56.8117C52.7495 56.6184 52.6542 56.4112 52.5631 56.211C52.4056 55.8685 52.2565 55.5426 52.0797 55.3451C51.3796 56.0149 50.7554 57.005 50.4861 57.6651C51.4984 58.6995 53.3861 58.8569 54.4343 58.8569H54.524ZM54.6511 59.1096H54.5599L54.5309 58.9826V59.1096H54.4343C53.3254 59.1096 51.3078 58.937 50.2458 57.7784L50.1934 57.7204L50.221 57.6486C50.4916 56.9374 51.2056 55.7953 51.9955 55.0772L52.077 55.004L52.1626 55.0745C52.4195 55.2899 52.6004 55.6862 52.7923 56.106C52.8738 56.2828 52.958 56.4665 53.0492 56.6377C53.2176 56.657 53.7617 56.675 54.5696 56.675C55.3761 56.675 55.9215 56.657 56.09 56.6377C56.1784 56.4665 56.2613 56.2842 56.34 56.106C56.5278 55.6876 56.7059 55.2913 56.9586 55.0758L57.0443 55.0027L57.1257 55.0786C57.9004 55.7967 58.5992 56.9387 58.8644 57.6499L58.8906 57.7217L58.8381 57.7784C57.7762 58.937 55.7586 59.1096 54.6511 59.1096Z" fill="#7C7D7E"/>
<path d="M54.5154 58.9826H54.6438C55.7251 58.9826 57.6861 58.8168 58.6721 57.7052C59.1747 57.139 59.5186 56.4554 59.9163 55.6655C60.3803 54.7417 60.9037 53.6977 61.8082 52.6399C60.68 51.513 55.8163 50.806 54.7295 50.806C54.6135 50.806 54.5762 50.8129 54.5665 50.8156L54.5347 50.8239L54.5016 50.8156C54.4947 50.8142 54.4574 50.806 54.34 50.806C53.2518 50.806 48.3881 51.513 47.2599 52.6399C48.1644 53.6977 48.6892 54.7417 49.1532 55.6655C49.5509 56.4554 49.8934 57.139 50.396 57.7052C51.3834 58.8168 53.3444 58.9826 54.4256 58.9826H54.5154ZM54.6438 59.2353H54.5513L54.5223 59.1082V59.2353H54.4256C53.3015 59.2353 51.2591 59.0585 50.2068 57.8737C49.6821 57.2826 49.3161 56.5521 48.9267 55.7788C48.4572 54.8439 47.9241 53.7847 46.9961 52.72L46.9243 52.6399L46.9934 52.5556C48.1009 51.2258 53.3803 50.5532 54.34 50.5532C54.4408 50.5532 54.4988 50.5574 54.5347 50.5643C54.5693 50.5574 54.6273 50.5532 54.7295 50.5532C55.6878 50.5532 60.9686 51.2258 62.0747 52.5556L62.1438 52.6399L62.0733 52.72C61.144 53.7847 60.6109 54.8439 60.1414 55.7788C59.7534 56.5521 59.386 57.2826 58.8613 57.8737C57.809 59.0585 55.7679 59.2353 54.6438 59.2353Z" fill="#221411"/>
<path d="M54.8762 49.3242C51.682 47.0539 45.4318 49.9484 45.3628 51.5406C46.6001 53.2323 48.5997 54.105 51.1835 53.2682C53.092 52.6509 54.2036 52.209 54.8762 51.1719C55.5473 52.209 56.6604 52.6509 58.5674 53.2682C61.1512 54.105 63.1522 53.2323 64.3882 51.5406C64.3205 49.9484 58.0689 47.0539 54.8762 49.3242Z" fill="#EBAE5C"/>
<path d="M50.0923 52.6868C51.8751 52.0916 53.6579 50.4193 53.3182 48.6448C50.0205 47.8756 45.491 50.1459 45.3667 51.5102C46.7697 52.4258 48.344 53.0749 50.0923 52.6868Z" fill="#FCDB8C"/>
<path d="M57.0662 48.5357C56.6119 49.8669 57.0966 51.2782 58.1682 51.814C60.2631 53.1039 62.5969 52.7241 64.377 51.4716C64.1878 50.19 60.2493 48.1614 57.0662 48.5357Z" fill="#FCDB8C"/>
<path d="M64.4985 51.5669C64.4226 51.5392 64.348 51.5116 64.2721 51.4826C64.2721 51.4923 64.2762 51.5006 64.2762 51.5089C63.3192 52.7987 62.0073 53.4809 60.48 53.4809C59.8806 53.4809 59.2495 53.3745 58.6019 53.1646C56.7859 52.5763 55.6356 52.1455 54.9672 51.1125L54.8761 50.9703L54.7835 51.1125C54.1152 52.1455 52.9648 52.5763 51.1503 53.1646C50.5012 53.3745 49.8701 53.4809 49.2722 53.4809C47.7435 53.4809 46.4316 52.7987 45.4746 51.5089C45.4746 51.5061 45.4759 51.5033 45.4759 51.5006C45.4055 51.5296 45.3351 51.5613 45.2646 51.5917L45.2743 51.6055C46.2769 52.9754 47.6592 53.6991 49.2722 53.6991C49.8922 53.6991 50.5468 53.59 51.2165 53.3718C52.9994 52.7945 54.1594 52.3623 54.8761 51.3652C55.5928 52.3623 56.7514 52.7945 58.5342 53.3718C59.204 53.59 59.8585 53.6991 60.48 53.6991C62.0929 53.6991 63.4752 52.9754 64.4764 51.6055L64.4985 51.5738V51.5669Z" fill="#9D6E35"/>
<path d="M61.4866 45.4285C61.2684 44.5834 60.0835 44.2299 58.9401 44.4204C57.584 44.6441 56.0111 45.2835 54.876 45.4078C53.7395 45.2835 52.1666 44.6441 50.8105 44.4204C49.6684 44.2299 48.4822 44.5834 48.264 45.4285C48.0458 46.2751 49.7678 47.1685 50.9651 47.83C51.9981 48.4017 53.8209 50.1279 54.876 50.1251C55.931 50.1224 57.7525 48.4017 58.7868 47.83C59.9841 47.1685 61.7062 46.2751 61.4866 45.4285Z" fill="#3A1713"/>
<path d="M61.4867 45.4285C61.2685 44.5834 60.0836 44.2299 58.9402 44.4204C57.5841 44.6441 56.0112 45.2835 54.8761 45.4078C53.7396 45.2835 52.1666 44.6441 50.8106 44.4204C49.6685 44.2299 48.4823 44.5834 48.2641 45.4285C48.0459 46.2751 50.1767 46.2889 51.374 46.9503C52.4083 47.522 53.8196 49.1433 54.8747 49.1391C55.9297 49.1364 57.2983 47.6629 58.3312 47.0912C59.5285 46.4297 61.7063 46.2751 61.4867 45.4285Z" fill="#5F2014"/>
<path d="M58.9403 44.4204C57.5842 44.6441 56.0113 45.2835 54.8762 45.4078C53.7397 45.2835 52.1668 44.6441 50.8107 44.4204C49.7018 44.2354 48.5542 44.5641 48.2891 45.3567C49.2916 44.6082 50.3108 44.7381 51.6199 45.2656C52.9291 45.7931 53.9496 46.0389 54.8762 45.9781C56.2516 45.887 57.2998 45.22 58.6048 44.8292C59.5728 44.6911 60.5409 44.7298 61.3432 45.1081C60.9413 44.4978 59.925 44.2561 58.9403 44.4204Z" fill="#8E5642"/>
<path d="M50.2085 44.4798C49.2446 44.4798 48.5223 44.8623 48.369 45.4562C48.184 46.1756 49.7113 47.0166 50.8258 47.6298L51.0177 47.7347C51.3657 47.9267 51.7993 48.2457 52.2578 48.5826C53.1692 49.2552 54.2022 50.0161 54.8733 50.0161V50.1252L54.8747 50.0161C55.5459 50.0133 56.5802 49.2538 57.493 48.5826C57.9515 48.2457 58.3851 47.9267 58.7331 47.7347L58.925 47.6284C60.0408 47.0153 61.5682 46.1756 61.3817 45.4562C61.2285 44.8623 60.5062 44.4798 59.5423 44.4798C59.349 44.4798 59.1529 44.495 58.9582 44.5268C58.3216 44.6331 57.6311 44.8333 56.9641 45.0253C56.2073 45.2435 55.4934 45.4506 54.8871 45.5169H54.8637C54.2574 45.4506 53.5435 45.2435 52.7881 45.0253C52.1211 44.8333 51.4292 44.6331 50.7926 44.5268C50.5993 44.495 50.4018 44.4798 50.2085 44.4798ZM54.8733 50.2342C54.1318 50.2342 53.067 49.4499 52.128 48.7594C51.675 48.4252 51.247 48.1103 50.9128 47.9253L50.7208 47.8203C49.478 47.1368 47.9299 46.2861 48.1578 45.4023C48.3373 44.7091 49.1424 44.2603 50.2085 44.2603C50.4142 44.2603 50.6228 44.2782 50.8285 44.3113C51.479 44.4204 52.1749 44.6207 52.8489 44.8154C53.5904 45.0308 54.2906 45.2324 54.8761 45.2973C55.4602 45.2324 56.1618 45.0308 56.9033 44.8154C57.5772 44.6207 58.2732 44.4204 58.9223 44.3113C59.128 44.2782 59.3366 44.2603 59.5423 44.2603C60.6098 44.2603 61.4135 44.7091 61.593 45.4023C61.8209 46.2861 60.2742 47.1368 59.03 47.8203L58.8394 47.9253C58.5038 48.1117 58.0758 48.4252 57.6228 48.758C56.6824 49.4485 55.6177 50.2315 54.8761 50.2342H54.8733Z" fill="#1C1311"/>
<path d="M63.5483 50.7452C63.9101 51.6069 64.707 51.9356 65.4499 51.4743C64.8464 51.6801 63.9336 51.3252 63.5483 50.7452Z" fill="#9D6E35"/>
<path d="M44.2222 51.5779C45.0949 51.9135 45.8835 51.5682 46.0671 50.7121C45.7965 51.2907 44.9085 51.7022 44.2222 51.5779Z" fill="#9D6E35"/>
</g>
<defs>
<clipPath id="clip0_25_100">
<rect width="83.329" height="120" fill="white" transform="translate(22 4)"/>
</clipPath>
</defs>
</svg>
