<svg width="128" height="128" viewBox="0 0 128 128" fill="none" xmlns="http://www.w3.org/2000/svg">
<path d="M120.975 92.205C119.01 92.1066 116.789 93.1575 115.323 94.4078C114.916 94.7543 114.634 95.2838 114.285 95.5928C113.862 95.9688 113.191 96.1787 112.669 96.3636C110.003 97.3099 105.346 97.7379 105.315 93.7779C105.288 90.2579 105.379 86.7404 104.855 83.2461C104.431 80.4148 103.589 76.3953 100.551 75.2398C98.682 74.5297 96.5544 75.288 94.7703 75.8909C92.9241 76.515 91.276 77.4218 89.5746 78.3487C88.4935 78.9371 87.8098 78.5812 86.9877 77.712C86.2262 76.9061 85.5281 75.9617 85.3226 74.8493C85.1427 73.8755 85.2881 72.8634 85.3426 71.8846C85.4329 70.2784 85.3552 68.6804 85.0945 67.0912C84.9052 65.9381 84.6358 64.7982 84.318 63.6745C84.1194 62.9733 83.9013 62.2783 83.6682 61.5884C83.3906 60.7687 83.1543 59.845 82.7482 59.0798C82.5634 58.7314 82.3334 58.4393 82.2162 58.0483C81.8947 56.9717 82.3534 56.0154 83.3279 55.4771C84.4152 54.8761 85.7118 54.6085 86.8937 54.2563C88.4522 53.7907 90.0057 53.2962 91.5085 52.6708C94.8818 51.2665 98.1186 49.1502 99.961 45.9053C101.047 43.9933 101.458 41.8777 101.554 39.7031C101.681 36.8386 101.86 33.9653 102.293 31.129C102.773 27.9812 103.644 22.6125 107.471 21.8668C108.509 21.6644 109.574 21.8305 110.621 21.7183C111.705 21.603 112.775 21.321 113.744 20.8134C115.056 20.1259 116.322 18.971 116.626 17.4619C116.862 16.2932 116.357 15.1251 115.074 15.0048C114.082 14.912 113.045 15.2047 112.098 15.4666C110.728 15.847 109.383 16.3089 108.02 16.7106C106.536 17.1486 105.05 17.4757 103.52 17.7076C102.454 17.8699 101.375 18.0234 100.335 18.3161C98.7202 18.7698 97.2738 19.6427 96.3896 21.1029C95.491 22.5868 95.1588 24.3328 94.9432 26.0298C94.6951 27.9844 94.5466 29.9502 94.3109 31.9061C94.0527 34.0493 93.7344 36.2169 93.0708 38.2781C92.5751 39.8184 91.8174 41.7805 90.3046 42.5971C89.102 43.2463 87.6808 43.6336 86.3998 44.1067C85.0393 44.6087 83.6751 45.0994 82.3071 45.5813C80.9033 46.0764 79.4964 46.5652 78.0845 47.0377C77.0925 43.9971 75.0759 40.8292 72.2715 39.2168C67.4612 36.4501 61.4809 39.7977 58.5149 43.779C57.8124 44.7228 57.1575 45.7756 56.6912 46.8798C53.8819 45.7486 52.3346 42.483 52.0852 39.6354C51.9643 38.2561 52.119 36.8787 51.9035 35.5044C51.7662 34.6308 51.5231 33.7792 51.2035 32.9551C50.6269 31.4693 49.8329 30.068 49.6995 28.4494C49.4801 25.7791 50.6865 23.1176 51.8427 20.7877C52.7802 18.897 52.799 16.5808 52.569 14.5097C52.4907 13.8078 52.3603 13.1097 52.166 12.431C51.9298 11.6069 51.4673 10.8687 51.2448 10.0478C50.9077 8.80259 51.3094 7.46841 52.2663 6.60423C53.0822 5.86789 54.335 5.49063 55.4103 5.79143C56.0151 5.96064 56.4888 6.38239 57.0083 6.71515C57.5648 7.0711 58.1495 7.41451 58.7762 7.63259C60.1799 8.12265 61.761 7.26725 61.2778 5.6567C60.6875 3.68707 58.7674 2.01449 56.8943 1.31136C54.8858 0.638945 52.4117 1.15908 50.4922 1.89166C48.3358 2.71448 46.7466 4.2398 46.0629 6.48203C45.6574 7.81308 45.5873 9.25755 45.4262 10.6343C45.2432 12.1973 45.064 13.7602 44.8566 15.32C44.4141 18.6432 43.8526 21.9677 42.897 25.1863C42.3417 27.0581 41.6912 28.8341 41.4688 30.7868C41.2532 32.6731 41.3303 34.5851 41.6179 36.4601C42.4088 41.6226 44.6498 46.4956 47.2235 50.9938C48.579 53.3645 50.3838 55.6018 51.3319 58.1818C51.8364 59.5554 52.0144 61.0613 51.4272 62.4381C50.9108 63.6507 49.9489 64.6039 49.022 65.5113C47.9348 66.5748 46.8268 67.6163 45.8768 68.8089C43.053 72.3521 42.3586 76.8823 43.1627 81.2802C43.449 82.8438 43.9147 84.3716 44.5445 85.8305C45.121 87.1666 45.8686 88.418 46.4514 89.7516C47.0161 91.0425 47.5118 92.4018 47.7004 93.8043C47.8577 94.973 47.6841 95.9124 47.2279 96.9796C46.6745 98.2749 46.5291 99.7733 46.3812 101.16C46.1594 103.235 46.061 105.324 45.9783 107.409C45.8072 111.71 45.831 116.042 45.3949 120.328C45.3234 121.032 45.2363 121.737 45.0947 122.431C44.9556 123.112 44.7901 123.81 45.0771 124.479C45.6205 125.748 47.4165 125.801 48.5809 125.817C50.2685 125.839 51.9881 125.56 53.6688 125.774C54.5079 125.88 55.0049 126.31 55.7644 126.607C56.5947 126.931 57.442 126.708 58.12 126.156C58.6414 125.733 59.0632 125.065 58.9673 124.366C58.8501 123.513 58.0004 123.299 57.274 123.148C56.1987 122.925 55.0819 122.871 54.0316 122.533C53.499 122.362 52.8986 122.12 52.7564 121.536C52.5107 120.531 52.6993 119.317 52.7971 118.306C52.9651 116.57 53.2558 114.843 53.6343 113.14C54.0573 111.24 54.5938 109.356 55.3332 107.553C55.9436 106.066 56.6912 104.5 57.8556 103.361C59.4699 101.782 62.1257 102.469 64.1204 102.766C67.0125 103.196 69.9203 103.614 72.8525 103.39C76.3706 103.123 79.7352 101.923 82.6173 99.8823C84.4503 98.5839 86.0652 97.0091 87.4834 95.2719C88.3551 94.2041 89.1503 93.0748 89.8822 91.908C90.2482 91.3245 90.6004 90.733 90.9382 90.1332C91.3292 89.4382 91.8757 88.6674 92.1132 87.9042C92.1589 87.7575 92.2078 87.5676 92.1571 87.6341C92.1928 87.5871 92.258 87.5601 92.2993 87.5188C92.4384 87.3815 92.6985 87.2336 92.8953 87.1183C93.6235 86.6922 94.5052 86.4008 95.3506 86.5988C97.3296 87.0619 97.9281 89.7403 98.5529 91.3891C99.3268 93.4301 100.094 95.4844 101.103 97.4239C101.985 99.1172 103.089 100.884 104.753 101.908C106.579 103.03 108.769 102.561 110.674 101.884C113.162 101 115.373 99.5327 117.646 98.2223C118.588 97.6802 119.572 97.0949 120.638 96.838C121.606 96.6049 122.501 96.645 123.261 95.8823C124.732 94.4046 122.547 92.284 120.975 92.205Z" fill="#3B2A15"/>
<path d="M9.33039 50.3452C9.30031 50.4054 9.25206 50.4969 9.33039 50.3452V50.3452ZM19.2243 54.9914C19.2111 55.0114 19.2105 55.0077 19.2243 54.9914V54.9914ZM55.7617 95.1416C53.6686 95.7363 51.9346 96.1148 49.7808 96.2075C48.9047 96.2451 48.5262 96.2426 47.5755 96.133C46.8367 96.0471 46.1154 95.898 45.6598 95.7589C44.2805 95.3384 43.2671 94.7988 42.2663 94.0111C41.7669 93.6188 41.3 93.1864 40.8639 92.7251C40.4534 92.2909 39.9301 91.6517 39.7051 91.3427C36.2772 86.6358 34.7776 80.8247 31.4769 76.03C29.6853 73.4274 27.4794 71.2328 24.6682 69.7482C22.6584 68.6867 20.4469 68.0675 18.414 67.041C16.3692 66.0083 14.439 64.7449 12.7639 63.1751C10.3287 60.8934 8.50506 57.8684 8.433 54.5433C8.40166 53.0907 8.65108 51.9602 9.23451 50.5602C9.26647 50.4831 9.30219 50.4073 9.33728 50.3321C9.34292 50.3214 9.34856 50.3108 9.35483 50.2976C9.43567 50.141 9.51964 49.9862 9.60738 49.8339C9.78473 49.5268 9.97712 49.2285 10.1833 48.9403C10.2666 48.8231 10.3537 48.7103 10.4415 48.5968C10.4722 48.5624 10.6345 48.3643 10.6796 48.3136C10.9378 48.0241 11.2104 47.7471 11.4955 47.4845C11.5313 47.4519 11.7343 47.2752 11.8051 47.2119C11.8997 47.1411 12.2131 46.8998 12.2933 46.8428C12.8128 46.4749 12.9475 46.3847 13.5485 46.156C13.2364 46.275 13.8631 46.0751 13.9308 46.0588C13.9627 46.0507 14.0762 46.0331 14.0981 46.0287C14.137 46.0244 14.1758 46.0206 14.214 46.0187C14.6264 46.0005 14.6991 45.9723 15.2493 46.0983C15.1033 46.0645 15.5056 46.1816 15.5984 46.2167C15.782 46.2869 15.9599 46.3684 16.1348 46.4574C16.435 46.6097 16.7025 46.8083 17.0153 47.0772C17.6263 47.6029 18.1182 48.207 18.5224 48.892C19.3045 50.2168 19.7989 51.6575 19.7783 53.1765C19.7707 53.7625 19.673 54.0526 19.4261 54.5803C19.2625 54.5045 19.0858 54.4217 18.9673 54.3271C18.6208 54.0495 18.2868 53.75 18.006 53.404C17.0923 52.276 13.9577 54.0771 15.0626 55.4407C16.1273 56.7561 17.8274 57.6554 19.5382 57.2355C21.9096 56.6521 23.3001 54.339 23.2362 51.9959C23.1372 48.3612 20.6775 44.3637 16.9833 43.5452C12.7746 42.6128 8.46182 46.0632 6.50849 49.5475C4.80144 52.5919 4.52884 56.1388 5.764 59.4082C7.34322 63.5874 10.9904 66.6199 14.7774 68.7543C16.0414 69.4662 17.3562 70.0866 18.6991 70.6337C19.7657 71.068 20.863 71.4215 21.8977 71.9316C23.2945 72.6209 24.5522 73.5327 25.736 74.6845C30.2474 79.0725 31.9501 85.5397 35.1254 90.9398C36.6601 93.5498 38.5984 95.9011 41.3126 97.3337C44.6276 99.0846 48.5656 99.0457 52.1671 98.4172C53.3985 98.2022 54.6124 97.9171 55.815 97.5756C56.5219 97.3744 57.5603 96.7609 57.5183 95.8986C57.4769 95.0413 56.3827 94.9655 55.7617 95.1416Z" fill="#3B2A15"/>
<path d="M74.1214 51.4588C74.0218 51.309 73.9184 51.1756 73.8401 51.0139C73.7924 50.9142 73.7667 50.797 73.7166 50.7005C73.6909 50.6297 73.6777 50.5558 73.6771 50.4799C73.5079 50.4787 73.5154 50.4611 73.6997 50.4279C73.9171 50.2312 74.3032 50.1278 74.5488 49.9297C74.8985 49.6458 75.2012 49.3006 75.4569 48.9302C76.0127 48.1255 76.3643 47.1091 76.2277 46.1233C75.8717 43.5552 72.5416 41.6226 70.1778 42.7744C69.1444 43.2789 68.3285 44.2182 67.7971 45.2648C67.604 45.0724 67.411 44.8788 67.218 44.6857C67.2036 44.6644 67.1848 44.6444 67.1585 44.6262C67.1378 44.6055 67.1127 44.5911 67.0852 44.5792C65.1657 43.2801 62.6734 43.408 60.9958 45.0461C59.1891 46.8108 58.6251 49.8176 61.2816 51.0891C62.6841 51.7602 64.1937 51.7164 65.7052 51.6969C66.2592 51.69 66.4597 51.6712 66.1508 52.2108C65.9741 52.5198 65.7873 52.8212 65.6206 53.1358C64.7226 54.8278 63.9292 56.919 64.5058 58.8422C65.212 61.2004 68.0853 62.3704 70.3721 62.1009C72.8086 61.8139 74.8477 59.9496 75.4199 57.5745C75.7382 56.2535 75.6298 54.8886 75.1974 53.6058C74.9399 52.8412 74.5657 52.1306 74.1214 51.4588Z" fill="#B9A88D"/>
<path d="M67.1258 48.8149C67.1258 49.9592 66.1983 50.8873 65.0534 50.8873C63.9091 50.8873 62.981 49.9592 62.981 48.8149C62.981 47.67 63.9091 46.7425 65.0534 46.7425C66.1983 46.7425 67.1258 47.67 67.1258 48.8149Z" fill="white"/>
<path d="M70.1241 54.8009C70.2394 54.9789 70.3979 55.081 70.4781 55.0296C70.5577 54.9776 70.5289 54.7909 70.4129 54.6129C70.2976 54.4349 70.1385 54.3328 70.0589 54.3848C69.9787 54.4368 70.0081 54.6229 70.1241 54.8009Z" fill="#1D0104"/>
<path d="M71.08 54.6511C71.0111 54.8516 71.028 55.039 71.1176 55.0703C71.2078 55.1017 71.3369 54.9644 71.4065 54.7633C71.4754 54.5627 71.4591 54.3747 71.3689 54.3434C71.2787 54.3127 71.1496 54.4499 71.08 54.6511Z" fill="#1D0104"/>
<path d="M74.6844 47.3516C74.6844 48.4966 73.7569 49.424 72.612 49.424C71.4677 49.424 70.5396 48.4966 70.5396 47.3516C70.5396 46.2073 71.4677 45.2792 72.612 45.2792C73.7569 45.2792 74.6844 46.2073 74.6844 47.3516Z" fill="white"/>
<path d="M65.5415 49.4334C65.398 49.5268 65.45 49.8621 65.6581 50.1817C65.8661 50.5013 66.1506 50.6855 66.2948 50.5922C66.4383 50.4988 66.3856 50.1635 66.1782 49.8439C65.9702 49.5237 65.685 49.3401 65.5415 49.4334Z" fill="#1D0104"/>
<path d="M65.6465 49.5951C65.634 49.6597 65.6603 49.8477 65.8126 50.0814C65.9648 50.3152 66.1253 50.4154 66.1898 50.4305C66.2024 50.3653 66.176 50.1779 66.0238 49.9442C65.8721 49.7098 65.7117 49.6095 65.6465 49.5951ZM66.2061 50.8002C66.1246 50.8002 66.0225 50.7745 65.9009 50.6962C65.7593 50.6053 65.6183 50.4581 65.5042 50.282C65.2279 49.8571 65.2016 49.4353 65.4416 49.2793C65.6816 49.1226 66.0563 49.3181 66.3327 49.7436C66.6084 50.1685 66.6354 50.5897 66.3954 50.7463C66.3553 50.772 66.292 50.8002 66.2061 50.8002Z" fill="#1D0104"/>
<path d="M73.2684 48.4164C73.1049 48.0723 72.8461 47.8524 72.6919 47.9263C72.5371 47.9996 72.5446 48.3386 72.7088 48.6827C72.8724 49.028 73.1312 49.2473 73.286 49.1734C73.4401 49.1001 73.4326 48.761 73.2684 48.4164Z" fill="#1D0104"/>
<path d="M72.7746 48.0999C72.7533 48.1625 72.7546 48.3524 72.8749 48.6037C72.9946 48.8556 73.1406 48.9766 73.2026 48.9998C73.2239 48.9365 73.2227 48.7472 73.1024 48.4953C72.9827 48.2434 72.8367 48.1231 72.7746 48.0999ZM73.2196 49.372C73.1299 49.372 73.0146 49.3388 72.8818 49.2254C72.7533 49.1163 72.633 48.9515 72.5427 48.7623C72.4525 48.5724 72.4005 48.3756 72.3967 48.207C72.3898 47.9106 72.529 47.7997 72.6123 47.7596C72.6963 47.7201 72.8699 47.6819 73.0955 47.8743C73.2239 47.9833 73.3443 48.1475 73.4345 48.3374C73.6526 48.7949 73.6231 49.2166 73.3649 49.3394C73.3305 49.3557 73.281 49.372 73.2196 49.372Z" fill="#1D0104"/>
<path d="M69.3758 59.8381C69.8921 60.2504 70.5903 60.2711 71.3899 59.1682C72.0278 58.2883 71.3504 57.0582 70.2644 57.0995C68.8819 57.2098 68.291 58.9733 69.3758 59.8381Z" fill="white"/>
<path d="M77.9763 46.8641L77.4888 49.79C77.4888 49.79 79.9265 52.4722 81.3892 49.79C82.8524 47.1079 80.4141 44.4257 77.9763 46.8641Z" fill="#B9A88D"/>
<path d="M77.6185 49.7499C77.834 49.9699 78.8774 50.9725 79.9064 50.8491C80.4504 50.7839 80.9135 50.4079 81.2826 49.7311C82.0678 48.2923 81.6837 46.9443 80.8985 46.3565C79.9641 45.6577 78.8411 46.186 78.0897 46.923L77.6185 49.7499ZM79.7266 51.1035C78.5328 51.1035 77.4461 49.9247 77.3979 49.8715L77.3584 49.8282L77.8622 46.8052L77.8898 46.7776C79.145 45.5224 80.3426 45.6364 81.0445 46.1616C81.9137 46.8121 82.348 48.2873 81.4963 49.8483C81.0877 50.5984 80.5619 51.0164 79.9346 51.0916C79.8651 51.0998 79.7955 51.1035 79.7266 51.1035Z" fill="#B9A88D"/>
<path d="M57.4495 47.3517L57.9371 50.2776C57.9371 50.2776 55.4987 52.9597 54.036 50.2776C52.5728 47.5954 55.0112 44.9133 57.4495 47.3517Z" fill="#B9A88D"/>
<path d="M55.4929 46.5169C55.1639 46.5169 54.8349 46.6141 54.5272 46.8441C53.742 47.4319 53.3578 48.7798 54.1431 50.2193C54.5115 50.8955 54.9747 51.2715 55.5192 51.3373C56.5457 51.462 57.5916 50.4574 57.8066 50.2375L57.3353 47.4106C56.8321 46.9168 56.1616 46.5169 55.4929 46.5169ZM55.6991 51.5917C55.6295 51.5917 55.5606 51.588 55.491 51.5792C54.8631 51.504 54.338 51.086 53.9287 50.3359C53.0771 48.7748 53.5114 47.2997 54.3812 46.6492C55.0824 46.1234 56.28 46.01 57.5352 47.2658L57.5634 47.2934L58.0667 50.3158L58.0272 50.3597C57.9789 50.413 56.8923 51.5917 55.6991 51.5917Z" fill="#B9A88D"/>
<path d="M56.7853 48.86C56.2889 48.6708 55.6159 48.5204 55.0945 48.7291C55.0801 48.3036 55.1572 47.8781 55.3458 47.4858C55.4273 47.3178 55.072 47.3379 55.0124 47.4613C54.7843 47.9332 54.7072 48.4439 54.7492 48.9478C54.7354 48.9628 54.7379 48.9741 54.7517 48.981C54.8012 49.5055 54.9811 50.0213 55.26 50.4731C55.3326 50.5909 55.6736 50.4681 55.5858 50.3258C55.3239 49.9016 55.1534 49.4103 55.1064 48.9089C55.4467 48.642 56.1385 48.8757 56.4989 49.013C56.5891 49.0474 56.91 48.9083 56.7853 48.86Z" fill="#1D0104"/>
<path d="M80.4596 47.8943C80.4997 47.4037 80.4251 46.9061 80.2052 46.4511C80.1569 46.3509 79.8154 46.4693 79.8523 46.5457C80.0278 46.9098 80.1093 47.299 80.1137 47.6907C79.6098 47.519 78.9487 47.7045 78.4931 47.8781C78.2644 47.9652 78.4705 48.1087 78.6385 48.0447C79.0508 47.8875 79.7226 47.7001 80.1011 48.0115C80.0522 48.5185 79.878 49.0167 79.6098 49.4516C79.5722 49.5124 79.9018 49.4911 79.9601 49.3965C80.224 48.9697 80.3969 48.4797 80.4521 47.9789C80.4778 47.952 80.4847 47.9219 80.4596 47.8943Z" fill="#1D0104"/>
</svg>
