<svg width="128" height="128" viewBox="0 0 128 128" fill="none" xmlns="http://www.w3.org/2000/svg">
<path d="M107.855 47.757L101.681 50.8385L101.757 47.6881L107.855 47.757Z" fill="#332D29"/>
<path d="M102.631 97.631H25.8413V46.8356L103.89 47.2491L102.631 97.631Z" fill="#AA4B04"/>
<path d="M107.855 42.9234H24.7041L37.1663 31.7272H100.215L107.855 42.9234Z" fill="#472699"/>
<path d="M24.7041 47.757H107.855V42.9234H24.7041V47.757Z" fill="#322251"/>
<path d="M103.828 49.7666L103.873 47.9492L103.828 49.7666Z" fill="#30231A"/>
<path d="M31.0975 50.5755L25.8413 47.757H31.0975V50.5755ZM70.5589 50.1366L66.9169 47.757H103.877L103.874 47.9492L103.828 49.7666L70.5589 50.1366Z" fill="#6A3208"/>
<path d="M103.877 47.757H66.9169L66.9133 47.7552L103.877 47.7516V47.757ZM31.0975 47.757H25.8413H31.0975Z" fill="#2F1D2E"/>
<path d="M81.958 64.8949H89.7516V52.3167H81.958V64.8949Z" fill="#EDDDD3"/>
<path d="M82.8486 63.5818H88.863V53.6299H82.8486V63.5818Z" fill="#87A1C6"/>
<path d="M84.1326 63.7469H82.6689V53.4648H89.0406V57.9683H88.8628V53.6299H82.8485V63.5818H84.1326V63.7469Z" fill="#B1ADB1"/>
<path d="M84.1328 63.5818H82.8486V53.6299H88.863V57.9683H84.1328V63.5818Z" fill="#7389A9"/>
<path d="M86.2347 63.4168V60.3915H88.6851V63.4168H86.2347ZM83.0263 63.4168V60.3915H85.9971V63.4168H83.0263ZM83.0263 56.472H85.9971V60.172H83.0263V56.472ZM85.9971 53.7949V56.2525H83.0263V53.7949H85.9971ZM86.2347 56.472H88.6851V60.172H86.2347V56.472ZM88.6851 56.2525H86.2347V53.7949H88.6851V56.2525ZM89.0406 53.4648H82.6689V63.7469H89.0406V53.4648Z" fill="#E5E5DA"/>
<path d="M70.8926 64.8949H78.6862V52.3167H70.8926V64.8949Z" fill="#EDDDD3"/>
<path d="M71.7812 63.5818H77.7956V53.6299H71.7812V63.5818Z" fill="#87A1C6"/>
<path d="M73.0654 63.4167H72.3471L71.959 60.5347V60.3914H73.0654V63.4167ZM73.0654 60.172H71.959V56.472H74.9299V57.9683H73.0654V60.172ZM77.6178 57.9683H75.1675V56.472H77.6178V57.9683ZM77.6178 56.2525H75.1675V53.7949H77.6178V56.2525ZM74.9299 56.2525H71.959V53.7949H74.9299V56.2525Z" fill="#7389A9"/>
<path d="M75.1675 63.4168V60.3915H77.6179V63.4168H75.1675ZM71.959 63.4168V60.3915H74.9299V63.4168H71.959ZM71.959 56.472H74.9299V60.172H71.959V56.472ZM74.9299 53.7949V56.2525H71.959V53.7949H74.9299ZM75.1675 56.472H77.6179V60.172H75.1675V56.472ZM77.6179 56.2525H75.1675V53.7949H77.6179V56.2525ZM77.9752 53.4648H71.6035V63.7469H77.9752V53.4648Z" fill="#E5E5DA"/>
<path d="M92.4727 64.8949H100.266V52.3167H92.4727V64.8949Z" fill="#EDDDD3"/>
<path d="M93.3613 63.5818H99.3775V53.6299H93.3613V63.5818Z" fill="#87A1C6"/>
<path d="M94.6455 63.7469H93.1836V53.4648H99.5552V57.9683H99.3775V53.6299H93.3613V63.5818H94.6455V63.7469Z" fill="#B1ADB1"/>
<path d="M94.6455 63.5818H93.3613V53.6299H99.3775V57.9683H94.6455V63.5818Z" fill="#7389A9"/>
<path d="M96.7494 63.4168V60.3915H99.1997V63.4168H96.7494ZM93.5391 63.4168V60.3915H96.5118V63.4168H93.5391ZM93.5391 56.472H96.5118V60.172H93.5391V56.472ZM96.5118 53.7949V56.2525H93.5391V53.7949H96.5118ZM96.7494 56.472H99.1997V60.172H96.7494V56.472ZM99.1997 56.2525H96.7494V53.7949H99.1997V56.2525ZM99.5552 53.4648H93.1836V63.7469H99.5552V53.4648Z" fill="#E5E5DA"/>
<path d="M82.2354 83.7723H90.029V71.1941H82.2354V83.7723Z" fill="#EDDDD3"/>
<path d="M83.1245 82.4591H89.1407V72.5072H83.1245V82.4591Z" fill="#87A1C6"/>
<path d="M84.4086 82.6242H82.9468V72.3421H89.3184V76.8474H89.1407V72.5072H83.1245V82.4591H84.4086V82.6242Z" fill="#B1ADB1"/>
<path d="M84.4086 82.4591H83.1245V72.5072H89.1407V76.8474H84.4086V82.4591Z" fill="#7389A9"/>
<path d="M86.5126 82.2959V79.2688H88.9629V82.2959H86.5126ZM83.3023 82.2959V79.2688H86.275V82.2959H83.3023ZM83.3023 75.3511H86.275V79.0493H83.3023V75.3511ZM86.275 72.6722V75.1317H83.3023V72.6722H86.275ZM86.5126 75.3511H88.9629V79.0493H86.5126V75.3511ZM88.9629 75.1317H86.5126V72.6722H88.9629V75.1317ZM89.3184 72.3421H82.9468V82.6242H89.3184V72.3421Z" fill="#E5E5DA"/>
<path d="M71.168 83.7723H78.9616V71.1941H71.168V83.7723Z" fill="#EDDDD3"/>
<path d="M72.0571 82.4591H78.0733V72.5072H72.0571V82.4591Z" fill="#87A1C6"/>
<path d="M77.8954 76.8474H75.4451V75.3511H77.8954V76.8474ZM75.2075 76.8474H74.1555L73.9542 75.3511H75.2075V76.8474ZM77.8954 75.1316H75.4451V72.6722H77.8954V75.1316ZM75.2075 75.1316H73.9234L73.5933 72.6722H75.2075V75.1316Z" fill="#7389A9"/>
<path d="M75.4452 82.2959V79.2688H77.8955V82.2959H75.4452ZM72.2349 82.2959V79.2688H75.2076V82.2959H72.2349ZM72.2349 75.3511H75.2076V79.0493H72.2349V75.3511ZM75.2076 72.6722V75.1317H72.2349V72.6722H75.2076ZM75.4452 75.3511H77.8955V79.0493H75.4452V75.3511ZM77.8955 75.1317H75.4452V72.6722H77.8955V75.1317ZM78.251 72.3421H71.8794V82.6242H78.251V72.3421Z" fill="#E5E5DA"/>
<path d="M92.748 83.7723H100.543V71.1941H92.748V83.7723Z" fill="#EDDDD3"/>
<path d="M93.6387 82.4591H99.653V72.5072H93.6387V82.4591Z" fill="#87A1C6"/>
<path d="M94.9228 82.6242H93.4609V72.3421H99.8308V76.8474H99.653V72.5072H93.6387V82.4591H94.9228V82.6242Z" fill="#B1ADB1"/>
<path d="M94.9228 82.4591H93.6387V72.5072H99.653V76.8474H94.9228V82.4591Z" fill="#7389A9"/>
<path d="M97.0249 82.2959V79.2688H99.4753V82.2959H97.0249ZM93.8164 82.2959V79.2688H96.7873V82.2959H93.8164ZM93.8164 75.3511H96.7873V79.0493H93.8164V75.3511ZM96.7873 72.6722V75.1317H93.8164V72.6722H96.7873ZM97.0249 75.3511H99.4753V79.0493H97.0249V75.3511ZM99.4753 75.1317H97.0249V72.6722H99.4753V75.1317ZM99.8308 72.3421H93.4609V82.6242H99.8308V72.3421Z" fill="#E5E5DA"/>
<path d="M25.0596 89.2643L25.8413 97.631H103.046L103.469 89.2643C99.2049 89.2643 26.574 89.2643 25.0596 89.2643Z" fill="#990B3A"/>
<path d="M75.8258 89.2643C72.6917 89.2643 69.4505 89.2643 66.1895 89.2643V50.1856L70.5587 50.1366L70.8925 52.6087V64.895H72.5466L73.3936 71.1941H71.1681V83.7723H75.0876L75.8258 89.2643Z" fill="#7A3305"/>
<path d="M66.1895 47.7552V47.2818L66.9131 47.7552H66.1895Z" fill="#351C31"/>
<path d="M66.1895 50.1856V47.757H66.9168L70.5587 50.1366L66.1895 50.1856Z" fill="#552508"/>
<path d="M66.9168 47.757H66.1895V47.7552H66.9131L66.9168 47.757Z" fill="#34191D"/>
<path d="M72.5467 64.895H70.8926V52.6087L71.6036 57.8939V63.7469H72.3907L72.5467 64.895Z" fill="#A0867B"/>
<path d="M72.3471 63.4167H71.959V60.5347L72.3471 63.4167Z" fill="#5A5763"/>
<path d="M72.3907 63.7469H71.6035V57.894L71.959 60.5347V63.4168H72.3471L72.3907 63.7469Z" fill="#9B8B7F"/>
<path d="M75.0874 83.7723H71.168V71.1941H73.3934L73.5476 72.3422H71.879V82.6242H74.9315L75.0874 83.7723Z" fill="#A0867B"/>
<path d="M74.8881 82.2959H73.3428V79.2688H74.48L74.8881 82.2959ZM74.451 79.0493H73.3428V76.8474H74.1553L74.451 79.0493Z" fill="#666474"/>
<path d="M73.3431 82.2959H72.2349V79.2688H73.3431V82.2959ZM73.3431 79.0493H72.2349V75.3511H73.9543L74.1556 76.8474H73.3431V79.0493ZM73.9234 75.1316H72.2349V72.6722H73.5933L73.9234 75.1316Z" fill="#5A5763"/>
<path d="M74.9319 82.6242H71.8794V72.3421H73.548L73.5934 72.6722H72.2349V75.1317H73.9235L73.9543 75.3511H72.2349V79.0493H74.4513L74.4803 79.2688H72.2349V82.2959H74.8884L74.9319 82.6242Z" fill="#9B8B7F"/>
<path d="M81.958 97.631H66.1895V89.2643C69.4505 89.2643 72.6917 89.2643 75.8258 89.2643H80.0391L81.958 97.631Z" fill="#700F24"/>
<path d="M49.8317 29.3041L31.0977 47.4233V90.9855H66.1897V47.4233L49.8317 29.3041Z" fill="#E27954"/>
<path d="M61.0132 46.569V45.1579C61.1383 45.3629 61.2109 45.6059 61.2109 45.8635C61.2109 46.121 61.1383 46.3622 61.0132 46.569Z" fill="#E45E33"/>
<path d="M52.2983 51.2829H51.3969C50.6442 51.2829 50.0293 50.668 50.0293 49.9171C50.0293 49.1644 50.6442 48.5496 51.3969 48.5496H52.2983V51.2829Z" fill="#E45E33"/>
<path d="M37.9589 68.0182H33.898C33.1471 68.0182 32.5322 67.4033 32.5322 66.6506C32.5322 65.8998 33.1471 65.2831 33.898 65.2831H37.9589V68.0182Z" fill="#E45E33"/>
<path d="M37.9591 71.2285H37.6635C36.9108 71.2285 36.2959 70.6136 36.2959 69.8609C36.2959 69.1101 36.9108 68.4952 37.6635 68.4952H37.9591V71.2285Z" fill="#E45E33"/>
<path d="M61.775 53.6824H61.0132V50.9491H61.775C62.5277 50.9491 63.1425 51.564 63.1425 52.3167C63.1425 53.0676 62.5277 53.6824 61.775 53.6824Z" fill="#E45E33"/>
<path d="M60.2096 57.9973H58.5482C57.7973 57.9973 57.1807 57.3824 57.1807 56.6316C57.1807 55.8789 57.7973 55.264 58.5482 55.264H60.2096C60.9605 55.264 61.5772 55.8789 61.5772 56.6316C61.5772 57.3824 60.9605 57.9973 60.2096 57.9973Z" fill="#E45E33"/>
<path d="M61.0132 50.4576V47.7225C61.7623 47.7261 62.3753 48.3392 62.3753 49.0901C62.3753 49.8409 61.7623 50.454 61.0132 50.4576Z" fill="#E45E33"/>
<path d="M51.5221 47.231H49.8607C49.1098 47.231 48.4932 46.6143 48.4932 45.8634C48.4932 45.1107 49.1098 44.4959 49.8607 44.4959H51.5221C51.8105 44.4959 52.0771 44.5866 52.2984 44.7407V46.9861C52.0771 47.1403 51.8105 47.231 51.5221 47.231Z" fill="#E45E33"/>
<path d="M34.5125 61.8769H32.8511C32.1002 61.8769 31.4854 61.262 31.4854 60.5093C31.4854 59.7584 32.1002 59.1436 32.8511 59.1436H34.5125C35.2652 59.1436 35.88 59.7584 35.88 60.5093C35.88 61.262 35.2652 61.8769 34.5125 61.8769Z" fill="#E45E33"/>
<path d="M37.9591 64.8061H37.0033C36.2524 64.8061 35.6357 64.1912 35.6357 63.4403C35.6357 62.6876 36.2524 62.0728 37.0033 62.0728H37.9591V64.8061Z" fill="#E45E33"/>
<path d="M47.8891 51.4751H46.2278C46.1226 51.4751 46.0192 51.4625 45.9194 51.4407V48.7763C46.0192 48.7545 46.1226 48.7419 46.2278 48.7419H47.8891C48.6418 48.7419 49.2567 49.3567 49.2567 50.1076C49.2567 50.8603 48.6418 51.4751 47.8891 51.4751Z" fill="#E45E33"/>
<path d="M63.9733 62.314H62.3119C61.5592 62.314 60.9443 61.6973 60.9443 60.9464C60.9443 60.1937 61.5592 59.5789 62.3119 59.5789H63.9733C64.7242 59.5789 65.339 60.1937 65.339 60.9464C65.339 61.6973 64.7242 62.314 63.9733 62.314Z" fill="#E45E33"/>
<path d="M34.5125 71.2285H32.8511C32.1002 71.2285 31.4854 70.6136 31.4854 69.8609C31.4854 69.1101 32.1002 68.4952 32.8511 68.4952H34.5125C35.2652 68.4952 35.88 69.1101 35.88 69.8609C35.88 70.6136 35.2652 71.2285 34.5125 71.2285Z" fill="#E45E33"/>
<path d="M64.5101 53.6824C63.7574 53.6824 63.1426 53.0676 63.1426 52.3167C63.1426 51.564 63.7574 50.9491 64.5101 50.9491C65.261 50.9491 65.8759 51.564 65.8759 52.3167C65.8759 53.0676 65.261 53.6824 64.5101 53.6824Z" fill="#E45E33"/>
<path d="M33.6821 64.8061C32.9313 64.8061 32.3164 64.1912 32.3164 63.4403C32.3164 62.6876 32.9313 62.0728 33.6821 62.0728C34.4348 62.0728 35.0497 62.6876 35.0497 63.4403C35.0497 64.1912 34.4348 64.8061 33.6821 64.8061Z" fill="#E45E33"/>
<path d="M47.3288 31.7272H47.2798L49.8081 29.3277L47.3288 31.7272Z" fill="#B5ACA6"/>
<path d="M35.7496 42.9234H35.4775L47.2795 31.7272H47.3285L35.7496 42.9234Z" fill="#5A4274"/>
<path d="M31.0977 47.4232V47.0786L35.4778 42.9234H35.7499L31.0977 47.4232Z" fill="#504050"/>
<path d="M52.2656 31.7272H52.0189L49.8315 29.3041H49.8334L52.2656 31.7272Z" fill="#B5ACA6"/>
<path d="M55.583 35.6739L52.019 31.7272H52.2657L56.0165 35.4617L55.583 35.6739Z" fill="#5A4274"/>
<path d="M31.0977 50.1076V47.4233L35.7499 42.9234L47.3287 31.7272L49.8081 29.3277L49.8335 29.3041L52.0191 31.7272L55.583 35.6739L49.556 38.6375L45.9195 42.7184V42.6314H37.2045V49.8591L31.0977 50.1076Z" fill="#A66A52"/>
<path d="M37.2041 55.264H45.9191V42.6314H37.2041V55.264Z" fill="#F9E1D9"/>
<path d="M38.6914 53.1075H44.8254V43.9608H38.6914V53.1075Z" fill="#87A1C6"/>
<path d="M44.5282 52.8318H38.9891V44.2347H44.5282V52.8318ZM38.396 43.687V53.3814H45.1213V43.687H38.396Z" fill="#1C0B06"/>
<path d="M39.8324 53.5428H38.1982V43.5255H45.3208V47.913H45.1213V43.687H38.3959V53.3814H39.8324V53.5428Z" fill="#B9B0B5"/>
<path d="M39.8326 52.8318H38.9893V44.2347H44.5284V47.913H39.8326V52.8318Z" fill="#7389A9"/>
<path d="M39.8325 53.3814H38.396V43.687H45.1213V47.913H44.5282V44.2347H38.9891V52.8318H39.8325V53.3814Z" fill="#312D34"/>
<path d="M42.1829 53.2218V50.2726H44.9234V53.2218H42.1829ZM38.5953 53.2218V50.2726H41.9181V53.2218H38.5953ZM38.5953 46.4565H41.9181V50.0586H38.5953V46.4565ZM41.9181 43.8466V46.2425H38.5953V43.8466H41.9181ZM42.1829 46.4565H44.9234V50.0586H42.1829V46.4565ZM44.9234 46.2425H42.1829V43.8466H44.9234V46.2425ZM45.3206 43.5255H38.1963V53.5428H45.3206V43.5255Z" fill="#E5E5DA"/>
<path d="M47.4211 55.264H36.0962V54.1449H47.4211V55.264Z" fill="#563926"/>
<path d="M46.79 42.9234H36.4336V42.2287H46.79V42.9234Z" fill="#563926"/>
<path d="M46.1168 42.2287H36.8486V41.9712H46.1168V42.2287Z" fill="#8E5536"/>
<path d="M52.2983 55.264H61.0133V42.6314H52.2983V55.264Z" fill="#F9E1D9"/>
<path d="M53.7852 53.1075H59.9174V43.9608H53.7852V53.1075Z" fill="#87A1C6"/>
<path d="M59.622 52.8318H54.081V44.2347H59.622V52.8318ZM53.4897 43.687V53.3814H60.2151V43.687H53.4897Z" fill="#1C0B06"/>
<path d="M54.9242 53.5428H53.29V43.5255H60.4144V47.913H60.2149V43.687H53.4895V53.3814H54.9242V53.5428Z" fill="#B9B0B5"/>
<path d="M54.9244 52.8318H54.0811V44.2347H59.622V47.913H54.9244V52.8318Z" fill="#7389A9"/>
<path d="M54.9244 53.3814H53.4897V43.687H60.2151V47.913H59.622V44.2347H54.081V52.8318H54.9244V53.3814Z" fill="#312D34"/>
<path d="M57.2766 53.2218V50.2726H60.0154V53.2218H57.2766ZM53.6872 53.2218V50.2726H57.01V53.2218H53.6872ZM53.6872 46.4565H57.01V50.0586H53.6872V46.4565ZM57.01 43.8466V46.2425H53.6872V43.8466H57.01ZM57.2766 46.4565H60.0154V50.0586H57.2766V46.4565ZM60.0154 46.2425H57.2766V43.8466H60.0154V46.2425ZM60.4144 43.5255H53.29V53.5428H60.4144V43.5255Z" fill="#E5E5DA"/>
<path d="M62.5152 55.264H51.1885V54.1449H62.5152V55.264Z" fill="#563926"/>
<path d="M61.8819 42.9234H51.5273V42.2287H61.8819V42.9234Z" fill="#563926"/>
<path d="M61.211 42.2287H51.9429V41.9712H61.211V42.2287Z" fill="#8E5536"/>
<path d="M52.2983 74.6637H61.0133V62.031H52.2983V74.6637Z" fill="#F9E1D9"/>
<path d="M53.7852 72.5072H59.9174V63.3605H53.7852V72.5072Z" fill="#87A1C6"/>
<path d="M59.622 72.2315H54.081V63.6362H59.622V72.2315ZM53.4897 63.0866V72.781H60.2151V63.0866H53.4897Z" fill="#1C0B06"/>
<path d="M54.9242 72.9424H53.29V62.9252H60.4144V67.3126H60.2149V63.0866H53.4895V72.781H54.9242V72.9424Z" fill="#B9B0B5"/>
<path d="M54.9244 72.2315H54.0811V63.6362H59.622V67.3126H54.9244V72.2315Z" fill="#7389A9"/>
<path d="M54.9244 72.781H53.4897V63.0866H60.2151V67.3126H59.622V63.6362H54.081V72.2315H54.9244V72.781Z" fill="#312D34"/>
<path d="M57.2766 72.6214V69.6723H60.0154V72.6214H57.2766ZM53.6872 72.6214V69.6723H57.01V72.6214H53.6872ZM53.6872 65.8562H57.01V69.4583H53.6872V65.8562ZM57.01 63.2462V65.6422H53.6872V63.2462H57.01ZM57.2766 65.8562H60.0154V69.4583H57.2766V65.8562ZM60.0154 65.6422H57.2766V63.2462H60.0154V65.6422ZM60.4144 62.9252H53.29V72.9424H60.4144V62.9252Z" fill="#E5E5DA"/>
<path d="M62.5152 74.6637H51.1885V73.5446H62.5152V74.6637Z" fill="#563926"/>
<path d="M61.8819 62.323H51.5273V61.6284H61.8819V62.323Z" fill="#563926"/>
<path d="M61.211 61.6284H51.9429V61.3709H61.211V61.6284Z" fill="#8E5536"/>
<path d="M37.959 74.6637H46.674V62.031H37.959V74.6637Z" fill="#F9E1D9"/>
<path d="M39.4463 72.5072H45.5785V63.3605H39.4463V72.5072Z" fill="#87A1C6"/>
<path d="M45.2825 72.2315H39.7415V63.6362H45.2825V72.2315ZM39.1484 63.0866V72.781H45.8756V63.0866H39.1484Z" fill="#1C0B06"/>
<path d="M40.5852 72.9424H38.9492V62.9252H46.0736V67.3126H45.8759V63.0866H39.1487V72.781H40.5852V72.9424Z" fill="#B9B0B5"/>
<path d="M40.5851 72.2315H39.7417V63.6362H45.2827V67.3126H40.5851V72.2315Z" fill="#7389A9"/>
<path d="M40.5849 72.781H39.1484V63.0866H45.8756V67.3126H45.2825V63.6362H39.7415V72.2315H40.5849V72.781Z" fill="#312D34"/>
<path d="M42.9359 72.6214V69.6723H45.6765V72.6214H42.9359ZM39.3484 72.6214V69.6723H42.6711V72.6214H39.3484ZM39.3484 65.8562H42.6711V69.4583H39.3484V65.8562ZM42.6711 63.2462V65.6422H39.3484V63.2462H42.6711ZM42.9359 65.8562H45.6765V69.4583H42.9359V65.8562ZM45.6765 65.6422H42.9359V63.2462H45.6765V65.6422ZM46.0737 62.9252H38.9512V72.9424H46.0737V62.9252Z" fill="#E5E5DA"/>
<path d="M48.1754 74.6637H36.8486V73.5446H48.1754V74.6637Z" fill="#563926"/>
<path d="M47.5426 62.323H37.188V61.6284H47.5426V62.323Z" fill="#563926"/>
<path d="M46.8715 61.6284H37.6016V61.3709H46.8715V61.6284Z" fill="#8E5536"/>
<path d="M37.959 89.8247H46.674V77.1902H37.959V89.8247Z" fill="#F9E1D9"/>
<path d="M39.4463 87.6664H45.5785V78.5215H39.4463V87.6664Z" fill="#87A1C6"/>
<path d="M45.2825 87.3925H39.7415V78.7954H45.2825V87.3925ZM39.1484 78.2458V87.942H45.8756V78.2458H39.1484Z" fill="#1C0B06"/>
<path d="M40.5852 88.1016H38.9492V78.0862H46.0736V82.4736H45.8759V78.2458H39.1487V87.942H40.5852V88.1016Z" fill="#B9B0B5"/>
<path d="M40.5851 87.3925H39.7417V78.7954H45.2827V82.4736H40.5851V87.3925Z" fill="#7389A9"/>
<path d="M40.5849 87.942H39.1484V78.2458H45.8756V82.4736H45.2825V78.7954H39.7415V87.3925H40.5849V87.942Z" fill="#312D34"/>
<path d="M42.9359 87.7806V84.8333H45.6765V87.7806H42.9359ZM39.3484 87.7806V84.8333H42.6711V87.7806H39.3484ZM39.3484 81.0154H42.6711V84.6193H39.3484V81.0154ZM42.6711 78.4072V80.8014H39.3484V78.4072H42.6711ZM42.9359 81.0154H45.6765V84.6193H42.9359V81.0154ZM45.6765 80.8014H42.9359V78.4072H45.6765V80.8014ZM46.0737 78.0862H38.9512V88.1016H46.0737V78.0862Z" fill="#E5E5DA"/>
<path d="M48.1754 89.8247H36.8486V88.7056H48.1754V89.8247Z" fill="#563926"/>
<path d="M47.5426 77.484H37.188V76.7876H47.5426V77.484Z" fill="#563926"/>
<path d="M46.8715 76.7876H37.6016V76.5318H46.8715V76.7876Z" fill="#8E5536"/>
<path d="M52.6284 89.8247H61.3434V77.1902H52.6284V89.8247Z" fill="#F9E1D9"/>
<path d="M54.1157 87.6664H60.248V78.5215H54.1157V87.6664Z" fill="#87A1C6"/>
<path d="M59.9524 87.3925H54.4114V78.7954H59.9524V87.3925ZM53.8184 78.2458V87.942H60.5455V78.2458H53.8184Z" fill="#1C0B06"/>
<path d="M55.2543 88.1016H53.6201V78.0862H60.7426V82.4736H60.5449V78.2458H53.8178V87.942H55.2543V88.1016Z" fill="#B9B0B5"/>
<path d="M55.2545 87.3925H54.4111V78.7954H59.9521V82.4736H55.2545V87.3925Z" fill="#7389A9"/>
<path d="M55.2548 87.942H53.8184V78.2458H60.5455V82.4736H59.9524V78.7954H54.4114V87.3925H55.2548V87.942Z" fill="#312D34"/>
<path d="M57.6049 87.7806V84.8333H60.3454V87.7806H57.6049ZM54.0173 87.7806V84.8333H57.3401V87.7806H54.0173ZM54.0173 81.0154H57.3401V84.6193H54.0173V81.0154ZM57.3401 78.4072V80.8014H54.0173V78.4072H57.3401ZM57.6049 81.0154H60.3454V84.6193H57.6049V81.0154ZM60.3454 80.8014H57.6049V78.4072H60.3454V80.8014ZM60.7426 78.0862H53.6201V88.1016H60.7426V78.0862Z" fill="#E5E5DA"/>
<path d="M62.8453 89.8247H51.5186V88.7056H62.8453V89.8247Z" fill="#563926"/>
<path d="M62.212 77.484H51.8574V76.7876H62.212V77.484Z" fill="#563926"/>
<path d="M61.541 76.7876H52.271V76.5318H61.541V76.7876Z" fill="#8E5536"/>
<path d="M49.4379 39.9362C47.5407 39.9362 45.999 38.507 45.999 36.7495C45.999 34.9938 47.5407 33.5645 49.4379 33.5645C51.3332 33.5645 52.8767 34.9938 52.8767 36.7495C52.8767 38.507 51.3332 39.9362 49.4379 39.9362Z" fill="#6D5C50"/>
<path d="M49.4379 39.9362C47.5407 39.9362 45.999 38.507 45.999 36.7495C45.999 34.9938 47.5407 33.5645 49.4379 33.5645C51.3332 33.5645 52.8767 34.9938 52.8767 36.7495C52.8767 38.507 51.3332 39.9362 49.4379 39.9362Z" fill="#6D5C50"/>
<path d="M48.7596 34.4805C50.655 34.4805 52.1985 35.9097 52.1985 37.6654C52.1985 38.1333 52.0878 38.5795 51.8901 38.9803C52.4996 38.4054 52.8768 37.6182 52.8768 36.7495C52.8768 34.9938 51.3333 33.5645 49.438 33.5645C48.0468 33.5645 46.848 34.3336 46.3057 35.4363C46.9314 34.8469 47.8002 34.4805 48.7596 34.4805Z" fill="#3D2F26"/>
<path d="M49.4382 39.7167C47.6716 39.7167 46.2369 38.3854 46.2369 36.7494C46.2369 35.1153 47.6716 33.784 49.4382 33.784C51.2029 33.784 52.6394 35.1153 52.6394 36.7494C52.6394 38.3854 51.2029 39.7167 49.4382 39.7167ZM49.4382 33.3451C47.4086 33.3451 45.7617 34.8686 45.7617 36.7494C45.7617 38.6303 47.4086 40.1556 49.4382 40.1556C51.4677 40.1556 53.1128 38.6303 53.1128 36.7494C53.1128 34.8686 51.4677 33.3451 49.4382 33.3451Z" fill="#E5E5DA"/>
<path d="M29.9478 90.9982L31.0977 97.631H66.1916L67.1547 90.9855L29.9478 90.9982Z" fill="#B21652"/>
<path d="M30.2957 49.5943L29.0352 48.3011L49.8768 28L67.9579 48.1379L66.6139 49.3458L49.7879 30.6081L30.2957 49.5943Z" fill="#322251"/>
<path d="M25.8412 78.1352C25.8412 85.2323 22.6726 90.9855 18.7658 90.9855C14.8572 90.9855 11.6904 85.2323 11.6904 78.1352C11.6904 71.038 15.0749 59.1436 18.9834 59.1436C22.8902 59.1436 25.8412 71.038 25.8412 78.1352Z" fill="#93AA31"/>
<path d="M123.483 73.59C123.483 81.0172 117.474 87.037 110.065 87.037C102.653 87.037 96.6455 81.0172 96.6455 73.59C96.6455 66.1646 102.653 60.1448 110.065 60.1448C117.474 60.1448 123.483 66.1646 123.483 73.59Z" fill="#67AD2A"/>
<path d="M99.4169 75.2223C99.4169 67.7969 105.424 61.7771 112.837 61.7771C114.739 61.7771 116.551 62.1762 118.194 62.8926C115.938 61.1695 113.12 60.1448 110.065 60.1448C102.653 60.1448 96.6455 66.1646 96.6455 73.59C96.6455 79.1073 99.9628 83.8466 104.706 85.9197C101.492 83.4639 99.4169 79.5862 99.4169 75.2223Z" fill="#95D656"/>
<path d="M115.293 76.3559C115.144 76.2054 114.903 76.2072 114.749 76.3559L111.147 79.9906V73.3615L113.793 69.3839C113.867 69.266 113.835 69.1083 113.719 69.0303C113.602 68.9523 113.445 68.9831 113.367 69.101L111.147 72.4383V68.789C111.147 68.4716 110.891 68.2141 110.575 68.2141C110.254 68.2141 110 68.4716 110 68.789V76.8638L106.823 73.7768C106.67 73.6299 106.429 73.6335 106.282 73.7859C106.135 73.9382 106.139 74.1794 106.29 74.3264L110 77.9302V98.3511C110 98.6685 110.254 98.9242 110.575 98.9242C110.891 98.9242 111.147 98.6685 111.147 98.3511V81.0771L115.293 76.8964C115.442 76.7477 115.442 76.5047 115.293 76.3559Z" fill="#351007"/>
<path d="M23.4855 78.5705C23.3368 78.4363 23.0938 78.4363 22.9451 78.5723L19.3412 81.8479V75.8698L21.9838 72.2823C22.0618 72.1771 22.0309 72.0338 21.913 71.963C21.797 71.8941 21.6374 71.9213 21.5594 72.0283L19.3412 75.0391V71.7472C19.3412 71.4606 19.0836 71.2285 18.768 71.2285C18.4506 71.2285 18.1949 71.4606 18.1949 71.7472V79.0293L15.0154 76.2453C14.8649 76.1129 14.6218 76.1165 14.4749 76.2525C14.328 76.3904 14.3316 76.608 14.484 76.7422L18.1949 79.9906V98.4073C18.1949 98.692 18.4506 98.9242 18.768 98.9242C19.0836 98.9242 19.3412 98.692 19.3412 98.4073V82.8291L23.4874 79.0584C23.6361 78.9242 23.6361 78.7047 23.4855 78.5705Z" fill="#351007"/>
<mask id="mask0_25_100" style="mask-type:alpha" maskUnits="userSpaceOnUse" x="2" y="97" width="124" height="4">
<path d="M2 97.3299H125.871V100.58H2V97.3299Z" fill="black"/>
</mask>
<g mask="url(#mask0_25_100)">
<path d="M125.871 100.199H2.11426V97.631H125.871V100.199Z" fill="#4F1D12"/>
</g>
<path d="M24.7041 47.757L25.8413 48.2267V47.757H24.7041Z" fill="#282320"/>
</svg>
