<svg width="128" height="128" viewBox="0 0 128 128" fill="none" xmlns="http://www.w3.org/2000/svg">
<path d="M110.516 53.5497C109.972 54.3497 109.075 55.0728 107.927 55.7236C107.772 55.8125 107.612 55.8989 107.447 55.9857C101.568 59.0461 90.0599 60.458 83.9556 60.9057C58.826 62.7428 44.7512 61.53 35.1268 59.6785C31.2606 58.9352 27.9967 57.9336 25.3776 56.87C24.8356 56.6505 24.3279 56.4269 23.8524 56.2033C20.3106 54.5389 18.5698 52.8364 17.7599 51.7105C17.3207 51.0997 15.5115 48.7489 16.126 45.6844C17.5545 38.538 27.0901 36.3885 27.0901 36.3885C28.1801 29.9857 36.9238 26.8869 40.8467 30.6664C41.5276 27.8077 42.1723 24.4328 46.3084 22.2428C49.804 20.3913 54.2828 19.5169 60.5948 23.8708C60.5948 23.8708 73.0235 9.538 84.7835 25.6621C84.7835 25.6621 87.7071 22.9541 93.9668 24.1289C95.9253 24.4972 99.586 28.1141 99.9948 31.2808C99.9948 31.2808 104.899 29.9192 107.758 34.14C111.275 39.3341 107.451 43.7421 107.451 43.7421C107.451 43.7421 115.726 45.8877 110.516 53.5497Z" fill="#8FD1E3"/>
<path d="M107.927 55.7236C107.772 55.8125 107.613 55.8989 107.447 55.9856C101.568 59.0461 90.06 60.458 83.9557 60.9056C58.8261 62.7428 44.7513 61.53 35.1269 59.6785C31.2607 58.9352 27.9968 57.9336 25.3777 56.87C24.8357 56.6505 24.328 56.4269 23.8525 56.2033C19.799 48.7708 25.9035 44.0585 31.7543 45.1725C31.7543 45.1725 33.6622 34.6861 44.8318 40.4056C44.8318 40.4056 47.2836 26.1052 61.5841 35.23C61.5841 35.23 67.7141 23.5152 80.1085 35.0941C80.1085 35.0941 89.5069 27.6025 93.8661 39.8597C93.8661 39.8597 100.676 37.1356 102.31 43.2664C102.31 43.2664 102.65 46.9436 101.288 49.6672C101.288 49.6672 108.809 49.5544 107.927 55.7236Z" fill="#C5EBED"/>
<path d="M48.7533 83.7997L46.4356 79.3677L43.8739 83.9697H43.8883C43.6823 84.3544 43.5625 84.7925 43.5564 85.2589C43.5361 86.8128 44.7797 88.0892 46.3336 88.1092C47.8876 88.1297 49.1641 86.8861 49.1841 85.3321C49.1917 84.7692 49.0325 84.2433 48.7533 83.7997Z" fill="#8FD1E3"/>
<path d="M46.1434 70.9021L44.5709 67.6808L42.8276 71.029H42.8373C42.6971 71.309 42.6154 71.6273 42.611 71.9665C42.5963 73.0965 43.4404 74.0237 44.4965 74.0377C45.5526 74.0513 46.4201 73.1465 46.4349 72.0162C46.4406 71.6069 46.3326 71.2244 46.1434 70.9021Z" fill="#8FD1E3"/>
<path d="M58.7279 73.0649L56.8586 69.7185L54.993 73.2977H55.0043C54.8547 73.5965 54.7719 73.9349 54.7771 74.2921C54.7943 75.4829 55.7738 76.4344 56.9647 76.4173C58.1558 76.4001 59.1074 75.4208 59.0902 74.2298C59.0838 73.7985 58.9507 73.3985 58.7279 73.0649Z" fill="#8FD1E3"/>
<path d="M63.4278 89.3597L61.6514 85.9636L59.6883 89.49L59.6994 89.4905C59.5414 89.7852 59.4499 90.1208 59.445 90.478C59.4294 91.6692 60.3827 92.6472 61.5735 92.6628C62.7642 92.678 63.7427 91.7252 63.7578 90.5344C63.7635 90.1028 63.6414 89.6997 63.4278 89.3597Z" fill="#8FD1E3"/>
<path d="M37.3677 88.0893L35.0497 83.6577L32.488 88.2593L32.5024 88.2597C32.2966 88.6444 32.1766 89.0826 32.1707 89.549C32.1503 91.1029 33.3938 92.379 34.9478 92.3993C36.5019 92.4197 37.7783 91.1762 37.7985 89.6221C37.8058 89.059 37.6466 88.5329 37.3677 88.0893Z" fill="#8FD1E3"/>
<path d="M57.042 70.8313C57.042 70.8313 57.9961 72.4952 58.1736 73.2133C58.3032 73.7393 58.5032 74.2029 58.3848 74.6229C58.3704 74.6749 58.3068 74.7521 58.2312 74.8249C58.134 74.9185 57.972 74.8541 57.9653 74.7193C57.9417 74.2649 57.8276 73.4336 57.7004 73.0097C57.5196 72.4069 57.042 70.8313 57.042 70.8313Z" fill="#B4E7EF"/>
<path d="M35.2207 85.3657C35.2207 85.3657 36.3988 87.5585 36.6035 88.4969C36.7534 89.1836 36.9963 89.7921 36.8277 90.3333C36.8068 90.4 36.7218 90.498 36.6209 90.5897C36.4916 90.7077 36.2838 90.618 36.2796 90.4433C36.2651 89.8525 36.147 88.77 35.9971 88.2152C35.7841 87.4269 35.2207 85.3657 35.2207 85.3657Z" fill="#B4E7EF"/>
<path d="M46.2119 80.8905C46.2119 80.8905 47.3902 83.0833 47.595 84.0213C47.7447 84.708 47.9874 85.3169 47.8191 85.8577C47.7983 85.9244 47.713 86.0225 47.6122 86.1144C47.483 86.2321 47.275 86.1428 47.271 85.968C47.2563 85.3772 47.1383 84.2949 46.9883 83.74C46.7755 82.9516 46.2119 80.8905 46.2119 80.8905Z" fill="#B4E7EF"/>
<path d="M33.9421 75.2465L32.2189 71.9521L30.3147 75.3729H30.3255C30.1724 75.659 30.0833 75.9844 30.0788 76.3313C30.0638 77.4865 30.988 78.4352 32.1433 78.4501C33.2985 78.4652 34.2472 77.5408 34.2622 76.3857C34.2677 75.9672 34.1494 75.5762 33.9421 75.2465Z" fill="#8FD1E3"/>
<path d="M32.0527 73.0836C32.0527 73.0836 32.9285 74.7136 33.0807 75.4113C33.1921 75.9216 33.3726 76.3741 33.2473 76.7764C33.2318 76.8261 33.1687 76.8989 33.0935 76.9672C32.9974 77.0549 32.843 76.988 32.8398 76.8585C32.8291 76.4192 32.7413 75.6144 32.6299 75.2021C32.4715 74.6161 32.0527 73.0836 32.0527 73.0836Z" fill="#B4E7EF"/>
<path d="M44.7124 68.759C44.7124 68.759 45.526 70.3816 45.6668 71.0762C45.7699 71.5844 45.938 72.0349 45.8207 72.4352C45.8063 72.4849 45.7476 72.5573 45.6776 72.6257C45.588 72.7129 45.4444 72.6469 45.4416 72.5173C45.4319 72.0801 45.3507 71.279 45.2476 70.868C45.1007 70.2844 44.7124 68.759 44.7124 68.759Z" fill="#B4E7EF"/>
<path d="M51.36 107.457L50.4405 105.573L49.4208 107.531H49.4264C49.3445 107.695 49.2969 107.881 49.2941 108.079C49.2856 108.741 49.7792 109.283 50.3969 109.291C51.0145 109.299 51.522 108.77 51.5308 108.109C51.5341 107.869 51.4708 107.645 51.36 107.457Z" fill="#8FD1E3"/>
<path d="M50.5234 106.203C50.5234 106.203 50.9994 107.153 51.0819 107.558C51.1422 107.856 51.2402 108.119 51.1719 108.354C51.1634 108.383 51.1291 108.425 51.0883 108.465C51.0358 108.516 50.9519 108.477 50.9498 108.402C50.9442 108.146 50.897 107.677 50.8366 107.437C50.7506 107.096 50.5234 106.203 50.5234 106.203Z" fill="#B4E7EF"/>
<path d="M44.2451 93.4557L43.3254 91.5716L42.3055 93.5297L42.3113 93.53C42.2293 93.6936 42.1815 93.88 42.1788 94.0785C42.1704 94.7393 42.664 95.2816 43.2816 95.2897C43.8993 95.2977 44.4071 94.7685 44.4155 94.1072C44.4187 93.868 44.3555 93.6441 44.2451 93.4557Z" fill="#8FD1E3"/>
<path d="M43.4077 92.2021C43.4077 92.2021 43.8837 93.1513 43.9662 93.5572C44.0265 93.8549 44.1247 94.118 44.0562 94.3526C44.0477 94.3816 44.0133 94.4241 43.9724 94.4636C43.9201 94.5149 43.836 94.4761 43.8343 94.4005C43.8287 94.1444 43.7813 93.6761 43.7208 93.4357C43.6349 93.0944 43.4077 92.2021 43.4077 92.2021Z" fill="#B4E7EF"/>
<path d="M60.9866 101.183L59.7571 98.6636L58.3935 101.282L58.401 101.283C58.2915 101.501 58.2274 101.751 58.2243 102.016C58.2127 102.899 58.8727 103.624 59.6986 103.635C60.5247 103.646 61.2035 102.938 61.2151 102.054C61.2191 101.734 61.1347 101.435 60.9866 101.183Z" fill="#8FD1E3"/>
<path d="M59.8672 99.507C59.8672 99.507 60.5036 100.776 60.6141 101.319C60.6948 101.717 60.8261 102.069 60.7345 102.382C60.7233 102.421 60.6772 102.478 60.6225 102.531C60.5525 102.599 60.44 102.548 60.4377 102.446C60.4305 102.104 60.3669 101.478 60.2861 101.156C60.1712 100.7 59.8672 99.507 59.8672 99.507Z" fill="#B4E7EF"/>
<path d="M53.7247 97.46L51.9483 94.0641L49.985 97.5905H49.9958C49.8383 97.8852 49.7463 98.2213 49.7419 98.5785C49.7263 99.7697 50.6791 100.748 51.8702 100.763C53.061 100.778 54.0391 99.8256 54.0547 98.6349C54.0602 98.2033 53.9383 97.8 53.7247 97.46Z" fill="#8FD1E3"/>
<path d="M51.9819 95.4025C51.9819 95.4025 52.8122 96.948 52.9566 97.6097C53.0622 98.0936 53.2335 98.5225 53.1147 98.9036C53.0999 98.9508 53.0399 99.02 52.9687 99.0849C52.8774 99.1677 52.731 99.1049 52.7283 98.9816C52.7179 98.5652 52.6347 97.8021 52.5291 97.4113C52.3791 96.8552 51.9819 95.4025 51.9819 95.4025Z" fill="#B4E7EF"/>
<path d="M61.8154 87.4221C61.8154 87.4221 62.6457 88.9677 62.7901 89.6289C62.8957 90.1133 63.067 90.5421 62.9482 90.9233C62.9334 90.9705 62.8734 91.0397 62.8021 91.1044C62.7114 91.1872 62.5646 91.1241 62.5618 91.0013C62.5518 90.5849 62.4682 89.8216 62.3626 89.4308C62.2126 88.8749 61.8154 87.4221 61.8154 87.4221Z" fill="#B4E7EF"/>
<path d="M83.0374 78.5241L80.4679 74.2333L78.1758 78.9749L78.1902 78.9744C78.0066 79.3705 77.9122 79.8144 77.933 80.2805C78.0022 81.8333 79.3174 83.0357 80.8699 82.9661C82.4227 82.8969 83.625 81.5821 83.5558 80.0293C83.5307 79.4669 83.3414 78.9508 83.0374 78.5241Z" fill="#8FD1E3"/>
<path d="M94.0127 71.4177L92.0435 68.1293L90.2868 71.7633L90.298 71.7629C90.1576 72.0661 90.0852 72.4065 90.1007 72.7636C90.154 73.9536 91.1619 74.8752 92.3516 74.8221C93.5416 74.769 94.4632 73.7608 94.4099 72.5713C94.3907 72.1401 94.2455 71.7449 94.0127 71.4177Z" fill="#8FD1E3"/>
<path d="M98.007 83.2293L96.0382 79.9413L94.2815 83.5749L94.2926 83.5744C94.1518 83.878 94.0795 84.2185 94.0954 84.5752C94.1487 85.7652 95.1562 86.6869 96.3462 86.6336C97.5362 86.5805 98.4579 85.5728 98.4047 84.3828C98.3854 83.9521 98.2403 83.5564 98.007 83.2293Z" fill="#8FD1E3"/>
<path d="M79.0429 96.2329L76.747 93.1641L75.3726 96.959L75.3834 96.9572C75.2746 97.2737 75.2377 97.6197 75.2901 97.9733C75.4649 99.1513 76.5621 99.9644 77.7401 99.7897C78.9182 99.6149 79.7318 98.5177 79.5565 97.3397C79.4934 96.9129 79.3085 96.5344 79.0429 96.2329Z" fill="#8FD1E3"/>
<path d="M71.9178 83.4628L69.3482 79.1721L67.0562 83.9136L67.0706 83.9133C66.887 84.3092 66.7926 84.7533 66.8134 85.2192C66.8829 86.7721 68.1978 87.9744 69.7506 87.9052C71.3029 87.8357 72.5057 86.5208 72.4362 84.968C72.4109 84.4057 72.2218 83.8897 71.9178 83.4628Z" fill="#8FD1E3"/>
<path d="M76.7764 93.7057C76.7764 93.7057 78.2896 95.6821 78.6417 96.5757C78.8992 97.2298 79.2364 97.7916 79.1564 98.3526C79.1464 98.4221 79.0781 98.5321 78.9932 98.639C78.8845 98.7762 78.6648 98.7208 78.6328 98.549C78.524 97.968 78.2348 96.9185 77.9981 96.3949C77.662 95.6505 76.7764 93.7057 76.7764 93.7057Z" fill="#B4E7EF"/>
<path d="M74.0618 105.564L71.6318 102.521L70.357 106.419L70.3682 106.417C70.2678 106.741 70.2409 107.094 70.3057 107.451C70.5209 108.643 71.6609 109.433 72.8521 109.218C74.0429 109.003 74.8337 107.863 74.6185 106.672C74.5406 106.24 74.3409 105.862 74.0618 105.564Z" fill="#8FD1E3"/>
<path d="M71.6787 103.07C71.6787 103.07 73.2787 105.029 73.6646 105.925C73.9475 106.581 74.3075 107.141 74.2443 107.713C74.2362 107.784 74.1706 107.898 74.0875 108.009C73.9815 108.152 73.757 108.103 73.7187 107.929C73.5898 107.343 73.2623 106.286 73.0054 105.762C72.6403 105.016 71.6787 103.07 71.6787 103.07Z" fill="#B4E7EF"/>
<path d="M92.2607 69.2361C92.2607 69.2361 93.2645 70.8705 93.4632 71.5829C93.6092 72.1044 93.8228 72.5621 93.7171 72.9852C93.704 73.038 93.6432 73.1169 93.5696 73.1921C93.4753 73.2885 93.3117 73.229 93.3004 73.0944C93.2632 72.6408 93.1245 71.8136 92.9845 71.3933C92.7856 70.7965 92.2607 69.2361 92.2607 69.2361Z" fill="#B4E7EF"/>
<path d="M69.6172 80.8672C69.6172 80.8672 70.9197 82.989 71.1781 83.9137C71.3672 84.5905 71.6448 85.1841 71.5077 85.7341C71.4908 85.8021 71.4117 85.9044 71.3161 86.0021C71.1936 86.1272 70.9813 86.0501 70.9669 85.8757C70.9184 85.2869 70.7381 84.2129 70.5564 83.6677C70.2984 82.8929 69.6172 80.8672 69.6172 80.8672Z" fill="#B4E7EF"/>
<path d="M80.332 75.7661C80.332 75.7661 81.6348 77.8872 81.8933 78.8121C82.0825 79.4892 82.36 80.0828 82.2228 80.6325C82.2056 80.7008 82.1264 80.8033 82.0308 80.9008C81.9089 81.0256 81.6961 80.9485 81.6817 80.7744C81.6333 80.1852 81.4533 79.1116 81.2713 78.5661C81.0133 77.7913 80.332 75.7661 80.332 75.7661Z" fill="#B4E7EF"/>
<path d="M72.4431 73.7692L71.4163 71.9416L70.511 73.9552L70.5167 73.9549C70.4443 74.1228 70.4074 74.3116 70.4163 74.51C70.4459 75.1705 70.9699 75.6833 71.5871 75.6557C72.2038 75.628 72.6803 75.0705 72.6507 74.41C72.6403 74.1708 72.5643 73.9513 72.4431 73.7692Z" fill="#8FD1E3"/>
<path d="M71.5347 72.5662C71.5347 72.5662 72.0647 73.4862 72.1703 73.8869C72.2479 74.1805 72.3606 74.4377 72.3059 74.6757C72.299 74.7049 72.2675 74.7493 72.2287 74.7916C72.1795 74.8452 72.0934 74.8116 72.0875 74.7362C72.067 74.4813 71.9926 74.0162 71.9183 73.7798C71.8131 73.4441 71.5347 72.5662 71.5347 72.5662Z" fill="#B4E7EF"/>
<path d="M79.0926 88.4241L78.0657 86.5961L77.1606 88.6097H77.1662C77.0942 88.7777 77.057 88.9664 77.0657 89.1644C77.0954 89.8249 77.6193 90.338 78.2365 90.3105C78.8537 90.2828 79.3301 89.7252 79.3006 89.0649C79.2898 88.8257 79.2142 88.6057 79.0926 88.4241Z" fill="#8FD1E3"/>
<path d="M78.1851 87.2208C78.1851 87.2208 78.7147 88.1408 78.8207 88.5416C78.8979 88.8349 79.011 89.0925 78.9563 89.33C78.9494 89.3597 78.9174 89.4041 78.8791 89.4461C78.8294 89.5 78.7435 89.4665 78.7374 89.3908C78.7171 89.1357 78.6427 88.6705 78.5687 88.4344C78.463 88.0985 78.1851 87.2208 78.1851 87.2208Z" fill="#B4E7EF"/>
<path d="M96.2518 95.1736L94.879 92.7297L93.6685 95.4221L93.6762 95.4216C93.5793 95.6465 93.5298 95.899 93.5418 96.1641C93.5813 97.0469 94.2821 97.7329 95.1073 97.6961C95.9326 97.6593 96.5693 96.9136 96.5298 96.0305C96.5157 95.7105 96.4142 95.4169 96.2518 95.1736Z" fill="#8FD1E3"/>
<path d="M95.0381 93.5649C95.0381 93.5649 95.7464 94.7952 95.8876 95.3308C95.9912 95.7233 96.1425 96.0672 96.0692 96.3852C96.06 96.4249 96.0171 96.4841 95.9661 96.5405C95.9 96.6125 95.7848 96.5672 95.7768 96.4664C95.7496 96.1252 95.65 95.5036 95.5507 95.1877C95.41 94.7385 95.0381 93.5649 95.0381 93.5649Z" fill="#B4E7EF"/>
<path d="M88.7868 91.8757L86.8181 88.5872L85.0612 92.2213L85.0724 92.2205C84.9317 92.5241 84.8592 92.8644 84.8753 93.2216C84.9284 94.4116 85.936 95.3328 87.126 95.2797C88.316 95.2269 89.2376 94.2189 89.1845 93.0293C89.1653 92.598 89.0199 92.2025 88.7868 91.8757Z" fill="#8FD1E3"/>
<path d="M86.9287 89.9216C86.9287 89.9216 87.8467 91.4169 88.0287 92.069C88.1618 92.5462 88.3579 92.9644 88.2611 93.3516C88.249 93.4001 88.1931 93.4721 88.1259 93.5408C88.0398 93.629 87.8898 93.5744 87.8798 93.4516C87.8459 93.0365 87.7187 92.2798 87.5906 91.8952C87.4087 91.3493 86.9287 89.9216 86.9287 89.9216Z" fill="#B4E7EF"/>
<path d="M96.0181 81.3021C96.0181 81.3021 96.9363 82.7969 97.1184 83.4489C97.2517 83.9261 97.4471 84.3444 97.3507 84.7321C97.3388 84.78 97.2828 84.8521 97.2156 84.9208C97.1292 85.0089 96.9796 84.9544 96.9696 84.8316C96.9353 84.4164 96.8084 83.6597 96.6804 83.2752C96.4984 82.7293 96.0181 81.3021 96.0181 81.3021Z" fill="#B4E7EF"/>
</svg>
