<svg width="128" height="128" viewBox="0 0 128 128" fill="none" xmlns="http://www.w3.org/2000/svg">
<path d="M34.7332 58.5729C34.8126 58.6688 34.9051 58.7771 35.0107 58.895C35.3049 59.2259 35.6278 59.5505 35.9722 59.8625C36.1836 60.0536 36.4005 60.2369 36.622 60.4123C37.1509 59.3483 37.8424 58.469 38.6697 57.8177C38.7153 57.7823 38.7543 57.7523 38.7955 57.722C40.2453 56.6354 41.7441 56.5514 43.1937 56.4702C44.9226 56.3729 46.5555 56.2814 48.723 54.5783C49.8915 53.66 50.8495 52.6283 51.6813 51.5768C50.4382 52.5419 48.9288 53.3891 47.097 54.0131C44.2897 54.9686 41.9395 55.5579 40.0512 56.0315C36.1524 57.0092 35.0487 57.3848 34.7332 58.5729ZM43.8349 101.393C41.1724 101.393 37.8561 100.942 37.1797 98.7905C36.4624 96.5141 37.4107 94.6121 39.9982 93.1377C40.3132 92.9579 40.6365 92.7898 40.9597 92.6282C35.8863 89.9648 31.8871 86.3996 29.0343 81.9941C27.8307 82.3529 26.7169 82.5344 25.7109 82.5344C23.2863 82.5344 21.8952 81.4994 21.1551 80.6312C20.0231 79.3025 19.5629 77.363 19.8927 75.3098C20.0719 74.1929 19.691 73.6781 19.1141 72.8987C18.4834 72.0464 17.5302 70.7582 18.268 68.8873C18.6209 67.9988 19.3067 67.3697 20.2524 67.064C20.6833 66.9239 21.1774 66.8525 21.7181 66.8525C22.3993 66.8525 23.173 66.962 24.0534 67.184C23.6491 63.2195 23.8038 59.0087 24.5169 54.6314C25.4688 48.7902 27.0472 44.8385 27.6888 43.397C27.785 41.456 28.8373 32.9423 39.6897 26.3288C40.0476 26.1125 40.449 26 40.8559 26C41.2485 26 41.6361 26.1046 41.977 26.3033C42.8568 26.8085 43.2891 27.8531 43.0203 28.8386C42.4534 30.9407 42.4011 32.7368 42.8782 33.7619C44.0278 36.224 44.8863 39.8657 44.4351 42.8042C45.5434 42.6293 46.7143 42.5387 47.8887 42.5387C48.2368 42.5387 48.591 42.5465 48.942 42.5618C49.0234 42.5654 49.1055 42.5671 49.1865 42.5671C51.0486 42.5671 52.5315 41.6333 53.4478 40.85C53.8555 40.5011 54.372 40.3082 54.9015 40.3082C55.5903 40.3082 56.2557 40.6346 56.6814 41.1809C57.1074 41.7279 57.2532 42.4307 57.082 43.1096C56.919 43.7537 56.6878 44.5048 56.3599 45.3116C56.6197 45.0854 56.8909 44.8895 57.1795 44.7279C57.846 44.3567 58.6872 44.1698 59.683 44.1698C60.0516 44.1698 60.4453 44.1956 60.853 44.2463C63.3043 44.5546 66.793 45.8798 69.2601 48.1154C72.0057 46.6346 74.5378 45.5971 76.9707 44.9546C78.9301 44.4365 80.8543 44.1737 82.6893 44.1737C86.1726 44.1737 89.523 45.1205 92.6484 46.9873C93.6903 47.6096 94.7385 48.3552 95.7634 49.2029C96.6618 49.9479 97.5526 50.7815 98.4178 51.6866C98.9476 51.515 99.6093 51.3659 100.31 51.3659C100.469 51.3659 100.628 51.3737 100.782 51.389C102.217 51.5291 103.374 52.3394 104.038 53.6698C105.01 55.6148 104.311 58.076 101.96 60.9848C101.814 61.1654 101.666 61.3421 101.519 61.514C102.813 61.6712 103.934 62.0246 104.864 62.5694C105.276 62.8104 105.654 63.0932 105.987 63.4094C107.015 64.3895 107.612 65.6698 107.765 67.2173C108.283 72.392 104.44 74.8571 101.844 75.6119C101.79 75.6929 101.729 75.7817 101.663 75.8789C101.015 76.8236 99.6109 78.7604 97.5165 81.0836C94.7601 84.1409 90.2043 88.5129 84.1545 91.976C77.3316 95.882 70.0428 97.8627 62.4909 97.8627C62.0535 97.8627 61.6093 97.8557 61.1703 97.8422C60.3732 97.8191 59.5557 97.7717 58.7347 97.7021C54.0663 100.018 48.532 101.393 43.8349 101.393Z" fill="white"/>
<path d="M55.5506 42.7232C54.8291 45.5761 52.7186 50.4313 46.5881 52.5182C37.6388 55.565 33.4487 54.8036 33.068 58.9925C29.2199 52.8353 29.2585 43.7588 29.2585 43.7588C29.2585 43.7588 29.0836 34.6405 40.5107 27.6776C41.0249 27.365 41.6543 27.8419 41.4974 28.4228C41.0528 30.0682 40.607 32.6261 41.447 34.4273C42.5726 36.8402 43.5635 41.0186 42.5816 43.7513C42.4022 44.2475 42.8451 44.7467 43.3592 44.6236C44.5722 44.3332 46.4636 44.0342 48.8735 44.1392C51.341 44.2459 53.2637 43.0846 54.4739 42.0509C54.9686 41.6273 55.7105 42.0907 55.5506 42.7232Z" fill="white"/>
<path d="M68.9792 50.0759C68.9792 50.0759 61.6295 59.9788 51.2864 64.1351C44.177 66.9907 37.0674 64.8961 37.0674 64.8961C37.0674 64.8961 37.1903 60.9905 39.6461 59.059C39.6743 59.0369 39.7037 59.0146 39.7334 58.9924C42.272 57.089 45.2553 59.3107 49.6988 55.8196C54.1422 52.3271 55.7936 47.3134 57.9518 46.1063C58.5812 45.7553 59.5424 45.6736 60.6578 45.8128C63.3684 46.1551 66.9899 47.8067 68.9792 50.0759Z" fill="white"/>
<path d="M43.631 63.8623C41.4654 63.8623 39.6318 63.2867 38.1504 62.5205C38.4462 61.5932 38.9333 60.5753 39.7335 59.8178C39.7971 60.0694 39.8973 60.3116 40.0412 60.5387C40.5894 61.4063 41.5941 61.7891 42.6431 61.9196C42.6606 61.9508 42.6779 61.9817 42.6954 62.0129C43.0089 62.5685 43.3887 63.0905 43.8212 63.5671C43.9095 63.6644 44 63.7601 44.0925 63.8537C43.9368 63.8594 43.7835 63.8623 43.631 63.8623ZM45.4017 63.7367C45.0485 63.5111 44.7108 63.2606 44.3921 62.9861C44.0367 62.6792 43.7064 62.3408 43.4081 61.9733C43.4679 61.9744 43.5273 61.9751 43.5864 61.9751C43.6571 61.9751 43.7277 61.9742 43.7975 61.9723C45.4167 61.9361 47.0162 61.6364 48.5631 61.1501C48.8729 61.5617 49.2183 61.9505 49.6004 62.3051C49.6473 62.3489 49.695 62.3927 49.7429 62.4359C48.8364 62.8448 47.9412 63.1667 47.0604 63.4001C46.4904 63.551 45.9375 63.6617 45.4017 63.7367ZM50.6208 62.0146C50.4477 61.9103 50.2781 61.7992 50.1117 61.6829C49.79 61.46 49.4844 61.2104 49.1964 60.9398C49.916 60.6878 50.6231 60.3967 51.3141 60.0752C51.6212 60.4226 51.9483 60.7559 52.2948 61.0733C51.7331 61.4189 51.1752 61.7327 50.6208 62.0146ZM53.0129 60.6155C52.9331 60.5663 52.8537 60.5156 52.775 60.4634C52.4664 60.2594 52.1643 60.0404 51.8708 59.8073C53.9343 58.7861 55.8567 57.5017 57.7137 56.1346C57.855 56.3363 57.9918 56.54 58.1241 56.7458C57.5523 57.185 56.9921 57.6203 56.4452 58.0478C56.0139 58.3859 55.581 58.7269 55.1471 59.0684C54.4323 59.633 53.7204 60.149 53.0129 60.6155ZM58.7427 56.2723C58.5795 56.0915 58.4133 55.9142 58.2441 55.7405C58.4067 55.6187 58.5689 55.4966 58.7306 55.3739C59.3285 54.9203 59.9325 54.4475 60.47 53.9207C60.5756 54.0287 60.6785 54.1385 60.7791 54.2498C60.8691 54.3496 60.9573 54.4508 61.0427 54.5534C60.261 55.1252 59.4929 55.7012 58.7427 56.2723ZM61.7466 54.0421C61.6089 53.9159 61.4685 53.7941 61.326 53.6759C61.2083 53.5784 61.0893 53.4836 60.9689 53.3912C61.3437 52.9567 61.6656 52.4837 61.9017 51.9569C61.9842 51.773 62.0546 51.5842 62.1131 51.3919C62.2119 51.4631 62.3094 51.5351 62.4056 51.6083C62.8479 51.9467 63.2562 52.3196 63.6302 52.7144C62.996 53.1506 62.3675 53.5946 61.7466 54.0421ZM64.475 52.1402C63.9594 51.6962 63.4143 51.3011 62.8416 50.9627C62.6558 50.8538 62.4683 50.7494 62.2791 50.6494C62.4381 49.5644 62.256 48.4238 61.782 47.4305C61.6356 47.1242 61.4631 46.8314 61.2677 46.5544C61.82 46.664 62.4093 46.8244 63.0135 47.0344C64.9287 47.7002 66.7233 48.7573 67.965 49.9342C66.7946 50.6237 65.6273 51.3667 64.475 52.1402Z" fill="#CECCDB"/>
<path d="M37.0669 64.8965H37.0681H37.0669ZM37.7425 64.4153C39.4519 64.8086 45.2917 65.8625 51.0505 63.5486C59.9115 59.9885 66.6319 52.019 68.1496 50.114C66.9049 48.8657 65.0257 47.734 63.0136 47.0344C60.9808 46.3277 59.1148 46.1801 58.2596 46.6583C57.433 47.12 56.5885 48.3871 55.6102 49.8542C54.2857 51.8411 52.6372 54.314 50.0894 56.3159C47.3752 58.4483 45.1258 58.5748 43.3186 58.6765C42.0436 58.7483 41.0365 58.8046 40.1119 59.4983C38.353 60.8177 37.8706 63.3425 37.7425 64.4153ZM43.1023 66.2773C39.586 66.2773 37.0638 65.554 36.8884 65.5025C36.6124 65.4212 36.4263 65.1638 36.4354 64.8763C36.4411 64.7009 36.6037 60.5504 39.3538 58.4879C40.584 57.5651 41.878 57.4921 43.2475 57.4151C44.9629 57.3188 46.9072 57.2096 49.3087 55.3226C51.6982 53.4452 53.2844 51.0656 54.559 49.1537C55.6721 47.4844 56.551 46.1657 57.643 45.5555C60.1665 44.1455 66.5688 46.37 69.4544 49.6594C69.6505 49.8833 69.664 50.2136 69.4867 50.4527C69.1822 50.8628 61.9117 60.5462 51.5215 64.721C48.5371 65.9201 45.574 66.2773 43.1023 66.2773Z" fill="#390075"/>
<path d="M42.3187 60.1411C42.5483 60.6944 42.8387 61.2188 43.1927 61.694C43.5439 62.1707 43.9487 62.603 44.3924 62.9861C44.8364 63.3686 45.3173 63.7042 45.8249 63.9917C46.3355 64.2755 46.8695 64.5125 47.4152 64.7165L47.4241 64.7198C47.7518 64.8421 47.918 65.2069 47.7956 65.5346C47.6732 65.8619 47.3083 66.028 46.9808 65.9057C46.958 65.8973 46.9325 65.8855 46.9108 65.8748C46.336 65.5765 45.7802 65.2432 45.2576 64.8619C44.7374 64.4771 44.2541 64.0436 43.8214 63.5671C43.3889 63.0905 43.0091 62.5684 42.6956 62.0128C42.3797 61.4584 42.1406 60.8648 41.9716 60.2569C41.9444 60.1594 42.0014 60.0586 42.0989 60.0313C42.1891 60.0061 42.2825 60.0532 42.3173 60.1376L42.3187 60.1411Z" fill="#390075"/>
<path d="M47.951 59.4569C48.2219 59.8901 48.5641 60.305 48.9275 60.6757C49.2926 61.0496 49.6883 61.3894 50.1119 61.6829C50.5339 61.9778 50.9756 62.239 51.4409 62.4419C51.8989 62.6596 52.3847 62.8042 52.8662 62.9342L52.8937 62.9413C53.2316 63.0326 53.432 63.3806 53.3408 63.7186C53.2499 64.0565 52.9019 64.2569 52.5637 64.1657C52.5364 64.1584 52.5064 64.148 52.481 64.1371C51.9473 63.9107 51.4241 63.6659 50.9453 63.3494C50.4584 63.0482 50.0123 62.6903 49.6007 62.3051C49.187 61.9211 48.8162 61.4971 48.4871 61.0475C48.1571 60.5957 47.8687 60.1288 47.6384 59.6084C47.5997 59.5205 47.6393 59.4182 47.7269 59.3792C47.8066 59.3438 47.8991 59.3738 47.9441 59.4457L47.951 59.4569Z" fill="#390075"/>
<path d="M50.4815 58.5251C50.8196 58.8926 51.1931 59.2415 51.5756 59.5657C51.9599 59.8901 52.3617 60.1904 52.775 60.4634C53.1881 60.7379 53.6219 60.9704 54.0594 61.1726C54.4988 61.3721 54.9519 61.513 55.3998 61.6154L55.418 61.6196C55.7594 61.6976 55.973 62.0375 55.895 62.3788C55.8171 62.7203 55.4771 62.9342 55.1354 62.8559C55.1042 62.849 55.0706 62.8382 55.0415 62.8267C54.5156 62.6167 54.02 62.3654 53.5658 62.0654C53.1144 61.7627 52.6883 61.4359 52.298 61.0765C51.9071 60.718 51.5408 60.3401 51.1994 59.944C50.8583 59.5459 50.5403 59.1386 50.2494 58.6994C50.2049 58.6325 50.2232 58.5421 50.2901 58.4978C50.3504 58.4579 50.4299 58.469 50.4773 58.5205L50.4815 58.5251Z" fill="#390075"/>
<path d="M56.5596 54.2093C56.9552 54.5234 57.3279 54.8534 57.6938 55.1984C58.0586 55.5434 58.4108 55.9043 58.7504 56.2811C59.0883 56.66 59.4086 57.059 59.7113 57.479C60.0089 57.9038 60.2819 58.355 60.5183 58.8421C60.6713 59.1571 60.5396 59.5364 60.2246 59.6894C59.9096 59.8421 59.5304 59.7107 59.3775 59.3957C59.3627 59.3654 59.3508 59.3344 59.3411 59.3036L59.3379 59.2921C59.2094 58.8614 59.0385 58.4285 58.8342 58.0031C58.6233 57.5802 58.3881 57.1616 58.1292 56.7536C57.8681 56.3471 57.5888 55.9481 57.2933 55.5593C56.9975 55.1719 56.6856 54.7892 56.3592 54.4298L56.3561 54.4265C56.3006 54.3656 56.3054 54.2711 56.3663 54.2156C56.4212 54.1658 56.5035 54.1646 56.5596 54.2093Z" fill="#390075"/>
<path d="M58.539 51.8708C59.0364 52.1194 59.5089 52.3948 59.9755 52.694C60.4401 52.994 60.8932 53.3171 61.326 53.6759C61.7586 54.0353 62.1745 54.4267 62.5464 54.8807C62.919 55.3316 63.2499 55.8521 63.4582 56.4698L63.4599 56.4752C63.5718 56.8067 63.3936 57.1661 63.0618 57.2777C62.7303 57.3896 62.3709 57.2114 62.259 56.8796C62.2491 56.8502 62.241 56.8171 62.2357 56.7875C62.1597 56.3569 61.9713 55.9052 61.7101 55.4786C61.4526 55.049 61.1301 54.6392 60.7791 54.2498C60.4276 53.8601 60.0435 53.4914 59.6412 53.1401C59.2389 52.7909 58.8147 52.4537 58.3788 52.1501L58.3747 52.1473C58.3018 52.0964 58.2837 51.9959 58.3345 51.9227C58.3809 51.8561 58.4685 51.8354 58.539 51.8708Z" fill="#390075"/>
<path d="M59.0396 49.3934C59.7092 49.5611 60.3512 49.7842 60.9875 50.044C61.6217 50.3057 62.2412 50.6107 62.8416 50.9626C63.4406 51.3167 64.0094 51.7325 64.5462 52.2017C65.0783 52.678 65.5514 53.2336 65.9627 53.8496C66.1569 54.1403 66.0789 54.5336 65.7879 54.728C65.4969 54.9221 65.1039 54.8438 64.9094 54.553C64.8956 54.5326 64.8833 54.5117 64.8725 54.4903L64.8606 54.4667C64.5833 53.9255 64.2425 53.3998 63.8223 52.9219C63.3969 52.4501 62.9246 52.0055 62.4056 51.6082C61.8858 51.2132 61.3325 50.8517 60.7544 50.5276C60.1773 50.2063 59.5725 49.9115 58.9571 49.6763L58.9512 49.6738C58.8752 49.6448 58.8371 49.5596 58.8662 49.4836C58.8933 49.4132 58.9683 49.3753 59.0396 49.3934Z" fill="#390075"/>
<path d="M100.863 74.2277C100.863 74.2277 100.695 74.4986 100.362 74.983C99.6898 75.9634 98.3404 77.8121 96.3438 80.0263C90.3006 86.7286 78.3312 96.7829 61.2181 96.2644C58.2702 96.1757 55.1704 95.7728 51.9207 94.9846C25.9883 88.6973 23.8643 68.4482 26.0757 54.8852C26.8771 49.9721 28.2456 45.9359 29.2588 43.7584C29.2588 43.7584 29.084 34.6406 40.5111 27.6776C40.7391 27.5398 40.9896 27.5561 41.1837 27.6671C41.4279 27.8078 41.5852 28.0996 41.4975 28.4225C41.0532 30.0682 40.6075 32.6261 41.4471 34.4273C42.5731 36.8402 43.5639 41.0186 42.5817 43.7513C42.5034 43.9688 42.5448 44.1865 42.6588 44.3525C42.804 44.5657 43.0707 44.6932 43.3593 44.6236C44.5725 44.3332 46.464 44.0342 48.8739 44.1392C51.3414 44.2459 53.2641 43.0846 54.474 42.0509C54.9687 41.6273 55.7109 42.0907 55.551 42.7232C54.8296 45.5759 52.719 50.4313 46.5885 52.5182C37.6392 55.565 33.4488 54.8036 33.0684 58.9925C33.0684 58.9925 33.3261 59.3788 33.834 59.9477C34.1169 60.2648 34.4769 60.638 34.9123 61.0334C37.1268 63.0359 41.2962 65.5792 47.2225 64.0105C49.6944 63.3559 52.4715 61.9859 55.539 59.564C55.9716 59.2234 56.4039 58.8827 56.835 58.5452C63.7419 53.1448 70.6027 48.2732 77.3746 46.4809C82.2475 45.1925 87.0733 45.4961 91.8396 48.3428C92.814 48.9263 93.7873 49.6165 94.7575 50.4194C95.7186 51.2177 96.6798 52.1288 97.6354 53.1596C97.7598 53.2928 97.8825 53.4278 98.0071 53.5655C98.0071 53.5655 99.3237 52.8307 100.627 52.9609C101.386 53.0351 102.14 53.4011 102.625 54.3755C104.243 57.6119 97.6263 63.1826 97.6263 63.1826C97.6263 63.1826 97.8144 63.1471 98.136 63.1055C99.2733 62.9648 102.079 62.768 104.066 63.9319C104.366 64.1069 104.646 64.3127 104.899 64.5542C105.582 65.2042 106.069 66.1123 106.195 67.373C106.767 73.0855 100.863 74.2277 100.863 74.2277Z" fill="white"/>
<path d="M47.0414 68.4587C46.3421 69.5708 44.941 70.2329 44.6033 71.5025C44.215 72.9644 45.4373 74.3387 45.7066 75.8273C45.9748 77.3084 45.2135 78.8756 43.981 79.7405C42.7475 80.6071 41.1239 80.8115 39.6548 80.4767C38.3437 80.1777 37.1041 79.4384 36.3664 78.3158C35.5192 77.027 35.411 75.4096 35.2304 73.8782C35.0498 72.3467 34.7119 70.7084 33.5744 69.6686C32.8383 68.9963 31.846 68.654 31.1172 67.9727C29.6745 66.6233 29.6805 64.187 30.7543 62.528C31.3749 61.5683 32.5644 60.4796 33.8335 59.9477C35.5516 61.8748 40.1287 65.8886 47.2219 64.0106C47.3521 64.3752 47.4367 64.7615 47.4944 65.1421C47.6677 66.2678 47.6471 67.4915 47.0414 68.4587Z" fill="#FF8D06"/>
<path d="M32.564 58.1303C30.0881 53.6036 29.4664 47.8907 29.3105 45.2378C29.4925 44.7827 29.6679 44.3765 29.8313 44.0248C29.8714 43.9388 29.8916 43.8431 29.8902 43.748C29.8898 43.7261 29.8739 41.5163 31.2078 38.5157C31.9998 36.7342 33.3862 34.4303 35.7968 32.0842C32.4772 37.1354 28.6885 46.0283 33.4325 51.0431C34.285 51.9446 35.8493 52.3565 37.7596 52.3567C43.7156 52.3567 53.0408 48.353 54.6956 42.6886C54.7606 42.6356 54.8237 42.5828 54.8848 42.5306C54.8948 42.5221 54.9008 42.5194 54.902 42.5192C54.9064 42.5192 54.9233 42.5236 54.9352 42.5365C54.9412 42.5429 54.9439 42.5461 54.9385 42.5684C54.2731 45.2 52.277 49.9144 46.3846 51.9203C43.6631 52.8469 41.3621 53.4238 39.5129 53.8877C35.5231 54.8882 33.1712 55.478 32.564 58.1303Z" fill="#CECCDB"/>
<path d="M77.3741 46.481C67.2311 52.0607 69.3179 62.9354 68.2991 64.0403C67.6949 64.6934 67.3037 64.6034 66.8588 64.5131C66.4613 64.4327 66.0206 64.3523 65.3472 64.8017C63.9176 65.7538 60.776 71.3719 57.5753 67.7194C55.6974 65.5763 56.0513 61.774 56.8349 58.5452C63.7415 53.1448 70.6022 48.2732 77.3741 46.481Z" fill="#FF8D06"/>
<path d="M47.5613 65.6921C47.5452 65.5073 47.5221 65.3234 47.4942 65.1421C47.4677 64.9679 47.4356 64.7921 47.396 64.6178C50.1569 63.8843 53.0283 62.351 55.9296 60.0605C56.1585 59.8802 56.3873 59.6998 56.616 59.5198C56.4329 60.4121 56.294 61.3292 56.234 62.2286C53.9237 63.8141 51.8783 64.9781 50.2346 65.2961C49.3925 65.459 48.4908 65.5958 47.5613 65.6921Z" fill="white"/>
<path d="M44.7271 65.8436C40.9981 65.8436 37.3237 64.9936 35.585 62.4001C37.4341 63.7798 40.1323 65.1301 43.6108 65.1298C44.7808 65.1298 46.04 64.9769 47.3839 64.6211C47.3881 64.6201 47.3921 64.619 47.3962 64.6178C47.4358 64.7921 47.4679 64.9678 47.4944 65.1421C47.5223 65.3234 47.5454 65.5073 47.5615 65.6921C46.6346 65.788 45.6787 65.8432 44.7271 65.8436Z" fill="#FFD19B"/>
<path d="M72.0127 51.1486C72.8702 49.9538 73.9612 48.8059 75.3548 47.7725C76.0939 47.5073 76.8196 47.2811 77.5357 47.0915C79.2838 46.6292 80.9794 46.3969 82.6285 46.3969C86.08 46.3969 89.3254 47.4142 92.4073 49.4632C89.9227 48.5671 86.8408 47.8153 83.4946 47.8153C81.9673 47.8153 80.3857 47.9719 78.7798 48.3428C76.5769 48.8521 74.2975 49.8623 72.0127 51.1486Z" fill="white"/>
<path d="M56.2344 62.2286C56.2944 61.3292 56.4332 60.4121 56.6163 59.5198C56.819 59.3603 57.0219 59.2013 57.224 59.0426C61.1757 55.9523 65.8313 52.4627 70.4004 50.0117C72.1419 49.078 73.7796 48.3373 75.3549 47.7725C73.9613 48.8059 72.8703 49.9538 72.0129 51.1486C66.4257 54.2938 60.8103 59.0882 56.2344 62.2286Z" fill="#FFD19B"/>
<path d="M96.3431 80.0263C90.2999 86.7287 78.3305 96.7829 61.2173 96.2644C61.4156 96.2126 61.6127 96.158 61.8083 96.1001C65.6504 94.958 69.1769 92.483 71.1278 88.9817C71.9987 87.419 72.6594 85.5617 74.2292 84.7055C75.4719 84.0287 77.0375 84.1442 78.2609 83.4332C80.231 82.2881 80.7374 79.3673 82.8377 78.4862C84.6878 77.7101 86.6994 78.9125 88.5669 79.6444C91.0271 80.6087 93.7925 80.7062 96.3431 80.0263Z" fill="#FF8D06"/>
<path d="M62.4716 95.6519C62.0635 95.6519 61.6508 95.6455 61.2368 95.633C60.6439 95.6153 60.0481 95.5844 59.4496 95.5405C62.4014 93.8863 65.2175 91.6853 67.5346 88.8326C68.8583 88.7705 70.1362 88.6682 71.372 88.5284C71.2919 88.6813 71.2108 88.8328 71.1281 88.9817C69.4048 92.0744 66.452 94.3667 63.1385 95.6465C62.9177 95.6501 62.6941 95.6519 62.4716 95.6519ZM45.0514 92.1055C38.4383 89.3534 33.5018 85.2544 30.3107 79.8598C30.6634 79.7134 31.0276 79.5511 31.4048 79.3717C31.9252 79.1246 32.4685 78.8446 33.0358 78.5305C36.4627 82.3046 41.4727 85.358 48.7268 87.1532C47.8081 88.798 46.5841 90.8005 45.0514 92.1055ZM93.001 80.465C92.7797 80.465 92.5583 80.4592 92.3372 80.4478C94.5314 78.719 96.3875 76.8259 97.9573 74.8673C98.116 74.8817 98.2754 74.8936 98.4346 74.9042C98.7589 74.9255 99.0841 74.9351 99.4102 74.9351C99.4823 74.9351 99.5543 74.9348 99.6262 74.9338C98.9089 75.9526 97.6471 77.6371 95.8745 79.6034C95.68 79.819 95.4779 80.0398 95.2681 80.2648C94.5202 80.3975 93.7604 80.465 93.001 80.465ZM28.1891 70.4251C27.6893 70.1909 27.1636 69.9563 26.6277 69.7336C26.0054 66.2903 25.9134 62.8463 26.1371 59.6228C26.3332 63.2809 26.9163 66.9638 28.1891 70.4251Z" fill="#CECCDB"/>
<path d="M63.1387 95.6465C66.4521 94.3667 69.405 92.0744 71.1283 88.9817C71.211 88.8329 71.2921 88.6814 71.3721 88.5284C80.5362 87.4921 87.3193 84.4013 92.3373 80.4479C92.5585 80.4592 92.7798 80.465 93.0012 80.465C93.7606 80.465 94.5204 80.3975 95.2683 80.2648C89.6668 86.2748 78.6406 95.3917 63.1387 95.6465Z" fill="#CE7114"/>
<path d="M40.8562 28.2103C40.8508 28.2103 40.846 28.213 40.8391 28.2173C35.111 31.7078 32.4399 35.744 31.2078 38.5157C29.8739 41.5163 29.8898 43.7261 29.8902 43.748C29.8916 43.843 29.8714 43.9388 29.8313 44.0248C27.5234 48.9871 22.9105 64.7242 29.1967 77.7773C33.1939 86.0777 40.8896 91.6607 52.0694 94.3709C55.1504 95.1178 58.2347 95.5427 61.2368 95.633C61.6508 95.6455 62.0635 95.6519 62.4716 95.6519C78.9083 95.6525 90.4118 85.6619 95.8745 79.6034C98.777 76.3838 100.31 73.9202 100.325 73.8955C100.418 73.7455 100.569 73.6409 100.743 73.6076C100.978 73.5607 106.072 72.4853 105.566 67.4357C105.448 66.2501 104.979 65.3657 104.132 64.7321C101.879 63.0467 97.7852 63.7955 97.7441 63.8032C97.4618 63.8567 97.1791 63.7127 97.0562 63.4534C96.9329 63.1942 96.9998 62.8844 97.2194 62.6996C98.9533 61.2382 103.203 56.9446 102.06 54.658C101.801 54.1394 101.445 53.8157 100.972 53.6686C99.8048 53.3059 98.3281 54.1094 98.3135 54.1178C98.0564 54.2596 97.7339 54.2063 97.5374 53.9878C91.576 47.3638 85.0331 45.1078 77.5358 47.0915C75.2927 47.6848 72.9587 48.6398 70.4002 50.0117C65.8312 52.4627 61.1756 55.9523 57.2239 59.0426C56.7941 59.3798 56.3618 59.72 55.9298 60.0605C53.0239 62.3542 50.1485 63.889 47.3839 64.6211C46.04 64.9769 44.7808 65.1298 43.6108 65.1298C38.2781 65.1302 34.7791 61.9571 33.3625 60.368C33.2239 60.2126 33.0935 60.0596 32.9737 59.9126C32.6942 59.5703 32.5481 59.3509 32.542 59.3417C32.4623 59.2219 32.4261 59.0786 32.4391 58.9352C32.7434 55.5853 35.1479 54.9823 39.5129 53.8877C41.3621 53.4238 43.6631 52.8469 46.3847 51.9203C52.277 49.9144 54.2731 45.2 54.9385 42.5684C54.9439 42.5461 54.9412 42.5428 54.9352 42.5365C54.9233 42.5236 54.9062 42.5192 54.902 42.5192C54.9008 42.5194 54.8948 42.5221 54.8849 42.5305C53.6135 43.6165 51.5345 44.8861 48.8464 44.7703C46.4789 44.6669 44.6356 44.9675 43.5062 45.2378C43.0429 45.3484 42.5581 45.1969 42.2408 44.8417C41.9225 44.4857 41.8256 43.9855 41.9875 43.5365C42.9491 40.8607 41.8489 36.7823 40.8746 34.6942C39.9719 32.7578 40.3835 30.1253 40.8877 28.258C40.8916 28.2436 40.8944 28.2334 40.8749 28.2188C40.8664 28.2128 40.861 28.2103 40.8562 28.2103ZM62.486 96.9155C62.0573 96.9155 61.6289 96.9088 61.1987 96.8957C58.1093 96.8027 54.9374 96.3661 51.7714 95.5984C40.2062 92.795 32.2279 86.9834 28.0585 78.3253C21.6115 64.9384 26.2326 48.8648 28.6284 43.6171C28.6431 43.0352 28.7849 40.8878 30.0213 38.075C31.3213 35.1182 34.1393 30.8203 40.1825 27.1382C40.6381 26.8609 41.2073 26.8888 41.6335 27.2086C42.0608 27.53 42.2468 28.0711 42.1073 28.5875C41.7391 29.9498 41.2387 32.4857 42.0197 34.1603C43.2929 36.8894 44.1977 41.1215 43.1762 43.9648C43.1725 43.9744 43.1689 43.9846 43.1825 43.9996C43.1948 44.0134 43.2029 44.0113 43.2122 44.0092C44.4202 43.7201 46.3871 43.3984 48.901 43.5082C51.1777 43.6078 52.9654 42.509 54.0635 41.5705C54.5012 41.1959 55.1 41.1496 55.5889 41.453C56.0723 41.7527 56.3029 42.3253 56.1631 42.8782C55.4351 45.7582 53.2489 50.918 46.7918 53.1161C44.021 54.0596 41.6918 54.6436 39.82 55.1132C35.4881 56.1994 34.0091 56.6726 33.7225 58.8209C33.7802 58.8977 33.8573 58.9973 33.9529 59.1142C34.0612 59.2475 34.1798 59.3863 34.3058 59.5277C35.8777 61.2907 40.2683 65.1986 47.0606 63.4001C49.6568 62.7125 52.3777 61.2551 55.1474 59.0684C55.5812 58.7269 56.0141 58.3859 56.4454 58.0478C60.4397 54.9242 65.15 51.3944 69.8033 48.8984C72.4499 47.4794 74.8733 46.4888 77.2127 45.8705C85.0787 43.7896 91.9343 46.054 98.1589 52.7944C98.8322 52.5086 100.134 52.0886 101.34 52.4603C102.151 52.7105 102.774 53.2598 103.19 54.0932C104.52 56.7548 101.414 60.4202 99.4408 62.3713C101.031 62.3228 103.275 62.5153 104.886 63.718C106.018 64.5638 106.67 65.7725 106.823 67.31C107.37 72.7742 102.49 74.4473 101.259 74.78C100.814 75.4661 99.3266 77.6609 96.8125 80.4494C94.0148 83.5523 89.3891 87.9715 83.24 91.4048C76.6856 95.0638 69.7091 96.9155 62.486 96.9155Z" fill="#390075"/>
<path d="M40.8561 28.2104C40.8507 28.2104 40.8459 28.2131 40.839 28.2173C39.7978 28.8512 38.8122 29.5313 37.9101 30.2381C29.88 36.5173 29.889 43.6763 29.89 43.748C29.8898 43.8425 29.8986 51.4648 32.8405 57.2978C33.7303 55.3379 35.979 54.7738 39.5128 53.8877C41.362 53.4238 43.663 52.8469 46.3845 51.9203C52.2768 49.9144 54.273 45.2 54.9384 42.5684C54.9436 42.5473 54.9409 42.5438 54.9372 42.5392C54.9274 42.5273 54.9097 42.5207 54.9028 42.5204C54.9003 42.5204 54.8947 42.5219 54.8847 42.5303C53.6134 43.6165 51.5343 44.8861 48.8463 44.7704C46.4787 44.6669 44.6355 44.9675 43.5061 45.2378C43.0428 45.3485 42.558 45.1969 42.2407 44.8417C41.9224 44.4857 41.8255 43.9856 41.9874 43.5365C42.9489 40.8608 41.8488 36.7826 40.8745 34.6942C39.9718 32.7578 40.3834 30.1253 40.8876 28.2581C40.8915 28.2437 40.8943 28.2335 40.8747 28.2188C40.8663 28.2128 40.8609 28.2104 40.8561 28.2104ZM33.0678 59.624C32.8536 59.624 32.6496 59.5144 32.5324 59.3273C28.6324 53.0869 28.6252 44.134 28.6269 43.7558C28.6209 43.4536 28.5771 35.9327 37.1313 29.2433C38.0718 28.5065 39.0987 27.7979 40.1824 27.1382C40.638 26.861 41.2074 26.8886 41.6334 27.2087C42.0607 27.53 42.2466 28.0712 42.1072 28.5875C41.739 29.9498 41.2386 32.4857 42.0195 34.1603C43.2928 36.8894 44.1978 41.1215 43.1761 43.9648C43.1724 43.9744 43.1688 43.9846 43.1824 43.9996C43.1947 44.0135 43.2028 44.0113 43.212 44.0092C44.4201 43.7201 46.3872 43.399 48.9012 43.5083C51.1782 43.6073 52.9653 42.509 54.0636 41.5706C54.2907 41.3759 54.5643 41.2676 54.8545 41.258C55.2588 41.2403 55.6561 41.4215 55.917 41.7419C56.1757 42.0598 56.2653 42.4738 56.163 42.8783C55.4349 45.7583 53.2488 50.918 46.7916 53.1161C44.0209 54.0596 41.6916 54.6436 39.8199 55.1132C35.3382 56.2369 33.9103 56.7044 33.6972 59.0494C33.6726 59.3198 33.4782 59.5438 33.2145 59.6069C33.1657 59.6186 33.1168 59.624 33.0678 59.624Z" fill="#390075"/>
<path d="M102.228 67.309C101.985 68.06 101.222 68.543 100.175 68.8363C96.3909 69.9026 88.8975 68.5148 88.8975 68.5148C90.8172 68.4971 93.353 66.7967 95.1969 65.3215C96.6174 64.1855 97.6263 63.1826 97.6263 63.1826C97.6263 63.1826 103.243 64.1659 102.228 67.309Z" fill="#390075"/>
<path d="M102.228 67.3091H102.229H102.228ZM91.8392 68.3052C94.3103 68.597 97.8335 68.8397 100.004 68.2283C100.926 67.97 101.471 67.5956 101.627 67.1147C101.78 66.6402 101.74 66.2202 101.506 65.8313C100.847 64.7381 98.8508 64.0964 97.8267 63.8672C97.44 64.2354 96.6267 64.9868 95.5913 65.8148C94.2134 66.917 92.96 67.7483 91.8392 68.3052ZM96.3857 69.8717C92.8115 69.8717 89.0046 69.1772 88.7823 69.1358C88.4625 69.0767 88.2398 68.7842 88.268 68.4599C88.2962 68.1359 88.5662 67.8863 88.8914 67.8833C90.2561 67.8707 92.3552 66.7856 94.8021 64.8284C96.1763 63.7289 97.1705 62.7446 97.1804 62.7347C97.3259 62.5902 97.5329 62.5256 97.7348 62.5604C97.8842 62.5868 101.409 63.224 102.588 65.1788C103.01 65.8796 103.093 66.6833 102.829 67.5032V67.5035C102.535 68.4122 101.699 69.0654 100.345 69.4445C99.2303 69.7586 97.8267 69.8717 96.3857 69.8717Z" fill="#390075"/>
<path d="M100.184 68.6438C100.184 68.7088 100.181 68.7725 100.175 68.8363C96.3909 69.9026 88.8975 68.5148 88.8975 68.5148C90.8172 68.4971 93.353 66.7967 95.1972 65.3215C98.0349 65.6132 100.184 66.9892 100.184 68.6438Z" fill="#FF709D"/>
<path d="M91.8392 68.3051C94.1336 68.5763 97.3346 68.8048 99.5177 68.3467C99.2609 67.2335 97.5842 66.2621 95.3844 65.9789C94.0877 66.9998 92.9036 67.7762 91.8392 68.3051ZM100.175 68.8364H100.176H100.175ZM96.3854 69.8717C92.8109 69.8717 89.0046 69.1771 88.7823 69.1358C88.4625 69.0767 88.2398 68.7842 88.268 68.4598C88.2962 68.1359 88.5662 67.8863 88.8914 67.8833C90.2561 67.8707 92.3552 66.7856 94.8021 64.8284C94.9317 64.7246 95.0963 64.6765 95.2613 64.6931C98.5317 65.0294 100.816 66.6539 100.816 68.6438C100.816 68.7281 100.812 68.8096 100.804 68.8942C100.78 69.1546 100.598 69.3734 100.346 69.4442C99.2309 69.7586 97.8267 69.8717 96.3854 69.8717Z" fill="#390075"/>
<path d="M89.8162 65.4683C89.7562 65.6998 89.6839 65.9519 89.6354 66.1931C89.584 66.4367 89.5423 66.6779 89.5133 66.9173C89.4506 67.3952 89.4421 67.8654 89.4908 68.3248C89.5396 68.7986 89.6306 69.2879 89.7379 69.7656C89.794 70.0052 89.8556 70.2448 89.9237 70.4856C89.9858 70.7246 90.0731 70.9739 90.1394 71.1995L90.1519 71.2421C90.1969 71.3954 90.1094 71.5562 89.956 71.6012C89.8591 71.6297 89.7577 71.6039 89.686 71.5433C89.4437 71.3348 89.2771 71.114 89.1091 70.8737C88.9483 70.6337 88.8137 70.3779 88.699 70.1135C88.4719 69.5807 88.3312 69.0242 88.2814 68.4377C88.2292 67.8373 88.3037 67.2323 88.489 66.6752C88.5829 66.3971 88.699 66.1286 88.8448 65.8775C88.9952 65.6252 89.1533 65.3952 89.3744 65.1746C89.48 65.0696 89.6504 65.0698 89.7554 65.1756C89.825 65.2452 89.8483 65.3438 89.8256 65.4329L89.8162 65.4683Z" fill="#390075"/>
<path d="M100.989 74.8469C100.75 74.879 100.549 74.8934 100.333 74.9084C100.12 74.9207 99.9081 74.9296 99.6969 74.9327C99.2745 74.9398 98.8535 74.9317 98.4345 74.9042C98.0156 74.8771 97.5981 74.8373 97.1841 74.7752C96.7695 74.7188 96.3591 74.6348 95.9523 74.5442C95.7792 74.5058 95.67 74.3342 95.7083 74.1611C95.7441 74.0012 95.8926 73.8962 96.0512 73.9106L96.0606 73.9115C96.4569 73.9478 96.8523 73.9778 97.2489 73.9805C97.6449 73.9892 98.0408 73.9766 98.4348 73.9517C98.8289 73.9273 99.221 73.8844 99.6093 73.8284C99.8033 73.8005 99.996 73.7671 100.187 73.7317C100.374 73.6948 100.576 73.6529 100.736 73.6091L100.738 73.6088C101.075 73.5167 101.423 73.7156 101.515 74.0531C101.607 74.3903 101.408 74.7383 101.071 74.8301C101.044 74.8373 101.015 74.843 100.989 74.8469Z" fill="#390075"/>
<path d="M70.869 83.4641C70.3449 84.6092 69.7509 85.6814 69.0974 86.6858C69.0147 86.8145 68.9288 86.942 68.8442 87.068C59.6538 100.656 39.6549 101.398 38.6861 98.3173C38.1041 96.4673 39.2534 95.3802 40.7807 94.5092C42.0041 93.8117 43.469 93.2519 44.4776 92.5496C46.7453 90.9707 48.3984 87.7493 49.4453 85.8446C49.4901 85.763 49.5374 85.6859 49.5905 85.6118C50.7386 83.9381 53.5365 83.8996 57.7295 82.9873C62.1095 82.0364 65.8257 79.751 65.8257 79.751L70.869 83.4641Z" fill="white"/>
<path d="M43.8351 99.8144C40.9545 99.8144 38.9751 99.2357 38.6861 98.3173C38.5811 97.9832 38.5326 97.6739 38.5322 97.3862C38.532 96.0815 39.5295 95.2229 40.7807 94.5092C42.0041 93.8117 43.469 93.2519 44.4776 92.5496C46.7453 90.9707 48.3984 87.7493 49.4453 85.8446C49.4901 85.763 49.5374 85.6859 49.5905 85.6118C49.5699 85.8281 49.5653 86.0459 49.5788 86.2637C49.6884 88.136 50.8986 90.0968 50.0247 91.7573C49.0413 93.6236 46.2788 93.5052 44.6376 94.8308C44.1311 95.2394 43.7445 96.029 44.1857 96.506C44.3993 96.737 44.7218 96.794 45.0464 96.794C45.1586 96.794 45.2711 96.7871 45.3797 96.7784C53.957 96.0941 62.2664 92.6045 68.8442 87.068C66.3218 90.7977 62.984 93.56 59.4497 95.5406C58.7613 95.9264 58.067 96.2816 57.3684 96.6095C52.4805 98.903 47.4486 99.8144 43.8351 99.8144Z" fill="#CECCDB"/>
<path d="M65.9824 80.0063C65.3451 80.4842 64.6812 80.8901 63.9966 81.2753C63.3124 81.6578 62.6088 82.0063 61.8885 82.3232C61.1637 82.6267 60.432 82.9235 59.6751 83.1544C59.4885 83.219 59.2962 83.2688 59.1066 83.3258C58.9161 83.3798 58.7274 83.4401 58.5339 83.4854L57.9549 83.6261C57.7624 83.6719 57.573 83.7092 57.3816 83.7512C55.8595 84.0838 54.3151 84.3161 52.8639 84.6521C52.146 84.8246 51.4464 85.0334 50.9013 85.3571C50.634 85.5223 50.4157 85.7162 50.238 85.9363L50.1234 86.1161C50.1036 86.1488 50.0859 86.1692 50.0632 86.2112L49.9947 86.3375L49.7199 86.8457C48.9843 88.2086 48.2037 89.5901 47.2149 90.8651C46.7199 91.5017 46.1733 92.1148 45.5358 92.6612C45.3816 92.8019 45.2088 92.9273 45.0393 93.0551C44.9553 93.1198 44.8695 93.1826 44.7789 93.2405C44.6901 93.3013 44.6007 93.3575 44.5116 93.4115C44.1547 93.6305 43.7974 93.8188 43.4439 93.9973C42.7378 94.3532 42.043 94.6706 41.3974 95.0219C40.7568 95.3708 40.1526 95.7605 39.7557 96.2198C39.3528 96.679 39.2124 97.16 39.3141 97.7435L39.3318 97.8521L39.3622 97.9631L39.3912 98.0744C39.3966 98.0998 39.3993 98.0963 39.4014 98.0992C39.4035 98.1019 39.4047 98.1046 39.4051 98.108C39.4209 98.1359 39.463 98.204 39.5593 98.2751C39.7428 98.4215 40.0495 98.5559 40.3645 98.6576C40.6843 98.7608 41.0295 98.84 41.3841 98.8976C41.7384 98.9561 42.1003 99.0013 42.4672 99.0281C43.1997 99.0875 43.9461 99.0932 44.6932 99.0662C46.188 99.0101 47.688 98.8213 49.1695 98.5396C52.1337 97.9717 55.0297 97.0076 57.741 95.6798C60.4495 94.3475 62.9778 92.644 65.1603 90.5627C67.3468 88.4869 69.177 86.0338 70.5534 83.3194L70.5553 83.3159C70.642 83.1446 70.851 83.0762 71.022 83.1629C71.1858 83.246 71.2551 83.4421 71.1849 83.6087C70.8793 84.3278 70.5582 85.0438 70.179 85.7306C70.0897 85.9052 69.9943 86.0765 69.8955 86.246L69.6022 86.7565C69.3939 87.0892 69.1959 87.4294 68.9703 87.7513C68.1001 89.0615 67.0899 90.2792 65.9874 91.4048C63.7705 93.6488 61.1518 95.4779 58.3407 96.8861C55.5274 98.2946 52.5303 99.3223 49.4449 99.9428C47.9016 100.253 46.3347 100.459 44.7489 100.525C43.956 100.557 43.1583 100.556 42.354 100.495C41.952 100.467 41.548 100.419 41.1418 100.354C40.7355 100.289 40.3266 100.2 39.912 100.069C39.7051 100.003 39.4962 99.926 39.2851 99.8285C39.1807 99.7853 39.0726 99.7196 38.9674 99.6646C38.8603 99.5987 38.7534 99.5323 38.6466 99.4492C38.4357 99.2888 38.214 99.0619 38.0586 98.7455L38.0055 98.6213C37.9887 98.5802 37.9705 98.5331 37.9659 98.5112L37.9201 98.3432L37.8753 98.1748L37.8435 97.9988C37.7589 97.5317 37.7647 97.0112 37.9059 96.5188C38.0422 96.023 38.3157 95.5888 38.6218 95.2369C38.9305 94.883 39.2749 94.6004 39.6234 94.3546C39.973 94.1096 40.329 93.9011 40.6843 93.7088C41.3943 93.3251 42.1038 93.0046 42.7749 92.6681C43.1097 92.5001 43.4349 92.3285 43.7355 92.1452C43.8111 92.0996 43.8853 92.0534 43.9551 92.0054C44.0274 91.9598 44.097 91.9088 44.1655 91.8557C44.3034 91.7513 44.4445 91.6523 44.5749 91.5323C45.1099 91.0771 45.5982 90.5371 46.0497 89.9588C46.9522 88.7951 47.7141 87.4931 48.4539 86.1527L48.7341 85.6463L48.8043 85.519C48.828 85.4765 48.867 85.4188 48.8982 85.37C48.9645 85.268 49.0299 85.1654 49.1005 85.0667C49.4061 84.6838 49.7799 84.3728 50.1726 84.1379C50.5659 83.9159 50.9691 83.7383 51.3655 83.6138C51.4647 83.5817 51.5647 83.5463 51.6633 83.5171L51.9588 83.4362C52.1568 83.3788 52.3509 83.3371 52.5465 83.291C53.3259 83.1148 54.0912 82.984 54.8503 82.8485C55.6095 82.7146 56.3605 82.5796 57.1065 82.4276C57.2922 82.3886 57.4815 82.3535 57.6639 82.3115L58.2097 82.1846C58.3926 82.1473 58.573 82.0948 58.7545 82.0487C58.9353 81.9998 59.1178 81.9581 59.2972 81.9017C60.018 81.6923 60.7372 81.4648 61.4482 81.2096C62.8726 80.7088 64.2861 80.1212 65.668 79.4951L65.6772 79.4909C65.8287 79.4221 66.0072 79.4894 66.0759 79.6409C66.1353 79.7719 66.0928 79.9232 65.9824 80.0063Z" fill="#390075"/>
<path d="M48.1629 87.8596C48.1956 87.8726 48.2535 87.8903 48.3031 87.9065C48.3525 87.9236 48.4087 87.9376 48.4617 87.953C48.5683 87.9851 48.6789 88.0121 48.79 88.0382C48.9004 88.0667 49.0123 88.0913 49.1256 88.1126C49.239 88.1338 49.351 88.1609 49.4658 88.178C49.6948 88.2121 49.9231 88.2551 50.1556 88.2761L50.5033 88.3151C50.6196 88.3271 50.7364 88.3309 50.8531 88.3394C51.7869 88.3984 52.7331 88.3748 53.6727 88.2611C53.9083 88.2361 54.1404 88.1903 54.3754 88.1563L54.7269 88.1009L55.075 88.0246L55.7718 87.8705L56.4585 87.6719L56.8029 87.5723C56.9173 87.5375 57.0279 87.4928 57.1408 87.4534L57.816 87.2092L57.985 87.1475L58.1493 87.0755L58.4787 86.9309L59.139 86.6417L59.1498 86.6369C59.2387 86.5978 59.3418 86.6384 59.3808 86.7269C59.4175 86.8111 59.3823 86.909 59.3029 86.9519L58.6554 87.2984L58.3312 87.4721L58.1685 87.559L58.0014 87.6359L57.3298 87.9398C57.2173 87.9892 57.1065 88.0442 56.9919 88.0892L56.6464 88.2194L55.9531 88.4801L55.2441 88.6967L54.8883 88.804L54.5268 88.8907C54.2854 88.9457 54.0454 89.0123 53.8012 89.0578C52.8264 89.254 51.8298 89.3588 50.826 89.374C50.7006 89.375 50.575 89.3801 50.4492 89.3773L50.0715 89.3651C49.8196 89.3617 49.5675 89.3353 49.315 89.3171C49.1887 89.3084 49.0623 89.2886 48.9358 89.2748C48.8094 89.2609 48.6829 89.2436 48.5556 89.2217C48.429 89.2019 48.3018 89.1811 48.1735 89.1536C48.1089 89.1403 48.0462 89.1296 47.9793 89.1128C47.9121 89.0965 47.8525 89.084 47.7696 89.0603L47.755 89.0561C47.4192 88.9592 47.2254 88.6084 47.3223 88.2728C47.4192 87.9371 47.77 87.7432 48.1056 87.8401C48.1248 87.8455 48.1446 87.8525 48.1629 87.8596Z" fill="#390075"/>
<path d="M42.7082 92.9684C42.884 93.0046 43.0884 93.0398 43.2819 93.0704C43.478 93.1019 43.6757 93.1304 43.874 93.1565C44.2703 93.2105 44.6697 93.2507 45.0696 93.2876C45.8697 93.3563 46.674 93.3926 47.4786 93.395C49.0874 93.4025 50.6984 93.2687 52.2786 92.9684C53.8565 92.6648 55.4063 92.1902 56.853 91.4885C57.5822 91.1486 58.2692 90.7267 58.9332 90.2726L59.4213 89.9173C59.5821 89.7962 59.733 89.6627 59.8896 89.5361L60.1226 89.3435C60.1986 89.2771 60.2703 89.2064 60.3444 89.138L60.7853 88.7234L60.7953 88.7144C60.8784 88.6364 61.0088 88.6403 61.0872 88.7234C61.1628 88.804 61.1607 88.9304 61.0842 89.009L60.6486 89.4554C60.5751 89.5292 60.5042 89.6057 60.429 89.6773L60.1971 89.8865C60.0411 90.0244 59.8905 90.1694 59.7297 90.3017L59.2407 90.6914C58.5744 91.1912 57.8786 91.6601 57.1376 92.0459C55.6665 92.8394 54.0776 93.4021 52.454 93.788C50.8284 94.1705 49.1655 94.3811 47.4984 94.4456C46.6644 94.4792 45.8295 94.4773 44.9942 94.4419C44.5767 94.4215 44.159 94.3979 43.7415 94.3594C43.5324 94.3409 43.3236 94.3202 43.1138 94.2956C42.9015 94.271 42.7005 94.2461 42.4728 94.2094C42.1284 94.154 41.894 93.8296 41.9496 93.485C42.0051 93.1406 42.3294 92.9063 42.674 92.9617C42.6824 92.9633 42.6905 92.9648 42.699 92.9663L42.7082 92.9684Z" fill="#390075"/>
<path d="M33.0681 78.5126C32.4888 78.8342 31.9349 79.1201 31.4046 79.3717C23.2093 83.2703 20.869 79.1836 21.4512 75.5605C21.9947 72.1763 18.8621 71.6861 19.7374 69.4673C19.9196 69.0049 20.2692 68.7176 20.7373 68.5667C23.7751 67.5817 31.8296 72.323 31.8296 72.323L33.0681 78.5126Z" fill="white"/>
<path d="M25.7109 80.9548C22.5861 80.9548 21.3677 78.8432 21.3669 76.6013C21.3668 76.2551 21.3957 75.9059 21.4512 75.5606C21.4952 75.2864 21.5152 75.0311 21.5149 74.7923C21.5135 72.4508 19.5825 71.7014 19.582 70.2218C19.5819 69.9911 19.6289 69.7423 19.7374 69.4673C19.9196 69.005 20.2692 68.7176 20.7373 68.5667C20.6632 68.9756 20.6795 69.4007 20.798 69.7976C21.1579 71.009 22.2998 71.8859 23.5322 72.1643C24.1988 72.3155 25.0044 72.3821 25.3421 72.9761C25.6458 73.5137 25.3763 74.198 25.0001 74.6869C24.6253 75.1757 24.135 75.6008 23.9292 76.1813C23.6419 76.9886 24.0018 77.9231 24.6342 78.5009C25.2667 79.0784 26.1198 79.3526 26.9655 79.4888C27.5189 79.5785 28.0753 79.6163 28.633 79.6163C29.5559 79.6163 30.4822 79.5131 31.4046 79.3718C31.0274 79.5512 30.6632 79.7135 30.3105 79.8598C29.8943 80.0327 29.4941 80.1833 29.1111 80.3129C27.7884 80.7596 26.6614 80.9548 25.7109 80.9548Z" fill="#CECCDB"/>
<path d="M31.6994 72.5453C31.037 72.2216 30.3646 71.9021 29.6945 71.5901C29.0214 71.2817 28.3473 70.9792 27.6695 70.6901C26.3149 70.1162 24.9344 69.5869 23.5388 69.2633C23.1908 69.1835 22.8426 69.1196 22.4995 69.0796C22.1574 69.0407 21.817 69.0221 21.5036 69.0503C21.3458 69.0619 21.1969 69.0878 21.0614 69.1244C20.9247 69.1594 20.8027 69.2066 20.7049 69.2666C20.6057 69.326 20.528 69.3941 20.4654 69.4739C20.4 69.5564 20.3597 69.6398 20.3167 69.7733C20.2281 70.0415 20.2157 70.2632 20.2822 70.4882C20.3153 70.6025 20.3669 70.7219 20.4377 70.8509C20.5104 70.9796 20.5999 71.1146 20.6997 71.2546C20.9017 71.5361 21.1418 71.8396 21.3677 72.1802C21.5919 72.5225 21.8049 72.9029 21.9488 73.3205C22.0962 73.736 22.177 74.1791 22.1903 74.6129C22.1969 74.8301 22.1896 75.0448 22.1704 75.2564C22.1506 75.4637 22.1141 75.6911 22.0955 75.839C22.0003 76.5026 22.0293 77.1782 22.1748 77.8046C22.2518 78.1166 22.3592 78.4169 22.5051 78.6919C22.6549 78.9644 22.8399 79.2113 23.057 79.4264C23.4888 79.8608 24.072 80.1416 24.7142 80.2871C25.3616 80.4209 26.0594 80.4314 26.7585 80.3528C27.4588 80.2744 28.1613 80.1164 28.8563 79.9127C30.2458 79.4978 31.6063 78.9269 32.9642 78.326L32.9656 78.3254C33.0737 78.2773 33.2003 78.3263 33.2483 78.4346C33.2912 78.5312 33.2564 78.6428 33.1712 78.6994C31.9206 79.5344 30.5799 80.2508 29.1429 80.783C28.4238 81.0479 27.6755 81.2525 26.9011 81.3842C26.1271 81.5105 25.317 81.5561 24.4964 81.4223C24.3942 81.4028 24.2922 81.3788 24.19 81.3569C24.0876 81.3356 23.9855 81.3119 23.8848 81.2767L23.5817 81.1798L23.2854 81.0539C22.8969 80.8715 22.5163 80.6438 22.1952 80.3419C21.8734 80.0432 21.5988 79.6955 21.3799 79.3202C21.165 78.9431 21.0089 78.5414 20.8964 78.1334C20.7808 77.7254 20.7259 77.309 20.7055 76.8953C20.6827 76.4813 20.7036 76.0691 20.7563 75.6629C20.7842 75.4415 20.8052 75.3005 20.8204 75.1373C20.8334 74.9777 20.8371 74.8198 20.8313 74.6644C20.8171 74.3542 20.7613 74.0569 20.6645 73.769C20.5685 73.4801 20.4184 73.2029 20.2382 72.9212C20.0547 72.6389 19.8352 72.3554 19.6047 72.0302C19.4899 71.8661 19.3736 71.6903 19.2652 71.4935C19.1567 71.2961 19.0613 71.0702 18.9994 70.8244C18.9369 70.58 18.9101 70.3127 18.9339 70.0589C18.9554 69.8057 19.0109 69.5609 19.0938 69.3448C19.1284 69.239 19.1863 69.1151 19.2456 68.999L19.3497 68.828C19.3873 68.7725 19.4304 68.7196 19.4717 68.6663C19.6447 68.4575 19.8604 68.2867 20.0854 68.1635C20.311 68.0384 20.5439 67.9592 20.7695 67.9103C20.996 67.8605 21.2177 67.8353 21.432 67.8287C21.8627 67.811 22.2687 67.8548 22.6637 67.9175C23.0583 67.9817 23.4402 68.0705 23.8142 68.174C24.5618 68.3813 25.2801 68.6417 25.9838 68.9267C26.687 69.2129 27.3758 69.5231 28.0515 69.8561C28.7281 70.1876 29.3916 70.5416 30.0422 70.9171C30.6951 71.2898 31.3341 71.6783 31.9604 72.1019C32.0785 72.1817 32.1094 72.3419 32.0297 72.4598C31.9567 72.5675 31.8165 72.6029 31.7029 72.5471L31.6994 72.5453Z" fill="#390075"/>
<path d="M20.539 71.7296C20.7156 71.7203 20.867 71.7184 21.0278 71.7178C21.1861 71.7169 21.3438 71.7194 21.5007 71.7238C21.8147 71.7317 22.1273 71.75 22.4388 71.7736C23.0617 71.8238 23.6807 71.9071 24.2927 72.023C24.9052 72.1336 25.5083 72.3002 26.0978 72.493C26.6881 72.6878 27.2556 72.9469 27.7996 73.2377C27.8716 73.2761 27.8988 73.3657 27.8603 73.4378C27.8249 73.5038 27.7467 73.5323 27.6782 73.5067L27.6718 73.5044C27.1116 73.2953 26.543 73.1219 25.9588 73.0123C25.375 72.9044 24.7881 72.8234 24.1959 72.7963C23.6047 72.7646 23.0128 72.764 22.4236 72.7952C22.1292 72.8119 21.8354 72.8336 21.5438 72.8653C21.3978 72.8807 21.2527 72.8978 21.1087 72.9178C20.9671 72.9371 20.8163 72.9598 20.6916 72.9836L20.6903 72.9838C20.3467 73.049 20.0154 72.8234 19.9502 72.4798C19.885 72.1363 20.1106 71.8052 20.4542 71.7398C20.4814 71.7346 20.5122 71.7313 20.539 71.7296Z" fill="#390075"/>
<path d="M21.4704 76.4167C21.7304 76.4684 22.0206 76.5152 22.3004 76.5542C22.5828 76.5946 22.8671 76.628 23.1521 76.6583C23.7222 76.7171 24.2956 76.7536 24.8698 76.7692C25.4446 76.7882 26.0191 76.7719 26.5933 76.7365C27.1681 76.7011 27.7375 76.6213 28.3053 76.5188L28.3117 76.5176C28.4157 76.4986 28.5152 76.5677 28.534 76.6717C28.5514 76.7678 28.4938 76.8598 28.4033 76.8884C27.8362 77.0669 27.2586 77.2229 26.6725 77.3338C26.0869 77.4448 25.4955 77.5363 24.9012 77.5915C24.307 77.6501 23.7101 77.6869 23.1116 77.7008C22.8125 77.7065 22.5128 77.7088 22.2122 77.704C21.9088 77.6996 21.6169 77.6903 21.2969 77.6681C20.948 77.644 20.6848 77.3417 20.7091 76.9928C20.7333 76.6438 21.0357 76.3808 21.3845 76.4051C21.4101 76.4069 21.4353 76.4102 21.46 76.4146L21.4704 76.4167Z" fill="#390075"/>
<path d="M41.4428 33.5438C41.4011 33.575 41.3472 33.62 41.2961 33.6614C41.2451 33.7019 41.1936 33.7475 41.1422 33.7919C41.0388 33.8795 40.9365 33.9704 40.8357 34.0652C40.6305 34.2482 40.437 34.4477 40.2384 34.6409C39.8532 35.0417 39.4766 35.4539 39.1241 35.8877C38.4167 36.7527 37.767 37.6721 37.2134 38.6492C36.6588 39.6245 36.1572 40.6373 35.7747 41.6979L35.6253 42.0938C35.6007 42.1598 35.574 42.2252 35.5515 42.2921L35.4899 42.4943L35.2424 43.304C35.1515 43.5722 35.0988 43.8504 35.0322 44.1248L34.8395 44.9516L34.8347 44.972C34.7972 45.1331 34.6359 45.2333 34.4747 45.1958C34.3184 45.1595 34.2197 45.0062 34.248 44.8498L34.4049 43.9904C34.4597 43.7042 34.5009 43.4144 34.5809 43.1336L34.7963 42.2843L34.8503 42.0719C34.8705 42.0017 34.8945 41.9327 34.9163 41.8631L35.0513 41.4461C35.3955 40.3271 35.8649 39.2489 36.3957 38.2029C36.9249 37.1543 37.5582 36.1586 38.2595 35.2115C38.6093 34.7369 38.9861 34.2812 39.3759 33.8348C39.5784 33.6177 39.7745 33.3954 39.9882 33.185C40.0916 33.0779 40.199 32.9729 40.3097 32.8694C40.3647 32.8172 40.4184 32.765 40.4772 32.7134C40.5353 32.6612 40.589 32.6117 40.6592 32.5529C40.9272 32.3294 41.3255 32.3654 41.5493 32.6333C41.7728 32.9012 41.7372 33.2996 41.4692 33.5231C41.4611 33.5297 41.4509 33.5379 41.4428 33.5438Z" fill="#390075"/>
<path d="M42.9644 38.5091C42.9395 38.5241 42.896 38.5547 42.8587 38.5798C42.8206 38.6045 42.7808 38.6357 42.7414 38.6639C42.6626 38.7197 42.5843 38.7812 42.5062 38.8433C42.3487 38.9642 42.197 39.0986 42.0449 39.2309C41.8966 39.3686 41.7437 39.5018 41.6024 39.6485C41.4572 39.7913 41.3135 39.9359 41.1779 40.0889C40.6264 40.6916 40.1206 41.3429 39.6749 42.0365C39.5606 42.2081 39.4616 42.3893 39.3535 42.5652L39.1949 42.8312C39.1448 42.9215 39.0989 43.0139 39.0506 43.1054L38.7635 43.6556L38.5087 44.2227L38.3812 44.5067C38.3393 44.6015 38.3069 44.7002 38.2687 44.7968L38.0489 45.3804C38.0099 45.4769 37.9772 45.5754 37.9483 45.6755L37.8569 45.974L37.6729 46.5716L37.6658 46.5947C37.6046 46.7948 37.3925 46.907 37.1927 46.8455C36.9991 46.7858 36.8879 46.5845 36.9368 46.3904L37.0973 45.7577L37.1777 45.4412C37.2029 45.335 37.232 45.23 37.2677 45.1271L37.4678 44.504C37.5026 44.4005 37.532 44.2948 37.5712 44.1932L37.6904 43.8879L37.9295 43.2764L38.2043 42.6794C38.2504 42.5802 38.2949 42.4796 38.3431 42.3812L38.4974 42.0905C38.6024 41.8977 38.6989 41.6998 38.8114 41.5109C39.2504 40.7483 39.7571 40.0227 40.3226 39.3402C40.4612 39.1673 40.6097 39.002 40.7603 38.8382C40.907 38.6708 41.0675 38.5154 41.2237 38.3555C41.3852 38.2002 41.5456 38.0441 41.7187 37.8962C41.8037 37.8215 41.8895 37.7471 41.9806 37.6752C42.0262 37.6388 42.0689 37.6025 42.1181 37.5662C42.1673 37.5293 42.2089 37.496 42.2729 37.4519L42.2801 37.4468C42.5675 37.2488 42.961 37.3211 43.1594 37.6082C43.3577 37.8956 43.2854 38.2892 42.9979 38.4875C42.9875 38.4947 42.9752 38.5025 42.9644 38.5091Z" fill="#390075"/>
<path d="M47.5936 44.3153C47.584 44.3846 47.574 44.4254 47.5645 44.474C47.5552 44.5229 47.5434 44.5661 47.5324 44.6108C47.5111 44.7005 47.4865 44.7869 47.4592 44.8715C47.41 45.0437 47.3446 45.2057 47.2825 45.3694C47.1463 45.6908 46.9972 46.0042 46.8154 46.2971C46.4607 46.8871 46.0246 47.4194 45.5317 47.8829C45.4063 47.9963 45.2749 48.1021 45.1471 48.2113C45.0817 48.2644 45.0205 48.3227 44.9518 48.371L44.7463 48.5156C44.608 48.6098 44.4751 48.7121 44.3326 48.7985L43.9003 49.0469C43.828 49.0873 43.7575 49.1312 43.6836 49.1684L43.4586 49.2725L43.0096 49.4792C42.7051 49.6021 42.3934 49.7042 42.0874 49.8163C41.9326 49.8734 41.7613 49.7938 41.7043 49.639C41.6509 49.4933 41.7184 49.3325 41.8557 49.2671L41.8852 49.253C42.1645 49.121 42.448 49.0007 42.7204 48.8617L43.1182 48.6344L43.3165 48.5213C43.3809 48.4813 43.4415 48.4352 43.5043 48.3926L43.8765 48.1334C43.998 48.0446 44.1084 47.9417 44.2249 47.8469L44.3971 47.7026C44.4544 47.6546 44.5036 47.5979 44.557 47.546C44.6613 47.4392 44.769 47.3365 44.8699 47.228C45.265 46.7848 45.5974 46.2944 45.8521 45.7723C45.9838 45.5135 46.0834 45.2408 46.1722 44.9696C46.2097 44.8328 46.2526 44.696 46.278 44.5598C46.2936 44.4913 46.3065 44.4238 46.3159 44.3579C46.3213 44.3248 46.3276 44.291 46.33 44.2613C46.333 44.2319 46.3378 44.1946 46.3372 44.1851C46.3138 43.8335 46.5799 43.5296 46.9315 43.5065C47.2828 43.4831 47.5867 43.7492 47.6101 44.1008C47.6128 44.1437 47.6113 44.186 47.6059 44.2271L47.5936 44.3153Z" fill="#390075"/>
<path d="M51.447 44.1155C51.4399 44.1758 51.4324 44.2121 51.4249 44.2544C51.418 44.2973 51.4093 44.3357 51.4005 44.3746C51.3843 44.4536 51.3661 44.5302 51.3453 44.6045C51.3082 44.7566 51.2586 44.9006 51.2128 45.047C51.1101 45.3341 50.9976 45.6158 50.863 45.8852C50.5953 46.4243 50.2749 46.9348 49.8918 47.3912C49.803 47.5106 49.6945 47.6135 49.597 47.7252C49.4974 47.8352 49.3978 47.9446 49.2865 48.0429L48.9628 48.3448C48.849 48.4388 48.7324 48.5285 48.6178 48.6204C48.3936 48.8111 48.139 48.9584 47.8986 49.1237C47.652 49.2788 47.3913 49.409 47.1393 49.5512C46.9657 49.6493 46.7451 49.5881 46.647 49.4144C46.554 49.25 46.6038 49.0439 46.7565 48.9389L46.7913 48.9152C47.0124 48.7643 47.2416 48.6269 47.454 48.4679C47.6595 48.2993 47.8795 48.1498 48.0651 47.9618L48.3528 47.6921L48.6174 47.4014C48.709 47.3079 48.7882 47.2037 48.8674 47.1002C48.9447 46.9952 49.033 46.8992 49.1013 46.7882C49.4028 46.3652 49.6411 45.9027 49.8309 45.4277C49.9272 45.1904 50.0013 44.9462 50.0674 44.7027C50.0943 44.5802 50.1265 44.4579 50.1451 44.3369C50.157 44.276 50.1663 44.2163 50.1732 44.1579C50.1772 44.1284 50.1816 44.0984 50.1834 44.072C50.1859 44.0456 50.1891 44.0132 50.1888 44.0039C50.1693 43.6532 50.4382 43.3532 50.7891 43.3337C51.1399 43.3145 51.4399 43.5833 51.459 43.934C51.4611 43.9706 51.4599 44.0066 51.4561 44.0417L51.447 44.1155Z" fill="#390075"/>
<path d="M89.4603 67.8242C89.4553 67.5257 89.4732 67.223 89.5132 66.9173C89.5215 66.8494 89.5308 66.7817 89.5407 66.7138C89.6058 66.6785 89.6712 66.6442 89.736 66.6101C92.553 65.1346 95.1349 63.2108 97.3522 60.9311C98.6643 59.5835 99.873 58.0696 100.475 56.2877C100.741 55.4923 100.871 54.6452 100.833 53.8055C100.83 53.75 100.823 53.6903 100.812 53.6263C100.865 53.6384 100.919 53.6525 100.972 53.6686C101.445 53.8157 101.801 54.1394 102.06 54.6581C103.201 56.9411 98.9661 61.2251 97.227 62.6927C97.2111 62.7059 97.1955 62.72 97.1805 62.7346C97.1707 62.7446 96.1764 63.7288 94.8022 64.8284C92.6736 66.5311 90.808 67.5736 89.4603 67.8242Z" fill="#CECCDB"/>
<path d="M97.2271 62.6927C98.9661 61.2251 103.201 56.9411 102.06 54.658C101.801 54.1394 101.445 53.8157 100.972 53.6686C100.919 53.6525 100.865 53.6384 100.812 53.6263C100.777 53.4311 100.706 53.2004 100.627 52.9609C101.385 53.0351 102.139 53.4011 102.625 54.3755C103.943 57.0136 99.7909 61.2029 98.2105 62.6615C97.9413 62.5976 97.7659 62.5657 97.7349 62.5604C97.6986 62.554 97.6626 62.5511 97.6267 62.5511C97.4818 62.5511 97.3401 62.6009 97.2271 62.6927Z" fill="#2F006D"/>
<path d="M89.4604 67.8242C90.8081 67.5736 92.6737 66.5311 94.8023 64.8284C96.1766 63.7288 97.1708 62.7446 97.1806 62.7346C97.1956 62.72 97.2112 62.7059 97.2272 62.6926C97.3403 62.6009 97.4819 62.5511 97.6268 62.5511C97.6628 62.5511 97.6987 62.554 97.7351 62.5603C97.766 62.5657 97.9414 62.5976 98.2106 62.6615C97.8524 62.9923 97.6262 63.1826 97.6262 63.1826C97.6262 63.1826 97.8143 63.1471 98.1358 63.1055C97.2829 63.6473 96.4304 64.1884 95.5775 64.73C95.4731 64.7165 95.3681 64.7042 95.2616 64.693C95.2403 64.6909 95.2189 64.6898 95.1977 64.6898C95.0546 64.6898 94.9151 64.738 94.8023 64.8284C92.6737 66.5311 90.8081 67.5736 89.4604 67.8242Z" fill="#2F006D"/>
<path d="M89.4962 68.3755C89.4944 68.3588 89.4923 68.3417 89.4908 68.3248C89.4733 68.1592 89.4631 67.9925 89.4604 67.8242C90.8081 67.5736 92.6737 66.5311 94.8023 64.8284C94.9151 64.738 95.0546 64.6898 95.1977 64.6898C95.2189 64.6898 95.2403 64.6909 95.2616 64.693C95.3681 64.7042 95.4731 64.7165 95.5775 64.73C93.8531 65.8246 92.1289 66.919 90.4054 68.014C90.1406 68.1817 89.8043 68.3378 89.4962 68.3755Z" fill="#2F006D"/>
<path d="M89.3603 68.3843C89.1413 68.3843 88.946 68.3117 88.8131 68.1239C88.619 67.8482 88.7033 67.4498 88.9154 67.1877C89.081 66.9827 89.3075 66.8411 89.5406 66.7139C89.5307 66.7817 89.5214 66.8495 89.513 66.9173C89.4731 67.223 89.4552 67.5257 89.4602 67.8242C89.4629 67.9925 89.4731 68.1593 89.4905 68.3248C89.4921 68.3417 89.4942 68.3588 89.4959 68.3756C89.45 68.3813 89.4044 68.3843 89.3603 68.3843Z" fill="#2F006D"/>
<path d="M100.362 74.9831C100.268 74.9633 100.174 74.9427 100.08 74.9213C100.164 74.9173 100.248 74.9132 100.333 74.9084C100.361 74.9063 100.389 74.9045 100.417 74.9023C100.399 74.9285 100.381 74.9555 100.362 74.9831Z" fill="#2F006D"/>
<path d="M98.9062 73.9142C100.125 73.1719 101.315 72.3784 102.348 71.3986C103.603 70.2061 104.623 68.7059 104.967 67.01C105.051 66.5915 105.085 66.1859 105.074 65.7886C105.34 66.2569 105.503 66.8036 105.566 67.4357C106.048 72.2515 101.438 73.4525 100.806 73.594C100.784 73.5973 100.762 73.6021 100.741 73.6079C100.715 73.613 100.689 73.6196 100.664 73.628C100.518 73.6648 100.347 73.7003 100.187 73.7317C99.9962 73.7671 99.8036 73.8005 99.6095 73.8284C99.3764 73.8623 99.1418 73.8911 98.9062 73.9142Z" fill="#CECCDB"/>
<path d="M101.514 74.0498C101.436 73.7698 101.182 73.5863 100.905 73.5863C100.872 73.5863 100.839 73.5887 100.806 73.594C101.438 73.4525 106.048 72.2515 105.566 67.4357C105.503 66.8036 105.341 66.2569 105.074 65.7887C105.062 65.3692 105.002 64.9594 104.899 64.5542C105.582 65.2042 106.069 66.1123 106.195 67.373C106.648 71.9009 103.033 73.5575 101.514 74.0498ZM100.664 73.628C100.689 73.6196 100.715 73.613 100.741 73.6079C100.74 73.6082 100.739 73.6085 100.738 73.6088L100.736 73.609C100.713 73.6154 100.689 73.6217 100.664 73.628Z" fill="#2F006D"/>
<path d="M100.08 74.9213C99.419 74.771 98.7638 74.5861 98.1167 74.3876C98.3801 74.2313 98.6442 74.0738 98.9063 73.9142C99.1419 73.8911 99.3765 73.8623 99.6096 73.8284C99.8036 73.8005 99.9963 73.7671 100.187 73.7317C100.347 73.7003 100.518 73.6648 100.664 73.628C100.689 73.6217 100.713 73.6154 100.736 73.609L100.738 73.6088C100.739 73.6085 100.74 73.6082 100.741 73.6079C100.762 73.6021 100.784 73.5973 100.806 73.594C100.839 73.5886 100.872 73.5863 100.905 73.5863C101.182 73.5863 101.436 73.7698 101.514 74.0498C101.117 74.1785 100.863 74.2277 100.863 74.2277C100.863 74.2277 100.714 74.4688 100.417 74.9023C100.389 74.9044 100.361 74.9063 100.333 74.9084C100.249 74.9132 100.164 74.9173 100.08 74.9213Z" fill="#2F006D"/>
<path d="M101.562 37.04C99.5502 38.8547 96.4481 38.6945 94.6335 36.6823C92.8187 34.6704 92.9789 31.5683 94.991 29.7536C97.0031 27.9392 100.105 28.0991 101.92 30.1112C103.735 32.1233 103.574 35.2256 101.562 37.04Z" fill="#00AAFF"/>
<path d="M97.1696 31.1884C96.4306 31.6873 95.81 32.3807 95.4737 33.2065C95.1377 34.0325 95.1031 34.9928 95.4562 35.8115C94.7318 34.8323 94.4795 33.5192 94.7891 32.3411C95.0573 31.3213 95.8327 30.2263 96.7873 29.7302C97.1591 29.5369 97.5379 29.4704 97.8131 29.8601C98.2277 30.4471 97.6145 30.8884 97.1696 31.1884Z" fill="white"/>
<path d="M109.388 42.0746C108.31 43.0273 106.663 42.9259 105.71 41.8478C104.757 40.7696 104.859 39.1228 105.937 38.1701C107.015 37.2169 108.662 37.3186 109.615 38.3969C110.568 39.4751 110.466 41.1215 109.388 42.0746Z" fill="#00AAFF"/>
<path d="M107.101 38.9332C106.713 39.1901 106.385 39.5492 106.205 39.9788C106.025 40.4084 106.002 40.91 106.182 41.3396C105.809 40.8242 105.684 40.1369 105.852 39.523C105.997 38.9917 106.408 38.4238 106.909 38.1694C107.104 38.0705 107.303 38.0378 107.445 38.2427C107.658 38.5517 107.335 38.779 107.101 38.9332Z" fill="white"/>
<path d="M102.816 48.9107C102.008 49.2644 101.066 48.8959 100.712 48.0878C100.358 47.2798 100.726 46.3376 101.535 45.9838C102.343 45.6301 103.285 45.9982 103.638 46.8065C103.992 47.6146 103.624 48.5567 102.816 48.9107Z" fill="#00AAFF"/>
<path d="M102.021 46.6583C101.75 46.7342 101.495 46.8803 101.311 47.0944C101.128 47.3084 101.022 47.5931 101.046 47.8739C100.926 47.5079 100.982 47.0888 101.192 46.7663C101.374 46.4873 101.716 46.2362 102.052 46.1825C102.183 46.1617 102.303 46.1798 102.347 46.3238C102.413 46.5413 102.185 46.6127 102.021 46.6583Z" fill="white"/>
<path d="M78.3245 57.9065C76.5275 58.628 76.1266 61.3802 77.4293 64.0534C78.7319 66.7271 81.2447 68.3096 83.0416 67.5884C84.8387 66.8669 85.2395 64.1146 83.9369 61.4411C82.6343 58.7675 80.1214 57.185 78.3245 57.9065Z" fill="#390075"/>
<path d="M78.8496 59.0371C78.4521 59.5573 78.7437 60.5486 79.5008 61.2506C80.2578 61.9527 81.1937 62.0998 81.591 61.5796C81.9885 61.0592 81.6969 60.0683 80.94 59.3663C80.1828 58.6643 79.2471 58.5169 78.8496 59.0371Z" fill="white"/>
<path d="M80.3432 65.4815C80.2067 65.813 80.4642 66.308 80.9183 66.5864C81.3728 66.8651 81.8517 66.8219 81.9881 66.4901C82.1249 66.1586 81.8675 65.6636 81.413 65.3852C80.9588 65.1065 80.48 65.1496 80.3432 65.4815Z" fill="#B199C5"/>
</svg>
