<svg width="128" height="128" viewBox="0 0 128 128" fill="none" xmlns="http://www.w3.org/2000/svg">
<g clip-path="url(#clip0_25_100)">
<path d="M69.7977 112.22L59.4495 112.98L49.1012 112.22L43.5957 119.982C43.5957 119.982 47.6778 121.958 59.4495 121.958C71.2184 121.958 75.3014 119.982 75.3014 119.982L69.7977 112.22Z" fill="#DDEBF5"/>
<path d="M67.1788 115.664C68.8 113.184 72.6071 115.689 73.4059 119.057C74.2047 122.425 57.4387 125.041 50.6533 122.353C57.948 123.441 64.2958 120.073 67.1788 115.664Z" fill="#EBF7FD"/>
<mask id="mask0_25_100" style="mask-type:alpha" maskUnits="userSpaceOnUse" x="43" y="116" width="33" height="9">
<path d="M43.4077 116.938H75.4765V124H43.4077V116.938Z" fill="black"/>
</mask>
<g mask="url(#mask0_25_100)">
<path d="M73.25 117.09C71.263 118.87 64.6437 120.202 58.383 120.147C51.9262 120.09 45.8525 118.592 45.6483 117.09C45.1308 117.725 44.0652 119.323 43.5958 119.982C43.4833 121.528 47.894 124 58.8214 124C68.1721 124 74.8831 121.576 75.3015 119.982C74.8359 119.371 73.25 117.09 73.25 117.09Z" fill="#E41B2F"/>
</g>
<path d="M72.7705 117.452C70.9387 118.657 66.9855 119.61 62.6464 119.981C59.4376 121.962 55.2338 123.036 50.6533 122.353C57.4387 125.041 74.2047 122.425 73.4059 119.057C73.2707 118.489 73.051 117.949 72.7705 117.452Z" fill="#E63F38"/>
<path d="M69.7976 112.22C69.7976 112.984 65.9443 113.944 59.1825 114.041C53.471 114.123 49.1011 112.984 49.1011 112.22C49.1011 111.455 53.736 110.834 59.4494 110.834C65.1618 110.834 69.7976 111.455 69.7976 112.22Z" fill="#3AADDA"/>
<path d="M53.6608 112.127C53.078 112.225 52.2764 112.442 53.078 112.878C53.8768 113.314 57.6094 113.727 61.2913 113.143C64.9758 112.564 64.1016 111.813 61.5345 111.643C58.9656 111.472 53.6608 112.127 53.6608 112.127Z" fill="#2C7299"/>
<path d="M45.7998 119.734C45.5938 120.155 45.2062 120.387 44.9375 120.252C44.6661 120.12 44.6161 119.671 44.824 119.25C45.0319 118.831 45.4186 118.6 45.6891 118.732C45.9587 118.866 46.0104 119.316 45.7998 119.734Z" fill="#DDEBF5"/>
<path d="M49.0956 121.165C48.8886 121.584 48.5001 121.814 48.2296 121.683C47.9609 121.549 47.9101 121.102 48.1197 120.681C48.3267 120.261 48.7134 120.028 48.983 120.162C49.2544 120.296 49.3034 120.745 49.0956 121.165Z" fill="#DDEBF5"/>
<path d="M54.1171 121.911C53.9755 122.358 53.6288 122.646 53.3428 122.554C53.056 122.466 52.9362 122.028 53.0787 121.581C53.2212 121.135 53.568 120.848 53.8548 120.937C54.1426 121.028 54.2588 121.464 54.1171 121.911Z" fill="#DDEBF5"/>
<path d="M59.3533 121.962C59.3334 122.432 59.0747 122.8 58.7715 122.787C58.4728 122.773 58.2459 122.386 58.2631 121.918C58.2813 121.451 58.5418 121.08 58.8432 121.094C59.1455 121.106 59.3733 121.495 59.3533 121.962Z" fill="#DDEBF5"/>
<path d="M64.5316 121.491C64.606 121.95 64.4245 122.364 64.1277 122.414C63.8308 122.462 63.5295 122.128 63.455 121.665C63.3788 121.202 63.5585 120.787 63.8562 120.74C64.1549 120.691 64.4554 121.027 64.5316 121.491Z" fill="#DDEBF5"/>
<path d="M69.7785 120.593C69.8965 121.045 69.7549 121.473 69.4626 121.549C69.1739 121.626 68.8399 121.32 68.7228 120.866C68.6048 120.412 68.7464 119.983 69.0378 119.91C69.3282 119.831 69.6605 120.139 69.7785 120.593Z" fill="#DDEBF5"/>
<path d="M73.9713 118.997C74.1483 119.433 74.0648 119.875 73.7853 119.988C73.5066 120.1 73.1362 119.842 72.9628 119.405C72.7858 118.973 72.8684 118.529 73.1471 118.417C73.4267 118.303 73.7961 118.562 73.9713 118.997Z" fill="#DDEBF5"/>
<path d="M54.3569 88.3694C54.3396 87.9591 54.8407 87.8338 55.7512 87.8529C56.2532 88.5309 55.8238 90.0696 55.8238 90.0696L54.3569 88.3694Z" fill="#6A3A7F"/>
<path d="M43.237 58.0099L42.5462 57.2982C42.5462 57.2982 43.0282 56.6691 42.8385 56.06C42.6288 55.3928 42.0379 54.9217 42.3892 54.4197C42.7541 53.9023 43.0001 53.1516 42.5871 52.9456C42.0052 52.6569 41.5731 53.2034 41.2182 54.0993C40.9994 54.6585 40.8996 55.0788 40.0554 54.4633C39.577 54.1138 38.4278 52.4427 37.7842 52.626C37.3322 52.754 37.2922 53.2851 37.9158 53.8833C38.446 54.3907 39.2738 55.0552 39.2166 55.2249C39.1649 55.3683 37.5146 54.2064 37.0235 53.9877C36.2011 53.62 35.6338 54.6285 36.6087 55.1378C37.5627 55.6379 38.6947 56.0945 38.5749 56.3169C38.4768 56.5021 37.6925 56.0954 36.4898 55.795C35.6982 55.5971 35.3351 56.5121 36.438 56.8407C37.2759 57.0894 38.5857 57.2419 38.5903 57.4462C38.5966 57.7648 36.6541 57.1339 36.6532 57.8719C36.6495 58.3494 37.4456 58.3494 38.3488 58.4692C39.2511 58.451 39.5262 59.16 40.3377 59.0992C40.9586 59.052 41.397 58.5999 41.397 58.5999L42.3928 59.3134L43.237 58.0099Z" fill="#FABD99"/>
<path d="M40.9905 55.6343C40.7282 56.4567 40.8008 57.1021 41.6641 57.5605C40.1182 57.3245 40.4658 55.9075 40.9905 55.6343Z" fill="#EAA376"/>
<path d="M39.4082 57.8274C39.4082 57.8274 40.5683 57.4089 41.1039 57.7984C40.4576 57.1366 39.9174 57.4443 39.4082 57.8274Z" fill="#EAA376"/>
<path d="M61.1504 60.3046C61.1504 60.3046 62.4376 59.8045 62.9722 59.7691C63.0085 57.8746 62.9005 57.6241 62.9005 57.6241L64.7233 57.5188L64.8313 59.8063C64.8313 59.8063 66.6195 60.1639 67.048 60.5189C64.1169 61.4856 61.9365 61.3785 61.1504 60.3046Z" fill="#FABD99"/>
<path d="M62.974 57.6186C62.9722 57.6395 62.9722 57.6577 62.9722 57.6776C62.9541 57.6803 62.935 57.6822 62.915 57.6858C62.9377 57.8056 62.9795 58.1524 62.9795 59.0637C63.2237 59.1981 64.0797 59.2689 64.7923 58.9839L64.7233 57.5188L62.974 57.6186Z" fill="#EAA376"/>
<path d="M60.5044 107.176C60.5044 107.176 60.6297 108.178 60.6487 108.714C61.5229 108.945 62.6149 108.714 62.6149 108.714C62.6149 108.714 62.6149 107.195 62.3653 106.676C61.6672 106.802 60.5044 107.176 60.5044 107.176Z" fill="#FABD99"/>
<path d="M60.5634 107.675C60.8738 107.762 62.1846 107.61 62.5368 107.399C62.4996 107.112 62.4452 106.842 62.3653 106.676C61.6672 106.802 60.5044 107.176 60.5044 107.176C60.5044 107.176 60.5316 107.389 60.5634 107.675Z" fill="#EAA376"/>
<path d="M60.9064 108.817C60.9064 108.817 59.9196 109.602 58.0969 109.721C55.7867 106.426 51.4232 107.748 52.0186 110.914C55.2729 112.018 61.8722 112.129 63.1521 111.046C63.6786 109.7 62.8099 108.693 62.8099 108.693L60.9064 108.817Z" fill="#262A34"/>
<path d="M51.9905 110.781C51.3895 110.93 51.3541 112.002 51.9187 112.167C53.6144 112.852 59.4421 113.541 63.2383 112.065C63.5696 111.451 63.1784 110.94 63.1784 110.94C63.1784 110.94 56.8841 112.408 51.9905 110.781Z" fill="#DDEBF5"/>
<path d="M60.6094 108.159C60.6094 108.159 59.9495 108.509 60.3462 109.139C61.8757 109.345 62.9287 108.847 62.9287 108.847C62.9287 108.847 63.1148 108.106 62.5874 107.943C61.8675 108.301 60.6094 108.159 60.6094 108.159Z" fill="#FCD205"/>
<path d="M58.3592 110.415C58.5889 110.87 59.2443 110.637 59.3351 110.288C59.3705 109.791 58.7396 108.942 57.604 109.206C57.8682 109.42 58.3012 110.042 58.3592 110.415Z" fill="#FCD205"/>
<path d="M59.2732 109.542C59.2732 109.542 59.5138 109.595 59.9168 110.253C60.18 110.753 60.9943 110.41 60.8745 110.035C60.7546 109.661 60.3235 109.123 59.6644 109.05C59.1352 108.986 58.7767 109.178 58.6841 109.311C58.8593 109.412 59.0572 109.603 59.0572 109.603L59.2732 109.542Z" fill="#FCD205"/>
<path d="M76.8874 101.334C76.8874 101.334 77.5019 102.296 77.845 102.709C77.3485 103.464 76.3073 103.816 76.3073 103.816C76.3073 103.816 75.327 102.753 75.1699 102.2C75.7727 101.827 76.8874 101.334 76.8874 101.334Z" fill="#FABD99"/>
<path d="M75.1699 102.2C75.2008 102.308 75.2661 102.441 75.3478 102.577C75.455 102.753 75.5167 102.837 75.5167 102.837C75.5167 102.837 76.6332 102.459 77.1306 101.702C77.0517 101.609 76.93 101.41 76.8347 101.276C76.5987 101.383 75.6901 101.878 75.1699 102.2Z" fill="#EAA376"/>
<path d="M77.6804 102.822C77.6804 102.822 78.9413 102.75 80.3791 101.625C79.9888 97.8453 84.0282 96.1642 85.8156 98.7522C84.1254 101.741 79.2245 106.013 77.5506 106.059C76.2171 105.35 76.1826 103.999 76.1826 103.999L77.6804 102.822Z" fill="#262A34"/>
<path d="M85.7476 98.6305C86.6417 98.3818 86.8986 99.2106 86.7851 99.5246C85.9763 101.166 81.9614 105.457 78.148 106.886C77.5016 106.885 77.459 105.998 77.459 105.998C77.459 105.998 83.1832 103.107 85.7476 98.6305Z" fill="#DDEBF5"/>
<path d="M77.4354 102.15C77.4354 102.15 78.2469 102.063 78.3168 102.691C77.3102 103.862 76.2172 104.249 76.2172 104.249C76.2172 104.249 75.5455 103.869 75.8668 103.31C76.6402 103.093 77.4354 102.15 77.4354 102.15Z" fill="#E41B2F"/>
<path d="M80.65 102.32C80.7789 102.81 80.1353 103.072 79.8348 102.874C79.4763 102.527 79.3819 101.473 80.4067 100.912C80.3504 101.244 80.4412 101.999 80.65 102.32Z" fill="#E41B2F"/>
<path d="M79.3836 102.276C79.3836 102.276 79.2402 102.475 79.3782 103.234C79.5161 103.782 78.6801 104.071 78.5185 103.712C78.3569 103.353 78.3206 102.662 78.7618 102.168C79.1167 101.769 79.5107 101.674 79.6686 101.71C79.6051 101.903 79.5842 102.177 79.5842 102.177L79.3836 102.276Z" fill="#E41B2F"/>
<path d="M55.4283 79.2719C54.3926 91.6572 58.0036 104.138 58.8242 105.531C59.2018 106.551 62.4542 107.049 62.8663 106.132C62.1846 92.948 64.1172 85.087 64.1172 85.087C64.1172 85.087 67.1191 94.6646 73.8755 101.742C74.8431 102.494 77.6308 101.099 77.5246 99.8097C70.6584 89.1945 72.8888 83.069 72.8043 78.4141C64.5992 80.6644 61.2751 79.9691 55.4283 79.2719Z" fill="#70B72E"/>
<path d="M72.805 78.6039C68.2481 80.4257 61.9121 81.2 55.4272 79.301C55.3899 79.7385 55.3291 80.5691 55.3037 81.0066C58.1268 82.1368 67.4566 82.9565 72.9294 80.2196C72.953 79.7894 72.8077 79.0114 72.805 78.6039Z" fill="#5B9F32"/>
<path d="M59.1824 105.568C59.5591 106.587 62.1335 106.56 62.542 105.64C62.0799 96.6389 63.1538 90.6133 63.6785 87.3818C62.2951 89.0402 62.3404 102.331 59.9313 102.602C57.6982 102.85 56.0235 91.4121 55.8047 86.9769L55.8238 87.979C56.3511 97.1509 58.5452 104.487 59.1824 105.568Z" fill="#5B9F32"/>
<path d="M55.3365 86.5657L55.3211 85.6543C55.3147 85.9039 55.3193 86.2107 55.3365 86.5657Z" fill="#5B9F32"/>
<path d="M73.8754 101.742C74.843 102.494 77.6307 101.099 77.5245 99.8097C71.7658 88.4411 74.3401 83.3659 73.0194 78.396C69.3793 79.3954 66.4854 79.832 64.1217 79.9283C64.0154 81.3362 64.1171 85.087 64.1171 85.087C64.1171 85.087 64.276 85.598 64.6046 86.4686C65.702 89.3724 68.6776 96.2958 73.8754 101.742Z" fill="#FCD205"/>
<path d="M74.7647 93.0234C74.6966 92.7855 74.6285 92.5504 74.5632 92.3208C73.1489 93.4001 69.9273 94.5711 68.7609 94.9732C68.917 95.2346 69.0804 95.4961 69.2465 95.7566C71.4832 95.1847 74.1429 93.4455 74.7647 93.0234ZM76.1717 96.9103C76.09 96.7161 76.0128 96.5273 75.9366 96.3375C74.7829 97.553 72.5616 98.4962 71.456 98.9119C71.623 99.127 71.7936 99.344 71.9661 99.56C74.0067 98.7803 75.6198 97.4123 76.1717 96.9103ZM73.7562 88.2014C70.6472 89.7156 67.6562 90.2212 66.2836 90.3846C66.4116 90.6578 66.5478 90.9356 66.6894 91.2197C70.1561 90.6932 73.1444 89.3307 73.8624 88.9866C73.8215 88.7189 73.7852 88.4565 73.7562 88.2014ZM64.3701 85.8295C65.2833 85.7923 68.8698 85.5109 73.4929 83.5093C73.4984 83.807 73.502 84.1057 73.5102 84.4134C72.4082 84.9844 68.6229 86.7808 64.686 86.6828C64.6588 86.6093 64.6325 86.5357 64.6043 86.4686C64.5117 86.2253 64.4346 86.0111 64.3701 85.8295Z" fill="#2C7299"/>
<path d="M64.0625 82.0251C67.2278 81.9171 70.6709 81.4106 73.3042 79.9691C73.3042 79.5579 73.1236 78.8036 73.0337 78.4577C70.5665 79.3673 67.4375 80.0708 64.1015 80.2387C64.0843 80.629 64.0661 81.5059 64.0625 82.0251Z" fill="#F08311"/>
<path d="M77.2364 99.8469C73.9749 93.4046 73.3322 88.9312 73.1961 85.4047C72.0532 90.587 75.5707 97.3533 73.4475 98.0604C71.701 98.6414 67.0143 90.3491 65.2969 87.4407C66.7084 90.823 69.7239 96.6988 74.1637 101.349C75.1305 102.099 77.3445 101.136 77.2364 99.8469Z" fill="#E4AC08"/>
<path d="M67.0479 91.1598C67.185 91.1344 67.3221 91.1108 67.46 91.0863C67.2948 90.8176 67.1342 90.5507 66.9799 90.2911C66.8564 90.3092 66.7375 90.3265 66.6304 90.341C66.762 90.6088 66.9027 90.8811 67.0479 91.1598ZM70.3185 95.408C70.1306 95.1575 69.9427 94.8924 69.7494 94.6192C69.5324 94.6991 69.3345 94.7708 69.1566 94.8334C69.3246 95.1003 69.4979 95.3672 69.674 95.6359C69.8883 95.5705 70.1016 95.4906 70.3185 95.408ZM75.9511 97.1055C75.8703 96.9176 75.7931 96.7361 75.7178 96.5518C75.1732 97.0565 74.4588 97.5104 73.7416 97.8907C73.6572 97.9633 73.5619 98.0205 73.4475 98.0605C73.4321 98.0641 73.4112 98.0623 73.3958 98.0686C72.8575 98.3364 72.3355 98.5633 71.9053 98.7367C72.0732 98.95 72.243 99.1625 72.4172 99.3758C74.0276 98.6732 75.3184 97.6547 75.9511 97.1055ZM73.5565 89.1292C73.512 88.8632 73.4748 88.6018 73.4412 88.3476C73.2887 88.4184 73.1362 88.4901 72.9846 88.5546C72.9964 88.8214 73.0173 89.0901 73.0418 89.3561C73.2424 89.2717 73.4139 89.1945 73.5565 89.1292ZM74.5051 93.1949C74.3108 93.3248 74.0521 93.4891 73.7416 93.6779C73.6935 93.4364 73.6463 93.1868 73.5964 92.9344C73.8542 92.7919 74.0929 92.6494 74.3035 92.5069C74.368 92.7338 74.4352 92.9635 74.5051 93.1949Z" fill="#245C7C"/>
<path d="M58.1942 61.138C51.2045 63.2176 46.1012 59.4332 43.5377 57.7012C42.9323 58.0652 41.7168 59.5775 41.7286 60.2674C49.6015 68.7394 59.2344 66.4201 59.2344 66.4201L58.1942 61.138Z" fill="#FCD205"/>
<path d="M55.2957 62.1646C55.2957 62.1646 57.3444 62.0021 58.6697 61.2451C58.7896 63.2203 58.992 66.2368 58.992 66.2368C58.992 66.2368 55.5934 66.2939 53.3022 66.0688C56.1762 65.1956 57.1093 63.4536 55.2957 62.1646Z" fill="#E4AC08"/>
<path d="M84.7661 58.0099L85.4569 57.2982C85.4569 57.2982 84.9767 56.6691 85.1655 56.06C85.3743 55.3928 85.9662 54.9217 85.6149 54.4197C85.2508 53.9023 85.0039 53.1516 85.417 52.9456C85.9988 52.6569 86.4309 53.2034 86.7849 54.0993C87.0046 54.6585 87.1036 55.0788 87.9487 54.4633C88.427 54.1138 89.5762 52.4427 90.2189 52.626C90.6719 52.754 90.7109 53.2851 90.0873 53.8833C89.5581 54.3907 88.7302 55.0552 88.7874 55.2249C88.8392 55.3683 90.4885 54.2064 90.9805 53.9877C91.8029 53.62 92.3703 54.6285 91.3954 55.1378C90.4404 55.6379 89.3094 56.0945 89.4292 56.3169C89.5272 56.5021 90.3124 56.0954 91.5152 55.795C92.3058 55.5971 92.6689 56.5121 91.5669 56.8407C90.7282 57.0894 89.4174 57.2419 89.4138 57.4462C89.4074 57.7648 91.3509 57.1339 91.3509 57.8719C91.3536 58.3494 90.5584 58.3494 89.6552 58.4692C88.7538 58.451 88.4779 59.16 87.6664 59.0992C87.0455 59.052 86.607 58.5999 86.607 58.5999L85.6112 59.3134L84.7661 58.0099Z" fill="#FABD99"/>
<path d="M87.0129 55.6343C87.2752 56.4567 87.2035 57.1021 86.3394 57.5605C87.8862 57.3245 87.5394 55.9075 87.0129 55.6343Z" fill="#EAA376"/>
<path d="M88.5961 57.8274C88.5961 57.8274 87.436 57.4089 86.9004 57.7984C87.5458 57.1366 88.0868 57.4443 88.5961 57.8274Z" fill="#EAA376"/>
<path d="M69.8103 61.138C76.7999 63.2176 81.9024 59.4332 84.4667 57.7012C85.0713 58.0652 86.2886 59.5775 86.2768 60.2674C78.4039 68.7394 68.77 66.4201 68.77 66.4201L69.8103 61.138Z" fill="#9B4AAB"/>
<path d="M72.7081 62.1646C72.7081 62.1646 70.6603 62.0021 69.3349 61.2451C69.2151 63.2203 69.0127 66.2368 69.0127 66.2368C69.0127 66.2368 72.4122 66.2939 74.7015 66.0688C71.8285 65.1956 70.8944 63.4536 72.7081 62.1646Z" fill="#6D3993"/>
<path d="M58.1641 104.514C58.1641 104.514 60.5768 105.059 63.0432 103.691C63.1503 104.532 63.321 106.203 63.2411 106.569C63.2411 106.569 62.0964 107.623 58.9856 107.319C58.5299 106.407 58.1641 104.514 58.1641 104.514Z" fill="#E41B2F"/>
<path d="M62.7609 104.125C62.8481 104.817 62.9888 106.195 62.9234 106.496C62.9234 106.496 61.9784 107.367 59.4141 107.114C62.1709 106.612 62.3479 105.817 62.7609 104.125Z" fill="#DB2A35"/>
<path d="M72.5356 100.723C72.5356 100.723 74.9766 100.429 76.7449 97.8535C77.3621 98.8974 77.5782 99.3022 78.0066 100.107C78.0066 100.107 76.9355 102.224 74.1995 102.87C73.1257 101.848 72.5356 100.723 72.5356 100.723Z" fill="#2C7299"/>
<path d="M73.019 100.842C73.019 100.842 74.3434 102.822 77.3798 100.351C77.3798 100.351 76.5248 102.04 74.3434 102.553C73.4893 101.739 73.019 100.842 73.019 100.842Z" fill="#245C7C"/>
<path d="M54.9995 79.0033C57.897 80.5047 67.2813 81.3625 73.4476 78.1999C71.623 67.0446 70.0127 61.8959 69.4263 61.1461C64.0098 61.1461 58.0568 61.4675 58.0568 61.4675C58.0568 61.4675 55.1075 68.9754 54.9995 79.0033Z" fill="#E41B2F"/>
<path d="M54.9995 79.0033C57.897 80.5047 67.2813 81.3625 73.4476 78.1999C71.623 67.0446 70.0127 61.8959 69.4263 61.1461C64.0098 61.1461 58.0568 61.4675 58.0568 61.4675C58.0568 61.4675 55.1075 68.9754 54.9995 79.0033Z" fill="#E41B2F"/>
<path d="M63.9192 63.0233C64.6082 62.9961 65.338 63.7314 66.0705 63.9683C66.4364 67.2652 66.7214 72.5864 65.948 79.0033C70.159 79.2175 73.0021 77.4483 73.0021 77.4483C73.0021 77.4483 71.9219 68.0858 69.5917 62.3071C69.8213 62.1555 69.9239 61.9513 69.9502 61.7407C69.8268 61.4502 69.7242 61.2514 69.6389 61.1461C68.1193 61.1461 66.5544 61.1715 65.0929 61.2069C64.5001 61.7598 63.6323 61.7362 63.065 61.2659C60.5832 61.3485 58.6942 61.4466 58.3356 61.4638C58.3592 61.6036 58.4255 61.728 58.5163 61.8333C58.4282 61.8959 58.3411 61.9622 58.253 62.0312C57.7638 63.2203 57.3471 64.4267 56.9958 65.6204C56.2288 68.6023 55.3764 72.9831 55.2339 78.0783C55.931 78.3933 58.411 79.3736 61.5781 79.0577C61.3167 73.3698 61.6326 67.6592 61.9194 64.0691C62.7191 63.9892 63.1086 63.0533 63.9192 63.0233Z" fill="#BB1524"/>
<path d="M61.5962 59.9125C61.5962 59.9125 60.4697 69.2968 60.8981 78.6284C57.1446 79.0033 54.3569 77.5536 54.3569 77.5536C54.3569 77.5536 54.464 69.1379 57.5749 61.6C59.3432 60.2066 61.5962 59.9125 61.5962 59.9125Z" fill="#43B4BD"/>
<path d="M57.109 63.4536C56.7505 66.2404 53.5688 76.6095 60.504 78.3588C59.0035 78.504 56.253 78.0737 54.7861 77.2867C55.0367 70.0665 57.109 63.4536 57.109 63.4536Z" fill="#3695A0"/>
<path d="M66.2349 59.9125C66.2349 59.9125 67.9777 67.6628 66.6624 78.5748C70.8716 78.789 73.7147 77.0199 73.7147 77.0199C73.7147 77.0199 72.5891 67.2316 70.1491 61.4938C68.0839 60.2066 66.2349 59.9125 66.2349 59.9125Z" fill="#43B4BD"/>
<path d="M66.9919 65.2128C66.9919 65.5977 67.3041 65.91 67.6908 65.91C68.073 65.91 68.3871 65.5977 68.3871 65.2128C68.3871 64.8279 68.073 64.5148 67.6908 64.5148C67.3041 64.5148 66.9919 64.8279 66.9919 65.2128ZM66.9029 64.7054C67.0699 64.4503 67.3604 64.2751 67.6908 64.2751C68.2055 64.2751 68.6249 64.6963 68.6249 65.2128C68.6249 65.7311 68.2055 66.1496 67.6908 66.1496C67.4122 66.1496 67.1662 66.0234 66.9937 65.8346C66.9665 65.4407 66.9374 65.0685 66.9029 64.7054ZM70.798 72.4258C70.4141 72.4258 70.1018 72.7362 70.1018 73.1238C70.1018 73.5078 70.4141 73.821 70.798 73.821C71.1829 73.821 71.4952 73.5078 71.4952 73.1238C71.4952 72.7362 71.1829 72.4258 70.798 72.4258ZM70.798 72.187C71.3136 72.187 71.7357 72.6082 71.7357 73.1238C71.7357 73.6403 71.3136 74.0597 70.798 74.0597C70.2815 74.0597 69.8613 73.6403 69.8613 73.1238C69.8613 72.6082 70.2815 72.187 70.798 72.187ZM71.4144 66.9466C71.635 66.9466 71.8247 67.0474 71.9536 67.2035C71.9218 67.0773 71.8919 66.9502 71.8601 66.825C71.7267 66.7524 71.5778 66.7061 71.4144 66.7061C70.8997 66.7061 70.4776 67.1272 70.4776 67.6447C70.4776 68.1594 70.8997 68.5796 71.4144 68.5796C71.7339 68.5796 72.0126 68.4208 72.1833 68.1784C72.1533 68.0522 72.1243 67.9242 72.0952 67.7981C72.0262 68.1103 71.7475 68.3436 71.4144 68.3436C71.0313 68.3436 70.7173 68.0268 70.7173 67.6447C70.7173 67.2589 71.0313 66.9466 71.4144 66.9466ZM67.2715 70.3334C67.2715 70.7174 67.5846 71.0315 67.9686 71.0315C68.3535 71.0315 68.6676 70.7174 68.6676 70.3334C68.6676 69.9494 68.3535 69.6353 67.9686 69.6353C67.5846 69.6353 67.2715 69.9494 67.2715 70.3334ZM67.1516 70.7836C67.1544 70.4795 67.1516 70.1818 67.1516 69.8868C67.3105 69.5954 67.6146 69.3975 67.9686 69.3975C68.4851 69.3975 68.9063 69.8169 68.9063 70.3334C68.9063 70.8508 68.4851 71.2711 67.9686 71.2711C67.6164 71.2711 67.3123 71.0714 67.1516 70.7836ZM69.6815 61.5455C69.2985 61.5455 68.9844 61.8605 68.9844 62.2445C68.9844 62.6303 69.2985 62.9416 69.6815 62.9416C70.0682 62.9416 70.3805 62.6303 70.3805 62.2445C70.3805 61.8605 70.0682 61.5455 69.6815 61.5455ZM69.6815 61.3086C69.746 61.3086 69.8086 61.3131 69.8676 61.3249C69.9611 61.3821 70.0546 61.4366 70.149 61.4938C70.2933 61.8315 70.4295 62.181 70.5666 62.5459C70.4395 62.9135 70.0936 63.1813 69.6815 63.1813C69.1668 63.1813 68.7465 62.7601 68.7465 62.2445C68.7465 61.728 69.1668 61.3086 69.6815 61.3086ZM72.9939 77.392C73.002 77.3394 73.0102 77.2831 73.0102 77.2304C73.0102 76.7121 72.589 76.2909 72.0734 76.2909C71.5578 76.2909 71.1375 76.7121 71.1375 77.2304C71.1375 77.5273 71.2792 77.7932 71.5006 77.963C71.6014 77.9312 71.7013 77.8994 71.7966 77.8659C71.5478 77.7597 71.3772 77.5146 71.3772 77.2304C71.3772 76.8447 71.6895 76.5315 72.0734 76.5315C72.4565 76.5315 72.7715 76.8447 72.7715 77.2304C72.7715 77.3321 72.747 77.4311 72.7034 77.5227C72.8078 77.4773 72.904 77.4347 72.9939 77.392ZM66.8203 77.1233C66.833 77.0008 66.8448 76.8791 66.8566 76.7566C66.9665 76.9981 67.2088 77.1696 67.4902 77.1696C67.876 77.1696 68.1892 76.8555 68.1892 76.4698C68.1892 76.0885 67.876 75.7726 67.4902 75.7726C67.2524 75.7726 67.0427 75.8942 66.9174 76.0758C66.9256 75.9551 66.9374 75.8316 66.9474 75.7109C67.0999 75.6029 67.2869 75.5339 67.4902 75.5339C68.0076 75.5339 68.4261 75.9551 68.4261 76.4698C68.4261 76.9863 68.0076 77.4093 67.4902 77.4093C67.2279 77.4093 66.991 77.2985 66.8203 77.1233Z" fill="#F2FAFE"/>
<path d="M70.1951 62.5223C70.5528 65.3099 74.4488 76.3935 67.5137 78.1454C69.0133 78.288 71.7655 77.6099 73.2334 76.8229C72.1958 68.8492 70.1951 62.5223 70.1951 62.5223Z" fill="#3695A0"/>
<path d="M71.7358 73.1238C71.7358 72.9259 71.6714 72.7407 71.5652 72.5891C71.5298 73.0203 71.4735 73.4379 71.3882 73.8455C71.5988 73.673 71.7358 73.4143 71.7358 73.1238Z" fill="#5DC9CC"/>
<path d="M72.0736 76.2909C71.558 76.2909 71.1377 76.7121 71.1377 77.2304C71.1377 77.3648 71.1713 77.4937 71.2239 77.6099C71.3002 77.5881 71.3773 77.5645 71.4518 77.5409C71.4037 77.4474 71.3773 77.3403 71.3773 77.2304C71.3773 76.8446 71.6896 76.5315 72.0736 76.5315C72.3995 76.5315 72.67 76.7557 72.748 77.0571C72.8225 77.0244 72.8969 76.9917 72.9659 76.9608C72.8497 76.5732 72.4948 76.2909 72.0736 76.2909Z" fill="#5DC9CC"/>
<path d="M71.6993 68.2783C71.614 68.3164 71.5178 68.3436 71.4143 68.3436C71.3916 68.3436 71.3698 68.3373 71.3462 68.3336C71.358 68.4153 71.3698 68.4979 71.3834 68.5769C71.3943 68.5769 71.4052 68.5796 71.4143 68.5796C71.535 68.5796 71.6494 68.5588 71.7538 68.5179C71.7356 68.4344 71.7202 68.3563 71.6993 68.2783Z" fill="#5DC9CC"/>
<path d="M70.2188 62.6857C70.2306 62.7746 70.2478 62.8672 70.2669 62.9698C70.285 62.9553 70.2995 62.9416 70.3186 62.9271C70.285 62.8146 70.2578 62.7265 70.236 62.6611C70.2306 62.6702 70.2251 62.6775 70.2188 62.6857Z" fill="#5DC9CC"/>
<path d="M71.1259 67.012C71.2058 66.9738 71.2965 66.952 71.3882 66.9502C71.3701 66.8722 71.3519 66.7923 71.3329 66.716C71.2457 66.7233 71.1604 66.7396 71.0796 66.7732C71.0959 66.8522 71.1105 66.9321 71.1259 67.012Z" fill="#5DC9CC"/>
<path d="M54.9713 78.7355C54.7317 78.9778 54.7045 79.7276 54.9713 80.0245C57.3868 81.2817 67.9775 82.3982 73.5538 79.0033C73.7961 78.7355 73.66 77.9811 73.394 77.9312C68.701 79.9691 61.8992 80.8995 54.9713 78.7355Z" fill="white"/>
<path d="M50.3628 47.6788C50.499 53.9777 56.3267 59.1391 63.3645 58.8069C71.6004 58.4165 76.0075 53.4248 75.8723 47.1242C75.7334 40.8226 69.9129 35.8418 62.8679 35.9934C55.8247 36.1468 50.2249 41.3791 50.3628 47.6788Z" fill="#FABD99"/>
<path d="M72.6033 43.9607C69.6259 43.5078 71.2181 41.1186 71.2181 41.1186C68.6673 42.3894 67.7723 39.7733 67.7723 39.7733C67.7723 39.7733 64.1277 41.852 62.1733 39.51C62.0335 40.4142 59.0725 41.6714 56.9338 39.8486C56.9983 41.2665 55.5023 42.2015 53.6441 41.2429C53.6441 41.2429 54.0581 43.9426 51.8986 44.0224C51.8986 44.0224 52.3896 45.8824 49.6201 46.1348C49.6201 46.1348 50.1775 43.5123 49.8117 42.5301C51.4129 43.0103 53.0142 41.4717 52.4541 39.4628C54.236 40.327 55.2935 39.5718 55.5468 37.287C56.3864 38.3881 60.9351 39.8359 61.8093 36.5926C62.9204 38.1602 65.7444 39.5173 68.3151 37.0519C68.7472 39.2377 70.225 39.9358 72.7567 39.6208C72.1658 42.1289 72.7086 43.3643 74.1247 43.1637C73.4765 45.0682 75.4227 45.5511 75.4227 45.5511C73.0563 45.4957 72.6033 43.9607 72.6033 43.9607Z" fill="#EAA376"/>
<path d="M56.8476 41.2928C59.9965 42.1797 61.6768 44.7831 60.72 47.057C59.4846 49.9963 55.6484 49.4653 54.7316 46.9944C53.8175 44.5253 55.4333 42.2805 56.8476 41.2928Z" fill="#3AADDA"/>
<path d="M54.4349 46.0476C54.4757 47.8885 56.0016 49.3518 57.8453 49.3119C59.688 49.2701 61.1513 47.7442 61.1095 45.9015C61.0714 44.056 59.5428 42.5964 57.6991 42.6372C55.8573 42.6772 54.3949 44.2031 54.4349 46.0476Z" fill="white"/>
<path d="M69.4071 41.1558C71.9424 43.2272 72.4408 46.2873 70.6589 47.9875C68.3505 50.1887 65.0481 48.1717 65.1952 45.5393C65.3377 42.9086 67.7169 41.498 69.4071 41.1558Z" fill="#3AADDA"/>
<path d="M65.3005 44.5544C64.6006 46.2573 65.4166 48.208 67.1223 48.9061C68.8289 49.6069 70.7796 48.7908 71.4758 47.0824C72.1766 45.3768 71.3615 43.4288 69.6531 42.7289C67.9465 42.0299 65.9967 42.8451 65.3005 44.5544Z" fill="white"/>
<path d="M53.4526 50.8469C54.9459 48.7382 56.7341 49.9037 59.5182 50.6108C62.3022 51.3189 62.9149 51.1546 62.9149 51.1546C62.9149 51.1546 63.5322 51.2944 66.2836 50.4638C69.0341 49.635 71.2281 47.894 72.8103 49.9382C74.3934 51.9797 71.76 57.7475 63.534 57.9282C55.309 58.1061 51.9594 52.9583 53.4526 50.8469Z" fill="white"/>
<path d="M57.9334 52.3955C61.8195 53.3831 64.3112 53.3295 68.3108 52.1713C68.623 53.7943 67.7026 56.9542 63.2256 57.0077C58.9737 57.0595 57.6647 54.1193 57.9334 52.3955Z" fill="#461B1C"/>
<path d="M66.6089 52.8076C66.2386 53.6926 65.3209 54.5359 63.4573 54.5577C61.6962 54.5804 60.7077 53.8161 60.2656 52.9655C62.4751 53.3486 64.3405 53.2996 66.6089 52.8076Z" fill="white"/>
<path d="M59.9194 56.2262C60.0329 55.3674 61.4472 54.8654 63.1882 55.3783C64.7368 54.8654 66.4162 55.411 66.4951 56.159C65.7399 56.6628 64.6588 57.0068 63.2318 57.0232C61.8221 57.0404 60.7201 56.7281 59.9194 56.2262Z" fill="#EE5B63"/>
<path d="M60.86 55.7378C60.9672 55.2803 62.2099 55.1278 63.3473 55.5354C63.9754 55.2358 65.2599 55.1714 65.613 55.7496C65.7818 56.3069 64.3648 56.5421 63.124 56.5584C61.8776 56.572 60.8292 56.3396 60.86 55.7378Z" fill="#F78D93"/>
<path d="M61.2612 55.7196C61.3003 55.5762 61.7423 55.4754 62.0246 55.4718C62.3033 55.4709 62.7753 55.4836 62.798 55.6234C62.8171 55.7396 62.3859 55.8948 62.0219 55.8975C61.6588 55.903 61.2267 55.8449 61.2612 55.7196Z" fill="#FCD7DC"/>
<path d="M59.7343 49.8139C59.7643 51.1437 61.3011 52.1912 63.1701 52.1522C65.0383 52.1095 66.527 50.9985 66.4997 49.6659C66.4725 48.3351 64.9339 47.2867 63.0648 47.3275C61.1976 47.3702 59.7053 48.4822 59.7343 49.8139Z" fill="#C91E28"/>
<path d="M61.708 48.5258C61.7498 48.8407 62.2028 49.0405 62.7229 48.9742C63.243 48.9061 63.6297 48.5984 63.5907 48.2843C63.5489 47.9693 63.0978 47.7687 62.5758 47.8341C62.0548 47.9012 61.6672 48.2108 61.708 48.5258Z" fill="#FEEDE8"/>
<path d="M62.7507 50.9267C64.3375 50.8941 65.6038 49.9482 65.5774 48.8162C65.5756 48.6311 65.5357 48.454 65.4649 48.2825C65.9442 48.6392 66.2446 49.1167 66.2546 49.6505C66.2791 50.7833 65.0128 51.7292 63.4261 51.7637C62.099 51.7927 60.9725 51.1755 60.6221 50.3095C61.1549 50.7053 61.9129 50.9458 62.7507 50.9267Z" fill="#A61820"/>
<path d="M70.0498 46.5886C70.0498 46.5886 70.6725 46.3254 70.6207 47.0706C70.5844 47.6216 69.6259 48.8843 67.9402 48.769C66.3525 48.6601 66.0984 47.7496 66.7447 47.412C67.3892 47.0761 70.0498 46.5886 70.0498 46.5886Z" fill="#E5E4E4"/>
<path d="M65.8999 46.0649C65.988 47.4655 67.1308 48.5357 68.4507 48.4522C69.7733 48.3687 70.7763 47.165 70.6892 45.7662C70.6011 44.3647 69.4583 43.2971 68.1357 43.3797C66.814 43.4605 65.8119 44.6633 65.8999 46.0649Z" fill="#E0E0E0"/>
<path d="M68.1401 43.4315C67.5138 43.4696 66.9419 43.7637 66.5271 44.2612C66.115 44.7568 65.9107 45.3977 65.9525 46.063C66.0378 47.4156 67.1062 48.4468 68.3816 48.4032C68.4061 48.4032 68.4261 48.4005 68.4488 48.3996C69.7387 48.3197 70.7218 47.1396 70.6383 45.7689C70.5511 44.4137 69.4836 43.3852 68.2055 43.4288C68.181 43.4297 68.1592 43.4297 68.1401 43.4315ZM65.8472 46.0685C65.8045 45.3768 66.016 44.7123 66.4481 44.1958C66.8793 43.6739 67.4766 43.3661 68.132 43.3271C68.1556 43.3253 68.1765 43.3235 68.2001 43.3226C69.5354 43.2781 70.6528 44.3501 70.7408 45.7617C70.828 47.1886 69.804 48.4186 68.4551 48.5022C68.4334 48.5058 68.4107 48.5058 68.3871 48.5058C67.0509 48.5512 65.9361 47.4791 65.8472 46.0685Z" fill="#DD8265"/>
<path d="M66.0878 45.8379C66.1695 47.1197 67.2143 48.0955 68.4243 48.0201C69.6362 47.9457 70.5512 46.8446 70.4731 45.5629C70.3887 44.282 69.2222 43.8781 68.0122 43.9525C66.8022 44.0261 66.0061 44.5553 66.0878 45.8379Z" fill="white"/>
<path d="M66.8903 46.2382C66.9394 46.9998 67.5594 47.5772 68.2756 47.5327C68.9909 47.4882 69.5337 46.8364 69.4838 46.0749C69.4402 45.3178 68.8193 44.7377 68.104 44.7831C67.3878 44.8294 66.845 45.4794 66.8903 46.2382Z" fill="#87ACB3"/>
<path d="M67.4819 46.2028C67.5091 46.615 67.8459 46.929 68.2353 46.9054C68.6247 46.88 68.9197 46.526 68.8916 46.1139C68.868 45.7018 68.5321 45.3859 68.1418 45.4122C67.7551 45.4349 67.4574 45.7898 67.4819 46.2028Z" fill="#121110"/>
<path d="M67.1996 45.5856C67.2124 45.8089 67.3957 45.9804 67.6081 45.9659C67.8196 45.955 67.9794 45.7617 67.9667 45.5366C67.9513 45.3123 67.7688 45.1417 67.5564 45.1553C67.3449 45.168 67.1851 45.3614 67.1996 45.5856Z" fill="white"/>
<path d="M68.7137 46.8537C68.7192 46.9717 68.8172 47.0607 68.9261 47.0525C69.0378 47.047 69.1204 46.9454 69.1131 46.8301C69.1059 46.713 69.0124 46.624 68.9007 46.6313C68.7909 46.6367 68.7074 46.7384 68.7137 46.8537Z" fill="white"/>
<path d="M70.5756 44.6116C70.5756 44.6116 70.2551 43.0629 68.9743 42.7961C67.6935 42.531 66.291 44.1677 66.291 44.1677C66.291 44.1677 68.5032 43.092 70.5756 44.6116Z" fill="#E5E4E4"/>
<path d="M66.291 44.1677C66.291 44.1677 66.3573 44.1459 66.4762 44.1132C66.5969 44.0814 66.7685 44.0406 66.9727 44.0061C67.0744 43.9852 67.1888 43.9725 67.3041 43.9562C67.4239 43.938 67.5501 43.9353 67.6753 43.9208C67.8069 43.9199 67.9404 43.9072 68.0747 43.9135C68.1419 43.9153 68.21 43.9162 68.2781 43.9162C68.3471 43.9199 68.4142 43.9298 68.4823 43.9353C68.5522 43.9435 68.6221 43.9426 68.6866 43.9553C68.7546 43.9662 68.82 43.9789 68.8872 43.9907C69.0206 44.0079 69.1486 44.0479 69.2757 44.0742C69.3084 44.0814 69.3383 44.0896 69.3692 44.0987C69.4 44.1078 69.4291 44.1187 69.4581 44.1286C69.5162 44.1459 69.5725 44.1659 69.6306 44.1849C69.7459 44.2185 69.8466 44.2657 69.9429 44.3066C70.0382 44.3483 70.129 44.3783 70.2034 44.4209C70.2806 44.4627 70.3459 44.4972 70.4004 44.5253C70.5102 44.5798 70.5756 44.6116 70.5756 44.6116C70.5756 44.6116 70.522 44.5653 70.4249 44.4854C70.3759 44.4482 70.3187 44.4001 70.2479 44.3438C70.1807 44.2893 70.0954 44.2448 70.0037 44.1867C69.9547 44.1577 69.9102 44.1295 69.8603 44.0996C69.8094 44.0696 69.7522 44.0506 69.696 44.0224C69.5834 43.9761 69.4663 43.909 69.3347 43.879C69.2058 43.8418 69.0742 43.7873 68.9326 43.7692C68.8608 43.7528 68.7891 43.7428 68.7192 43.7292C68.6502 43.7147 68.5767 43.7111 68.5032 43.7029C68.4315 43.6993 68.3616 43.6884 68.2881 43.6866C68.2172 43.6866 68.1437 43.6866 68.0729 43.6884L67.9667 43.6866C67.9322 43.6902 67.8968 43.6938 67.8641 43.6993C67.7942 43.7038 67.7253 43.7111 67.6581 43.7165C67.5246 43.7347 67.3948 43.7547 67.2741 43.7846C67.2142 43.7991 67.1579 43.8127 67.0998 43.8264C67.0454 43.8418 66.9909 43.859 66.9391 43.8781C66.8375 43.9072 66.7449 43.9462 66.6641 43.9761C66.5851 44.0106 66.5152 44.0406 66.4608 44.0696C66.4054 44.0987 66.3627 44.1241 66.3355 44.1395C66.3046 44.1577 66.291 44.1677 66.291 44.1677Z" fill="#6F380F"/>
<path d="M56.3359 46.8655C56.3359 46.8655 55.7014 46.6304 55.7867 47.372C55.8466 47.9194 56.8578 49.1421 58.5381 48.9506C60.1212 48.7727 60.3345 47.854 59.6755 47.5445C59.0155 47.2349 56.3359 46.8655 56.3359 46.8655Z" fill="#E5E4E4"/>
<path d="M60.4152 46.1838C60.3889 47.589 59.2932 48.7046 57.9688 48.6792C56.6463 48.6537 55.5942 47.4973 55.6196 46.0948C55.6468 44.6896 56.7425 43.5731 58.0687 43.5976C59.3922 43.6239 60.4452 44.7822 60.4152 46.1838Z" fill="#E0E0E0"/>
<path d="M57.9995 43.6485C56.7196 43.6621 55.6993 44.7359 55.6721 46.0948C55.6466 47.4646 56.6778 48.6011 57.9723 48.6247C57.9932 48.6292 58.0168 48.6292 58.0367 48.6292C59.3176 48.6156 60.3397 47.5418 60.366 46.1838C60.376 45.5184 60.1445 44.8884 59.7097 44.4091C59.2758 43.9317 58.693 43.6621 58.0658 43.6485C58.0422 43.6512 58.0213 43.6512 57.9995 43.6485ZM58.0395 48.7318C58.0168 48.7318 57.9923 48.7318 57.9678 48.7318C56.6188 48.7046 55.5414 47.52 55.5704 46.0903C55.594 44.6787 56.6633 43.5586 57.9986 43.5468C58.0213 43.5468 58.0449 43.5468 58.0676 43.5468C58.723 43.5577 59.3348 43.8409 59.7878 44.3402C60.2398 44.8376 60.4822 45.493 60.4695 46.1865C60.4423 47.599 59.3757 48.7173 58.0395 48.7318Z" fill="#DD8265"/>
<path d="M60.2175 45.965C60.1939 47.2495 59.1908 48.2716 57.979 48.2498C56.769 48.2253 55.8049 47.165 55.8285 45.8815C55.8549 44.5988 57.0032 44.1432 58.2159 44.1631C59.4278 44.1876 60.2429 44.6805 60.2175 45.965Z" fill="white"/>
<path d="M59.4937 46.2746C59.4773 47.0371 58.8846 47.6416 58.1638 47.6271C57.4476 47.6126 56.8776 46.9853 56.8939 46.2264C56.9066 45.4658 57.5021 44.8594 58.2183 44.8757C58.9354 44.8884 59.5064 45.5148 59.4937 46.2746Z" fill="#87ACB3"/>
<path d="M58.8976 46.2646C58.8913 46.6776 58.569 47.0062 58.1778 46.9998C57.7883 46.9917 57.4788 46.6504 57.487 46.2364C57.4942 45.8234 57.8165 45.4948 58.2068 45.503C58.5981 45.5093 58.9067 45.8534 58.8976 46.2646Z" fill="#121110"/>
<path d="M59.1554 45.6364C59.1527 45.8615 58.9766 46.0394 58.7641 46.0358C58.5536 46.0331 58.3847 45.8461 58.3892 45.6228C58.3938 45.3977 58.5672 45.217 58.7814 45.2225C58.9929 45.227 59.1608 45.4122 59.1554 45.6364Z" fill="white"/>
<path d="M57.6982 46.9699C57.6955 47.087 57.6038 47.1796 57.4958 47.1768C57.3823 47.1759 57.2961 47.0788 57.2979 46.9626C57.3015 46.8464 57.3914 46.752 57.5021 46.7538C57.612 46.7566 57.6991 46.8537 57.6982 46.9699Z" fill="white"/>
<path d="M55.6821 44.9347C55.6821 44.9347 55.9354 43.3752 57.2026 43.0521C58.4689 42.7316 59.9467 44.3066 59.9467 44.3066C59.9467 44.3066 57.6855 43.3271 55.6821 44.9347Z" fill="#E5E4E4"/>
<path d="M59.9467 44.3066C59.9467 44.3066 59.8768 44.2857 59.7561 44.2612C59.6335 44.2348 59.4638 44.2013 59.2559 44.174C59.1524 44.1577 59.039 44.1486 58.921 44.1386C58.8039 44.1268 58.675 44.1295 58.547 44.1187C58.4172 44.1232 58.2855 44.1159 58.1485 44.1295C58.0831 44.1323 58.0168 44.1368 57.947 44.1432C57.8789 44.1468 57.8108 44.1586 57.7427 44.1686C57.6746 44.1813 57.6065 44.1822 57.5394 44.1976C57.4749 44.2122 57.4059 44.2267 57.3424 44.2394C57.208 44.2657 57.0837 44.3093 56.9584 44.3429C56.9285 44.3529 56.8967 44.3619 56.864 44.3701C56.835 44.3801 56.8077 44.3928 56.776 44.4037C56.7188 44.4246 56.6634 44.4473 56.6071 44.4681C56.4946 44.5072 56.3947 44.558 56.3021 44.6034C56.2095 44.6497 56.1178 44.6833 56.0434 44.7287C55.9708 44.7722 55.9054 44.8104 55.8546 44.8412C55.7457 44.9002 55.6821 44.9347 55.6821 44.9347C55.6821 44.9347 55.7348 44.8866 55.8265 44.8031C55.8737 44.7622 55.9309 44.7123 55.998 44.6533C56.0607 44.5979 56.1469 44.5471 56.2349 44.4872C56.2803 44.4563 56.3294 44.4264 56.3756 44.3928C56.4247 44.3619 56.48 44.3401 56.5345 44.3093C56.6471 44.2557 56.7587 44.1876 56.8903 44.1504C57.0183 44.1078 57.1463 44.0488 57.287 44.0206C57.356 44.0043 57.4259 43.987 57.4976 43.9725C57.5684 43.9553 57.641 43.9489 57.7128 43.938C57.7845 43.9298 57.8553 43.9171 57.927 43.9135C57.9987 43.909 58.0713 43.9071 58.1403 43.9026L58.2474 43.8981C58.2828 43.9008 58.3173 43.9026 58.3527 43.9026C58.4226 43.9081 58.4916 43.909 58.5588 43.9153C58.6931 43.928 58.822 43.9416 58.9437 43.9662C59.0036 43.9789 59.0635 43.9907 59.1207 44.0016C59.1769 44.0134 59.2296 44.0297 59.2822 44.0424C59.3866 44.0696 59.4774 44.1069 59.5627 44.1295C59.6435 44.1631 59.7134 44.1904 59.7697 44.2158C59.826 44.2403 59.8705 44.2657 59.8995 44.2802C59.9295 44.2966 59.9467 44.3066 59.9467 44.3066Z" fill="#6F380F"/>
<path d="M43.9835 45.0999C43.9835 45.0999 40.9371 40.4014 44.3874 38.3046C44.3874 38.3046 42.9768 32.7655 49.1594 32.0811C48.1073 29.4078 51.8227 26.2742 55.0507 28.353C55.5209 26.237 58.5745 23.2024 62.4152 26.9051C65.0032 23.2796 69.9522 25.4064 69.7579 28.3348C73.1157 26.3695 76.3899 29.7164 75.4368 32.5395C82.3638 32.5749 80.1498 38.2801 80.1498 38.2801C83.6891 40.2244 80.8851 44.0388 80.8851 44.0388C83.4885 47.3956 80.3631 49.2746 80.3631 49.2746C81.9199 52.2993 78.5186 53.4421 78.5186 53.4421C77.7261 57.2165 73.7475 56.5121 73.7475 56.5121C71.7604 59.6892 68.7467 57.5469 68.7467 57.5469C75.0419 54.7974 75.2489 49.4299 75.2489 49.4299C75.2489 49.4299 77.3512 49.2592 77.1515 47.461C76.9482 45.6627 75.3034 45.5593 75.3034 45.5593C72.8842 44.7541 72.8888 43.791 72.8888 43.791C70.0875 43.2381 71.5653 40.691 71.5653 40.691C69.0127 41.9619 67.9497 39.0598 67.9497 39.0598C67.9497 39.0598 64.06 41.1458 62.1066 38.8002C61.9641 39.707 58.8351 41.1939 56.7 39.3712C56.7627 40.7863 55.5826 41.8457 53.2742 40.6057C53.2742 40.6057 53.877 43.6031 51.2055 43.4034C51.2055 43.4034 52.2648 45.2025 49.8793 46.1139C49.8793 46.1139 48.2417 46.2873 48.1164 48.0928C47.9939 49.8974 50.1389 49.5706 50.1389 49.5706C50.1389 49.5706 52.1876 55.9783 58.5219 58.1006C58.5219 58.1006 56.002 59.6592 53.1644 57.7984C53.1644 57.7984 50.3894 59.2054 49.3065 55.3683C47.8359 56.5502 44.6243 55.1133 46.0014 51.6974C43.8555 51.4324 41.5307 48.5675 43.9835 45.0999Z" fill="#F57F13"/>
<path d="M45.8151 48.5947C46.0048 51.3434 48.1035 51.0402 48.1035 51.0402C48.1035 51.0402 47.538 52.5997 49.1746 52.8221C50.8149 53.0436 49.7901 49.7022 49.7901 49.7022C49.7901 49.7022 49.9408 49.6205 50.0088 49.6141L50.4736 49.4916C50.4736 49.4916 51.7935 55.0497 57.2899 57.6595C57.2899 57.6595 55.9528 58.9194 53.117 57.0576C53.117 57.0576 50.6052 58.7597 49.5232 54.9226C48.0527 56.1045 44.6241 55.1133 46.0012 51.6974C43.8552 51.4324 41.5305 48.5675 43.9832 45.0999C42.9203 47.9702 44.9763 49.5615 45.8151 48.5947Z" fill="#E45617"/>
<path d="M69.4879 57.2419C75.0224 54.3943 75.2484 49.4299 75.2484 49.4299H75.2512C75.3374 49.4353 75.6941 49.6858 75.7795 49.6913C75.2484 52.9174 76.8161 54.2845 77.1937 51.869C78.7596 52.6097 79.6719 51.1264 79.0201 48.8199C81.0008 48.9469 81.0988 45.5919 80.8846 44.0388C83.488 47.3956 80.3627 49.2746 80.3627 49.2746C81.9194 52.2992 77.9971 53.2705 77.9971 53.2705C77.2064 57.0449 73.5382 55.7115 73.5382 55.7115C72.4036 58.0153 69.2219 57.3763 69.4879 57.2419Z" fill="#E45617"/>
<path d="M78.4821 41.8429C77.7931 42.8896 75.3957 42.295 75.2895 40.3624C73.8026 40.3325 73.6973 38.4616 73.9406 37.6846C72.0834 38.3046 69.8639 37.1281 70.07 34.8642C71.4035 36.7051 72.1224 37.2062 74.6813 36.1823C74.0868 38.517 74.8257 39.8568 76.4188 38.9854C75.9222 42.8651 78.4821 41.8429 78.4821 41.8429Z" fill="#E45617"/>
<path d="M65.3417 33.8911C65.3417 33.8911 65.0748 36.4773 61.3667 34.9459C60.4571 37.611 56.9505 36.5907 56.021 35.3853C58.2395 36.4972 60.2302 36.067 60.8929 33.9901C63.6361 35.4769 65.3417 33.8911 65.3417 33.8911Z" fill="#E45617"/>
<path d="M63.4932 26.965C63.4932 26.965 67.3057 24.3661 69.4425 29.2562C71.8154 27.7457 74.9017 29.5566 74.3816 32.278C73.3476 30.0214 70.7996 28.9956 68.9814 30.2002C67.2122 25.9166 63.4932 26.965 63.4932 26.965Z" fill="#F9BB48"/>
<path d="M47.223 34.9414C47.223 34.9414 44.1748 35.0948 45.4338 38.9064C42.7097 39.619 43.3351 43.2726 45.0553 44.1295C44.0268 42.4856 44.546 39.8423 46.6674 39.3294C44.8756 37.0473 47.223 34.9414 47.223 34.9414Z" fill="#F9BB48"/>
<path d="M72.8886 43.791C70.0874 43.2381 71.5652 40.691 71.5652 40.691C69.0126 41.9619 67.7617 39.2577 67.7617 39.2577C67.7617 39.2577 64.1171 41.3373 62.1627 38.9917C62.022 39.9004 58.835 41.1939 56.6999 39.3712C56.7626 40.7863 55.5625 41.9746 53.2569 40.7364C53.2569 40.7364 54.0521 43.6412 51.3806 43.4415C51.3806 43.4415 52.2647 45.2025 49.8792 46.1139C49.8792 46.1139 49.6704 46.1384 49.3999 46.2473C49.2637 46.2355 49.1412 46.2328 49.0322 46.2473C50.6516 45.5647 50.166 42.9967 49.802 42.0154C51.4023 42.4965 53.0027 40.9543 52.4417 38.9472C54.2254 39.8114 55.2848 39.0562 55.5362 36.7723C56.3768 37.8716 60.9228 39.3212 61.7987 36.077C62.9089 37.6446 65.7338 39.0017 68.3045 36.5354C68.7384 38.7212 70.2153 39.4202 72.7452 39.107C72.1552 41.6133 72.6971 42.8496 74.1123 42.6463C73.4651 44.5544 75.4231 45.5511 75.4231 45.5511L75.3269 45.5629C75.3141 45.5611 75.3032 45.5592 75.3032 45.5592C72.8841 44.7541 72.8886 43.791 72.8886 43.791Z" fill="#E45617"/>
<path d="M74.8631 46.2428C74.8631 46.2428 75.0619 44.5662 76.7984 44.3102C78.6311 44.0388 79.3736 46.5886 78.3933 48.2807C77.4147 49.9654 75.3696 50.2768 74.7314 48.9687L74.8631 46.2428Z" fill="#FABD99"/>
<path d="M76.6156 44.4818C76.1736 44.5471 75.8422 44.7123 75.5863 44.9138C75.7932 44.7632 76.0365 44.6506 76.3361 44.6197C78.0617 44.4418 78.3794 46.4479 77.8674 47.6961C77.173 49.3854 75.5518 49.6704 74.6694 48.8299C75.2604 50.0462 77.1766 49.7512 78.0998 48.1772C79.0203 46.5986 78.3322 44.224 76.6156 44.4818Z" fill="#EAA376"/>
<path d="M77.1594 45.04C75.9648 44.8203 75.0271 47.2958 76.6583 48.5357C75.9557 46.8156 76.5721 46.2074 77.4381 47.0162C77.4227 46.4488 77.1213 46.1012 76.4033 46.1783C76.4514 45.4294 77.1594 45.04 77.1594 45.04Z" fill="#D48A5B"/>
<path d="M50.7875 46.2428C50.7875 46.2428 50.5878 44.5662 48.8495 44.3102C47.0176 44.0388 46.276 46.5886 47.2545 48.2807C48.2349 49.9654 50.2782 50.2768 50.9182 48.9687L50.7875 46.2428Z" fill="#FABD99"/>
<path d="M49.034 44.4818C49.4752 44.5471 49.8074 44.7123 50.0634 44.9138C49.8573 44.7632 49.6104 44.6506 49.3136 44.6197C47.5871 44.4418 47.2703 46.4479 47.7822 47.6961C48.4757 49.3854 50.0979 49.6704 50.982 48.8299C50.3884 50.0462 48.4712 49.7512 47.5498 48.1772C46.6285 46.5986 47.3175 44.224 49.034 44.4818Z" fill="#EAA376"/>
<path d="M48.49 45.04C49.6828 44.8203 50.6214 47.2958 48.9911 48.5357C49.6937 46.8156 49.0755 46.2074 48.2104 47.0162C48.2277 46.4488 48.5273 46.1012 49.2453 46.1783C49.1972 45.4294 48.49 45.04 48.49 45.04Z" fill="#D48A5B"/>
<path d="M65.4938 27.9608C63.003 22.252 52.5875 15.0591 52.5875 15.0591C52.5875 15.0591 48.1223 26.2298 49.8252 33.5825C50.1684 35.0721 55.682 35.0685 59.283 33.6751C64.4871 31.6644 65.7398 28.9975 65.4938 27.9608Z" fill="#CA1E27"/>
<path d="M52.5875 15.0591C52.5875 15.0591 52.8743 15.2588 53.3636 15.6146C52.3079 18.5875 49.6174 27.0848 51.0017 33.0605C51.3457 34.5492 56.8575 34.5447 60.4595 33.1522C60.5856 33.105 60.7055 33.056 60.8235 33.0079C60.3551 33.2357 59.8431 33.459 59.283 33.6751C55.682 35.0685 50.1684 35.0721 49.8252 33.5825C48.1223 26.2298 52.5875 15.0591 52.5875 15.0591Z" fill="#E61E29"/>
<path d="M61.6751 27.3753C63.4288 26.503 57.2144 18.1209 54.4957 17.5989C51.7752 17.0779 57.2072 29.6038 61.6751 27.3753Z" fill="#E61E29"/>
<path d="M50.2804 22.8221C50.068 23.807 49.8774 24.8382 49.7331 25.8857C50.9676 25.0515 52.5362 24.2227 54.5995 23.4266C57.7412 22.2093 59.5376 21.9089 60.8675 21.9052C60.1367 21.1827 59.3797 20.4846 58.6353 19.8292C57.448 19.9926 55.9057 20.3957 53.6927 21.2517C52.3637 21.7636 51.2408 22.2892 50.2804 22.8221ZM52.1658 16.1983C51.9117 16.9172 51.5676 17.9402 51.2109 19.1639C51.81 18.887 52.4527 18.611 53.1562 18.3387C54.1529 17.9529 55.0125 17.6615 55.7668 17.4382C54.85 16.7148 54.0548 16.1211 53.4911 15.7072C53.0999 15.8433 52.6878 15.994 52.2502 16.1656C52.2203 16.1756 52.1931 16.1865 52.1658 16.1983ZM55.7741 26.0228C60.0378 24.3743 61.8242 24.4052 63.3274 24.5894C63.6361 24.9671 63.9275 25.3483 64.1943 25.7259C64.1943 25.7278 64.1943 25.7278 64.1943 25.7278C64.3278 25.9157 64.4558 26.1036 64.5774 26.2924H64.5792C64.7027 26.4803 64.8171 26.67 64.9269 26.8543C63.2294 26.6282 61.61 26.2887 56.6828 28.1941C53.1371 29.5648 51.0511 31.0263 49.6169 32.4469C49.4834 31.5319 49.4326 30.5751 49.4399 29.6011C49.4399 29.6011 49.4399 29.5966 49.439 29.5957C50.8405 28.3911 52.7913 27.1747 55.7741 26.0228Z" fill="#43B4BD"/>
<path d="M52.3851 18.6492C51.9748 18.818 51.5817 18.9905 51.2104 19.1639C51.2967 18.8679 51.3829 18.5856 51.4655 18.3151C51.4728 18.2933 51.4791 18.2706 51.4855 18.2507C51.5654 17.9929 51.6444 17.746 51.7197 17.5136C51.7233 17.4991 51.7279 17.4864 51.7333 17.4727C51.8931 16.9826 52.041 16.5532 52.1654 16.1983C52.1926 16.1865 52.2199 16.1756 52.2498 16.1656C52.6211 16.0213 52.9715 15.8924 53.3082 15.7716C53.0568 16.4869 52.7282 17.4755 52.3851 18.6492Z" fill="#63CBD7"/>
<path d="M49.6166 32.4469C49.4832 31.5319 49.4324 30.5751 49.4396 29.6011V29.6002C49.4396 29.5966 49.4396 29.5957 49.4396 29.5957C49.7964 29.2888 50.1903 28.9811 50.6252 28.6743C50.5997 29.622 50.6315 30.5542 50.7323 31.452C50.3183 31.7824 49.948 32.1165 49.6166 32.4469Z" fill="#63CBD7"/>
<path d="M50.9402 25.1386C50.5081 25.3865 50.1024 25.6352 49.7329 25.8857C49.8772 24.8382 50.0679 23.807 50.2803 22.8221C50.6534 22.6169 51.0528 22.41 51.4758 22.2057C51.2724 23.1516 51.0854 24.1338 50.9402 25.1386Z" fill="#63CBD7"/>
<path d="M61.182 24.5477C61.6668 25.4264 61.9681 26.2025 61.9827 26.7299C61.2429 26.808 60.3578 26.9814 59.2377 27.3136C58.4824 26.9523 57.7471 26.3214 57.0718 25.5471C58.88 24.9172 60.1699 24.6403 61.182 24.5477Z" fill="#63CBD7"/>
<path d="M59.5022 22.0087C58.47 22.1549 57.1647 22.4826 55.3928 23.1289C54.9843 22.4109 54.6385 21.6801 54.3716 20.9957C55.7568 20.4846 56.8624 20.1687 57.7729 19.9781C58.3684 20.6026 58.9584 21.298 59.5022 22.0087Z" fill="#63CBD7"/>
<path d="M53.8003 18.0954C53.8847 17.716 54.1053 17.5245 54.4956 17.5989C54.6136 17.6234 54.7443 17.667 54.8778 17.7187C54.5383 17.8304 54.1834 17.9547 53.8003 18.0954Z" fill="#63CBD7"/>
<path d="M49.6456 15.2787C50.1339 16.7783 51.747 17.5953 53.2475 17.1078C54.7444 16.6176 55.5632 15.0055 55.0757 13.5077C54.5855 12.0072 52.9752 11.1866 51.4747 11.6768C49.9751 12.1679 49.1563 13.78 49.6456 15.2787Z" fill="#F8AD0C"/>
<path d="M52.5566 15.8778C53.8284 15.4621 54.5255 14.0941 54.1116 12.8178C54.1052 12.8015 54.0971 12.7833 54.0916 12.767C54.3095 13.0094 54.4838 13.3035 54.5918 13.633C55.0048 14.9075 54.3095 16.2763 53.0395 16.693C51.7814 17.1024 50.4343 16.4307 49.9995 15.1898C50.6204 15.8833 51.6135 16.1856 52.5566 15.8778Z" fill="#F08311"/>
<path d="M50.4392 13.3325C50.5799 13.7719 51.2889 13.938 52.0178 13.7002C52.7449 13.4623 53.2187 12.9141 53.0735 12.472C52.9301 12.0299 52.2248 11.8656 51.4949 12.1025C50.7687 12.3422 50.294 12.8914 50.4392 13.3325Z" fill="#FBC841"/>
<path d="M66.3546 28.0707C64.9604 27.1547 61.4438 27.6195 62.2035 30.9573C59.9868 27.9091 56.7861 29.0111 56.8551 32.1909C54.2408 28.677 50.2558 29.2825 49.0812 32.6611C48.6373 34.0482 53.727 36.6879 60.1248 34.1861C66.5189 31.6798 66.3546 28.0707 66.3546 28.0707Z" fill="#F57F13"/>
<path d="M58.2531 89.229C58.2531 89.229 55.1414 89.7836 54.3398 88.2641C53.4802 91.6236 54.2481 95.4688 56.3233 96.2368C58.5926 96.0852 58.9666 94.0455 58.2531 89.229Z" fill="#9B4AAB"/>
<path d="M62.4029 59.7972C62.4029 59.7972 60.0573 58.7424 58.6195 59.573C57.3241 60.7821 58.8228 61.5392 59.45 61.3785C60.2198 61.1833 60.5557 61.029 60.9605 61.2895C61.212 61.4502 60.2198 62.8509 61.2011 63.1568C62.373 63.5244 62.7397 62.2 63.7055 62.1646C64.6759 62.1292 65.7289 63.6043 66.7528 63.0678C67.4681 62.6911 66.6457 61.4584 66.9934 61.2178C67.5072 60.8629 68.3541 61.8178 69.0685 61.5936C70.087 61.2705 69.7366 60.2493 69.4261 59.9742C68.6527 59.2889 67.5489 59.288 65.2941 59.7673C64.6523 61.1833 62.8822 61.0018 62.4029 59.7972Z" fill="#BBC918"/>
<path d="M62.9724 59.1981C62.9724 59.1981 60.2355 58.5354 58.6461 59.5367C58.1641 60.1267 58.8231 60.7349 59.4503 60.5761C60.2201 60.3773 60.7203 60.1639 61.0416 60.5189C61.4955 61.0272 60.5233 62.2445 61.5418 62.4052C62.5621 62.5667 62.74 61.3967 63.7058 61.3613C64.6762 61.324 65.505 62.8463 66.5298 62.3098C67.246 61.9331 66.1831 60.7585 66.8893 60.3954C67.4412 60.1095 68.3544 61.0145 69.0688 60.7885C70.0873 60.4671 69.175 59.6256 69.175 59.6256C69.175 59.6256 67.4103 58.5146 64.8006 59.14C64.8324 59.8535 63.124 60.0269 62.9724 59.1981Z" fill="#F0EE0F"/>
<path d="M58.8429 59.681C59.3204 59.2698 60.6293 58.9294 62.8297 59.2689C60.5041 59.3406 60.0402 60.1095 59.4865 60.2366C58.9328 60.3591 58.4671 60.0015 58.8429 59.681Z" fill="#F7F45F"/>
<path d="M60.504 64.4167C60.504 64.7744 60.2017 65.0594 59.8259 65.0594C59.451 65.0594 59.146 64.7744 59.146 64.4167C59.146 64.0618 59.451 63.7759 59.8259 63.7759C60.2017 63.7759 60.504 64.0618 60.504 64.4167Z" fill="#F2FAFE"/>
<path d="M60.2017 69.4928C60.2017 69.8496 59.8967 70.1373 59.5218 70.1373C59.146 70.1373 58.8428 69.8496 58.8428 69.4928C58.8428 69.1397 59.146 68.8492 59.5218 68.8492C59.8967 68.8492 60.2017 69.1397 60.2017 69.4928Z" fill="#F2FAFE"/>
<path d="M60.0405 75.2506C60.0405 75.6065 59.7355 75.8961 59.3606 75.8961C58.9857 75.8961 58.6816 75.6065 58.6816 75.2506C58.6816 74.8939 58.9857 74.6071 59.3606 74.6071C59.7355 74.6071 60.0405 74.8939 60.0405 75.2506Z" fill="#F2FAFE"/>
<path d="M87.7783 53.6699C87.7783 55.6851 89.4104 57.3191 91.4265 57.3191C93.4417 57.3191 95.0757 55.6851 95.0757 53.6699C95.0757 51.6557 93.4417 50.0208 91.4265 50.0208C89.4104 50.0208 87.7783 51.6557 87.7783 53.6699Z" fill="#F9AE0C"/>
<path d="M90.4443 51.1437C90.4443 51.4732 90.9772 51.7401 91.6371 51.7401C92.2961 51.7401 92.8299 51.4732 92.8299 51.1437C92.8299 50.8151 92.2961 50.5482 91.6371 50.5482C90.9772 50.5482 90.4443 50.8151 90.4443 51.1437Z" fill="#FCD881"/>
<mask id="mask1_25_100" style="mask-type:alpha" maskUnits="userSpaceOnUse" x="90" y="21" width="9" height="8">
<path d="M90.814 21.4287H98.2783V28.8649H90.814V21.4287Z" fill="black"/>
</mask>
<g mask="url(#mask1_25_100)">
<path d="M90.981 25.1295C90.981 27.1438 92.614 28.7796 94.6292 28.7796C96.6444 28.7796 98.2783 27.1438 98.2783 25.1295C98.2783 23.1144 96.6444 21.4813 94.6292 21.4813C92.614 21.4813 90.981 23.1144 90.981 25.1295Z" fill="#43B4BD"/>
</g>
<path d="M93.647 22.6033C93.647 22.9319 94.1807 23.1997 94.8397 23.1997C95.4997 23.1997 96.0325 22.9319 96.0325 22.6033C96.0325 22.2738 95.4997 22.0069 94.8397 22.0069C94.1807 22.0069 93.647 22.2738 93.647 22.6033Z" fill="#ADE3D6"/>
<path d="M60.4897 7.64913C60.4897 9.66523 62.1228 11.2983 64.1389 11.2983C66.155 11.2983 67.7871 9.66523 67.7871 7.64913C67.7871 5.63303 66.155 4 64.1389 4C62.1228 4 60.4897 5.63303 60.4897 7.64913Z" fill="#7842A5"/>
<path d="M63.1558 5.12378C63.1558 5.45148 63.6895 5.72017 64.3485 5.72017C65.0085 5.72017 65.5431 5.45148 65.5431 5.12378C65.5431 4.79427 65.0085 4.52649 64.3485 4.52649C63.6895 4.52649 63.1558 4.79427 63.1558 5.12378Z" fill="#B569BB"/>
<path d="M29 27.7874C29 29.8017 30.6339 31.4357 32.6491 31.4357C34.6643 31.4357 36.2983 29.8017 36.2983 27.7874C36.2983 25.7722 34.6643 24.1383 32.6491 24.1383C30.6339 24.1383 29 25.7722 29 27.7874Z" fill="#3EAA3C"/>
<path d="M31.666 25.2603C31.666 25.5898 32.2007 25.8567 32.8597 25.8567C33.5187 25.8567 34.0525 25.5898 34.0525 25.2603C34.0525 24.9317 33.5187 24.6639 32.8597 24.6639C32.2007 24.6639 31.666 24.9317 31.666 25.2603Z" fill="#8DC27B"/>
<path d="M33.8838 52.7341C33.8838 54.7502 35.5177 56.3841 37.5338 56.3841C39.5481 56.3841 41.1821 54.7502 41.1821 52.7341C41.1821 50.7189 39.5481 49.0858 37.5338 49.0858C35.5177 49.0858 33.8838 50.7189 33.8838 52.7341Z" fill="#E41B2F"/>
<path d="M36.5508 50.2087C36.5508 50.5373 37.0845 50.806 37.7436 50.806C38.4026 50.806 38.9363 50.5373 38.9363 50.2087C38.9363 49.8792 38.4026 49.6123 37.7436 49.6123C37.0845 49.6123 36.5508 49.8792 36.5508 50.2087Z" fill="#E85855"/>
</g>
<defs>
<clipPath id="clip0_25_100">
<rect width="69.2779" height="120" fill="white" transform="translate(29 4)"/>
</clipPath>
</defs>
</svg>
