<svg width="128" height="128" viewBox="0 0 128 128" fill="none" xmlns="http://www.w3.org/2000/svg">
<path d="M57.6292 120.03C57.651 120.042 57.6759 120.051 57.7047 120.063H72.7861C72.6447 119.526 72.1515 118.548 70.4264 118.267C68.0864 117.888 64.0301 116.528 63.1255 113.533C63.0977 113.438 63.0713 113.339 63.0481 113.239C62.3299 110.04 57.1064 114.219 57.1064 114.219C57.1064 114.219 57.0902 114.346 57.0684 114.564C56.9471 115.737 56.6374 119.535 57.6292 120.03Z" fill="#2C3A64"/>
<path d="M77.5746 65.8648C77.5746 65.8648 67.7664 100.706 64.8126 114.179C64.8126 114.179 57.5324 115.639 56.4004 113.352C56.4004 113.352 58.7457 75.4111 63.0611 70.5915C68.4287 64.5967 77.5746 65.8648 77.5746 65.8648Z" fill="#2C3A64"/>
<path d="M78.3847 30.5516C78.3847 30.5516 78.1274 28.9935 78.5289 27.6948C78.9304 26.3972 80.6098 22.9744 80.0786 21.7847C79.5466 20.5947 77.6236 17.3944 76.4374 17.4043C75.2509 17.4134 77.6848 20.8288 77.3497 21.8962C77.0161 22.9635 76.9054 23.05 76.493 22.9554C76.0809 22.8619 75.4534 20.819 75.2449 21.2957C75.0361 21.7728 75.1574 24.9337 75.5497 25.7229C75.9414 26.5122 75.1377 30.9626 75.1377 30.9626L78.3847 30.5516Z" fill="#ED975D"/>
<path d="M79.3347 29.8584C79.3347 29.8584 76.7086 28.3671 74.6772 28.9953C74.6772 28.9953 70.6469 40.6046 68.4265 49.1409C64.1659 38.6271 61.5443 28.1414 61.5443 28.1414C61.5443 28.1414 56.3784 35.2756 54.5127 40.0196C52.6476 44.7632 63.7936 61.4073 68.1189 62.714C72.6322 64.0767 71.8106 62.7112 74.3577 61.254C75.1765 60.1912 77.7967 54.9002 79.3347 29.8584Z" fill="#FFA412"/>
<path d="M91.2151 120.574C91.2369 120.585 91.2619 120.594 91.2907 120.605H106.372C106.231 120.069 105.737 119.091 104.012 118.811C101.672 118.43 97.6167 117.071 96.7114 114.077C96.6836 113.982 96.6573 113.882 96.6341 113.783C95.9158 110.584 90.6923 114.763 90.6923 114.763C90.6923 114.763 90.6761 114.89 90.6544 115.107C90.5331 116.28 90.2233 120.078 91.2151 120.574Z" fill="#2C3A64"/>
<path d="M80.5018 65.0189C80.5018 65.0189 79.033 65.6732 77.2196 67.0098C77.0133 65.9594 76.7165 65.2773 76.7165 65.2773C63.7734 61.9065 29.1297 62.1811 29.1297 62.1811C29.1297 62.1811 21.6815 64.0469 23.8683 74.889C25.8817 84.8667 59.1447 80.2458 69.8888 77.2526C70.1402 77.1833 70.3831 77.1095 70.619 77.0329C69.7647 83.3905 75.7508 92.4591 80.9915 100.805C85.3115 107.684 88.9889 114.648 88.9889 114.648C91.1577 115.994 98.4424 115.216 98.4424 115.216C93.838 102.213 80.5018 65.0189 80.5018 65.0189Z" fill="#35488B"/>
<path d="M51.9395 24.6187C51.9395 24.6187 55.6555 36.5141 61.2365 39.1744C61.2365 39.1744 61.7639 35.5653 60.8611 32.8203C61.5983 32.256 62.2508 31.7332 62.8203 31.2614C64.7131 29.6864 65.6697 28.6778 65.6697 28.6778L64.84 22.8781L64.2775 18.9423C63.3695 19.9826 62.4325 20.8334 61.4984 21.5326C56.6796 25.1253 51.9395 24.6187 51.9395 24.6187Z" fill="#FFB27D"/>
<path d="M61.4983 21.5327C61.4983 21.5327 59.6262 26.6817 62.8202 31.2615C64.713 29.6865 65.6696 28.6779 65.6696 28.6779L64.8399 22.8781C62.842 21.7602 61.4983 21.5327 61.4983 21.5327Z" fill="#ED975D"/>
<path d="M67.0848 29.8046C67.0848 29.8046 58.8561 24.3459 62.3345 19.2735C65.8132 14.2023 67.0939 10.0819 72.4946 13.3525C77.8957 16.6242 77.5779 19.2521 76.8283 21.2275C76.0795 23.203 69.314 31.0941 67.0848 29.8046Z" fill="#FFB27D"/>
<path d="M63.2915 8.6564C63.2553 8.51788 63.1013 8.34491 62.6847 8.11183C62.6847 8.11183 63.134 8.06226 63.5974 8.2746C63.9834 7.71421 64.825 6.79769 65.9778 7.03991C65.9778 7.03991 65.2803 7.06874 64.8932 7.67624C66.6869 7.02023 69.6734 7.36476 76.4421 11.3817C85.363 16.6752 79.3446 21.2142 77.7896 21.3446C76.2353 21.4751 74.1759 18.0199 71.8478 17.1027C69.5194 16.1858 67.4835 19.2637 66.5027 19.3428C65.5215 19.4212 66.2109 18.7705 65.4146 17.7949C64.618 16.8193 63.6719 18.5016 63.4184 19.7714C63.1646 21.0423 61.0243 21.8333 61.0243 21.8333C61.0243 21.8333 61.0243 21.8333 60.3619 19.5724C59.6996 17.3126 61.5949 10.0405 62.934 8.9489C63.0521 8.85257 63.1709 8.75448 63.2915 8.6564Z" fill="#2B478B"/>
<path d="M61.9519 44.4377C59.4804 50.2913 57.2205 54.0291 56.9252 54.5177C55.8597 56.278 54.7167 57.8934 53.6708 59.3046C53.6374 59.3496 53.6051 59.3939 53.572 59.4389C51.5126 62.2092 48.3636 62.9721 48.4617 63.6672C48.6579 65.0611 45.138 68.4048 39.333 69.8877C32.5975 71.6086 24.7924 72.4365 22.8198 70.1598C22.1599 69.3955 21.9405 67.9896 22.0133 66.2409C22.1575 62.5601 26.7925 47.7333 26.7925 47.7333C34.7195 23.7423 57.422 23.7423 57.422 23.7423C57.422 23.7423 56.9776 29.4897 62.5495 31.4841C62.5566 31.4967 63.8588 39.9205 61.9519 44.4377Z" fill="#FFB93E"/>
<path d="M75.2842 61.5078C75.2842 61.5078 78.6933 62.714 79.6284 63.299C80.5636 63.884 82.7155 66.8297 82.9584 67.8626C83.2003 68.8951 83.484 71.9309 83.3075 72.4382C83.1311 72.9458 80.5211 70.9992 79.9417 69.1669C79.362 67.3335 77.8717 66.8403 77.9283 66.9394C77.9859 67.0375 78.7481 69.3838 78.5871 69.4854C78.4261 69.5863 77.7321 69.7617 77.1021 68.4522C76.4728 67.1426 75.2265 66.1853 75.4621 64.8325C75.6973 63.479 75.2842 61.5078 75.2842 61.5078Z" fill="#FFB27D"/>
<path d="M48.5734 63.8604C48.7706 65.2547 45.1372 68.4047 39.3322 69.8876C34.4901 60.2551 43.6961 38.2034 43.6961 38.2034L53.67 59.3045C51.5659 62.1458 48.4742 63.1548 48.5734 63.8604Z" fill="#FFA412"/>
<path d="M56.9245 54.5177C55.8589 56.278 54.7159 57.8934 53.67 59.3046C53.6366 59.3496 53.6043 59.3939 53.5713 59.4389C52.203 58.9116 50.8449 57.8593 50.1611 56.8918C48.5896 54.6742 48.4609 41.3391 48.4609 41.3391C48.4609 41.3391 54.8914 49.2833 56.9245 54.5177Z" fill="#FFA412"/>
<path d="M76.5922 61.8076C76.5922 61.8076 61.0366 57.4532 53.0526 55.5481C53.7554 46.1276 56.0613 17.6472 41.5551 29.0483C41.5551 29.0483 40.4589 59.5703 47.4881 65.7532C47.4881 65.7532 70.0528 66.231 74.3492 65.9673C74.3492 65.9673 75.612 65.3141 75.9253 64.8782C76.9286 63.4853 76.5922 61.8076 76.5922 61.8076Z" fill="#FFB93E"/>
<path d="M63.3056 80.5466V86.5468C63.3056 87.7853 62.2921 88.7985 61.0535 88.7985H25.5812C24.3427 88.7985 23.3291 87.7853 23.3291 86.5468V80.5466C23.3291 79.307 24.3427 78.2938 25.5812 78.2938H61.0535C62.2921 78.2938 63.3056 79.307 63.3056 80.5466Z" fill="#F99746"/>
<path d="M63.3056 85.4542V86.5469C63.3056 87.7854 62.2921 88.7986 61.0535 88.7986H25.5812C24.3427 88.7986 23.3291 87.7854 23.3291 86.5469V85.3642H62.6602C62.8834 85.3642 63.101 85.3958 63.3056 85.4542Z" fill="#ED7D2B"/>
<path d="M31.8685 88.7985L30.2699 94.8556L30.2681 94.8574L23.611 120.065H22.9106L26.7581 99.1514C26.7617 99.1306 26.7673 99.1099 26.7715 99.0874L28.6742 88.7448L31.8685 88.7985Z" fill="#E8C6A7"/>
<path d="M31.8689 88.7985L30.2704 94.8556L30.2686 94.8574C30.1758 94.9024 27.2652 96.4071 26.772 99.0874L28.6746 88.7448L31.8689 88.7985Z" fill="#C69D7B"/>
<path d="M63.3064 120.065H62.6068L57.1826 99.5303V99.5265L55.9496 94.8574L55.9479 94.8556L54.3486 88.7985L57.5426 88.7448L58.6317 94.6584L59.4463 99.0874C59.4498 99.1099 59.4551 99.1306 59.4589 99.1514L63.3064 120.065Z" fill="#E8C6A7"/>
<path d="M52.4943 96.7301L52.4827 96.7231C52.4672 96.696 52.4718 96.7024 52.4943 96.7301Z" fill="#E8C6A7"/>
<path d="M58.6317 94.6584C58.0421 95.5162 57.2293 97.1281 57.1826 99.5265L55.9496 94.8574L55.9479 94.8556L54.3486 88.7985L57.5426 88.7448L58.6317 94.6584Z" fill="#C69D7B"/>
</svg>
