<svg width="128" height="128" viewBox="0 0 128 128" fill="none" xmlns="http://www.w3.org/2000/svg">
<g clip-path="url(#clip0_25_100)">
<path d="M112.848 72.4089C114.402 70.9196 116.797 70.2393 118.804 70.5636C113.69 67.0345 108.834 73.93 104.497 73.4124C105.856 73.1209 108.284 71.5016 108.542 70.7252C100.773 74.6747 101.485 65.5462 95.2057 60.8193C91.4015 57.9563 83.8115 59.3944 83.8115 59.3944C83.8115 59.3944 84.1675 60.982 85.7704 62.7782C87.7119 62.5347 91.5478 66.1774 91.3545 70.402C91.1601 74.6255 92.94 79.2389 95.5617 80.2424C93.6847 78.5914 93.5875 74.9171 93.5875 74.9171C96.6951 85.6965 107.014 86.0121 109.32 84.7498C104.416 84.9922 102.23 83.3664 101.599 82.638C112.306 87.1051 115.511 78.8982 118.496 78.7039C116.02 78.4134 114.37 80.3068 112.33 80.7927C118.157 74.334 121.216 75.7426 123.838 77.3455C121.945 70.6925 114.952 71.6643 112.848 72.4089Z" fill="#623017"/>
<path d="M123.086 75.7066C121.459 72.2583 116.458 69.9805 109.538 74.0436C111.409 71.4524 115.524 69.8047 118.564 70.4053C113.537 67.2496 108.766 73.9213 104.497 73.4124C104.606 73.3884 104.724 73.3557 104.846 73.3153C101.742 73.6996 99.2195 71.1762 98.8319 68.0708C99.6082 69.6246 100.58 71.5671 102.521 72.1491C104.512 72.7027 106.377 72.184 107.828 71.0615C100.812 74.0992 101.287 65.3956 95.2056 60.8193C93.4323 59.485 90.8368 59.0854 88.57 59.0384C87.0806 59.4271 91.4778 60.1107 92.5435 61.1753C91.2081 60.5442 89.5091 59.913 88.3429 60.6905C88.0852 60.8193 88.023 61.0137 88.0721 61.2419C92.6833 63.4552 93.203 70.0755 92.4703 74.6496C93.1506 73.9464 93.9761 70.984 94.1705 70.2076C94.5581 72.3434 95.2624 76.8836 96.2342 78.8262C96.2342 78.0487 96.3063 74.4803 96.3063 73.7029C96.695 76.0341 97.8601 78.171 99.2195 80.1124C99.4139 79.3361 98.8319 78.5586 99.4139 77.7823C100.968 81.2775 106.699 85.1637 113.657 81.5374C105.359 82.6119 105.904 80.6213 105.062 79.5556C112.222 82.1882 115.155 72.3402 123.086 75.7066Z" fill="#7B3E1A"/>
<mask id="mask0_25_100" style="mask-type:alpha" maskUnits="userSpaceOnUse" x="83" y="58" width="41" height="28">
<path d="M83.6665 58.8233H124V85.3788H83.6665V58.8233Z" fill="black"/>
</mask>
<g mask="url(#mask0_25_100)">
<path d="M120.003 75.8987C117.723 75.8987 115.19 77.4776 112.258 80.7272L112.049 80.9587L112.352 80.8866C113.142 80.6988 113.885 80.297 114.604 79.9093C115.59 79.3765 116.609 78.8262 117.802 78.7759C117.121 79.0533 116.413 79.6418 115.573 80.3407C113.684 81.913 111.335 83.8697 107.5 83.8697C105.712 83.8697 103.739 83.4253 101.636 82.5474L101.255 82.3891L101.526 82.7014C101.84 83.0639 103.645 84.871 108.351 84.871C108.496 84.871 108.642 84.8699 108.79 84.8667C108.2 85.0577 107.386 85.1658 106.5 85.1658C104.854 85.1658 96.5009 84.6712 93.6804 74.8898L93.4708 74.1604L93.4904 74.9204C93.4937 75.0601 93.5942 78.135 95.101 79.9104C92.8997 78.6023 91.2651 74.453 91.4507 70.4064C91.5468 68.3306 90.6482 66.0911 89.0474 64.415C87.9588 63.275 86.6987 62.5937 85.8099 62.6767C84.4941 61.1884 84.0388 59.8399 83.9329 59.4719C84.3598 59.3987 86.0654 59.1301 88.0985 59.1301C90.2431 59.1301 93.2076 59.437 95.148 60.8968C97.4738 62.6483 98.8343 65.0057 100.034 67.0869C101.489 69.6104 102.746 71.7887 105.234 71.7887C106.127 71.7887 107.136 71.5136 108.309 70.9491C107.717 71.756 105.652 73.0652 104.476 73.3174L103.906 73.4397L104.485 73.5085C104.644 73.5271 104.809 73.5369 104.974 73.5369C106.602 73.5369 108.264 72.6339 110.023 71.6785C111.859 70.6815 113.756 69.6508 115.689 69.6508C116.647 69.6508 117.536 69.9008 118.393 70.414C118.196 70.3955 117.995 70.3867 117.792 70.3867C115.929 70.3867 114.057 71.1161 112.781 72.338L112.455 72.6503L112.881 72.4996C113.597 72.2463 114.864 71.9766 116.273 71.9766C118.452 71.9766 122.273 72.6535 123.673 77.1315C122.603 76.4895 121.433 75.8987 120.003 75.8987ZM116.273 71.7822C115.091 71.7822 114.005 71.97 113.251 72.1807C114.471 71.1729 116.136 70.5811 117.792 70.5811C118.133 70.5811 118.468 70.6073 118.789 70.6586L119.214 70.7274L118.859 70.4839C117.858 69.7927 116.821 69.4564 115.689 69.4564C113.707 69.4564 111.787 70.4992 109.93 71.5081C108.227 72.433 106.617 73.3076 105.067 73.3415C106.471 72.8206 108.398 71.4655 108.635 70.7558L108.71 70.5319L108.499 70.639C107.234 71.2821 106.165 71.5944 105.234 71.5944C102.857 71.5944 101.685 69.5623 100.202 66.9898C98.9926 64.8933 97.6223 62.5173 95.2648 60.7418C93.2808 59.2491 90.2736 58.9358 88.0985 58.9358C85.7367 58.9358 83.8128 59.2961 83.7931 59.2994L83.6948 59.3179L83.7167 59.4162C83.7319 59.4817 84.0967 61.0486 85.6974 62.8426L85.7313 62.8809L85.7826 62.8743C86.6168 62.7695 87.8408 63.4323 88.9066 64.5493C90.4713 66.1872 91.3503 68.3732 91.2575 70.3965C91.05 74.8953 92.9663 79.3525 95.528 80.333L96.0324 80.5263L95.6262 80.1692C94.3672 79.062 93.9217 76.995 93.7656 75.8103C96.8546 84.8874 104.879 85.3602 106.5 85.3602C107.694 85.3602 108.765 85.1637 109.366 84.835L109.737 84.6319L109.316 84.6526C108.989 84.669 108.665 84.6767 108.351 84.6767C104.627 84.6767 102.766 83.54 102.025 82.9143C103.978 83.6776 105.818 84.0641 107.5 84.0641C111.404 84.0641 113.886 81.9982 115.698 80.4902C116.794 79.5774 117.661 78.8567 118.503 78.801L118.508 78.6078C118.334 78.587 118.157 78.5772 117.983 78.5772C116.661 78.5772 115.569 79.1668 114.512 79.7379C113.877 80.0819 113.271 80.4084 112.629 80.6093C115.425 77.5705 117.84 76.0931 120.003 76.0931C121.48 76.0931 122.682 76.7526 123.788 77.4274L124 77.5574L123.932 77.3182C122.561 72.5007 118.546 71.7822 116.273 71.7822Z" fill="#371F16"/>
</g>
<path d="M106.822 80.796C106.822 80.796 107.928 81.3092 109.484 81.3092C110.399 81.3092 111.459 81.1978 112.515 80.844L112.454 80.6606C109.661 81.5942 106.85 80.8047 106.822 80.796Z" fill="#371F16"/>
<path d="M100.07 81.1519C100.07 81.1519 100.808 82.2875 101.61 82.7898L101.714 82.6249C100.936 82.1379 100.079 81.1618 100.07 81.1519Z" fill="#371F16"/>
<path d="M72.7088 74.4803C69.6973 71.5343 62.317 76.876 62.317 76.876C62.317 76.876 68.7266 82.1947 68.969 82.7068C66.2992 86.0852 63.0453 89.7268 62.7057 90.3579C61.2491 91.2315 61.6378 94.1938 62.317 95.0193C62.6086 96.7675 63.1916 100.506 66.4925 102.06C67.6587 102.109 67.6903 96.6223 65.9749 95.6832C65.4574 94.5825 64.8022 93.8051 65.3394 93.7407C65.8778 93.6763 67.5287 93.8051 66.6869 91.345C67.8203 89.3064 72.1257 85.0981 73.7123 84.5151C75.2977 83.932 74.7158 81.925 74.2615 81.3747C73.8084 80.8255 71.4782 78.8502 72.7088 74.4803Z" fill="#EA772E"/>
<path d="M66.5897 99.9231C66.3964 97.2043 63.6764 95.2617 64.0652 92.5428C64.0652 92.1541 65.4246 92.3485 65.4246 92.1541C65.8133 88.0758 70.086 86.522 71.6398 83.4144C73.507 79.6811 69.8873 75.6519 65.8352 74.8232C63.8664 75.7546 62.317 76.876 62.317 76.876C62.317 76.876 68.7266 82.1947 68.969 82.7068C66.2992 86.0852 63.0453 89.7268 62.7057 90.3579C61.2491 91.2315 61.6378 94.1938 62.317 95.0193C62.6086 96.7675 63.1916 100.506 66.4925 102.06C66.5231 102.061 66.5526 102.057 66.582 102.05C66.6541 101.362 66.6639 100.657 66.5897 99.9231Z" fill="#F79340"/>
<path d="M74.5904 83.457C74.4649 83.9222 74.158 84.2475 73.6787 84.4244C72.0725 85.0141 67.7736 89.1896 66.6019 91.2981L66.5823 91.3363L66.5954 91.3767C66.8782 92.2011 66.9 92.8027 66.6609 93.1642C66.3978 93.5627 65.8594 93.6031 65.5046 93.6293C65.438 93.6337 65.379 93.6381 65.3288 93.6446C65.2021 93.6599 65.1158 93.7112 65.0722 93.7964C64.9641 94.0071 65.1562 94.3543 65.4478 94.8817C65.5854 95.1318 65.7426 95.4157 65.8878 95.7247L65.9009 95.7531L65.9282 95.7684C67.1228 96.4214 67.4744 99.5399 67.0616 101.152C66.9317 101.661 66.733 101.957 66.5157 101.963C63.3185 100.445 62.7147 96.8177 62.4243 95.0717L62.409 94.9778L62.3926 94.9582C61.9853 94.4635 61.6697 93.1117 61.8685 91.9609C61.9547 91.4586 62.1797 90.787 62.7562 90.4409L62.7791 90.4278L62.7911 90.4038C62.9604 90.0904 63.9115 88.9614 65.1158 87.5331C66.2842 86.1464 67.7386 84.4212 69.0457 82.768L69.0828 82.7199L69.0577 82.6664C68.8218 82.1685 63.4714 77.708 62.4767 76.8815C63.169 76.401 67.2036 73.6909 70.2621 73.6909C71.235 73.6909 72.0211 73.9671 72.5999 74.5098C71.4981 78.5008 73.3336 80.5012 74.0259 81.2568C74.0925 81.3288 74.1471 81.3878 74.1875 81.4369C74.4801 81.7918 74.7924 82.7156 74.5904 83.457ZM74.1689 81.1247C73.493 80.3876 71.6979 78.4298 72.8019 74.5065L72.8171 74.4508L72.7757 74.4104C72.1565 73.8044 71.3114 73.4965 70.2621 73.4965C66.8596 73.4965 62.3063 76.7635 62.2605 76.7963L62.1589 76.8705L62.255 76.9502C64.7359 79.0085 68.4429 82.1598 68.8513 82.7014C67.5563 84.336 66.1215 86.0372 64.9673 87.4076C63.7367 88.8675 62.8403 89.9321 62.6339 90.288C62.1393 90.5949 61.8095 91.1616 61.6774 91.9281C61.4688 93.1325 61.7909 94.5083 62.2255 95.0608L62.2332 95.1034C62.5291 96.8854 63.146 100.592 66.4513 102.147L66.508 102.157C66.7352 102.157 67.0474 101.991 67.2495 101.2C67.636 99.6906 67.3969 96.3941 66.0494 95.6133C65.9053 95.3098 65.7524 95.0324 65.617 94.7878C65.3954 94.3838 65.1846 94.0038 65.2458 93.8848C65.2578 93.8597 65.2938 93.8444 65.3517 93.8368C65.3997 93.8313 65.4554 93.827 65.5188 93.8226C65.8878 93.7953 66.5069 93.7494 66.8236 93.2712C67.0966 92.8573 67.0868 92.2306 66.793 91.3548C67.9548 89.3075 72.2133 85.1691 73.7453 84.6068C74.2792 84.4102 74.6363 84.0303 74.7782 83.5083C74.9988 82.6937 74.6647 81.7099 74.3371 81.3136C74.2956 81.2622 74.2377 81.2 74.1689 81.1247Z" fill="#6D3218"/>
<path d="M73.3334 80.238C71.309 80.654 69.5914 81.8835 68.8139 82.5147C68.8958 82.602 68.9515 82.6697 68.969 82.7068C66.2992 86.0852 63.0453 89.7268 62.7057 90.3579C61.2491 91.2314 61.6378 94.1938 62.317 95.0193C62.4098 95.5729 62.531 96.3274 62.7592 97.1475C63.4788 96.5709 64.633 95.8426 65.9946 95.6952C65.988 95.6919 65.9815 95.6865 65.9749 95.6832C65.4574 94.5825 64.8022 93.8051 65.3394 93.7407C65.8778 93.6763 67.5287 93.8051 66.6869 91.345C67.8203 89.3064 72.1257 85.0981 73.7123 84.5151C75.2977 83.932 74.7158 81.925 74.2615 81.3747C74.1043 81.1836 73.7177 80.8178 73.3334 80.238Z" fill="#DDBD79"/>
<path d="M64.2104 93.0626C66.1529 93.7582 66.1365 90.9858 66.1365 90.7914C67.6259 87.5877 70.086 86.522 71.6398 83.4144C72.1083 82.4775 72.2316 81.5221 72.0886 80.6027C70.6211 81.152 69.4254 82.0178 68.8139 82.5147C68.8958 82.602 68.9515 82.6697 68.969 82.7069C66.2992 86.0852 63.0453 89.7268 62.7057 90.3579C61.2491 91.2315 61.6378 94.1938 62.317 95.0193C62.4098 95.5729 62.531 96.3275 62.7592 97.1475C63.2845 96.7271 64.0412 96.227 64.9409 95.9289C64.3589 94.8632 64.0335 94.3041 64.2104 93.0626Z" fill="#FDE39E"/>
<path d="M74.3371 81.3136C74.2956 81.2622 74.2388 81.2 74.17 81.1247C74.0052 80.9456 73.766 80.6835 73.5214 80.3385C73.5116 80.3243 73.4122 80.1801 73.4013 80.1649C73.3729 80.2347 73.2692 80.238 73.2135 80.2631C73.2201 80.2719 73.409 80.5154 73.4144 80.5241C73.647 80.8429 73.8698 81.0853 74.0259 81.2568C74.0925 81.3278 74.1471 81.3878 74.1875 81.4369C74.4801 81.7918 74.7924 82.7156 74.5904 83.457C74.4649 83.9222 74.158 84.2475 73.6787 84.4244C72.0725 85.0141 67.7736 89.1896 66.6019 91.2981L66.5823 91.3363L66.5954 91.3767C66.8782 92.2011 66.9 92.8027 66.6609 93.1642C66.3978 93.5627 65.8594 93.6031 65.5046 93.6293C65.438 93.6337 65.379 93.638 65.3288 93.6446C65.2021 93.6599 65.1158 93.7112 65.0722 93.7964C64.9641 94.0071 65.1562 94.3543 65.4478 94.8817C65.569 95.1023 65.7055 95.3502 65.8365 95.6177C64.5874 95.7913 63.526 96.4312 62.8152 96.9815C62.6208 96.2499 62.5072 95.5707 62.4243 95.0674L62.409 94.9778L62.3926 94.9582C61.9853 94.4635 61.6697 93.1117 61.8685 91.9609C61.9547 91.4586 62.1797 90.787 62.7562 90.4409L62.7791 90.4278L62.7911 90.4038C62.9604 90.0904 63.9115 88.9614 65.1158 87.5331C66.2842 86.1464 67.7386 84.4212 69.0457 82.768L69.0828 82.7199L69.0577 82.6664C69.0457 82.6413 69.0238 82.6042 68.955 82.5256C68.9616 82.5212 68.8109 82.3924 68.8906 82.4524C68.8469 82.4699 68.8174 82.5463 68.7399 82.5769L68.7432 82.5802C68.7967 82.637 68.8295 82.6763 68.8491 82.7025C67.5552 84.3371 66.1215 86.0383 64.9673 87.4076C63.7367 88.8675 62.8403 89.9321 62.6339 90.288C62.1393 90.5949 61.8095 91.1616 61.6774 91.9281C61.4688 93.1325 61.7909 94.5083 62.2255 95.0608L62.2321 95.099C62.3227 95.6395 62.4461 96.3788 62.6656 97.1737L62.706 97.3156L62.8206 97.2239C63.5347 96.6507 64.6682 95.9365 66.0047 95.7924L66.2547 95.7586L66.0516 95.6177C65.9075 95.312 65.7535 95.0346 65.617 94.7878C65.3954 94.3838 65.1846 94.0038 65.2458 93.8848C65.2578 93.8597 65.2938 93.8444 65.3517 93.8368C65.3986 93.8313 65.4554 93.827 65.5188 93.8226C65.8878 93.7953 66.5069 93.7494 66.8236 93.2712C67.0966 92.8573 67.0868 92.2306 66.793 91.3548C67.9548 89.3075 72.2133 85.1691 73.7453 84.6068C74.2792 84.4102 74.6363 84.0303 74.7782 83.5083C74.9988 82.6937 74.6647 81.7099 74.3371 81.3136Z" fill="#3A3930"/>
<path d="M65.9946 95.6952C64.633 95.8426 63.4789 96.5709 62.7593 97.1475C63.2517 98.9175 64.2377 100.999 66.4925 102.06C67.6544 102.108 67.8826 96.2881 65.9946 95.6952Z" fill="#3E3D3E"/>
<path d="M66.4925 102.06C66.5231 102.061 66.5526 102.057 66.5821 102.05C66.6542 101.361 66.664 100.657 66.5897 99.9231C66.4849 98.4458 65.6332 97.1977 64.9409 95.9289C64.0412 96.227 63.2845 96.7271 62.7593 97.1475C63.2517 98.9175 64.2377 100.999 66.4925 102.06Z" fill="#535456"/>
<path d="M67.2055 100.538C67.0712 101.409 66.808 101.954 66.5154 101.963C64.7345 101.118 63.5421 99.5541 62.8706 97.1835C63.5836 96.6212 64.6864 95.9409 65.9836 95.7946C67.1771 96.1953 67.4643 98.8465 67.2055 100.538ZM66.023 95.6024L66.0044 95.597L65.9836 95.5991C64.6002 95.7487 63.434 96.4825 62.6992 97.0721L62.6489 97.1125L62.6653 97.1737C63.3434 99.6108 64.6166 101.285 66.451 102.147L66.5067 102.157H66.5078C66.9183 102.157 67.2415 101.578 67.3966 100.567C67.675 98.7548 67.3529 96.0195 66.023 95.6024Z" fill="#161411"/>
<path d="M30.9181 68.2651C30.9181 68.2651 22.1773 72.5378 20.1059 74.6747C16.9983 75.7098 16.6751 76.4873 17.5159 79.5294C18.3577 82.5725 20.2249 92.2196 24.0172 92.7372C25.4148 94.6153 31.3712 96.453 34.9964 95.6952C34.8676 93.1259 30.8045 90.4071 29.3479 90.8919C27.8913 91.3778 26.7502 91.7414 26.4106 91.2074C26.07 90.6735 26.5537 89.29 26.0569 88.6098C25.56 87.9306 24.0226 87.6227 23.4723 85.8745C22.922 84.1263 21.6597 80.0153 22.1456 79.0118C22.6315 78.0083 39.1402 77.0048 39.7233 75.451C39.1402 72.409 30.9181 68.2651 30.9181 68.2651Z" fill="#EA772E"/>
<path d="M32.6007 93.7079C31.2413 92.9316 29.6875 91.7665 27.9404 92.3485C27.9404 91.7665 27.163 92.1541 27.163 91.5721C26.5799 91.5721 25.6092 91.7665 25.6092 91.5721C24.8317 89.6296 24.0554 88.2702 22.6959 86.7164C20.9478 84.7738 19.1996 80.1124 21.1421 78.3643C23.2779 76.0341 27.9404 77.3936 31.4357 75.451C34.1906 73.7302 32.5199 70.4839 30.8875 68.2793C30.3306 68.5534 22.1074 72.611 20.1059 74.6747C16.9983 75.7098 16.6751 76.4873 17.5159 79.5294C18.3577 82.5725 20.2249 92.2196 24.0172 92.7372C25.2204 94.3533 29.801 95.9387 33.3662 95.8656C33.8761 95.0925 33.6206 94.291 32.6007 93.7079Z" fill="#F79340"/>
<path d="M20.1703 77.3936C22.7451 73.372 28.1151 72.6787 31.76 69.5798C31.4859 69.1223 31.1867 68.6833 30.8875 68.2793C30.3306 68.5534 22.1074 72.611 20.1059 74.6747C16.9983 75.7098 16.6751 76.4873 17.5159 79.5294C18.3577 82.5725 20.2249 92.2196 24.0172 92.7372C25.2204 94.3533 29.8011 95.9387 33.3662 95.8656C33.4688 95.7094 33.5398 95.5511 33.5802 95.3939C30.8285 94.9898 28.1239 94.1534 25.8035 92.9316C20.3647 90.0183 16.6751 82.6381 20.1703 77.3936Z" fill="#FBD0B6"/>
<path d="M32.6009 93.7079C31.2414 92.9316 29.6876 91.7665 27.9405 92.3485C27.9405 91.7665 27.1631 92.1541 27.1631 91.5721C26.58 91.5721 25.6093 91.7665 25.6093 91.5721C24.8318 89.6296 24.0555 88.2702 22.696 86.7164C20.9479 84.7738 19.1997 80.1124 21.1422 78.3643C23.278 76.0341 27.9405 77.3936 31.4358 75.451C34.1907 73.7302 33.0518 71.2253 31.4194 69.0218C30.8625 69.2948 22.7987 73.1045 20.7972 75.1693C17.6896 76.2045 16.6752 76.4873 17.516 79.5294C18.3579 82.5725 20.225 92.2196 24.0173 92.7372C25.2206 94.3533 29.8012 95.9387 33.3663 95.8656C33.8762 95.0925 33.6207 94.291 32.6009 93.7079Z" fill="#F79340"/>
<path d="M29.4505 77.5322C25.0151 78.1186 22.2842 78.5008 22.0582 78.9692C21.7066 79.6953 22.139 81.9632 23.3794 85.904C23.7561 87.0985 24.5718 87.6336 25.228 88.0638C25.5468 88.2723 25.822 88.4536 25.9782 88.6676C26.2293 89.0116 26.2096 89.5641 26.19 90.098C26.1736 90.5577 26.1583 90.9923 26.3287 91.2598C26.4608 91.4673 26.6934 91.5689 27.0417 91.5689C27.5833 91.5689 28.352 91.3264 29.3784 90.9847C29.481 90.9497 29.6022 90.9323 29.7387 90.9323C31.4279 90.9323 34.7048 93.3967 34.8937 95.6177C34.3663 95.7203 33.7723 95.7727 33.128 95.7727C29.6688 95.7727 25.2782 94.2692 24.0957 92.6793L24.0706 92.6466L24.0302 92.6411C20.7937 92.1989 18.9702 84.9049 17.9908 80.9849C17.8455 80.4029 17.7189 79.8995 17.6097 79.5042C16.7711 76.4709 17.1489 75.7622 20.1364 74.7664L20.1593 74.7588L20.1757 74.7424C22.1379 72.7191 30.2465 68.703 30.9169 68.3732C31.5568 68.7019 39.031 72.5935 39.6217 75.4401C39.222 76.2416 33.8094 76.9568 29.4505 77.5322ZM30.9617 68.1778L30.918 68.157L30.8754 68.1778C30.5184 68.3525 22.1411 72.4603 20.0523 74.5895C16.9709 75.6203 16.5538 76.4141 17.423 79.5556C17.5311 79.9486 17.6566 80.4509 17.8019 81.0318C18.789 84.9802 20.6223 92.3146 23.9636 92.8278C25.2127 94.4461 29.6415 95.9671 33.128 95.9671C33.8203 95.9671 34.4547 95.9081 35.016 95.7902L35.0979 95.7738L35.0935 95.6908C34.9723 93.2843 31.524 90.7379 29.7387 90.7379C29.5815 90.7379 29.4395 90.7586 29.3172 90.8001C28.4699 91.0829 27.5931 91.3745 27.0417 91.3745C26.7654 91.3745 26.5864 91.3035 26.4924 91.1561C26.3538 90.9388 26.3691 90.5337 26.3843 90.1046C26.404 89.5641 26.4258 88.9515 26.1354 88.553C25.9585 88.3106 25.6691 88.1206 25.335 87.9011C24.705 87.4884 23.921 86.973 23.565 85.8461C22.3573 82.008 21.9086 79.7237 22.2329 79.0544C22.425 78.6558 26.1714 78.1612 29.4767 77.7244C35.3272 76.9513 39.4939 76.3388 39.8139 75.4849L39.8226 75.4598L39.8182 75.4336C39.233 72.3784 31.2991 68.3481 30.9617 68.1778Z" fill="#6D3218"/>
<path d="M28.8137 91.0677C27.6158 91.4553 26.7074 91.6748 26.4104 91.2074C26.0697 90.6735 26.5534 89.29 26.0566 88.6098C25.5598 87.9306 24.0223 87.6227 23.472 85.8745C22.9217 84.1263 21.6594 80.0153 22.1453 79.0118C22.2098 78.8797 22.5548 78.7476 23.104 78.6132C22.3593 76.4469 20.8787 75.2611 19.9844 74.7162C16.9915 75.7317 16.6857 76.5277 17.5156 79.5294C18.3575 82.5725 20.2246 92.2197 24.0169 92.7372C24.7321 93.6981 26.6419 94.647 28.8202 95.2454C28.473 93.7003 28.6564 92.0089 28.8137 91.0677Z" fill="#DDBD79"/>
<path d="M20.17 77.3936C20.5315 76.8203 20.9584 76.3224 21.4225 75.8693C20.9049 75.3353 20.3852 74.9608 19.9844 74.7162C16.9915 75.7317 16.6857 76.5277 17.5156 79.5294C18.3575 82.5725 20.2246 92.2197 24.0169 92.7372C24.7321 93.6981 26.6419 94.647 28.8202 95.2454C28.7416 94.8927 28.6914 94.5334 28.6608 94.1764C27.6639 93.8215 26.6768 93.4546 25.8033 92.9316C20.9966 90.0544 17.6455 81.4075 20.17 77.3936Z" fill="white"/>
<path d="M25.6091 91.5721C25.7063 89.7268 24.9419 89.3675 23.5825 87.8137C21.8354 85.8723 19.9442 79.8537 21.1421 78.3643C21.5373 77.933 22.02 77.6283 22.5648 77.4056C21.7776 75.9904 21.4303 75.664 20.7195 75.2305C17.7265 76.246 17.3739 76.5768 18.2037 79.5785C19.0456 82.6217 20.8014 91.6453 24.0171 92.7372C24.7323 93.6981 26.6421 94.647 28.8204 95.2454C28.5868 94.2058 28.5933 93.1019 28.6708 92.2033C28.4306 92.2218 25.6091 91.7665 25.6091 91.5721Z" fill="#FDE39E"/>
<path d="M28.9152 95.2235C28.5669 93.6752 28.7624 91.9652 28.9098 91.0841L28.936 90.9268L28.7831 90.976C28.1421 91.1834 27.4881 91.3745 27.0415 91.3745C26.7652 91.3745 26.5862 91.3035 26.4923 91.1561C26.3536 90.9388 26.3689 90.5337 26.3842 90.1046C26.4038 89.5641 26.4256 88.9515 26.1352 88.553C25.9583 88.3106 25.6689 88.1206 25.3348 87.9011C24.7048 87.4884 23.9208 86.973 23.5648 85.8461C22.3572 82.008 21.9084 79.7237 22.2327 79.0544C22.2491 79.0205 22.4456 78.8753 23.1564 78.6973C23.1008 78.6405 23.0887 78.5794 23.0724 78.5237C22.3866 78.7017 22.1093 78.8633 22.058 78.9692C21.7064 79.6953 22.1388 81.9632 23.3792 85.904C23.7559 87.0985 24.5716 87.6336 25.2278 88.0638C25.5467 88.2724 25.8218 88.4536 25.978 88.6676C26.2291 89.0116 26.2094 89.5641 26.1898 90.098C26.1734 90.5577 26.1581 90.9923 26.3285 91.2598C26.4606 91.4673 26.6932 91.5689 27.0415 91.5689C27.4586 91.5689 28.0057 91.4269 28.6925 91.2085C28.5527 92.1072 28.4009 93.6588 28.6925 95.1089C26.5075 94.4897 24.7539 93.5638 24.0955 92.6793L24.0704 92.6466L24.03 92.6411C20.7935 92.1989 18.97 84.9049 17.9906 80.9849C17.8453 80.4029 17.7187 79.8995 17.6095 79.5042C16.7884 76.5342 17.2328 75.7426 20.1362 74.7664C20.1296 74.6998 19.8872 74.7162 19.873 74.6507C16.9522 75.6552 16.5645 76.4523 17.4228 79.5556C17.5309 79.9487 17.6564 80.4509 17.8017 81.0318C18.7888 84.9802 20.6221 92.3146 23.9634 92.8278C24.6808 93.7571 26.525 94.7158 28.7951 95.3393L28.9513 95.3808L28.9152 95.2235Z" fill="#3A3930"/>
<path d="M8.93752 27.7691C8.54989 28.7726 11.3659 35.9913 11.3659 35.9913C14.8939 36.9303 16.415 30.2936 15.9618 29.906C15.5087 29.5173 9.32624 26.7656 8.93752 27.7691Z" fill="#EA772E"/>
<path d="M12.4013 29.8088C11.7702 28.7027 10.3681 27.7265 8.9268 27.8172C8.62653 28.9691 11.3662 35.9913 11.3662 35.9913C12.0945 36.1856 12.7376 36.0557 13.2956 35.7248C13.9049 33.719 13.6799 31.5668 12.4013 29.8088Z" fill="#FBD0B6"/>
<path d="M12.4014 29.8088C11.7703 28.7027 10.3683 27.7265 8.92692 27.8172C8.90071 28.7835 12.111 35.4901 12.111 35.4901C12.8393 35.6844 12.7377 36.0557 13.2957 35.7248C13.905 33.719 13.68 31.5668 12.4014 29.8088Z" fill="#F79340"/>
<path d="M15.3089 32.8618C14.8361 34.028 13.7813 35.9847 12.0375 35.9847C11.842 35.9847 11.6411 35.9596 11.438 35.9094C10.6475 33.8762 8.72351 28.5924 9.02815 27.804C9.07838 27.6741 9.30113 27.6479 9.47912 27.6479C11.0285 27.6479 15.4901 29.6286 15.8985 29.9791C16.023 30.0993 15.9247 31.3451 15.3089 32.8618ZM9.47912 27.4535C9.13189 27.4535 8.91896 27.5474 8.8469 27.7342C8.44944 28.7606 11.1596 35.7303 11.2753 36.0262L11.2928 36.0721L11.3408 36.0852C11.5756 36.1474 11.8104 36.1791 12.0375 36.1791C14.0739 36.1791 15.2106 33.7015 15.6048 32.6358C16.0252 31.5002 16.3014 30.0687 16.0252 29.8317C15.6386 29.4998 11.1476 27.4535 9.47912 27.4535Z" fill="#6D3218"/>
<path d="M50.2026 48.4785C51.6843 49.2548 53.9173 48.4293 54.4032 47.7982C52.9946 48.0657 51.2716 47.3374 50.3238 46.3023C49.4656 45.3643 48.3824 44.5454 47.2894 43.9383C47.2894 43.9383 48.3824 43.8651 49.4022 44.6906C50.421 45.5161 52.2183 46.6571 52.7031 46.1963C52.0971 46.002 51.6843 45.6373 50.7125 44.4722C49.7418 43.3071 48.5767 42.4816 47.1201 42.2632C45.6624 42.0449 45.1536 41.7053 44.4493 40.9038C46.0271 41.7293 49.0615 40.4659 50.2517 40.4419C49.2319 38.9853 46.561 38.8161 45.2988 38.9373C44.0365 39.0585 42.5559 38.4754 42.046 37.9906C42.046 37.9906 43.4775 38.1358 44.2309 37.4806C44.9832 36.8244 46.0031 36.8495 47.071 36.9467C46.537 36.1452 44.6185 35.2466 43.0898 35.6833C41.5601 36.1201 40.1275 36.0557 38.9624 35.7161C39.3664 35.6025 41.6572 35.2957 42.3855 33.79C41.6813 34.2518 40.0543 34.5674 37.4326 34.2999C38.8412 33.8871 40.5642 32.3574 40.6854 31.5559C40.5402 31.9937 38.3553 33.0857 37.1411 32.8192C37.1411 32.7461 38.1849 31.9937 39.0596 31.581C38.4765 31.7994 37.2382 31.581 36.1212 30.9193C35.0042 30.2587 32.8444 30.2216 31.9948 30.6583C33.1359 29.2989 34.6886 28.8861 35.952 28.9102C33.5399 26.5232 29.8656 30.6015 27.5267 29.93C29.5664 29.5173 31.4522 27.9799 31.3386 26.8956C30.7075 27.7211 27.1631 27.5103 25.2206 28.7649C25.8037 28.3511 26.1432 28.2059 26.3376 27.5507C26.532 26.8945 27.2275 26.2797 28.2638 25.9882C28.2638 25.9882 26.58 24.9847 24.0872 27.1544C21.5954 29.3229 20.9479 27.0888 19.1025 28.1251C17.2572 29.1613 17.5815 36.0819 17.5815 36.0819C27.8106 34.1459 33.2768 40.2192 36.9391 42.5952C40.5326 44.9253 45.8808 51.9497 48.3092 53.795C50.6394 54.2569 55.1555 52.8243 55.9079 51.6592C51.7564 52.072 51.3437 49.4251 50.2026 48.4785Z" fill="#623017"/>
<path d="M24.0869 27.1544C21.5951 29.3229 20.9476 27.0888 19.1022 28.1251C18.8871 28.2463 18.7015 28.4472 18.5421 28.7082C19.8306 29.8252 20.7893 29.6843 23.0113 28.5455C21.9794 29.8328 18.7889 30.1167 17.6718 32.2362C17.6292 32.7068 17.6009 33.1741 17.5845 33.612C18.9909 31.3932 21.6268 30.7566 23.6665 29.2257C25.0008 28.0585 26.1921 26.1782 28.0997 25.9139C27.6203 25.7283 26.1244 25.3811 24.0869 27.1544Z" fill="#A96537"/>
<path d="M24.184 27.6239C21.6923 29.7924 21.1736 27.3651 19.3294 28.4002C19.1143 28.5214 18.9068 28.8687 18.7463 29.1285C20.0347 30.2467 20.7893 29.6843 23.0113 28.5455C21.9794 29.8328 18.7889 30.1167 17.6718 32.2362C17.6292 32.7068 17.6009 33.1741 17.5845 33.612C18.9909 31.3932 21.6268 30.7566 23.6665 29.2257C25.0008 28.0585 26.1921 26.1782 28.0997 25.9139C27.6203 25.7283 26.2216 25.8506 24.184 27.6239Z" fill="#7B3E1A"/>
<path d="M28.0321 30.0032C27.1182 29.9136 26.392 29.9333 25.4792 29.6843C27.3584 29.514 29.9233 28.7595 30.9257 27.1827C29.9571 27.6064 27.7984 27.6719 26.1365 28.3107C25.6091 28.4854 24.7858 29.0193 23.7878 30.1604C22.222 31.3746 21.1781 30.0152 18.4221 33.8871C18.2845 34.1623 17.9504 34.5346 17.5606 34.6591C17.554 35.5043 17.5813 36.0819 17.5813 36.0819C18.4188 35.9236 19.2247 35.8198 19.9999 35.7619C19.9148 33.9712 21.5963 32.424 23.2779 31.7502C21.0678 33.3444 23.2058 33.256 24.7269 32.4796C23.9494 33.5224 24.7858 33.8303 25.4388 33.3696C28.292 30.9739 28.7964 31.1999 30.6472 30.464C32.783 29.6134 33.4993 28.5105 35.7334 28.9102C35.8066 28.9091 35.8797 28.9091 35.9518 28.9102C33.7068 26.6881 30.3699 30.0654 28.0321 30.0032Z" fill="#7B3E1A"/>
<path d="M31.6297 33.8871C31.4354 34.0171 31.2192 34.1219 30.9888 34.2005C31.2432 34.1568 31.4878 34.1001 31.6297 33.8871Z" fill="#7B3E1A"/>
<path d="M37.141 32.8192C37.141 32.7461 38.1849 31.9937 39.0595 31.581C38.4765 31.7994 37.2382 31.581 36.1212 30.9193C35.0042 30.2587 32.8443 30.2216 31.9948 30.6583C31.1115 31.0056 28.932 31.4751 26.8857 33.0027C26.9021 33.101 26.9272 33.2014 26.9687 33.3041C27.3575 33.6928 27.9405 33.6928 28.3282 33.4984C32.7362 30.3395 33.5727 32.9765 36.4859 31.8114C35.1265 33.7539 32.1029 31.4107 29.2847 33.9559C28.5586 35.1876 31.6192 33.4504 32.1652 33.4504C31.5766 33.6294 29.0445 35.2466 30.6288 35.0402C31.3266 34.8928 32.2187 34.6045 33.2484 34.3381C35.1734 33.8391 36.5667 34.1721 39.3926 32.8247C39.8075 32.6271 40.2891 32.1794 40.6614 31.6487C40.6701 31.6181 40.6811 31.5854 40.6854 31.5559C40.5402 31.9937 38.3553 33.0857 37.141 32.8192Z" fill="#7B3E1A"/>
<path d="M47.8474 49.0048C47.57 48.7656 47.2195 48.5866 46.8395 48.473C46.6342 48.509 46.572 48.5691 46.5163 48.7733C46.3198 49.4972 48.699 52.7566 50.6743 53.7797C51.1875 53.7066 51.9956 53.3462 52.5088 53.213C50.706 52.3286 48.8814 51.2618 47.7513 49.4251C49.2483 50.8818 51.6592 53.4117 54.2602 52.7708C54.2886 52.7588 54.3192 52.7457 54.3465 52.7337C51.8012 52.465 50.171 51.3917 47.8474 49.0048Z" fill="#7B3E1A"/>
<path d="M50.2025 48.4784C50.2134 48.4839 50.2254 48.4883 50.2363 48.4937C48.5646 47.1266 46.4517 46.4639 44.2548 46.7063C47.168 45.5412 49.6926 48.2601 52.6058 48.0657C53.1321 48.0657 53.8353 48.1531 54.3561 47.8495C54.3714 47.832 54.39 47.8146 54.4031 47.7982C52.9945 48.0657 51.2715 47.3374 50.3237 46.3023C49.4927 45.3938 48.45 44.5989 47.3919 43.9983C47.0195 43.923 46.597 43.7406 46.1722 43.8105C48.6814 42.4893 51.3315 46.3962 52.5861 46.1559C52.0402 45.9507 51.6198 45.5608 50.7124 44.4722C49.7417 43.3071 48.5766 42.4816 47.12 42.2632C45.7191 42.0536 45.1939 41.7293 44.53 40.9933C43.8639 40.5915 43.3223 40.0161 42.701 39.5192C44.9744 41.2248 47.6179 39.9735 50.09 40.4528C50.1468 40.4474 50.2014 40.443 50.2516 40.4419C49.2318 38.9853 46.5609 38.8161 45.2987 38.9373C44.5474 39.0093 43.7209 38.8313 43.0657 38.5747C42.0819 38.3607 41.8832 37.8202 40.8316 37.1356C42.1911 37.9119 43.0897 37.1891 44.2548 36.8004C45.0322 36.4892 46.182 36.3057 47.0086 36.9412C47.0294 36.9423 47.0501 36.9445 47.0709 36.9467C46.5369 36.1452 44.6184 35.2466 43.0897 35.6833C41.5599 36.1201 40.1273 36.0557 38.9623 35.7161C39.3663 35.6025 41.6571 35.2957 42.3854 33.7899C41.7576 34.2016 40.3938 34.4953 38.2482 34.3654C38.0636 34.4298 37.8671 34.4702 37.6509 34.4702C35.9278 34.278 34.2048 34.6078 32.6903 35.3154C32.2044 35.5709 32.3332 35.9225 32.6007 36.024C34.2528 36.6453 34.7016 35.1134 42.3003 36.5219C41.0369 36.5929 40.9889 36.7884 38.5255 36.5492C36.2947 36.3341 34.4647 36.4892 34.2037 37.1356C33.6905 38.4044 38.4447 35.6779 42.1179 39.5192C40.3698 38.7429 38.6216 37.5778 36.6802 38.1598C38.46 38.613 39.7626 39.1152 40.6449 40.1668C42.1692 41.9837 43.7831 43.2962 46.003 43.5987C44.8379 43.793 43.0166 43.4043 42.4335 42.8212C40.0728 40.8776 37.1977 38.7385 34.6241 39.3784C36.013 41.2237 39.3379 40.9988 41.1472 42.6269C40.1754 42.4325 39.399 42.0449 38.6216 41.8505C39.1501 42.7306 40.2278 43.3191 41.5032 43.9459C43.0428 44.7037 43.6313 45.4112 46.3906 45.3468C44.1008 45.7508 41.6233 45.313 39.3477 44.553C40.2475 45.3927 41.1832 46.3601 42.1092 47.3494C44.7112 46.7423 47.4716 46.9847 49.4993 48.8431C48.1388 48.2601 46.3906 47.0939 44.8379 47.677C48.1388 47.4826 49.8869 50.7846 52.8002 51.7564C53.7578 52.0752 54.8464 52.2609 55.7429 51.6712C51.7476 51.9977 51.3283 49.412 50.2025 48.4784Z" fill="#7B3E1A"/>
<path d="M19.6362 34.2693C19.6362 34.2693 20.5207 32.6707 22.0286 31.8638C24.6623 30.4563 25.7084 31.5209 26.9707 30.7129C26.7392 30.9783 26.7337 31.4674 24.1688 31.5155C23.0441 31.831 21.5897 32.2394 20.0097 34.3381C19.8066 34.1623 19.6362 34.2693 19.6362 34.2693Z" fill="#623017"/>
<path d="M49.3301 53.7863C48.9654 53.7863 48.6356 53.759 48.3496 53.7044C47.3472 52.9357 45.8731 51.3185 44.1686 49.4459C41.7926 46.8373 39.0999 43.8815 36.9914 42.5133C36.3821 42.118 35.7062 41.6081 34.9921 41.0676C31.9424 38.7647 27.7669 35.6102 21.4436 35.6102C20.2239 35.6102 18.9573 35.7303 17.6743 35.9661C17.6426 35.074 17.5028 29.134 19.1506 28.2102C19.489 28.0192 19.8024 27.9307 20.1366 27.9307C20.4379 27.9307 20.7142 28.0028 21.0079 28.0792C21.3115 28.1578 21.6259 28.2397 21.9808 28.2397C22.6676 28.2397 23.3577 27.9176 24.1515 27.2275C25.4564 26.0919 26.5265 25.8539 27.1936 25.8539C27.5409 25.8539 27.8095 25.9172 27.9831 25.9751C27.0943 26.2885 26.4391 26.8661 26.2448 27.5223C26.0875 28.0519 25.844 28.219 25.3996 28.5225C25.3264 28.5728 25.2478 28.6263 25.1648 28.6852L25.2729 28.8457C26.2884 28.1906 27.7363 27.9438 29.0128 27.7265C30.0064 27.5573 30.8221 27.4175 31.2381 27.1216C31.1005 28.1524 29.3371 29.4649 27.5081 29.835L27.1183 29.9136L27.5005 30.0228C27.6839 30.0763 27.8848 30.1025 28.0966 30.1025C28.9658 30.1025 29.9365 29.669 30.9651 29.2093C32.0221 28.7376 33.1151 28.2495 34.112 28.2495C34.7246 28.2495 35.2476 28.4352 35.7019 28.8141C34.765 28.8392 33.1555 29.1231 31.9195 30.5961L31.6104 30.9652L32.0385 30.7446C32.3824 30.5677 32.9644 30.4661 33.637 30.4661C34.5947 30.4661 35.5042 30.6671 36.072 31.0034C36.8604 31.4696 37.794 31.759 38.5114 31.7601C37.8431 32.139 37.0438 32.6773 37.0438 32.8192V32.8968L37.1203 32.9142C37.2524 32.9426 37.3998 32.9579 37.5592 32.9579C38.5026 32.9579 39.7813 32.4294 40.408 31.9763C39.9221 32.7668 38.5736 33.8642 37.4053 34.2071L36.9292 34.3457L37.4227 34.396C39.4734 34.6056 41.1778 34.4691 42.1256 34.0411C41.3919 35.0893 39.7987 35.4333 39.1665 35.5698C39.065 35.5916 38.9864 35.608 38.9361 35.6222L38.6086 35.7139L38.935 35.8089C40.2377 36.1889 41.7052 36.1802 43.116 35.7772C43.3737 35.703 43.6532 35.6659 43.9491 35.6659C45.1044 35.6659 46.3295 36.2489 46.8558 36.8299C46.6298 36.8124 46.3819 36.7982 46.1362 36.7982C45.2693 36.7982 44.6436 36.9915 44.1664 37.4075C43.6674 37.8421 42.8397 37.9065 42.391 37.9065C42.189 37.9065 42.0568 37.8934 42.0547 37.8934L41.7729 37.865L41.9782 38.0604C42.4805 38.5387 43.7941 39.0508 44.9493 39.0508C45.0727 39.0508 45.1928 39.0443 45.3075 39.0333C45.5215 39.0137 45.7661 39.0028 46.015 39.0028C46.7193 39.0028 49.0309 39.1021 50.0639 40.3568C49.6937 40.3928 49.2056 40.5074 48.6542 40.6363C47.7545 40.847 46.7346 41.0862 45.8272 41.0862C45.2758 41.0862 44.839 40.9977 44.494 40.8175L44.0321 40.5751L44.3761 40.9671C45.0771 41.7653 45.611 42.1355 47.1048 42.3593C48.4282 42.5581 49.5834 43.2689 50.6382 44.5344C51.5052 45.575 51.9343 45.9834 52.4421 46.2029C51.8557 46.2575 50.4723 45.4331 49.4622 44.6152C48.4096 43.7624 47.2828 43.8411 47.2828 43.8411L46.9563 43.864L47.2424 44.0234C48.3769 44.6535 49.4459 45.4855 50.2528 46.3678C51.1962 47.3996 52.8046 48.0581 54.1204 47.9358C53.6476 48.3005 52.6474 48.6968 51.6166 48.6968C51.0936 48.6968 50.6328 48.5942 50.2473 48.3922L49.4306 47.9631L50.1414 48.5527C50.4122 48.7776 50.6491 49.115 50.9003 49.4721C51.6308 50.5083 52.5404 51.799 55.0747 51.799C55.2723 51.799 55.4787 51.7913 55.6927 51.775C54.7919 52.7337 51.5303 53.7863 49.3301 53.7863ZM55.0747 51.6046C52.6408 51.6046 51.764 50.3598 51.0597 49.3596C50.9068 49.1423 50.7583 48.9327 50.6033 48.7471C50.9101 48.8431 51.2497 48.8912 51.6166 48.8912C52.8352 48.8912 54.104 48.3463 54.4796 47.8571L54.6357 47.6551L54.3846 47.7032C54.1968 47.7392 53.997 47.7567 53.7917 47.7567C52.5928 47.7567 51.2279 47.1463 50.3958 46.2367C49.6599 45.432 48.7088 44.6676 47.6879 44.0562C48.0875 44.1075 48.7274 44.2702 49.3399 44.767C50.0388 45.3315 51.5718 46.3994 52.3809 46.3994C52.5469 46.3994 52.6779 46.3547 52.7707 46.2662L52.8898 46.1538L52.7336 46.1035C52.1538 45.919 51.7542 45.5707 50.7878 44.41C49.7003 43.1062 48.5057 42.3724 47.1343 42.1672C45.9233 41.9859 45.3828 41.7238 44.8128 41.1528C45.1044 41.239 45.4396 41.2805 45.8272 41.2805C46.7575 41.2805 47.7883 41.0392 48.699 40.8252C49.3367 40.6756 49.8881 40.5467 50.2539 40.5391L50.4351 40.5358L50.3314 40.3862C49.3061 38.922 46.7685 38.8084 46.015 38.8084C45.7595 38.8084 45.5084 38.8193 45.29 38.8401C45.1808 38.851 45.0662 38.8565 44.9493 38.8565C43.9186 38.8565 42.8823 38.4612 42.344 38.1008C42.8103 38.1063 43.7297 38.0462 44.2942 37.5538C44.7397 37.1651 45.3086 36.9925 46.1362 36.9925C46.4584 36.9925 46.7848 37.0177 47.0622 37.0428L47.2642 37.0613L47.1517 36.8921C46.6942 36.2064 45.2987 35.4726 43.9491 35.4726C43.6358 35.4726 43.3377 35.5119 43.0625 35.5905C41.8243 35.9443 40.5423 35.988 39.3751 35.7226C40.1809 35.5436 41.8592 35.1013 42.4729 33.8325L42.6257 33.517L42.332 33.7091C41.9946 33.9297 41.144 34.301 39.2342 34.301C38.8084 34.301 38.353 34.2813 37.877 34.2431C39.184 33.6928 40.6603 32.3705 40.7815 31.5712L40.5937 31.5253C40.4899 31.8354 38.8182 32.7635 37.5592 32.7635C37.485 32.7635 37.414 32.7603 37.3463 32.7526C37.6422 32.5168 38.4175 31.9916 39.101 31.6683L39.0257 31.4904C38.8914 31.5406 38.7188 31.5657 38.5125 31.5657C37.8278 31.5657 36.9314 31.2862 36.1714 30.8363C35.5752 30.4825 34.6274 30.2718 33.637 30.2718C33.1424 30.2718 32.6904 30.3264 32.3377 30.4247C33.5486 29.1984 35.0347 29.0062 35.8471 29.0062C35.882 29.0062 35.9159 29.0062 35.9497 29.0073L36.1921 29.0117L36.0196 28.8414C35.4857 28.3129 34.8622 28.0552 34.112 28.0552C33.0747 28.0552 31.962 28.552 30.8865 29.0325C29.8481 29.4954 28.8643 29.9344 28.0268 29.9071C29.9169 29.3644 31.5471 27.958 31.4357 26.8846L31.4095 26.6422L31.2621 26.8366C30.9891 27.1926 30.0588 27.3509 28.9811 27.5343C28.0311 27.697 26.9873 27.8739 26.0853 28.2244C26.2306 28.0639 26.3452 27.8674 26.4304 27.578C26.6247 26.924 27.3367 26.3507 28.2899 26.0821L28.5072 26.0209L28.3128 25.9052C28.2965 25.8954 27.8935 25.6595 27.1936 25.6595C26.4926 25.6595 25.3734 25.9063 24.0238 27.0812C23.2671 27.7396 22.6185 28.0454 21.9808 28.0454C21.651 28.0454 21.3486 27.9667 21.057 27.8914C20.7644 27.815 20.463 27.7374 20.1366 27.7374C19.7719 27.7374 19.4192 27.8357 19.0545 28.041C17.1796 29.0936 17.4712 35.8013 17.4843 36.0863L17.4897 36.1987L17.5989 36.178C18.9081 35.9301 20.201 35.8045 21.4436 35.8045C27.7014 35.8045 31.8474 38.9362 34.8753 41.2226C35.5927 41.7653 36.2697 42.2763 36.8866 42.676C38.9733 44.03 41.6572 46.9771 44.0256 49.5769C45.7464 51.467 47.2325 53.0994 48.2502 53.8725L48.2688 53.8867L48.2906 53.89C48.5942 53.9501 48.9436 53.9806 49.3301 53.9806C51.7574 53.9806 55.3051 52.7719 55.9897 51.7116L56.0989 51.5424L55.898 51.562C55.6119 51.5904 55.3346 51.6046 55.0747 51.6046Z" fill="#371F16"/>
<path d="M24.3249 29.4605C23.7309 30.0774 23.1707 30.6594 22.0297 30.7806C19.9692 30.9968 18.7091 34.1874 18.4766 34.8251L18.66 34.8917C18.8838 34.2737 20.1035 31.1781 22.0504 30.9728C23.2614 30.8461 23.8728 30.2106 24.4646 29.5948C24.7944 29.253 25.1362 28.8982 25.5806 28.6328L25.4812 28.4668C25.0139 28.7442 24.6634 29.1089 24.3249 29.4605Z" fill="#371F16"/>
<path d="M24.7826 31.3866C22.494 31.4117 20.3232 33.3008 19.5469 35.1112L19.7259 35.1876C20.4772 33.434 22.5748 31.6061 24.7848 31.581C26.9643 31.5559 26.9708 30.7129 26.9708 30.7129C26.9687 30.7195 26.8049 31.3637 24.7826 31.3866Z" fill="#371F16"/>
<path d="M30.1666 31.2261C29.4973 31.415 28.8651 31.5952 28.009 32.1302C26.6037 33.0081 25.1493 33.9177 24.7856 35.3689L24.9745 35.4158C25.2934 34.1394 26.4759 33.3171 28.1127 32.294C28.9448 31.7743 29.5639 31.5985 30.219 31.4128C30.789 31.2512 31.3776 31.0842 32.1648 30.6878L32.0775 30.5142C31.3077 30.9018 30.7268 31.0667 30.1666 31.2261Z" fill="#371F16"/>
<path d="M33.7877 32.2143C32.1793 31.8496 28.5301 32.4644 26.9785 35.5916L27.1532 35.6779C28.6568 32.6478 32.1881 32.0505 33.7451 32.4043C35.371 32.7734 36.0414 32.0833 36.0414 32.0833C36.0349 32.0887 35.3208 32.5626 33.7877 32.2143Z" fill="#371F16"/>
<path d="M37.156 34.2049C35.9986 34.206 33.2863 34.2092 29.8369 36.9838L29.9592 37.1356C33.354 34.4036 36.0183 34.4003 37.156 34.3992C37.2609 34.3992 37.3537 34.3992 37.4345 34.3971L37.4301 34.2027C37.3504 34.2049 37.2587 34.2049 37.156 34.2049Z" fill="#371F16"/>
<path d="M31.7368 37.7078L31.846 37.8683C34.4732 36.0841 36.4201 36.1627 38.1879 36.3953C40.0179 36.6355 41.1339 36.4772 41.1339 36.4772C41.123 36.4761 40.0332 36.4422 38.2141 36.202C36.408 35.9651 34.4208 35.8853 31.7368 37.7078Z" fill="#371F16"/>
<path d="M33.5996 38.9132L33.7295 39.0574C36.7214 36.3691 40.8958 38.5944 40.9384 38.6173C40.9384 38.6173 36.6952 36.1321 33.5996 38.9132Z" fill="#371F16"/>
<path d="M34.7017 39.3325L34.7737 39.5127C36.9499 38.6392 39.2757 39.3991 41.6856 41.7741C43.3158 43.3792 44.732 43.4294 44.732 43.4294C44.7189 43.4283 43.4043 43.1936 41.8221 41.6354C39.3521 39.2015 36.9565 38.4273 34.7017 39.3325Z" fill="#371F16"/>
<path d="M43.1134 44.7037C42.9627 44.6174 42.8077 44.5257 42.6515 44.434C41.4865 43.7472 40.1663 42.9675 39.2065 43.1881L39.2502 43.377C40.1336 43.175 41.4188 43.9328 42.5522 44.601C42.7105 44.6939 42.8612 44.791 43.0162 44.8718C44.5296 45.67 46.387 45.3468 46.387 45.3468C46.3673 45.3468 44.3364 45.4091 43.1134 44.7037Z" fill="#371F16"/>
<path d="M45.4165 46.6408C45.4427 46.6418 48.0415 46.739 50.2242 48.627L50.3509 48.4806C48.1168 46.5479 45.4165 46.6408 45.4165 46.6408Z" fill="#371F16"/>
<path d="M48.6923 49.6064C48.4783 49.3946 48.2763 49.1937 48.0841 49.0146C46.6505 47.6803 44.1849 48.4282 44.0801 48.461L44.1379 48.6466C44.162 48.639 46.6002 47.8986 47.952 49.1565C48.142 49.3334 48.3429 49.5333 48.5548 49.7451C49.8225 51.0041 51.527 52.7009 54.1377 52.7009C54.3135 52.7009 54.4937 52.6933 54.6782 52.6769L54.6608 52.4836C51.8338 52.7282 50.0168 50.9244 48.6923 49.6064Z" fill="#371F16"/>
<path d="M10.0383 35.3929C7.28666 41.0414 11.5604 41.2958 11.5604 41.2958C11.5604 41.2958 12.4984 40.2639 12.7255 39.3576C11.5921 39.3904 11.0745 37.7394 10.0383 35.3929Z" fill="#623017"/>
<path d="M10.0383 35.3929C7.28666 41.0414 11.5604 41.2958 11.5604 41.2958C11.5604 41.2958 12.4984 40.2639 12.7255 39.3576C11.5921 39.3904 11.0745 37.7394 10.0383 35.3929Z" fill="#623017"/>
<path d="M10.4599 40.1023C10.4053 39.908 9.87135 39.6896 9.78618 39.0137C9.98054 39.5968 10.9567 40.419 11.2362 39.908C11.34 39.7202 8.39617 38.3443 10.3594 36.131C10.2568 35.893 10.152 35.6484 10.0384 35.3929C8.95086 37.6248 8.96287 39.0137 9.37234 39.8774C9.65187 40.17 10.6062 40.6221 10.4599 40.1023Z" fill="#7B3E1A"/>
<path d="M10.259 35.6833C10.2382 35.6353 10.0603 35.442 10.0384 35.3929C8.95086 37.6248 8.96287 39.0137 9.37234 39.8774C9.38981 39.896 9.41056 39.9156 9.4324 39.9342C9.19982 38.4251 9.53831 37.0428 10.259 35.6833Z" fill="#A96537"/>
<path d="M11.5199 41.1943C11.2753 41.167 10.1201 40.9879 9.54573 40.0052C8.96919 39.017 9.13407 37.544 10.0349 35.6255C10.1485 35.8875 10.2566 36.1398 10.3603 36.3811C11.1279 38.174 11.6433 39.3773 12.5976 39.4516C12.3629 40.2006 11.6761 41.0152 11.5199 41.1943ZM10.5394 36.3046C10.4105 36.0033 10.274 35.6855 10.1277 35.3536L10.0426 35.1614L9.95083 35.3503C8.9408 37.425 8.74753 39.0246 9.37976 40.1045C10.0731 41.2914 11.4937 41.3886 11.5538 41.393L11.6007 41.3952L11.6313 41.3613C11.6706 41.3187 12.59 40.3011 12.8193 39.3817L12.8499 39.2572L12.6926 39.2616C11.8049 39.2616 11.3015 38.0845 10.5394 36.3046Z" fill="#371F16"/>
<path d="M11.8193 33.8991C12.4013 30.5448 11.1718 29.5173 9.71521 29.1285C11.8838 31.1355 9.52085 32.3912 9.29482 35.7805C9.0677 39.1709 12.92 40.3294 12.92 40.3294L13.9551 38.7101C13.9551 38.7101 11.2363 37.2535 11.8193 33.8991Z" fill="#623017"/>
<path d="M10.1778 34.064C10.3984 33.0332 10.726 32.0494 10.9433 31.0252C10.9553 30.8461 10.9651 30.6681 10.9684 30.488C10.9728 30.3144 10.9848 30.1429 11.0022 29.9737C10.6703 29.5151 10.1724 29.2749 9.79676 29.1515C9.76946 29.1438 9.74216 29.1362 9.71486 29.1285C11.8834 31.1355 9.5205 32.3912 9.29447 35.7805C9.19839 37.2022 9.82187 38.2308 10.5764 38.946C10.8505 39.0683 11.0033 39.0213 11.0132 38.8357C10.1374 37.4577 9.83279 35.6866 10.1778 34.064Z" fill="#A96537"/>
<path d="M10.8266 38.2788C11.77 39.1469 12.5278 38.5605 11.6204 38.0845C8.49642 36.4433 11.3824 32.9645 11.3572 31.1093C11.3409 29.859 10.4062 29.3513 9.7969 29.1515C9.7696 29.1438 9.7423 29.1362 9.715 29.1285C12.2788 30.8439 9.83511 32.3879 9.60799 35.7783C9.513 37.2 9.82201 38.2308 10.5765 38.946C11.0362 39.1502 11.1585 38.8837 10.8266 38.2788Z" fill="#7B3E1A"/>
<path d="M12.8786 40.2137C12.3654 40.0357 9.18902 38.8139 9.39102 35.7871C9.47729 34.5041 9.86601 33.5454 10.21 32.6991C10.7254 31.4314 11.1086 30.4891 10.0593 29.3371C11.2036 29.7466 12.2704 30.7326 11.7234 33.8828C11.1971 36.9161 13.347 38.447 13.8198 38.7418L12.8786 40.2137ZM11.9155 33.9155C12.5543 30.2314 10.9798 29.3655 9.74044 29.0346L9.36154 28.9342L9.64872 29.1995C10.9383 30.393 10.5768 31.2807 10.0309 32.626C9.69895 33.4427 9.28511 34.4604 9.19776 35.774C8.96845 39.2015 12.8524 40.4103 12.8917 40.4223L12.9616 40.443L14.0939 38.6752L14.0011 38.625C13.9749 38.6108 11.351 37.1596 11.9155 33.9155Z" fill="#371F16"/>
<path d="M74.3273 51.1089C70.3276 50.7453 67.4154 52.2412 65.0853 52.8243C62.754 53.4063 55.2766 53.0667 51.2463 52.6037C47.216 52.1396 42.7654 43.9219 33.1838 37.7875C23.6022 31.6542 17.6458 35.0216 15.3047 36.8702C15.3047 36.8702 19.6363 46.2204 21.1901 50.9789C29.0399 52.144 28.4579 58.3592 29.753 64.51C26.677 79.9181 46.5369 77.4416 51.8294 76.4228C53.7719 77.7168 63.0292 81.2131 73.1939 75.1278C81.4815 68.9126 80.3798 51.6592 74.3273 51.1089Z" fill="#EA772E"/>
<path d="M19.7803 47.1791C19.8381 47.3232 19.8938 47.4651 19.9506 47.6082C20.1177 47.4946 20.2804 47.3756 20.4398 47.2533C20.2192 47.226 19.9987 47.2009 19.7803 47.1791Z" fill="#F79340"/>
<path d="M74.3272 51.1078C70.3275 50.7453 67.4154 52.2412 65.0852 52.8243C64.9334 52.8625 64.7576 52.8953 64.5644 52.9258C61.3268 54.0669 57.3653 52.9892 54.8801 55.6043C53.334 54.2951 51.5323 53.4216 49.64 52.9793C46.8327 52.7893 43.9129 53.5712 41.2694 54.3541C40.5749 47.9052 39.5332 46.2083 35.3795 41.8811C34.7146 40.6723 32.8452 39.1174 31.7271 38.3138C26.749 35.2739 20.8952 33.6436 15.4902 37.2743C16.1159 38.6381 18.1916 43.2067 19.7804 47.1791C19.9988 47.2009 20.2193 47.226 20.4399 47.2533C22.0461 46.0194 23.2833 44.3499 24.326 42.5493C25.5763 44.2156 25.1133 47.5667 26.8855 48.627C29.9505 50.4614 33.9906 55.1075 35.3795 59.4129C36.3514 62.4681 36.7794 66.1588 35.9517 67.3403C35.813 61.2288 31.8253 53.6596 25.2979 51.8547C25.6385 52.2805 25.9443 52.7358 26.2183 53.2152C27.7787 54.7559 28.4109 56.9081 28.8542 59.3026C29.612 60.8029 30.6341 62.0455 32.3811 62.4092C29.742 64.2152 29.8817 67.6875 30.7149 70.4642C31.6299 73.324 34.2396 75.1453 37.072 75.3899C41.1471 74.9433 42.6845 69.9652 44.449 70.402C43.2741 72.3107 42.322 74.8865 42.7675 77.2047C44.2186 77.2385 45.6403 77.1806 46.9408 77.0758C48.0567 75.5788 49.9523 74.286 50.8586 72.9265C56.0583 76.4043 61.543 76.781 66.4905 74.5251C70.1353 71.0113 66.7842 67.8764 70.4749 63.0206C72.0986 60.8837 75.6954 60.5758 78.3586 61.5236C78.5169 61.1851 78.6741 60.8444 78.827 60.4961C78.9853 60.1336 79.0137 59.7198 79.0738 59.3147C78.7309 54.9033 77.0188 51.3535 74.3272 51.1078Z" fill="#F79340"/>
<path d="M73.1436 75.0438C69.311 77.339 65.2349 78.503 61.0288 78.503C56.1861 78.503 52.7848 76.9426 51.8829 76.342L51.8501 76.3191L51.8108 76.3268C50.5769 76.5648 47.3056 77.1173 43.6007 77.1173C39.5169 77.1173 34.0737 76.4163 31.3286 73.0707C29.6285 70.9971 29.1306 68.1232 29.848 64.5286L29.8512 64.51L29.848 64.4904C29.6285 63.4487 29.4614 62.3971 29.3009 61.3817C28.494 56.2879 27.7973 51.8874 21.2644 50.8916C19.7816 46.382 15.8244 37.7656 15.4248 36.8997C17.5508 35.2422 20.1113 34.3665 22.8335 34.3665C26.0361 34.3665 29.5007 35.5458 33.1314 37.8694C37.9161 40.9322 41.4179 44.5159 44.2329 47.3953C47.109 50.338 49.188 52.464 51.2354 52.6998C53.9477 53.0121 57.8426 53.2294 60.7078 53.2294C62.7726 53.2294 64.2936 53.1224 65.1082 52.9182C65.6858 52.7741 66.3006 52.5731 66.9514 52.3613C68.6908 51.7924 70.6617 51.1493 73.0901 51.1493C73.4974 51.1493 73.9102 51.1678 74.3185 51.205C76.1006 51.3666 77.5878 53.0984 78.398 55.9537C80.1014 61.9615 78.5749 70.9709 73.1436 75.0438ZM74.336 51.0117C73.9222 50.9746 73.5029 50.9549 73.0901 50.9549C70.63 50.9549 68.6438 51.6035 66.8913 52.1757C66.2438 52.3875 65.6323 52.5873 65.0613 52.7304C64.262 52.9291 62.7562 53.035 60.7078 53.035C57.8491 53.035 53.963 52.8177 51.2572 52.5065C49.2787 52.2794 47.1134 50.0639 44.3716 47.2599C41.5511 44.3728 38.0395 40.7804 33.2362 37.7056C29.5739 35.3612 26.0732 34.1721 22.8335 34.1721C20.0414 34.1721 17.4165 35.0795 15.2446 36.7949L15.1846 36.8419L15.2162 36.9117C15.2599 37.0046 19.5643 46.3099 21.0984 51.0095L21.117 51.0663L21.1759 51.075C27.6226 52.0316 28.3116 56.3796 29.1087 61.4122C29.2692 62.4244 29.4352 63.4705 29.6536 64.5111C28.9296 68.1559 29.4429 71.0768 31.179 73.1929C33.971 76.5976 39.4754 77.3117 43.6007 77.3117C47.2837 77.3117 50.5398 76.7679 51.8086 76.5255C52.7728 77.1501 56.1949 78.6973 61.0288 78.6973C65.2698 78.6973 69.3798 77.5246 73.2517 75.2054C78.7572 71.0768 80.3066 61.9702 78.5847 55.9013C77.7515 52.963 76.2032 51.1809 74.336 51.0117Z" fill="#6D3218"/>
<path d="M29.6108 64.7306L29.8019 64.7633C29.8936 64.2327 30.3282 62.4463 30.3326 62.4288C30.3326 62.4288 29.7026 64.1933 29.6108 64.7306Z" fill="#6D3218"/>
<path d="M25.955 48.4599L25.9092 48.6477C32.0032 50.1447 35.9668 60.8106 36.0051 60.9176C36.0051 60.9176 35.7168 59.5811 34.8804 57.8995C33.2207 54.5659 30.0738 49.471 25.955 48.4599Z" fill="#6D3218"/>
<path d="M18.5683 35.0216C14.5052 36.962 12.3367 39.196 11.366 40.1264C10.3942 41.0578 9.17231 43.4283 8.66238 44.4722C8.15246 45.5161 3.56421 53.3091 4.1473 55.9799C4.72929 58.6508 6.23505 60.1314 6.86618 60.6173C7.49731 61.1032 9.12427 60.3509 9.46385 60.2286C9.94976 60.8357 12.7898 60.1565 13.0333 59.6706C13.2757 59.1847 13.5433 56.7574 14.2224 56.2966C14.9027 55.8347 18.4973 53.3047 19.9441 53.0503C23.7876 52.7271 30.3916 49.8619 25.3655 41.5109L18.5683 35.0216Z" fill="#EA772E"/>
<path d="M19.6558 46.6102C17.9885 48.2775 14.3262 47.5492 12.3815 48.9381C10.9925 49.91 10.6824 51.3163 9.43219 52.2892C10.2872 50.4821 11.5986 47.5984 13.5105 45.9277C14.8983 44.5486 17.2198 42.1923 19.1525 42.7448C19.9867 42.8835 21.0393 45.0979 19.6558 46.6102ZM26.2412 43.1575C26.001 42.6334 25.7116 42.0853 25.3655 41.5109L22.7929 38.1893L18.5683 35.0216C14.5052 36.962 12.3367 39.196 11.366 40.1264C10.3942 41.0578 9.17231 43.4283 8.66238 44.4722C8.15246 45.5161 3.56421 53.3091 4.1473 55.9799C4.72929 58.6508 6.23505 60.1314 6.86618 60.6173C7.49731 61.1032 9.12427 60.3509 9.46385 60.2286C9.49661 60.2701 9.54247 60.3061 9.59597 60.3356C11.473 59.3441 12.483 58.4837 13.1786 56.2234C13.7616 54.2809 16.6421 53.0187 18.3903 52.0468C19.5554 51.6592 21.7239 51.7564 23.2777 51.1733C26.5764 50.0257 27.1202 46.3383 26.2412 43.1575Z" fill="#F79340"/>
<path d="M4.82647 53.8922C6.38027 47.2883 9.8766 41.8505 15.1211 37.3835C15.1211 37.3114 15.0938 37.1858 15.0305 37.0559C13.16 38.34 12.0037 39.5149 11.366 40.1264C10.3942 41.0578 9.17231 43.4283 8.66238 44.4722C8.15246 45.5161 3.56421 53.3091 4.1473 55.9799C4.71073 58.5656 6.13787 60.0342 6.80175 60.5649C5.24577 58.5896 4.35476 56.1339 4.82647 53.8922Z" fill="#FBD0B6"/>
<path d="M25.2827 41.56C27.1488 44.66 27.5692 47.2588 26.5352 49.2821C25.3067 51.6854 22.2123 52.762 19.9269 52.9553C18.5729 53.1923 15.4151 55.3597 14.3766 56.0727L14.1681 56.2158C13.6778 56.5488 13.4103 57.7379 13.1963 58.6934C13.1013 59.1159 13.0205 59.4795 12.9462 59.6269C12.8305 59.8595 11.8095 60.2362 10.7842 60.3454C10.1487 60.4131 9.68248 60.3465 9.54053 60.1685L9.49685 60.1139L9.43133 60.1369C9.38875 60.1533 9.32651 60.1773 9.25008 60.2078C8.75325 60.4066 7.43531 60.9329 6.92538 60.5398C6.58798 60.281 4.87039 58.8375 4.24144 55.9592C3.75117 53.712 7.05423 47.6464 8.29792 45.3621C8.51631 44.9592 8.67573 44.6687 8.74998 44.5148C9.23261 43.5277 10.4588 41.1298 11.4328 40.1962L11.6326 40.0041C12.6678 39.0028 14.82 36.9205 18.61 35.1101L18.527 34.9343C14.7075 36.7589 12.54 38.8565 11.4972 39.8643L11.2985 40.0565C10.3027 41.0108 9.06227 43.4327 8.57527 44.4296C8.50211 44.5792 8.34488 44.8686 8.12649 45.2693C6.87406 47.57 3.54589 53.6825 4.05254 56.0007C4.69459 58.9456 6.46022 60.4273 6.80745 60.6948C6.9767 60.8248 7.206 60.875 7.46042 60.875C8.10356 60.875 8.91049 60.5529 9.32105 60.3891C9.36582 60.3705 9.40513 60.3553 9.43789 60.3422C9.71305 60.5933 10.3245 60.5889 10.805 60.5387C11.7538 60.4371 12.9451 60.0637 13.1198 59.7143C13.2039 59.5461 13.2847 59.188 13.3863 58.7359C13.5817 57.8624 13.8503 56.6657 14.2773 56.3763L14.4869 56.2322C15.5166 55.5257 18.6482 53.3768 19.952 53.1475C22.2789 52.951 25.4432 51.8448 26.7077 49.3705C27.5201 47.7829 27.4687 45.8633 26.5614 43.6445C26.2764 42.9457 25.2827 41.56 25.2827 41.56Z" fill="#6D3218"/>
<path d="M8.66247 44.4722C8.20168 45.4156 4.41382 51.8656 4.11572 55.0726C4.61691 54.8247 5.12029 54.5495 5.50683 54.2809C5.66843 51.562 10.6858 46.3503 12.2068 44.3423C13.2868 42.9195 13.4855 39.8534 13.5106 38.1893C12.5028 39.005 11.8094 39.7016 11.3661 40.1264C10.3943 41.0578 9.1724 43.4283 8.66247 44.4722Z" fill="#FDE39E"/>
<path d="M13.4931 38.8576C13.5019 38.6184 13.5084 38.3924 13.5106 38.1893C12.5028 39.005 11.8094 39.7016 11.3661 40.1264C10.3943 41.0578 9.1724 43.4283 8.66247 44.4722C8.20168 45.4156 4.41382 51.8656 4.11572 55.0726C4.31773 54.9721 4.51864 54.8673 4.71409 54.7603C4.73157 54.4687 4.72283 54.1652 4.82656 53.8922C6.76909 48.8104 9.60808 42.9675 13.4931 38.8576Z" fill="white"/>
<path d="M4.23163 54.9055C4.57668 52.1975 7.17435 47.4247 8.29794 45.3621C8.51741 44.9592 8.67574 44.6687 8.74999 44.5148C9.23262 43.5277 10.4588 41.1298 11.4328 40.1962L11.6305 40.0062C12.0552 39.5957 12.6274 39.0421 13.4103 38.3978C13.4081 38.459 13.407 38.5234 13.4048 38.5878C13.4824 38.4666 13.5512 38.3411 13.6079 38.2068C13.6079 38.2024 13.6079 38.1969 13.6079 38.1915L13.6112 37.984L13.4496 38.1139C12.5772 38.8204 11.9253 39.4505 11.4951 39.8676L11.2985 40.0565C10.3027 41.0108 9.06228 43.4327 8.57528 44.4296C8.50322 44.5792 8.34489 44.8686 8.1276 45.2693C6.97344 47.3887 4.27094 52.3515 4.0187 55.0638L4.00342 55.2374L4.15847 55.1599C4.23381 55.1228 4.30697 55.0856 4.37795 55.0496C4.39105 54.9655 4.40743 54.8836 4.42927 54.8039C4.36484 54.8378 4.29933 54.8716 4.23163 54.9055Z" fill="#3A3930"/>
<path d="M11.1717 54.4261C10.5941 54.3388 9.65067 55.1872 9.26195 54.5724C8.87323 53.9566 6.7691 53.0339 5.73178 53.2818C5.13668 53.4238 4.59181 53.9228 4.23476 54.3235C4.09608 54.9765 4.0524 55.5464 4.1474 55.9799C4.72939 58.6508 6.23515 60.1314 6.86628 60.6173C7.49741 61.1032 9.12437 60.3509 9.46396 60.2286C9.94986 60.8357 12.7899 60.1565 13.0334 59.6706C13.2103 59.3168 13.4003 57.9301 13.7541 57.026C11.9022 56.658 12.553 54.6369 11.1717 54.4261Z" fill="#4B3125"/>
<path d="M13.0127 56.7159C12.0649 56.0302 12.3215 54.6019 11.1717 54.4261C10.5941 54.3388 9.65067 55.1872 9.26195 54.5724C8.87323 53.9566 6.7691 53.0339 5.73178 53.2818C5.13668 53.4238 4.59181 53.9228 4.23476 54.3235C4.09608 54.9765 4.0524 55.5464 4.1474 55.9799C4.72939 58.6508 6.23515 60.1314 6.86628 60.6173C7.49741 61.1032 8.87541 60.0692 9.14839 59.8322C10.0077 59.0875 10.3986 57.9891 10.7033 56.5193C11.0123 58.6442 10.5089 58.9598 10.7033 59.9316C10.8474 60.15 11.3999 60.0266 11.5583 60.0102C13.0651 59.8541 12.4624 58.2315 13.0127 56.7159Z" fill="#5D3F2C"/>
<path d="M4.82658 53.8922C4.83968 53.8365 4.85387 53.7819 4.86807 53.7262C4.62348 53.9151 4.40619 54.1302 4.23476 54.3235C4.09608 54.9765 4.0524 55.5464 4.1474 55.9799C4.71083 58.5656 6.13797 60.0342 6.80186 60.5649C5.24587 58.5896 4.35487 56.1339 4.82658 53.8922Z" fill="#7E5741"/>
<path d="M13.1961 58.6944C13.1011 59.1159 13.0203 59.4795 12.9461 59.6269C12.802 59.9141 11.3453 60.3716 10.3233 60.3716C9.92257 60.3716 9.64522 60.2996 9.5404 60.1685L9.49672 60.1139L9.4312 60.1369C9.38862 60.1532 9.32638 60.1773 9.24995 60.2078C8.8645 60.3618 8.06412 60.6817 7.4592 60.6817C7.22662 60.6817 7.04754 60.6348 6.92525 60.5398C6.58785 60.281 4.87026 58.8375 4.24131 55.9592C4.15723 55.5705 4.18453 55.0354 4.3243 54.3694C4.66934 53.985 5.19237 53.51 5.75471 53.3757C5.86172 53.3506 5.9862 53.3375 6.12269 53.3375C7.18513 53.3375 8.8514 54.104 9.18006 54.6238C9.29253 54.8039 9.46069 54.8946 9.67907 54.8946C9.90947 54.8946 10.1683 54.7952 10.4205 54.698C10.6836 54.5976 10.9533 54.4916 11.1564 54.5222C11.7472 54.6118 11.9328 55.0638 12.1479 55.5868C12.3947 56.1863 12.6742 56.8622 13.6231 57.0959C13.4451 57.5872 13.3075 58.1976 13.1961 58.6944ZM12.3281 55.5126C12.1097 54.9841 11.8847 54.4371 11.1859 54.33C10.9402 54.294 10.6389 54.4065 10.3506 54.5168C10.1158 54.6074 9.87343 54.7002 9.67907 54.7002C9.52839 54.7002 9.42138 54.6434 9.34385 54.52C8.98461 53.9511 7.25829 53.1431 6.12269 53.1431C5.97091 53.1431 5.83115 53.1584 5.70994 53.1868C5.08864 53.3342 4.52521 53.8518 4.1616 54.2591L4.14413 54.2776L4.13976 54.3027C3.98908 55.0092 3.96069 55.5803 4.05241 56.0007C4.69446 58.9456 6.46009 60.4273 6.80732 60.6948C6.96347 60.815 7.18294 60.8761 7.4592 60.8761C8.10125 60.8761 8.92565 60.5463 9.32092 60.3891C9.36569 60.3705 9.405 60.3553 9.43776 60.3422C9.60045 60.4907 9.89745 60.566 10.3233 60.566C11.3148 60.566 12.909 60.1369 13.1197 59.7143C13.2038 59.5461 13.2846 59.188 13.3861 58.7359C13.5041 58.2096 13.6515 57.5545 13.8447 57.0609L13.8862 56.9528L13.7727 56.9299C12.8347 56.7443 12.577 56.1175 12.3281 55.5126Z" fill="#34221A"/>
<path d="M10.286 59.3343C10.2642 59.3616 9.74004 60.0157 9.31201 60.1827L9.38299 60.364C9.85033 60.1816 10.3799 59.5287 10.4378 59.4555C10.571 59.2885 10.7031 56.5193 10.7031 56.5193C10.559 57.7849 10.3635 59.2022 10.286 59.3343Z" fill="#34221A"/>
<path d="M9.43213 52.2892C9.46489 52.2303 12.7188 46.4366 14.1743 45.3927C14.1743 45.3927 12.9514 46.1396 11.4467 48.4599C10.2969 50.2321 9.43213 52.2892 9.43213 52.2892Z" fill="#6D3218"/>
<path d="M14.1961 42.0121C14.1961 42.0121 14.23 39.5848 17.9938 40.7171C16.3822 39.2397 13.4646 39.0989 14.1961 42.0121Z" fill="#7B3E1A"/>
<path d="M16.233 40.3185C14.8768 40.3185 14.3822 41.0272 14.202 41.5273C14.1332 40.9835 14.2162 40.5467 14.4488 40.2497C14.748 39.8665 15.2241 39.7868 15.5713 39.7868C16.2101 39.7868 16.958 40.0587 17.5739 40.502C17.0792 40.3808 16.6305 40.3185 16.233 40.3185ZM15.5713 39.5924C15.0111 39.5924 14.57 39.778 14.2959 40.1307C13.9585 40.5631 13.893 41.2041 14.1016 42.0361L14.2796 42.7448L14.2937 42.0143C14.2948 41.9531 14.3429 40.5129 16.233 40.5129C16.7276 40.5129 17.3107 40.6134 17.9659 40.8099L18.3732 40.9333L18.0598 40.6461C17.3511 39.9964 16.3968 39.5924 15.5713 39.5924Z" fill="#371F16"/>
<path d="M51.6843 91.5962C51.4659 92.4457 49.6446 92.8344 49.3531 92.8344C49.3531 92.8344 49.0779 92.0253 48.7864 91.8637C48.4959 91.701 47.9772 91.8309 46.8591 92.4457C44.5432 91.5721 41.4705 88.6589 40.1111 87.0396C40.1111 87.0396 46.7794 81.8606 50.5989 78.6001C54.4185 75.3397 53.5133 72.6677 53.5133 72.6677L44.3521 69.8189C42.652 70.8868 41.2925 73.8972 40.8077 76.0341C40.3218 78.171 39.2539 81.6662 36.2675 84.3851C33.2811 87.1051 36.2435 88.9494 37.0198 89.29C37.7962 89.6296 41.1233 92.592 44.2789 95.4026C47.4356 98.2132 49.839 96.3788 50.9309 95.2377C53.4325 96.0872 60.1805 93.4415 59.0886 91.9117C56.2726 90.4551 51.9027 90.7467 51.6843 91.5962Z" fill="#EA772E"/>
<path d="M54.1597 91.9609C52.4126 92.3485 50.6645 92.7372 49.4994 94.291C49.1107 93.9023 48.7219 93.5136 48.3332 93.3203C47.7512 92.9316 46.9738 93.1259 46.585 93.9023C44.2549 91.3778 40.9529 90.0183 38.6217 87.2995C38.6217 87.2995 38.234 86.7164 37.651 86.9107C40.3698 83.2201 45.0312 81.6662 48.7219 78.9474C50.7442 77.5475 53.3866 75.5242 53.5613 72.8774C53.5373 72.7409 53.5133 72.6677 53.5133 72.6677L44.3521 69.8189C42.652 70.8868 41.2925 73.8972 40.8077 76.0341C40.3218 78.171 39.2539 81.6662 36.2675 84.3851C33.2811 87.1051 36.2435 88.9494 37.0198 89.29C37.7962 89.6296 41.1233 92.592 44.2789 95.4026C47.4356 98.2132 49.839 96.3788 50.9309 95.2377C52.6059 95.8066 56.183 94.8086 58.0382 93.6282C57.2848 92.3605 56.1437 91.5427 54.1597 91.9609Z" fill="#FBD0B6"/>
<path d="M54.1595 91.9609C52.4125 92.3485 50.6643 92.7372 49.4992 94.291C49.1105 93.9023 48.7218 93.5136 48.333 93.3203C47.7511 92.9316 46.9736 93.1259 46.5849 93.9023C44.2547 91.3778 40.9528 90.0183 38.6215 87.2995C38.6215 87.2995 38.2339 86.7164 37.6508 86.9107C40.3697 83.2201 45.0311 81.6662 48.7218 78.9474C50.744 77.5475 53.3865 75.5242 53.5612 72.8774C53.5371 72.7409 53.5131 72.6677 53.5131 72.6677L44.3519 69.8189C42.6518 70.8868 42.1506 74.2532 41.6647 76.3901C41.1799 78.5259 39.8281 81.9578 36.8417 84.6767C33.8553 87.3966 36.2433 88.9494 37.0197 89.29C37.796 89.6296 41.1231 92.592 44.2788 95.4026C47.4355 98.2132 49.8388 96.3788 50.9307 95.2377C52.6057 95.8066 56.1829 94.8086 58.038 93.6282C57.2846 92.3605 56.1435 91.5427 54.1595 91.9609Z" fill="#F79340"/>
<path d="M59.1539 91.8364L59.1332 91.8255C56.7331 90.584 53.286 90.5916 52.0575 91.1419C51.79 91.2609 51.6317 91.4062 51.5891 91.5721C51.4057 92.2884 49.8606 92.6892 49.4206 92.7329C49.3419 92.5199 49.1061 91.9292 48.8342 91.7785C48.4935 91.5896 47.9356 91.7468 46.8513 92.3387C44.6762 91.4979 41.7193 88.779 40.2506 87.0549C41.0193 86.4565 47.1101 81.7066 50.6621 78.6733C52.2355 77.3313 53.0184 76.0909 53.393 75.0885C53.9291 73.6516 53.4203 72.6983 53.4203 72.6983C53.429 72.7245 54.2632 75.3451 50.5365 78.5259C46.7617 81.7481 40.1185 86.9118 40.0519 86.9632L39.9722 87.0254L40.0366 87.1029C41.5041 88.8489 44.5801 91.6901 46.824 92.5363L46.8666 92.5527L46.9059 92.5308C47.9214 91.9729 48.4695 91.7982 48.7392 91.9489C48.927 92.0526 49.1596 92.5669 49.2611 92.8661L49.283 92.9316H49.3529C49.651 92.9316 51.5378 92.5538 51.778 91.6202C51.8042 91.5175 51.932 91.4105 52.1362 91.3188C53.3406 90.7794 56.755 90.8253 59.0229 91.9871C59.1692 92.2076 59.1332 92.4588 58.9137 92.7547C57.8469 94.1906 52.9944 95.8361 50.9624 95.146L50.9034 95.1263L50.8608 95.1711C49.4555 96.6386 47.1832 97.8583 44.3431 95.3294C41.1504 92.4872 37.8506 89.5466 37.0589 89.2005C36.4562 88.9373 35.2671 88.1424 35.0826 87.021C34.9472 86.1977 35.3676 85.3362 36.3317 84.4572C38.5887 82.4022 40.0836 79.6538 40.9014 76.0549C41.4233 73.7629 42.7926 70.913 44.4032 69.9008C44.4032 69.9008 43.4052 70.3769 42.7129 71.364C41.7793 72.695 41.0608 74.4803 40.7125 76.0123C39.9034 79.5709 38.4282 82.2865 36.2018 84.3142C35.1852 85.239 34.7441 86.1606 34.8915 87.0527C35.0891 88.256 36.3448 89.1 36.9803 89.3785C37.7436 89.7126 41.1809 92.7733 44.2143 95.4747C45.4536 96.5786 46.5881 96.9957 47.5971 96.9957C48.9718 96.9957 50.1117 96.2204 50.9591 95.3491C53.0785 96.0075 57.9834 94.3325 59.0699 92.8704C59.416 92.4042 59.3144 92.0613 59.167 91.8549L59.1539 91.8364Z" fill="#6D3218"/>
<path d="M51.5249 91.9019C51.0204 92.5396 49.6064 92.8344 49.3531 92.8344C49.3531 92.8344 49.0779 92.0253 48.7864 91.8637C48.4959 91.701 47.9772 91.8309 46.8591 92.4457C44.5432 91.5721 41.4705 88.6589 40.1111 87.0396C40.1111 87.0396 40.502 86.7371 41.144 86.2337C39.7103 84.158 37.8748 83.8621 36.7589 83.9134C36.6005 84.0728 36.4378 84.2301 36.2675 84.3851C33.2811 87.1051 36.2435 88.9493 37.0198 89.29C37.7962 89.6296 41.1233 92.592 44.2789 95.4026C47.4356 98.2132 49.839 96.3788 50.9309 95.2377C51.6264 95.4736 52.6485 95.4397 53.7393 95.2355C52.3351 94.326 51.7367 92.6783 51.5249 91.9019Z" fill="#DDBD79"/>
<path d="M49.4994 94.291C49.1107 93.9023 48.7219 93.5136 48.3332 93.3203C47.7512 92.9316 46.9738 93.126 46.585 93.9023C43.7067 91.2162 38.234 86.7164 37.651 86.9107C38.2493 86.0994 38.9405 85.3919 39.695 84.752C38.6195 84.0062 37.521 83.8785 36.7589 83.9134C36.6005 84.0728 36.4378 84.2301 36.2675 84.3851C33.2811 87.1051 36.2435 88.9494 37.0198 89.29C37.7962 89.6296 41.1233 92.592 44.2789 95.4026C47.4356 98.2132 49.839 96.3788 50.9309 95.2377C51.6264 95.4736 52.6485 95.4397 53.7393 95.2355C52.6878 94.5553 52.0883 93.4601 51.7651 92.6269C50.9036 92.9698 50.1185 93.4644 49.4994 94.291Z" fill="white"/>
<path d="M49.4994 94.291C49.1107 93.9023 48.722 93.5136 48.3332 93.3203C47.7512 92.9316 46.9738 93.1259 46.5851 93.9023C43.7068 91.2162 38.2341 86.7164 37.651 86.9107C38.2494 86.0994 38.9405 85.3919 39.6951 84.752C38.6195 84.0062 38.3531 83.9101 37.5909 83.9451C35.1592 85.5993 34.9616 87.8498 37.2557 88.7473C38.0452 89.0564 41.1233 92.592 44.2789 95.4026C47.4357 98.2132 49.839 96.3788 50.9309 95.2377C51.6265 95.4736 52.6485 95.4397 53.7393 95.2355C52.6878 94.5553 52.0883 93.4601 51.7651 92.6269C50.9036 92.9698 50.1185 93.4644 49.4994 94.291Z" fill="#FDE39E"/>
<path d="M53.7926 95.1536C52.3906 94.2473 51.8053 92.5592 51.6186 91.8768L51.5684 91.6911L51.4483 91.8418C51.0071 92.3987 49.7951 92.6957 49.4195 92.7328C49.3419 92.5199 49.1061 91.9292 48.8342 91.7785C48.4881 91.5874 47.9497 91.7392 46.8513 92.3387C44.6762 91.4979 41.7193 88.779 40.2506 87.0549C40.386 86.9489 40.7955 86.6301 41.2192 86.2971C41.1667 86.2578 41.1056 86.2163 41.0881 86.154C40.4941 86.6192 40.0519 86.9631 40.0519 86.9631L39.9722 87.0254L40.0366 87.1029C41.5031 88.8489 44.5801 91.6901 46.824 92.5363L46.8666 92.5527L46.9059 92.5308C47.9235 91.9718 48.463 91.7949 48.7392 91.9488C48.927 92.0526 49.1596 92.5669 49.2611 92.8661L49.283 92.9316H49.3529C49.6258 92.9316 50.8848 92.6619 51.4788 92.0952C51.7343 92.9501 52.3043 94.3139 53.4891 95.1809C52.4364 95.3567 51.5476 95.3447 50.9624 95.146L50.9034 95.1263L50.8608 95.1711C48.8648 97.2556 46.5914 97.332 44.3431 95.3294C41.1504 92.4872 37.8506 89.5466 37.0589 89.2005C36.4562 88.9373 35.2671 88.1424 35.0826 87.021C34.9472 86.1977 35.3676 85.3362 36.3328 84.4572C36.4617 84.3393 36.7718 84.0368 36.9017 83.9079C36.8537 83.873 36.7991 83.9189 36.6833 83.8512C36.5195 84.016 36.3623 84.1678 36.2018 84.3141C35.1852 85.239 34.7441 86.1606 34.8915 87.0527C35.0891 88.256 36.3448 89.1 36.9803 89.3785C37.7436 89.7126 41.1809 92.7732 44.2143 95.4746C45.3401 96.477 46.4767 96.9848 47.5949 96.9848C48.772 96.9848 49.9032 96.4344 50.9591 95.3491C51.279 95.4484 51.6721 95.4987 52.1274 95.4987C52.6122 95.4987 53.1615 95.443 53.7577 95.3305L53.9968 95.2857L53.7926 95.1536Z" fill="#3A3930"/>
<path d="M51.6843 91.5961C51.6559 91.7053 51.6002 91.8069 51.5249 91.9019C51.7367 92.6782 52.3351 94.3259 53.7393 95.2355C56.5761 94.7037 59.8781 93.0167 59.0886 91.9117C56.2726 90.4551 51.9027 90.7466 51.6843 91.5961Z" fill="#3E3D3E"/>
<path d="M54.1597 91.9608C53.3419 92.1421 52.524 92.3255 51.7651 92.6269C52.0883 93.4601 52.6878 94.5552 53.7393 95.2355C55.2778 94.9472 56.9518 94.3183 58.0371 93.6271C59.7929 92.3485 56.1437 91.5426 54.1597 91.9608Z" fill="#535456"/>
<path d="M59.0613 92.5014C58.6835 93.4404 56.2114 94.6655 53.76 95.1329C52.4126 94.2408 51.8295 92.6269 51.6319 91.9226C51.7018 91.8244 51.752 91.7228 51.7782 91.6202C51.8568 91.3133 52.7991 90.9858 54.389 90.9858C56.0945 90.9858 57.7816 91.3505 59.0231 91.9871C59.1246 92.1421 59.1377 92.3103 59.0613 92.5014ZM59.1541 91.8364L59.1334 91.8255C57.8635 91.1692 56.1339 90.7914 54.389 90.7914C53.19 90.7914 51.7378 90.9967 51.5893 91.5721C51.5664 91.6617 51.5194 91.7534 51.4484 91.8418L51.4189 91.8801L51.431 91.9281C51.6701 92.8027 52.2816 94.4078 53.6869 95.3174L53.7196 95.3382L53.7578 95.3305C56.0421 94.9025 58.7905 93.6926 59.2415 92.5734C59.3463 92.3125 59.3212 92.0711 59.1672 91.8549L59.1541 91.8364Z" fill="#161411"/>
<mask id="mask1_25_100" style="mask-type:alpha" maskUnits="userSpaceOnUse" x="68" y="50" width="21" height="53">
<path d="M68.8511 50.7169H88.9773V102.554H68.8511V50.7169Z" fill="black"/>
</mask>
<g mask="url(#mask1_25_100)">
<path d="M88.0843 78.397C86.6921 77.7823 83.8761 73.2497 84.4264 72.148C84.9767 71.0462 87.178 68.1024 87.5984 64.2185C88.0199 60.3345 85.7454 56.7574 81.6911 53.5035C77.6368 50.2506 72.9514 50.7846 70.6267 51.2694L71.2524 61.8556C69.5686 63.9924 68.1448 69.8833 69.9574 74.3504C71.7699 78.8174 82.8082 81.1487 83.1325 81.9611C83.4557 82.7745 81.6103 87.3311 77.758 91.2478C73.9068 95.1656 76.5438 97.7873 78.5835 98.6609C79.1666 99.6327 84.2888 103.298 84.7747 102.278C85.2606 101.259 83.8029 97.8354 83.0265 96.5971C82.2502 95.3589 81.5459 96.0872 80.8897 96.4279C80.6713 96.3067 80.2105 95.8688 80.0893 95.5293C79.9681 95.1897 80.7936 95.0674 81.2052 94.7518C81.618 94.4362 81.3024 93.9023 81.3996 92.7372C81.4968 91.5721 88.2787 82.6381 88.5702 81.9611C88.8618 81.2852 89.4765 79.0118 88.0843 78.397Z" fill="#EA772E"/>
</g>
<path d="M80.7685 93.3203C81.1572 92.7372 80.3797 92.3485 80.5741 91.7665C83.0997 88.0758 87.5667 84.5795 86.0129 80.3068C85.2355 78.3643 83.3585 74.8232 81.7403 73.3153C87.178 67.8764 86.4006 59.1367 81.3515 54.0865C80.4321 53.0962 79.3566 52.2357 78.1751 51.5686C75.18 50.5487 72.2952 50.9222 70.6267 51.2694L70.2325 55.7419L71.2524 61.8556C69.5686 63.9924 68.1448 69.8833 69.9574 74.3504C71.7699 78.8174 82.8082 81.1487 83.1325 81.9611C83.4557 82.7745 81.6103 87.3311 77.758 91.2478C73.9068 95.1656 76.5438 97.7873 78.5835 98.6609C79.0126 99.375 81.8964 101.547 83.5856 102.239C82.2764 99.2975 79.9037 96.9215 77.6609 94.6797C78.827 94.6797 79.9921 94.4854 80.7685 93.3203Z" fill="#F79340"/>
<mask id="mask2_25_100" style="mask-type:alpha" maskUnits="userSpaceOnUse" x="68" y="50" width="22" height="53">
<path d="M68.8511 50.7169H89.2569V102.554H68.8511V50.7169Z" fill="black"/>
</mask>
<g mask="url(#mask2_25_100)">
<path d="M88.1234 78.3086C87.1679 77.886 85.3302 75.3277 84.674 73.5052C84.3912 72.7202 84.4305 72.3576 84.5135 72.1917C84.6172 71.9842 84.7788 71.7134 84.983 71.3695C85.8118 69.9794 87.3525 67.3916 87.6953 64.2294C88.0939 60.5464 86.0946 56.9124 81.752 53.4281C78.7885 51.051 74.9352 50.2714 70.6057 51.1755L70.6461 51.3644C74.9155 50.4745 78.7143 51.2399 81.6308 53.5799C85.9177 57.0205 87.893 60.5966 87.5021 64.2086C87.1636 67.3283 85.6938 69.796 84.8159 71.2701C84.6096 71.6173 84.4458 71.8903 84.3399 72.1054C84.1946 72.3959 84.2449 72.8883 84.4905 73.5708C85.1173 75.308 86.9528 78.0029 88.0447 78.4855C89.3823 79.0762 88.7294 81.3474 88.4804 81.9229C88.3865 82.1423 87.501 83.3773 86.4757 84.8077C84.3213 87.8149 81.3687 91.9314 81.3032 92.7296C81.2639 93.1915 81.289 93.554 81.3098 93.8444C81.3425 94.3096 81.348 94.5214 81.146 94.6754C81.0019 94.7857 80.7999 94.873 80.6044 94.956C80.2528 95.1067 79.8903 95.2628 79.9973 95.562C80.1305 95.9344 80.6197 96.3886 80.8424 96.512L80.8883 96.5382L80.9342 96.5142C81.0357 96.4618 81.1384 96.3995 81.241 96.3373C81.8044 95.9988 82.3362 95.6799 82.9444 96.6485C83.8015 98.0145 85.126 101.314 84.6871 102.237C84.674 102.264 84.6336 102.349 84.448 102.358C83.2064 102.412 79.1543 99.4241 78.6662 98.6117L78.651 98.5845L78.6215 98.5713C77.511 98.0953 76.2236 97.0798 75.943 95.6559C75.6788 94.3161 76.3132 92.8562 77.8277 91.3166C81.8055 87.2711 83.5504 82.7505 83.2217 81.9261C83.1136 81.6532 82.2707 81.3409 80.528 80.7152C77.0764 79.477 71.3002 77.4034 70.0466 74.3144C68.2854 69.974 69.6284 64.0722 71.3275 61.9156C71.3275 61.9156 70.2803 63.2139 69.9243 64.2054C68.9154 67.0105 68.5256 71.0834 69.8665 74.3875C71.1528 77.5574 76.9803 79.6484 80.4614 80.8975C81.7466 81.3594 82.9608 81.7951 83.0416 81.9971C83.3473 82.7658 81.5456 87.2591 77.689 91.1801C76.1264 92.7678 75.4757 94.2867 75.753 95.6941C76.1177 97.5482 77.9248 98.4796 78.5167 98.7384C79.091 99.6185 83.0569 102.554 84.4152 102.554C84.4294 102.554 84.4436 102.552 84.4567 102.552C84.7067 102.54 84.8148 102.419 84.8618 102.32C85.3859 101.22 83.8518 97.7306 83.1093 96.5458C82.3995 95.4146 81.7018 95.8339 81.1416 96.1713C81.0576 96.2215 80.9746 96.2718 80.8927 96.3165C80.6787 96.1746 80.2845 95.787 80.1796 95.4965C80.1382 95.3786 80.3511 95.277 80.6808 95.1351C80.8872 95.0466 81.1012 94.9549 81.2639 94.8293C81.5577 94.6055 81.5358 94.2976 81.5041 93.8313C81.4834 93.5474 81.4594 93.1926 81.4965 92.746C81.5587 92.0013 84.6128 87.7406 86.6329 84.9213C87.7499 83.3642 88.5558 82.2384 88.6595 82.0004C88.9838 81.247 89.5822 78.9528 88.1234 78.3086Z" fill="#6D3218"/>
</g>
<path d="M88.0845 78.397C88.0189 78.3686 87.9491 78.3282 87.8781 78.2824C87.0897 79.3066 85.4344 81.0886 83.0223 81.8409C83.0791 81.8835 83.1173 81.925 83.1326 81.9611C83.4558 82.7745 81.6105 87.3311 77.7582 91.2478C73.907 95.1656 76.544 97.7873 78.5837 98.6609C78.7005 98.8552 78.9986 99.1566 79.4037 99.506C79.5631 98.199 80.3242 97.0514 80.8461 96.3995C80.6157 96.251 80.203 95.8492 80.0894 95.5292C79.9682 95.1897 80.7937 95.0674 81.2054 94.7518C81.6181 94.4362 81.3025 93.9023 81.3997 92.7372C81.4969 91.5721 88.2788 82.638 88.5704 81.9611C88.8619 81.2852 89.4767 79.0118 88.0845 78.397Z" fill="#DDBD79"/>
<path d="M80.5742 91.7665C83.0998 88.0758 87.5669 84.5795 86.0131 80.3068C86.0022 80.2806 85.9912 80.2522 85.9803 80.226C85.1799 80.8702 84.1907 81.4763 83.0223 81.841C83.0791 81.8835 83.1173 81.925 83.1326 81.9611C83.4558 82.7746 81.6105 87.3311 77.7582 91.2478C73.907 95.1657 76.544 97.7874 78.5837 98.6609C78.7005 98.8552 78.9986 99.1566 79.4037 99.506C79.5042 98.6849 80.1276 97.4598 80.4934 96.8483C79.49 96.4443 79.2901 95.8547 78.4384 95.003C79.6035 95.003 81.32 93.9951 80.5742 91.7665Z" fill="#FDE39E"/>
<path d="M88.1235 78.3086C88.07 78.2846 88.0066 78.2486 87.9302 78.2005L87.8549 78.1525L87.8003 78.2234C87.7894 78.2376 87.7359 78.2824 87.7238 78.2977C87.7861 78.3272 87.8538 78.3927 87.9095 78.4156C87.9586 78.444 88.0034 78.4669 88.0449 78.4855C89.3825 79.0762 88.7295 81.3474 88.4805 81.9229C88.3866 82.1423 87.5011 83.3773 86.4758 84.8077C84.3214 87.8149 81.3689 91.9314 81.3034 92.7296C81.264 93.1915 81.2892 93.554 81.3099 93.8444C81.3427 94.3096 81.3481 94.5214 81.1461 94.6754C81.002 94.7857 80.8 94.873 80.6045 94.956C80.2529 95.1067 79.8904 95.2628 79.9974 95.562C80.1055 95.8656 80.456 96.2303 80.7061 96.4192C80.1656 97.1115 79.5246 98.1411 79.3324 99.315C78.9939 99.0136 78.7603 98.7668 78.6664 98.6107L78.6511 98.5845L78.6216 98.5714C77.5111 98.0953 76.2237 97.0798 75.9431 95.6559C75.6789 94.3161 76.3133 92.8563 77.8278 91.3166C81.8056 87.2711 83.5505 82.7505 83.2219 81.9261C83.2164 81.9119 83.2098 81.8988 83.2011 81.8846C83.2175 81.8792 83.1531 81.8104 83.1694 81.8049C83.0886 81.7427 83.0755 81.7776 83.0395 81.7667L82.8124 81.8049L82.9631 81.9185C83.0253 81.9654 83.0384 81.9906 83.0417 81.9971C83.3474 82.7658 81.5458 87.2591 77.6891 91.1802C76.1266 92.7678 75.4758 94.2867 75.7531 95.6942C76.1178 97.5482 77.925 98.4796 78.5168 98.7384C78.6762 98.9841 79.0496 99.3292 79.3401 99.5792L79.4777 99.6993L79.4995 99.5181C79.6524 98.2689 80.3578 97.1661 80.9223 96.4596L80.99 96.3755L80.8983 96.3176C80.6744 96.1735 80.2824 95.7815 80.1798 95.4965C80.1383 95.3786 80.3512 95.277 80.681 95.1351C80.8873 95.0466 81.1014 94.9549 81.264 94.8294C81.5578 94.6055 81.5359 94.2976 81.5043 93.8313C81.4835 93.5474 81.4595 93.1926 81.4966 92.746C81.5589 92.0013 84.613 87.7406 86.633 84.9213C87.75 83.3642 88.5559 82.2384 88.6596 82.0004C88.9839 81.247 89.5823 78.9528 88.1235 78.3086Z" fill="#3A3930"/>
<path d="M19.4668 37.9414C17.8879 37.9414 16.5525 36.8812 16.9172 34.729C15.8001 32.2602 14.1492 30.3908 14.1492 30.3908C14.1492 30.3908 7.64241 36.8331 13.114 38.5158C13.8587 37.9338 14.1492 37.723 14.1492 37.723C14.5379 38.5966 16.4072 39.9331 18.3498 39.6415C20.2923 39.35 21.5742 38.9373 22.0492 40.1264C22.0394 38.4273 21.0446 37.9414 19.4668 37.9414Z" fill="#623017"/>
<path d="M14.49 30.8811C13.2016 32.151 12.2789 33.8708 12.0135 35.6353C11.8334 33.6535 12.9897 31.8398 14.2443 30.5011C14.1832 30.429 14.1493 30.3908 14.1493 30.3908C14.1493 30.3908 8.94962 35.5403 11.758 37.8344C13.0891 38.2788 12.2505 36.5208 12.2789 36.5722C12.5442 37.0624 13.0509 37.4337 13.4046 37.2055C13.9823 36.8331 11.7384 35.1341 14.7401 31.1246C14.6069 30.9499 14.5828 30.9968 14.49 30.8811Z" fill="#A96537"/>
<path d="M14.4898 30.8811C13.2014 32.151 12.2787 33.8708 12.0134 35.6353C11.8332 33.6535 12.9895 31.8398 14.2442 30.5011C14.183 30.429 14.1492 30.3908 14.1492 30.3908C14.1492 30.3908 9.75528 35.4901 11.7579 37.8344C13.0889 38.2788 12.2503 36.5208 12.2787 36.5722C12.544 37.0624 13.0507 37.4337 13.4045 37.2055C13.9821 36.8331 11.7382 35.1341 14.7399 31.1246C14.6067 30.9499 14.5827 30.9968 14.4898 30.8811Z" fill="#7B3E1A"/>
<path d="M12.2791 36.5722C12.2562 36.5143 12.2321 36.4597 12.207 36.4117C12.2256 36.4673 12.2507 36.5208 12.2791 36.5722Z" fill="#7B3E1A"/>
<path d="M22.0416 39.9495C22.0067 39.8632 21.9652 39.7846 21.9182 39.7136C20.5588 37.7722 17.4512 39.1316 16.2861 37.1891C15.6626 36.0983 15.6659 34.634 16.2927 33.4951C16.2272 33.3772 16.1616 33.2626 16.0961 33.1501C14.8524 34.5521 14.5936 37.1225 16.2861 38.3542C14.538 37.9665 13.6841 34.6318 15.7773 32.6249C15.7107 32.5201 15.6452 32.4163 15.5797 32.317C13.861 33.2735 13.3314 35.881 14.0706 37.7809C14.1219 37.7427 14.1492 37.723 14.1492 37.723C14.538 38.5966 16.4073 39.9331 18.3499 39.6415C20.2924 39.35 21.5743 38.9373 22.0493 40.1264C22.0493 40.0652 22.0449 40.0084 22.0416 39.9495Z" fill="#A96537"/>
<path d="M22.042 39.9495C22.0071 39.8632 21.9656 39.7846 21.9186 39.7136C20.5592 37.7722 17.4516 39.1316 16.2865 37.1891C15.663 36.0983 15.6663 34.634 16.293 33.4951C16.2275 33.3772 16.162 33.2626 16.0965 33.1501C14.8528 34.5521 14.594 37.1225 16.2865 38.3542C14.5383 37.9665 13.6844 34.6318 15.7777 32.6249C15.7111 32.5201 15.6455 32.4163 15.58 32.317C13.8613 33.2735 13.7369 36.1933 14.356 37.4195C14.9751 38.6457 16.3738 39.4712 18.3153 39.1797C20.2578 38.8881 21.5747 38.9373 22.0496 40.1264C22.0496 40.0652 22.0453 40.0084 22.042 39.9495Z" fill="#7B3E1A"/>
<path d="M20.703 39.231C20.251 39.231 19.7127 39.3205 19.0892 39.4243C18.85 39.4636 18.5989 39.5051 18.3357 39.5455C18.1599 39.5717 17.9787 39.5848 17.7974 39.5848C16.141 39.5848 14.5828 38.459 14.2389 37.6837L14.1897 37.5745L14.0925 37.6444C14.0904 37.6466 13.8021 37.8541 13.0934 38.4088C11.9644 38.0495 11.2896 37.4533 11.0876 36.6322C10.5351 34.3818 13.6252 31.0722 14.145 30.5349C14.4649 30.9138 15.8473 32.6096 16.8169 34.7421C16.6575 35.7227 16.8365 36.5536 17.3377 37.1465C17.8247 37.722 18.5803 38.0386 19.467 38.0386C21.0273 38.0386 21.7862 38.5442 21.9282 39.7136C21.6672 39.3828 21.2741 39.231 20.703 39.231ZM19.467 37.8443C18.6382 37.8443 17.935 37.5516 17.4862 37.0209C17.0189 36.4673 16.8551 35.6801 17.0134 34.7454L17.0178 34.7159L17.0058 34.6886C15.8953 32.2362 14.2389 30.346 14.2225 30.3264L14.1548 30.25L14.0816 30.322C13.9255 30.476 10.273 34.1295 10.8987 36.6781C11.1214 37.5811 11.8563 38.2308 13.0847 38.6086L13.1338 38.6239L13.1731 38.5922C13.6787 38.1969 13.9768 37.972 14.1144 37.8694C14.5697 38.7003 16.1115 39.7791 17.7974 39.7791C17.9885 39.7791 18.1785 39.7649 18.3641 39.7376C18.6284 39.6972 18.8806 39.6557 19.1208 39.6153C19.7356 39.5138 20.2663 39.4254 20.703 39.4254C21.3767 39.4254 21.7534 39.6459 21.9598 40.1624L22.1498 40.6385L22.1465 40.1264C22.1356 38.1041 20.7085 37.8443 19.467 37.8443Z" fill="#371F16"/>
<path d="M13.9046 34.6122C13.9046 34.6122 13.2899 36.5667 14.1132 37.8683L14.1896 37.5745C13.4089 36.3407 13.9002 34.6307 13.9046 34.6122Z" fill="#371F16"/>
<path d="M12.9363 25.1955C10.925 28.4002 17.5595 36.7032 17.5595 36.7032H20.9783C19.9279 34.1055 20.9783 31.4107 18.2933 27.8663C16.9382 26.0777 14.1964 24.7106 12.9363 25.1955Z" fill="#EA772E"/>
<path d="M12.9297 25.2053C10.938 28.4177 17.5594 36.7032 17.5594 36.7032H20.9782C20.8712 36.44 20.7872 36.1747 20.7184 35.9083C19.5424 33.8129 19.3349 31.3561 18.2211 29.1285C17.3181 27.1402 15.2959 25.535 12.9297 25.2053Z" fill="#FBD0B6"/>
<path d="M12.9296 25.2053C12.0943 28.659 17.5594 36.7032 17.5594 36.7032H20.9782C20.8712 36.44 20.7871 36.1747 20.7183 35.9083C19.5423 33.8129 19.3348 31.3561 18.2211 29.1285C17.3181 27.1402 15.2958 25.535 12.9296 25.2053Z" fill="#F79340"/>
<path d="M18.3705 27.8073C16.9729 25.9631 14.2125 24.6004 12.9011 25.1048L12.8705 25.1168L12.853 25.1441C10.8286 28.3697 17.2109 36.4226 17.4828 36.7643C17.4828 36.7643 17.3386 36.2686 16.9128 35.6844C15.2673 33.4242 11.4947 27.7636 13.0005 25.2752C14.2354 24.8384 16.8986 26.1858 18.2155 27.9253C19.8992 30.1484 20.0957 31.9937 20.2857 33.779C20.3436 34.3217 20.3993 34.848 20.4965 35.3667C20.5838 35.8286 21.0676 36.6672 21.0676 36.6672C20.6876 35.727 20.586 34.7705 20.479 33.7583C20.2956 32.0309 20.087 30.0741 18.3705 27.8073Z" fill="#6D3218"/>
<path d="M14.1965 26.96C13.2706 30.2936 17.7431 35.2586 17.7431 35.2586C18.099 31.1093 16.2537 27.9962 14.1965 26.96Z" fill="#3C2216"/>
<path d="M14.8429 27.3607C14.6311 27.2057 14.4149 27.0703 14.1965 26.96C13.2706 30.2936 17.7431 35.2586 17.7431 35.2586C17.7649 34.9987 17.7791 34.7432 17.7846 34.491C16.2657 32.3912 15.2448 29.9737 14.8429 27.3607Z" fill="#572F17"/>
<path d="M17.6645 35.0195C16.9045 34.1252 13.5764 29.9966 14.2599 27.103C16.1249 28.1131 17.9353 30.9739 17.6645 35.0195ZM14.2402 26.8726L14.1343 26.8202L14.1027 26.9338C13.1734 30.2805 17.4865 35.1199 17.6711 35.3241L17.8206 35.4901L17.8403 35.2673C18.2116 30.9324 16.2341 27.8772 14.2402 26.8726Z" fill="#6D3218"/>
<path d="M17.6455 35.2586C17.6455 35.8613 18.3149 36.297 18.3149 36.297C18.3105 36.2915 17.8399 35.7827 17.8399 35.2586H17.6455Z" fill="#6D3218"/>
<path d="M13.1382 26.4708C13.148 26.4741 14.1144 27.0091 14.3393 27.1467L14.4408 26.9818C14.0696 26.746 13.1382 26.4708 13.1382 26.4708Z" fill="#6D3218"/>
<path d="M8.43425 56.5051C8.79677 57.2728 8.70396 58.0786 8.2246 58.3046C7.74634 58.5307 7.06389 58.0928 6.70138 57.3252C6.33777 56.5576 6.43058 55.7517 6.90993 55.5246C7.38819 55.2986 8.07064 55.7375 8.43425 56.5051Z" fill="#4B3125"/>
<path d="M6.96335 55.6403C6.91749 55.6174 6.87163 55.5945 6.82577 55.5726C6.42176 55.8489 6.35952 56.6034 6.70129 57.3252C7.06381 58.0928 7.74626 58.5307 8.22452 58.3046C8.26928 58.2839 8.30969 58.2566 8.34681 58.226C8.27693 57.2498 7.84125 56.3228 6.96335 55.6403Z" fill="#36251D"/>
<path d="M7.18181 55.5628C7.09882 55.5628 7.02129 55.5792 6.95141 55.6131C6.52119 55.8151 6.44913 56.5652 6.78871 57.2837C7.06279 57.8624 7.54105 58.2675 7.9527 58.2675C8.03569 58.2675 8.11321 58.25 8.1831 58.2173C8.38401 58.1223 8.51286 57.9017 8.54889 57.5971C8.58601 57.275 8.51395 56.9015 8.34579 56.5467C8.07172 55.9668 7.59346 55.5628 7.18181 55.5628ZM7.9527 58.4619C7.46134 58.4619 6.92302 58.0218 6.61292 57.3667C6.22747 56.551 6.34212 55.6862 6.86843 55.4373C6.96451 55.3914 7.07043 55.3685 7.18181 55.3685C7.67317 55.3685 8.21149 55.8085 8.52159 56.4637C8.70503 56.8513 8.78256 57.2608 8.74216 57.6189C8.69848 57.9934 8.52923 58.2686 8.26717 58.3931C8.16999 58.4379 8.06408 58.4619 7.9527 58.4619Z" fill="#34221A"/>
<path d="M29.3479 90.8919C29.1644 90.953 28.9865 91.012 28.8139 91.0677C28.6567 92.0089 28.4733 93.7003 28.8205 95.2453C30.9006 95.8153 33.2264 96.0654 34.9964 95.6952C34.8675 93.1259 30.8045 90.4071 29.3479 90.8919Z" fill="#3E3D3E"/>
<path d="M28.6709 92.2033C28.5934 93.1019 28.5868 94.2059 28.8205 95.2454C30.3077 95.6526 31.9205 95.895 33.3662 95.8656C35.9027 95.6996 30.1243 92.0919 28.6709 92.2033Z" fill="#535456"/>
<path d="M33.1313 95.7728C31.8276 95.7728 30.3666 95.5631 28.9034 95.1667C28.5791 93.6664 28.756 92.0275 28.9001 91.1419C29.0552 91.0917 29.2146 91.0382 29.3784 90.9847C29.481 90.9497 29.6022 90.9323 29.7387 90.9323C31.4279 90.9323 34.7048 93.3967 34.8937 95.6177C34.3663 95.7203 33.7745 95.7728 33.1313 95.7728ZM29.7387 90.7379C29.5815 90.7379 29.4395 90.7587 29.3172 90.8002C29.1338 90.8613 28.9558 90.9203 28.7833 90.976L28.7276 90.9945L28.7178 91.0524C28.5682 91.9467 28.3705 93.685 28.7265 95.2661L28.7385 95.3229L28.7953 95.3393C30.2945 95.7498 31.7937 95.9671 33.1313 95.9671C33.8214 95.9671 34.4558 95.9082 35.016 95.7902L35.0979 95.7738L35.0935 95.6909C34.9723 93.2843 31.524 90.7379 29.7387 90.7379Z" fill="#161411"/>
<mask id="mask3_25_100" style="mask-type:alpha" maskUnits="userSpaceOnUse" x="79" y="95" width="7" height="8">
<path d="M79.1938 95.7214H85.064V102.554H79.1938V95.7214Z" fill="black"/>
</mask>
<g mask="url(#mask3_25_100)">
<path d="M80.8894 96.4279C80.8774 96.4203 80.861 96.4083 80.8457 96.3995C80.3238 97.0514 79.5627 98.199 79.4033 99.506C81.027 100.909 84.3857 103.095 84.7745 102.278C85.2604 101.259 83.8027 97.8354 83.0263 96.5972C82.25 95.3589 81.5457 96.0872 80.8894 96.4279Z" fill="#3E3D3E"/>
</g>
<path d="M79.4038 99.506C80.4914 100.446 82.3553 101.735 83.5859 102.24C84.253 100.762 83.1469 96.9924 80.4935 96.8483C80.1278 97.4598 79.5043 98.6849 79.4038 99.506Z" fill="#535456"/>
<mask id="mask4_25_100" style="mask-type:alpha" maskUnits="userSpaceOnUse" x="79" y="95" width="7" height="8">
<path d="M79.1938 95.7214H85.064V102.554H79.1938V95.7214Z" fill="black"/>
</mask>
<g mask="url(#mask4_25_100)">
<path d="M84.6872 102.237C84.6719 102.267 84.6283 102.359 84.4142 102.359C83.4708 102.359 80.8972 100.658 79.5061 99.4667C79.6666 98.2765 80.3217 97.2239 80.8688 96.5273L80.8884 96.5382L80.9343 96.5142C81.0358 96.4618 81.1385 96.3995 81.2411 96.3373C81.5174 96.1713 81.8013 96.001 82.083 96.001C82.3887 96.001 82.6704 96.2128 82.9445 96.6485C83.8017 98.0145 85.1262 101.314 84.6872 102.237ZM82.083 95.8066C81.7478 95.8066 81.4399 95.9922 81.1418 96.1713C81.0588 96.2215 80.9758 96.2707 80.895 96.3154L80.8251 96.2707L80.7705 96.3384C80.1896 97.0634 79.4646 98.2001 79.3073 99.494L79.3008 99.5464L79.3401 99.5792C80.7771 100.821 83.4031 102.554 84.4142 102.554C84.6927 102.554 84.8117 102.427 84.8619 102.32C85.386 101.22 83.8519 97.7306 83.1094 96.5458C82.7971 96.049 82.4608 95.8066 82.083 95.8066Z" fill="#161411"/>
</g>
<path d="M17.7594 41.9564C16.4797 41.9564 15.4424 43.0003 15.4424 44.2888C15.4424 45.5772 16.4797 46.6222 17.7594 46.6222C19.0381 46.6222 20.0754 45.5772 20.0754 44.2888C20.0754 43.0003 19.0381 41.9564 17.7594 41.9564Z" fill="#100F0D"/>
<path d="M17.7592 42.3157C16.569 42.3157 15.606 43.2787 15.606 44.4689C15.606 45.658 16.569 46.6222 17.7592 46.6222C18.9483 46.6222 19.9125 45.658 19.9125 44.4689C19.9125 43.2787 18.9483 42.3157 17.7592 42.3157Z" fill="#C6C3C1"/>
<path d="M17.7592 42.3157C16.569 42.3157 15.606 43.2787 15.606 44.4689C15.606 44.7703 15.6682 45.0575 15.7807 45.3173C16.1683 45.6951 16.6968 45.9277 17.2799 45.9277C18.4701 45.9277 19.4331 44.9647 19.4331 43.7745C19.4331 43.4731 19.3709 43.1859 19.2595 42.926C18.8708 42.5482 18.3423 42.3157 17.7592 42.3157Z" fill="white"/>
<path d="M19.0403 45.0673C19.0752 45.6799 18.6941 46.1909 18.1886 46.2073C17.683 46.2247 17.2452 45.741 17.2102 45.1284C17.1753 44.5159 17.5564 44.0049 18.0619 43.9885C18.5675 43.971 19.0053 44.4536 19.0403 45.0673Z" fill="#293F9C"/>
<path d="M19.04 45.0673C19.075 45.6799 18.6939 46.1909 18.1883 46.2073C17.6828 46.2247 17.2449 45.741 17.21 45.1284C17.7264 45.7432 18.7288 45.6766 19.04 45.0673Z" fill="#4867BA"/>
<path d="M18.589 45.0815C18.6065 45.3927 18.4132 45.6526 18.1566 45.6602C17.9 45.6689 17.6784 45.4244 17.6609 45.1132C17.6423 44.802 17.8367 44.5432 18.0922 44.5344C18.3488 44.5257 18.5716 44.7714 18.589 45.0815Z" fill="#141519"/>
<path d="M18.0464 44.577C18.0464 44.7594 17.8979 44.9079 17.7155 44.9079C17.5332 44.9079 17.3857 44.7594 17.3857 44.577C17.3857 44.3947 17.5332 44.2473 17.7155 44.2473C17.8979 44.2473 18.0464 44.3947 18.0464 44.577Z" fill="white"/>
<path d="M17.8806 45.1525C17.8806 45.2617 17.7922 45.3501 17.683 45.3501C17.5738 45.3501 17.4854 45.2617 17.4854 45.1525C17.4854 45.0433 17.5738 44.9548 17.683 44.9548C17.7922 44.9548 17.8806 45.0433 17.8806 45.1525Z" fill="white"/>
<path d="M18.1919 44.0169C18.1493 44.0114 18.1056 44.0092 18.0631 44.0103C17.8294 44.018 17.6143 44.137 17.4581 44.3466C17.3009 44.5574 17.2223 44.8358 17.2387 45.1273C17.2692 45.6635 17.6219 46.1144 18.0576 46.1778C18.1002 46.1843 18.1439 46.1865 18.1864 46.1854C18.6756 46.169 19.0447 45.6678 19.0108 45.0673C18.9803 44.5322 18.6287 44.0802 18.1919 44.0169ZM18.0478 46.2225C17.5772 46.1537 17.2135 45.6951 17.1808 45.1295C17.1644 44.8292 17.2452 44.5421 17.4079 44.3237C17.5739 44.1009 17.8054 43.9743 18.0609 43.9655C18.1078 43.9644 18.1559 43.9666 18.2028 43.9732C18.6724 44.0409 19.0371 44.5006 19.0687 45.0651C19.1048 45.6897 18.7095 46.2127 18.1897 46.2302C18.1417 46.2313 18.0936 46.2291 18.0478 46.2225Z" fill="#141519"/>
<path d="M17.7593 46.5567C16.6073 46.5567 15.6705 45.6198 15.6705 44.4689C15.6705 43.3169 16.6073 42.3801 17.7593 42.3801C18.9102 42.3801 19.8471 43.3169 19.8471 44.4689C19.8471 45.6198 18.9102 46.5567 17.7593 46.5567ZM17.7593 42.2501C16.5353 42.2501 15.5405 43.2449 15.5405 44.4689C15.5405 45.6919 16.5353 46.6877 17.7593 46.6877C18.9823 46.6877 19.9781 45.6919 19.9781 44.4689C19.9781 43.2449 18.9823 42.2501 17.7593 42.2501Z" fill="#100F0D"/>
<path d="M42.6201 40.7498C42.6201 40.7498 44.6063 43.0123 47.5567 42.854C46.456 43.2263 43.5668 43.0986 42.6201 40.7498Z" fill="#623017"/>
</g>
<defs>
<clipPath id="clip0_25_100">
<rect width="120" height="77.5532" fill="white" transform="translate(4 25)"/>
</clipPath>
</defs>
</svg>
