<svg width="128" height="128" viewBox="0 0 128 128" fill="none" xmlns="http://www.w3.org/2000/svg">
<path d="M13.5963 92.1972C13.5963 92.3351 13.5907 92.4674 13.5814 92.5941C13.3746 95.3237 11.0008 95.6945 8.78171 96.4006C5.08134 97.5782 3.7305 99.8122 4.16463 100.468C4.94346 101.642 12.4895 97.2484 17.3805 97.2838C15.793 98.5154 9.6742 103.032 10.7474 104.567C11.9268 105.707 18.886 99.3185 26.1712 97.3658C21.7759 103.144 21.7107 105.186 22.3255 105.504C24.2652 106.507 26.5681 100.315 33.0372 96.5926C33.0372 96.5926 31.6137 87.4478 13.5907 92.4674L13.5963 92.1972Z" fill="#66A430"/>
<path d="M13.3765 93.5964C12.7207 95.4317 10.6953 95.7913 8.7818 96.4006C5.08142 97.5782 4.33613 99.2197 4.77026 99.8774C5.54723 101.051 10.1382 96.5552 17.7626 97.0546C16.1751 98.2843 10.604 102.018 11.6773 103.555C12.7374 104.241 16.5887 99.1563 26.5011 97.0024C22.1076 102.782 22.2306 104.068 22.8622 104.347C24.0771 104.882 25.5676 100.438 28.8656 96.5739C24.5093 96.1323 17.9433 98.7427 13.3765 93.5964Z" fill="#73C12C"/>
<path d="M26.391 97.2167L26.2382 97.4161C22.1894 102.739 22.0366 104.573 22.1596 105.113C22.195 105.27 22.2639 105.376 22.3645 105.428C23.2365 105.879 24.2296 104.726 25.7333 102.978C27.3673 101.081 29.5995 98.4856 32.9421 96.5478C32.8657 96.1901 32.3496 94.2132 30.0634 92.7431C27.7046 91.2264 22.9477 89.9613 13.6707 92.5344C13.6707 92.5568 13.6689 92.5792 13.667 92.6015C13.4788 95.0815 11.5746 95.6516 9.55857 96.2534C9.3089 96.328 9.05736 96.4025 8.80769 96.4826C5.78926 97.4422 4.5204 99.0203 4.24464 99.7992C4.15148 100.066 4.14775 100.287 4.23718 100.421C4.56698 100.919 6.51405 100.205 8.77042 99.3799C11.4497 98.3999 14.7849 97.1739 17.3804 97.1981L17.6282 97.2L17.4326 97.3509C17.3208 97.4385 17.1885 97.5409 17.0357 97.6565C15.2619 99.0166 9.866 103.157 10.8181 104.519C11.3063 104.988 13.1695 103.854 15.5284 102.417C18.3567 100.694 22.2304 98.3328 26.1488 97.2819L26.391 97.2167ZM22.7614 105.7C22.6012 105.7 22.4428 105.661 22.2863 105.581C22.1838 105.527 22.0497 105.409 21.9919 105.15C21.8671 104.593 22.0068 102.741 25.9494 97.5148C22.1391 98.5899 18.3791 100.88 15.6178 102.562C13.0074 104.154 11.2821 105.204 10.6877 104.629C9.75048 103.291 13.5328 100.129 16.9314 97.5204C17.0003 97.4683 17.0655 97.418 17.127 97.3714C14.5986 97.4291 11.4088 98.5974 8.82818 99.5402C6.31469 100.461 4.49804 101.126 4.09372 100.515C3.97261 100.334 3.96888 100.066 4.08254 99.7433C4.46636 98.657 6.05942 97.1776 8.75552 96.3205C9.00519 96.2404 9.25859 96.164 9.50826 96.0895C11.4665 95.5044 13.3167 94.951 13.4956 92.5885C13.5049 92.4636 13.5105 92.3313 13.5105 92.1972H13.6819C13.6819 92.2494 13.68 92.3015 13.68 92.3537C22.9869 89.7824 27.7791 91.0681 30.1603 92.6015C32.7334 94.2598 33.1191 96.5553 33.1228 96.5795L33.1322 96.6373L33.08 96.6652C29.7336 98.5918 27.4977 101.191 25.8637 103.09C24.5538 104.612 23.6166 105.7 22.7614 105.7Z" fill="#374D1F"/>
<path d="M26.5978 68.2696C26.5978 68.2696 13.5235 78.6962 12.4969 91.6121C12.1317 96.2255 25.9065 99.4601 31.5838 92.1972C31.5838 90.4271 26.5978 68.2696 26.5978 68.2696Z" fill="#66A430"/>
<path d="M24.2317 89.1191C25.3515 84.3195 24.9752 78.7726 27.9992 74.5766C27.2073 70.9787 26.598 68.2696 26.598 68.2696C26.598 68.2696 13.5238 78.6962 12.4971 91.6121C12.4822 91.8134 12.4934 92.0109 12.5306 92.2046C17.1682 93.7325 23.0337 93.9151 24.2317 89.1191Z" fill="#73C12C"/>
<path d="M26.5455 68.4224C25.2953 69.4583 13.5439 79.5067 12.5824 91.6196C12.5266 92.3183 12.8023 93.0003 13.3985 93.6468C14.9115 95.2846 18.2429 96.3839 21.688 96.3839H21.6899C25.817 96.3839 29.3888 94.8486 31.4961 92.1674C31.4476 90.306 26.961 70.2744 26.5455 68.4224ZM21.6899 96.5553C21.6899 96.5553 21.6899 96.5553 21.688 96.5553C18.1982 96.5553 14.8146 95.4336 13.2737 93.7623C12.6421 93.0804 12.3533 92.3537 12.411 91.6066C12.9439 84.912 16.7579 78.9049 19.8658 75.0443C23.2289 70.8632 26.512 68.2286 26.5436 68.2025L26.6517 68.1168L26.6815 68.2491C26.8846 69.1546 31.6675 90.4383 31.6675 92.1972V92.227L31.6507 92.2494C29.5118 94.9865 25.8803 96.5553 21.6899 96.5553Z" fill="#374D1F"/>
<mask id="mask0_25_100" style="mask-type:alpha" maskUnits="userSpaceOnUse" x="94" y="90" width="30" height="16">
<path d="M94.6279 90.688H124V105.952H94.6279V90.688Z" fill="black"/>
</mask>
<g mask="url(#mask0_25_100)">
<path d="M114.408 92.1972C114.408 92.3351 114.412 92.4674 114.421 92.5941C114.63 95.3237 117.002 95.6945 119.223 96.4006C122.923 97.5782 124.274 99.8122 123.838 100.468C123.061 101.642 115.513 97.2484 110.622 97.2838C112.21 98.5154 118.33 103.032 117.257 104.567C116.076 105.707 109.118 99.3185 101.833 97.3658C106.229 103.144 106.294 105.186 105.679 105.504C103.739 106.507 101.436 100.315 94.9653 96.5926C94.9653 96.5926 96.3907 87.4478 114.412 92.4674L114.408 92.1972Z" fill="#66A430"/>
</g>
<path d="M114.408 92.1971C114.408 92.24 114.307 92.3145 114.169 92.4021C114.251 92.4245 114.33 92.445 114.412 92.4673L114.408 92.1971Z" fill="#73C12C"/>
<path d="M118.984 97.1608C117.263 96.5683 115.068 96.4006 114.03 94.8728C111.613 96.6689 108.712 97.1478 106.011 96.9894C102.877 96.7043 99.4501 95.5268 97.3428 93.0263C95.433 94.5951 94.9653 96.5925 94.9653 96.5925C101.436 100.315 103.108 105.819 105.049 104.817C105.664 104.498 105.103 102.704 100.708 96.926C107.991 98.8787 115.373 105.059 116.555 103.919C116.981 102.849 111.47 98.3924 109.882 97.1608C114.771 97.1254 122.042 100.986 122.821 99.8122C123.255 99.1563 121.807 98.1297 118.984 97.1608Z" fill="#73C12C"/>
<mask id="mask1_25_100" style="mask-type:alpha" maskUnits="userSpaceOnUse" x="94" y="90" width="30" height="16">
<path d="M94.6279 90.688H124V105.952H94.6279V90.688Z" fill="black"/>
</mask>
<g mask="url(#mask1_25_100)">
<path d="M95.0621 96.5478C98.4029 98.4856 100.637 101.081 102.269 102.978C103.773 104.726 104.766 105.879 105.64 105.428C105.74 105.376 105.809 105.27 105.845 105.113C105.968 104.573 105.813 102.739 101.764 97.4161L101.613 97.2167L101.855 97.2819C105.774 98.3328 109.646 100.694 112.474 102.417C114.833 103.854 116.696 104.988 117.197 104.506C118.136 103.157 112.74 99.0166 110.969 97.6565C110.816 97.5409 110.682 97.4385 110.57 97.3509L110.376 97.2L110.622 97.1981C110.642 97.1981 110.663 97.1981 110.682 97.1981C113.271 97.1981 116.575 98.4073 119.234 99.3799C121.488 100.205 123.437 100.919 123.767 100.421C123.856 100.287 123.853 100.066 123.76 99.7992C123.484 99.0203 122.213 97.4422 119.197 96.4826C118.947 96.4025 118.695 96.328 118.446 96.2534C116.43 95.6516 114.525 95.0815 114.337 92.6015C114.335 92.5792 114.334 92.5568 114.332 92.5344C105.051 89.9595 100.292 91.2264 97.9352 92.7468C95.6509 94.2188 95.1366 96.1901 95.0621 96.5478ZM105.243 105.7C104.386 105.7 103.45 104.612 102.141 103.09C100.506 101.191 98.2687 98.5918 94.9224 96.6652L94.8721 96.6373L94.8814 96.5795C94.8851 96.5553 95.2689 94.2598 97.8421 92.6015C100.225 91.0681 105.015 89.7824 114.324 92.3537C114.322 92.3015 114.322 92.2494 114.322 92.1972H114.494C114.494 92.3313 114.497 92.4618 114.507 92.5885C114.688 94.951 116.536 95.5044 118.494 96.0895C118.746 96.164 118.997 96.2404 119.249 96.3205C121.945 97.1776 123.538 98.657 123.92 99.7433C124.033 100.066 124.03 100.334 123.911 100.515C123.504 101.126 121.69 100.461 119.174 99.5402C116.595 98.5974 113.406 97.4291 110.877 97.3714C110.937 97.418 111.002 97.4683 111.071 97.5204C114.47 100.129 118.252 103.291 117.326 104.617C116.72 105.204 114.995 104.154 112.385 102.562C109.625 100.88 105.865 98.5899 102.053 97.5148C105.997 102.741 106.137 104.593 106.012 105.15C105.953 105.409 105.82 105.527 105.718 105.581C105.561 105.661 105.403 105.7 105.243 105.7Z" fill="#374D1F"/>
</g>
<path d="M101.406 68.2696C101.406 68.2696 114.481 78.6962 115.505 91.6121C115.873 96.2255 102.098 99.4601 96.4204 92.1972C96.4204 90.4271 101.406 68.2696 101.406 68.2696Z" fill="#66A430"/>
<path d="M108.235 93.2257C113.197 91.6866 111.144 84.843 108.919 81.4202C106.083 77.01 103.696 74.6381 100.901 70.5222C99.6363 76.2032 96.4204 90.7755 96.4204 92.1972C96.6738 92.5214 96.944 92.8232 97.2272 93.1064C101.166 94.6082 104.361 94.5616 108.235 93.2257Z" fill="#73C12C"/>
<path d="M96.5064 92.1674C98.6156 94.8486 102.187 96.3839 106.314 96.3839C109.761 96.3839 113.093 95.2846 114.604 93.6468C115.202 93.0003 115.478 92.3183 115.422 91.6196C114.459 79.5067 102.707 69.4583 101.459 68.4224C101.043 70.2744 96.5567 90.306 96.5064 92.1674ZM106.314 96.5553C102.122 96.5553 98.4926 94.9865 96.3536 92.2494L96.335 92.227V92.1972C96.335 90.4383 101.12 69.1546 101.323 68.2491L101.353 68.1168L101.459 68.2025C101.492 68.2286 104.774 70.8632 108.139 75.0443C111.246 78.9049 115.06 84.912 115.591 91.6066C115.651 92.3537 115.362 93.0804 114.731 93.7623C113.188 95.4336 109.806 96.5553 106.314 96.5553Z" fill="#374D1F"/>
<path d="M42.5604 59.9558C42.5604 59.9558 26.5478 83.6505 42.7784 87.5577C50.5872 88.1689 88.0623 87.5577 89.3256 82.7972C90.5888 78.0347 91.2 63.3618 83.1024 59.9558C76.3463 56.7939 42.5604 59.9558 42.5604 59.9558Z" fill="#73C12C"/>
<path d="M42.5604 59.9558C42.5604 59.9558 26.5478 83.6505 42.7784 87.5577C50.5872 88.1689 88.0623 87.5577 89.3256 82.7972C90.5888 78.0347 91.2 63.3618 83.1024 59.9558C76.3463 56.7939 42.5604 59.9558 42.5604 59.9558Z" fill="#73C12C"/>
<path d="M42.6087 60.0378C42.0945 60.8129 33.1733 74.4499 36.2384 82.35C37.2445 84.9455 39.4524 86.669 42.7988 87.4739C44.3788 87.5969 47.2146 87.6695 50.5647 87.6695C65.5898 87.6695 88.2895 86.3653 89.2435 82.7748C89.9124 80.2483 90.3223 75.4505 89.6385 70.8818C89.0497 66.9467 87.4325 61.8713 83.0688 60.0341C81.0844 59.1062 76.5493 58.6367 69.5883 58.6367C58.0214 58.6367 43.4845 59.9559 42.6087 60.0378ZM50.5685 87.8391C50.5666 87.8391 50.5666 87.8391 50.5647 87.8391C47.2109 87.8391 44.3695 87.7683 42.7727 87.6434C39.3537 86.8218 37.1066 85.0629 36.0781 82.4115C34.418 78.1354 36.2533 72.2401 38.0829 68.0497C40.0636 63.5165 42.4653 59.9428 42.4895 59.9074L42.5118 59.8739L42.5528 59.8701C42.7019 59.8571 57.7102 58.4653 69.5883 58.4653C76.5754 58.4653 81.1347 58.9404 83.1377 59.8776C87.5722 61.7446 89.2137 66.8778 89.8081 70.8557C90.4956 75.4486 90.082 80.2762 89.4075 82.8177C88.3547 86.7901 63.544 87.8391 50.5685 87.8391Z" fill="#100F0D"/>
<path d="M86.5527 79.0931C75.5876 73.1512 79.452 66.397 79.452 66.397H48.5522C48.5522 66.397 52.4165 73.1512 41.4495 79.0931C41.3079 80.4775 33.9836 91.75 55.7964 97.4459C59.8657 98.7893 67.9223 98.5042 72.2077 97.4459C94.0205 91.75 86.6943 80.4775 86.5527 79.0931Z" fill="#E6E79B"/>
<path d="M87.844 84.366C88.3526 80.9731 86.6198 79.7415 86.5527 79.0931C75.5876 73.1512 79.452 66.397 79.452 66.397H48.5522C48.5522 66.397 52.4165 73.1512 41.4495 79.0931C41.3676 79.9092 38.7255 82.4637 41.0825 86.9801C45.5766 90.1476 75.0734 94.9734 87.844 84.366Z" fill="#FBFBC4"/>
<path d="M41.5278 79.1489C41.498 79.3185 41.3974 79.5868 41.2613 79.9445C40.639 81.5804 39.3422 84.9883 41.2017 88.5936C43.16 92.3909 48.077 95.3423 55.8169 97.3639C57.5795 97.9452 60.2644 98.2638 63.3816 98.2638C66.6106 98.2638 69.9029 97.9284 72.1872 97.3639C79.9271 95.3423 84.8441 92.3909 86.8005 88.5936C88.66 84.9883 87.3651 81.5804 86.7428 79.9445C86.6068 79.5868 86.5043 79.3185 86.4745 79.1489C82.34 76.9 79.8246 74.284 78.9955 71.3699C78.2912 68.9012 79.0719 66.9839 79.3122 66.4827H48.6919C48.9304 66.9839 49.7111 68.9012 49.0086 71.3699C48.1795 74.284 45.6623 76.9 41.5278 79.1489ZM63.3816 98.4352C63.3816 98.4352 63.3835 98.4352 63.3816 98.4352C60.2476 98.4352 57.5422 98.1129 55.7684 97.5278C47.9839 95.495 43.0314 92.5139 41.0508 88.6719C39.1559 84.9976 40.4695 81.5432 41.1011 79.883C41.2408 79.5179 41.3508 79.2291 41.3657 79.0856L41.3694 79.039L41.4085 79.0185C45.5225 76.7882 48.0249 74.2002 48.8447 71.3234C49.6421 68.5229 48.4907 66.4603 48.4776 66.4398L48.405 66.3113H79.5992L79.5265 66.4398C79.5134 66.4603 78.362 68.5285 79.1613 71.329C79.9811 74.2021 82.4816 76.7901 86.5937 79.0185L86.6347 79.039L86.6384 79.0856C86.6533 79.2291 86.7633 79.5179 86.903 79.883C87.5328 81.5432 88.8482 84.9976 86.9533 88.6719C84.9727 92.5139 80.0184 95.495 72.2282 97.5297C69.9309 98.0961 66.6236 98.4352 63.3816 98.4352Z" fill="#9DA44D"/>
<path d="M64.0152 65.607H63.9872L63.9854 65.4356H64.0152V65.607Z" fill="#100F0D"/>
<mask id="mask2_25_100" style="mask-type:alpha" maskUnits="userSpaceOnUse" x="24" y="59" width="35" height="48">
<path d="M24.0342 59.6838H58.8542V106.553H24.0342V59.6838Z" fill="black"/>
</mask>
<g mask="url(#mask2_25_100)">
<path d="M48.1254 66.5386C48.118 66.6243 48.1105 66.71 48.1031 66.7939C47.3056 75.2902 41.9507 74.3791 40.0874 74.0474C46.0703 83.0412 45.5318 89.9687 45.4591 91.709C53.4859 94.6995 58.7663 97.8129 58.4682 99.4265C58.2465 100.638 52.9065 97.1403 46.0237 96.7602C52.7388 99.4004 54.6467 102.162 54.697 103.185C54.7827 104.973 50.3725 100.421 42.8655 99.7656C46.6497 102.803 47.5199 106.037 47.3317 106.399C47.0243 106.986 44.4213 103.611 38.7049 101.964C33.2103 100.336 32.3606 99.0837 29.9757 95.0535C22.1408 81.819 24.686 72.719 25.3158 69.4583C27.4324 58.5025 37.2684 60.0285 37.2684 60.0285L48.1254 66.5386Z" fill="#66A430"/>
</g>
<path d="M48.1254 66.5386C48.118 66.6243 47.1435 66.0262 47.1342 66.1101C46.3386 74.6064 40.0316 71.4147 38.1665 71.0812C41.619 77.3603 43.35 89.6334 42.3233 91.4016C50.3501 94.392 56.3218 96.8683 56.3106 98.1017C56.2975 99.3333 51.3879 96.8571 44.5052 96.477C51.2202 99.1172 53.4803 101.312 53.5307 102.337C53.6164 104.126 49.1688 100.19 41.66 99.5346C45.4461 102.572 46.8957 105.139 46.7075 105.501C46.4019 106.088 44.4903 103.043 38.7739 101.394C33.2792 99.7675 32.3606 99.0837 29.9757 95.0535C22.1408 81.819 24.686 72.719 25.3158 69.4583C27.4324 58.5025 37.2684 60.0285 37.2684 60.0285L48.1254 66.5386Z" fill="#73C12C"/>
<mask id="mask3_25_100" style="mask-type:alpha" maskUnits="userSpaceOnUse" x="24" y="59" width="35" height="48">
<path d="M24.0342 59.6838H58.8542V106.553H24.0342V59.6838Z" fill="black"/>
</mask>
<g mask="url(#mask3_25_100)">
<path d="M36.0498 60.0416C33.3947 60.0416 27.0448 60.9602 25.3996 69.4751C25.3624 69.6689 25.3176 69.885 25.2692 70.1198C24.4997 73.8519 22.6979 82.5923 30.0484 95.0107C32.4948 99.1433 33.3556 100.289 38.7292 101.882C42.4034 102.941 44.8238 104.729 46.1225 105.691C46.6442 106.076 47.0559 106.382 47.2162 106.382C47.2404 106.382 47.2478 106.375 47.2553 106.36C47.3876 106.108 46.6442 102.909 42.8115 99.8327L42.5916 99.6557L42.873 99.6799C47.1845 100.058 50.5029 101.726 52.4854 102.724C53.3965 103.181 54.0542 103.513 54.3896 103.513C54.4641 103.513 54.5182 103.496 54.5517 103.46C54.5983 103.412 54.6169 103.321 54.6113 103.188C54.5703 102.35 52.9437 99.5719 45.992 96.8385L45.4983 96.6447L46.0293 96.6746C49.8731 96.887 53.2586 98.0757 55.4982 98.8638C56.6609 99.2719 57.5795 99.5942 58.0527 99.5942C58.3173 99.5942 58.3695 99.4955 58.3844 99.4098C58.6676 97.8707 53.3406 94.7368 45.4293 91.7892L45.3716 91.7668L45.3828 91.5153C45.6511 85.7113 43.8437 79.8496 40.0167 74.0959L39.9049 73.9282L40.1024 73.9636C40.5235 74.0382 41.2259 74.163 42.0084 74.163C45.5374 74.163 47.559 71.6812 48.0174 66.7865C48.023 66.7194 48.0304 66.6523 48.036 66.5853L37.2386 60.1105C37.151 60.0975 36.7094 60.0416 36.0498 60.0416ZM47.2162 106.553C46.9982 106.553 46.6311 106.28 46.02 105.829C44.7306 104.875 42.3271 103.097 38.6807 102.046C33.2457 100.436 32.3737 99.2756 29.9012 95.0964C22.5172 82.6239 24.3283 73.8369 25.1015 70.0844C25.1499 69.8496 25.1947 69.6354 25.2319 69.4416C26.9014 60.8037 33.3519 59.8702 36.0498 59.8702C36.8007 59.8702 37.2628 59.941 37.2814 59.9428L37.3131 59.954L48.2149 66.494L48.2093 66.5461C48.2037 66.6318 48.1962 66.7175 48.1888 66.8014C47.7192 71.8004 45.6399 74.3344 42.0084 74.3344C41.3228 74.3344 40.7005 74.2413 40.2682 74.1667C44.0431 79.8999 45.8206 85.7374 45.5523 91.5246L45.5467 91.6494C53.758 94.7144 58.8614 97.772 58.5539 99.4414C58.5129 99.6557 58.3452 99.7657 58.0527 99.7657C57.5496 99.7657 56.6646 99.4545 55.4405 99.0241C53.3164 98.2769 50.1564 97.1683 46.5585 96.8814C52.9326 99.4843 54.7306 102.126 54.7827 103.181C54.7921 103.364 54.7567 103.494 54.6747 103.578C54.6095 103.649 54.5126 103.684 54.3896 103.684C54.0132 103.684 53.376 103.362 52.409 102.877C50.4806 101.907 47.2795 100.299 43.1376 99.8774C46.7168 102.847 47.6224 106.024 47.4062 106.438C47.369 106.512 47.3 106.553 47.2162 106.553Z" fill="#374D1F"/>
</g>
<path d="M39.644 91.655C39.6739 91.6494 42.6532 91.1091 45.4741 91.6252L45.4443 91.7929C42.6532 91.2823 39.644 91.655 39.644 91.655Z" fill="#374D1F"/>
<path d="M40.0127 74.0885C38.3377 71.0383 37.2309 70.239 37.2197 70.2316C37.2197 70.2316 38.4625 70.9116 40.1618 74.0065L40.0127 74.0885Z" fill="#374D1F"/>
<mask id="mask4_25_100" style="mask-type:alpha" maskUnits="userSpaceOnUse" x="69" y="59" width="35" height="48">
<path d="M69.3477 59.6838H103.691V106.553H69.3477V59.6838Z" fill="black"/>
</mask>
<g mask="url(#mask4_25_100)">
<path d="M79.879 66.5386C79.8864 66.6243 79.8939 66.71 79.9013 66.7939C80.6969 75.2902 86.0518 74.3791 87.9169 74.0474C81.9341 83.0412 82.4707 89.9687 82.5434 91.709C74.5185 94.6995 69.2381 97.8129 69.5343 99.4265C69.7579 100.638 75.0979 97.1403 81.9788 96.7602C75.2656 99.4004 73.3558 102.162 73.3074 103.185C73.2198 104.973 77.6301 100.421 85.1389 99.7656C81.3546 102.803 80.4845 106.037 80.6727 106.399C80.9801 106.986 83.5831 103.611 89.2995 101.964C94.7941 100.336 95.6438 99.0837 98.0287 95.0535C105.862 81.819 103.318 72.719 102.689 69.4583C100.572 58.5025 90.736 60.0285 90.736 60.0285L79.879 66.5386Z" fill="#66A430"/>
</g>
<path d="M94.9653 94.9789C100.566 87.9956 101.164 72.6947 99.9904 68.931C98.552 64.3158 93.1319 62.4376 88.5744 61.3234L79.8787 66.5386C79.8862 66.6243 79.8936 66.71 79.9011 66.7939C80.6967 75.2902 86.0516 74.3791 87.9167 74.0474C81.9339 83.0412 82.4705 89.9687 82.5431 91.709C74.5182 94.6995 70.0707 97.2297 70.3669 98.8433C70.5905 100.054 72.9904 96.6186 82.9568 96.4192C75.9846 98.942 74.1959 101.327 74.1456 102.35C74.0599 104.139 77.2963 99.3426 85.7088 99.4134C81.1681 102.67 81.0954 105.676 81.7736 105.044C86.5491 100.611 89.7762 101.452 94.9653 94.9789Z" fill="#73C12C"/>
<mask id="mask5_25_100" style="mask-type:alpha" maskUnits="userSpaceOnUse" x="69" y="59" width="35" height="48">
<path d="M69.3477 59.6838H103.691V106.553H69.3477V59.6838Z" fill="black"/>
</mask>
<g mask="url(#mask5_25_100)">
<path d="M85.4129 99.6557L85.1931 99.8327C81.3586 102.909 80.617 106.108 80.7493 106.36C80.7567 106.375 80.7642 106.382 80.7884 106.382C80.9486 106.382 81.3604 106.076 81.8821 105.691C83.1808 104.729 85.5993 102.941 89.2754 101.882C94.6471 100.289 95.5098 99.1433 97.9562 95.0107C105.307 82.5923 103.503 73.8519 102.734 70.1198C102.687 69.885 102.642 69.6689 102.605 69.4751C100.96 60.9602 94.608 60.0416 91.9547 60.0416C91.2952 60.0416 90.8536 60.0975 90.7641 60.1105L79.9686 66.5853C79.9742 66.6523 79.9798 66.7194 79.9872 66.7865C80.4456 71.6812 82.4672 74.163 85.9961 74.163C86.7768 74.163 87.4811 74.0382 87.9004 73.9636L88.0979 73.9282L87.9879 74.0959C84.159 79.8496 82.3535 85.7113 82.6218 91.5153L82.633 91.7668L82.5752 91.7892C74.6621 94.7368 69.3351 97.8707 69.6183 99.4098C69.6351 99.4955 69.6873 99.5942 69.95 99.5942C70.4251 99.5942 71.3437 99.2719 72.5064 98.8638C74.746 98.0757 78.1296 96.887 81.9753 96.6746L82.5063 96.6447L82.0107 96.8385C75.0608 99.5719 73.4324 102.35 73.3932 103.188C73.3858 103.321 73.4063 103.412 73.4529 103.46C73.4864 103.496 73.5386 103.513 73.615 103.513C73.9485 103.513 74.6081 103.181 75.5173 102.724C77.5017 101.726 80.8201 100.058 85.1316 99.6799L85.4129 99.6557ZM80.7884 106.553C80.7027 106.553 80.6356 106.512 80.5965 106.438C80.3804 106.024 81.2859 102.847 84.867 99.8774C80.7232 100.299 77.524 101.907 75.5956 102.877C74.6286 103.362 73.9895 103.684 73.615 103.684C73.492 103.684 73.3951 103.649 73.328 103.578C73.2479 103.494 73.2125 103.364 73.2218 103.181C73.2721 102.126 75.0702 99.4843 81.4461 96.8814C77.8482 97.1683 74.6882 98.2788 72.5622 99.0241C71.3381 99.4545 70.4531 99.7657 69.95 99.7657C69.6593 99.7657 69.4898 99.6576 69.4507 99.4414C69.1432 97.772 74.2466 94.7144 82.456 91.6494L82.4504 91.5246C82.184 85.7374 83.9615 79.8999 87.7345 74.1667C87.3041 74.2413 86.6799 74.3344 85.9961 74.3344C82.3628 74.3344 80.2853 71.8004 79.8158 66.8014C79.8083 66.7175 79.8009 66.6318 79.7934 66.5461L79.7897 66.494L79.8344 66.466L90.7064 59.9466L90.7213 59.9428C90.7418 59.941 91.2039 59.8702 91.9547 59.8702C94.6508 59.8702 101.103 60.8037 102.773 69.4416C102.81 69.6354 102.853 69.8496 102.903 70.0844C103.676 73.8369 105.486 82.6239 98.1034 95.0964C95.629 99.2756 94.757 100.436 89.3239 102.046C85.6757 103.097 83.274 104.875 81.9827 105.829C81.3735 106.28 81.0045 106.553 80.7884 106.553Z" fill="#374D1F"/>
</g>
<path d="M82.56 91.7929L82.5283 91.6252C85.3511 91.1091 88.3286 91.6494 88.3584 91.655C88.3584 91.655 85.3492 91.2823 82.56 91.7929Z" fill="#374D1F"/>
<path d="M87.9913 74.0885L87.8403 74.0065C89.5396 70.9116 90.6408 70.1235 90.6855 70.09C90.6855 70.09 89.6663 71.0384 87.9913 74.0885Z" fill="#374D1F"/>
<path d="M97.682 46.4157C96.7653 38.7169 91.0284 36.14 90.175 35.6314C86.5734 25.8662 80.7769 23.4924 79.1671 22.8142C72.465 19.9914 68.2839 26.291 68.2839 26.291C66.2996 25.378 61.703 25.378 59.7205 26.291C59.7205 26.291 55.5376 19.9914 48.8374 22.8142C47.2257 23.4924 41.4311 25.8662 37.8294 35.6314C36.9742 36.14 31.2392 38.7169 30.3206 46.4157C29.5884 52.5607 34.9806 69.3279 64.0022 69.3279C93.0239 69.3279 98.4142 52.5607 97.682 46.4157Z" fill="#66A430"/>
<path d="M77.7808 66.1939C80.5197 65.3387 82.914 63.4568 85.3101 61.575C86.8491 60.2055 88.0472 58.8379 89.5862 57.297C93.5213 53.7047 95.5746 48.7429 94.7194 43.0973C94.0356 39.6466 90.7954 38.0051 90.4377 37.7927C86.4224 25.5029 80.7769 23.4924 79.167 22.8142C72.465 19.9914 68.2839 26.291 68.2839 26.291C66.2996 25.378 61.703 25.378 59.7205 26.291C59.7205 26.291 55.5375 19.9914 48.8374 22.8142C47.2257 23.4924 41.431 25.8662 37.8294 35.6314C36.9742 36.14 31.2392 38.7169 30.3206 46.4157C29.8455 50.4012 31.9509 58.8565 41.4105 64.3065C46.3313 66.166 51.472 67.2727 56.9089 67.733C63.9239 68.5882 70.939 68.2472 77.7808 66.1939Z" fill="#73C12C"/>
<path d="M85.83 30.487C88.7198 35.6966 87.6727 42.1508 83.8773 43.8352C80.08 45.5196 73.678 42.4825 71.4235 37.4052C69.1708 32.3279 69.5453 26.101 73.7134 24.2769C77.52 22.613 83.1357 25.6296 85.83 30.487Z" fill="#100F0D"/>
<path d="M86.3421 31.6851C89.2319 36.8947 88.1848 43.347 84.3894 45.0314C80.594 46.7176 74.1901 43.6806 71.9374 38.6032C69.6829 33.5241 69.9419 27.0065 74.1118 25.1824C77.9165 23.5185 83.6478 26.8258 86.3421 31.6851Z" fill="#E6E5E6"/>
<path d="M74.1118 25.1824C77.9165 23.5185 83.6478 26.8258 86.3421 31.6851C86.7799 32.4714 87.1246 33.2875 87.3855 34.111C86.288 37.9642 79.6065 42.7042 74.0988 41.7782C73.2119 40.8522 72.461 39.7827 71.9374 38.6032C69.6829 33.5241 69.9419 27.0065 74.1118 25.1824Z" fill="white"/>
<path d="M74.1456 25.2606C72.8171 25.842 71.8389 26.9189 71.2408 28.4598C70.1881 31.1689 70.4918 35.1376 72.0159 38.5678C73.9183 42.8532 78.5913 45.4152 82.0103 45.4152C82.8786 45.4152 83.6667 45.2605 84.3561 44.955C85.7312 44.3438 86.8156 43.0358 87.4062 41.2714C88.3714 38.3889 87.9354 34.7314 86.2678 31.726C84.0524 27.7331 79.862 24.834 76.3032 24.834C75.5207 24.834 74.7959 24.9774 74.1456 25.2606ZM71.8594 38.6368C70.3185 35.1674 70.013 31.1484 71.0806 28.3983C71.6973 26.8127 72.7053 25.7059 74.0767 25.1041C74.7493 24.8116 75.4983 24.6625 76.3032 24.6625C79.9198 24.6625 84.1735 27.599 86.4168 31.6441C88.1068 34.6904 88.5484 38.4001 87.5683 41.3254C86.9628 43.1365 85.8448 44.4798 84.425 45.1096C83.7152 45.4264 82.9028 45.5847 82.0103 45.5847C78.5354 45.5847 73.7897 42.9855 71.8594 38.6368Z" fill="#100F0D"/>
<path d="M80.9578 36.6487C82.1205 38.6349 81.7721 40.9975 80.1809 41.9291C78.5878 42.8607 76.3575 42.0055 75.1949 40.0193C74.0341 38.0349 74.3825 35.6705 75.9737 34.7389C77.5649 33.8091 79.797 34.6625 80.9578 36.6487Z" fill="#F8BC0A"/>
<path d="M80.4022 37.5692C81.2686 39.0504 81.0078 40.813 79.8209 41.508C78.634 42.2011 76.9702 41.5639 76.1038 40.0827C75.2374 38.6033 75.4982 36.8388 76.6851 36.1457C77.872 35.4507 79.5358 36.0879 80.4022 37.5692Z" fill="#100F0D"/>
<path d="M76.0161 34.8134C74.4697 35.7189 74.1324 38.0349 75.269 39.9764C76.0664 41.3384 77.4359 42.2197 78.7607 42.2197C79.26 42.2197 79.7221 42.0968 80.1357 41.8545C81.6841 40.949 82.0195 38.633 80.8848 36.6915C80.0873 35.3295 78.716 34.4482 77.3931 34.4482C76.8937 34.4482 76.4316 34.5712 76.0161 34.8134ZM75.1218 40.0621C73.9386 38.0387 74.302 35.6183 75.9304 34.6662C76.3702 34.4072 76.8639 34.2768 77.3931 34.2768C78.7756 34.2768 80.2047 35.1916 81.032 36.6058C82.2151 38.6293 81.8518 41.0496 80.2233 42.0036C79.7817 42.2607 79.2898 42.3912 78.7607 42.3912C77.3763 42.3912 75.9491 41.4763 75.1218 40.0621Z" fill="#741D18"/>
<path d="M78.2539 44.6792C82.4574 43.2594 86.7446 42.5253 91.0636 43.0135L83.7933 46.5182L78.3787 45.0463L78.2539 44.6792Z" fill="#73C12C"/>
<path d="M78.2969 44.7649C78.3304 44.7538 78.3789 44.7351 78.4124 44.7239C82.9997 43.1868 87.136 42.6558 91.0544 43.0973C91.0544 43.0973 89.7893 42.8085 89.139 42.788C85.7722 42.6818 82.2246 43.2669 78.3621 44.56C78.3267 44.5712 78.1199 44.6606 78.0845 44.6736L78.2969 44.7649Z" fill="#346229"/>
<path d="M79.6811 37.2058C79.6811 37.625 79.2972 37.9642 78.824 37.9642C78.3526 37.9642 77.9688 37.625 77.9688 37.2058C77.9688 36.7866 78.3526 36.4456 78.824 36.4456C79.2972 36.4456 79.6811 36.7866 79.6811 37.2058Z" fill="white"/>
<path d="M52.2527 22.1714C51.1441 22.1714 50.0056 22.4136 48.8709 22.8925L48.8318 22.9093C43.9464 24.9644 40.2721 29.2554 37.9096 35.6612L37.8984 35.6892L37.8742 35.7059C37.8108 35.7432 37.7251 35.7898 37.617 35.8494C33.3949 38.1523 30.969 41.7111 30.4063 46.4251C30.0486 49.4193 31.1106 54.5804 35.2768 59.2721C39.3144 63.8202 47.576 69.2422 64.0022 69.2422C80.4285 69.2422 88.69 63.8202 92.7276 59.2721C96.8938 54.5804 97.954 49.4193 97.5981 46.4251C97.0354 41.7111 94.6095 38.1523 90.3874 35.8494C90.2793 35.7898 90.1918 35.7432 90.1303 35.7059L90.1042 35.6892L90.0949 35.6612C87.7323 29.2554 84.058 24.9644 79.1726 22.9093L79.1335 22.8925C77.9988 22.4136 76.8604 22.1714 75.7517 22.1714C71.1775 22.1714 68.3827 26.2985 68.3547 26.3395L68.3156 26.4009L68.2485 26.3693C67.3262 25.9445 65.7388 25.6911 64.0022 25.6911C62.2638 25.6911 60.6764 25.9445 59.7559 26.3693L59.6888 26.4009L59.6479 26.3395C59.6218 26.2985 56.8269 22.1714 52.2527 22.1714ZM64.0022 69.4136C47.5126 69.4136 39.2101 63.9599 35.1482 59.3857C30.9448 54.6512 29.8753 49.4361 30.2368 46.4064C30.8051 41.6329 33.2608 38.0294 37.535 35.6985C37.6263 35.6482 37.7027 35.6072 37.7605 35.5736C39.2828 31.454 41.3733 28.1654 43.9725 25.7973C46.0705 23.8856 47.958 23.09 48.7647 22.7509L48.8039 22.7341C49.9609 22.2478 51.1199 22 52.2527 22C56.6127 22 59.3814 25.6687 59.7503 26.1848C60.7006 25.7675 62.2806 25.5215 64.0022 25.5215C65.7238 25.5215 67.3039 25.7675 68.2541 26.1848C68.6212 25.6687 71.3899 22 75.7517 22C76.8827 22 78.0435 22.2478 79.1987 22.7341L79.2378 22.7509C80.0446 23.09 81.9339 23.8856 84.0319 25.7973C86.6311 28.1654 88.7198 31.454 90.2439 35.5736C90.3017 35.6072 90.3781 35.6482 90.4694 35.6985C94.7418 38.0312 97.1975 41.6329 97.7677 46.4064C98.1291 49.4361 97.0596 54.6512 92.8562 59.3857C88.7944 63.9599 80.4918 69.4136 64.0022 69.4136Z" fill="#374D1F"/>
<path d="M94.8036 47.4275C94.5595 47.2207 94.2893 47.0232 93.9893 46.8425C90.9299 45.0035 87.4569 45.5512 84.5782 52.4899C60.0506 71.3011 43.4269 52.4899 43.4269 52.4899C40.5463 45.5512 37.0733 45.0035 34.0138 46.8425C31.8152 48.1654 31.1463 50.2913 31.1128 52.352C32.4375 56.289 35.4746 60.8875 41.4034 64.3028C46.5254 67.256 53.8032 69.3279 64.0025 69.3279C86.0017 69.3279 94.4235 59.6913 96.8904 52.352C96.8624 50.5727 96.3575 48.7448 94.8036 47.4275Z" fill="#E6E79B"/>
<path d="M89.5865 57.297C92.3572 54.5302 94.3527 51.2751 94.8036 47.4275C94.5595 47.2207 94.2893 47.0232 93.9893 46.8425C90.9299 45.0035 87.4569 45.5512 84.5782 52.4899C60.0506 71.3011 43.4269 52.4899 43.4269 52.4899C40.5463 45.5512 37.0733 45.0035 34.0138 46.8425C31.8152 48.1654 31.1463 50.2913 31.1128 52.352C32.4375 56.289 35.4746 60.8875 41.4034 64.3028C46.3261 66.1642 51.4686 67.2728 56.9092 67.733C63.9243 68.5882 79.2065 67.6622 89.5865 57.297Z" fill="#FBFBC4"/>
<path d="M96.9754 52.3464C96.9195 52.3371 96.8617 52.3371 96.804 52.3353C96.804 52.3371 96.804 52.339 96.804 52.339C95.0879 57.4331 88.4567 69.2422 64.0018 69.2422C39.5469 69.2422 32.9157 57.4331 31.1978 52.339C31.1978 52.326 31.1996 52.3129 31.1996 52.2999C31.1438 52.3129 31.0879 52.3222 31.0282 52.3278C31.0282 52.3371 31.0264 52.3427 31.0264 52.352V52.3651L31.032 52.38C32.7536 57.502 39.4128 69.4136 64.0018 69.4136C88.589 69.4136 95.25 57.502 96.9717 52.38L96.9754 52.3651V52.352C96.9754 52.3502 96.9754 52.3483 96.9754 52.3464Z" fill="#9DA44D"/>
<path d="M59.521 26.1624L59.6607 26.0618C60.1918 26.8015 60.4079 27.8393 60.4172 27.8822C60.4172 27.8822 60.0297 26.8705 59.521 26.1624Z" fill="#374D1F"/>
<path d="M37.5199 38.6555C37.4435 38.0965 37.3708 36.958 37.7472 35.6091L37.9112 35.6557C37.5441 36.9748 37.5199 38.6555 37.5199 38.6555Z" fill="#374D1F"/>
<path d="M67.5869 27.8822C67.5944 27.8393 67.8124 26.8015 68.3434 26.0618L68.4813 26.1624C67.9726 26.8723 67.5869 27.8822 67.5869 27.8822Z" fill="#374D1F"/>
<path d="M90.4821 38.6555C90.4821 38.6555 90.4597 36.973 90.0908 35.6557L90.2566 35.6091C90.633 36.958 90.5604 38.0965 90.4821 38.6555Z" fill="#374D1F"/>
<path d="M42.2695 30.487C39.3796 35.6966 40.4267 42.1508 44.2221 43.8352C48.0194 45.5196 54.4214 42.4825 56.676 37.4052C58.9286 32.3279 58.5541 26.101 54.386 24.2769C50.5813 22.613 44.9637 25.6296 42.2695 30.487Z" fill="#100F0D"/>
<path d="M41.7573 31.6851C38.8674 36.8947 39.9145 43.347 43.7099 45.0314C47.5053 46.7176 53.9092 43.6806 56.1619 38.6032C58.4164 33.5241 58.1555 27.0065 53.9875 25.1824C50.1828 23.5185 44.4515 26.8258 41.7573 31.6851Z" fill="#E6E5E6"/>
<path d="M53.9875 25.1824C50.1828 23.5185 44.4515 26.8258 41.7573 31.6851C41.3194 32.4714 40.9747 33.2875 40.7139 34.111C41.8113 37.9642 48.4929 42.7042 54.0006 41.7782C54.8875 40.8522 55.6383 39.7827 56.1619 38.6032C58.4164 33.5241 58.1556 27.0065 53.9875 25.1824Z" fill="white"/>
<path d="M51.7963 24.834C48.2375 24.834 44.0471 27.7331 41.8318 31.726C40.1642 34.7314 39.7282 38.3889 40.6933 41.2714C41.284 43.0358 42.3684 44.3438 43.7453 44.955C44.4328 45.2605 45.221 45.4152 46.0892 45.4152C49.5083 45.4152 54.1812 42.8532 56.0836 38.5678C57.6077 35.1376 57.9114 31.1689 56.8587 28.4598C56.2606 26.9189 55.2824 25.842 53.9539 25.2606C53.3037 24.9774 52.5789 24.834 51.7963 24.834ZM46.0892 45.5847C45.1968 45.5847 44.3844 45.4264 43.6745 45.1096C42.2547 44.4798 41.1368 43.1365 40.5312 41.3254C39.5512 38.4001 39.9928 34.6904 41.6808 31.6441C43.926 27.599 48.1798 24.6625 51.7963 24.6625C52.6012 24.6625 53.3502 24.8116 54.021 25.1041C55.3942 25.7059 56.4022 26.8127 57.0189 28.3983C58.0866 31.1484 57.781 35.1674 56.2401 38.6368C54.3098 42.9855 49.5642 45.5847 46.0892 45.5847Z" fill="#100F0D"/>
<path d="M47.142 36.6487C45.9794 38.6349 46.3278 40.9975 47.9208 41.9291C49.512 42.8607 51.7423 42.0055 52.905 40.0193C54.0658 38.0349 53.7173 35.6705 52.1261 34.7389C50.5349 33.8091 48.3028 34.6625 47.142 36.6487Z" fill="#F8BC0A"/>
<path d="M47.697 37.5692C46.8306 39.0504 47.0915 40.813 48.2784 41.508C49.4652 42.2011 51.1291 41.5639 51.9955 40.0827C52.8619 38.6033 52.6011 36.8388 51.4142 36.1457C50.2273 35.4507 48.5634 36.0879 47.697 37.5692Z" fill="#100F0D"/>
<path d="M50.706 34.4482C49.3831 34.4482 48.0118 35.3295 47.2143 36.6915C46.0796 38.633 46.415 40.949 47.9633 41.8545C48.377 42.0968 48.839 42.2197 49.3384 42.2197C50.6631 42.2197 52.0326 41.3384 52.8301 39.9764C53.9666 38.0349 53.6294 35.7189 52.0829 34.8134C51.6674 34.5712 51.2053 34.4482 50.706 34.4482ZM49.3384 42.3912C48.8092 42.3912 48.3173 42.2607 47.8757 42.0036C46.2473 41.0496 45.884 38.6293 47.0671 36.6058C47.8944 35.1916 49.3235 34.2768 50.706 34.2768C51.2351 34.2768 51.7289 34.4072 52.1686 34.6662C53.7971 35.6183 54.1604 38.0387 52.9773 40.0621C52.15 41.4763 50.7228 42.3912 49.3384 42.3912Z" fill="#741D18"/>
<path d="M49.8453 44.6792C45.6419 43.2594 41.3546 42.5253 37.0356 43.0135L44.306 46.5182L49.7186 45.0463L49.8453 44.6792Z" fill="#73C12C"/>
<path d="M49.8025 44.7649C49.7689 44.7538 49.7205 44.7351 49.6869 44.7239C45.0997 43.1868 40.9633 42.6558 37.0449 43.0973C37.0449 43.0973 38.3082 42.8085 38.9603 42.788C42.3272 42.6818 45.8729 43.2669 49.7372 44.56C49.7726 44.5712 49.9795 44.6606 50.0149 44.6736L49.8025 44.7649Z" fill="#374D1F"/>
<path d="M48.418 37.2058C48.418 37.625 48.8018 37.9642 49.2732 37.9642C49.7465 37.9642 50.1303 37.625 50.1303 37.2058C50.1303 36.7866 49.7465 36.4456 49.2732 36.4456C48.8018 36.4456 48.418 36.7866 48.418 37.2058Z" fill="white"/>
<path d="M82.4723 50.0323L45.0288 49.4323L42.793 51.0533C42.793 51.0533 42.8079 51.1055 42.8153 51.1316C43.9239 54.7611 48.4516 65.1636 64.0021 65.5213C79.5526 65.1636 84.0803 54.7593 85.1889 51.1297C85.1963 51.1036 85.2131 51.0496 85.2131 51.0496L82.4723 50.0323Z" fill="#3B1416"/>
<path d="M51.0806 49.5292L45.0288 49.4323L42.793 51.0533C42.793 51.0533 42.8079 51.1055 42.8153 51.1316C43.7693 54.2562 47.261 62.4041 58.1423 64.8356C57.7845 64.5543 57.4305 64.2692 57.0802 63.9692C52.9625 60.485 51.7775 54.9475 51.0806 49.5292Z" fill="#501317"/>
<path d="M63.9876 61.1874C58.3905 61.1874 56.2291 63.1699 55.5229 64.0959C57.9023 64.9158 60.7046 65.4449 64.0025 65.5213C67.2986 65.4449 70.099 64.9176 72.4783 64.0978C71.7647 63.1718 69.5885 61.1874 63.9876 61.1874Z" fill="#F08392"/>
<path d="M63.4547 61.1949C58.2526 61.316 56.2068 63.1997 55.5229 64.0959C57.9023 64.9158 60.7046 65.4449 64.0025 65.5213C66.0036 65.4747 67.8203 65.2623 69.4711 64.9176C68.1277 62.8737 65.8918 61.67 63.4547 61.1949Z" fill="#F799A6"/>
<path d="M55.6642 64.055C58.1646 64.9009 60.9688 65.3667 64.0021 65.4356C67.0336 65.3667 69.8359 64.9009 72.3345 64.0568C71.591 63.1476 69.398 61.2732 63.9872 61.2732C58.5783 61.2732 56.4001 63.1476 55.6642 64.055ZM64.0021 65.607H64.0002C60.9036 65.5362 58.0416 65.0555 55.4946 64.1779L55.3828 64.1388L55.4555 64.0456C56.1281 63.1606 58.3081 61.1017 63.9872 61.1017C69.6682 61.1017 71.8649 63.1606 72.545 64.0456L72.6177 64.1407L72.5059 64.1779C69.9607 65.0555 67.0988 65.5362 64.004 65.607H64.0021Z" fill="#F05C70"/>
<path d="M42.8917 51.0869L42.8973 51.1055C43.896 54.3755 48.3696 65.0741 64.0021 65.4356C79.6346 65.0741 84.1082 54.3755 85.1069 51.1055V51.1018L82.4556 50.118L45.0568 49.518L42.8917 51.0869ZM64.0021 65.607H64.0003C57.302 65.4524 51.8967 63.4364 47.9336 59.6149C44.7065 56.5033 43.2905 52.9799 42.7334 51.1558L42.6924 51.0217L45.0028 49.3466H45.0307L82.4891 49.9484L85.3175 50.9956L85.2709 51.1558C84.7138 52.9781 83.2977 56.5014 80.0706 59.6149C76.1057 63.4364 70.7004 65.4524 64.004 65.607H64.0021Z" fill="#374D1F"/>
<path d="M86.5528 47.0884L70.8812 46.5182L43.7768 48.2622L42.7129 50.9751C42.7129 50.9751 42.8992 51.1651 43.1619 51.4018C44.6022 52.7042 50.3316 56.9318 64.0152 56.9151H64.1475C80.324 56.9356 85.2243 51.0235 85.2243 51.0235L85.1107 50.9676L86.5528 47.0884Z" fill="#73C12C"/>
<path d="M59.2694 53.3284C59.2694 53.8426 58.9116 54.26 58.4682 54.26C58.0266 54.26 57.667 53.8426 57.667 53.3284C57.667 52.8141 58.0266 52.3986 58.4682 52.3986C58.9116 52.3986 59.2694 52.8141 59.2694 53.3284Z" fill="#7DAF2A"/>
<path d="M58.6564 53.7867C58.9563 53.5874 59.0514 53.1327 59.0644 52.8011C58.9563 52.434 58.8203 52.3986 58.4682 52.3986C58.0266 52.3986 57.667 52.8141 57.667 53.3284C57.667 53.5166 57.7154 53.6898 57.7974 53.837C58.0825 54.014 58.4421 53.8929 58.6564 53.7867Z" fill="#699D2E"/>
<path d="M58.468 52.4843C58.073 52.4843 57.7526 52.8625 57.7526 53.3283C57.7526 53.796 58.073 54.1742 58.468 54.1742C58.863 54.1742 59.1835 53.796 59.1835 53.3283C59.1835 52.8625 58.863 52.4843 58.468 52.4843ZM58.468 54.3456C57.9799 54.3456 57.583 53.8892 57.583 53.3283C57.583 52.7694 57.9799 52.3129 58.468 52.3129C58.9581 52.3129 59.3549 52.7694 59.3549 53.3283C59.3549 53.8892 58.9581 54.3456 58.468 54.3456Z" fill="#374D1F"/>
<path d="M64.2313 57.0008C64.2034 57.0008 64.1754 57.0008 64.1475 57.0008H64.0152C63.9891 57.0008 63.9612 57.0008 63.9332 57.0008C55.6102 57.0008 50.2925 55.4003 47.2964 54.055C44.0283 52.5887 42.7259 51.0944 42.7129 51.0794L42.8433 50.9677C42.8936 51.0273 48.0585 56.8294 63.9332 56.8294C63.9612 56.8294 63.9872 56.8294 64.0152 56.8294H64.1475C80.0874 56.848 85.1107 51.0273 85.1591 50.9695L85.2914 51.0794C85.2802 51.0906 85.2281 51.1521 85.1274 51.2565C84.6989 51.6943 83.3984 52.8681 80.788 54.055C77.8273 55.4003 72.5544 57.0008 64.2313 57.0008Z" fill="#374D1F"/>
<path d="M41.1255 50.9937C41.1255 50.9937 41.1888 50.9974 41.2969 51.0012C41.405 51.0086 41.5615 51.0068 41.7459 51.0068C41.8391 51.0049 41.9397 51.0049 42.0459 50.9993C42.1521 50.9974 42.2639 50.9881 42.3776 50.9807C42.4931 50.9751 42.6105 50.9546 42.7316 50.9453C42.8508 50.9304 42.9719 50.9117 43.0931 50.8894C43.2123 50.8633 43.3334 50.8484 43.4489 50.813C43.5645 50.7794 43.6818 50.7589 43.788 50.7161C43.8961 50.6788 44.0023 50.649 44.0973 50.6043C44.1924 50.5596 44.2911 50.5298 44.3694 50.4832C44.4495 50.4385 44.5259 50.4012 44.593 50.3677C44.6582 50.3285 44.7103 50.2913 44.7569 50.2615C44.8482 50.2018 44.9023 50.1702 44.9023 50.1702C44.9023 50.1702 44.8575 50.213 44.7774 50.2875C44.7364 50.3248 44.688 50.3714 44.6284 50.4198C44.5669 50.4646 44.4961 50.5149 44.4178 50.5689C44.3414 50.6267 44.2464 50.6676 44.1514 50.7198C44.0563 50.7739 43.9483 50.8148 43.8384 50.8577C43.7284 50.9061 43.611 50.9378 43.4899 50.9732C43.3707 51.0105 43.2458 51.0291 43.1229 51.0589C42.998 51.0794 42.8732 51.0943 42.7484 51.1092C42.6254 51.1185 42.5043 51.1297 42.385 51.1297C42.1484 51.139 41.9285 51.1241 41.7422 51.1055C41.554 51.085 41.3994 51.0552 41.2932 51.0347C41.1851 51.0123 41.1255 50.9937 41.1255 50.9937Z" fill="#374D1F"/>
<path d="M86.8788 50.9937C86.8788 50.9937 86.8192 51.0123 86.7111 51.0347C86.6031 51.0552 86.4484 51.085 86.2621 51.1055C86.0739 51.1241 85.854 51.139 85.6174 51.1297C85.5 51.1297 85.3789 51.1185 85.2541 51.1092C85.1311 51.0943 85.0063 51.0794 84.8814 51.0589C84.7585 51.0291 84.6318 51.0105 84.5125 50.9732C84.3933 50.9378 84.274 50.9061 84.166 50.8577C84.0542 50.8148 83.948 50.7739 83.8529 50.7198C83.7579 50.6676 83.6629 50.6267 83.5865 50.5689C83.5082 50.5149 83.4374 50.4646 83.3741 50.4198C83.3163 50.3714 83.2679 50.3248 83.2269 50.2875C83.1449 50.213 83.1021 50.1702 83.1021 50.1702C83.1021 50.1702 83.1561 50.2018 83.2474 50.2615C83.2921 50.2913 83.3461 50.3285 83.4113 50.3677C83.4784 50.4012 83.553 50.4385 83.6349 50.4832C83.7132 50.5298 83.8101 50.5596 83.9051 50.6043C84.0001 50.649 84.1082 50.6788 84.2163 50.7161C84.3225 50.7589 84.4398 50.7794 84.5554 50.813C84.669 50.8484 84.792 50.8633 84.9112 50.8894C85.0324 50.9117 85.1535 50.9304 85.2727 50.9453C85.3938 50.9546 85.5112 50.9751 85.6267 50.9807C85.7404 50.9881 85.8522 50.9974 85.9584 50.9993C86.0646 51.0049 86.1633 51.0049 86.2565 51.0068C86.4428 51.0068 86.5975 51.0086 86.7074 51.0012C86.8155 50.9974 86.8788 50.9937 86.8788 50.9937Z" fill="#374D1F"/>
<path d="M70.3353 53.3284C70.3353 53.8426 69.9775 54.26 69.5341 54.26C69.0925 54.26 68.7329 53.8426 68.7329 53.3284C68.7329 52.8141 69.0925 52.3986 69.5341 52.3986C69.9775 52.3986 70.3353 52.8141 70.3353 53.3284Z" fill="#7DAF2A"/>
<path d="M69.7223 53.7867C70.0223 53.5874 70.1173 53.1327 70.1303 52.8011C70.0223 52.434 69.8862 52.3986 69.5341 52.3986C69.0925 52.3986 68.7329 52.8141 68.7329 53.3284C68.7329 53.5166 68.7814 53.6898 68.8633 53.837C69.1484 54.014 69.508 53.8929 69.7223 53.7867Z" fill="#699D2E"/>
<path d="M69.5339 52.4843C69.1407 52.4843 68.8184 52.8625 68.8184 53.3283C68.8184 53.796 69.1407 54.1742 69.5339 54.1742C69.9289 54.1742 70.2494 53.796 70.2494 53.3283C70.2494 52.8625 69.9289 52.4843 69.5339 52.4843ZM69.5339 54.3456C69.0457 54.3456 68.647 53.8892 68.647 53.3283C68.647 52.7694 69.0457 52.3129 69.5339 52.3129C70.0239 52.3129 70.4208 52.7694 70.4208 53.3283C70.4208 53.8892 70.0239 54.3456 69.5339 54.3456Z" fill="#374D1F"/>
<path d="M62.8821 62.4172C62.8821 62.7954 62.0046 63.101 60.922 63.101C59.8395 63.101 58.9619 62.7954 58.9619 62.4172C58.9619 62.0371 59.8395 61.7315 60.922 61.7315C62.0046 61.7315 62.8821 62.0371 62.8821 62.4172Z" fill="#F8C8D0"/>
</svg>
