<svg width="128" height="128" viewBox="0 0 128 128" fill="none" xmlns="http://www.w3.org/2000/svg">
<path d="M103.957 72.2307C103.957 72.2307 108.981 69.5261 109.819 73.6479C111.059 72.8441 112.77 74.8405 112.356 75.9983C113.635 75.9983 115.069 77.9128 113.617 78.7635C115.644 78.9014 116.797 80.9063 114.245 81.4629C115.091 82.2156 113.755 85.6244 111.202 82.3191C110.472 83.5505 108.156 83.0665 108.078 81.2953C106.151 81.9607 105.27 79.7193 104.942 77.3653C102.505 76.914 103.957 72.2307 103.957 72.2307Z" fill="#F2D9BD"/>
<path d="M113.617 78.7635C114.972 77.9693 113.813 76.249 112.612 76.0231C112.524 76.1334 112.475 75.9456 112.304 75.9456C112.995 77.8122 110.831 79.2748 109.955 78.0088C110.627 79.5152 108.56 80.4419 108.143 78.1845C107.684 78.947 106.149 79.7655 105.598 77.303C105.598 77.303 105.026 77.6042 104.973 77.5807C105.325 79.8533 106.21 81.9404 108.078 81.2953C108.156 83.0665 110.472 83.5505 111.202 82.3191C113.755 85.6243 115.091 82.2156 114.245 81.4628C116.797 80.9062 115.644 78.9014 113.617 78.7635Z" fill="#D3B498"/>
<mask id="mask0_25_100" style="mask-type:alpha" maskUnits="userSpaceOnUse" x="103" y="71" width="13" height="13">
<path d="M103.389 71.2439H115.815V83.8677H103.389V71.2439Z" fill="black"/>
</mask>
<g mask="url(#mask0_25_100)">
<path d="M111.191 82.1348L111.284 82.2558C111.98 83.1569 112.652 83.6333 113.226 83.6333C113.683 83.6329 114.076 83.3158 114.278 82.7842C114.465 82.293 114.421 81.7583 114.176 81.5399L114.025 81.4047L114.223 81.3614C115.14 81.1615 115.644 80.7491 115.606 80.2296C115.562 79.6365 114.787 78.9472 113.61 78.8669L113.275 78.8441L113.565 78.6738C114.161 78.3242 114.175 77.8375 114.08 77.4904C113.883 76.7635 113.061 76.1017 112.356 76.1017H112.209L112.258 75.9631C112.401 75.564 112.267 74.9998 111.909 74.4901C111.507 73.9202 110.945 73.5656 110.441 73.5656C110.238 73.5656 110.049 73.6228 109.875 73.7349L109.748 73.8174L109.717 73.6684C109.42 72.2051 108.549 71.4634 107.128 71.4634C105.749 71.4634 104.294 72.1746 104.044 72.3025C103.938 72.6638 103.208 75.3073 103.987 76.5952C104.207 76.9597 104.535 77.1845 104.961 77.2635L105.034 77.277L105.045 77.3509C105.25 78.8296 105.834 81.3101 107.421 81.3101C107.617 81.3101 107.827 81.2722 108.045 81.1971L108.176 81.1519L108.182 81.2907C108.228 82.3358 109.105 82.8998 109.906 82.8998H109.907C110.435 82.8998 110.874 82.6686 111.113 82.2664L111.191 82.1348ZM113.226 83.8406C112.602 83.8406 111.924 83.3883 111.209 82.4961C110.921 82.8862 110.454 83.107 109.907 83.1074H109.906C109.043 83.1074 108.102 82.5217 107.985 81.4336C107.791 81.4895 107.601 81.5179 107.421 81.5179C106.14 81.5179 105.228 80.0748 104.849 77.4523C104.398 77.3506 104.049 77.0988 103.809 76.7023C102.929 75.2458 103.819 72.3239 103.858 72.2001L103.87 72.1596L103.907 72.1393C103.975 72.1034 105.567 71.2556 107.128 71.2556C108.594 71.2556 109.546 72.0269 109.89 73.4878C110.062 73.4021 110.247 73.3583 110.441 73.3583C111.011 73.3583 111.639 73.7466 112.078 74.3707C112.444 74.8909 112.594 75.4514 112.492 75.9011C113.257 75.9754 114.07 76.6611 114.281 77.4359C114.414 77.9271 114.275 78.3719 113.9 78.6909C114.926 78.8516 115.76 79.4988 115.813 80.2143C115.833 80.5023 115.736 81.1886 114.434 81.5246C114.643 81.839 114.664 82.3557 114.472 82.8578C114.238 83.4733 113.772 83.8403 113.226 83.8406Z" fill="#9E8772"/>
</g>
<path d="M40.7551 93.2697C40.7551 93.2697 38.906 97.9467 40.7725 99.8825C40.8672 101.696 40.7362 111.746 40.5997 112.602C40.4699 113.414 39.0274 114.054 39.8565 116.041C39.1323 116.888 37.9035 118.132 37.1777 118.582C38.2838 119.135 42.397 121.831 42.9846 121.935C43.503 121.624 43.9179 118.962 44.54 118.167C45.1622 117.372 45.871 117.054 45.9916 116.37C46.1473 115.488 44.4363 111.738 44.8338 102.924C44.9219 100.972 46.0017 99.5713 45.994 98.3272C45.9876 97.3247 45.3394 96.4904 45.994 92.034C44.9202 91.7595 40.7551 93.2697 40.7551 93.2697Z" fill="#FFE7D3"/>
<path d="M44.8338 102.924C44.9218 100.972 46.0017 99.5713 45.9939 98.3272C45.9875 97.3247 45.3394 96.4904 45.9939 92.034C45.5348 91.9168 44.5105 92.1258 43.4885 92.4035C43.6214 93.2321 43.8732 94.0162 44.0214 94.9052C45.1846 96.9531 43.7936 99.6762 43.2744 103.469C43.0438 105.153 43.9716 112.151 44.3066 114.374C44.5529 116.007 43.7881 116.499 43.5536 117.096C43.2073 117.976 43.3129 119.515 41.2129 120.812C41.8444 121.18 42.8088 121.903 42.9845 121.935C43.5029 121.624 43.9178 118.962 44.54 118.167C45.1621 117.372 45.871 117.054 45.9915 116.37C46.1473 115.488 44.4362 111.738 44.8338 102.924Z" fill="#D3B498"/>
<path d="M37.3821 118.571C37.8818 118.84 38.7496 119.372 39.6626 119.931C40.9574 120.723 42.5574 121.702 42.9629 121.823C43.1867 121.631 43.4295 120.838 43.6449 120.135C43.8905 119.334 44.1441 118.505 44.4585 118.103C44.6987 117.796 44.952 117.558 45.1758 117.349C45.536 117.01 45.8207 116.743 45.8898 116.352C45.9295 116.126 45.8267 115.652 45.6707 114.935C45.2418 112.96 44.4432 109.286 44.7303 102.919C44.7785 101.853 45.1176 100.95 45.4167 100.154C45.6727 99.4718 45.8938 98.8829 45.8903 98.3275C45.8888 98.0792 45.8467 97.8428 45.7932 97.5433C45.6392 96.6782 45.4071 95.3753 45.8773 92.117C45.8159 92.1088 45.7452 92.1045 45.6657 92.1045C44.3749 92.1045 41.2463 93.2047 40.8353 93.3516C40.6568 93.8263 39.1427 98.0427 40.8472 99.8103L40.8742 99.8381L40.8761 99.8768C40.9747 101.764 40.838 111.767 40.7022 112.619C40.6584 112.892 40.482 113.143 40.2955 113.408C39.8761 114.004 39.4008 114.679 39.9522 116.001L39.9768 116.06L39.9353 116.109C39.2063 116.962 38.1021 118.07 37.3821 118.571ZM43.0048 122.043L42.9666 122.037C42.6265 121.977 41.3946 121.234 39.5544 120.107C38.5398 119.486 37.5815 118.9 37.1315 118.675L36.9653 118.592L37.1233 118.494C37.8017 118.074 38.9645 116.918 39.7365 116.022C39.1802 114.632 39.7039 113.889 40.1259 113.289C40.3057 113.033 40.4612 112.812 40.4974 112.586C40.6316 111.744 40.7655 101.901 40.6709 99.9258C38.824 97.9495 40.5827 93.4245 40.6588 93.2317L40.6759 93.1883L40.72 93.1724C40.8636 93.1204 44.2536 91.8968 45.6657 91.8968C45.8057 91.8968 45.9248 91.9093 46.0198 91.9337L46.1102 91.9565L46.0967 92.049C45.6124 95.3461 45.8441 96.6463 45.9974 97.5068C46.0504 97.8036 46.0962 98.0605 46.0977 98.3265C46.1015 98.9203 45.8741 99.5255 45.6107 100.226C45.3171 101.008 44.9842 101.895 44.9374 102.929C44.6516 109.268 45.4464 112.926 45.8735 114.891C46.0402 115.658 46.1409 116.122 46.094 116.388C46.0128 116.847 45.6907 117.149 45.3176 117.5C45.0995 117.704 44.8521 117.937 44.6217 118.231C44.3312 118.602 44.0832 119.412 43.8431 120.195C43.5724 121.079 43.3386 121.843 43.0382 122.024L43.0048 122.043Z" fill="#A18C80"/>
<path d="M37.5639 118.307C36.4194 118.542 34.0668 120.293 34.2051 120.794C34.3434 121.295 36.1407 121.701 37.1776 121.52C35.4927 123.317 40.6514 124.017 42.9418 122.535C43.268 122.324 43.8515 121.505 42.7901 120.802C42.5532 120.646 38.9838 118.016 37.5639 118.307Z" fill="#313131"/>
<path d="M39.7054 118.988C39.076 118.72 37.9701 118.224 37.5641 118.307C36.4841 118.529 34.33 120.099 34.2061 120.697C35.0002 120.094 37.1159 118.957 37.6186 118.819C37.9987 118.716 38.9939 118.856 39.7054 118.988Z" fill="#5B5B5B"/>
<path d="M39.537 118.929C37.178 119.597 36.6594 121.347 34.1255 120.738C34.5273 121.334 35.9884 121.627 36.9246 121.55C37.969 120.632 39.4334 119.221 39.537 118.929Z" fill="#1D1D1D"/>
<path d="M42.7901 120.802C42.7394 120.769 42.2558 120.411 41.9541 120.204C42.4141 121.771 38.2894 123.461 36.8501 122.22C36.914 123.472 40.9791 123.805 42.9418 122.535C43.268 122.324 43.8515 121.505 42.7901 120.802Z" fill="#1D1D1D"/>
<path d="M37.4661 121.364L37.2534 121.591C36.978 121.884 36.8892 122.151 36.9896 122.382C37.2072 122.885 38.3106 123.235 39.6733 123.235C39.6734 123.235 39.6734 123.235 39.6734 123.235C40.9232 123.235 42.1242 122.941 42.8858 122.448C43.0429 122.346 43.2929 122.058 43.2946 121.717C43.2961 121.415 43.1072 121.137 42.7331 120.889C42.7133 120.876 42.671 120.846 42.6092 120.802C40.2023 119.107 38.3876 118.244 37.585 118.409C36.632 118.604 34.7727 119.917 34.3726 120.571C34.295 120.697 34.3014 120.752 34.3053 120.766C34.3982 121.104 35.5829 121.46 36.6097 121.46C36.8136 121.46 36.9988 121.446 37.1599 121.418L37.4661 121.364ZM39.6734 123.442C39.6734 123.442 39.6734 123.442 39.6733 123.442C38.1846 123.442 37.0565 123.058 36.7992 122.464C36.7206 122.283 36.6914 122.005 36.9342 121.655C36.8318 121.663 36.7235 121.668 36.6097 121.668C35.6614 121.668 34.25 121.345 34.1054 120.821C34.0783 120.724 34.1079 120.606 34.1958 120.462C34.6202 119.769 36.5229 118.415 37.5433 118.205C38.427 118.024 40.227 118.87 42.7287 120.633C42.7881 120.675 42.8286 120.704 42.8476 120.716C43.3907 121.076 43.5032 121.459 43.502 121.718C43.5 122.144 43.1997 122.492 42.9984 122.622C42.1928 123.144 40.9807 123.442 39.6734 123.442Z" fill="black"/>
<path d="M50.2428 93.8683C50.2428 93.8683 49.5171 96.1323 49.8022 97.4455C50.0874 98.7585 51.0206 99.0327 51.4355 100.65C51.8501 102.267 52.8232 112.029 52.4902 112.944C52.0838 114.062 51.0725 115.46 50.4505 116.249C51.3662 116.836 55.0473 118.893 55.7391 119.135C56.0154 118.443 55.803 117.136 55.9894 115.995C56.1462 115.032 57.9992 114.105 58.172 112.688C58.3448 111.271 55.4279 103.247 55.324 100.217C55.2203 97.1863 56.0498 93.5052 53.5094 92.8829C52.4206 93.3495 50.2428 93.8683 50.2428 93.8683Z" fill="#FFE7D3"/>
<path d="M55.3241 100.217C55.2204 97.1863 56.0499 93.5052 53.5094 92.8829C53.2484 92.995 52.9249 93.1097 52.5835 93.2196C54.4686 95.3198 53.5322 97.9957 53.976 100.505C54.4946 103.434 56.6562 110.646 56.6548 112.17C56.6533 113.634 55.3629 113.431 54.9355 114.283C54.4426 115.264 54.4098 116.871 53.9135 118.222C54.7481 118.672 55.47 119.041 55.7392 119.135C56.0155 118.443 55.8031 117.136 55.9895 115.995C56.1463 115.032 57.9993 114.105 58.1721 112.688C58.3449 111.271 55.428 103.247 55.3241 100.217Z" fill="#D3B498"/>
<path d="M50.6028 116.222C51.6386 116.869 54.8469 118.653 55.6764 118.999C55.7884 118.635 55.792 118.11 55.7956 117.557C55.7988 117.036 55.8023 116.497 55.887 115.978C55.962 115.517 56.3865 115.077 56.836 114.611C57.3708 114.056 57.9776 113.427 58.069 112.676C58.1472 112.036 57.5401 109.882 56.8976 107.603C56.1373 104.906 55.276 101.85 55.2205 100.22C55.1978 99.5561 55.2199 98.8551 55.2412 98.177C55.3169 95.7605 55.3888 93.4771 53.518 92.9921C52.5244 93.4106 50.6741 93.8701 50.3247 93.9551C50.2176 94.3082 49.6522 96.2654 49.9036 97.4236C50.037 98.037 50.321 98.422 50.6223 98.83C50.9481 99.2702 51.3167 99.7698 51.5358 100.624C51.9558 102.261 52.9347 112.026 52.5877 112.98C52.1656 114.14 51.1088 115.574 50.6028 116.222ZM55.7981 119.266L55.7045 119.233C54.9883 118.982 51.2994 116.916 50.3944 116.336L50.2984 116.274L50.3691 116.185C50.8335 115.596 51.96 114.099 52.3928 112.909C52.6976 112.07 51.7837 102.425 51.3349 100.676C51.1259 99.8604 50.7851 99.3992 50.4555 98.9529C50.1407 98.5269 49.8435 98.1245 49.701 97.4676C49.4133 96.1427 50.1145 93.9301 50.1444 93.8366L50.1621 93.7808L50.2191 93.7673C50.2408 93.7619 52.4003 93.2456 53.4685 92.7876L53.5002 92.7741L53.5339 92.7823C55.6021 93.289 55.5274 95.6666 55.4485 98.1834C55.4271 98.8581 55.4052 99.5558 55.4275 100.213C55.4827 101.818 56.3404 104.862 57.097 107.546C57.7734 109.947 58.358 112.02 58.2748 112.701C58.1749 113.521 57.5429 114.176 56.9854 114.754C56.559 115.197 56.1565 115.615 56.0918 116.011C56.0097 116.515 56.0065 117.045 56.0029 117.558C55.999 118.183 55.9951 118.773 55.8351 119.173L55.7981 119.266Z" fill="#A18C80"/>
<path d="M50.568 116.098C49.4959 116.563 47.524 119.006 47.7619 119.468C47.9999 119.931 49.8422 119.96 50.8201 119.57C50.2258 121.71 53.8552 120.812 55.0777 120.245C55.9259 119.852 56.5555 118.495 55.8938 118.024C55.6623 117.86 51.8983 115.522 50.568 116.098Z" fill="#313131"/>
<path d="M54.2749 117.096C53.2035 116.473 51.1737 115.836 50.5678 116.098C49.6952 116.476 47.8666 118.644 47.7617 119.331C48.6525 118.297 49.7734 117.104 50.7526 116.75C51.5648 116.456 53.2163 116.865 54.2749 117.096Z" fill="#5B5B5B"/>
<path d="M52.3155 117.537C51.0841 118.025 49.0938 119.783 47.7617 119.468C48.1679 119.885 49.5714 119.904 50.4139 119.698C51.1502 119.454 51.8199 118.229 52.3155 117.537Z" fill="#1D1D1D"/>
<path d="M55.894 118.024C55.8039 117.96 55.0314 117.518 54.2226 117.096C55.3815 119.152 51.9135 120.6 50.8267 120.365C51.3042 121.436 54.0471 120.723 55.0779 120.245C55.926 119.852 56.5557 118.495 55.894 118.024Z" fill="#1D1D1D"/>
<path d="M50.9762 119.396L50.92 119.598C50.8187 119.963 50.8432 120.248 50.9933 120.445C51.18 120.691 51.5801 120.821 52.1497 120.821C53.1983 120.821 54.4757 120.41 55.0344 120.151C55.5493 119.912 56.0105 119.267 56.0616 118.712C56.0791 118.523 56.0535 118.266 55.8338 118.109C55.5475 117.905 52.6031 116.111 51.0836 116.111C50.8955 116.111 50.7358 116.139 50.6093 116.194C49.7465 116.567 48.1791 118.37 47.8875 119.185C47.8274 119.354 47.8495 119.411 47.8541 119.421C47.95 119.607 48.4859 119.737 49.1574 119.737C49.7615 119.737 50.3685 119.639 50.7818 119.474L50.9762 119.396ZM52.15 121.028H52.1497C51.5035 121.028 51.0588 120.874 50.8283 120.571C50.6658 120.357 50.6154 120.075 50.6768 119.731C50.2555 119.866 49.7036 119.944 49.1574 119.944C48.86 119.944 47.8747 119.913 47.6699 119.515C47.6218 119.422 47.6293 119.292 47.6922 119.115C47.9999 118.255 49.6022 116.404 50.5272 116.003C50.6797 115.937 50.8671 115.903 51.0836 115.903C52.7841 115.903 55.9251 117.92 55.9539 117.94C56.1883 118.107 56.3 118.388 56.2679 118.731C56.2095 119.362 55.706 120.068 55.1215 120.339C54.5468 120.605 53.2318 121.028 52.15 121.028Z" fill="black"/>
<path d="M56.7415 92.9003C56.7415 92.9003 58.124 95.8902 55.1946 95.3718C55.7394 96.3827 54.5292 98.0849 52.4554 96.6333C50.9 97.4974 49.5693 97.0825 49.8805 95.2419C48.7656 94.9827 47.7287 92.3904 48.4544 92.0793C53.717 90.1092 56.7415 92.9003 56.7415 92.9003Z" fill="#D3B498"/>
<path d="M52.4614 96.5111L52.5143 96.5485C53.0297 96.909 53.5161 97.0915 53.9599 97.0915H53.9602C54.43 97.0915 54.8282 96.8759 55.0527 96.4997C55.2574 96.1569 55.2767 95.7437 55.1031 95.4209L55.0014 95.2324L55.2123 95.2697C55.4327 95.3088 55.6358 95.3283 55.8158 95.3283H55.8161C56.2959 95.3283 56.6287 95.1886 56.8047 94.9134C57.2073 94.2847 56.7268 93.1265 56.6557 92.9629C56.4826 92.8136 54.8606 91.479 52.1019 91.479C50.9416 91.479 49.7265 91.714 48.4905 92.1763C48.3087 92.2546 48.307 92.5604 48.3225 92.7357C48.3951 93.5572 49.1322 94.9618 49.9036 95.141L49.9984 95.163L49.9822 95.2594C49.8805 95.861 49.9569 96.3333 50.2029 96.6245C50.6006 97.0947 51.4735 97.0601 52.4049 96.5424L52.4614 96.5111ZM53.9599 97.2991C53.488 97.2991 52.9802 97.1159 52.4489 96.755C51.4429 97.2955 50.5006 97.298 50.0447 96.7582C49.7713 96.435 49.6745 95.9379 49.7634 95.3167C48.9214 95.0325 48.1906 93.6002 48.116 92.7539C48.0704 92.2425 48.2528 92.0529 48.4137 91.9839C49.6774 91.5111 50.9166 91.2717 52.1019 91.2717C55.0949 91.2717 56.7428 92.7605 56.8115 92.8243L56.8353 92.8566C56.8612 92.9135 57.4717 94.2549 56.9796 95.0247C56.763 95.3639 56.3716 95.5357 55.8161 95.5357H55.8158C55.6768 95.5357 55.5252 95.5246 55.3638 95.5034C55.4826 95.8547 55.4363 96.2618 55.2308 96.606C54.9677 97.0463 54.5047 97.2991 53.9602 97.2991H53.9599Z" fill="#9E8772"/>
<path d="M82.2847 99.5713C80.7983 106.009 75.6136 114.918 73.1191 116.015C74.2079 116.118 75.9592 117.432 76.5122 118.163C77.3073 118.236 81.1783 117.579 81.8697 116.542C83.0044 114.841 81.9884 112.84 82.6214 111.185C83.4945 108.904 85.9139 100.919 86.3979 99.7787C85.7065 99.2946 82.5161 98.5681 82.2847 99.5713Z" fill="#FFE7D3"/>
<path d="M86.3979 99.7787C86.0882 99.5618 85.2771 99.2969 84.4549 99.1599C83.2178 104.652 81.7922 108.664 81.0177 110.597C80.3965 112.15 81.1959 114.14 80.7808 115.073C80.3438 116.057 78.8916 116.872 75.667 117.132C76.044 117.436 76.3299 117.922 76.5122 118.163C77.3073 118.236 81.1784 117.579 81.8697 116.542C83.0044 114.841 81.9885 112.84 82.6215 111.185C83.4945 108.904 85.914 100.919 86.3979 99.7787Z" fill="#D3B498"/>
<path d="M76.566 118.063C77.4411 118.11 81.135 117.457 81.7837 116.485C82.4074 115.549 82.3605 114.499 82.3146 113.483C82.2794 112.697 82.2427 111.885 82.5248 111.148C82.9803 109.957 83.875 107.156 84.6644 104.685C85.3553 102.522 86.0097 100.474 86.2692 99.8191C85.766 99.5226 84.4141 99.172 83.4631 99.172C83.0161 99.172 82.466 99.2453 82.3858 99.5945C80.9249 105.922 75.9668 114.407 73.4327 115.966C74.5462 116.243 76.0486 117.41 76.566 118.063ZM76.6574 118.272H76.657C76.598 118.272 76.546 118.27 76.5031 118.266L76.4571 118.262L76.4297 118.225C75.9159 117.547 74.2009 116.222 73.1095 116.119L72.6323 116.237L73.0775 115.92C75.4721 114.867 80.6796 106.062 82.1834 99.5478C82.2452 99.2818 82.5169 98.9643 83.4631 98.9643C84.5146 98.9643 85.9883 99.3655 86.4574 99.6937L86.526 99.7416L86.4932 99.8191C86.2646 100.359 85.5832 102.491 84.862 104.748C84.0719 107.222 83.1761 110.026 82.7186 111.222C82.4519 111.919 82.4861 112.674 82.5219 113.473C82.5688 114.522 82.6179 115.607 81.9561 116.6C81.2791 117.615 77.7334 118.272 76.6574 118.272Z" fill="#A18C80"/>
<path d="M74.4036 115.419C73.548 115.441 70.2399 118.063 69.8768 118.655C69.6546 119.018 71.12 120.155 73.0036 119.506C71.604 122.267 79.0353 121.295 78.4734 119.558C78.0012 118.098 75.4622 115.392 74.4036 115.419Z" fill="#313131"/>
<path d="M77.6271 118.081C76.652 116.79 75.1421 115.4 74.4039 115.419C73.661 115.439 70.7487 117.666 69.8931 118.72C71.3469 117.936 73.4878 116.301 74.3 116.266C75.6428 116.209 76.0716 117.069 77.6271 118.081Z" fill="#5B5B5B"/>
<path d="M69.7539 118.771C69.9709 119.199 71.2545 119.959 72.7029 119.594C73.7995 118.773 74.6431 117.751 75.6021 116.984C74.0553 117.191 71.725 119.748 69.7539 118.771Z" fill="#1D1D1D"/>
<path d="M78.4736 119.558C78.3535 119.187 77.8524 118.41 77.5231 117.942C78.033 119.766 73.8693 120.96 72.9434 120.448C73.0382 121.917 79.0045 121.2 78.4736 119.558Z" fill="#1D1D1D"/>
<path d="M73.2124 119.325L73.0965 119.554C72.9017 119.938 72.88 120.259 73.0321 120.507C73.2764 120.905 73.9755 121.133 74.9507 121.133H74.9509C76.3638 121.133 77.8573 120.66 78.2797 120.079C78.3982 119.917 78.4294 119.757 78.3754 119.59C77.896 118.108 75.3822 115.523 74.42 115.523C73.6402 115.542 70.3402 118.098 69.9657 118.709C69.9505 118.734 69.9605 118.783 69.9924 118.841C70.1635 119.146 70.8761 119.599 71.8618 119.599C72.2303 119.599 72.6033 119.535 72.9703 119.409L73.2124 119.325ZM74.9509 121.34C74.9507 121.34 74.9507 121.34 74.9507 121.34C74.3343 121.34 73.2429 121.246 72.8558 120.615C72.694 120.352 72.6812 120.036 72.8173 119.673C72.4998 119.761 72.1793 119.806 71.8618 119.806C70.7815 119.806 70.0127 119.301 69.8114 118.942C69.7151 118.77 69.756 118.655 69.7888 118.601C70.1581 117.999 73.4934 115.339 74.4011 115.316C75.57 115.315 78.0916 118.039 78.5728 119.526C78.6474 119.757 78.6051 119.985 78.4476 120.202C77.9291 120.914 76.2624 121.34 74.9509 121.34Z" fill="black"/>
<path d="M79.0181 94.9052C79.0181 94.9052 80.2232 96.8471 81.5934 97.6358C80.6513 98.586 81.0014 102.384 83.5979 99.9515C84.1768 100.867 86.6397 101.68 86.8815 99.1219C87.815 99.1913 89.232 98.8456 88.7136 96.5986C90.9602 96.547 92.1096 93.4532 89.3099 92.3645C87.6247 92.0793 84.7213 91.5092 82.1289 92.209C79.5366 92.9089 79.0181 94.9052 79.0181 94.9052Z" fill="#D3B498"/>
<path d="M83.6187 99.7901L83.6859 99.896C83.9408 100.3 84.6543 100.736 85.3612 100.736C86.1763 100.736 86.6794 100.159 86.7786 99.1123L86.7881 99.011L86.8895 99.0184C86.9557 99.0234 87.025 99.0263 87.0951 99.0263C87.5073 99.0263 88.0712 98.9349 88.4165 98.5007C88.7405 98.0935 88.8066 97.4616 88.6128 96.6221L88.5839 96.4983L88.7113 96.4951C89.9019 96.4676 90.6767 95.5875 90.8271 94.7324C90.9981 93.7584 90.4209 92.9113 89.2821 92.465L88.984 92.4138C87.9133 92.23 86.4464 91.9779 84.9067 91.9779C83.8957 91.9779 82.9704 92.0892 82.1562 92.3093C79.8569 92.9302 79.2239 94.6036 79.1313 94.8895C79.31 95.1669 80.4201 96.8403 81.6451 97.5458L81.7621 97.613L81.6672 97.7087C81.2166 98.1632 81.0759 99.3306 81.3823 100.066C81.4929 100.332 81.7113 100.648 82.1241 100.648C82.1241 100.648 82.1241 100.648 82.1245 100.648C82.5079 100.648 82.98 100.388 83.5273 99.8758L83.6187 99.7901ZM85.3612 100.943C84.6304 100.943 83.9139 100.534 83.5813 100.108C83.0306 100.604 82.5405 100.856 82.1241 100.856C81.7131 100.855 81.3816 100.604 81.1911 100.146C80.8714 99.3794 80.9944 98.2223 81.4336 97.6607C80.1037 96.8346 78.9788 95.0379 78.9302 94.9597L78.9067 94.9223L78.918 94.8788C78.9234 94.8585 79.4821 92.8163 82.1021 92.1092C82.9339 91.8844 83.8772 91.7705 84.9067 91.7705C86.4642 91.7705 87.9411 92.0244 89.0192 92.2097L89.3478 92.2681C90.8128 92.8377 91.1777 93.9333 91.0312 94.7682C90.8716 95.6764 90.0726 96.6099 88.8414 96.6967C89.0156 97.5416 88.9274 98.1916 88.5791 98.6297C88.1818 99.1286 87.5527 99.2335 87.0951 99.2335C87.0546 99.2335 87.014 99.2328 86.9745 99.231C86.8415 100.321 86.2572 100.943 85.3612 100.943Z" fill="#9E8772"/>
<path d="M94.2614 99.0682C94.9354 102.786 95.1615 110.59 94.5207 112.585C93.4492 115.92 91.401 117.83 90.4722 118.538C91.2025 119.031 95.1515 122.509 95.4278 122.734C95.8944 122.82 97.2165 122.5 97.5408 122.034C97.8078 121.649 97.545 118.962 98.098 118.323C98.651 117.683 99.8436 118.081 99.8956 116.352C99.9471 114.624 98.1499 111.236 98.6165 108.618C99.083 106 100.379 98.7936 99.5495 98.1195C98.5646 98.2752 94.0218 97.7468 94.2614 99.0682Z" fill="#FFE7D3"/>
<path d="M98.6164 108.618C99.0828 106 100.379 98.7936 99.5494 98.1195C99.2243 98.171 98.5106 98.1478 97.7099 98.1412C98.6764 102.85 96.7757 106.882 97.1001 110.155C97.2295 111.46 98.8887 115.281 98.5256 116.447C98.398 116.857 97.2822 117.117 96.6722 117.809C95.998 118.573 95.8391 121.053 95.6108 122.593C95.9355 122.875 97.2163 122.5 97.5407 122.034C97.8076 121.649 97.5448 118.962 98.0978 118.323C98.6508 117.683 99.8435 118.081 99.8954 116.352C99.9469 114.624 98.1498 111.236 98.6164 108.618Z" fill="#D3B498"/>
<path d="M95.4718 122.636C95.5113 122.642 95.5579 122.644 95.6106 122.644C96.1552 122.644 97.1983 122.344 97.455 121.975C97.5471 121.843 97.5692 121.262 97.5905 120.701C97.6268 119.745 97.6683 118.661 98.0194 118.255C98.2206 118.022 98.4955 117.917 98.7611 117.815C99.2742 117.618 99.759 117.432 99.7912 116.35C99.8119 115.672 99.542 114.736 99.2295 113.653C98.7611 112.03 98.2306 110.19 98.514 108.6L98.5307 108.506C98.9517 106.145 100.221 99.024 99.514 98.2294C99.366 98.2474 99.1484 98.2556 98.822 98.2556C98.6285 98.2556 98.413 98.2531 98.1837 98.2503C97.9241 98.2467 97.6467 98.2433 97.364 98.2433C96.6781 98.2433 94.8566 98.2433 94.4406 98.7411C94.367 98.8296 94.3414 98.9306 94.3631 99.0497C95.0202 102.675 95.2719 110.583 94.6188 112.617C93.5538 115.932 91.5631 117.81 90.6452 118.535C91.3564 119.063 93.5174 120.941 94.7112 121.978C95.092 122.309 95.3762 122.556 95.4718 122.636ZM95.6106 122.852C95.5333 122.852 95.4654 122.846 95.4085 122.836L95.3826 122.831L95.3619 122.814C95.2919 122.758 95.0068 122.51 94.5753 122.135C93.3108 121.036 90.9568 118.991 90.4138 118.624L90.2939 118.543L90.4088 118.456C91.2516 117.814 93.3293 115.953 94.4214 112.553C95.0672 110.543 94.8126 102.692 94.159 99.0867C94.126 98.906 94.1675 98.745 94.2817 98.6084C94.7027 98.1042 96.0761 98.0359 97.364 98.0359C97.6478 98.0359 97.9259 98.0395 98.1865 98.0429C98.4144 98.0459 98.6291 98.0484 98.822 98.0484C99.1769 98.0484 99.3962 98.0388 99.5332 98.017L99.579 98.0099L99.6145 98.0391C100.383 98.6634 99.5484 103.98 98.7349 108.542L98.718 108.636C98.4433 110.179 98.967 111.994 99.429 113.595C99.7458 114.695 100.02 115.645 99.9986 116.356C99.962 117.576 99.3635 117.806 98.8354 118.008C98.5826 118.105 98.3437 118.197 98.1758 118.39C97.8728 118.741 97.8313 119.832 97.7978 120.709C97.7686 121.477 97.7458 121.919 97.6257 122.093C97.3088 122.549 96.203 122.852 95.6106 122.852Z" fill="#A18C80"/>
<path d="M91.2713 117.978C90.4384 118.175 87.9298 121.434 87.6961 122.088C87.5528 122.489 89.2202 123.301 90.931 122.28C90.1273 125.269 97.6137 123.455 96.8016 122.073C96.0242 120.749 92.3014 117.734 91.2713 117.978Z" fill="#313131"/>
<path d="M91.4486 118.742C92.2262 118.577 94.0459 119.939 95.6881 120.776C94.2613 119.395 92.0325 117.798 91.2715 117.978C90.5262 118.155 88.4391 120.782 87.8418 121.801C88.9729 120.892 90.5994 118.921 91.4486 118.742Z" fill="#5B5B5B"/>
<path d="M87.6245 122.116C87.9443 122.693 89.4118 123.096 90.6446 122.5C91.0554 122.256 92.2975 120.433 92.7768 119.602C91.4351 119.939 89.6205 122.748 87.6245 122.116Z" fill="#1D1D1D"/>
<path d="M96.8016 122.073C96.6145 121.754 96.2557 121.337 95.8055 120.892C96.1793 122.306 91.8462 123.938 90.894 122.962C91.0857 124.847 97.5572 123.359 96.8016 122.073Z" fill="#1D1D1D"/>
<mask id="mask1_25_100" style="mask-type:alpha" maskUnits="userSpaceOnUse" x="87" y="117" width="10" height="7">
<path d="M87.5649 117.828H96.9883V124H87.5649V117.828Z" fill="black"/>
</mask>
<g mask="url(#mask1_25_100)">
<path d="M91.0973 122.06L91.0308 122.307C90.927 122.693 90.9665 123.009 91.1479 123.246C91.4185 123.599 92.0251 123.793 92.8568 123.793C92.8571 123.793 92.8571 123.793 92.8571 123.793C94.3905 123.793 96.3303 123.133 96.7012 122.485C96.7752 122.356 96.7787 122.238 96.7122 122.125C95.9531 120.834 92.4912 118.068 91.4021 118.068C91.3626 118.068 91.3264 118.071 91.295 118.079C90.5227 118.262 88.0285 121.465 87.7934 122.123C87.7832 122.152 87.8076 122.194 87.8233 122.216C87.9564 122.405 88.4709 122.671 89.1987 122.671C89.7706 122.671 90.3512 122.505 90.878 122.19L91.0973 122.06ZM92.8575 124C92.8575 124 92.8571 124 92.8568 124C92.222 124 91.3814 123.891 90.9831 123.372C90.7989 123.132 90.7321 122.833 90.7834 122.481C90.2794 122.741 89.736 122.878 89.1987 122.878C88.4353 122.878 87.8436 122.605 87.6537 122.336C87.568 122.214 87.5762 122.115 87.5983 122.053C87.829 121.408 90.3437 118.091 91.2471 117.877C91.2943 117.866 91.3462 117.861 91.4021 117.861C92.6453 117.861 96.1632 120.782 96.8908 122.02C96.9953 122.198 96.9918 122.394 96.8811 122.588C96.4733 123.301 94.4801 124 92.8575 124Z" fill="black"/>
</g>
<path d="M102.572 68.1434C102.572 68.1434 105 65.2485 100.913 65.1016C101.051 63.8574 101.345 62.4617 98.2602 62.9247C99.5128 60.7291 97.4909 59.3466 95.2269 61.2477C95.2962 59.5023 94.5011 57.8431 91.7534 58.8456C91.4077 57.8086 89.3164 54.3522 87.3634 57.8086C87.2426 56.5989 85.9984 55.2164 84.6503 57.4975C84.2356 56.5385 83.38 53.8943 81.1764 56.6938C80.8393 56.0847 80.1526 55.6181 79.0638 56.2273C78.8046 55.5271 76.3893 53.4707 75.2659 56.6679C74.9203 55.4927 72.5873 54.8706 72.0343 57.4285C71.3081 56.6853 69.3556 56.3308 69.0185 58.6383C68.5519 58.3012 67.437 57.2123 66.2963 58.1713C66.063 56.7845 65.3761 54.5293 63.1208 56.0975C62.8616 54.5421 60.8005 54.62 59.9539 55.3892C60.2131 54.093 60.0922 51.7425 57.1194 51.5697C58.0353 50.8958 58.6705 49.2366 56.1474 48.4762C56.7047 47.5169 57.1107 45.426 55.1148 45.3481C55.3222 44.4406 56.0305 42.3582 54.6568 42.0471C55.1752 41.4251 56.2208 39.9386 53.9395 38.7979C55.5814 38.0377 57.0774 35.3596 54.7343 32.9739C52.2978 31.522 51.6584 30.0878 48.202 30.0878C48.202 30.0878 35.9131 39.6332 34.7635 40.8028C33.4772 41.3558 31.749 43.1529 32.3021 44.6049C31.749 45.3307 31.0532 48.0269 32.196 48.9599C30.2627 49.271 29.8637 51.587 31.4535 52.7968C29.6061 52.9697 29.0249 55.9422 31.0664 56.564C29.8135 56.9791 28.6383 59.0874 30.6084 59.6404C29.6536 59.8825 28.703 61.376 30.3492 62.3191C28.8111 62.749 28.379 65.0845 30.2109 65.8794C29.0875 66.8299 28.2234 68.9038 30.4356 70.2863C29.2906 72.1963 30.1591 73.5571 31.6886 73.6737C30.5998 74.7106 30.2974 76.8364 33.1316 76.298C32.0904 77.8861 33.1143 81.0621 36.4455 80.4656C36.4109 81.0879 35.4215 83.2525 37.288 83.9005C36.2381 84.3542 36.0955 87.141 38.299 87.9706C37.6078 88.4499 36.83 90.9733 39.1805 91.4573C38.2817 92.0447 37.8325 96.4346 41.6691 94.205C41.9802 95.4493 44.9009 96.4691 45.1169 93.2979C45.8946 93.6478 47.2815 92.7922 47.5797 91.25C48.2276 91.5092 49.9647 96.4844 51.9866 93.2957C52.3238 95.3198 56.3416 96.3308 55.426 92.5113C56.0824 93.2957 58.6747 94.3114 59.6081 92.0266C59.6765 93.4532 60.8005 94.9308 62.0277 92.7016C62.2525 93.5138 64.3953 94.8273 65.7607 92.9608C66.3308 93.8423 67.7222 94.8792 69.0572 92.9738C69.3207 94.2398 71.7619 96.5125 72.9197 93.9198C73.205 95.2159 75.2315 97.0739 76.9942 94.7928C77.2189 96.6244 80.2952 97.3677 80.7098 93.9977C81.4403 95.0691 83.7686 95.3803 84.0973 92.5113C84.4775 93.5485 86.7067 94.6889 87.1906 92.235C87.5017 92.6496 88.6941 93.6606 89.8348 92.9088C90.0422 93.4532 87.6583 95.4897 92.143 96.786C92.0641 98.042 92.099 100.15 94.4491 99.9775C94.7947 100.773 97.8366 102.086 98.1132 99.1134C98.9773 99.4935 101.293 99.6493 99.8675 96.8752C100.515 96.7199 101.449 94.9052 99.8675 93.8423C100.93 93.7384 101.899 92.235 98.8821 89.4869C100.1 89.2796 101.76 88.1239 101.293 85.9981C102.538 85.8942 104.508 83.8358 102.9 82.3322C103.988 82.099 104.559 80.8287 104.041 79.8953C104.663 79.6361 106.867 77.9513 104.456 75.2811C105.363 75.1252 107.342 73.7083 104.715 71.8072C105.441 71.2888 107.031 67.0376 102.572 68.1434Z" fill="#F2D9BD"/>
<path d="M62.6612 77.6433C62.6501 77.4747 62.6285 77.3044 62.5943 77.1341C62.4862 77.3506 62.548 77.5103 62.6612 77.6433Z" fill="#F2D9BD"/>
<path d="M66.414 71.9473C67.4845 73.1258 66.8792 74.1111 64.5305 73.1258C66.535 76.9264 64.9451 77.8264 61.8169 75.5282C62.4634 78.1205 61.6355 79.7061 59.1466 77.1341C59.4837 78.6951 58.8359 80.7945 57.103 79.3044C57.6432 80.2829 58.1677 81.2178 59.0951 80.4446C59.0951 80.4446 60.106 79.3562 59.8988 78.9413C60.4315 79.549 61.1776 80.2893 62.0071 79.8747C62.7003 79.3548 63.1304 78.6561 62.7479 77.0771C62.7819 77.2478 65.5325 79.3128 66.535 76.9264C66.9499 76.0967 66.5805 74.8646 66.0361 74.4628C67.125 74.2882 67.8977 73.8603 67.8184 73.0436C67.4038 72.4217 67.1701 72.3761 66.414 71.9473Z" fill="#D3B498"/>
<path d="M55.1285 63.8609C55.1285 63.8609 54.8146 63.4385 54.0123 63.1401C55.6729 64.623 53.1066 64.9167 51.5511 64.4502C52.8819 66.3683 52.0697 67.1634 49.8661 66.0831C50.229 68.8657 49.1396 69.3041 47.0922 67.8981C47.4292 70.2052 45.549 71.6362 44.111 68.1053C43.5407 69.3497 41.1983 70.2309 40.2371 67.3889C40.1757 68.6079 40.1897 69.3077 41.0952 70.0324C41.9249 70.447 43.2552 70.5004 44.0127 70.0331C44.2199 70.8628 45.122 71.8122 45.7443 72.0199C47.6368 71.9291 48.5958 70.6025 48.0446 69.8144C49.244 70.1792 49.7754 70.1792 50.6049 69.5569C51.2141 68.9261 51.0395 67.7121 50.8424 67.2584C51.6678 67.7942 52.7695 67.4896 52.938 67.2111C53.1823 67.0806 53.3182 65.873 52.4196 65.1543C53.4565 65.5689 55.5432 65.5202 55.1285 63.8609Z" fill="#D3B498"/>
<path d="M54.0918 57.0626C54.0954 57.0477 54.0989 57.0332 54.1028 57.0186C54.0993 57.0182 54.0954 57.0179 54.0918 57.0175C54.0918 57.0325 54.0918 57.0473 54.0918 57.0626Z" fill="#F2D9BD"/>
<path d="M54.0917 57.6394C54.0917 57.4473 54.0917 57.2549 54.0917 57.0626C54.0525 57.2301 54.0479 57.4204 54.0917 57.6394Z" fill="#F2D9BD"/>
<path d="M49.1141 40.0115C49.5287 39.3892 50.5657 38.7674 51.3952 39.3892C52.3084 40.1196 52.095 41.6523 51.0407 42.292C51.5983 44.921 49.6325 46.2279 47.6625 46.2331C49.3214 47.8924 51.6029 45.4035 53.2618 46.4404C53.8841 46.8554 53.4691 47.8924 53.0545 48.7217C54.9729 48.5072 56.0746 50.1664 54.6795 52.1272C56.0873 51.8641 57.2196 53.6834 56.442 55.1523C56.1251 55.7504 55.8406 56.2838 55.837 56.3016C55.2667 56.2237 54.2678 56.4239 54.1024 57.0185C54.5405 56.7972 55.7442 56.8709 56.2603 57.043C57.7057 54.0105 59.7625 55.5349 59.9168 55.2447C60.2699 53.156 59.4817 51.6831 57.0866 51.5437C58.0027 50.8698 58.6378 49.2106 56.1144 48.4504C56.672 47.4909 57.0782 45.4 55.0821 45.3221C55.2895 44.4146 55.9977 42.3322 54.6241 42.0211C55.1425 41.3991 56.188 39.9128 53.9068 38.7719C55.5487 38.0117 57.0447 35.3336 54.7016 32.9479C52.2651 31.4963 51.6257 30.0618 48.1689 30.0618C48.1689 30.0618 35.8802 39.6072 34.7307 40.7768C34.1572 41.0232 33.4965 41.5176 32.9888 42.1178C36.8943 44.2112 44.5476 43.9822 49.1141 40.0115Z" fill="#D3B498"/>
<path d="M42.3106 56.1366C43.6963 60.2506 45.2129 57.5025 45.1351 56.5953C45.7572 57.8396 49.0236 58.2673 48.2782 55.5011C50.5142 55.8045 50.1878 54.0898 49.3582 53.4675C50.1878 53.8824 52.7695 53.7438 50.9808 51.5273C51.4474 53.0955 49.2871 53.0436 48.8725 52.4217C49.968 54.8294 47.8526 54.4781 47.438 54.2708C48.1811 56.068 46.1763 57.1049 44.8557 54.9319C44.9292 56.7422 43.0309 57.3509 42.4952 54.5474C42.0804 56.1717 38.2481 57.2433 38.3559 54.0987C38.1135 55.3596 38.2114 56.7293 39.367 57.2248C40.4041 57.6394 41.6884 57.1735 42.3106 56.1366Z" fill="#D3B498"/>
<path d="M84.7731 80.4237C83.195 79.2271 82.2502 77.6447 84.0993 75.9119C82.8309 75.5495 81.694 75.0461 82.1371 72.6215C82.1353 72.6319 81.7662 73.1197 81.7662 73.1293C81.3513 73.959 81.2737 75.8827 82.6215 76.2921C81.7922 77.329 81.8177 79.9085 83.3217 80.8028C82.5567 82.6747 83.2438 85.2115 85.4204 85.0795C83.8173 84.8584 83.2757 81.5531 84.7731 80.4237Z" fill="#FCEFE3"/>
<path d="M98.227 62.8987C99.4801 60.7032 97.4582 59.3206 95.1942 61.2217C95.2635 59.4764 94.4684 57.8173 91.7203 58.8196C91.3747 57.7827 89.2837 54.3263 87.3308 57.7827C87.2098 56.5729 85.9652 55.1904 84.6176 57.4715C84.2025 56.5125 83.3473 53.8683 81.1437 56.668C80.8065 56.0587 80.1199 55.5923 79.031 56.2014C78.7714 55.5016 76.3565 53.4448 75.2332 56.642C74.8876 55.4667 72.5545 54.8447 72.0011 57.4026C71.2755 56.6593 69.3225 56.3051 68.9858 58.6124C68.5188 58.2752 67.4043 57.1864 66.2636 58.1458C66.0304 56.7585 65.3434 54.5034 63.0881 56.0715C62.8289 54.5162 60.7678 54.5941 59.9212 55.3632C58.7057 54.6249 56.7773 54.9937 56.3725 57.0174C55.7506 56.8098 54.9335 56.6686 54.3116 56.8763C53.4762 57.2937 53.3766 58.0184 53.409 58.8072C53.4809 58.9527 53.5687 59.0949 53.6754 59.2308C53.9758 57.7493 54.4837 56.7888 57.104 58.3815C57.1126 56.1754 58.6552 55.7817 59.6438 57.4456C60.8197 55.4752 61.9349 55.6782 62.427 57.9921C63.2307 57.0462 65.2477 56.6682 65.244 59.325C67.9399 59.6489 68.3115 60.7517 67.8969 61.7886C69.8584 60.5652 68.8609 59.3915 70.325 60.2381C69.4576 57.7129 70.9945 57.5718 72.1224 59.2308C72.9649 56.8198 74.1572 55.7348 75.3239 58.5732C75.7385 57.5363 75.933 56.3439 76.8922 56.5641C77.5315 56.7109 77.1254 58.3457 77.1254 58.968C79.6143 58.5529 80.9793 59.1927 79.4069 61.6122C81.4634 61.9578 83.0593 61.7782 82.1432 63.8347C83.6834 62.4403 82.4338 61.3433 80.8183 61.0386C82.3652 59.4369 81.8243 58.0612 80.4443 57.5665C80.8902 57.084 83.5371 57.4512 84.3324 58.916C86.1277 56.7753 86.4838 58.0701 87.2358 59.3406C88.601 57.0765 90.1624 57.415 89.1966 59.3384C91.578 59.7786 91.4095 60.7911 89.9921 62.5887C91.5475 63.0378 92.7921 63.8673 91.7953 65.1472C93.2846 64.239 93.5402 63.1711 91.6609 62.3252C92.3966 61.9276 92.4909 60.203 91.8511 59.5155C93.3938 59.1137 94.287 61.7022 94.6756 62.8987C97.0777 61.2053 97.821 62.0485 97.0866 64.4896C98.4735 64.3079 100.712 63.0524 100.707 65.2254C101.295 63.4428 100.873 62.5019 98.227 62.8987Z" fill="#FCEFE3"/>
<path d="M104.683 71.7812C105.409 71.2628 106.998 67.0112 102.54 68.1175C102.54 68.1175 104.916 65.2226 100.829 65.0757C100.682 65.2831 100.42 65.7812 100.239 65.9936C102.764 66.5966 102.168 72.9999 100.224 73.2567C101.31 73.9098 102.574 74.8056 101.339 75.9456C102.35 76.1711 102.54 78.262 100.718 78.3332C101.434 80.0596 100.258 80.8718 99.3278 81.0813C100.69 82.4877 99.4329 84.4581 97.2108 84.3539C98.3832 85.2963 97.7005 87.1627 95.4346 86.5416C96.452 88.7092 94.2824 90.2216 92.2047 89.0289C91.79 89.6512 89.7375 89.3315 89.7863 88.0577C88.2643 88.7181 86.3935 87.9834 86.498 85.9163C85.7414 86.3761 84.9292 86.3417 85.3438 85.0973C82.7902 85.2485 82.734 82.0471 83.3837 80.71C82.7308 80.5376 81.9346 79.5454 81.9478 78.5992C81.5676 78.8584 81.227 79.1355 80.8753 79.2215C81.7404 80.5176 80.2455 82.8593 78.7046 81.9158C79.6793 83.136 78.7851 85.5532 76.3353 84.7884C76.2966 86.6095 72.3043 89.0591 69.6771 86.9177C69.565 88.1997 65.1563 88.8721 63.9506 86.8687C63.8207 88.4892 60.4915 88.9702 60.3956 87.0404C59.4404 88.9802 57.3982 88.7527 56.5167 87.4735C53.9763 89.9147 53.6783 88.0417 51.4878 86.7588C50.3496 87.0166 49.9065 87.6335 49.1014 88.2405C49.1014 87.8259 48.749 86.6667 48.5712 86.1162C50.2692 85.6173 51.1497 84.4666 49.3102 81.9781C49.5174 81.7704 50.532 81.2602 50.9954 80.2584C51.2546 79.5597 50.5089 78.5871 49.6692 78.1031C50.7663 80.1542 49.4488 80.9984 48.0576 81.658C49.2062 83.2653 49.5693 84.9765 46.8215 85.0021C47.8586 87.1538 45.5254 87.9056 44.1513 85.5206C44.8513 88.7352 42.8034 90.0313 41.4035 87.1798C40.2628 89.3834 38.9926 88.9702 39.2258 87.0504C36.519 86.8687 36.7504 84.387 37.657 83.8705C37.5538 83.8709 37.2978 83.8755 37.2557 83.8746C36.2059 84.3282 36.0632 87.1151 38.2667 87.9446C37.5755 88.424 36.7978 90.9474 39.1482 91.4313C38.2495 92.0188 37.8001 96.4088 41.6368 94.179C41.9478 95.4236 44.8686 96.4432 45.0846 93.272C45.8624 93.6219 47.2492 92.7662 47.5473 91.2241C48.1953 91.4833 49.9324 96.4585 51.9544 93.2697C52.2915 95.2939 56.3094 96.3048 55.3934 92.4853C56.0502 93.2697 58.6424 94.2854 59.5759 92.0007C59.6442 93.4273 60.7682 94.9052 61.9955 92.6756C62.2202 93.4878 64.363 94.8013 65.7282 92.9348C66.2985 93.8163 67.6899 94.8533 69.025 92.948C69.2885 94.2139 71.7296 96.4863 72.8874 93.8943C73.1727 95.1904 75.1988 97.048 76.9619 94.7669C77.1863 96.5986 80.2626 97.3418 80.6775 93.9718C81.408 95.0432 83.7364 95.3543 84.065 92.4853C84.4452 93.5227 86.6744 94.663 87.1583 92.2091C87.4695 92.6237 88.6619 93.6347 89.8027 92.8829C90.0099 93.4273 87.626 95.4639 92.1105 96.76C92.0319 98.016 92.0663 100.124 94.4169 99.9516C94.7625 100.746 97.8044 102.06 98.0809 99.0874C98.9448 99.4676 101.261 99.6229 99.8348 96.8492C100.483 96.6939 101.416 94.8793 99.8348 93.8163C100.898 93.7126 101.867 92.2091 98.8498 89.4609C100.068 89.2537 101.728 88.098 101.261 85.9722C102.506 85.8684 104.475 83.8098 102.868 82.3063C103.956 82.0731 104.527 80.8028 104.008 79.8693C104.631 79.6101 106.834 77.9253 104.423 75.2551C105.331 75.0994 107.309 73.6823 104.683 71.7812Z" fill="#D3B498"/>
<path d="M38.0591 80.1979C35.5703 78.9882 35.2593 76.9139 36.348 75.2031C35.3111 75.6182 34.3433 76.3593 33.7556 78.0548C33.5484 78.0548 33.0825 76.7876 34.586 75.5179C31.7423 76.0587 31.7337 74.2441 33.1075 73.5699C31.0596 72.7406 31.7077 71.8719 33.0816 71.6777C34.2168 73.5959 37.9553 73.4329 37.3334 70.7884C35.8666 72.4746 34.1056 71.8591 34.2551 69.5022C32.0275 71.2961 28.2945 68.1071 32.0793 65.4996C30.1436 65.0067 29.0417 63.1768 31.7476 62.5737C30.5023 61.1711 30.9689 60.4009 31.8893 60.6343C32.3428 62.319 34.6629 65.229 37.0399 61.9176C34.4561 62.9879 33.6586 60.4184 33.8573 58.6812C31.1287 58.7507 31.4399 57.1949 33.3668 56.3439C29.9526 55.2234 31.2671 53.6349 33.7945 53.099C31.0596 51.6645 31.2799 49.798 33.7038 49.202C32.5243 47.9186 32.4891 47.1954 33.2632 46.6353C33.909 48.4673 35.6643 48.7021 37.0516 47.413C34.9471 47.6907 34.987 46.5375 35.4278 45.1376C33.3539 45.1247 32.2083 43.5832 33.2146 41.8682C32.457 42.6537 31.9277 43.6821 32.2694 44.5789C31.7163 45.3047 31.0204 48.0009 32.1633 48.9339C30.23 49.2451 29.8309 51.561 31.4209 52.7709C29.5733 52.9437 28.9921 55.9162 31.0337 56.5385C29.7808 56.9531 28.6055 59.0614 30.5758 59.6147C29.6209 59.8565 28.6704 61.3505 30.3164 62.2935C28.7783 62.723 28.3463 65.0586 30.1782 65.8534C29.0549 66.8039 28.1907 68.8778 30.403 70.2603C29.258 72.1703 30.1264 73.5311 31.6559 73.6478C30.567 74.6847 30.2646 76.8104 33.099 76.272C32.0578 77.8601 33.0816 81.0361 36.4127 80.4398C36.3783 81.0621 35.3889 83.2265 37.2553 83.8745C37.9585 83.8389 38.5218 83.9673 39.4588 83.4986C35.6433 83.6199 37.2294 80.1979 38.0591 80.1979Z" fill="#FCEFE3"/>
<path d="M94.4827 99.8426L94.5122 99.9102C94.6701 100.273 95.5601 100.833 96.4192 100.833C97.0558 100.833 97.8425 100.529 97.9775 99.0778L97.9911 98.9344L98.1226 98.9924C98.342 99.0892 98.7176 99.192 99.1137 99.192H99.114C99.437 99.192 99.864 99.1225 100.067 98.7904C100.297 98.4124 100.185 97.7578 99.7427 96.8968L99.6827 96.7792L99.8106 96.7486C100.094 96.6803 100.468 96.2155 100.573 95.6317C100.645 95.2337 100.637 94.4803 99.7773 93.9024L99.5372 93.7413L99.8249 93.7128C100.152 93.6811 100.557 93.4839 100.709 93.0255C100.842 92.6261 100.919 91.4864 98.7801 89.5377L98.623 89.3945L98.8324 89.3589C99.4518 89.2536 100.297 88.8685 100.813 88.1039C101.218 87.5023 101.335 86.7925 101.16 85.9945L101.135 85.8786L101.253 85.8691C101.942 85.8114 102.951 85.064 103.269 84.1494C103.427 83.6927 103.475 83.0156 102.797 82.382L102.652 82.2465L102.846 82.2049C103.334 82.1004 103.737 81.7692 103.951 81.2971C104.157 80.8426 104.145 80.3281 103.918 79.9198L103.862 79.8184L103.969 79.7737C104.336 79.6208 105.162 79.0031 105.371 78.0707C105.563 77.2144 105.219 76.2902 104.346 75.3248L104.22 75.1847L104.406 75.1527C104.915 75.0659 105.704 74.5829 105.862 73.9034C106.01 73.2647 105.581 72.56 104.622 71.8655L104.505 71.7809L104.622 71.6969C104.998 71.4285 105.699 69.9421 105.376 68.9346C105.101 68.0763 104.131 67.8297 102.564 68.2181L102.256 68.2945L102.46 68.0506C102.47 68.0392 103.436 66.8707 103.069 66.0446C102.833 65.5144 102.095 65.2233 100.877 65.1795L100.765 65.1756L100.796 64.9074C100.865 64.3058 100.937 63.6838 100.603 63.3094C100.252 62.9154 99.4799 62.8158 98.2432 63.0015L98.0315 63.0332L98.1375 62.8474C98.5432 62.1362 98.6198 61.4588 98.3467 60.9885C98.1397 60.6317 97.7404 60.4276 97.251 60.4276C96.6391 60.4276 95.9325 60.7377 95.2612 61.3013L95.0818 61.4521L95.0911 61.2178C95.127 60.301 94.9147 59.5543 94.4923 59.1148C93.9325 58.5326 92.9956 58.4651 91.7563 58.9171L91.6564 58.9536L91.6227 58.8524C91.4118 58.2201 90.4007 56.3859 89.1782 56.3859C88.5552 56.3859 87.9641 56.8731 87.4216 57.8335L87.2604 58.1184L87.2281 57.7929C87.1588 57.0992 86.705 56.3504 86.0927 56.3504C85.64 56.3504 85.161 56.7564 84.7072 57.5241L84.6034 57.6999L84.5227 57.5127C84.495 57.4484 84.4651 57.3766 84.4331 57.2991C84.1576 56.6344 83.6962 55.5221 82.9064 55.5221C82.4229 55.5221 81.8574 55.9292 81.2255 56.7318L81.1288 56.8549L81.0534 56.7181C80.9091 56.4573 80.5781 56.0199 79.9813 56.0199C79.7071 56.0199 79.4046 56.1113 79.0821 56.292L78.9764 56.3511L78.9341 56.2372C78.7951 55.8614 77.9309 55.0069 77.0294 55.0069C76.292 55.0069 75.7205 55.5688 75.3315 56.6764L75.2248 56.9798L75.1342 56.6714C74.9784 56.1409 74.3631 55.7256 73.7342 55.7256C73.3544 55.7256 72.4348 55.8913 72.103 57.4243L72.0624 57.6128L71.9277 57.4747C71.6127 57.1521 71.102 56.9438 70.6266 56.9438C70.144 56.9438 69.3027 57.1626 69.0886 58.6272L69.064 58.7965L68.9254 58.6962C68.8745 58.6596 68.8166 58.6144 68.7515 58.564C68.3931 58.2848 67.8518 57.8631 67.2438 57.8631C66.9233 57.8631 66.6165 57.985 66.3309 58.2251L66.1918 58.3417L66.1617 58.1628C65.9682 57.0128 65.5159 55.642 64.4597 55.642C64.0803 55.642 63.639 55.8152 63.1476 56.1569L63.0131 56.2504L62.9862 56.0885C62.8656 55.365 62.2905 54.9333 61.4482 54.9333C60.8938 54.9333 60.3356 55.1275 59.9912 55.44L59.758 55.6515L59.8199 55.3429C59.9198 54.8423 60.0762 53.5781 59.3661 52.6588C58.8945 52.0483 58.1258 51.708 57.081 51.6472L56.7941 51.6305L57.0256 51.4601C57.473 51.1308 57.8779 50.5288 57.7737 49.925C57.6706 49.3273 57.0867 48.8514 56.0853 48.5495L55.9595 48.5115L56.0253 48.398C56.4147 47.7285 56.6412 46.677 56.2945 46.0469C56.0807 45.6578 55.6715 45.4487 55.0784 45.4255L54.9535 45.421L54.9816 45.299C55.0043 45.198 55.0339 45.082 55.0659 44.9562C55.2526 44.219 55.535 43.105 55.1687 42.5075C55.0456 42.307 54.86 42.1807 54.6015 42.1224L54.4365 42.0851L54.5446 41.9546C55.0855 41.3063 55.2959 40.7419 55.1889 40.2303C55.08 39.7104 54.6335 39.2509 53.8607 38.8647L53.6683 38.7683L53.8636 38.678C54.646 38.3158 55.5352 37.4029 55.7582 36.1797C55.8986 35.409 55.8179 34.238 54.6374 33.0301C53.9756 32.6347 53.4351 32.2332 52.9578 31.8786C51.6752 30.926 50.661 30.1725 48.2049 30.1657C47.5472 30.6768 35.9103 39.7253 34.805 40.8497L34.7721 40.8721C33.471 41.4314 31.848 43.1807 32.3667 44.542L32.3874 44.596L32.3522 44.6418C31.7813 45.3911 31.1704 47.9891 32.2294 48.8539L32.4082 48.9997L32.1802 49.0363C31.3742 49.1662 30.7829 49.6832 30.5985 50.4189C30.3914 51.2453 30.7308 52.1151 31.4841 52.6884L31.6957 52.8491L31.431 52.874C30.4628 52.9647 29.9387 53.8256 29.8614 54.5877C29.7905 55.2839 30.0694 56.1359 31.0643 56.4393L31.3764 56.5342L31.0668 56.6365C30.2972 56.8916 29.6116 57.776 29.6281 58.4925C29.6395 58.9853 29.9769 59.3388 30.6042 59.5148L30.978 59.6197L30.6016 59.715C30.1401 59.8319 29.6155 60.3014 29.5355 60.885C29.4869 61.2409 29.5917 61.7587 30.3684 62.2035L30.5834 62.3265L30.3447 62.3931C29.6424 62.5894 29.1354 63.234 29.0829 63.9974C29.0301 64.7681 29.455 65.4262 30.2199 65.7584L30.3731 65.8249L30.2456 65.9327C29.6908 66.402 29.0679 67.2961 29.1381 68.2708C29.1918 69.0189 29.636 69.6587 30.4584 70.1728L30.5446 70.2266L30.4923 70.3136C29.9565 71.2076 29.8379 72.0408 30.1583 72.6606C30.4214 73.1694 30.9704 73.4913 31.6642 73.5446L31.8966 73.5621L31.7277 73.7228C31.1283 74.2939 30.8358 75.1231 31.0472 75.652C31.2628 76.1906 31.9868 76.378 33.0801 76.1703L33.3201 76.1249L33.1861 76.329C32.697 77.0746 32.6846 78.161 33.1548 79.032C33.4328 79.5465 34.1229 80.4095 35.6219 80.4095C35.8681 80.4095 36.1282 80.3856 36.3949 80.3377L36.524 80.3145L36.5166 80.4455C36.5095 80.5738 36.4684 80.7477 36.4163 80.9678C36.2113 81.8337 35.8683 83.283 37.2898 83.7767L37.5415 83.8641L37.2969 83.9698C36.8833 84.1486 36.6065 84.7702 36.6234 85.4818C36.6437 86.3274 37.0957 87.3931 38.3032 87.8476L38.4883 87.9172L38.3259 88.03C37.9674 88.2785 37.5381 89.2067 37.7083 90.0387C37.8466 90.7151 38.3519 91.1614 39.169 91.33L39.4153 91.3804L39.2049 91.5181C38.7925 91.7876 38.4726 93.0144 38.7222 93.853C38.8377 94.2402 39.1218 94.7021 39.8194 94.7021C40.291 94.7021 40.8849 94.4962 41.5848 94.0894L41.7039 94.0201L41.7374 94.1541C41.8872 94.7527 42.6764 95.2779 43.4267 95.2779C44.3273 95.2779 44.8941 94.5442 44.9811 93.2648L44.9913 93.1161L45.1271 93.1773C45.2285 93.2227 45.3438 93.2459 45.47 93.2459C46.2334 93.2459 47.2095 92.4256 47.4455 91.2044L47.4694 91.0811L47.5858 91.1276C47.7747 91.2033 47.9844 91.5248 48.3386 92.0871C48.9083 92.9909 49.6885 94.2291 50.5525 94.2291C50.9975 94.2291 51.4399 93.8878 51.8669 93.2143L52.012 92.9849L52.0568 93.2528C52.22 94.2334 53.3216 94.966 54.1974 94.966C54.4741 94.966 54.8603 94.8949 55.1281 94.5549C55.4566 94.1381 55.5136 93.4312 55.2927 92.5095L55.1899 92.0807L55.473 92.4188C55.8272 92.842 56.7379 93.2986 57.5909 93.2986C58.2033 93.2986 59.0283 93.0663 59.4799 91.9612L59.657 91.5277L59.6794 91.9957C59.7192 92.8256 60.148 93.7142 60.7235 93.7142C61.104 93.7142 61.5125 93.338 61.9044 92.6255L62.0274 92.4025L62.0954 92.6482C62.2219 93.1051 63.0803 93.7837 64.0074 93.7837C64.6429 93.7837 65.2094 93.4689 65.6446 92.8737L65.7335 92.752L65.8153 92.8785C66.1407 93.3807 66.7275 93.9177 67.4002 93.9177C67.9436 93.9177 68.4613 93.5713 68.94 92.8883L69.0776 92.6919L69.1262 92.9266C69.2951 93.737 70.3936 94.9788 71.4287 94.9788C71.9999 94.9788 72.459 94.5993 72.7928 93.8519L72.9213 93.5642L72.9888 93.8717C73.1602 94.6517 74.062 95.739 75.1409 95.739C75.7636 95.739 76.3485 95.3905 76.8798 94.7032L77.0338 94.5037L77.0647 94.7541C77.1653 95.574 77.8993 96.2163 78.7356 96.2163C79.7133 96.2163 80.4006 95.3725 80.5745 93.959L80.6082 93.6861L80.7632 93.9134C81.0581 94.3458 81.6292 94.6363 82.1843 94.6363C82.6444 94.6363 83.7382 94.4258 83.9616 92.4736L84.0113 92.039L84.1621 92.4497C84.3563 92.9795 85.1006 93.5717 85.8054 93.5717C86.4455 93.5717 86.8782 93.0937 87.0567 92.1891L87.1015 91.9604L87.2413 92.1468C87.4168 92.3807 88.1039 93.0497 88.9265 93.0497C89.2151 93.0497 89.4904 92.9642 89.7453 92.7964L89.8535 92.7253L89.8994 92.8462C89.9619 93.0102 89.8666 93.2289 89.7464 93.5056C89.5593 93.9351 89.3033 94.5236 89.5764 95.1047C89.8709 95.7306 90.7332 96.254 92.1392 96.6604L92.2193 96.6835L92.214 96.7667C92.1641 97.5665 92.167 98.704 92.769 99.3448C93.1328 99.7318 93.6747 99.9032 94.4091 99.848L94.4827 99.8426ZM96.4192 101.041C95.552 101.041 94.6193 100.519 94.3554 100.059C93.5915 100.101 93.0144 99.9091 92.6179 99.4867C91.9878 98.8161 91.9519 97.7308 92.0024 96.8364C90.5636 96.4104 89.7084 95.8724 89.3888 95.1929C89.0758 94.5268 89.3535 93.8888 89.5561 93.4231C89.6113 93.2964 89.6675 93.167 89.6949 93.0663C89.4524 93.1929 89.1948 93.2569 88.9265 93.2569C88.2249 93.2569 87.5638 92.8028 87.2139 92.4338C86.9148 93.5986 86.2118 93.7793 85.8054 93.7793C85.1275 93.7793 84.4519 93.3164 84.1205 92.8171C83.8868 94.093 83.1778 94.8441 82.1843 94.8441C81.6402 94.8441 81.1001 94.6061 80.7459 94.2232C80.4044 96.2603 79.13 96.424 78.7356 96.424C77.8744 96.424 77.1101 95.8165 76.9015 95.0051C76.3659 95.6303 75.7746 95.9467 75.1409 95.9467C74.036 95.9467 73.1616 94.9756 72.8639 94.1765C72.4162 95.0037 71.8452 95.186 71.4287 95.186C70.3531 95.186 69.2849 94.0417 68.983 93.1798C68.4973 93.8071 67.9653 94.1249 67.4002 94.1249C66.6993 94.1249 66.0913 93.6214 65.7236 93.1115C65.1419 93.8348 64.4747 93.9909 64.0074 93.9909C63.1309 93.9909 62.2777 93.4468 61.9809 92.9084C61.5759 93.5813 61.1534 93.9219 60.7235 93.9219C60.0926 93.9219 59.6474 93.1858 59.512 92.3747C58.9978 93.3 58.1997 93.5058 57.5909 93.5058C56.8247 93.5058 56.0356 93.1734 55.5637 92.7928C55.7105 93.6196 55.6177 94.269 55.2909 94.6836C55.0381 95.0041 54.6601 95.1733 54.1974 95.1733C53.3068 95.1733 52.2111 94.5076 51.9085 93.5247C51.4793 94.1304 51.0237 94.4365 50.5525 94.4365C49.5739 94.4365 48.7586 93.1425 48.1633 92.1976C47.9635 91.8808 47.7586 91.5557 47.614 91.4032C47.3006 92.6741 46.2792 93.4532 45.47 93.4532C45.3668 93.4532 45.2687 93.4404 45.177 93.4149C44.9996 95.2804 43.8998 95.4851 43.4267 95.4851C42.6431 95.4851 41.8184 94.9603 41.577 94.3326C40.8929 94.7156 40.3021 94.9095 39.8194 94.9095C39.1753 94.9095 38.7151 94.5553 38.5235 93.912C38.2732 93.0713 38.5312 91.9501 38.933 91.4868C37.9412 91.2176 37.6077 90.5817 37.5052 90.0804C37.3362 89.2539 37.6986 88.3635 38.0718 87.977C36.8864 87.4554 36.4372 86.3619 36.4161 85.4871C36.3995 84.7904 36.6364 84.1838 37.0213 83.893C35.6571 83.2757 36.0171 81.7544 36.2145 80.9201C36.2463 80.7856 36.2752 80.6637 36.2928 80.5649C36.0623 80.5994 35.8374 80.6172 35.6219 80.6172C34.0153 80.6172 33.2723 79.6855 32.9724 79.1304C32.5065 78.2677 32.4838 77.2052 32.8976 76.4118C32.6753 76.445 32.4676 76.4616 32.2782 76.4616C31.3439 76.4616 30.9884 76.063 30.8547 75.7288C30.6324 75.1737 30.8812 74.3437 31.4354 73.7267C30.7687 73.6221 30.2429 73.2758 29.974 72.7559C29.6301 72.091 29.7334 71.2193 30.2635 70.2941C29.4473 69.7582 28.9872 69.0652 28.9311 68.2856C28.8605 67.3036 29.4345 66.4032 29.9926 65.8805C29.2352 65.4942 28.8202 64.795 28.8761 63.9829C28.9292 63.2105 29.4023 62.5463 30.0778 62.2664C29.3341 61.7611 29.2864 61.1747 29.33 60.8565C29.4005 60.3427 29.7837 59.8522 30.2686 59.6176C29.7306 59.3908 29.4324 59.0006 29.4207 58.497C29.4042 57.7799 30.0136 56.9132 30.7524 56.5435C29.9901 56.2013 29.5651 55.4517 29.6549 54.5667C29.7343 53.7858 30.2428 52.91 31.1783 52.7037C30.4956 52.0878 30.1906 51.1938 30.3973 50.3684C30.5867 49.612 31.1593 49.0641 31.9476 48.8721C30.9615 47.7946 31.6445 45.2993 32.1536 44.5625C31.655 43.1046 33.3176 41.2821 34.6717 40.6897C35.8936 39.4693 47.6061 30.3684 48.1057 29.9797L48.1342 29.9581H48.1693C50.7201 29.9581 51.762 30.7322 53.0816 31.7122C53.5808 32.0831 54.0969 32.4664 54.7554 32.8587L54.7764 32.8754C56.0278 34.1498 56.112 35.3958 55.9624 36.2169C55.7703 37.27 55.047 38.272 54.1335 38.7737C54.8557 39.1713 55.2785 39.6464 55.3919 40.188C55.5487 40.9379 55.0705 41.6306 54.8042 41.9655C55.0385 42.0499 55.2202 42.1953 55.3454 42.3991C55.7572 43.0711 55.462 44.2361 55.2667 45.007C55.2473 45.0843 55.2287 45.1579 55.212 45.2261C55.8158 45.2766 56.2407 45.5188 56.4765 45.9469C56.8833 46.687 56.5911 47.7672 56.2671 48.3891C57.5348 48.8024 57.8989 49.4297 57.9782 49.8897C58.0814 50.4869 57.7591 51.075 57.3481 51.4609C58.3271 51.564 59.0603 51.9239 59.5305 52.5319C60.1865 53.3818 60.1566 54.4908 60.068 55.1195C60.4429 54.8728 60.9481 54.7256 61.4482 54.7256C62.34 54.7256 62.968 55.1612 63.1583 55.9002C63.6344 55.5911 64.0717 55.4347 64.4597 55.4347C65.3794 55.4347 66.0265 56.3066 66.3363 57.9586C66.6208 57.7578 66.9254 57.6557 67.2438 57.6557C67.9229 57.6557 68.5214 58.1219 68.8788 58.4004C68.8901 58.4088 68.9015 58.4174 68.9122 58.4259C69.2021 56.905 70.1998 56.7365 70.6266 56.7365C71.0925 56.7365 71.5892 56.9171 71.9416 57.207C72.3371 55.6868 73.3191 55.5182 73.7342 55.5182C74.3611 55.5182 74.9574 55.867 75.2284 56.3621C75.7511 55.0783 76.4883 54.7995 77.0294 54.7995C77.9323 54.7995 78.8179 55.572 79.0796 56.058C79.9351 55.6192 80.7 55.7931 81.1562 56.4872C81.8006 55.6985 82.3739 55.3148 82.9064 55.3148C83.835 55.3148 84.3292 56.5071 84.6244 57.2198C84.6283 57.2283 84.6315 57.2369 84.6354 57.2458C85.2164 56.3397 85.7441 56.143 86.0927 56.143C86.7427 56.143 87.2263 56.7856 87.387 57.4858C87.9315 56.6181 88.5331 56.1786 89.1782 56.1786C90.4697 56.1786 91.4928 57.9246 91.7836 58.6873C93.0617 58.2428 94.0378 58.3431 94.6416 58.9711C95.1718 59.5226 95.3009 60.3423 95.3023 61.0019C95.9592 60.4963 96.6444 60.2199 97.251 60.2199C97.8161 60.2199 98.2808 60.4621 98.5259 60.8846C98.8129 61.3781 98.7705 62.0566 98.4156 62.7678C99.6225 62.6113 100.375 62.7408 100.758 63.1714C101.154 63.6156 101.076 64.2844 101.002 64.9313L100.996 64.9772C102.234 65.0387 102.995 65.3694 103.258 65.9607C103.575 66.6719 103.076 67.5439 102.793 67.9528C103.18 67.8721 103.531 67.8308 103.842 67.8308C104.997 67.8308 105.421 68.3966 105.574 68.8714C105.886 69.8464 105.315 71.2986 104.848 71.7745C106.055 72.6852 106.178 73.4575 106.064 73.9504C105.896 74.6711 105.158 75.1576 104.616 75.3162C105.45 76.2884 105.772 77.2301 105.574 78.1159C105.35 79.1102 104.534 79.7161 104.149 79.9173C104.359 80.365 104.357 80.9045 104.14 81.3828C103.924 81.8572 103.539 82.2053 103.068 82.3596C103.691 83.0313 103.633 83.7339 103.465 84.2176C103.129 85.1834 102.131 85.9345 101.385 86.061C101.536 86.8622 101.398 87.6068 100.985 88.2199C100.487 88.9585 99.7025 89.366 99.0682 89.5213C101.07 91.3982 101.082 92.5596 100.905 93.0909C100.778 93.4764 100.474 93.7609 100.087 93.8732C100.851 94.4944 100.852 95.2533 100.777 95.6686C100.678 96.218 100.336 96.7379 99.9799 96.9068C100.419 97.7962 100.508 98.4662 100.244 98.8986C100.044 99.2264 99.6528 99.3996 99.114 99.3996H99.1137C98.7556 99.3996 98.4117 99.321 98.1692 99.2339C97.9708 100.802 96.9947 101.041 96.4192 101.041Z" fill="#9E8772"/>
<path d="M50.0884 37.7542C50.1684 37.7589 52.0417 37.8285 52.5178 35.5631L52.5398 35.4585L52.6437 35.4834C52.9776 35.5634 53.6866 35.5332 54.2724 35.1218C54.7171 34.8088 54.9754 34.3548 55.0397 33.7719L55.246 33.7947C55.1755 34.43 54.8804 34.9479 54.3914 35.2914C53.8587 35.6658 53.1621 35.7792 52.6988 35.7056C52.4669 36.6924 51.9683 37.2482 51.4677 37.5611C50.8667 37.9363 50.0884 37.7542 50.0884 37.7542Z" fill="#9E8772"/>
<path d="M35.6223 13.3153C35.6223 13.3153 30.671 12.9383 27.9144 13.2633C25.2746 13.5745 22.1076 14.8877 19.6795 14.3088C17.7537 13.8497 15.2417 14.1858 17.7094 17.7567C19.871 20.8849 24.9419 23.1835 29.1415 20.2801C30.2518 19.5123 37.6345 15.2508 35.6223 13.3153Z" fill="#FFE7D3"/>
<path d="M35.9665 14.0915C36.1689 13.5834 36.0125 13.6908 35.6221 13.3153C35.6221 13.3153 30.6708 12.9383 27.9142 13.2633C25.2745 13.5745 22.1074 14.8877 19.6793 14.3088C18.7027 14.0762 17.5766 14.0489 17.0244 14.5431C18.9102 14.4696 20.3218 15.1334 21.3762 15.1384C22.761 15.1452 24.9085 14.4927 27.4163 14.1275C30.0723 13.7409 33.1286 13.6517 35.9665 14.0915Z" fill="#FFFAF6"/>
<path d="M17.0559 14.5656C16.5746 15.1011 16.569 16.1071 17.709 17.7567C19.8708 20.8849 24.9417 23.1835 29.1413 20.2801C29.7426 19.8643 32.1843 18.4232 33.9765 16.882C32.4257 16.7074 30.5638 16.2714 28.696 16.3656C25.5828 16.5224 22.0605 17.0423 17.0559 14.5656Z" fill="#D6BBAA"/>
<path d="M18.4015 14.2509C17.8629 14.2509 17.1651 14.358 16.8978 14.8675C16.5988 15.4375 16.9088 16.4165 17.7943 17.6977C19.1052 19.5944 21.8193 21.5087 24.928 21.509H24.9285C26.4235 21.509 27.8209 21.0667 29.0824 20.1948C29.2177 20.1012 29.4449 19.9564 29.7329 19.7729C31.5127 18.6393 35.6809 15.9844 35.8584 14.205C35.8891 13.8985 35.7967 13.6399 35.5764 13.4156C35.2594 13.3928 33.0111 13.2349 30.808 13.2349C29.6355 13.2349 28.666 13.2791 27.9264 13.3664C27.0388 13.471 26.1095 13.6855 25.1258 13.9123C23.7496 14.2299 22.3266 14.5581 21.0303 14.5585C20.524 14.5585 20.0742 14.5098 19.6553 14.4098C19.2195 14.306 18.7858 14.2509 18.4015 14.2509ZM24.9285 21.7164H24.928C21.744 21.716 18.9653 19.757 17.6237 17.8157C16.6782 16.4474 16.3722 15.4229 16.7141 14.7711C16.9638 14.295 17.5472 14.0436 18.4015 14.0436C18.8018 14.0436 19.252 14.1004 19.7033 14.2082C20.1063 14.3042 20.5404 14.3507 21.0301 14.3507C22.3028 14.3507 23.7144 14.0251 25.0793 13.7104C26.0251 13.492 27.0034 13.2662 27.9021 13.1603C28.6497 13.0724 29.6273 13.0276 30.808 13.0276C33.1811 13.0276 35.6058 13.21 35.6302 13.2118L35.6672 13.2146L35.6941 13.2406C35.978 13.5137 36.1029 13.8451 36.0648 14.2253C35.8773 16.1054 31.6495 18.798 29.8442 19.948C29.5583 20.1301 29.3326 20.274 29.2002 20.3654C27.9036 21.2619 26.4662 21.7164 24.9285 21.7164Z" fill="#A18C80"/>
<path d="M18.7031 15.8038C18.7031 15.8038 23.4384 18.7246 27.8455 17.2383C27.301 18.2236 24.8125 21.196 24.268 21.2523C20.8462 19.7961 18.7031 15.8038 18.7031 15.8038Z" fill="#FFA88F"/>
<path d="M18.9102 15.968C20.2924 17.7667 22.9543 18.2755 25.0633 18.5281C24.5528 19.4214 24.108 20.0881 23.4767 20.8604C23.7744 21.036 23.947 21.1157 24.2676 21.2523C24.8121 21.196 27.3006 18.2236 27.8452 17.2383C24.3258 18.4253 20.2695 16.6703 18.9102 15.968Z" fill="#DD846F"/>
<path d="M18.985 16.0819C19.5781 17.0583 21.5169 19.9548 24.2803 21.1449C24.7617 21.0216 26.8621 18.6038 27.6156 17.42C26.849 17.6482 26.0261 17.7635 25.1653 17.7635C22.3883 17.7635 19.8705 16.558 18.985 16.0819ZM24.2517 21.3583L24.2271 21.3476C20.8112 19.8939 18.6331 15.893 18.6114 15.8529L18.4292 15.5137L18.7572 15.7156C18.787 15.7341 21.7831 17.5561 25.1653 17.5561C26.1028 17.5561 26.9933 17.4164 27.812 17.1401L28.0651 17.0548L27.9359 17.2885C27.3868 18.2823 24.8914 21.2922 24.2784 21.3554L24.2517 21.3583Z" fill="#A18C80"/>
<path d="M36.6075 12.8314C28.191 14.577 25.278 19.7964 23.9827 20.6603C22.4383 21.69 10.4766 28.0745 12.2914 37.1996C12.2394 38.4957 12.6716 41.7103 14.2269 41.5719C14.7461 42.0911 16.1816 42.4012 17.1909 42.0989C16.6811 43.6804 16.2835 47.1023 20.7423 46.843C25.2012 46.5838 26.458 42.5847 29.3231 42.0471C32.4079 41.4681 40.8936 43.0754 45.5252 40.3104C50.1567 37.5452 52.0062 32.2738 49.8284 25.2229C47.6508 18.1718 42.2246 11.6664 36.6075 12.8314Z" fill="#FFE7D3"/>
<path d="M13.6037 37.2045C11.707 35.365 13.7881 31.3705 15.2758 29.3649C18.3575 25.2097 23.4829 22.633 25.2391 21.3583C27.0478 20.045 29.62 15.968 34.8047 14.088C35.0742 13.9903 35.2384 13.5151 35.483 13.0963C27.9301 15.0509 25.2185 19.8363 23.9828 20.6602C22.4385 21.69 10.4767 28.0745 12.2914 37.1995C12.2575 38.0462 12.1084 38.7339 12.6657 39.7485C12.5162 38.086 12.8621 37.7418 13.6037 37.2045Z" fill="#FFFAF6"/>
<path d="M27.0158 36.5946C27.5019 35.6512 27.3399 35.605 26.6565 35.5089C24.3976 39.2994 15.6544 43.0114 14.4294 39.4857C13.332 41.5108 12.9735 40.4668 12.5161 39.3986C12.7831 40.5684 13.3094 41.6534 14.2269 41.5719C14.74 42.0851 16.2521 42.3475 17.1909 42.0989C17.1497 42.2263 19.511 41.909 20.7941 41.4508C23.1531 40.391 25.4993 39.4934 27.0158 36.5946Z" fill="#D6BBAA"/>
<path d="M49.8283 25.2229C49.0844 22.8144 47.9614 20.4704 46.5815 18.4733C44.0148 22.6234 49.9329 35.0719 41.2854 38.4747C37.7684 39.8586 32.7993 40.668 28.4128 38.8104C26.4281 44.3731 19.2904 47.9994 17.0806 45.0953C17.4564 46.1475 18.4655 46.9753 20.7421 46.843C25.201 46.5838 26.4578 42.5847 29.3229 42.0471C32.4078 41.4681 40.8934 43.0754 45.5251 40.3104C50.1565 37.5451 52.006 32.2738 49.8283 25.2229Z" fill="#D6BBAA"/>
<path d="M17.6925 41.9728L17.2894 42.131C17.1188 42.6601 16.629 44.4797 17.4928 45.666C18.0184 46.3875 18.955 46.7531 20.277 46.7531C20.424 46.7531 20.5769 46.7488 20.7362 46.7395C23.2633 46.5927 24.7716 45.204 26.1024 43.9787C27.1077 43.0533 28.0571 42.1793 29.3038 41.9453C29.8135 41.8497 30.5087 41.8053 31.4916 41.8053C32.1638 41.8053 32.9116 41.8248 33.7035 41.8458C34.6209 41.8703 35.5693 41.8955 36.5567 41.8955C39.4016 41.8955 42.9861 41.7052 45.4719 40.2214C50.3066 37.3347 51.8187 32.0192 49.7296 25.2535C47.8178 19.0642 43.1515 12.799 37.9307 12.799C37.4948 12.799 37.0567 12.8441 36.6285 12.933C30.0463 14.2978 26.8621 17.782 25.1514 19.6539C24.6734 20.1766 24.3281 20.5545 24.0402 20.7467C23.9104 20.8331 23.7076 20.9571 23.4456 21.1175C15.0175 26.2733 11.2987 31.677 12.3928 37.1793L12.3953 37.1913L12.3948 37.2034C12.3503 38.3181 12.6399 40.3373 13.4035 41.1321C13.6438 41.3824 13.9152 41.4959 14.2176 41.4685L14.266 41.4642L14.3001 41.4984C14.6638 41.7886 15.2857 42.0715 15.939 42.0715C16.293 42.0715 16.7057 42.0218 17.1611 41.9997L17.6925 41.9728ZM20.277 46.9608C18.885 46.9608 17.8918 46.566 17.3252 45.788C16.4985 44.6525 16.8041 43.0487 17.0359 42.2509C16.7446 42.2682 16.373 42.3113 15.939 42.2789C15.0632 42.2131 14.6664 42.0524 14.1874 41.6783C13.8387 41.694 13.5263 41.5595 13.2539 41.2762C12.3659 40.3516 12.1522 38.1454 12.1871 37.2077C11.4784 33.621 12.7851 30.0399 16.0715 26.5621C18.7069 23.7731 21.9518 21.7882 23.3374 20.9404C23.5962 20.7822 23.7967 20.6594 23.9252 20.5737C24.1919 20.3963 24.5478 20.007 24.9984 19.5137C26.7249 17.6247 29.9385 14.1086 36.5864 12.73C37.0284 12.6383 37.4807 12.5916 37.9307 12.5916C43.2519 12.5916 47.9938 18.9306 49.9275 25.1923C52.0171 31.9586 50.4319 37.5018 45.5782 40.3992C43.0491 41.9094 39.4285 42.1029 36.5569 42.1029C36.5569 42.1029 36.5568 42.1029 36.5567 42.1029C35.5667 42.1029 34.6167 42.0776 33.698 42.0531C32.9075 42.0321 32.161 42.0125 31.4916 42.0125C30.5217 42.0125 29.8387 42.056 29.342 42.149C28.1538 42.372 27.2256 43.2265 26.2429 44.1312C24.8866 45.3801 23.3493 46.7953 20.7482 46.9464C20.5848 46.956 20.4277 46.9608 20.277 46.9608Z" fill="#A18C80"/>
<path d="M19.1999 44.6849C20.9123 44.9039 23.6558 41.4798 24.7756 39.2456C23.3927 40.4735 21.3475 41.627 18.3988 42.0008C18.0451 43.138 18.0165 44.5333 19.1999 44.6849Z" fill="#840004"/>
<path d="M24.7757 39.2456C23.3929 40.4735 21.3476 41.627 18.3989 42.0008C18.3853 42.0441 18.3732 42.089 18.3607 42.133C18.3296 42.7553 19.1525 44.2261 20.3994 44.3794C22.0002 43.5078 23.8928 41.0076 24.7757 39.2456Z" fill="#4C0207"/>
<path d="M24.7756 39.2456C23.5848 40.3031 21.9008 41.3042 19.5736 41.8006C19.2279 42.6405 18.9427 43.8023 18.8857 44.6013C18.9801 44.6393 19.0824 44.6699 19.1999 44.6849C20.9124 44.9039 23.6559 41.4798 24.7756 39.2456Z" fill="#EB7676"/>
<path d="M22.5523 40.7576C21.8307 43.1294 19.0185 44.8783 18.9994 43.7831C18.9441 44.0761 18.9031 44.3567 18.8857 44.6013C18.9801 44.6393 19.0824 44.6699 19.1999 44.6849C20.9124 44.9039 23.6559 41.4798 24.7756 39.2456C24.1693 39.784 23.4344 40.3074 22.5523 40.7576Z" fill="#C85959"/>
<path d="M18.9951 44.5313C19.068 44.5557 19.1398 44.5725 19.213 44.5821C19.2612 44.5881 19.3104 44.5913 19.3604 44.5913C20.8731 44.5913 23.2089 41.8639 24.4331 39.6703C23.0898 40.7455 21.4833 41.4912 19.6489 41.8903C19.3253 42.6938 19.0622 43.7578 18.9951 44.5313ZM19.3605 44.7987H19.3604C19.3015 44.7987 19.2436 44.7948 19.1866 44.7877C19.072 44.7731 18.9609 44.7435 18.8467 44.6973L18.7769 44.6692L18.7821 44.5938C18.8402 43.7799 19.1262 42.6149 19.4775 41.7611L19.4983 41.7106L19.5517 41.6993C21.5647 41.2696 23.2989 40.418 24.7066 39.1681L25.1097 38.8104L24.8682 39.2922C23.7403 41.5428 21.1301 44.7987 19.3605 44.7987Z" fill="#632A2A"/>
<path d="M18.4785 42.095C18.2191 42.9652 18.2266 43.7339 18.5003 44.16C18.6539 44.3993 18.8936 44.5411 19.213 44.5821C19.2612 44.5881 19.3104 44.5913 19.3604 44.5913C20.8731 44.5913 23.2085 41.8643 24.4329 39.6702C22.805 40.9749 20.8049 41.7895 18.4785 42.095ZM19.3605 44.7987H19.3604C19.3015 44.7987 19.2436 44.7948 19.1866 44.7877C18.8038 44.7385 18.5142 44.5654 18.3258 44.2721C17.8745 43.5698 18.1572 42.4282 18.2997 41.9698L18.3195 41.9062L18.3857 41.8976C20.8988 41.5794 23.0256 40.6609 24.7066 39.1681L25.1097 38.81L24.8681 39.2921C23.7402 41.5428 21.13 44.7987 19.3605 44.7987Z" fill="#A18C80"/>
<path d="M19.498 35.5143C20.2585 34.4343 19.0056 32.5244 17.6661 34.9958C17.2821 35.7042 16.3051 36.642 15.9292 36.9402C16.8365 37.0008 19.0936 36.089 19.498 35.5143Z" fill="#9E7B58"/>
<path d="M19.2827 33.8661C18.8908 33.6461 18.2879 33.8483 17.6661 34.9958C17.3317 35.6128 16.5479 36.4034 16.1025 36.7941C17.7066 36.5169 19.7285 35.291 19.2827 33.8661Z" fill="#8A623A"/>
<path d="M18.9842 33.8907C18.7597 33.8907 18.3016 34.0407 17.7571 35.0453C17.4337 35.6423 16.6912 36.4086 16.221 36.8283C17.2195 36.7262 19.0646 35.9495 19.4131 35.4549C19.6972 35.0514 19.6634 34.5602 19.5038 34.2531C19.3845 34.0229 19.195 33.8907 18.9842 33.8907ZM16.0195 37.0466C15.9856 37.0466 15.9532 37.0455 15.9222 37.0437L15.6543 37.0259L15.8646 36.8588C16.2638 36.5424 17.2059 35.6274 17.5748 34.9465C18.1406 33.9023 18.6536 33.6833 18.9842 33.6833C19.2752 33.6833 19.5316 33.8562 19.6879 34.1574C19.8764 34.5205 19.9169 35.0993 19.5827 35.5741C19.1757 36.1523 17.0113 37.0466 16.0195 37.0466Z" fill="#A18C80"/>
<path d="M13.5962 37.3033C12.8863 37.3033 12.3209 37.2529 12.2715 37.2482L12.2905 37.0416C12.3162 37.0441 14.8746 37.2717 15.9954 36.7551L16.0822 36.9436C15.4512 37.2344 14.4252 37.3033 13.5962 37.3033Z" fill="#A18C80"/>
<path d="M40.2655 24.8069C40.2655 27.0926 38.5443 28.9453 36.421 28.9453C34.298 28.9453 32.5767 27.0926 32.5767 24.8069C32.5767 22.521 34.298 20.6097 36.421 20.6097C38.5443 20.6097 40.2655 22.521 40.2655 24.8069Z" fill="#D6BBAA"/>
<path d="M40.1851 25.8744C40.1851 28.1602 38.4638 30.0128 36.3406 30.0128C34.2173 30.0128 32.4961 28.1602 32.4961 25.8744C32.4961 23.5886 34.2173 21.736 36.3406 21.736C38.4638 21.736 40.1851 23.5886 40.1851 25.8744Z" fill="black"/>
<path d="M40.1851 26.2957C40.1851 28.5813 38.4638 30.4343 36.3406 30.4343C34.2173 30.4343 32.4961 28.5813 32.4961 26.2957C32.4961 24.01 34.2173 22.157 36.3406 22.157C38.4638 22.157 40.1851 24.01 40.1851 26.2957Z" fill="white"/>
<path d="M32.7993 27.8959C33.1299 29.0076 34.2844 30.4343 36.3407 30.4343C38.4138 30.4343 40.3105 28.3807 40.3105 25.8744C38.2619 27.8842 35.146 28.987 32.7993 27.8959Z" fill="#CCCCCC"/>
<path d="M36.3407 22.2607C34.2739 22.2607 32.5926 24.0708 32.5926 26.2954C32.5926 28.5204 34.2739 30.3303 36.3407 30.3303C38.4075 30.3303 40.0888 28.5204 40.0888 26.2954C40.0888 24.0708 38.4075 22.2607 36.3407 22.2607ZM36.3407 30.5377C34.1678 30.5377 32.3999 28.6348 32.3999 26.2954C32.3999 23.9562 34.1678 22.0535 36.3407 22.0535C38.5136 22.0535 40.2814 23.9562 40.2814 26.2954C40.2814 28.6348 38.5136 30.5377 36.3407 30.5377Z" fill="black"/>
<path d="M39.1225 26.8587C39.143 28.2273 38.2479 29.3497 37.1229 29.3645C35.9985 29.3795 35.07 28.2822 35.0492 26.9131C35.0289 25.5441 35.924 24.4221 37.0489 24.4068C38.1733 24.3918 39.1019 25.4896 39.1225 26.8587Z" fill="#0092FF"/>
<path d="M36.5932 27.8643C35.9734 27.7625 35.4912 27.4746 35.0605 27.1115C35.1629 28.3864 36.0537 29.3788 37.1232 29.3645C38.2348 29.3499 39.1204 28.2533 39.1213 26.9063C38.5411 27.6374 37.5813 27.9298 36.5932 27.8643Z" fill="#005DCC"/>
<path d="M38.7078 27.385C38.7218 28.3287 38.1363 29.1017 37.4003 29.1115C36.6641 29.1217 36.0557 28.3643 36.0418 27.4208C36.0273 26.4775 36.6128 25.7044 37.3489 25.6944C38.0852 25.6845 38.6935 26.4415 38.7078 27.385Z" fill="black"/>
<path d="M37.9414 26.4654C37.909 26.8469 37.538 27.1307 37.1121 27.0994C36.6861 27.0677 36.3669 26.7335 36.3992 26.3522C36.4312 25.9708 36.8026 25.6873 37.2284 25.7187C37.6542 25.7495 37.9735 26.0841 37.9414 26.4654Z" fill="white"/>
<path d="M37.0352 28.4272C37.0203 28.6025 36.8494 28.7334 36.6537 28.7192C36.4576 28.7042 36.3106 28.5506 36.3252 28.375C36.3405 28.1997 36.5111 28.0691 36.7072 28.0837C36.9029 28.098 37.0499 28.2519 37.0352 28.4272Z" fill="white"/>
<path d="M37.1855 24.5338C37.1407 24.5306 37.0955 24.5295 37.0502 24.5298C36 24.5444 35.1614 25.6123 35.181 26.9113C35.2002 28.1979 36.0625 29.2579 37.1214 29.2419C38.1715 29.2277 39.0101 28.1594 38.9905 26.8605C38.9722 25.629 38.1796 24.607 37.1855 24.5338ZM36.9652 29.4833C35.8373 29.4005 34.9379 28.2722 34.9173 26.9145C34.8961 25.4803 35.8511 24.3002 37.0465 24.2834C38.2465 24.2706 39.2326 25.4363 39.2539 26.8569C39.2755 28.2914 38.3204 29.4719 37.1244 29.488C37.0709 29.4883 37.0179 29.4872 36.9652 29.4833Z" fill="#003084"/>
<path d="M33.5078 19.4754C33.5078 19.4754 33.5657 17.9555 34.3842 17.7173C35.7217 17.3279 38.8542 18.0854 39.7073 20.3316C37.3505 19.0529 35.3458 18.5281 33.5078 19.4754Z" fill="#BFAD9E"/>
<path d="M33.6533 18.6393C33.486 19.108 33.5078 19.4754 33.5078 19.4754C35.2691 18.5675 37.4359 19.0557 39.6663 20.2196C38.111 18.7161 35.4668 17.6963 33.6533 18.6393Z" fill="#A78F7A"/>
<path d="M35.5186 18.8871C36.6466 18.8871 37.9157 19.2737 39.4947 20.1009C38.6542 18.3744 36.4402 17.7234 35.1782 17.7234C34.8878 17.7234 34.6232 17.7556 34.4133 17.8169C33.8328 17.9858 33.6699 18.9085 33.6264 19.3018C34.2231 19.023 34.8439 18.8871 35.5186 18.8871ZM39.9035 20.556L39.658 20.4226C37.9879 19.5167 36.6725 19.0945 35.5186 19.0945C34.815 19.0945 34.1728 19.2491 33.5554 19.5675L33.3975 19.6489L33.4044 19.4714C33.4068 19.4064 33.4752 17.8737 34.3554 17.6177C34.5871 17.5502 34.8639 17.516 35.1782 17.516C36.5588 17.516 39.0355 18.2703 39.8042 20.2947L39.9035 20.556Z" fill="#726153"/>
<path d="M55.6353 21.8269C55.6353 21.8269 60.6816 18.5 55.7392 16.495C58.0893 15.1474 57.6052 12.14 53.4576 13.1943C54.2484 12.2349 55.0649 10.1181 52.4896 10.3429C53.7861 8.71809 52.2653 5.58993 48.8953 7.40057C49.1153 6.2339 47.3137 5.13223 46.1213 6.76521C46.4454 4.38047 43.7103 2.53996 41.7402 6.07388C41.144 4.3545 38.1888 2.70665 37.9036 6.54324C36.711 4.39325 34.8446 5.33101 34.9828 7.45641C34.2397 6.76521 31.9412 5.83204 32.0708 8.83894C30.2475 9.02924 30.0314 13.9981 33.8249 12.6066C33.0372 13.8793 34.1533 16.8909 37.1777 14.0756C36.0371 16.4346 37.9554 19.416 40.1756 16.6163C40.0293 18.0029 42.4142 20.1937 43.7103 17.1348C44.3553 18.3097 46.1335 19.416 48.5148 18.5281C49.2753 18.8737 55.6353 21.8269 55.6353 21.8269Z" fill="#F2D9BD"/>
<path d="M55.8717 16.4225C56.0009 16.009 57.2369 15.9386 57.0324 14.3341C56.8133 15.066 55.6471 16.2322 54.2363 15.4617C54.2363 18.1248 51.4129 16.7735 50.738 15.4617C50.7227 15.4656 50.3152 16.7113 49.6327 16.9844C48.754 17.3357 47.4634 16.4143 46.9886 15.8038C45.8365 17.1625 44.5838 15.6115 44.1629 14.7288C43.0687 15.9664 41.0435 16.0769 40.9626 14.6648C39.1211 15.4617 37.8964 15.4855 38.2406 12.2538C35.2691 14.0945 34.5801 13.7833 35.026 11.2169C32.612 12.5291 30.9275 11.0256 31.4875 9.09717C30.2542 10.1337 30.4877 13.8305 33.8249 12.6066C33.0372 13.8793 34.1533 16.8909 37.1777 14.0756C36.0371 16.4346 37.9554 19.416 40.1756 16.6163C40.0293 18.0029 42.4142 20.1937 43.7103 17.1348C44.3553 18.3097 46.1335 19.416 48.5148 18.5281C49.2753 18.8737 55.6353 21.8269 55.6353 21.8269C55.6353 21.8269 57.6519 20.4148 57.8922 18.9758C58.0483 17.5803 55.8365 16.536 55.8717 16.4225Z" fill="#D3B498"/>
<path d="M53.4575 13.1943C54.2483 12.2349 55.0648 10.1181 52.4895 10.3429C53.786 8.71809 52.2652 5.58993 48.8947 7.40057C49.1152 6.2339 47.3136 5.13223 46.1212 6.76521C46.4451 4.38047 43.7102 2.53996 41.7401 6.07388C41.1439 4.3545 38.1887 2.70665 37.9035 6.54324C36.7109 4.39325 34.8445 5.33101 34.9827 7.45641C34.2396 6.76521 31.9411 5.83204 32.0707 8.83894C32.0387 9.43457 32.6001 9.55375 33.0032 9.957C31.4287 7.52614 34.0279 6.82272 35.9678 9.80837C35.5703 6.40392 36.1233 5.50381 38.4348 8.33374C38.8226 4.92985 42.5548 4.61953 41.6383 8.45528C43.151 8.24581 43.9295 8.69351 43.5148 10.6071C44.5746 10.4537 46.1816 11.0785 45.4429 12.7546C47.0803 11.9167 47.7415 10.2706 44.9476 9.62279C45.3796 8.88812 44.6931 6.71354 42.7079 7.04177C43.9936 3.41257 45.2657 6.05471 45.7064 7.59615C47.711 6.4899 48.4112 7.2168 46.873 9.23802C48.4457 9.41971 52.3504 7.48169 51.1763 10.9907C54.6761 11.5811 52.6951 12.5397 51.8157 14.1275C51.8676 14.1257 51.9164 14.1243 51.9672 14.1225C52.5578 13.8693 53.1307 13.5688 53.6207 13.1567C53.5659 13.1695 53.5134 13.1802 53.4575 13.1943Z" fill="#FCEFE3"/>
<path d="M48.5189 18.416L48.558 18.4337C49.2732 18.7585 55.0072 21.4208 55.6255 21.7078C55.9595 21.4752 57.9416 20.0291 57.7983 18.5846C57.7197 17.7948 57.0139 17.1241 55.7003 16.5914L55.5029 16.511L55.6875 16.4054C56.664 15.8454 57.2038 14.9212 57.0003 14.1577C56.8175 13.4715 56.0989 13.0781 55.0289 13.0781C54.5691 13.0781 54.0492 13.151 53.4834 13.2946L53.1762 13.3728L53.3779 13.1282C53.9016 12.4931 54.3145 11.5141 54.0488 10.9509C53.8575 10.5451 53.3305 10.3734 52.4992 10.4459L52.2584 10.4669L52.4091 10.2781C52.897 9.66612 52.9859 8.8006 52.6353 8.07231C52.2943 7.36361 51.6204 6.95717 50.7866 6.95717C50.2244 6.95717 49.6045 7.13706 48.9446 7.49168L48.7533 7.59434L48.7934 7.38139C48.8497 7.08274 48.7636 6.77729 48.5509 6.52045C48.3034 6.22208 47.9236 6.044 47.5347 6.044C47.1888 6.044 46.6776 6.17985 46.2053 6.8266L45.9636 7.15734L46.0188 6.75131C46.1186 6.01664 45.9243 5.30683 45.4858 4.80468C45.1494 4.41964 44.7046 4.20725 44.2333 4.20725C43.3734 4.20725 42.5203 4.88831 41.831 6.12471L41.7184 6.32668L41.6427 6.10804C41.3097 5.14792 40.285 4.30615 39.4499 4.30615C38.627 4.30615 38.1149 5.10305 38.0072 6.55101L37.9815 6.89703L37.8132 6.5938C37.402 5.85231 36.863 5.4274 36.3344 5.4274C36.0479 5.4274 35.7818 5.54964 35.5647 5.78119C35.2162 6.15346 35.0418 6.76159 35.0866 7.45001L35.1034 7.71032L34.9125 7.53252C34.5529 7.1979 33.8918 6.85938 33.324 6.85938C33.0166 6.85938 32.7663 6.95787 32.5802 7.15234C32.2766 7.46918 32.1402 8.03536 32.1747 8.83477L32.1789 8.93214L32.0818 8.94214C31.2961 9.02424 30.8612 10.0669 30.909 10.9864C30.9533 11.8382 31.4226 12.7485 32.607 12.7485C32.959 12.7485 33.3569 12.6682 33.7895 12.5095L34.0715 12.406L33.9134 12.6614C33.6079 13.1546 33.6093 13.9422 33.9163 14.4934C34.0798 14.7868 34.3955 15.1367 34.971 15.1367C35.5696 15.1367 36.3081 14.7437 37.1072 13.9999L37.5119 13.6233L37.2713 14.1207C36.7468 15.2057 36.9154 16.3347 37.3153 16.9719C37.588 17.4068 37.9724 17.6457 38.3978 17.6457C38.9402 17.6457 39.527 17.2678 40.0946 16.552L40.3164 16.2721L40.2789 16.627C40.2351 17.043 40.4372 17.5561 40.8065 17.9666C41.1558 18.3546 41.5928 18.5771 42.0058 18.5771C42.6477 18.5771 43.2043 18.0644 43.6151 17.0943L43.6986 16.8973L43.8015 17.0847C44.2222 17.8513 45.2671 18.7467 46.8278 18.7467C47.3616 18.7467 47.9172 18.6404 48.4787 18.431L48.5189 18.416ZM55.6444 21.9453L55.5918 21.9208C55.5293 21.8917 49.4168 19.0535 48.511 18.64C47.9397 18.8484 47.3735 18.9541 46.8278 18.9541C45.2928 18.9541 44.2266 18.1305 43.7242 17.3589C43.1736 18.5313 42.4917 18.7845 42.0058 18.7845C41.5342 18.7845 41.0408 18.5369 40.6524 18.1052C40.3264 17.7428 40.1189 17.3022 40.0747 16.8987C39.5212 17.5245 38.9454 17.8534 38.3978 17.8534C37.8985 17.8534 37.4516 17.5796 37.1397 17.0822C36.6921 16.3685 36.6154 15.3532 36.9172 14.4439C36.1985 15.0414 35.5451 15.3441 34.971 15.3441C34.4434 15.3441 34.0044 15.0776 33.7352 14.5944C33.434 14.0535 33.3953 13.3338 33.6186 12.7861C33.2552 12.8989 32.9159 12.9558 32.607 12.9558C31.2775 12.9558 30.7512 11.944 30.702 10.9971C30.6512 10.0196 31.118 8.91297 31.9641 8.75004C31.9422 7.94077 32.0987 7.35514 32.4304 7.00912C32.6572 6.77187 32.9578 6.652 33.324 6.652C33.8585 6.652 34.4654 6.92342 34.8722 7.22957C34.8746 6.58018 35.0667 6.00956 35.4133 5.63965C35.6705 5.36517 35.989 5.22001 36.3344 5.22001C36.8782 5.22001 37.402 5.57311 37.8308 6.2225C38.0542 4.38338 38.9297 4.09848 39.4499 4.09848C40.3033 4.09848 41.3332 4.88969 41.7577 5.83662C42.4668 4.65008 43.3405 4 44.2333 4C44.7653 4 45.2658 4.23753 45.6421 4.66856C46.0529 5.13903 46.2674 5.77342 46.251 6.44655C46.6234 6.05081 47.0703 5.83662 47.5347 5.83662C47.9844 5.83662 48.4243 6.04262 48.7106 6.38821C48.9136 6.63324 49.0207 6.928 49.0171 7.22068C49.6448 6.90814 50.2393 6.74979 50.7866 6.74979C51.7034 6.74979 52.4454 7.19901 52.8224 7.9823C53.1737 8.71239 53.1222 9.56903 52.7014 10.2255C53.5119 10.1945 54.0228 10.4093 54.2362 10.8624C54.5357 11.4963 54.1331 12.4252 53.7139 13.0272C54.1885 12.9231 54.6296 12.8708 55.0289 12.8708C56.1831 12.8708 56.995 13.332 57.2009 14.1043C57.4188 14.9233 56.9264 15.8574 55.9663 16.4779C57.2368 17.0306 57.9221 17.7323 58.0046 18.5646C58.1724 20.2577 55.7937 21.8465 55.6925 21.9133L55.6444 21.9453Z" fill="#9E8772"/>
<path d="M47.2362 18.4825C44.9351 19.2272 46.5492 26.3839 49.2062 29.776C52.7061 34.2442 60.3016 36.5363 61.2348 35.8827C62.1682 35.2291 60.3205 34.2757 60.1288 31.3751C59.887 27.7114 56.638 15.441 47.2362 18.4825Z" fill="#FFE7D3"/>
<path d="M61.2535 34.9841C60.8819 34.2967 60.229 32.8939 60.1287 31.3751C60.004 29.4851 58.9343 24.6116 56.4768 21.5208C54.3229 18.8121 51.1708 16.9929 46.9888 18.6001C49.944 18.2755 53.6263 19.3018 55.82 22.2266C59.1882 26.7171 59.159 32.954 61.2535 34.9841Z" fill="#FFFAF6"/>
<path d="M53.8159 25.672C51.9145 23.9188 48.2215 22.4748 46.9037 18.6578C45.1117 19.9817 46.6904 26.5642 49.2058 29.776C52.7057 34.2442 60.3012 36.5363 61.2344 35.8827C61.4975 35.6985 61.5395 35.4902 61.4601 35.2212C59.1954 34.1058 56.1341 27.8102 53.8159 25.672Z" fill="#D6BBAA"/>
<path d="M50.0835 18.1066C49.1888 18.1066 48.2416 18.2663 47.2678 18.5814C46.8697 18.7101 46.5816 19.0575 46.4117 19.6133C45.7115 21.903 47.163 26.9995 49.2877 29.7123C52.4302 33.7238 58.7787 35.8888 60.6815 35.8888C60.9977 35.8888 61.1267 35.8319 61.1751 35.7977C61.5434 35.5399 61.4059 35.2483 61.031 34.556C60.6481 33.8487 60.124 32.8797 60.0251 31.3819C59.8511 28.7479 57.5352 18.1066 50.0835 18.1066ZM60.6815 36.0961C58.7496 36.0961 52.3072 33.9034 49.1245 29.84C46.9668 27.0852 45.4976 21.8935 46.2133 19.5525C46.4043 18.9281 46.7374 18.5347 47.204 18.384C48.1986 18.0621 49.1672 17.8989 50.0835 17.8989C57.6949 17.8989 60.0553 28.696 60.232 31.3684C60.3277 32.8209 60.8397 33.7665 61.2131 34.4571C61.5705 35.1168 61.8283 35.5936 61.2942 35.9677C61.1705 36.0541 60.9703 36.0961 60.6815 36.0961Z" fill="#A18C80"/>
<path d="M52.4771 26.2957C51.4728 25.4423 49.2958 24.2027 48.0071 22.4454C47.3587 24.2521 48.9029 27.1368 51.5074 29.7539C53.6729 31.9306 56.07 33.5813 58.0482 33.4476C57.2171 31.4737 54.2813 27.8288 52.4771 26.2957Z" fill="#FFA88F"/>
<path d="M58.0411 33.4717C57.4981 31.4003 54.062 27.9332 52.7839 26.7609C51.9234 25.9717 49.5559 24.3929 48.0786 22.6562C48.3596 24.4622 51.7777 27.0062 52.7321 27.8842C53.6043 28.6871 55.6789 30.8954 56.0618 32.0664C55.078 31.8555 53.9236 31.5473 53.0433 31.1457C55.0048 32.7466 56.9121 33.6374 58.0411 33.4717Z" fill="#DD846F"/>
<path d="M48.0462 22.669C47.601 24.3627 48.9338 27.0208 51.5805 29.6807C53.2468 31.3552 55.6824 33.3516 57.8213 33.3516C57.8451 33.3516 57.8689 33.3511 57.8927 33.3509C56.9856 31.3435 54.1192 27.827 52.4098 26.3747C52.1281 26.1354 51.7565 25.8676 51.3259 25.5578C50.273 24.7994 48.9737 23.8634 48.0462 22.669ZM57.8213 33.5588C55.6109 33.5588 53.1277 31.5295 51.4337 29.8268C48.6293 27.0087 47.2789 24.1664 47.9097 22.4101L47.9755 22.2266L48.0911 22.3841C49.0042 23.6298 50.359 24.6056 51.4472 25.3893C51.8814 25.7019 52.2562 25.9718 52.5438 26.2165C54.3093 27.7167 57.3 31.4033 58.1438 33.4074L58.2 33.541L58.0552 33.551C57.9777 33.5564 57.8999 33.5588 57.8213 33.5588Z" fill="#A18C80"/>
<path d="M91.5696 69.5911C91.5696 69.5911 87.7657 70.245 89.1629 73.1887C88.053 73.163 85.8287 76.218 88.6391 77.4573C87.3148 77.9367 86.8522 80.5531 88.8591 81.3653C88.8073 82.6598 89.5637 83.4282 91.4785 83.4082C90.1244 82.8579 89.8037 81.9741 90.0668 80.8063C89.2881 80.4426 89.4363 78.151 90.7481 78.0696C88.4378 76.0395 89.8001 74.008 91.1016 73.6503C90.0932 72.5991 89.0469 70.8119 91.5696 69.5911Z" fill="#D3B498"/>
<path d="M40.6108 99.8587L40.7536 99.7083C41.5879 100.5 42.39 100.382 42.398 100.381C42.398 100.381 41.5897 100.659 40.6108 99.8587Z" fill="#A18C80"/>
<path d="M39.7397 116.029L39.9356 115.961C40.0494 116.286 40.3775 116.678 40.3808 116.682C40.3808 116.682 39.866 116.39 39.7397 116.029Z" fill="#A18C80"/>
<path d="M37.1107 121.719L36.9595 121.578L39.5699 118.79L39.7212 118.932L37.1107 121.719Z" fill="black"/>
<path d="M50.8519 119.658L50.7012 119.515C50.7865 119.425 51.248 118.756 51.6542 118.161C51.8565 117.864 52.338 117.521 52.338 117.521C52.2032 117.721 51.0152 119.485 50.8519 119.658Z" fill="black"/>
<path d="M72.9599 119.618L72.8135 119.47L74.5591 117.737L75.633 116.962L72.9599 119.618Z" fill="black"/>
<path d="M90.981 122.358L90.8071 122.245L91.9099 120.552L92.7768 119.602L90.981 122.358Z" fill="black"/>
<path d="M87.067 92.2282C87.0638 92.1219 86.9856 89.7436 86.9995 89.0328C85.7939 88.95 85.0084 88.5758 84.6642 87.9209C84.1557 86.9525 84.7798 85.651 85.0501 85.17C84.2858 85.0654 83.7205 84.7141 83.367 84.123C82.7056 83.0179 82.9954 81.3906 83.1971 80.8358C81.2074 79.2176 82.0608 77.2454 82.4275 76.398C82.4495 76.3475 82.4695 76.3012 82.4869 76.2593C82.0357 76.0627 81.7248 75.7468 81.5616 75.3199C81.3544 74.776 81.4201 74.1428 81.5516 73.6162C81.7006 73.0201 82.137 72.6215 82.137 72.6215C82.1292 72.6369 81.3464 74.1744 81.7558 75.2465C81.9083 75.6459 82.212 75.9347 82.6587 76.1054L82.7547 76.1423L82.7187 76.2387C82.6945 76.303 82.6594 76.3844 82.6177 76.4806C82.2668 77.2923 81.4442 79.1927 83.3854 80.7214L83.4481 80.7704L83.4168 80.8433C83.2539 81.2238 82.8862 82.9158 83.5448 84.0168C83.8865 84.5878 84.4534 84.9124 85.2289 84.9811L85.3953 84.9961L85.3082 85.1386C85.1404 85.4135 84.3278 86.8349 84.8477 87.8245C85.1652 88.4283 85.927 88.7672 87.1119 88.832L87.2149 88.8372L87.2097 88.9403C87.1844 89.4745 87.2733 92.194 87.2743 92.2215L87.067 92.2282Z" fill="#9E8772"/>
<path d="M45.1726 93.4017L45.1353 93.1972C46.4706 92.9519 46.9095 90.6266 46.9249 90.3045L46.9296 90.2056H47.0285C47.7931 90.2056 48.334 89.9794 48.6362 89.5331C49.3119 88.5354 48.6594 86.6936 48.4432 86.1531L48.3966 86.0373L48.5196 86.013C49.3631 85.8474 49.8927 85.495 50.0931 84.9662C50.5419 83.7806 49.2316 82.0464 49.1758 81.973L49.0999 81.8743L49.2109 81.8177C50.2741 81.2786 50.8335 80.6691 50.8731 80.0067C50.936 78.9629 49.6818 78.1116 49.6689 78.1031C49.6689 78.1031 50.1537 78.1813 50.4794 78.5536C50.8051 78.9256 51.1152 79.4384 51.0803 80.019C51.0372 80.7359 50.4765 81.3842 49.4136 81.9461C49.7219 82.3746 50.7211 83.8937 50.287 85.0394C50.0696 85.6133 49.5296 86.0002 48.6804 86.1912C48.9805 86.9753 49.4858 88.6484 48.8081 89.6494C48.478 90.1369 47.9112 90.3934 47.1229 90.4121C47.0504 90.9893 46.5618 93.1461 45.1726 93.4017Z" fill="#9E8772"/>
<path d="M36.3653 80.4781C35.3396 79.5355 34.824 78.6074 34.8326 77.7197C34.8353 77.4548 34.8847 77.223 34.9547 77.0256C35.1297 76.5328 35.5884 76.3987 35.5884 76.3987C35.5829 76.4037 35.0464 76.8916 35.04 77.7261C35.0338 78.5511 35.5269 79.4259 36.5056 80.3256L36.3653 80.4781Z" fill="#9E8772"/>
<path d="M35.5572 72.4981C34.7934 72.4981 33.8712 72.0622 33.5543 70.819C33.5271 70.8361 33.4993 70.8532 33.4711 70.8705C32.8445 71.2585 31.8972 71.8438 30.269 70.3855L30.4073 70.2311C31.9199 71.5856 32.7534 71.0704 33.3619 70.6938C33.4351 70.6487 33.5051 70.6056 33.5724 70.5676L33.696 70.4978L33.7249 70.6369C33.9944 71.9298 34.9074 72.337 35.6729 72.2868C36.4463 72.2364 37.2652 71.7055 37.3337 70.7884C37.3337 70.7884 37.4374 71.4096 37.1592 71.7641C36.7954 72.2279 36.2317 72.4582 35.6865 72.4942C35.644 72.4967 35.6008 72.4981 35.5572 72.4981Z" fill="#9E8772"/>
<path d="M35.0235 62.7319C34.7102 62.7319 34.3866 62.6778 34.0742 62.5381C33.2189 62.1547 32.6586 61.2174 32.4081 59.7505C31.7272 59.7275 30.413 59.6638 30.3994 59.663L30.4094 59.4562C30.4239 59.4569 31.8524 59.5262 32.4997 59.546L32.5854 59.549L32.5989 59.6336C32.8304 61.0751 33.3552 61.9887 34.159 62.3486C35.3891 62.8998 36.8795 61.9613 36.8944 61.952C36.8944 61.952 36.3533 62.5381 35.5751 62.6801C35.3981 62.712 35.2127 62.7319 35.0235 62.7319Z" fill="#9E8772"/>
<path d="M35.5134 48.0037C35.1901 48.0037 34.8764 47.9355 34.6349 47.7427C34.2166 47.4084 34.1006 46.7716 34.2898 45.8488C34.2101 45.8242 34.121 45.8 34.0262 45.7741C33.4264 45.6097 32.5201 45.3612 32.1475 44.5373L32.3364 44.452C32.6689 45.1869 33.4851 45.4107 34.081 45.5742C34.217 45.6113 34.3408 45.6453 34.4446 45.6813L34.5321 45.7114L34.5121 45.8019C34.3144 46.6904 34.3991 47.2886 34.764 47.5805C35.4744 48.1477 37.0364 47.4208 37.052 47.413C37.052 47.413 36.5222 47.8892 35.8875 47.9767C35.7637 47.9938 35.6379 48.0037 35.5134 48.0037Z" fill="#9E8772"/>
<path d="M46.0783 72.1721C46.0152 72.1721 45.9517 72.1685 45.888 72.161C45.3217 72.096 44.5257 71.6962 43.9187 70.175C43.4827 70.3521 42.0119 70.7778 40.9914 70.1138C40.4372 69.7536 40.1243 69.1398 40.056 68.2829C40.0302 67.9592 40.2896 67.232 40.2896 67.232C40.138 68.579 40.4122 69.4901 41.1045 69.9403C42.1534 70.622 43.7727 70.0342 43.9232 69.946L44.0289 69.8838L44.0725 69.9986C44.5273 71.1924 45.1633 71.869 45.9117 71.9551C46.6934 72.0451 47.4476 71.4871 47.8467 70.8944C48.0899 70.5331 48.181 70.1782 48.0783 69.9904L47.9759 69.8026L48.1867 69.8386C49.3381 70.0342 50.1325 69.9029 50.5483 69.4477C51.1229 68.8188 50.8362 67.7406 50.7286 67.3344L50.6655 67.0948L50.8569 67.1719C51.9055 67.5926 52.642 67.5755 52.9304 67.1215C53.2181 66.6692 52.9955 65.8292 52.4539 65.3243L52.1836 65.0729L52.5456 65.1472C53.9261 65.4313 54.973 65.0198 55.1515 64.4759C55.2962 64.0341 54.8705 63.5345 54.0125 63.1401C54.0125 63.1401 54.8834 63.3961 55.0775 63.6078C55.4476 64.0118 55.4054 64.3667 55.3485 64.5404C55.1518 65.1397 54.1636 65.596 52.8057 65.4028C53.2249 65.9373 53.4325 66.7182 53.1054 67.2331C52.9123 67.5368 52.3806 67.9518 50.9693 67.4369C51.0915 67.9307 51.2814 68.9528 50.7015 69.5879C50.2566 70.0747 49.4562 70.2366 48.3194 70.0693C48.3588 70.3251 48.2536 70.6615 48.0188 71.0103C47.6163 71.6077 46.8763 72.1721 46.0783 72.1721Z" fill="#9E8772"/>
<path d="M58.4849 80.7195C57.3982 80.6851 57.103 79.2606 57.103 79.2606C57.5309 80.1627 58.0781 80.6008 58.6464 80.4973C59.2309 80.3892 59.7529 79.7051 59.8095 78.9729L59.827 78.7428L59.9873 78.9085C60.796 79.7459 61.4983 80.024 62.0199 79.714C62.7261 79.2939 62.9111 77.9554 62.6914 77.2578L62.6064 76.9882L62.8457 77.1391C64.4384 78.1439 65.6342 78.2289 66.2125 77.3791C66.8248 76.479 66.5545 74.9105 66.0559 74.5449L65.8779 74.4144L66.0919 74.3607C67.1373 74.0983 67.7127 73.7473 67.7562 73.3463C67.8173 72.7762 66.8081 72.1432 66.414 71.9473C66.414 71.9473 68.0516 72.5387 67.962 73.3682C67.9101 73.8508 67.3739 74.2264 66.3238 74.5143C66.8355 75.1131 66.9695 76.6351 66.3839 77.4957C66.0186 78.0327 65.0917 78.7179 62.9483 77.4448C63.0825 78.2339 62.8599 79.4558 62.1259 79.8925C61.7169 80.1357 61.02 80.2018 59.9877 79.2025C59.848 79.9387 59.2964 80.588 58.6836 80.7011C58.6254 80.7122 58.5585 80.7195 58.4849 80.7195Z" fill="#9E8772"/>
<path d="M44.0009 58.3648C43.6135 58.3648 42.8361 58.1316 42.3508 56.4229C41.7828 57.0705 40.4595 57.6988 39.402 57.3161C38.7995 57.0982 38.1371 56.4909 38.1133 54.8802C38.1093 54.6037 38.3675 53.9814 38.3675 53.9814C38.1783 55.7053 38.5606 56.7909 39.4727 57.1214C40.4947 57.4915 41.877 56.7899 42.3104 56.1366L42.4397 55.9418L42.4973 56.1686C42.8406 57.5239 43.4448 58.2627 44.117 58.1479C44.6772 58.0512 45.0927 57.3585 45.0242 56.6359L44.9971 56.3496L45.2006 56.5527C46.1264 57.4754 46.9937 57.751 47.6426 57.3293C48.235 56.9442 48.4943 56.0659 48.314 55.5955L48.256 55.4439L48.4182 55.4549C49.1828 55.5082 49.6585 55.3621 49.8324 55.0233C50.0695 54.5613 49.6891 53.8679 49.5238 53.6677L49.3581 53.4676L49.6159 53.4988C50.906 53.6552 51.338 53.4102 51.4725 53.1774C51.7075 52.7712 51.2366 52.1336 51.2318 52.1273C51.2318 52.1273 51.5945 52.2695 51.689 52.5775C51.7584 52.8029 51.78 53.06 51.652 53.2812C51.4273 53.6695 50.8103 53.8196 49.8167 53.7288C50.0255 54.0781 50.245 54.6737 50.017 55.1182C49.8142 55.5125 49.3207 55.6974 48.5509 55.6698C48.6692 56.2362 48.3797 57.0975 47.7558 57.5032C47.347 57.7688 46.4901 58.0231 45.2377 56.8752C45.208 57.6113 44.7567 58.2479 44.1524 58.3523C44.1134 58.3591 44.062 58.3648 44.0009 58.3648Z" fill="#9E8772"/>
<path d="M91.7956 65.1472C92.5823 64.5402 92.9557 64.0171 92.9055 63.5928C92.8458 63.0861 92.1904 62.7916 91.7566 62.5972C91.6353 62.5427 91.5308 62.4955 91.4596 62.4524L91.3682 62.397L91.4266 62.3074C92.0817 61.2996 92.2388 60.492 91.8932 59.9067C91.5198 59.2752 90.624 59.0767 90.3153 59.097L90.1667 59.108L90.2082 58.9648C90.7225 57.203 89.368 56.419 89.3101 56.3867L89.411 56.2053C89.4263 56.2137 90.8985 57.0591 90.443 58.8921C90.8469 58.9217 91.6823 59.1422 92.0717 59.8014C92.4493 60.4405 92.311 61.2892 91.6613 62.3252C91.7129 62.3501 91.7747 62.3778 91.8416 62.408C92.2889 62.609 93.0377 62.945 93.1118 63.5687C93.1396 63.8062 93.0698 64.0572 92.8995 64.325C92.7053 64.6305 91.7956 65.1472 91.7956 65.1472Z" fill="#9E8772"/>
<path d="M82.1432 63.8347C82.6994 63.2554 82.9077 62.7472 82.7627 62.3245C82.523 61.6263 81.373 61.2814 80.7311 61.1875L80.538 61.1595L80.6693 61.0152C81.6656 59.9213 81.9305 59.0092 81.4367 58.378C80.82 57.5907 79.1826 57.4797 78.3241 57.9441L78.1151 58.0576L78.1744 57.8271C78.4123 56.9039 78.3444 56.1914 77.9731 55.7088C77.4796 55.0669 76.6065 55.0534 76.5977 55.0534L76.599 54.8462C76.6389 54.8465 77.5831 54.8615 78.1374 55.5823C78.52 56.0794 78.6164 56.7803 78.4254 57.6678C79.3998 57.27 80.9606 57.4332 81.5999 58.2499C81.9814 58.7375 82.1667 59.6083 80.9474 61.0147C81.4399 61.1118 82.6763 61.4333 82.9586 62.2568C83.0344 62.478 83.0336 62.7141 82.9565 62.9635C82.858 63.281 82.1432 63.8347 82.1432 63.8347Z" fill="#9E8772"/>
<path d="M67.9347 61.7341C67.9436 61.7202 68.7902 60.327 68.302 59.3146C68.0261 58.7418 67.371 58.3894 66.3555 58.267L66.3799 58.0612C67.471 58.1923 68.1807 58.5841 68.4893 59.2251C68.718 59.7004 68.6899 60.2349 68.5798 60.6968C68.4311 61.3184 67.9347 61.7341 67.9347 61.7341Z" fill="#9E8772"/>
<path d="M53.4849 57.9246C53.5585 57.6295 53.6953 57.3396 53.9371 57.1181C54.4087 56.6857 55.1665 56.6188 56.1902 56.9176C56.5241 55.9233 57.0281 55.2839 57.6919 55.0065C58.3338 54.7384 59.0994 54.8273 59.9684 55.2704L59.8743 55.4553C59.0624 55.0411 58.3551 54.9547 57.7719 55.1982C57.1453 55.4596 56.6703 56.0883 56.3595 57.0662L56.3285 57.1643L56.2265 57.1451C55.2283 56.836 54.5054 56.8784 54.0773 57.2707C53.396 57.895 53.6722 59.2172 53.6754 59.2308C53.6754 59.2308 53.3244 58.5672 53.4849 57.9246Z" fill="#9E8772"/>
<path d="M48.5981 46.4162C48.6223 46.4162 51.034 46.3982 52.1914 45.0583C52.711 44.457 52.9048 43.6733 52.7676 42.7287L52.7539 42.6348L52.846 42.6131C53.5114 42.4553 54.308 42.1043 54.5643 41.9315L54.6799 42.1036C54.4228 42.2767 53.6534 42.6202 52.9855 42.792C53.1057 43.7579 52.8916 44.5657 52.3479 45.1944C51.8177 45.8078 51.0596 46.1582 50.3632 46.358C49.4573 46.6179 48.5981 46.4162 48.5981 46.4162Z" fill="#9E8772"/>
<path d="M31.9507 8.89339L32.1456 8.82227C32.1485 9.0491 32.7156 9.69071 33.0033 9.95699C33.0033 9.95699 32.1357 9.52846 31.9507 8.89339Z" fill="#9E8772"/>
<path d="M35.7021 9.09008C35.5965 8.64488 34.902 7.52252 34.895 7.51113L35.0712 7.40167C35.2772 7.73338 35.5577 8.12537 35.7021 9.09008Z" fill="#9E8772"/>
<path d="M45.4168 12.7847C46.0143 12.0963 46.2396 11.5284 46.0867 11.0967C45.8422 10.4058 44.6759 10.1991 44.237 10.1213C44.1914 10.1131 44.1527 10.1063 44.1221 10.1003L43.9947 10.0746L44.0475 9.95628C44.3564 9.26175 44.3263 8.72099 43.9579 8.349C43.4373 7.82338 42.3686 7.78893 42.075 7.91589L41.9389 7.97493L41.9303 7.82699C41.9138 7.54321 41.641 6.10803 41.6382 6.09344L41.8418 6.05469C41.852 6.10803 42.066 7.23386 42.1238 7.68503C42.5747 7.58516 43.5659 7.65878 44.1053 8.20315C44.3914 8.49194 44.647 9.02145 44.2881 9.91961C44.7707 10.0053 46.0001 10.2312 46.2822 11.0274C46.3721 11.2809 46.3574 11.5672 46.2389 11.8833C46.1205 12.1993 45.4168 12.7847 45.4168 12.7847Z" fill="#9E8772"/>
<path d="M47.4521 8.89478C47.4641 8.89062 48.6591 8.46709 48.8536 7.2168L49.0585 7.24875C48.844 8.62531 47.4521 8.89478 47.4521 8.89478Z" fill="#9E8772"/>
<path d="M28.0911 36.3997C27.5934 35.5843 26.6034 35.5093 26.5942 35.5089C26.5942 35.5089 26.8259 35.3297 27.0211 35.381C27.2176 35.4329 27.4739 35.5278 27.7234 35.706C27.9747 35.8856 28.0911 36.3997 28.0911 36.3997Z" fill="#A18C80"/>
<path d="M17.1789 42.2135L17.1689 42.0065C25.1484 41.6267 27.2517 35.6479 27.272 35.5875L27.4687 35.6536C27.4479 35.7152 25.3047 41.8269 17.1789 42.2135Z" fill="#A18C80"/>
<path d="M27.1664 43.3197L27.0547 43.1447C27.9148 42.596 28.3837 40.392 28.3883 40.3701C28.3883 40.3701 28.4842 40.9169 28.2954 41.4699C28.0601 42.1594 27.6842 42.9894 27.1664 43.3197Z" fill="#A18C80"/>
<path d="M33.8682 21.8305C33.8682 21.8305 33.9403 21.3949 34.335 21.1025C34.6855 20.8426 35.1729 20.5794 35.7759 20.4962C36.3146 20.4219 36.8174 20.475 37.4108 20.7392C37.9281 20.9696 38.2754 21.4934 38.2754 21.4934C37.4412 20.8579 36.6107 20.5915 35.8066 20.7015C34.6108 20.8654 33.8754 21.8208 33.8682 21.8305Z" fill="#A18C80"/>
<path d="M52.5441 26.2165C52.2561 25.9718 51.881 25.7016 51.4464 25.3889C49.7801 24.1892 47.4975 22.5464 47.1436 20.2261C47.1436 20.2261 47.0882 20.9464 47.2178 21.2683C47.9729 23.1438 49.8771 24.5149 51.3251 25.5572C51.7561 25.8673 52.1281 26.135 52.4101 26.3748C54.2766 27.9606 57.1993 31.65 57.9745 33.5443L58.1694 33.4722C57.375 31.516 54.4516 27.8373 52.5441 26.2165Z" fill="#A18C80"/>
<path d="M14.0853 41.588C13.931 41.1121 14.4294 39.7485 14.4294 39.7485C14.3499 40.1232 14.1687 41.1727 14.2824 41.524L14.0853 41.588Z" fill="#A18C80"/>
</svg>
