<svg width="128" height="128" viewBox="0 0 128 128" fill="none" xmlns="http://www.w3.org/2000/svg">
<path d="M74.1523 61.0597C74.1523 61.4225 73.8589 61.7169 73.4961 61.7169C73.1333 61.7169 72.8398 61.4225 72.8398 61.0597C72.8398 60.6979 73.1333 60.4044 73.4961 60.4044C73.8589 60.4044 74.1523 60.6979 74.1523 61.0597Z" fill="#CCEEEA"/>
<path d="M66.0093 86.1322H62.8564V30.5759C62.8564 29.7059 63.5624 29 64.4324 29C65.3033 29 66.0093 29.7059 66.0093 30.5759V86.1322Z" fill="#E68C35"/>
<path d="M79.8644 92.0544H49C49 88.7835 51.6522 86.1322 54.9231 86.1322H73.9422C77.2131 86.1322 79.8644 88.7835 79.8644 92.0544Z" fill="#201E1D"/>
<path d="M79.8644 99.3116H56.9556L56.3659 96.6181L54.5116 99.3116H49V92.0544H79.8644V99.3116Z" fill="#F9EC3E"/>
<path d="M49 93.2684H79.8644V92.0759H49V93.2684Z" fill="#F7CF0A"/>
</svg>
