<svg width="128" height="128" viewBox="0 0 128 128" fill="none" xmlns="http://www.w3.org/2000/svg">
<mask id="mask0_70_2" style="mask-type:alpha" maskUnits="userSpaceOnUse" x="33" y="3" width="63" height="114">
<rect x="33" y="3" width="63" height="114" fill="#D9D9D9"/>
</mask>
<g mask="url(#mask0_70_2)">
<path d="M19.496 46.856C18.6427 46.856 17.8747 46.5147 17.192 45.832C16.5093 45.1493 16.168 44.3813 16.168 43.528C16.168 42.5893 16.5093 41.8213 17.192 41.224C17.8747 40.5413 18.6427 40.2 19.496 40.2C20.4347 40.2 21.2027 40.5413 21.8 41.224C22.4827 41.8213 22.824 42.5893 22.824 43.528C22.824 44.3813 22.4827 45.1493 21.8 45.832C21.2027 46.5147 20.4347 46.856 19.496 46.856ZM-20.952 87.304C-21.8053 87.304 -22.5733 86.9627 -23.256 86.28C-23.9387 85.5973 -24.28 84.8293 -24.28 83.976C-24.28 83.0373 -23.9387 82.2693 -23.256 81.672C-22.5733 80.9893 -21.8053 80.648 -20.952 80.648C-20.0133 80.648 -19.2453 80.9893 -18.648 81.672C-17.9653 82.2693 -17.624 83.0373 -17.624 83.976C-17.624 84.8293 -17.9653 85.5973 -18.648 86.28C-19.2453 86.9627 -20.0133 87.304 -20.952 87.304ZM-11.48 93.32C-12.3333 93.32 -13.1013 92.9787 -13.784 92.296C-14.4667 91.6133 -14.808 90.8453 -14.808 89.992C-14.808 89.0533 -14.4667 88.2853 -13.784 87.688C-13.1013 87.0053 -12.3333 86.664 -11.48 86.664C-10.5413 86.664 -9.77333 87.0053 -9.176 87.688C-8.49333 88.2853 -8.152 89.0533 -8.152 89.992C-8.152 90.8453 -8.49333 91.6133 -9.176 92.296C-9.77333 92.9787 -10.5413 93.32 -11.48 93.32ZM-26.968 77.832C-27.8213 77.832 -28.5893 77.4907 -29.272 76.808C-29.9547 76.1253 -30.296 75.3573 -30.296 74.504C-30.296 73.5653 -29.9547 72.7973 -29.272 72.2C-28.5893 71.5173 -27.8213 71.176 -26.968 71.176C-26.0293 71.176 -25.2613 71.5173 -24.664 72.2C-23.9813 72.7973 -23.64 73.5653 -23.64 74.504C-23.64 75.3573 -23.9813 76.1253 -24.664 76.808C-25.2613 77.4907 -26.0293 77.832 -26.968 77.832ZM-0.727997 95.624C-1.58133 95.624 -2.34933 95.2827 -3.032 94.6C-3.71467 93.9173 -4.056 93.1493 -4.056 92.296C-4.056 91.3573 -3.71467 90.5893 -3.032 89.992C-2.34933 89.3093 -1.58133 88.968 -0.727997 88.968C0.210668 88.968 0.978667 89.3093 1.576 89.992C2.25867 90.5893 2.6 91.3573 2.6 92.296C2.6 93.1493 2.25867 93.9173 1.576 94.6C0.978667 95.2827 0.210668 95.624 -0.727997 95.624ZM-29.272 67.08C-30.1253 67.08 -30.8933 66.7387 -31.576 66.056C-32.2587 65.3733 -32.6 64.6053 -32.6 63.752C-32.6 62.8133 -32.2587 62.0453 -31.576 61.448C-30.8933 60.7653 -30.1253 60.424 -29.272 60.424C-28.3333 60.424 -27.5653 60.7653 -26.968 61.448C-26.2853 62.0453 -25.944 62.8133 -25.944 63.752C-25.944 64.6053 -26.2853 65.3733 -26.968 66.056C-27.5653 66.7387 -28.3333 67.08 -29.272 67.08ZM10.024 93.32C9.17067 93.32 8.40267 92.9787 7.72 92.296C7.03734 91.6133 6.696 90.8453 6.696 89.992C6.696 89.0533 7.03734 88.2853 7.72 87.688C8.40267 87.0053 9.17067 86.664 10.024 86.664C10.9627 86.664 11.7307 87.0053 12.328 87.688C13.0107 88.2853 13.352 89.0533 13.352 89.992C13.352 90.8453 13.0107 91.6133 12.328 92.296C11.7307 92.9787 10.9627 93.32 10.024 93.32ZM-26.968 56.328C-27.8213 56.328 -28.5893 55.9867 -29.272 55.304C-29.9547 54.6213 -30.296 53.8533 -30.296 53C-30.296 52.0613 -29.9547 51.2933 -29.272 50.696C-28.5893 50.0133 -27.8213 49.672 -26.968 49.672C-26.0293 49.672 -25.2613 50.0133 -24.664 50.696C-23.9813 51.2933 -23.64 52.0613 -23.64 53C-23.64 53.8533 -23.9813 54.6213 -24.664 55.304C-25.2613 55.9867 -26.0293 56.328 -26.968 56.328ZM-20.952 46.856C-21.8053 46.856 -22.5733 46.5147 -23.256 45.832C-23.9387 45.1493 -24.28 44.3813 -24.28 43.528C-24.28 42.5893 -23.9387 41.8213 -23.256 41.224C-22.5733 40.5413 -21.8053 40.2 -20.952 40.2C-20.0133 40.2 -19.2453 40.5413 -18.648 41.224C-17.9653 41.8213 -17.624 42.5893 -17.624 43.528C-17.624 44.3813 -17.9653 45.1493 -18.648 45.832C-19.2453 46.5147 -20.0133 46.856 -20.952 46.856ZM19.496 87.304C18.6427 87.304 17.8747 86.9627 17.192 86.28C16.5093 85.5973 16.168 84.8293 16.168 83.976C16.168 83.0373 16.5093 82.2693 17.192 81.672C17.8747 80.9893 18.6427 80.648 19.496 80.648C20.4347 80.648 21.2027 80.9893 21.8 81.672C22.4827 82.2693 22.824 83.0373 22.824 83.976C22.824 84.8293 22.4827 85.5973 21.8 86.28C21.2027 86.9627 20.4347 87.304 19.496 87.304ZM-11.48 40.84C-12.3333 40.84 -13.1013 40.4987 -13.784 39.816C-14.4667 39.1333 -14.808 38.3653 -14.808 37.512C-14.808 36.5733 -14.4667 35.8053 -13.784 35.208C-13.1013 34.5253 -12.3333 34.184 -11.48 34.184C-10.5413 34.184 -9.77333 34.5253 -9.176 35.208C-8.49333 35.8053 -8.152 36.5733 -8.152 37.512C-8.152 38.3653 -8.49333 39.1333 -9.176 39.816C-9.77333 40.4987 -10.5413 40.84 -11.48 40.84ZM25.512 77.832C24.6587 77.832 23.8907 77.4907 23.208 76.808C22.5253 76.1253 22.184 75.3573 22.184 74.504C22.184 73.5653 22.5253 72.7973 23.208 72.2C23.8907 71.5173 24.6587 71.176 25.512 71.176C26.4507 71.176 27.2187 71.5173 27.816 72.2C28.4987 72.7973 28.84 73.5653 28.84 74.504C28.84 75.3573 28.4987 76.1253 27.816 76.808C27.2187 77.4907 26.4507 77.832 25.512 77.832ZM-0.727997 38.536C-1.58133 38.536 -2.34933 38.1947 -3.032 37.512C-3.71467 36.8293 -4.056 36.0613 -4.056 35.208C-4.056 34.2693 -3.71467 33.5013 -3.032 32.904C-2.34933 32.2213 -1.58133 31.88 -0.727997 31.88C0.210668 31.88 0.978667 32.2213 1.576 32.904C2.25867 33.5013 2.6 34.2693 2.6 35.208C2.6 36.0613 2.25867 36.8293 1.576 37.512C0.978667 38.1947 0.210668 38.536 -0.727997 38.536ZM27.816 67.08C26.9627 67.08 26.1947 66.7387 25.512 66.056C24.8293 65.3733 24.488 64.6053 24.488 63.752C24.488 62.8133 24.8293 62.0453 25.512 61.448C26.1947 60.7653 26.9627 60.424 27.816 60.424C28.7547 60.424 29.5227 60.7653 30.12 61.448C30.8027 62.0453 31.144 62.8133 31.144 63.752C31.144 64.6053 30.8027 65.3733 30.12 66.056C29.5227 66.7387 28.7547 67.08 27.816 67.08ZM10.024 40.84C9.17067 40.84 8.40267 40.4987 7.72 39.816C7.03734 39.1333 6.696 38.3653 6.696 37.512C6.696 36.5733 7.03734 35.8053 7.72 35.208C8.40267 34.5253 9.17067 34.184 10.024 34.184C10.9627 34.184 11.7307 34.5253 12.328 35.208C13.0107 35.8053 13.352 36.5733 13.352 37.512C13.352 38.3653 13.0107 39.1333 12.328 39.816C11.7307 40.4987 10.9627 40.84 10.024 40.84ZM25.512 56.328C24.6587 56.328 23.8907 55.9867 23.208 55.304C22.5253 54.6213 22.184 53.8533 22.184 53C22.184 52.0613 22.5253 51.2933 23.208 50.696C23.8907 50.0133 24.6587 49.672 25.512 49.672C26.4507 49.672 27.2187 50.0133 27.816 50.696C28.4987 51.2933 28.84 52.0613 28.84 53C28.84 53.8533 28.4987 54.6213 27.816 55.304C27.2187 55.9867 26.4507 56.328 25.512 56.328ZM62.076 60.936C58.1507 60.936 54.78 60.04 51.964 58.248C49.148 56.456 46.972 54.0667 45.436 51.08C43.9853 48.0933 43.26 44.8933 43.26 41.48C43.26 37.64 44.1133 34.2267 45.82 31.24C47.612 28.168 50.0013 25.7787 52.988 24.072C56.06 22.3653 59.5587 21.512 63.484 21.512C67.4093 21.512 70.78 22.408 73.596 24.2C76.4973 25.9067 78.716 28.2107 80.252 31.112C81.788 34.0133 82.556 37.256 82.556 40.84C82.556 44.7653 81.66 48.264 79.868 51.336C78.1613 54.3227 75.772 56.6693 72.7 58.376C69.628 60.0827 66.0867 60.936 62.076 60.936ZM58.62 49.544C60.412 49.544 62.2893 48.776 64.252 47.24C66.2147 45.704 67.8787 43.912 69.244 41.864C70.6947 39.7307 71.42 37.8107 71.42 36.104C71.42 35.08 71.0787 34.2693 70.396 33.672C69.7987 33.0747 68.8173 32.776 67.452 32.776C65.8307 32.776 63.996 33.5013 61.948 34.952C59.9853 36.3173 58.2787 37.9813 56.828 39.944C55.3773 41.9067 54.652 43.7413 54.652 45.448C54.652 46.8987 55.036 47.9653 55.804 48.648C56.572 49.2453 57.5107 49.544 58.62 49.544ZM79.356 112.264C75.8573 107.315 72.6147 103.219 69.628 99.976C66.6413 96.7333 63.6973 94.088 60.796 92.04C57.98 89.992 55.1213 88.2853 52.22 86.92C49.404 85.4693 46.3747 84.104 43.132 82.824L52.476 64.52C57.084 67.08 61.436 70.5787 65.532 75.016C69.7133 79.368 73.596 84.488 77.18 90.376C80.8493 96.1787 84.22 102.579 87.292 109.576L79.356 112.264Z" fill="#F4B667"/>
</g>
</svg>
