<svg width="128" height="128" viewBox="0 0 128 128" fill="none" xmlns="http://www.w3.org/2000/svg">
<mask id="mask0_70_2" style="mask-type:alpha" maskUnits="userSpaceOnUse" x="36" y="7" width="63" height="114">
<rect x="36" y="7" width="63" height="114" fill="#D9D9D9"/>
</mask>
<g mask="url(#mask0_70_2)">
<path d="M19.496 47.856C18.6427 47.856 17.8747 47.5147 17.192 46.832C16.5093 46.1493 16.168 45.3813 16.168 44.528C16.168 43.5893 16.5093 42.8213 17.192 42.224C17.8747 41.5413 18.6427 41.2 19.496 41.2C20.4347 41.2 21.2027 41.5413 21.8 42.224C22.4827 42.8213 22.824 43.5893 22.824 44.528C22.824 45.3813 22.4827 46.1493 21.8 46.832C21.2027 47.5147 20.4347 47.856 19.496 47.856ZM-20.952 88.304C-21.8053 88.304 -22.5733 87.9627 -23.256 87.28C-23.9387 86.5973 -24.28 85.8293 -24.28 84.976C-24.28 84.0373 -23.9387 83.2693 -23.256 82.672C-22.5733 81.9893 -21.8053 81.648 -20.952 81.648C-20.0133 81.648 -19.2453 81.9893 -18.648 82.672C-17.9653 83.2693 -17.624 84.0373 -17.624 84.976C-17.624 85.8293 -17.9653 86.5973 -18.648 87.28C-19.2453 87.9627 -20.0133 88.304 -20.952 88.304ZM-11.48 94.32C-12.3333 94.32 -13.1013 93.9787 -13.784 93.296C-14.4667 92.6133 -14.808 91.8453 -14.808 90.992C-14.808 90.0533 -14.4667 89.2853 -13.784 88.688C-13.1013 88.0053 -12.3333 87.664 -11.48 87.664C-10.5413 87.664 -9.77333 88.0053 -9.176 88.688C-8.49333 89.2853 -8.152 90.0533 -8.152 90.992C-8.152 91.8453 -8.49333 92.6133 -9.176 93.296C-9.77333 93.9787 -10.5413 94.32 -11.48 94.32ZM-26.968 78.832C-27.8213 78.832 -28.5893 78.4907 -29.272 77.808C-29.9547 77.1253 -30.296 76.3573 -30.296 75.504C-30.296 74.5653 -29.9547 73.7973 -29.272 73.2C-28.5893 72.5173 -27.8213 72.176 -26.968 72.176C-26.0293 72.176 -25.2613 72.5173 -24.664 73.2C-23.9813 73.7973 -23.64 74.5653 -23.64 75.504C-23.64 76.3573 -23.9813 77.1253 -24.664 77.808C-25.2613 78.4907 -26.0293 78.832 -26.968 78.832ZM-0.727997 96.624C-1.58133 96.624 -2.34933 96.2827 -3.032 95.6C-3.71467 94.9173 -4.056 94.1493 -4.056 93.296C-4.056 92.3573 -3.71467 91.5893 -3.032 90.992C-2.34933 90.3093 -1.58133 89.968 -0.727997 89.968C0.210668 89.968 0.978667 90.3093 1.576 90.992C2.25867 91.5893 2.6 92.3573 2.6 93.296C2.6 94.1493 2.25867 94.9173 1.576 95.6C0.978667 96.2827 0.210668 96.624 -0.727997 96.624ZM-29.272 68.08C-30.1253 68.08 -30.8933 67.7387 -31.576 67.056C-32.2587 66.3733 -32.6 65.6053 -32.6 64.752C-32.6 63.8133 -32.2587 63.0453 -31.576 62.448C-30.8933 61.7653 -30.1253 61.424 -29.272 61.424C-28.3333 61.424 -27.5653 61.7653 -26.968 62.448C-26.2853 63.0453 -25.944 63.8133 -25.944 64.752C-25.944 65.6053 -26.2853 66.3733 -26.968 67.056C-27.5653 67.7387 -28.3333 68.08 -29.272 68.08ZM10.024 94.32C9.17067 94.32 8.40267 93.9787 7.72 93.296C7.03734 92.6133 6.696 91.8453 6.696 90.992C6.696 90.0533 7.03734 89.2853 7.72 88.688C8.40267 88.0053 9.17067 87.664 10.024 87.664C10.9627 87.664 11.7307 88.0053 12.328 88.688C13.0107 89.2853 13.352 90.0533 13.352 90.992C13.352 91.8453 13.0107 92.6133 12.328 93.296C11.7307 93.9787 10.9627 94.32 10.024 94.32ZM-26.968 57.328C-27.8213 57.328 -28.5893 56.9867 -29.272 56.304C-29.9547 55.6213 -30.296 54.8533 -30.296 54C-30.296 53.0613 -29.9547 52.2933 -29.272 51.696C-28.5893 51.0133 -27.8213 50.672 -26.968 50.672C-26.0293 50.672 -25.2613 51.0133 -24.664 51.696C-23.9813 52.2933 -23.64 53.0613 -23.64 54C-23.64 54.8533 -23.9813 55.6213 -24.664 56.304C-25.2613 56.9867 -26.0293 57.328 -26.968 57.328ZM-20.952 47.856C-21.8053 47.856 -22.5733 47.5147 -23.256 46.832C-23.9387 46.1493 -24.28 45.3813 -24.28 44.528C-24.28 43.5893 -23.9387 42.8213 -23.256 42.224C-22.5733 41.5413 -21.8053 41.2 -20.952 41.2C-20.0133 41.2 -19.2453 41.5413 -18.648 42.224C-17.9653 42.8213 -17.624 43.5893 -17.624 44.528C-17.624 45.3813 -17.9653 46.1493 -18.648 46.832C-19.2453 47.5147 -20.0133 47.856 -20.952 47.856ZM19.496 88.304C18.6427 88.304 17.8747 87.9627 17.192 87.28C16.5093 86.5973 16.168 85.8293 16.168 84.976C16.168 84.0373 16.5093 83.2693 17.192 82.672C17.8747 81.9893 18.6427 81.648 19.496 81.648C20.4347 81.648 21.2027 81.9893 21.8 82.672C22.4827 83.2693 22.824 84.0373 22.824 84.976C22.824 85.8293 22.4827 86.5973 21.8 87.28C21.2027 87.9627 20.4347 88.304 19.496 88.304ZM-11.48 41.84C-12.3333 41.84 -13.1013 41.4987 -13.784 40.816C-14.4667 40.1333 -14.808 39.3653 -14.808 38.512C-14.808 37.5733 -14.4667 36.8053 -13.784 36.208C-13.1013 35.5253 -12.3333 35.184 -11.48 35.184C-10.5413 35.184 -9.77333 35.5253 -9.176 36.208C-8.49333 36.8053 -8.152 37.5733 -8.152 38.512C-8.152 39.3653 -8.49333 40.1333 -9.176 40.816C-9.77333 41.4987 -10.5413 41.84 -11.48 41.84ZM25.512 78.832C24.6587 78.832 23.8907 78.4907 23.208 77.808C22.5253 77.1253 22.184 76.3573 22.184 75.504C22.184 74.5653 22.5253 73.7973 23.208 73.2C23.8907 72.5173 24.6587 72.176 25.512 72.176C26.4507 72.176 27.2187 72.5173 27.816 73.2C28.4987 73.7973 28.84 74.5653 28.84 75.504C28.84 76.3573 28.4987 77.1253 27.816 77.808C27.2187 78.4907 26.4507 78.832 25.512 78.832ZM-0.727997 39.536C-1.58133 39.536 -2.34933 39.1947 -3.032 38.512C-3.71467 37.8293 -4.056 37.0613 -4.056 36.208C-4.056 35.2693 -3.71467 34.5013 -3.032 33.904C-2.34933 33.2213 -1.58133 32.88 -0.727997 32.88C0.210668 32.88 0.978667 33.2213 1.576 33.904C2.25867 34.5013 2.6 35.2693 2.6 36.208C2.6 37.0613 2.25867 37.8293 1.576 38.512C0.978667 39.1947 0.210668 39.536 -0.727997 39.536ZM27.816 68.08C26.9627 68.08 26.1947 67.7387 25.512 67.056C24.8293 66.3733 24.488 65.6053 24.488 64.752C24.488 63.8133 24.8293 63.0453 25.512 62.448C26.1947 61.7653 26.9627 61.424 27.816 61.424C28.7547 61.424 29.5227 61.7653 30.12 62.448C30.8027 63.0453 31.144 63.8133 31.144 64.752C31.144 65.6053 30.8027 66.3733 30.12 67.056C29.5227 67.7387 28.7547 68.08 27.816 68.08ZM10.024 41.84C9.17067 41.84 8.40267 41.4987 7.72 40.816C7.03734 40.1333 6.696 39.3653 6.696 38.512C6.696 37.5733 7.03734 36.8053 7.72 36.208C8.40267 35.5253 9.17067 35.184 10.024 35.184C10.9627 35.184 11.7307 35.5253 12.328 36.208C13.0107 36.8053 13.352 37.5733 13.352 38.512C13.352 39.3653 13.0107 40.1333 12.328 40.816C11.7307 41.4987 10.9627 41.84 10.024 41.84ZM25.512 57.328C24.6587 57.328 23.8907 56.9867 23.208 56.304C22.5253 55.6213 22.184 54.8533 22.184 54C22.184 53.0613 22.5253 52.2933 23.208 51.696C23.8907 51.0133 24.6587 50.672 25.512 50.672C26.4507 50.672 27.2187 51.0133 27.816 51.696C28.4987 52.2933 28.84 53.0613 28.84 54C28.84 54.8533 28.4987 55.6213 27.816 56.304C27.2187 56.9867 26.4507 57.328 25.512 57.328ZM63.612 62.32C59.3453 62.32 55.676 61.424 52.604 59.632C49.6173 57.7547 47.3133 55.3227 45.692 52.336C44.0707 49.264 43.26 45.9787 43.26 42.48C43.26 38.5547 44.1987 35.056 46.076 31.984C47.9533 28.912 50.556 26.5227 53.884 24.816C57.212 23.024 60.9667 22.128 65.148 22.128C69.4147 22.128 73.084 23.024 76.156 24.816C79.3133 26.5227 81.7027 28.8693 83.324 31.856C85.0307 34.8427 85.884 38.1707 85.884 41.84C85.884 45.8507 84.9027 49.392 82.94 52.464C81.0627 55.536 78.46 57.968 75.132 59.76C71.804 61.4667 67.964 62.32 63.612 62.32ZM60.412 51.056C62.3747 51.056 64.3373 50.2453 66.3 48.624C68.2627 46.9173 69.884 44.912 71.164 42.608C72.5293 40.304 73.212 38.2987 73.212 36.592C73.212 35.568 72.8707 34.7573 72.188 34.16C71.5053 33.5627 70.4387 33.264 68.988 33.264C67.196 33.264 65.3187 34.032 63.356 35.568C61.3933 37.104 59.6867 38.9387 58.236 41.072C56.8707 43.2053 56.188 45.168 56.188 46.96C56.188 48.4107 56.572 49.4773 57.34 50.16C58.1933 50.7573 59.2173 51.056 60.412 51.056ZM63.74 107.376C59.5587 107.376 55.9747 106.48 52.988 104.688C50.0013 102.896 47.6973 100.507 46.076 97.52C44.54 94.5333 43.772 91.3333 43.772 87.92C43.772 84.08 44.668 80.6667 46.46 77.68C48.3373 74.6933 50.8973 72.3467 54.14 70.64C57.3827 68.848 61.052 67.952 65.148 67.952C69.3293 67.952 72.9133 68.8053 75.9 70.512C78.972 72.2187 81.3187 74.5653 82.94 77.552C84.5613 80.4533 85.372 83.696 85.372 87.28C85.372 91.2053 84.4333 94.704 82.556 97.776C80.6787 100.763 78.1187 103.109 74.876 104.816C71.6333 106.523 67.9213 107.376 63.74 107.376ZM60.54 96.368C62.5027 96.368 64.4227 95.5573 66.3 93.936C68.2627 92.2293 69.884 90.2667 71.164 88.048C72.444 85.8293 73.084 83.8667 73.084 82.16C73.084 81.136 72.7427 80.3253 72.06 79.728C71.3773 79.1307 70.3107 78.832 68.86 78.832C67.1533 78.832 65.3187 79.6 63.356 81.136C61.3933 82.672 59.7293 84.5067 58.364 86.64C56.9987 88.688 56.316 90.5653 56.316 92.272C56.316 93.7227 56.7 94.7893 57.468 95.472C58.3213 96.0693 59.3453 96.368 60.54 96.368Z" fill="#58B7E6"/>
</g>
</svg>
