<svg width="128" height="128" viewBox="0 0 128 128" fill="none" xmlns="http://www.w3.org/2000/svg">
<mask id="mask0_70_2" style="mask-type:alpha" maskUnits="userSpaceOnUse" x="7" y="11" width="103" height="91">
<rect x="7" y="11" width="103" height="91" fill="#D9D9D9"/>
</mask>
<g mask="url(#mask0_70_2)">
<path d="M84.4 142.4C83.0667 142.4 81.8667 141.867 80.8 140.8C79.7333 139.733 79.2 138.533 79.2 137.2C79.2 135.733 79.7333 134.533 80.8 133.6C81.8667 132.533 83.0667 132 84.4 132C85.8667 132 87.0667 132.533 88 133.6C89.0667 134.533 89.6 135.733 89.6 137.2C89.6 138.533 89.0667 139.733 88 140.8C87.0667 141.867 85.8667 142.4 84.4 142.4ZM21.2 205.6C19.8667 205.6 18.6667 205.067 17.6 204C16.5333 202.933 16 201.733 16 200.4C16 198.933 16.5333 197.733 17.6 196.8C18.6667 195.733 19.8667 195.2 21.2 195.2C22.6667 195.2 23.8667 195.733 24.8 196.8C25.8667 197.733 26.4 198.933 26.4 200.4C26.4 201.733 25.8667 202.933 24.8 204C23.8667 205.067 22.6667 205.6 21.2 205.6ZM36 215C34.6667 215 33.4667 214.467 32.4 213.4C31.3333 212.333 30.8 211.133 30.8 209.8C30.8 208.333 31.3333 207.133 32.4 206.2C33.4667 205.133 34.6667 204.6 36 204.6C37.4667 204.6 38.6667 205.133 39.6 206.2C40.6667 207.133 41.2 208.333 41.2 209.8C41.2 211.133 40.6667 212.333 39.6 213.4C38.6667 214.467 37.4667 215 36 215ZM11.8 190.8C10.4667 190.8 9.26667 190.267 8.2 189.2C7.13333 188.133 6.6 186.933 6.6 185.6C6.6 184.133 7.13333 182.933 8.2 182C9.26667 180.933 10.4667 180.4 11.8 180.4C13.2667 180.4 14.4667 180.933 15.4 182C16.4667 182.933 17 184.133 17 185.6C17 186.933 16.4667 188.133 15.4 189.2C14.4667 190.267 13.2667 190.8 11.8 190.8ZM52.8 218.6C51.4667 218.6 50.2667 218.067 49.2 217C48.1333 215.933 47.6 214.733 47.6 213.4C47.6 211.933 48.1333 210.733 49.2 209.8C50.2667 208.733 51.4667 208.2 52.8 208.2C54.2667 208.2 55.4667 208.733 56.4 209.8C57.4667 210.733 58 211.933 58 213.4C58 214.733 57.4667 215.933 56.4 217C55.4667 218.067 54.2667 218.6 52.8 218.6ZM8.2 174C6.86667 174 5.66667 173.467 4.6 172.4C3.53333 171.333 3 170.133 3 168.8C3 167.333 3.53333 166.133 4.6 165.2C5.66667 164.133 6.86667 163.6 8.2 163.6C9.66667 163.6 10.8667 164.133 11.8 165.2C12.8667 166.133 13.4 167.333 13.4 168.8C13.4 170.133 12.8667 171.333 11.8 172.4C10.8667 173.467 9.66667 174 8.2 174ZM69.6 215C68.2667 215 67.0667 214.467 66 213.4C64.9333 212.333 64.4 211.133 64.4 209.8C64.4 208.333 64.9333 207.133 66 206.2C67.0667 205.133 68.2667 204.6 69.6 204.6C71.0667 204.6 72.2667 205.133 73.2 206.2C74.2667 207.133 74.8 208.333 74.8 209.8C74.8 211.133 74.2667 212.333 73.2 213.4C72.2667 214.467 71.0667 215 69.6 215ZM11.8 157.2C10.4667 157.2 9.26667 156.667 8.2 155.6C7.13333 154.533 6.6 153.333 6.6 152C6.6 150.533 7.13333 149.333 8.2 148.4C9.26667 147.333 10.4667 146.8 11.8 146.8C13.2667 146.8 14.4667 147.333 15.4 148.4C16.4667 149.333 17 150.533 17 152C17 153.333 16.4667 154.533 15.4 155.6C14.4667 156.667 13.2667 157.2 11.8 157.2ZM21.2 142.4C19.8667 142.4 18.6667 141.867 17.6 140.8C16.5333 139.733 16 138.533 16 137.2C16 135.733 16.5333 134.533 17.6 133.6C18.6667 132.533 19.8667 132 21.2 132C22.6667 132 23.8667 132.533 24.8 133.6C25.8667 134.533 26.4 135.733 26.4 137.2C26.4 138.533 25.8667 139.733 24.8 140.8C23.8667 141.867 22.6667 142.4 21.2 142.4ZM84.4 205.6C83.0667 205.6 81.8667 205.067 80.8 204C79.7333 202.933 79.2 201.733 79.2 200.4C79.2 198.933 79.7333 197.733 80.8 196.8C81.8667 195.733 83.0667 195.2 84.4 195.2C85.8667 195.2 87.0667 195.733 88 196.8C89.0667 197.733 89.6 198.933 89.6 200.4C89.6 201.733 89.0667 202.933 88 204C87.0667 205.067 85.8667 205.6 84.4 205.6ZM36 133C34.6667 133 33.4667 132.467 32.4 131.4C31.3333 130.333 30.8 129.133 30.8 127.8C30.8 126.333 31.3333 125.133 32.4 124.2C33.4667 123.133 34.6667 122.6 36 122.6C37.4667 122.6 38.6667 123.133 39.6 124.2C40.6667 125.133 41.2 126.333 41.2 127.8C41.2 129.133 40.6667 130.333 39.6 131.4C38.6667 132.467 37.4667 133 36 133ZM93.8 190.8C92.4667 190.8 91.2667 190.267 90.2 189.2C89.1333 188.133 88.6 186.933 88.6 185.6C88.6 184.133 89.1333 182.933 90.2 182C91.2667 180.933 92.4667 180.4 93.8 180.4C95.2667 180.4 96.4667 180.933 97.4 182C98.4667 182.933 99 184.133 99 185.6C99 186.933 98.4667 188.133 97.4 189.2C96.4667 190.267 95.2667 190.8 93.8 190.8ZM52.8 129.4C51.4667 129.4 50.2667 128.867 49.2 127.8C48.1333 126.733 47.6 125.533 47.6 124.2C47.6 122.733 48.1333 121.533 49.2 120.6C50.2667 119.533 51.4667 119 52.8 119C54.2667 119 55.4667 119.533 56.4 120.6C57.4667 121.533 58 122.733 58 124.2C58 125.533 57.4667 126.733 56.4 127.8C55.4667 128.867 54.2667 129.4 52.8 129.4ZM97.4 174C96.0667 174 94.8667 173.467 93.8 172.4C92.7333 171.333 92.2 170.133 92.2 168.8C92.2 167.333 92.7333 166.133 93.8 165.2C94.8667 164.133 96.0667 163.6 97.4 163.6C98.8667 163.6 100.067 164.133 101 165.2C102.067 166.133 102.6 167.333 102.6 168.8C102.6 170.133 102.067 171.333 101 172.4C100.067 173.467 98.8667 174 97.4 174ZM69.6 133C68.2667 133 67.0667 132.467 66 131.4C64.9333 130.333 64.4 129.133 64.4 127.8C64.4 126.333 64.9333 125.133 66 124.2C67.0667 123.133 68.2667 122.6 69.6 122.6C71.0667 122.6 72.2667 123.133 73.2 124.2C74.2667 125.133 74.8 126.333 74.8 127.8C74.8 129.133 74.2667 130.333 73.2 131.4C72.2667 132.467 71.0667 133 69.6 133ZM93.8 157.2C92.4667 157.2 91.2667 156.667 90.2 155.6C89.1333 154.533 88.6 153.333 88.6 152C88.6 150.533 89.1333 149.333 90.2 148.4C91.2667 147.333 92.4667 146.8 93.8 146.8C95.2667 146.8 96.4667 147.333 97.4 148.4C98.4667 149.333 99 150.533 99 152C99 153.333 98.4667 154.533 97.4 155.6C96.4667 156.667 95.2667 157.2 93.8 157.2ZM62.6469 93.8C56.2469 93.8 50.5135 92.4 45.4469 89.6C40.2469 86.8 36.0469 82.4667 32.8469 76.6C29.5135 70.7333 27.3802 63.1333 26.4469 53.8L36.0469 50.6C37.2469 55.8 39.1802 60.0667 41.8469 63.4C44.3802 66.6 47.4469 69 51.0469 70.6C54.6469 72.2 58.5802 73 62.8469 73C67.1135 73 70.9802 72.2667 74.4469 70.8C78.0469 69.2 81.0469 66.7333 83.4469 63.4C85.9802 60.0667 87.8469 55.8 89.0469 50.6L98.8469 53.8C97.3802 67.9333 93.3802 78.1333 86.8469 84.4C80.3135 90.6667 72.2469 93.8 62.6469 93.8ZM62.4469 66.2C58.4469 66.2 55.2469 65.0667 52.8469 62.8C50.3135 60.4 49.0469 57.1333 49.0469 53C49.0469 49.1333 50.2469 46.0667 52.6469 43.8C55.0469 41.4 58.3135 40.2 62.4469 40.2C66.5802 40.2 69.7802 41.4 72.0469 43.8C74.4469 46.0667 75.6469 49.1333 75.6469 53C75.6469 57.1333 74.4469 60.4 72.0469 62.8C69.7802 65.0667 66.5802 66.2 62.4469 66.2Z" fill="#4E5694"/>
</g>
</svg>
