<svg width="68" height="68" viewBox="0 0 68 68" fill="none" xmlns="http://www.w3.org/2000/svg">
<rect width="32" height="32" rx="4" fill="#E0A25B"/>
<path d="M18.2725 22L17.6396 19.5918H13.4648L12.8145 22H9L13.1924 9.09766H17.8242L22.0693 22H18.2725ZM16.9189 16.7441L16.3652 14.6348C16.3066 14.4062 16.2217 14.0811 16.1104 13.6592C15.999 13.2314 15.8877 12.792 15.7764 12.3408C15.6709 11.8838 15.5889 11.5088 15.5303 11.2158C15.4775 11.5088 15.4014 11.8721 15.3018 12.3057C15.208 12.7334 15.1084 13.1582 15.0029 13.5801C14.9033 14.002 14.8154 14.3535 14.7393 14.6348L14.1855 16.7441H16.9189Z" fill="white"/>
<rect x="36" width="32" height="32" rx="4" fill="#7087F6"/>
<path d="M52.436 10.974C53.756 10.974 54.764 11.262 55.46 11.838C56.168 12.402 56.522 13.272 56.522 14.448V21H54.65L54.128 19.668H54.056C53.78 20.016 53.492 20.304 53.192 20.532C52.904 20.76 52.568 20.922 52.184 21.018C51.812 21.126 51.35 21.18 50.798 21.18C50.222 21.18 49.7 21.072 49.232 20.856C48.776 20.628 48.416 20.286 48.152 19.83C47.888 19.362 47.756 18.774 47.756 18.066C47.756 17.022 48.122 16.254 48.854 15.762C49.586 15.258 50.684 14.982 52.148 14.934L53.858 14.88V14.448C53.858 13.932 53.72 13.554 53.444 13.314C53.18 13.074 52.808 12.954 52.328 12.954C51.848 12.954 51.38 13.026 50.924 13.17C50.468 13.302 50.012 13.47 49.556 13.674L48.674 11.856C49.202 11.58 49.784 11.364 50.42 11.208C51.068 11.052 51.74 10.974 52.436 10.974ZM52.814 16.482C51.95 16.506 51.35 16.662 51.014 16.95C50.678 17.238 50.51 17.616 50.51 18.084C50.51 18.492 50.63 18.786 50.87 18.966C51.11 19.134 51.422 19.218 51.806 19.218C52.382 19.218 52.868 19.05 53.264 18.714C53.66 18.366 53.858 17.88 53.858 17.256V16.446L52.814 16.482Z" fill="white"/>
<rect y="36" width="32" height="32" rx="4" fill="#AA78F0"/>
<path d="M15.616 44.148C16.756 44.148 17.71 44.256 18.478 44.472C19.258 44.676 19.84 45.018 20.224 45.498C20.62 45.966 20.818 46.602 20.818 47.406C20.818 47.886 20.74 48.324 20.584 48.72C20.428 49.116 20.2 49.44 19.9 49.692C19.612 49.944 19.258 50.106 18.838 50.178V50.268C19.27 50.352 19.66 50.502 20.008 50.718C20.356 50.934 20.632 51.246 20.836 51.654C21.04 52.062 21.142 52.602 21.142 53.274C21.142 54.054 20.95 54.726 20.566 55.29C20.194 55.842 19.654 56.268 18.946 56.568C18.238 56.856 17.398 57 16.426 57H11.62V44.148H15.616ZM15.922 49.242C16.714 49.242 17.26 49.116 17.56 48.864C17.872 48.612 18.028 48.246 18.028 47.766C18.028 47.274 17.848 46.92 17.488 46.704C17.128 46.488 16.558 46.38 15.778 46.38H14.338V49.242H15.922ZM14.338 51.402V54.75H16.12C16.936 54.75 17.506 54.594 17.83 54.282C18.154 53.958 18.316 53.532 18.316 53.004C18.316 52.68 18.244 52.398 18.1 52.158C17.968 51.918 17.734 51.732 17.398 51.6C17.062 51.468 16.606 51.402 16.03 51.402H14.338Z" fill="white"/>
<rect x="36" y="36" width="32" height="32" rx="4" fill="#82AD9A"/>
<path d="M50.086 46.506C50.086 46.878 50.074 47.244 50.05 47.604C50.026 47.964 50.002 48.246 49.978 48.45H50.086C50.35 48.042 50.704 47.7 51.148 47.424C51.592 47.136 52.168 46.992 52.876 46.992C53.98 46.992 54.874 47.424 55.558 48.288C56.242 49.14 56.584 50.4 56.584 52.068C56.584 53.184 56.422 54.126 56.098 54.894C55.786 55.65 55.348 56.22 54.784 56.604C54.22 56.988 53.56 57.18 52.804 57.18C52.084 57.18 51.514 57.054 51.094 56.802C50.686 56.538 50.35 56.244 50.086 55.92H49.906L49.456 57H47.404V43.32H50.086V46.506ZM52.012 49.134C51.544 49.134 51.172 49.23 50.896 49.422C50.62 49.614 50.416 49.908 50.284 50.304C50.164 50.688 50.098 51.174 50.086 51.762V52.05C50.086 52.998 50.224 53.73 50.5 54.246C50.788 54.75 51.304 55.002 52.048 55.002C52.6 55.002 53.038 54.75 53.362 54.246C53.686 53.73 53.848 52.992 53.848 52.032C53.848 51.072 53.68 50.352 53.344 49.872C53.02 49.38 52.576 49.134 52.012 49.134Z" fill="white"/>
</svg>
