<svg width="74" height="69" viewBox="0 0 74 69" fill="none" xmlns="http://www.w3.org/2000/svg">
<rect x="18" width="32" height="32" rx="4" fill="#7087F6"/>
<path d="M35.64 21.576L34.092 20.73C33.66 20.118 33.144 19.608 32.544 19.2C31.956 18.792 31.296 18.468 30.564 18.228C29.844 17.976 29.064 17.808 28.224 17.724L27.054 14.628C27.702 14.22 28.404 13.83 29.16 13.458C29.916 13.086 30.702 12.756 31.518 12.468C32.346 12.168 33.174 11.928 34.002 11.748L33.768 12.954V11.352H27.144L26.298 9.804H40.77L41.616 11.352H35.838V12.27L35.568 11.802C36.588 11.886 37.464 12.138 38.196 12.558C38.928 12.966 39.492 13.506 39.888 14.178C40.284 14.838 40.482 15.594 40.482 16.446C40.482 17.394 40.266 18.12 39.834 18.624C39.402 19.116 38.838 19.362 38.142 19.362C37.578 19.362 37.134 19.194 36.81 18.858C36.498 18.522 36.342 18.096 36.342 17.58C36.342 17.088 36.498 16.71 36.81 16.446C37.134 16.17 37.518 16.032 37.962 16.032C38.418 16.032 38.778 16.146 39.042 16.374C39.306 16.602 39.45 16.932 39.474 17.364L39.15 17.382C39.234 17.262 39.288 17.148 39.312 17.04C39.348 16.92 39.366 16.794 39.366 16.662C39.366 16.374 39.276 16.104 39.096 15.852C38.916 15.6 38.664 15.384 38.34 15.204C38.028 15.012 37.662 14.862 37.242 14.754C36.822 14.646 36.372 14.592 35.892 14.592C35.772 14.592 35.646 14.61 35.514 14.646L35.838 14.178V21.522L35.64 21.576ZM33.768 19.416V13.782L34.128 14.646C33.732 14.742 33.306 14.88 32.85 15.06C32.406 15.228 31.962 15.42 31.518 15.636C31.074 15.84 30.66 16.056 30.276 16.284L30.186 15.888C30.69 16.008 31.188 16.206 31.68 16.482C32.172 16.758 32.628 17.106 33.048 17.526C33.468 17.934 33.822 18.42 34.11 18.984L33.768 19.416Z" fill="white"/>
<rect y="36" width="32" height="32" rx="4" fill="#82AD9A"/>
<path d="M20.53 57.576L19 56.748C18.604 56.148 18.082 55.638 17.434 55.218C16.798 54.786 16.096 54.45 15.328 54.21C14.572 53.958 13.798 53.802 13.006 53.742L11.98 50.772C12.628 50.772 13.204 50.73 13.708 50.646C14.212 50.562 14.638 50.436 14.986 50.268C15.334 50.1 15.598 49.884 15.778 49.62C15.97 49.344 16.066 49.026 16.066 48.666C16.066 48.414 15.988 48.18 15.832 47.964C15.688 47.748 15.514 47.55 15.31 47.37L16.174 47.676C15.874 48.228 15.514 48.666 15.094 48.99C14.686 49.314 14.26 49.548 13.816 49.692C13.372 49.824 12.94 49.89 12.52 49.89C12.064 49.89 11.65 49.806 11.278 49.638C10.918 49.47 10.63 49.218 10.414 48.882C10.21 48.534 10.108 48.108 10.108 47.604C10.108 47.124 10.252 46.74 10.54 46.452C10.828 46.152 11.206 46.002 11.674 46.002C12.202 46.002 12.58 46.14 12.808 46.416C13.048 46.692 13.168 46.998 13.168 47.334C13.168 47.598 13.132 47.82 13.06 48C12.988 48.168 12.856 48.336 12.664 48.504L11.71 47.676C11.782 47.7 11.878 47.718 11.998 47.73C12.13 47.742 12.238 47.748 12.322 47.748C12.766 47.748 13.168 47.646 13.528 47.442C13.888 47.238 14.218 46.968 14.518 46.632C14.818 46.296 15.094 45.93 15.346 45.534C15.73 45.75 16.132 46.032 16.552 46.38C16.984 46.728 17.344 47.154 17.632 47.658C17.932 48.15 18.082 48.738 18.082 49.422C18.082 50.298 17.866 51 17.434 51.528C17.002 52.044 16.33 52.416 15.418 52.644L15.256 51.87C15.712 52.026 16.162 52.236 16.606 52.5C17.062 52.764 17.494 53.118 17.902 53.562C18.31 54.006 18.676 54.57 19 55.254L18.658 55.56V44.04L18.82 43.968L20.332 44.652L20.512 45.804H22.006L22.87 47.352H20.728V57.522L20.53 57.576Z" fill="white"/>
<rect x="33" y="38" width="32" height="32" rx="4" transform="rotate(-18.6643 33 38)" fill="#E0A25B"/>
<path d="M55.8754 52.8187C54.7044 53.2142 53.5964 53.2338 52.5514 52.8775C51.5025 52.5098 50.4808 51.791 49.4861 50.7211C48.5027 49.6473 47.5048 48.2491 46.4923 46.5266L47.554 45.845C48.4702 47.2074 49.3073 48.2609 50.0655 49.0054C50.835 49.7461 51.5939 50.2117 52.3422 50.4023C53.1019 50.589 53.9138 50.5364 54.7778 50.2445C55.7783 49.9066 56.4482 49.4523 56.7874 48.8818C57.1228 48.2998 57.1772 47.6735 56.9507 47.0027C56.8738 46.7753 56.7325 46.5444 56.5267 46.3099C56.3208 46.0755 56.0999 45.8715 55.8639 45.6978L57.1295 46.1823C57.0742 46.581 56.9108 46.9972 56.6393 47.4308C56.3678 47.8645 56.0316 48.2567 55.6308 48.6075C55.2375 48.943 54.8248 49.1837 54.3928 49.3296C54.0404 49.4487 53.6991 49.507 53.3689 49.5045C53.0388 49.502 52.7045 49.4313 52.3663 49.2922C52.0963 49.1681 51.8243 48.9813 51.55 48.732C51.2758 48.4826 51.0619 48.1305 50.9083 47.6758L50.1998 45.5782C49.8964 44.6801 49.9046 43.8793 50.2243 43.176C50.5402 42.4614 51.0961 41.9696 51.8919 41.7008C52.6991 41.4281 53.3537 41.435 53.8557 41.7214C54.354 41.9964 54.7029 42.4295 54.9026 43.0207C55.0293 43.3959 55.048 43.7886 54.9586 44.1987C54.8653 44.5976 54.6619 44.9703 54.3483 45.3169C54.0347 45.6634 53.5994 45.9308 53.0423 46.119C52.4625 46.3148 51.9202 46.3967 51.4153 46.3646C50.9067 46.3211 50.4242 46.1864 49.9679 45.9605C49.523 45.7308 49.0873 45.4347 48.6609 45.0721C48.2419 44.6943 47.8209 44.2729 47.3978 43.8078L48.2374 43.0872C48.7594 43.6202 49.2373 44.0414 49.6712 44.3508C50.1164 44.6564 50.5592 44.8425 50.9997 44.909C51.4401 44.9756 51.9218 44.9205 52.4448 44.7439C52.8768 44.5979 53.1512 44.4166 53.268 44.1998C53.3923 43.9678 53.416 43.7382 53.3392 43.5108C53.2855 43.3516 53.1882 43.2325 53.0475 43.1534C52.9029 43.0629 52.717 43.056 52.4896 43.1328C52.1713 43.2403 51.9824 43.4498 51.9229 43.7612C51.8596 44.0613 51.9009 44.4273 52.0468 44.8593L52.6459 46.6329C52.7112 46.8261 52.8104 46.951 52.9434 47.0073C53.0764 47.0637 53.2282 47.0631 53.3988 47.0055C53.6602 46.9172 53.9346 46.7359 54.2219 46.4615C54.5168 46.1719 54.7904 45.8008 55.0429 45.3482C55.3067 44.8918 55.5152 44.3654 55.6684 43.769C55.9535 43.9007 56.2674 44.0986 56.6099 44.3629C56.9639 44.6233 57.2973 44.954 57.61 45.355C57.9342 45.7522 58.1884 46.2236 58.3728 46.7693C58.6608 47.622 58.7893 48.4525 58.7584 49.2609C58.7237 50.058 58.476 50.7686 58.0156 51.3928C57.5665 52.0131 56.8531 52.4884 55.8754 52.8187Z" fill="white"/>
</svg>
