<svg width="398" height="152" viewBox="0 0 398 152" fill="none" xmlns="http://www.w3.org/2000/svg">
<g clip-path="url(#clip0_50_2)">
<path d="M69.5458 94.2467L52.3692 86.8965L76.4011 53.4507C80.7877 52.7816 84.4365 53.2178 87.3476 54.7591C90.3429 56.2877 92.0658 58.5282 92.5161 61.4807C92.9021 64.0114 92.3573 66.382 90.8817 68.5924C89.4061 70.8028 87.0569 73.7939 83.8341 77.5656L69.5458 94.2467ZM53.8447 89.779L70.0416 79.6693L100.794 102.17C101.048 106.102 100.372 109.312 98.7668 111.802C97.1482 114.206 94.5252 115.685 90.8978 116.239C88.2827 116.638 85.782 116.372 83.3958 115.441C81.0809 114.413 78.4623 112.525 75.5399 109.776L53.8447 89.779ZM37.5451 89.028L59.0564 85.7471L64.1321 119.026C63.2428 119.421 61.9317 119.88 60.1988 120.403C58.5502 120.913 56.7136 121.323 54.689 121.632C50.5555 122.262 47.4093 122.008 45.2503 120.87C43.1757 119.719 41.8425 117.203 41.2506 113.323L37.5451 89.028ZM60.774 97.0088L39.2628 100.29L30.057 39.9317C30.9463 39.5371 32.2152 39.0846 33.8638 38.5742C35.5967 38.051 37.4755 37.6349 39.5001 37.3262C43.7179 36.6828 46.8642 36.9367 48.9388 38.0877C51.0005 39.1544 52.3337 41.6701 52.9385 45.6349L60.774 97.0088Z" fill="#FFB356"/>
<path d="M107.193 39.041C107.193 35.7984 108.302 33.0677 110.521 30.849C112.739 28.6304 115.598 27.521 119.097 27.521C122.595 27.521 125.454 28.6304 127.673 30.849C129.891 33.0677 131.001 35.7984 131.001 39.041C131.001 42.1984 129.891 44.929 127.673 47.233C125.454 49.4517 122.595 50.5611 119.097 50.5611C115.598 50.5611 112.739 49.4517 110.521 47.233C108.302 44.929 107.193 42.1984 107.193 39.041ZM108.217 84.7371H129.977V118.401C129.038 118.657 127.673 118.913 125.881 119.169C124.174 119.425 122.297 119.553 120.249 119.553C116.067 119.553 112.995 118.828 111.033 117.377C109.155 115.926 108.217 113.238 108.217 109.313V84.7371ZM129.977 96.1291H108.217V57.217C109.155 56.961 110.478 56.7051 112.185 56.4491C113.977 56.193 115.897 56.065 117.945 56.065C122.211 56.065 125.283 56.7904 127.161 58.2411C129.038 59.6064 129.977 62.2944 129.977 66.305V96.1291Z" fill="#1DBAEB"/>
<path d="M180.603 103.171L187.995 66.7944L209.194 71.102L201.19 110.489C200.765 112.58 199.94 114.284 198.714 115.602C197.572 116.938 195.921 117.995 193.759 118.775C191.011 119.871 187.595 120.614 183.511 121.003C179.409 121.476 174.891 121.211 169.957 120.208C162.682 118.73 156.698 116.251 152.007 112.773C147.315 109.294 144.073 104.891 142.282 99.5638C140.508 94.1529 140.335 87.9352 141.762 80.9107C143.257 73.5518 145.911 67.7779 149.723 63.589C153.552 59.3166 158.129 56.5024 163.455 55.1464C168.882 53.7239 174.605 53.6243 180.626 54.8478C183.553 55.4425 186.044 56.2535 188.099 57.2807C190.155 58.3078 191.817 59.3422 193.085 60.3837L189.568 77.6939C188.651 76.6368 187.391 75.5535 185.787 74.444C184.268 73.3515 182.421 72.5844 180.247 72.1426C177.404 71.5648 174.818 71.6489 172.489 72.3949C170.244 73.1578 168.34 74.5995 166.777 76.7201C165.215 78.8407 164.068 81.6989 163.337 85.2948C162.267 90.5631 162.605 94.681 164.353 97.6486C166.185 100.633 169.15 102.542 173.247 103.374C174.753 103.68 176.166 103.793 177.489 103.714C178.828 103.55 179.866 103.37 180.603 103.171ZM208.378 75.1159L187.054 70.7829L193.757 37.793C194.728 37.7291 196.075 37.7416 197.799 37.8306C199.606 37.9365 201.513 38.1934 203.52 38.6013C207.701 39.4509 210.567 40.7734 212.118 42.5689C213.686 44.2807 214.071 47.1018 213.272 51.0321L208.378 75.1159Z" fill="#3AC99C"/>
<path d="M262.782 99.8098L256.005 63.3136L277.274 59.3644L284.611 98.881C285.001 100.978 284.874 102.868 284.232 104.55C283.673 106.216 282.538 107.815 280.826 109.348C278.689 111.394 275.8 113.362 272.159 115.253C268.533 117.229 264.245 118.676 259.295 119.595C251.996 120.95 245.52 120.894 239.866 119.427C234.213 117.96 229.557 115.092 225.901 110.824C222.229 106.472 219.738 100.772 218.43 93.7246C217.059 86.3415 217.355 79.9939 219.32 74.682C221.269 69.2862 224.459 64.9619 228.888 61.7091C233.387 58.3569 238.656 56.12 244.697 54.9983C247.634 54.4531 250.247 54.2716 252.537 54.4538C254.828 54.6361 256.756 54.9723 258.323 55.4626L261.548 72.8297C260.301 72.1933 258.727 71.661 256.825 71.2331C255.007 70.7896 253.007 70.7703 250.825 71.1754C247.973 71.7051 245.607 72.7519 243.727 74.316C241.932 75.8645 240.707 77.9146 240.052 80.4663C239.398 83.018 239.406 86.0976 240.076 89.7053C241.057 94.991 242.914 98.682 245.647 100.778C248.463 102.859 251.927 103.518 256.038 102.754C257.548 102.474 258.901 102.049 260.098 101.48C261.278 100.827 262.173 100.27 262.782 99.8098ZM278.021 63.3916L256.627 67.3642L250.481 34.2659C251.357 33.8429 252.611 33.3497 254.242 32.7864C255.958 32.2076 257.822 31.7312 259.835 31.3573C264.03 30.5784 267.183 30.7307 269.294 31.8142C271.389 32.8139 272.803 35.2854 273.535 39.2286L278.021 63.3916Z" fill="#4C5698"/>
<path d="M357.462 93.2451C356.055 99.9252 353.463 105.396 349.687 109.659C345.995 113.939 341.404 116.896 335.914 118.53C330.526 120.098 324.492 120.179 317.812 118.771C311.215 117.382 305.726 114.873 301.345 111.247C296.964 107.621 293.906 103.096 292.171 97.672C290.519 92.2661 290.406 86.1813 291.831 79.4178C293.221 72.8213 295.803 67.3918 299.579 63.1293C303.355 58.8668 307.979 55.9603 313.451 54.4097C318.94 52.7756 324.941 52.6447 331.454 54.0169C338.051 55.4066 343.489 57.9477 347.769 61.64C352.133 65.35 355.182 69.9167 356.917 75.3403C358.653 80.7638 358.834 86.7321 357.462 93.2451ZM327.945 70.6752C324.521 69.9539 321.517 70.7599 318.933 73.0932C316.449 75.3606 314.68 78.9993 313.624 84.0093C312.534 89.1863 312.667 93.3132 314.025 96.3898C315.382 99.4664 317.814 101.374 321.321 102.113C324.828 102.852 327.824 102.088 330.307 99.8202C332.808 97.4693 334.595 93.7471 335.668 88.6536C336.706 83.7271 336.514 79.675 335.09 76.4973C333.75 73.3371 331.368 71.3964 327.945 70.6752Z" fill="#EB5B6E"/>
</g>
<defs>
<clipPath id="clip0_50_2">
<rect width="398" height="152" fill="white"/>
</clipPath>
</defs>
</svg>
