<svg width="75" height="69" viewBox="0 0 75 69" fill="none" xmlns="http://www.w3.org/2000/svg">
<rect x="33" width="32" height="32" rx="4" fill="#E0A25B"/>
<path d="M52.2793 21H48.7549V14.6455C48.7549 14.5283 48.7549 14.3145 48.7549 14.0039C48.7549 13.6875 48.7578 13.3389 48.7637 12.958C48.7754 12.5771 48.79 12.2344 48.8076 11.9297C48.6553 12.1113 48.5117 12.2666 48.377 12.3955C48.248 12.5244 48.1221 12.6445 47.999 12.7559L46.54 13.96L44.7383 11.7451L49.1504 8.15039H52.2793V21Z" fill="white"/>
<rect x="43" y="36" width="32" height="32" rx="4" fill="#A87BE7"/>
<path d="M62.4307 46.9365C62.4307 47.5459 62.2988 48.0732 62.0352 48.5186C61.7773 48.958 61.4316 49.3184 60.998 49.5996C60.5703 49.8809 60.1016 50.0918 59.5918 50.2324V50.2852C60.6172 50.4141 61.4082 50.7275 61.9648 51.2256C62.5273 51.7178 62.8086 52.418 62.8086 53.3262C62.8086 54.0293 62.6211 54.6738 62.2461 55.2598C61.8711 55.8398 61.2881 56.3057 60.4971 56.6572C59.7061 57.0029 58.6895 57.1758 57.4473 57.1758C56.6152 57.1758 55.9062 57.1143 55.3203 56.9912C54.7344 56.8682 54.166 56.6982 53.6152 56.4814V53.5986C54.1719 53.8857 54.7432 54.0996 55.3291 54.2402C55.9209 54.375 56.46 54.4424 56.9463 54.4424C57.79 54.4424 58.3643 54.3223 58.6689 54.082C58.9795 53.8418 59.1348 53.5195 59.1348 53.1152C59.1348 52.8223 59.0615 52.5732 58.915 52.3682C58.7686 52.1631 58.4961 52.0049 58.0977 51.8936C57.7051 51.7822 57.1396 51.7266 56.4014 51.7266H55.6104V49.1162H56.4189C57.0752 49.1162 57.5938 49.0576 57.9746 48.9404C58.3613 48.8232 58.6396 48.665 58.8096 48.4658C58.9795 48.2607 59.0645 48.0264 59.0645 47.7627C59.0645 47.4229 58.9326 47.1709 58.6689 47.0068C58.4053 46.8428 58.0566 46.7607 57.623 46.7607C57.2363 46.7607 56.873 46.8135 56.5332 46.9189C56.1934 47.0244 55.8975 47.1416 55.6455 47.2705C55.3936 47.3994 55.2031 47.5049 55.0742 47.5869L53.6328 45.2666C54.166 44.9033 54.7754 44.5957 55.4609 44.3438C56.1523 44.0918 57.0547 43.9658 58.168 43.9658C59.4922 43.9658 60.5322 44.2295 61.2881 44.7568C62.0498 45.2842 62.4307 46.0107 62.4307 46.9365Z" fill="white"/>
<rect y="38.2407" width="32" height="32" rx="4" transform="rotate(-18.6643 0 38.2407)" fill="#7386EB"/>
<path d="M26.4232 51.8449L17.5884 54.8292L16.8571 52.6642L18.8144 48.6541C19.213 47.802 19.5161 47.1245 19.7234 46.6215C19.9363 46.1167 20.0663 45.7048 20.1132 45.3859C20.1601 45.067 20.1338 44.7605 20.0344 44.4663C19.9125 44.1054 19.7078 43.8839 19.4203 43.8017C19.1328 43.7195 18.8308 43.7318 18.5144 43.8387C18.1313 43.968 17.7803 44.2103 17.4611 44.5655C17.1457 44.9133 16.8131 45.3843 16.4634 45.9786L13.9421 44.474C14.1978 44.0227 14.4814 43.5806 14.7928 43.1476C15.1024 42.7091 15.5056 42.3007 16.0025 41.9226C16.4994 41.5445 17.1503 41.2195 17.9553 40.9476C18.7824 40.6682 19.5473 40.5706 20.2499 40.6549C20.958 40.7373 21.5639 40.9748 22.0676 41.3675C22.5695 41.7546 22.9282 42.2673 23.1438 42.9057C23.382 43.6107 23.4644 44.2849 23.391 44.9281C23.3213 45.5639 23.122 46.2466 22.7933 46.9761C22.4626 47.7001 22.0297 48.5421 21.4943 49.5022L20.8733 50.6025L20.9015 50.6858L25.5062 49.1304L26.4232 51.8449Z" fill="white"/>
</svg>
