<svg width="68" height="68" viewBox="0 0 68 68" fill="none" xmlns="http://www.w3.org/2000/svg">
<circle cx="34" cy="34" r="34" fill="#7087F6"/>
<path d="M28.9141 40.9062V38.8906C28.9141 37.9219 29.0312 37.0469 29.2656 36.2656C29.5156 35.4844 29.9531 34.7422 30.5781 34.0391C31.2031 33.3359 32.0703 32.6328 33.1797 31.9297C34.2422 31.2578 35.0234 30.6797 35.5234 30.1953C36.0234 29.6953 36.3516 29.2422 36.5078 28.8359C36.6641 28.4141 36.7422 27.9922 36.7422 27.5703C36.7422 26.9141 36.4453 26.3984 35.8516 26.0234C35.2578 25.6328 34.4844 25.4375 33.5312 25.4375C32.3438 25.4375 31.0547 25.6484 29.6641 26.0703C28.2891 26.4922 26.8203 27.1172 25.2578 27.9453L22 21.5703C23.7656 20.5547 25.6484 19.75 27.6484 19.1562C29.6484 18.5469 31.8281 18.2422 34.1875 18.2422C37.7344 18.2422 40.4844 19.0312 42.4375 20.6094C44.3906 22.1719 45.3672 24.2344 45.3672 26.7969C45.3672 28.0156 45.1797 29.1328 44.8047 30.1484C44.4297 31.1641 43.8359 32.1172 43.0234 33.0078C42.2109 33.8984 41.1406 34.7734 39.8125 35.6328C38.875 36.2266 38.1328 36.7344 37.5859 37.1562C37.0547 37.5781 36.6719 37.9844 36.4375 38.375C36.2188 38.7656 36.1094 39.2109 36.1094 39.7109V40.9062H28.9141ZM27.9062 49.1094C27.9062 47.4531 28.3828 46.2891 29.3359 45.6172C30.3047 44.9453 31.4766 44.6094 32.8516 44.6094C34.1641 44.6094 35.2969 44.9453 36.25 45.6172C37.2188 46.2891 37.7031 47.4531 37.7031 49.1094C37.7031 50.6875 37.2188 51.8281 36.25 52.5312C35.2969 53.2344 34.1641 53.5859 32.8516 53.5859C31.4766 53.5859 30.3047 53.2344 29.3359 52.5312C28.3828 51.8281 27.9062 50.6875 27.9062 49.1094Z" fill="white"/>
</svg>
