<svg width="68" height="68" viewBox="0 0 68 68" fill="none" xmlns="http://www.w3.org/2000/svg">
<rect x="18" width="32" height="32" rx="4" fill="#E0A25B"/>
<path d="M34.688 21.828C34.076 21.828 33.506 21.732 32.978 21.54C32.462 21.348 32.042 21.048 31.718 20.64C31.406 20.22 31.25 19.68 31.25 19.02C31.25 18.384 31.43 17.862 31.79 17.454C32.15 17.046 32.636 16.842 33.248 16.842C33.788 16.842 34.214 16.998 34.526 17.31C34.85 17.61 35.012 18 35.012 18.48C35.012 18.9 34.898 19.266 34.67 19.578C34.442 19.89 34.112 20.046 33.68 20.046C33.596 20.046 33.476 20.034 33.32 20.01C33.176 19.986 33.032 19.944 32.888 19.884L33.464 18.732C33.632 18.948 33.872 19.122 34.184 19.254C34.508 19.386 34.844 19.452 35.192 19.452C35.852 19.452 36.356 19.302 36.704 19.002C37.052 18.69 37.226 18.258 37.226 17.706C37.226 17.274 37.07 16.932 36.758 16.68C36.458 16.428 36.002 16.2 35.39 15.996C34.79 15.792 34.034 15.57 33.122 15.33C32.258 15.09 31.598 14.79 31.142 14.43C30.698 14.07 30.392 13.668 30.224 13.224C30.068 12.78 29.99 12.324 29.99 11.856C29.99 11.16 30.218 10.59 30.674 10.146C31.13 9.702 31.688 9.48 32.348 9.48C32.768 9.48 33.11 9.57 33.374 9.75C33.638 9.918 33.836 10.128 33.968 10.38C34.1 10.632 34.166 10.89 34.166 11.154C34.166 11.622 34.058 11.994 33.842 12.27C33.626 12.534 33.29 12.666 32.834 12.666C32.606 12.666 32.384 12.618 32.168 12.522C31.964 12.426 31.826 12.264 31.754 12.036L33.194 11.964C33.218 12.204 33.272 12.402 33.356 12.558C33.44 12.714 33.632 12.876 33.932 13.044C34.244 13.212 34.724 13.428 35.372 13.692C36.248 14.04 36.938 14.406 37.442 14.79C37.946 15.174 38.306 15.606 38.522 16.086C38.738 16.566 38.846 17.148 38.846 17.832C38.846 18.576 38.672 19.254 38.324 19.866C37.988 20.466 37.508 20.94 36.884 21.288C36.272 21.648 35.54 21.828 34.688 21.828Z" fill="white"/>
<rect y="36" width="32" height="32" rx="4" fill="#7087F6"/>
<path d="M21.044 59.124C20.252 58.512 19.496 58.002 18.776 57.594C18.056 57.186 17.36 56.85 16.688 56.586C16.028 56.322 15.386 56.1 14.762 55.92C14.138 55.728 13.526 55.554 12.926 55.398L12.314 51.942C12.71 52.194 13.226 52.41 13.862 52.59C14.498 52.758 15.158 52.842 15.842 52.842C16.286 52.842 16.712 52.818 17.12 52.77C17.528 52.71 17.864 52.62 18.128 52.5C18.404 52.38 18.542 52.212 18.542 51.996C18.542 51.744 18.422 51.582 18.182 51.51C17.942 51.426 17.57 51.354 17.066 51.294C16.562 51.234 15.914 51.126 15.122 50.97C14.102 50.766 13.34 50.406 12.836 49.89C12.332 49.374 12.08 48.72 12.08 47.928C12.08 47.196 12.308 46.608 12.764 46.164C13.22 45.708 13.778 45.48 14.438 45.48C14.858 45.48 15.2 45.57 15.464 45.75C15.728 45.918 15.926 46.128 16.058 46.38C16.19 46.632 16.256 46.89 16.256 47.154C16.256 47.622 16.13 47.994 15.878 48.27C15.638 48.534 15.278 48.666 14.798 48.666C14.63 48.666 14.474 48.648 14.33 48.612C14.186 48.576 14.066 48.516 13.97 48.432L14.798 47.586C14.834 47.826 14.942 48.042 15.122 48.234C15.302 48.414 15.572 48.576 15.932 48.72C16.292 48.864 16.76 48.996 17.336 49.116C18.464 49.344 19.25 49.722 19.694 50.25C20.15 50.778 20.378 51.414 20.378 52.158C20.378 52.866 20.216 53.448 19.892 53.904C19.568 54.348 19.1 54.678 18.488 54.894C17.876 55.098 17.132 55.2 16.256 55.2C15.992 55.2 15.74 55.194 15.5 55.182C15.26 55.158 15.068 55.134 14.924 55.11L15.05 54.12C15.65 54.24 16.25 54.432 16.85 54.696C17.45 54.96 18.038 55.278 18.614 55.65C19.202 56.022 19.76 56.43 20.288 56.874C20.828 57.318 21.332 57.786 21.8 58.278L21.044 59.124Z" fill="white"/>
<rect x="36" y="36" width="32" height="32" rx="4" fill="#82AD9A"/>
<path d="M53.236 57.288C52.324 57.288 51.514 57.108 50.806 56.748C50.098 56.376 49.474 55.818 48.934 55.074C48.394 54.33 47.926 53.388 47.53 52.248C47.146 51.096 46.816 49.74 46.54 48.18L47.71 47.91C48.07 49.53 48.514 50.796 49.042 51.708C49.57 52.62 50.176 53.268 50.86 53.652C51.544 54.024 52.3 54.21 53.128 54.21C53.704 54.21 54.214 54.132 54.658 53.976C55.114 53.808 55.468 53.544 55.72 53.184C55.984 52.824 56.116 52.35 56.116 51.762C56.116 51.246 56.032 50.832 55.864 50.52C55.696 50.208 55.468 49.98 55.18 49.836C54.892 49.692 54.568 49.62 54.208 49.62C53.944 49.62 53.71 49.662 53.506 49.746C53.314 49.83 53.158 49.908 53.038 49.98L53.848 48.27C54.016 48.426 54.184 48.648 54.352 48.936C54.52 49.224 54.61 49.56 54.622 49.944C54.646 50.28 54.58 50.616 54.424 50.952C54.28 51.276 54.052 51.546 53.74 51.762C53.428 51.966 53.026 52.068 52.534 52.068C51.79 52.068 51.202 51.834 50.77 51.366C50.338 50.886 50.122 50.316 50.122 49.656C50.122 48.9 50.362 48.282 50.842 47.802C51.322 47.31 52.024 47.064 52.948 47.064C53.92 47.064 54.754 47.292 55.45 47.748C56.158 48.204 56.698 48.828 57.07 49.62C57.454 50.412 57.646 51.312 57.646 52.32C57.646 53.508 57.442 54.468 57.034 55.2C56.626 55.932 56.086 56.466 55.414 56.802C54.754 57.126 54.028 57.288 53.236 57.288Z" fill="white"/>
</svg>
