<svg width="400" height="400" viewBox="0 0 400 400" fill="none" xmlns="http://www.w3.org/2000/svg">
<g clip-path="url(#clip0_80_16)">
<path d="M94.5115 295.827L90.2571 297.291C79.5363 300.977 66.9313 297.667 54.7645 287.956C51.9388 285.702 49.219 283.172 46.6287 280.396C37.4118 270.521 29.8183 257.545 24.7727 242.879C18.3128 224.092 16.8578 204.919 20.6918 188.895C24.3132 173.752 32.2111 163.383 42.924 159.697L47.184 158.241C44.2109 163.363 41.8878 169.297 40.2916 175.958C36.6731 191.129 37.1965 208.648 41.7113 226.172C42.5527 229.468 43.5384 232.755 44.6695 236.035C51.7966 256.759 63.6952 274.533 78.1716 286.092C83.5246 290.361 89.0181 293.614 94.5115 295.827Z" fill="#FAB90A"/>
<path d="M281.962 188.839L253 201.355C247.378 191.537 242.506 180.771 238.574 169.341C237.592 166.487 236.685 163.626 235.851 160.77C233.726 153.548 232.069 146.343 230.88 139.233L260.779 129.641C258.312 137.119 258.04 146.358 260.348 156.011C260.81 157.966 261.381 159.944 262.062 161.921C266.283 174.194 273.659 183.715 281.962 188.839Z" fill="#FAB90A"/>
<path d="M180.598 326.408L175.922 294.41L160.183 295.324L165.767 333.528C166.413 337.957 168.694 341.939 172.187 344.738L185.062 355.066C188.94 358.177 191.217 362.812 191.31 367.781C191.326 368.637 191.271 369.489 191.159 370.325L204.42 363.395C205.49 362.29 206.057 360.85 206.028 359.286C205.995 357.538 205.228 355.975 203.866 354.883L190.991 344.559C185.337 340.024 181.645 333.579 180.598 326.408Z" fill="#ED1A3C"/>
<path d="M305.316 147.044C299.93 131.391 287.841 120.755 278.916 123.827C269.99 126.898 267 142.715 272.384 158.372C277.769 174.027 289.858 184.659 298.784 181.587C307.708 178.52 310.7 162.699 305.316 147.044Z" fill="#F25C19"/>
<path d="M284.05 166.946C278.665 151.293 281.656 135.472 290.581 132.401C292.679 131.682 294.953 131.725 297.273 132.408C291.57 125.483 284.602 121.87 278.916 123.827C269.99 126.898 267 142.715 272.384 158.372C276.503 170.347 284.544 179.371 292.091 181.586C288.843 177.642 286.004 172.628 284.05 166.946Z" fill="#FAB90A"/>
<path d="M275.474 113.47C290.474 108.401 308.097 121.563 315.64 143.494C323.138 165.295 317.447 186.383 302.701 191.771L258.806 210.738C265.512 220.801 273.044 229.583 281.149 236.665C298.225 251.588 315.634 257.052 330.169 252.051C344.703 247.053 355.068 232.034 359.353 209.766C363.846 186.421 361.06 158.269 351.508 130.5C341.955 102.728 326.835 78.8195 308.933 63.1743C291.857 48.2552 274.448 42.7901 259.914 47.7884C245.379 52.7866 235.014 67.8051 230.73 90.0731C228.473 101.801 228.055 114.739 229.406 128.236L275.473 113.467L275.474 113.47Z" fill="#8FD4F0"/>
<path d="M180.393 367.981C180.425 369.728 179.714 371.319 178.397 372.462L169.812 379.885L165.339 383.745C165.263 383.821 165.18 383.874 165.093 383.941L163.309 384.874C161.316 385.497 159.055 385.026 157.497 383.475L137.037 363.184C133.364 359.537 130.53 355.031 128.845 350.135L112.064 301.336L123.323 297.463L149.243 295.959L154.966 335.105C156.014 342.279 159.705 348.724 165.354 353.262L178.229 363.585C179.596 364.674 180.359 366.241 180.393 367.981Z" fill="#ED1A3C"/>
<path d="M280.077 274.111C281.919 275.183 283.769 276.177 285.622 277.099L121.941 286.61C121.906 286.615 121.88 286.617 121.849 286.622C121.67 286.637 121.486 286.657 121.3 286.686C121.243 286.701 121.194 286.711 121.135 286.718C120.914 286.769 120.694 286.822 120.477 286.896C109.756 290.583 97.1514 287.272 84.9846 277.561C72.1015 267.282 61.4547 251.272 54.9928 232.484C53.9388 229.422 53.0225 226.357 52.2381 223.292C48.2004 207.538 47.7014 191.913 50.9119 178.5C54.5323 163.36 62.4309 152.989 73.1507 149.301C73.8014 149.079 74.3732 148.747 74.8681 148.331C74.9744 148.266 75.0894 148.208 75.2019 148.135L209.381 55.4415C206.107 62.3069 203.445 69.9105 201.464 78.2065C194.211 108.54 196.851 144.533 208.895 179.55C220.939 214.568 240.997 244.568 265.373 264.024C270.224 267.898 275.137 271.26 280.077 274.111Z" fill="#E2F6FD"/>
<path d="M220.009 88.01C215.16 113.2 218.088 143.347 228.251 172.893C238.414 202.44 254.648 228.009 273.965 244.886C294.11 262.491 315.332 268.7 333.719 262.378C352.109 256.053 365.019 238.101 370.074 211.83C374.923 186.639 371.994 156.497 361.832 126.947C351.669 97.4 335.434 71.8321 316.116 54.9541C295.972 37.3515 274.752 31.1402 256.362 37.4652C237.974 43.7905 225.062 61.7383 220.009 88.01ZM212.081 80.7442C218.646 53.2872 233.167 34.4164 252.971 27.6044C272.774 20.7933 295.832 26.7393 317.898 44.351C340.675 62.5287 359.487 90.7583 370.866 123.842C382.245 156.924 384.778 190.754 378.001 219.095C371.437 246.552 356.915 265.427 337.111 272.239C317.308 279.048 294.25 273.1 272.183 255.492C249.406 237.314 230.596 209.083 219.217 176.001C207.839 142.916 205.303 109.089 212.081 80.7442Z" fill="#ED1A3C"/>
<path d="M230.882 139.227C232.542 149.152 235.111 159.273 238.575 169.342C242.504 180.77 247.38 191.541 253.003 201.352L281.965 188.839C273.658 183.714 266.281 174.194 262.06 161.923C258.02 150.174 257.809 138.634 260.78 129.641L230.882 139.227ZM298.784 181.588C307.708 178.52 310.7 162.699 305.316 147.044C299.93 131.391 287.841 120.755 278.916 123.827C269.99 126.898 267 142.715 272.384 158.372C277.769 174.027 289.858 184.659 298.784 181.588ZM229.406 128.236L275.473 113.467L275.474 113.47C290.474 108.401 308.097 121.563 315.64 143.494C323.138 165.295 317.447 186.383 302.701 191.771L258.806 210.738C265.512 220.801 273.044 229.583 281.149 236.665C298.225 251.588 315.634 257.052 330.169 252.051C344.703 247.053 355.068 232.035 359.353 209.766C363.846 186.421 361.06 158.269 351.508 130.5C341.955 102.728 326.835 78.8196 308.933 63.1743C291.857 48.2553 274.448 42.7901 259.914 47.7884C245.379 52.7866 235.014 67.8051 230.73 90.0732C228.473 101.801 228.055 114.739 229.406 128.236ZM228.251 172.893C218.088 143.347 215.16 113.2 220.009 88.01C225.062 61.7383 237.974 43.7905 256.362 37.4652C274.752 31.1402 295.972 37.3515 316.116 54.9541C335.434 71.8321 351.669 97.4 361.832 126.947C371.994 156.497 374.923 186.639 370.074 211.83C365.019 238.101 352.109 256.053 333.719 262.378C315.332 268.7 294.11 262.491 273.965 244.886C254.648 228.009 238.414 202.44 228.251 172.893Z" fill="#181D3C"/>
<path d="M24.769 242.878C31.2322 261.667 41.8824 277.673 54.7631 287.952C66.9322 297.663 79.5353 300.981 90.2595 297.292L94.5109 295.83C89.0171 293.618 83.5272 290.366 78.1716 286.092C63.6943 274.536 51.7959 256.761 44.6659 236.034C37.5396 215.312 35.9858 193.978 40.2952 175.959C41.8868 169.301 44.2116 163.361 47.1804 158.24L42.924 159.697C32.2111 163.383 24.3132 173.752 20.6928 188.892C16.8615 204.92 18.3104 224.091 24.769 242.878ZM50.9128 178.496C47.0812 194.526 48.5301 213.697 54.992 232.486C61.4546 251.272 72.106 267.279 84.9831 277.557C97.1523 287.268 109.755 290.586 120.479 286.896C120.694 286.822 120.914 286.769 121.134 286.722C121.19 286.71 121.246 286.701 121.301 286.691C121.486 286.657 121.667 286.636 121.849 286.622C121.879 286.621 121.907 286.612 121.938 286.609L285.62 277.103C278.817 273.704 272.037 269.343 265.374 264.024C240.995 244.57 220.937 214.57 208.894 179.549C196.847 144.532 194.208 108.541 201.464 78.2064C203.444 69.9141 206.107 62.3068 209.381 55.4415L75.1989 148.132C75.0917 148.209 74.9779 148.267 74.8637 148.332C74.3705 148.742 73.7989 149.078 73.1543 149.302C62.4307 152.989 54.5332 163.356 50.9128 178.496ZM212.081 80.7442C205.303 109.089 207.839 142.916 219.217 176.001C230.596 209.083 249.406 237.314 272.183 255.492C294.25 273.1 317.308 279.048 337.111 272.239C356.915 265.427 371.437 246.552 378.001 219.095C384.778 190.754 382.245 156.924 370.866 123.842C359.487 90.7583 340.675 62.5287 317.898 44.351C295.832 26.7393 272.774 20.7933 252.971 27.6044C233.167 34.4164 218.646 53.2872 212.081 80.7442ZM190.991 344.559C185.337 340.024 181.645 333.579 180.598 326.408L175.922 294.41L160.183 295.324L165.767 333.528C166.413 337.957 168.694 341.939 172.187 344.738L185.062 355.066C188.94 358.177 191.217 362.812 191.311 367.781C191.326 368.637 191.271 369.489 191.16 370.325L204.42 363.395C205.49 362.29 206.057 360.85 206.028 359.286C205.996 357.538 205.228 355.975 203.866 354.883L190.991 344.559ZM178.231 363.582L165.356 353.258C159.703 348.723 156.012 342.279 154.963 335.107L149.243 295.961L123.322 297.466L112.064 301.336L128.848 350.138C130.531 355.027 133.361 359.539 137.033 363.184L157.494 383.481C159.054 385.026 161.316 385.499 163.309 384.874L165.096 383.942C165.178 383.878 165.263 383.818 165.344 383.746L178.397 372.46C179.717 371.32 180.426 369.728 180.393 367.985C180.361 366.237 179.593 364.674 178.231 363.582ZM47.9516 296.487C33.4743 284.932 21.5733 267.152 14.4458 246.429C7.3184 225.707 5.76488 204.372 10.0752 186.354C14.5919 167.45 25.0004 154.316 39.3827 149.37L67.8939 139.614C68.2207 139.484 68.5479 139.361 68.8772 139.24C68.9145 139.211 68.9532 139.178 68.9942 139.15L232.244 26.3801C232.398 26.2729 232.556 26.1733 232.72 26.0841C237.829 22.3077 243.412 19.3466 249.421 17.2776C272.882 9.20958 299.62 15.7919 324.709 35.8154C349.087 55.2716 369.145 85.2731 381.19 120.291C393.236 155.308 395.874 191.302 388.62 221.633C381.155 252.855 364.123 274.493 340.662 282.562C334.319 284.742 327.735 285.845 321.011 285.908C320.732 285.969 320.447 286.015 320.152 286.032L186.863 293.776L191.401 324.829C192.049 329.259 194.329 333.24 197.821 336.04L210.697 346.366C214.575 349.478 216.852 354.113 216.944 359.081C217.036 364.053 214.932 368.77 211.172 372.021L210.692 372.435L170.797 393.281C169.614 394.065 168.355 394.685 167.049 395.135C161.188 397.15 154.426 395.814 149.806 391.232L129.346 370.936C124.49 366.118 120.747 360.155 118.525 353.687L101.74 304.889L93.8075 307.618C79.4297 312.561 63.1431 308.61 47.9516 296.487Z" fill="#181D3C"/>
<path d="M285.622 277.099L121.941 286.61C121.906 286.615 121.88 286.617 121.849 286.622C121.67 286.637 121.486 286.657 121.3 286.686C121.243 286.701 121.194 286.711 121.135 286.718C120.914 286.769 120.694 286.822 120.477 286.896C109.756 290.583 97.1514 287.272 84.9846 277.561C72.1015 267.282 61.4547 251.273 54.9928 232.484C53.9388 229.422 53.0225 226.357 52.2381 223.292L194.917 195.17C194.917 195.17 227.82 257.378 280.077 274.111C281.919 275.183 283.769 276.177 285.622 277.099Z" fill="#8FD4F0"/>
<path d="M94.5115 295.827L90.2571 297.291C79.5363 300.977 66.9313 297.667 54.7645 287.956C51.9388 285.702 49.219 283.172 46.6287 280.396C39.4786 269.109 31.1891 252.072 26.4201 228.912L41.7113 226.172C42.5527 229.468 43.5384 232.755 44.6695 236.035C51.7966 256.759 63.6952 274.533 78.1716 286.092C83.5246 290.361 89.0181 293.615 94.5115 295.827Z" fill="#F25C19"/>
<path d="M281.962 188.839L253 201.355C247.378 191.537 242.506 180.771 238.574 169.341C237.592 166.487 236.685 163.626 235.851 160.77L260.348 156.012C260.81 157.966 261.381 159.944 262.062 161.921C266.283 174.194 273.659 183.715 281.962 188.839Z" fill="#F25C19"/>
<path d="M288.414 149.574C291.067 157.283 290.94 164.318 288.13 165.284C285.32 166.253 280.893 160.783 278.241 153.074C275.588 145.36 275.716 138.325 278.525 137.36C281.335 136.395 285.763 141.86 288.414 149.574Z" fill="#FAF77C"/>
<path d="M169.812 379.885L165.339 383.745C165.263 383.822 165.18 383.874 165.093 383.941L163.309 384.874C161.316 385.497 159.055 385.026 157.497 383.476L137.037 363.185C133.364 359.537 130.53 355.031 128.845 350.135L112.064 301.336L122.551 297.729C124.921 307.359 139.028 359.848 169.812 379.885Z" fill="#F57FAE"/>
</g>
<defs>
<clipPath id="clip0_80_16">
<rect width="400" height="400" fill="white"/>
</clipPath>
</defs>
</svg>
