<svg width="68" height="68" viewBox="0 0 68 68" fill="none" xmlns="http://www.w3.org/2000/svg">
<rect x="18" width="32" height="32" rx="4" fill="#82AD9A"/>
<path d="M39.752 21.576L38.204 20.748C37.844 20.208 37.454 19.758 37.034 19.398C36.626 19.026 36.152 18.708 35.612 18.444L36.26 16.752C36.524 16.92 36.83 17.202 37.178 17.598C37.526 17.982 37.874 18.534 38.222 19.254L37.88 19.56V11.352H26.144L25.298 9.804H41.228L42.092 11.352H39.95V21.522L39.752 21.576ZM32.804 20.784C31.964 20.784 31.202 20.616 30.518 20.28C29.834 19.944 29.222 19.44 28.682 18.768C28.142 18.096 27.662 17.262 27.242 16.266C26.822 15.27 26.456 14.118 26.144 12.81L27.296 12.54C27.74 13.896 28.232 14.958 28.772 15.726C29.324 16.494 29.924 17.04 30.572 17.364C31.232 17.676 31.934 17.832 32.678 17.832C33.422 17.832 34.046 17.694 34.55 17.418C35.066 17.13 35.324 16.656 35.324 15.996C35.324 15.624 35.24 15.324 35.072 15.096C34.904 14.868 34.688 14.706 34.424 14.61C34.172 14.502 33.902 14.448 33.614 14.448C33.386 14.448 33.17 14.496 32.966 14.592C32.762 14.676 32.612 14.748 32.516 14.808C32.456 14.268 32.276 13.746 31.976 13.242C31.688 12.738 31.244 12.294 30.644 11.91C30.044 11.526 29.246 11.244 28.25 11.064L31.832 11.046C32.12 11.238 32.432 11.502 32.768 11.838C33.116 12.174 33.416 12.576 33.668 13.044C33.92 13.512 34.046 14.04 34.046 14.628C34.046 15.228 33.872 15.732 33.524 16.14C33.176 16.536 32.666 16.734 31.994 16.734C31.298 16.734 30.746 16.518 30.338 16.086C29.93 15.654 29.726 15.132 29.726 14.52C29.726 13.812 29.966 13.236 30.446 12.792C30.938 12.348 31.622 12.126 32.498 12.126C33.434 12.126 34.22 12.312 34.856 12.684C35.504 13.056 35.99 13.56 36.314 14.196C36.65 14.832 36.818 15.552 36.818 16.356C36.818 17.16 36.704 17.844 36.476 18.408C36.248 18.972 35.942 19.428 35.558 19.776C35.174 20.124 34.742 20.382 34.262 20.55C33.782 20.706 33.296 20.784 32.804 20.784Z" fill="white"/>
<rect y="36" width="32" height="32" rx="4" fill="#E0A25B"/>
<path d="M19.752 57.576L18.204 56.748C17.844 56.208 17.454 55.758 17.034 55.398C16.626 55.026 16.152 54.708 15.612 54.444L16.26 52.752C16.524 52.92 16.83 53.202 17.178 53.598C17.526 53.982 17.874 54.534 18.222 55.254L17.88 55.56V47.352H6.144L5.298 45.804H20.22L21.066 47.352H19.95V57.522L19.752 57.576ZM12.804 56.784C11.964 56.784 11.202 56.616 10.518 56.28C9.834 55.944 9.222 55.44 8.682 54.768C8.142 54.096 7.662 53.262 7.242 52.266C6.822 51.27 6.456 50.118 6.144 48.81L7.296 48.54C7.74 49.896 8.232 50.958 8.772 51.726C9.324 52.494 9.924 53.04 10.572 53.364C11.232 53.676 11.934 53.832 12.678 53.832C13.422 53.832 14.046 53.694 14.55 53.418C15.066 53.13 15.324 52.656 15.324 51.996C15.324 51.624 15.24 51.324 15.072 51.096C14.904 50.868 14.688 50.706 14.424 50.61C14.172 50.502 13.902 50.448 13.614 50.448C13.386 50.448 13.17 50.496 12.966 50.592C12.762 50.676 12.612 50.748 12.516 50.808C12.456 50.268 12.276 49.746 11.976 49.242C11.688 48.738 11.244 48.294 10.644 47.91C10.044 47.526 9.246 47.244 8.25 47.064L11.832 47.046C12.12 47.238 12.432 47.502 12.768 47.838C13.116 48.174 13.416 48.576 13.668 49.044C13.92 49.512 14.046 50.04 14.046 50.628C14.046 51.228 13.872 51.732 13.524 52.14C13.176 52.536 12.666 52.734 11.994 52.734C11.298 52.734 10.746 52.518 10.338 52.086C9.93 51.654 9.726 51.132 9.726 50.52C9.726 49.812 9.966 49.236 10.446 48.792C10.938 48.348 11.622 48.126 12.498 48.126C13.434 48.126 14.22 48.312 14.856 48.684C15.504 49.056 15.99 49.56 16.314 50.196C16.65 50.832 16.818 51.552 16.818 52.356C16.818 53.16 16.704 53.844 16.476 54.408C16.248 54.972 15.942 55.428 15.558 55.776C15.174 56.124 14.742 56.382 14.262 56.55C13.782 56.706 13.296 56.784 12.804 56.784ZM24.54 57.774L22.668 57.018V49.044C22.62 48.624 22.5 48.24 22.308 47.892C22.116 47.532 21.834 47.352 21.462 47.352H20.922L20.058 45.804H21.138C21.522 45.804 21.834 45.894 22.074 46.074C22.314 46.242 22.506 46.5 22.65 46.848C22.806 47.184 22.938 47.61 23.046 48.126L22.812 48.18C22.764 47.76 22.728 47.334 22.704 46.902C22.68 46.458 22.668 46.14 22.668 45.948V44.04L22.83 43.968L24.342 44.652L24.522 45.804H26.016L26.88 47.352H24.738V57.72L24.54 57.774Z" fill="white"/>
<rect x="36" y="36" width="32" height="32" rx="4" fill="#7087F6"/>
<path d="M57.196 57.738L55.954 57.072C55.63 56.652 55.288 56.376 54.928 56.244C54.568 56.1 54.19 56.028 53.794 56.028C53.446 56.028 53.08 56.064 52.696 56.136C52.324 56.196 51.94 56.262 51.544 56.334C51.148 56.394 50.728 56.424 50.284 56.424C49.636 56.424 49.024 56.292 48.448 56.028C47.884 55.752 47.422 55.32 47.062 54.732C46.714 54.132 46.54 53.34 46.54 52.356C46.54 51.912 46.57 51.444 46.63 50.952C46.702 50.46 46.804 49.998 46.936 49.566L48.034 49.746C47.95 50.046 47.896 50.322 47.872 50.574C47.86 50.814 47.854 51.018 47.854 51.186C47.854 51.954 48.07 52.53 48.502 52.914C48.946 53.298 49.474 53.49 50.086 53.49C50.386 53.49 50.674 53.478 50.95 53.454C51.238 53.43 51.526 53.406 51.814 53.382C52.102 53.346 52.384 53.328 52.66 53.328C53.068 53.328 53.44 53.376 53.776 53.472C54.112 53.556 54.424 53.736 54.712 54.012C55.012 54.276 55.306 54.684 55.594 55.236C55.546 55.008 55.498 54.714 55.45 54.354C55.414 53.994 55.384 53.616 55.36 53.22C55.336 52.824 55.324 52.458 55.324 52.122V48C55.324 47.796 55.27 47.634 55.162 47.514C55.054 47.394 54.892 47.334 54.676 47.334C54.448 47.334 54.232 47.4 54.028 47.532C53.824 47.664 53.638 47.844 53.47 48.072C53.314 48.3 53.182 48.552 53.074 48.828C52.978 49.104 52.93 49.386 52.93 49.674L51.382 49.53C51.502 49.362 51.658 49.23 51.85 49.134C52.042 49.026 52.252 48.972 52.48 48.972C52.924 48.972 53.29 49.116 53.578 49.404C53.866 49.692 54.01 50.082 54.01 50.574C54.01 51.102 53.83 51.558 53.47 51.942C53.11 52.326 52.594 52.518 51.922 52.518C51.478 52.518 51.076 52.422 50.716 52.23C50.368 52.038 50.092 51.762 49.888 51.402C49.684 51.03 49.582 50.586 49.582 50.07C49.582 49.434 49.714 48.846 49.978 48.306C50.254 47.766 50.614 47.298 51.058 46.902C51.514 46.494 52.03 46.176 52.606 45.948C53.182 45.72 53.776 45.606 54.388 45.606C55.348 45.606 56.086 45.87 56.602 46.398C57.13 46.926 57.394 47.61 57.394 48.45V57.684L57.196 57.738Z" fill="white"/>
</svg>
