<svg width="128" height="128" viewBox="0 0 128 128" fill="none" xmlns="http://www.w3.org/2000/svg">
<path d="M72.3893 55.0957C72.3893 55.0957 74.4726 67.0436 80.2487 75.278C82.207 79.2207 78.1966 77.679 78.1966 77.679C78.1966 77.679 79.7174 79.8509 78.082 80.4655C77.0664 80.9394 76.2851 79.403 76.2851 79.403C76.2851 79.403 77.1393 81.3092 75.3112 81.8717C73.483 82.429 70.806 79.3821 68.4049 75.2155C66.0039 71.0488 63.5403 63.0853 63.5612 58.955C63.5612 58.955 68.1132 51.9863 72.3893 55.0957Z" fill="#7BBFAD"/>
<path d="M59.0247 104.45C59.0247 104.45 56.9778 94.8769 60.0507 89.6478C63.1289 84.4238 74.2226 82.9446 76.6809 92.8978C79.1393 102.846 76.3945 107.387 76.3945 107.387C76.3945 107.387 80.2539 107.981 80.0403 110.523C79.8268 113.064 63.4101 113.132 59.0247 104.45Z" fill="#7BBFAD"/>
<path d="M44.0768 67.8092C44.0872 67.7988 44.0976 67.7884 44.0976 67.7884C44.0976 67.7884 44.082 67.804 44.0768 67.8092Z" stroke="#1E1E1E" stroke-width="0.5" stroke-miterlimit="10"/>
<path d="M75.7018 77.2155C75.1862 71.6634 74.5351 66.0696 74.5351 66.0696C74.5351 66.0696 72.1601 47.0905 72.1341 45.5175C69.8945 45.9446 64.2695 46.8769 61.056 46.2415C61.056 46.2415 54.6758 82.4394 58.9726 94.4082C59.5039 95.8978 59.7487 97.3509 59.8737 98.7363C60.1966 102.283 59.7331 105.314 61.3372 106.939C76.2279 102.861 76.2539 90.4655 76.3268 86.929C76.3633 85.028 76.0664 81.1321 75.7018 77.2155Z" fill="#FFECD6"/>
<path d="M102.681 25.9655C102.389 24.2832 101.598 22.9186 100.624 22.0384C99.0508 20.6165 96.9883 20.4551 95.7695 22.2728L73.4362 22.5332C73.4362 22.5332 74.0247 14.3717 69.2018 14.0123C64.3841 13.653 64.1706 21.2571 64.3216 21.5176C64.4674 21.778 58.1497 22.4811 55.1602 24.429C55.1602 24.429 56.0039 16.4707 50.2591 16.1686C44.5195 15.8665 44.9102 24.0436 44.9883 24.6738C45.0664 25.3092 41.9883 27.9603 42.681 28.7676C43.3685 29.5696 45.2956 28.9603 45.2956 28.9603C45.2956 28.9603 41.9987 32.0384 42.2018 33.4915C42.4049 34.9498 44.957 34.3873 44.957 34.3873C44.957 34.3873 42.0143 37.679 42.3268 38.5801C42.6341 39.4811 43.4049 39.2259 44.8789 38.7728C44.8789 38.7728 41.9154 41.554 42.3477 43.3405C42.7747 45.1321 44.6497 43.5748 44.8997 43.5332C45.1549 43.4915 42.2487 46.2832 42.556 48.0592C42.8633 49.8353 44.6758 48.2207 44.6758 48.2207C44.6758 48.2207 41.5039 52.1165 42.1341 53.7311C43.0664 54.679 44.2227 53.4498 44.2227 53.4498C44.2227 53.4498 42.9518 55.2363 42.3997 56.7728C40.6133 55.9967 38.6914 54.9186 36.7279 53.4134C32.8737 51.2936 34.2383 55.3665 34.2383 55.3665C34.2383 55.3665 32.1341 53.7519 31.4518 55.3613C30.9362 56.3561 32.4414 57.1998 32.4414 57.1998C32.4414 57.1998 30.5664 56.2728 29.931 58.0696C29.2956 59.8717 32.2331 62.6738 36.2904 65.2519C37.681 66.1321 39.5195 67.0384 41.4935 67.8509C41.5039 67.8926 41.4987 67.9394 41.5143 67.9759C41.9831 68.4655 42.4883 68.5228 42.931 68.4238C43.0664 68.4759 43.1966 68.5228 43.332 68.5748C42.3268 69.6738 40.7279 71.7155 41.1914 73.153C41.9049 73.7884 42.6289 73.4551 43.1133 73.0592C43.4414 72.6946 43.6862 72.4603 43.6862 72.4603C43.6862 72.4603 43.4622 72.778 43.1133 73.0592C42.7227 73.4915 42.2122 74.1061 41.8268 74.7571C41.3424 75.5644 41.0456 76.4238 41.3997 77.054C42.1341 78.3561 43.1862 77.6217 43.5299 77.3301C42.9831 77.8353 40.6393 80.1321 41.2487 81.6217C41.9622 82.1321 42.5716 81.9863 42.9883 81.7311C43.3424 81.3821 43.5977 81.1686 43.5977 81.1686C43.5977 81.1686 43.3737 81.4967 42.9883 81.7311C42.2487 82.4551 41.1081 83.7832 41.056 85.054C40.9779 86.9238 43.5872 85.554 43.5872 85.554C43.5872 85.554 40.6289 87.403 41.6341 88.2311C42.6393 89.054 43.4414 88.3613 43.4414 88.3613C43.4414 88.3613 42.0143 90.6998 39.1654 87.7311C36.3164 84.7623 35.2383 79.0384 34.556 76.3561C33.8789 73.6738 33.2695 65.0436 30.7018 65.0384C29.5195 65.0384 28.3529 67.2103 27.4779 70.4446C26.4414 74.2623 25.8112 79.5592 26.0508 84.5592C27.1029 90.4707 30.2435 102.012 42.4258 106.257C42.9779 107.934 43.4674 109.049 43.4674 109.049C49.5456 116.648 65.5977 113.205 65.2799 110.674C64.9674 108.143 61.0664 108.351 61.0664 108.351C61.0664 108.351 61.2331 107.872 61.3372 106.939C61.3581 106.705 61.3789 106.434 61.3893 106.143C61.3997 105.976 61.4049 105.809 61.4049 105.632C61.4154 104.601 61.3164 103.283 61.0039 101.695L60.9935 101.663C60.9727 101.549 60.9518 101.439 60.9258 101.325C60.5195 99.2676 59.8737 96.9238 58.9727 94.4082C55.1341 83.7155 59.8164 53.6946 60.8581 47.4082C60.9831 46.6582 61.056 46.2415 61.056 46.2415C64.2695 46.8769 69.8945 45.9446 72.1341 45.5176C72.1341 45.4394 72.1393 45.4082 72.1497 45.4186C72.1966 45.4759 72.9466 45.3717 74.1549 45.1373C78.6549 44.2676 89.6029 41.5905 94.957 38.7571C101.743 35.1686 103.436 30.3665 102.681 25.9655Z" fill="#8DCEBF"/>
<path d="M52.181 24.0176C52.1029 25.0853 51.3997 25.903 50.6081 25.8457C49.8164 25.7884 49.2383 24.8717 49.3164 23.804C49.3945 22.7415 50.1029 21.9238 50.8945 21.9811C51.6862 22.0436 52.2643 22.9551 52.181 24.0176Z" fill="#1E1E1E"/>
<path d="M70.6393 21.1321C70.556 22.1998 69.8529 23.0175 69.0612 22.9603C68.2695 22.903 67.6914 21.9863 67.7695 20.9186C67.8476 19.8509 68.556 19.0332 69.3476 19.0957C70.1393 19.153 70.7174 20.0644 70.6393 21.1321Z" fill="#1E1E1E"/>
<path d="M94.2955 31.6686C93.0351 31.3561 90.2434 28.8613 91.5507 27.2675C92.8632 25.6738 96.8841 32.3196 94.2955 31.6686Z" fill="#1E1E1E"/>
<path d="M98.8528 31.2155C99.9257 30.4863 101.686 27.179 99.9049 26.1321C98.1236 25.0905 96.6497 32.7259 98.8528 31.2155Z" fill="#1E1E1E"/>
<path d="M61.6653 46.5957C59.9153 46.4655 58.2643 46.153 57.0039 45.528C53.5664 43.8405 53.7851 40.3925 53.7851 40.3561C53.8008 40.2207 53.9153 40.1165 54.056 40.1269C54.1914 40.1373 54.2956 40.2571 54.2851 40.3925C54.2747 40.5228 54.0976 43.5436 57.2226 45.08C61.7539 47.3092 72.0456 45.4394 72.1497 45.4186C72.1601 45.4134 72.1758 45.8717 72.1758 45.8717C71.8633 45.9342 66.4049 46.9498 61.6653 46.5957Z" fill="black"/>
<path d="M58.5768 34.5801C58.4726 35.9551 56.1706 36.9082 53.431 36.7051C50.6914 36.5019 48.556 35.2207 48.6601 33.8405C48.7643 32.4655 51.0664 31.5123 53.8008 31.7155C56.5404 31.9186 58.6758 33.1998 58.5768 34.5801Z" fill="#F9A0A0"/>
<path d="M48.1706 91.7415C49.181 91.8196 49.8789 93.5071 49.7279 95.5176C49.5769 97.528 48.6342 99.0957 47.6237 99.0176C46.6133 98.9446 45.9154 97.2571 46.0664 95.2467C46.2175 93.2363 47.155 91.6686 48.1706 91.7415Z" fill="#7BBFAD"/>
<path d="M52.1914 70.8769C53.2018 70.9498 53.8997 72.6426 53.7487 74.653C53.5976 76.6634 52.6601 78.2311 51.6497 78.153C50.6393 78.0748 49.9362 76.3873 50.0872 74.3769C50.2382 72.3665 51.1809 70.7988 52.1914 70.8769Z" fill="#7BBFAD"/>
<path d="M45.7903 86.0019C46.3424 86.0384 46.7226 86.9655 46.6445 88.0592C46.5612 89.1582 46.0456 90.0123 45.4935 89.9707C44.9414 89.929 44.5612 89.0071 44.6445 87.9134C44.7278 86.8144 45.2383 85.9603 45.7903 86.0019Z" fill="#7BBFAD"/>
<path d="M49.0768 79.0228C49.7122 79.0696 50.1497 80.1321 50.056 81.3873C49.9622 82.653 49.3685 83.6321 48.7383 83.5853C48.1029 83.5384 47.6654 82.4811 47.7591 81.2207C47.8529 79.955 48.4414 78.9759 49.0768 79.0228Z" fill="#7BBFAD"/>
<path d="M45.6342 78.1582C46.2696 78.205 46.7071 79.2675 46.6081 80.5228C46.5144 81.7884 45.9258 82.7675 45.2904 82.7207C44.6602 82.6738 44.2175 81.6165 44.3165 80.3509C44.4102 79.0905 44.9987 78.1113 45.6342 78.1582Z" fill="#7BBFAD"/>
<path d="M50.6289 86.7155C51.0664 86.7467 51.3737 87.4863 51.306 88.3665C51.2383 89.2415 50.8268 89.929 50.3893 89.8978C49.9466 89.8613 49.6445 89.1217 49.707 88.2467C49.7747 87.3665 50.181 86.6842 50.6289 86.7155Z" fill="#7BBFAD"/>
<path d="M47.8685 73.3821C48.306 73.4134 48.6133 74.153 48.5456 75.028C48.4831 75.9082 48.0717 76.5957 47.629 76.5592C47.1862 76.528 46.8842 75.7884 46.9467 74.9082C47.0144 74.0332 47.4258 73.3509 47.8685 73.3821Z" fill="#7BBFAD"/>
<path d="M43.2747 92.2051C43.7174 92.2311 44.0247 92.9707 43.957 93.8509C43.8945 94.7311 43.4778 95.4134 43.0403 95.3821C42.5976 95.3457 42.2955 94.6113 42.358 93.7311C42.4257 92.8509 42.8372 92.1686 43.2747 92.2051Z" fill="#7BBFAD"/>
</svg>
