<svg width="128" height="128" viewBox="0 0 128 128" fill="none" xmlns="http://www.w3.org/2000/svg">
<path d="M81.6514 55.7634C81.6514 55.7634 71.0264 60.1436 74.3024 73.0186C77.5889 85.8936 78.9639 91.1228 74.0264 97.3259C71.818 101.076 69.2607 100.565 69.2607 100.565C69.2607 100.565 68.2451 99.5915 71.7086 93.6124C75.1722 87.6332 71.9378 81.5915 69.8389 75.4197C67.7347 69.2478 67.0316 57.878 73.9014 51.378C80.7764 44.8728 81.6514 55.7634 81.6514 55.7634Z" fill="#E4E5E7"/>
<path d="M72.5575 59.154C72.5575 59.154 63.1721 53.6488 56.6044 65.5342C50.0419 77.4144 54.1773 83.253 38.646 87.4353C27.5002 90.4457 32.8023 83.9197 37.1044 82.0186C41.4065 80.1176 48.0367 76.0967 49.2294 67.779C50.4221 59.4665 51.6252 54.0655 60.8127 49.4717C70.0054 44.8728 70.844 46.1071 70.844 46.1071L76.4638 52.1488" fill="#E4E5E7"/>
<path d="M84.0627 56.9144C84.0627 56.9144 89.6096 64.4249 86.3283 70.7374C83.0471 77.0499 79.7763 82.3207 82.6825 87.3311C85.5888 92.3415 93.2919 102.159 88.9221 103.743C87.9273 104.102 87.6929 103.232 86.12 100.128C84.5523 97.0238 79.5054 95.1124 77.4742 89.0395C75.4429 82.9613 78.3127 80.3311 79.2606 73.3363C80.2033 66.3363 77.0419 60.4978 77.0419 60.4978L82.8023 55.003" fill="#FFECD6"/>
<path d="M73.4117 63.5811C73.4117 63.5811 62.5835 64.5707 64.1616 78.0551C65.7346 91.5342 72.495 93.878 62.3075 106.321C54.9898 115.253 55.5054 106.862 57.9012 102.81C60.2919 98.7634 63.3387 91.6332 59.4689 84.1749C55.5992 76.7217 53.4377 71.6332 58.2294 62.5447C63.0262 53.4561 64.4325 53.9665 64.4325 53.9665L72.5158 55.6124" fill="#FFECD6"/>
<path d="M51.7033 54.9196C51.7033 54.9196 41.5106 60.2426 45.9429 72.7686C50.37 85.2946 52.2189 90.378 47.8595 96.9978C45.995 100.93 43.4012 100.654 43.4012 100.654C43.4012 100.654 42.3022 99.779 45.2137 93.5134C48.1252 87.2426 44.3647 81.5186 41.7137 75.5603C39.0627 69.6019 37.3335 58.3415 43.5939 51.2478C49.8491 44.154 51.7033 54.9196 51.7033 54.9196Z" fill="#FFECD6"/>
<path d="M89.6044 51.7061C89.6044 51.7061 100.604 24.727 76.844 18.0759C51.1929 10.8884 43.9481 42.0655 43.9481 42.0655C43.9481 42.0655 33.4325 46.0238 36.7971 51.9874C40.1565 57.9561 43.7398 52.0655 43.7398 52.0655C43.7398 52.0655 41.0627 59.6332 46.8961 59.977C52.7294 60.3207 55.844 55.0759 55.844 55.0759C55.844 55.0759 52.4846 65.5082 59.5211 65.8624C66.5575 66.2217 68.2242 57.9926 68.2242 57.9926C68.2242 57.9926 69.094 71.253 78.0992 69.6853C83.8544 68.6436 84.2086 62.0655 84.2086 62.0655C84.2086 62.0655 87.9273 68.779 94.1825 64.9561C100.433 61.1384 88.9013 55.8884 89.6044 51.7061Z" fill="#FF4343"/>
<path d="M65.1253 38.7165C64.917 39.7426 64.0211 40.4249 63.1253 40.2426C62.2347 40.0551 61.6774 39.0759 61.8857 38.0551C62.094 37.029 62.9899 36.3467 63.8805 36.529C64.7815 36.7113 65.3336 37.6957 65.1253 38.7165Z" fill="black"/>
<path d="M82.7347 43.003C82.5263 44.029 81.6305 44.7113 80.7347 44.529C79.844 44.3467 79.2868 43.3676 79.4951 42.3415C79.7034 41.3207 80.5993 40.6384 81.4951 40.8207C82.3909 41.003 82.943 41.9822 82.7347 43.003Z" fill="black"/>
<path d="M75.9169 41.9822C75.3909 43.977 73.3492 45.1645 71.3544 44.6436C69.3596 44.1176 68.1669 42.0759 68.693 40.0811" stroke="black" stroke-width="0.692" stroke-miterlimit="10" stroke-linecap="round" stroke-linejoin="round"/>
<path d="M64.6149 44.503C64.3961 45.3468 62.6044 45.6072 60.6201 45.0863C58.6357 44.5655 57.2034 43.4561 57.4274 42.6124C57.6513 41.7686 59.4378 41.5082 61.4222 42.029C63.4117 42.5499 64.8388 43.6593 64.6149 44.503Z" fill="#F9A0A0"/>
<path d="M83.6721 49.5186C83.4534 50.3624 81.6617 50.6228 79.6773 50.102C77.6929 49.5759 76.2607 48.4717 76.4846 47.628C76.7086 46.779 78.495 46.5186 80.4794 47.0447C82.469 47.5655 83.8961 48.6697 83.6721 49.5186Z" fill="#F9A0A0"/>
</svg>
