<svg width="128" height="128" viewBox="0 0 128 128" fill="none" xmlns="http://www.w3.org/2000/svg">
<path d="M51.0356 52.3189C51.0356 52.3189 37.947 64.1835 42.4783 79.6991C44.8637 87.871 53.6501 70.9648 53.6501 70.9648C53.6501 70.9648 56.4783 51.2773 51.0356 52.3189Z" fill="#84898C"/>
<path d="M77.3429 52.3189C77.3429 52.3189 90.4314 64.1835 85.9001 79.6991C83.5147 87.871 74.7283 70.9648 74.7283 70.9648C74.7283 70.9648 71.9001 51.2773 77.3429 52.3189Z" fill="#84898C"/>
<path d="M49.947 97.397C49.947 97.397 45.5981 100.72 47.4314 100.72C49.2648 100.72 50.7543 97.397 50.7543 97.397C50.7543 97.397 48.0043 101.861 49.6085 102.204C51.2075 102.548 51.895 98.1991 51.895 98.1991C51.895 98.1991 51.6658 102.246 53.0408 102.225C54.4158 102.204 53.0408 97.397 53.0408 97.397C53.0408 97.397 50.5616 95.1835 49.947 97.397Z" fill="#383B3D"/>
<path d="M78.9053 97.397C78.9053 97.397 83.2595 100.72 81.4262 100.72C79.5928 100.72 78.1033 97.397 78.1033 97.397C78.1033 97.397 80.8533 101.861 79.2543 102.204C77.6501 102.548 76.9626 98.1991 76.9626 98.1991C76.9626 98.1991 77.1918 102.246 75.8168 102.225C74.4418 102.204 75.8168 97.397 75.8168 97.397C75.8168 97.397 78.296 95.1835 78.9053 97.397Z" fill="#383B3D"/>
<path d="M51.0356 54.4752C51.0356 54.4752 53.0929 56.8137 52.4471 58.8398C61.2544 59.0793 69.8742 60.8918 78.1398 64.1835C76.9419 60.1158 75.7804 56.97 74.9992 54.8606" fill="#84898C"/>
<path d="M51.0512 98.2095C50.5668 98.6106 49.9939 98.9231 49.3689 99.1731C49.5095 99.2356 49.6554 99.2929 49.8116 99.3502C53.8637 99.9543 58.0147 97.4543 62.6449 97.0689C69.4626 96.5012 69.2387 98.2043 74.5564 99.4387C77.9522 100.23 80.4418 99.4335 81.7804 97.8189C72.9106 91.6731 61.2126 90.9179 51.0512 98.2095Z" fill="#84898C"/>
<path d="M78.1398 64.1835C69.8741 60.8918 61.2543 59.0793 52.4471 58.845C50.5148 64.9023 46.5981 77.5898 46.1033 82.4283C45.4575 88.7252 43.9054 96.8241 49.3689 99.1731C49.9939 98.9231 50.5668 98.6106 51.0512 98.2096C61.2127 90.9179 72.9106 91.6731 81.7804 97.8189C82.5408 96.9023 82.9262 95.7148 82.8898 94.4075C82.5512 81.7668 80.2856 71.4856 78.1398 64.1835Z" fill="#989DA0"/>
<path d="M61.3168 61.2356C61.3168 61.2356 52.7647 65.2252 54.4731 69.2147C54.4731 69.2147 49.3376 74.5429 51.6189 79.2981C53.9001 84.0481 55.9939 84.4283 58.2751 82.5272C58.2751 82.5272 56.9418 87.0897 61.3168 88.2304C65.6866 89.371 66.447 85.7564 66.447 85.7564C66.447 85.7564 70.0616 90.1314 72.7231 87.0897C75.3845 84.0481 73.8637 81.9543 73.8637 81.9543C73.8637 81.9543 76.5251 83.4752 77.0929 78.1522C77.6658 72.8293 73.8637 69.2147 73.8637 69.2147C73.8637 69.2147 76.7126 68.3033 74.6241 65.246C72.5304 62.1835 67.0199 59.3345 61.3168 61.2356Z" fill="#E4E5E7"/>
<path d="M55.7908 27.9491C55.7908 27.9491 55.5929 27.8085 54.1866 27.1366C51.7596 25.9804 47.1919 24.3189 44.3064 26.845C42.0721 28.8033 38.9991 31.1835 37.0096 33.4491C34.9314 35.8085 34.0252 38.0429 36.4627 39.5377C36.4627 39.5377 36.8898 39.8241 38.2439 39.1783C38.2439 39.1783 36.5356 41.6054 38.8169 42.6731C41.0981 43.7408 41.8116 41.4596 41.8116 41.4596C41.8116 41.4596 40.9523 45.3085 45.0148 45.8814C49.0825 46.4543 50.296 41.6054 50.1502 40.9596" fill="#84898C"/>
<path d="M89.8951 32.5377C87.9524 30.5585 85.3846 28.5429 83.4471 26.845C80.8326 24.5637 77.4471 25.2564 75.0357 26.2616C73.2284 27.0168 71.9628 27.9491 71.9628 27.9491L77.6034 40.9595C77.4576 41.6002 78.6711 46.4543 82.7336 45.8814C86.7961 45.3085 85.9419 41.4595 85.9419 41.4595C85.9419 41.4595 86.6555 43.7408 88.9419 42.6731C91.218 41.6002 89.5044 39.1783 89.5044 39.1783C90.8638 39.8241 91.2909 39.5377 91.2909 39.5377C94.0409 37.8554 92.5357 35.2304 89.8951 32.5377Z" fill="#84898C"/>
<path d="M65.2127 25.0169C65.2127 25.0169 54.6606 24.1627 50.6658 34.6158C46.6762 45.0741 44.3325 56.6002 60.7439 58.1887C80.3637 60.095 80.796 49.3502 80.3273 44.9804C79.8481 40.6054 80.7023 25.2096 65.2127 25.0169Z" fill="#989DA0"/>
<path d="M64.9991 42.22C64.9991 42.22 62.6502 41.9335 61.1293 44.6002C59.0356 48.2773 56.8481 51.7773 60.1293 53.4856C63.4054 55.1939 70.5408 55.2929 71.2075 50.7304C71.3221 48.8293 69.9991 46.1002 69.2387 44.5846C68.4783 43.0637 66.671 42.1731 64.9991 42.22Z" fill="#E4E5E7"/>
<path d="M65.1658 49.4439C65.1658 49.4439 62.0981 48.7304 62.7387 46.6679C63.3794 44.6002 63.7804 43.1939 65.1658 43.1731C66.8742 43.1418 67.0877 44.7408 67.3065 46.8085C67.52 48.8762 66.8065 48.9491 65.1658 49.4439Z" fill="#383B3D"/>
<path d="M61.2804 51.2772C60.9211 51.2772 60.6034 51.1887 60.3117 51.0116C59.5148 50.5168 59.2804 49.522 59.2752 49.4752C59.2544 49.397 59.3065 49.3241 59.3846 49.3085C59.4575 49.2877 59.5357 49.3397 59.5513 49.4127C59.5565 49.4231 59.77 50.3397 60.4627 50.7668C60.8325 51.0012 61.2804 51.0533 61.7961 50.9283C63.7179 50.4595 64.8794 50.0116 65.1242 49.121C65.145 49.0481 65.2127 49.0064 65.2909 49.022C65.3638 49.0377 65.4107 49.1106 65.4002 49.1887C65.395 49.1887 65.3742 49.397 65.5877 49.6731C65.9054 50.0793 66.7388 50.6054 68.8846 50.8241C69.7909 50.9127 69.9784 50.5429 70.2752 49.9231C70.3325 49.8085 70.3898 49.6887 70.4575 49.5689C70.494 49.5012 70.5773 49.47 70.6502 49.5116C70.7179 49.5481 70.744 49.6366 70.7075 49.7043C70.645 49.8241 70.5877 49.9387 70.5304 50.0481C70.2232 50.6783 69.9627 51.2252 68.8534 51.1054C66.5877 50.8762 65.6971 50.2877 65.3482 49.8293C65.2909 49.7512 65.244 49.6783 65.2179 49.6158C64.744 50.3658 63.5929 50.7825 61.8638 51.2043C61.6607 51.2564 61.4627 51.2772 61.2804 51.2772Z" fill="#383B3D"/>
<path d="M70.921 45.7356C70.7856 45.7356 70.6658 45.6366 70.6398 45.496C70.6294 45.4335 70.3846 43.9335 71.1137 42.9179C71.4471 42.4491 71.9262 42.1575 72.546 42.0585C73.0929 41.9648 73.5825 42.0898 74.0044 42.4127C75.1033 43.2773 75.2752 45.3033 75.2804 45.3866C75.2908 45.5429 75.1762 45.6835 75.02 45.6939C74.8585 45.7096 74.7283 45.5898 74.7127 45.4335C74.7127 45.4127 74.5512 43.5689 73.6502 42.8606C73.3585 42.6366 73.0304 42.5585 72.6346 42.621C72.171 42.6991 71.8221 42.9023 71.5773 43.246C70.9887 44.0689 71.2023 45.3918 71.2023 45.4023C71.2283 45.5585 71.1241 45.7043 70.9679 45.7304C70.9523 45.7356 70.9366 45.7356 70.921 45.7356Z" fill="#383B3D"/>
<path d="M59.2075 45.8137C59.1815 45.8137 59.1554 45.8085 59.1294 45.8033C58.9784 45.7616 58.8898 45.6054 58.9263 45.4543C58.9315 45.4439 59.2648 44.147 58.7596 43.2773C58.5461 42.9075 58.2179 42.6731 57.7596 42.5481C57.3794 42.4543 57.0409 42.5012 56.7284 42.6939C55.7648 43.3137 55.4315 45.1366 55.4315 45.1523C55.4002 45.3085 55.2544 45.4127 55.0982 45.3866C54.9471 45.3606 54.8429 45.2095 54.869 45.0585C54.8846 44.97 55.244 42.97 56.4211 42.2148C56.869 41.9283 57.369 41.8554 57.9054 42.0012C58.5096 42.1575 58.9627 42.4908 59.2492 42.9908C59.8794 44.0689 59.4992 45.5377 59.4784 45.6002C59.4471 45.7304 59.3273 45.8137 59.2075 45.8137Z" fill="#383B3D"/>
</svg>
