<svg width="128" height="128" viewBox="0 0 128 128" fill="none" xmlns="http://www.w3.org/2000/svg">
<path d="M85.3457 94.0705C85.3457 94.0705 90.653 92.3049 91.2259 88.2059L93.0124 91.1382C93.0124 91.1382 87.8092 96.5809 85.627 96.133" fill="#FCD349"/>
<path d="M91.4811 91.4351C91.4811 91.4351 87.9863 88.4976 90.627 85.2007C93.2676 81.9038 94.3926 81.4559 94.3926 81.4559C94.3926 81.4559 99.9186 91.8778 92.0436 91.4351" fill="#FF994D"/>
<path d="M42.5748 88.8101C42.5748 88.8101 38.6217 90.4663 38.5227 95.2424C38.4237 100.013 43.3925 108.784 43.3925 108.784C43.3925 108.784 38.9237 108.784 39.6164 110.883C40.3144 112.982 49.7571 113.05 53.4342 111.68C57.1112 110.31 42.5748 88.8101 42.5748 88.8101Z" fill="#FFBA1F"/>
<path d="M83.2675 88.8101C83.2675 88.8101 87.2206 90.4663 87.3196 95.2424C87.4186 100.013 82.4498 108.784 82.4498 108.784C82.4498 108.784 86.9238 108.784 86.2311 110.883C85.5331 112.982 76.0904 113.05 72.4133 111.68C68.7311 110.31 83.2675 88.8101 83.2675 88.8101Z" fill="#FFBA1F"/>
<path d="M55.2781 111.68C55.2781 111.68 62.3406 113.742 71.4395 111.024C71.4395 111.024 73.8406 87.8049 75.0802 74.4715C67.1531 77.1486 59.1322 79.3101 50.8875 80.0028" fill="#FFD41D"/>
<path d="M48.7727 64.7476L50.8873 80.0028C59.1321 79.3101 67.1529 77.1486 75.08 74.4715C75.3404 71.5965 75.554 69.1851 75.6737 67.5601C76.356 58.409 48.7727 64.7476 48.7727 64.7476Z" fill="#FFBA1F"/>
<path d="M77.4447 93.9767C76.1947 89.284 72.4186 78.7528 63.8457 78.7528C52.8145 78.7528 50.7363 96.9559 50.7363 96.9559L54.2103 105.716L56.5436 111.597C56.5436 111.597 54.9499 112.893 62.804 113.133C77.1686 113.576 77.9603 96.1955 77.9603 96.1955C77.9603 96.1955 77.8092 95.3257 77.4447 93.9767Z" fill="#FFECD6"/>
<path d="M41.9187 80.1382C41.8822 83.1643 42.1374 86.6122 42.8666 90.482C45.2624 103.232 49.1582 112.029 54.0332 112.789C58.903 113.55 59.8978 108.878 56.1166 99.9195C54.0541 95.0288 54.3041 86.3882 54.9551 79.5445C50.6739 80.1486 46.3353 80.3882 41.9187 80.1382Z" fill="#FFD41D"/>
<path d="M45.3822 64.7476C45.3822 64.7476 42.0333 70.0705 41.9187 80.1382C46.3354 80.3882 50.6739 80.1486 54.9552 79.5445C55.4968 73.8518 56.3145 69.4038 56.3145 69.4038" fill="#FFBA1F"/>
<path d="M70.3299 99.9195C66.5539 108.878 67.5487 113.55 72.4185 112.789C77.2883 112.029 81.1893 103.232 83.5851 90.482C85.1476 82.1799 84.5383 75.7893 83.533 71.4507C79.3976 72.982 75.257 74.4715 71.0799 75.7736C71.9601 82.857 72.7987 94.0705 70.3299 99.9195Z" fill="#FFD41D"/>
<path d="M70.1321 69.4038C70.1321 69.4038 70.6112 72.008 71.08 75.7736C75.2571 74.4715 79.3977 72.9872 83.5331 71.4507C82.5071 67.0393 81.0696 64.7476 81.0696 64.7476" fill="#FFBA1F"/>
<path d="M64.2883 15.9663C64.2883 15.9663 57.231 11.1695 52.4914 16.5601C52.4914 16.5601 44.3873 15.133 42.7623 22.4768C42.7623 22.4768 36.6789 24.258 36.9133 30.034C36.9133 30.034 33.2518 30.4195 32.2831 36.0184C31.3143 41.6226 33.7779 42.2476 33.7779 42.2476C33.7779 42.2476 29.5383 46.8518 34.1529 53.6174C34.1529 53.6174 30.4081 59.5132 37.5852 63.383C37.5852 63.383 37.8977 69.3465 46.257 72.1695C46.257 72.1695 48.5904 76.8934 55.2883 75.0653C55.2883 75.0653 59.7154 79.982 65.8352 75.4872C65.8352 75.4872 74.2727 78.732 78.106 72.6174C78.106 72.6174 82.9445 73.3413 84.9393 67.1747C84.9393 67.1747 90.4289 66.2788 90.0539 58.7163C90.0539 58.7163 94.0487 55.4195 91.6737 50.607C91.6737 50.607 94.9185 49.8309 93.1737 45.5653C93.1737 45.5653 95.9185 39.758 90.3039 34.7268C90.3039 34.7268 91.8716 29.1226 87.0956 25.9143C87.0956 25.9143 86.4602 20.6174 81.83 19.8518C77.1998 19.0861 76.5643 20.8674 76.5643 20.8674C76.5643 20.8674 75.5852 14.0965 65.1633 16.0913" fill="#FF994D"/>
<path d="M49.028 36.8205C49.028 36.8205 41.0436 34.159 41.7936 30.0028C42.5436 25.8413 49.4447 23.9299 52.2728 33.0809" fill="#FFD41D"/>
<path d="M49.2051 35.4247C49.2051 35.4247 45.4551 34.1747 45.8092 32.2215C46.1582 30.2684 49.3978 29.3674 50.7311 33.6695" fill="#FFECD6"/>
<path d="M78.0487 37.508C78.0487 37.508 86.0331 34.8518 85.2831 30.6903C84.5383 26.534 77.6321 24.6174 74.804 33.7684" fill="#FFD41D"/>
<path d="M77.8717 36.1174C77.8717 36.1174 81.6217 34.8674 81.2728 32.9143C80.9186 30.9559 77.679 30.0601 76.3457 34.357" fill="#FFECD6"/>
<path d="M79.9135 44.6382C79.3667 38.7424 77.3146 32.9663 72.8198 31.4142C66.0854 29.0861 62.3406 28.9194 57.601 29.9819C57.601 29.9819 48.4917 31.9663 47.1167 39.2372C45.7469 46.5132 43.2885 47.8049 42.4604 51.7944C41.6687 55.5913 44.5698 65.6226 57.5906 67.3153C58.2625 67.4038 58.95 67.4767 59.6792 67.5184C74.4864 68.3465 78.6427 60.5288 79.726 53.0444C80.0854 50.5497 80.1844 47.5809 79.9135 44.6382Z" fill="#FFD41D"/>
<path d="M51.7781 52.7007C51.7781 52.7007 53.7729 47.1382 64.8354 49.4663" stroke="black" stroke-width="0.498667" stroke-miterlimit="10" stroke-linecap="round"/>
<path d="M68.705 48.8465C68.3977 49.8934 67.6164 50.5861 66.955 50.3882C66.2935 50.1955 66.0071 49.1955 66.3091 48.1486C66.6164 47.1017 67.3977 46.4142 68.0591 46.6069C68.7206 46.7997 69.0123 47.8049 68.705 48.8465Z" fill="black"/>
<path d="M53.5176 47.732C53.4551 48.8205 52.8457 49.6695 52.1582 49.6278C51.4707 49.5861 50.9603 48.6695 51.028 47.5861C51.0957 46.4976 51.7051 45.6486 52.3926 45.6903C53.0801 45.732 53.5853 46.6486 53.5176 47.732Z" fill="black"/>
<path d="M57.8509 53.7893C57.8509 53.7893 54.7675 51.883 56.3509 50.7997C57.929 49.7163 61.2311 49.7007 61.205 51.2476C61.1738 52.7945 58.8925 54.5913 57.8509 53.7893Z" fill="black"/>
<path d="M58.3038 52.7007C58.3038 52.7007 57.9288 55.6226 60.0955 57.034" stroke="black" stroke-width="0.498667" stroke-miterlimit="10" stroke-linecap="round"/>
<path d="M56.5176 57.034C56.5176 57.034 60.7572 59.0913 62.9238 53.9872" stroke="black" stroke-width="0.498667" stroke-miterlimit="10" stroke-linecap="round"/>
<path d="M72.2415 54.9038C72.2415 55.7632 70.7363 56.4611 68.8717 56.4611C67.0124 56.4611 65.502 55.7632 65.502 54.9038C65.502 54.0445 67.0124 53.3465 68.8717 53.3465C70.7363 53.3465 72.2415 54.0445 72.2415 54.9038Z" fill="#F19A94"/>
<path d="M53.4602 55.1174C53.2727 55.9559 51.6477 56.3101 49.83 55.9038C48.0123 55.5028 46.6893 54.4976 46.8768 53.659C47.0643 52.8205 48.6893 52.4663 50.5018 52.8674C52.3195 53.2684 53.6425 54.2788 53.4602 55.1174Z" fill="#F19A94"/>
</svg>
