<svg width="128" height="128" viewBox="0 0 128 128" fill="none" xmlns="http://www.w3.org/2000/svg">
<path d="M45.019 91.3068C38.4826 90.437 33.5138 80.7078 32.6336 75.9839C31.7482 71.2599 35.2794 65.8224 38.8107 62.2912C41.4982 59.6037 43.5972 55.8901 43.894 51.5464C43.9878 50.1818 43.9044 48.7547 43.6024 47.2807C42.3419 41.0984 37.0451 38.7651 31.493 41.5464C30.6961 41.9474 30.0242 42.463 29.4409 43.0464C25.9878 46.5151 26.2534 52.6297 28.8472 54.437C31.8732 56.5516 33.2638 53.588 33.1232 50.5412C33.0503 49.1193 33.6909 47.8797 34.5815 47.187C35.5867 46.4005 36.9201 46.3224 37.9305 47.5307C38.3992 48.0932 38.6805 48.7912 38.7274 49.6193C38.8836 52.1401 36.9044 55.9057 31.493 61.0307C24.3055 67.8432 24.4305 77.3016 30.3576 87.6453C36.2899 97.9891 46.2534 95.213 46.2534 95.213" fill="#B76435"/>
<path d="M79.8262 64.4578C79.8106 63.786 79.795 63.1453 79.7741 62.5516C79.6804 59.536 74.071 56.2807 74.071 56.2807L70.9304 59.0724C70.9304 59.0724 70.8158 60.6922 70.6856 63.2807C70.6335 64.2964 70.5814 65.463 70.5293 66.7391C70.4668 68.1818 70.4148 69.7599 70.3731 71.4318C70.3418 72.6297 70.3158 73.8693 70.295 75.1349C70.2585 77.6818 70.2637 80.3224 70.3262 82.8901C70.3523 83.9735 70.3835 85.0464 70.4356 86.0932C70.821 94.3485 71.7273 100.135 74.8366 99.6297C80.3002 98.7391 79.0398 90.6714 79.5762 82.3068C79.6387 81.3172 79.6908 80.3224 79.7377 79.3224C79.821 77.3432 79.8679 75.3589 79.8887 73.437C79.9043 72.3953 79.9043 71.3745 79.9043 70.3797C79.8991 68.2287 79.8679 66.2235 79.8262 64.4578Z" fill="#B76435"/>
<path d="M69.4252 57.9422L75.4513 56.5255C77.3367 76.9891 76.269 94.7547 61.7846 99.4109C59.9825 95.338 58.8835 91.0984 58.8835 86.4943C56.8419 76.312 60.1075 63.4787 69.4252 57.9422Z" fill="#CB7A44"/>
<path d="M69.4252 57.9422L63.67 50.562C63.67 50.562 50.0398 55.2287 47.0294 60.1766C46.1283 61.6505 45.196 63.3328 44.2638 65.2182C43.7898 66.187 43.3158 67.2026 42.8523 68.2755C42.045 70.1349 41.269 72.1505 40.5606 74.3224C39.17 78.6037 38.0658 83.5099 37.4929 88.937C38.7377 89.8589 39.795 91.0464 40.5138 92.5047C40.9252 93.3485 41.3158 94.1974 41.8054 94.9943C42.4044 95.9735 42.8679 97.0307 43.1492 98.1818C43.2117 98.8276 43.2742 99.4735 43.3419 100.119C44.894 100.713 46.821 101.104 49.2481 101.104C54.1908 101.104 58.3315 100.52 61.7846 99.411C59.9825 95.338 58.8835 91.0985 58.8835 86.4943C56.8419 76.312 60.1075 63.4787 69.4252 57.9422Z" fill="#B76435"/>
<path d="M72.7168 84.3537C72.5137 83.4526 72.3001 82.5516 72.0762 81.6505C71.6283 79.8641 71.1439 78.0828 70.6595 76.3641C70.3939 75.4318 70.1283 74.5255 69.8678 73.6401C69.2949 71.7235 68.7376 69.9422 68.2376 68.3797C68.0449 67.786 67.8574 67.2235 67.6855 66.6974C66.8105 64.036 66.0866 57.2495 66.0866 57.2495L58.8887 65.9318C58.8887 65.9318 59.2168 67.4057 59.7845 69.7391C60.0085 70.661 60.2637 71.713 60.5553 72.8641C60.8835 74.1714 61.2533 75.588 61.6543 77.088C61.9408 78.1662 62.2428 79.2755 62.5605 80.4057C63.2012 82.687 63.8991 85.036 64.6335 87.312C64.9408 88.2703 65.2533 89.213 65.5762 90.1297C68.0918 97.3849 70.4303 102.302 73.0658 101.031C77.696 98.7964 74.4512 91.9422 72.7168 84.3537Z" fill="#B76435"/>
<path d="M56.5138 96.0985C57.6961 93.8745 63.42 90.6818 62.6961 82.5203C62.1284 76.0724 59.3159 72.411 55.5711 69.4735C51.5138 66.286 44.5607 71.0047 42.1023 75.1505C41.6127 75.9839 41.17 76.8953 40.7638 77.8693C40.2169 79.1922 39.7534 80.6245 39.3836 82.0985C39.0607 83.4058 38.8107 84.7495 38.644 86.0776C38.2534 89.2235 38.3263 92.3016 38.9617 94.713C41.5034 104.348 63.3732 104.484 66.5034 101.255C72.0398 95.5464 56.5138 96.0985 56.5138 96.0985Z" fill="#B76435"/>
<path d="M53.4147 35.5151C53.4147 35.5151 47.4564 30.3589 41.9147 35.4526C36.3731 40.5464 37.3262 53.338 51.1439 49.3953" fill="#B76435"/>
<path d="M53.2741 36.8797C53.2741 36.8797 48.5189 32.7599 44.0918 36.8276C39.6699 40.8953 40.4303 51.1089 51.4668 47.963" fill="#CB7A44"/>
<path d="M88.7117 39.1193C88.7117 39.1193 95.5919 35.2703 99.9877 41.3797C104.384 47.4891 100.868 59.8224 88.1335 53.1714" fill="#B76435"/>
<path d="M88.5762 40.4787C88.5762 40.4787 94.0658 37.411 97.5762 42.286C101.087 47.1662 98.2793 57.0151 88.1074 51.7026" fill="#CB7A44"/>
<path d="M68.0711 61.8745C68.0711 61.8745 55.17 61.8068 51.4617 50.4578C46.9721 36.687 58.4148 29.963 64.7586 27.1818C71.0971 24.4057 72.1544 24.1922 71.1492 27.0412C71.1492 27.0412 75.769 24.7234 75.7169 25.9891C75.67 27.2599 74.3211 27.9995 74.3211 27.9995C74.3211 27.9995 77.9773 25.7443 78.3888 27.1401C78.8054 28.5412 78.2117 28.8745 78.2117 28.8745C78.2117 28.8745 91.3836 35.7182 90.2481 46.0464C89.1179 56.3693 81.5919 62.937 68.0711 61.8745Z" fill="#B76435"/>
<path d="M71.0919 37.5516C71.0919 37.5516 65.6648 31.5828 60.4512 34.2391C55.2377 36.8953 55.4408 46.4787 55.4408 46.4787C55.4408 46.4787 51.7742 45.8641 53.5242 50.588C55.269 55.3068 59.7273 59.6662 68.7429 60.588C77.7585 61.5099 82.8158 55.6453 84.8679 53.4682C86.9252 51.2859 86.4773 47.0932 82.8679 48.0828C82.8679 48.0828 85.644 38.0672 80.9825 35.3276C76.321 32.588 71.0919 37.5516 71.0919 37.5516Z" fill="#CB7A44"/>
<path d="M69.4252 48.838C69.4252 48.838 67.394 47.2912 68.2898 46.8485C69.1804 46.411 71.0398 46.9162 70.8679 47.4318C70.6908 47.9474 69.4252 48.838 69.4252 48.838Z" fill="black"/>
<path d="M67.8887 49.6401C67.8887 49.6401 68.2376 50.5724 69.2116 49.7756C69.2116 49.7756 69.847 50.5099 70.5762 49.9162" stroke="black" stroke-width="0.692" stroke-miterlimit="10" stroke-linecap="round" stroke-linejoin="round"/>
<path d="M69.4356 47.7651L69.2117 49.7755" stroke="black" stroke-width="0.692" stroke-miterlimit="10" stroke-linecap="round" stroke-linejoin="round"/>
<path d="M65.6128 46.7755C65.6128 46.7755 67.2274 45.4474 69.6284 45.6922C72.0347 45.9422 73.3263 47.7287 73.3263 47.7287" stroke="black" stroke-width="0.634667" stroke-miterlimit="10" stroke-linecap="round" stroke-linejoin="round"/>
<path d="M63.2013 45.5464C63.1388 46.1714 62.769 46.6453 62.3783 46.6089C61.9825 46.5672 61.7169 46.0255 61.7846 45.4005C61.8419 44.7755 62.2169 44.3016 62.6075 44.338C63.0033 44.3797 63.2638 44.9214 63.2013 45.5464Z" fill="black"/>
<path d="M77.3626 46.9943C77.3001 47.6193 76.9303 48.0932 76.5345 48.0516C76.1439 48.0151 75.8783 47.4735 75.9408 46.8485C76.0033 46.2182 76.3783 45.7443 76.7689 45.786C77.1595 45.8276 77.4251 46.3641 77.3626 46.9943Z" fill="black"/>
<path d="M63.67 50.562C63.4409 51.312 61.8992 51.5099 60.2221 51.0047C58.545 50.4995 57.368 49.4787 57.5971 48.7339C57.8211 47.9839 59.3627 47.7859 61.0398 48.2912C62.7169 48.7964 63.894 49.812 63.67 50.562Z" fill="#F19A94"/>
<path d="M74.0345 51.6193C74.1075 52.4005 75.5814 52.9057 77.3262 52.7495C79.0658 52.5932 80.4252 51.838 80.3523 51.0568C80.2846 50.2755 78.8158 49.7703 77.071 49.9266C75.3262 50.0828 73.972 50.8432 74.0345 51.6193Z" fill="#F19A94"/>
</svg>
