<svg width="128" height="128" viewBox="0 0 128 128" fill="none" xmlns="http://www.w3.org/2000/svg">
<path d="M50.3378 86.729C38.3482 82.9998 38.8639 76.0623 32.4784 75.453C29.2024 75.1405 27.7232 76.9425 27.1086 78.8905C31.1243 85.4582 37.0982 90.8905 42.6086 93.1977C42.6086 93.1977 56.6972 99.9686 69.5618 96.8123C72.0566 89.4582 61.6764 90.255 50.3378 86.729Z" fill="#E4E5E7"/>
<path d="M104.379 43.2759C104.379 43.2759 98.7284 42.0936 94.6815 55.9477C94.6815 55.9477 92.8222 44.3852 83.4107 41.6613C83.4107 41.6613 75.0982 56.5519 89.1347 69.0259C89.1347 69.0259 80.9524 81.7134 72.0617 71.2967C63.1711 60.8748 55.6763 38.5623 33.3326 46.578C18.0513 52.0623 20.6242 68.2759 27.1086 78.8905C27.7232 76.9425 29.1972 75.1405 32.4732 75.453C38.5722 76.0311 38.3899 82.3852 48.8013 86.203C48.8378 91.9321 49.6399 99.9009 53.0878 101.818C57.093 104.047 62.4107 95.255 65.0149 90.2967C68.7909 91.4582 70.8222 93.0936 69.5617 96.8071C73.9888 95.7238 78.2753 93.4634 81.7909 89.3384C90.7857 78.7811 91.8482 69.6561 91.8482 69.6561C91.8482 69.6561 112.046 66.9425 104.379 43.2759Z" fill="#77DDE8"/>
<path d="M37.8846 61.229C37.3586 62.1196 36.3378 62.4946 35.593 62.0623C34.8586 61.6248 34.6867 60.5519 35.2128 59.6561C35.7336 58.7655 36.7596 58.3957 37.4992 58.828C38.2388 59.2602 38.4107 60.3332 37.8846 61.229Z" fill="#003B54"/>
<path d="M27.369 56.6249C27.369 56.6249 24.8169 59.828 27.2804 61.0155C29.7335 62.203 30.8377 58.2603 30.8377 58.2603" stroke="#003B54" stroke-width="0.573333" stroke-miterlimit="10" stroke-linecap="round" stroke-linejoin="round"/>
<path d="M40.4054 66.3749C40.3117 67.3176 38.7856 67.953 36.994 67.7759C35.2023 67.6092 33.8221 66.6978 33.9054 65.7499C33.9992 64.8019 35.5252 64.1769 37.3221 64.3436C39.1138 64.5155 40.494 65.4269 40.4054 66.3749Z" fill="#F19A94"/>
<path d="M40.4471 44.5103C41.0929 44.2759 41.6919 43.9998 42.2648 43.703C42.2388 42.1925 42.1971 40.4686 42.119 38.6978C41.1398 39.2603 40.1086 39.7238 39.0044 40.0467C37.7127 40.4217 36.0044 40.9009 34.2388 41.1873C33.8638 42.9165 33.5356 44.505 33.2856 45.7863C35.7231 45.755 38.1867 45.328 40.4471 44.5103Z" fill="#E4E5E7"/>
<path d="M41.5253 31.0623C41.1086 27.8436 40.4628 25.6092 39.4732 26.0571C38.3534 26.5623 37.1086 29.9634 35.9993 33.9894C36.3118 33.8957 36.6295 33.7967 36.942 33.6821C38.7284 33.0363 40.2024 32.1457 41.5253 31.0623Z" fill="#E4E5E7"/>
<path d="M38.6397 38.9321C39.9158 38.4738 41.0251 37.88 42.046 37.1873C41.9626 35.6196 41.8533 34.0623 41.7074 32.6248C40.3845 33.5727 38.9106 34.328 37.3012 34.7967C36.8116 34.9425 36.2491 35.0988 35.6554 35.2602C35.2491 36.8123 34.8585 38.4217 34.5095 39.9634C35.9314 39.755 37.322 39.4061 38.6397 38.9321Z" fill="#E4E5E7"/>
<path d="M42.2856 45.0988C41.8065 45.2967 41.3117 45.479 40.8065 45.6248C38.7804 46.2186 35.7231 47.0623 33.0461 47.0155C32.8325 48.13 32.7075 48.8175 32.7075 48.8175C37.9054 52.1509 42.2804 50.2342 42.2961 48.7238C42.3013 48.3852 42.3065 47.0155 42.2856 45.0988Z" fill="#E4E5E7"/>
<path d="M42.2857 45.0988C42.2805 44.6613 42.2753 44.1925 42.2649 43.703C41.692 43.9998 41.093 44.2759 40.4472 44.5102C38.1868 45.328 35.7232 45.755 33.2857 45.7863C33.1972 46.2394 33.1139 46.6509 33.0461 47.0155C35.7232 47.0623 38.7805 46.2186 40.8066 45.6248C41.3118 45.479 41.8066 45.2967 42.2857 45.0988Z" fill="white"/>
<path d="M42.119 38.6977C42.0981 38.1977 42.0721 37.6925 42.0461 37.1873C41.0304 37.88 39.9159 38.4686 38.6398 38.9321C37.3221 39.4113 35.9315 39.7498 34.5148 39.9634C34.4211 40.38 34.3325 40.7863 34.2388 41.1873C36.0044 40.9009 37.7127 40.4217 39.0044 40.0467C40.1086 39.7238 41.145 39.2602 42.119 38.6977Z" fill="white"/>
<path d="M41.7076 32.6196C41.6503 32.0832 41.593 31.5623 41.5253 31.0623C40.2024 32.1457 38.7336 33.0363 36.942 33.6821C36.6295 33.7967 36.3118 33.8957 35.9993 33.9894C35.8795 34.4061 35.7649 34.8332 35.6555 35.2602C36.2493 35.0988 36.8118 34.9425 37.3014 34.7967C38.9107 34.328 40.3847 33.5727 41.7076 32.6196Z" fill="white"/>
</svg>
