<svg width="128" height="128" viewBox="0 0 128 128" fill="none" xmlns="http://www.w3.org/2000/svg">
<path d="M44.5012 75.2381C36.3137 73.2954 28.4595 76.3683 21.0949 72.5089C20.6991 73.1339 21.4908 74.3943 24.4283 76.7745C34.022 84.535 45.1053 77.3995 45.1053 77.3995C45.1053 77.3995 45.1053 77.6287 45.1105 78.0089C45.4855 76.5714 45.5064 75.4725 44.5012 75.2381Z" fill="#E4E5E7"/>
<path d="M83.923 73.7433C89.0063 80.3422 95.4334 82.9829 101.553 80.3683C106.058 78.4464 109.251 74.4152 106.241 73.0558C100.121 77.2172 91.3449 77.8214 83.923 73.7433Z" fill="#E4E5E7"/>
<path d="M62.996 74.1912C61.3345 73.7954 59.4074 74.587 57.7616 75.6287C59.1574 76.436 62.4647 78.8683 63.2564 84.0714C64.2199 90.3787 56.6366 101.056 63.5741 96.3006C67.2824 88.4308 71.1106 79.2172 62.996 74.1912Z" fill="#E4E5E7"/>
<path d="M106.241 73.0558C105.069 72.5245 102.954 72.3943 99.6157 72.9516C99.3396 72.9985 99.0949 73.0037 98.8292 73.0402C87.5949 74.4724 85.0115 65.337 84.6834 60.6131C84.2876 54.9152 85.074 44.2902 82.1209 35.9464C79.6001 28.8214 74.3605 23.3579 63.3136 24.061C39.8553 25.5558 41.574 47.837 41.6938 57.8943C41.8188 67.9568 34.2042 71.9152 31.1469 72.5245C29.0219 72.9516 21.9959 71.0922 21.0948 72.5089C28.4594 76.3683 36.3136 73.2954 44.5011 75.2381C45.5063 75.4724 45.4855 76.5714 45.1105 78.0089C45.1365 79.1756 45.0063 80.3266 44.9073 81.5766C44.6678 84.4308 44.5688 87.8266 46.7094 93.2277C51.2928 104.775 64.4594 106.243 61.3344 101.113C61.1313 100.78 60.8553 100.415 60.5011 100.004C60.1261 99.5714 59.798 99.1339 59.4698 98.6912C52.4698 89.4568 55.3969 79.587 56.6626 76.3787C56.9386 75.686 57.1313 75.2954 57.1313 75.2954C57.1313 75.2954 57.3813 75.4047 57.7615 75.6287C59.4073 74.587 61.3344 73.7954 62.9959 74.1912C71.1105 79.2172 67.2824 88.4256 63.574 96.3006C63.9334 96.0558 64.3136 95.7849 64.7511 95.4516C76.7667 86.4099 72.7771 72.7745 72.7771 72.7745C77.1001 78.9516 78.2511 84.5349 73.1313 92.8891C71.9282 94.8527 68.1313 100.264 70.5011 100.525C71.4751 100.634 73.4855 99.8787 77.1521 97.6443C86.0323 92.2433 85.5949 82.3839 84.5688 77.0297C84.1365 74.7902 83.6001 73.3318 83.6001 73.3318C83.7042 73.4724 83.8188 73.6079 83.923 73.7485C91.3449 77.8214 100.121 77.2172 106.241 73.0558Z" fill="#FF4343"/>
<path d="M57.7407 53.2485C57.8032 54.2901 57.1105 55.1756 56.199 55.2276C55.2824 55.2797 54.4959 54.4724 54.4386 53.4308C54.3813 52.3891 55.074 51.4985 55.9855 51.4516C56.8969 51.3995 57.6834 52.2068 57.7407 53.2485Z" fill="black"/>
<path d="M75.8657 52.91C75.923 53.9568 75.2303 54.8423 74.3189 54.8943C73.4074 54.9464 72.6209 54.1391 72.5584 53.0975C72.5064 52.0558 73.1939 51.1652 74.1053 51.1183C75.022 51.0662 75.8032 51.8735 75.8657 52.91Z" fill="black"/>
<path d="M36.1991 78.9621C36.173 79.0454 35.8501 79.311 35.2095 79.4621C34.5689 79.6131 34.1626 79.5193 34.1158 79.5141C34.1418 79.4308 34.4647 79.1704 35.1053 79.0193C35.746 78.8683 36.1522 78.9568 36.1991 78.9621ZM36.7251 78.8683C36.4855 77.8423 33.3501 78.5818 33.5897 79.6079C33.7095 80.1183 34.5793 80.1548 35.3345 79.9829C36.0845 79.8006 36.8449 79.3787 36.7251 78.8683Z" fill="#FF4343"/>
<path d="M29.9804 77.0766C30.5481 77.1547 30.8345 77.3787 30.8554 77.436C30.8449 77.4516 30.7824 77.5037 30.621 77.5454C30.4231 77.587 30.1731 77.5974 29.9126 77.561C29.3449 77.4776 29.0533 77.2537 29.0324 77.1964C29.0429 77.1808 29.1054 77.1287 29.2668 77.0922C29.4647 77.0454 29.7147 77.0401 29.9804 77.0766ZM31.3501 77.5193C31.3606 77.4256 31.3554 77.2797 31.2356 77.1287C31.0429 76.8683 30.5845 76.6547 30.0481 76.5818C29.7251 76.5349 29.4074 76.5401 29.1522 76.5974C28.6626 76.712 28.5585 76.9724 28.5429 77.1131C28.5272 77.2068 28.5324 77.3526 28.6522 77.5037C28.8501 77.7641 29.3033 77.9829 29.8397 78.0558C30.1626 78.0974 30.4804 78.0922 30.7356 78.0297C31.2199 77.9151 31.3241 77.6599 31.3501 77.5193Z" fill="#FF4343"/>
<path d="M40.298 76.0714C40.2928 76.1495 40.048 76.4204 39.5011 76.5974C39.4282 76.6235 39.3553 76.6443 39.2876 76.6599C38.8293 76.7641 38.5845 76.6912 38.5584 76.6651C38.5636 76.587 38.8032 76.3162 39.3501 76.1391C39.423 76.1131 39.4907 76.0922 39.5636 76.0766C40.022 75.9724 40.2668 76.0506 40.298 76.0714ZM39.6574 77.0714C39.9855 76.9672 40.2772 76.8058 40.4855 76.6287C40.8345 76.3214 40.8136 76.0558 40.772 75.9204C40.6366 75.5141 39.9855 75.3891 39.1938 75.6599C38.6782 75.8318 38.2668 76.1183 38.1209 76.4151C38.0324 76.587 38.0532 76.7276 38.0793 76.8162C38.1991 77.1808 38.7199 77.311 39.4022 77.1495C39.4907 77.1287 39.5741 77.0974 39.6574 77.0714Z" fill="#FF4343"/>
<path d="M36.1365 76.3631C36.1261 76.4777 35.7771 76.8683 34.9959 77.1235C34.8917 77.1652 34.7928 77.1912 34.6886 77.212C34.0376 77.3683 33.6782 77.2537 33.6417 77.2224C33.6521 77.1131 33.9959 76.7277 34.7771 76.462C34.8813 76.4308 34.9855 76.3995 35.0844 76.3787C35.7407 76.2224 36.0948 76.337 36.1365 76.3631ZM35.2251 77.8058C35.6938 77.6547 36.1157 77.4256 36.4073 77.1704C36.9126 76.7277 36.8813 76.3422 36.824 76.1547C36.6261 75.5662 35.6834 75.3995 34.5532 75.7797C33.8136 76.0245 33.2251 76.436 33.0115 76.8579C32.8865 77.1079 32.9126 77.311 32.9542 77.436C33.1313 77.962 33.8761 78.1443 34.8553 77.9152C34.9751 77.8891 35.1001 77.8474 35.2251 77.8058Z" fill="#FF4343"/>
<path d="M64.9491 78.1131C65.371 78.8058 65.3918 79.3214 65.3397 79.4204C65.2147 79.4204 64.772 79.1548 64.3606 78.4725C63.9283 77.7642 63.9127 77.2485 63.9543 77.1652C64.0689 77.1496 64.5272 77.4048 64.9491 78.1131ZM65.7095 80.0402C65.8241 79.9725 65.9804 79.8319 66.0429 79.561C66.1522 79.1027 65.9699 78.4048 65.5689 77.7381C65.121 77.0037 64.4022 76.3214 63.7929 76.4673C63.7199 76.4829 63.6574 76.5141 63.6002 76.5454C63.4856 76.6183 63.3345 76.7537 63.2668 77.0246C63.1574 77.4777 63.3397 78.1808 63.746 78.8475C64.1887 79.5819 64.9074 80.2642 65.5168 80.1183C65.5845 80.1027 65.6522 80.0766 65.7095 80.0402Z" fill="#FF4343"/>
<path d="M65.1991 83.9204C65.1418 84.6027 64.9074 84.9725 64.8032 85.0298C64.7147 84.9568 64.5428 84.5506 64.5949 83.8683C64.6522 83.1548 64.9126 82.7798 64.9751 82.7433C65.0637 82.7902 65.2564 83.2068 65.1991 83.9204ZM65.8189 83.9725C65.8762 83.2954 65.7512 82.6808 65.4803 82.3683C65.3293 82.186 65.1574 82.1339 65.0428 82.1235C64.4439 82.0766 64.0376 82.9881 63.9751 83.8214C63.9387 84.2485 63.9803 84.6652 64.0845 84.9829C64.2668 85.5402 64.5793 85.6443 64.7512 85.66C64.8137 85.6652 64.8762 85.66 64.9387 85.6443C65.4647 85.5193 65.7616 84.712 65.8189 83.9725Z" fill="#FF4343"/>
<path d="M96.574 77.8579C97.2771 77.7329 97.7094 77.8891 97.7563 77.9464C97.7355 78.035 97.3709 78.3318 96.6834 78.4568C95.9751 78.5766 95.548 78.4204 95.5011 78.3683C95.5167 78.285 95.8032 78.035 96.3969 77.8943C96.4542 77.8787 96.5115 77.8683 96.574 77.8579ZM98.3709 77.8527C98.3501 77.7381 98.2823 77.5714 98.0896 77.4308C97.7511 77.1964 97.1313 77.1235 96.4646 77.2433C95.4698 77.4204 94.7928 77.9308 94.8813 78.462C94.9959 79.0922 95.949 79.2225 96.7876 79.0714C96.8605 79.061 96.9334 79.0402 97.0063 79.0245C97.9073 78.811 98.4594 78.3422 98.3709 77.8527Z" fill="#FF4343"/>
<path d="M65.7667 89.7225C65.5324 90.3058 65.2042 90.6287 65.0584 90.6652C64.9907 90.5662 64.949 90.1287 65.2042 89.4985C65.4438 88.91 65.7719 88.587 65.9074 88.5402C65.9751 88.6079 66.0376 89.0662 65.7667 89.7225ZM66.3449 89.9568C66.6001 89.3318 66.6574 88.7068 66.5011 88.3318C66.4074 88.1131 66.2615 88.0089 66.1521 87.9673C65.673 87.7693 65.0011 88.3371 64.6261 89.2589C64.298 90.0766 64.2615 91.0245 64.824 91.2485C64.9386 91.3006 65.0688 91.3058 65.199 91.2798C65.7042 91.16 66.1209 90.5193 66.3449 89.9568Z" fill="#FF4343"/>
<path d="M62.548 93.6912C62.6521 93.7277 62.7042 93.8162 62.7303 93.8787C62.7823 94.0089 62.7823 94.1652 62.7198 94.311C62.6209 94.561 62.3605 94.712 62.1625 94.6287C62.0636 94.5922 62.0115 94.5037 61.9803 94.4412C61.9282 94.3162 61.9334 94.16 61.9907 94.0089C62.0584 93.8422 62.199 93.712 62.35 93.6756C62.4178 93.66 62.4855 93.6652 62.548 93.6912ZM63.1313 94.4725C63.2355 94.2225 63.2355 93.9464 63.1365 93.7068C63.0532 93.5089 62.9021 93.3579 62.7146 93.2797C62.2928 93.1079 61.7667 93.3735 61.5844 93.8422C61.4803 94.0975 61.475 94.3787 61.574 94.6131C61.6573 94.811 61.8084 94.9672 61.9959 95.0402C62.1469 95.0975 62.3032 95.1131 62.4646 95.0766C62.7563 95.0037 63.0063 94.7797 63.1313 94.4725Z" fill="#FF4343"/>
<path d="M61.85 76.5818C62.0115 76.9516 62.0011 77.2589 61.9438 77.3995C61.9282 77.4308 61.9073 77.4829 61.8709 77.4933L61.9177 77.7641L61.8552 77.4985C61.7459 77.5245 61.4282 77.3266 61.225 76.8526C61.0688 76.4776 61.074 76.1808 61.1365 76.0349C61.1469 76.0037 61.1677 75.9568 61.2198 75.936C61.3292 75.9099 61.6521 76.1079 61.85 76.5818ZM62.0844 78.0037C62.2511 77.9308 62.3761 77.7901 62.449 77.6026C62.5844 77.2797 62.548 76.811 62.3552 76.3683C62.074 75.7016 61.5427 75.2954 61.0896 75.3995L60.9907 75.436C60.824 75.5037 60.7042 75.6443 60.6261 75.8318C60.4959 76.1599 60.5323 76.6235 60.7198 77.0662C61.0063 77.7329 61.5375 78.1391 61.9855 78.0349" fill="#FF4343"/>
<path d="M91.2512 77.3631C91.6418 77.4516 91.8814 77.6391 91.9647 77.7693C91.9856 77.8006 92.0064 77.8475 91.996 77.8891C91.9699 77.9881 91.5376 78.1235 91.1001 78.0245C90.7043 77.936 90.4699 77.7485 90.3866 77.6183C90.371 77.5923 90.3449 77.5454 90.3501 77.5037C90.3658 77.4568 90.4491 77.3891 90.6158 77.3475C90.7981 77.3006 91.022 77.3058 91.2512 77.3631ZM92.5272 78.0089C92.5689 77.8318 92.5324 77.6495 92.4283 77.4725C92.2408 77.1808 91.8397 76.936 91.371 76.8266C90.6418 76.6548 89.9283 76.9048 89.8189 77.3787C89.7772 77.5558 89.8137 77.7381 89.9231 77.91C90.1106 78.212 90.5064 78.4516 90.9751 78.561C91.2824 78.6287 91.6001 78.6391 91.8606 78.5766C92.2251 78.4881 92.4647 78.2798 92.5272 78.0089Z" fill="#FF4343"/>
<path d="M67.3605 84.8266C67.3969 84.8475 67.423 84.8943 67.4334 84.9256C67.4907 85.0818 67.4803 85.3943 67.324 85.7381C67.1105 86.2016 66.7771 86.4204 66.6626 86.3631C66.6261 86.3527 66.6001 86.3006 66.5896 86.2693C66.5376 86.1235 66.5324 85.8214 66.7042 85.4568C66.8709 85.0766 67.1209 84.8631 67.2824 84.8266C67.3136 84.8162 67.3396 84.8162 67.3605 84.8266ZM67.8188 85.9673C68.0219 85.5298 68.0688 85.0714 67.9438 84.7329C67.8709 84.5454 67.7511 84.4048 67.5896 84.3318C67.1417 84.1235 66.5219 84.5298 66.2042 85.2277C66.0011 85.6652 65.9594 86.1287 66.0792 86.4621C66.1469 86.6496 66.2719 86.7902 66.4334 86.8631C66.5636 86.9256 66.7146 86.936 66.8709 86.8996C67.2355 86.811 67.6001 86.4568 67.8188 85.9673Z" fill="#FF4343"/>
<path d="M104.907 75.5194C104.939 75.535 104.965 75.5871 104.975 75.6131C105.032 75.7694 105.022 76.0819 104.866 76.4308C104.657 76.8892 104.319 77.1131 104.204 77.0558C104.168 77.0402 104.147 76.9881 104.137 76.9621C104.079 76.8162 104.079 76.5142 104.246 76.1444C104.418 75.7642 104.663 75.5506 104.824 75.5142C104.861 75.5037 104.881 75.5089 104.907 75.5194ZM105.361 76.6548C105.564 76.2173 105.611 75.7589 105.486 75.4256C105.418 75.2329 105.293 75.0923 105.131 75.0194C104.689 74.8162 104.064 75.2225 103.746 75.9152C103.543 76.3579 103.496 76.8162 103.621 77.1496C103.694 77.3423 103.814 77.4777 103.98 77.5506C104.105 77.6131 104.256 77.6235 104.413 77.5923C104.777 77.5037 105.142 77.1444 105.361 76.6548Z" fill="#FF4343"/>
<path d="M101.913 77.3683C101.933 77.4048 101.918 77.4568 101.907 77.4881C101.85 77.6495 101.637 77.8787 101.293 78.035C101.189 78.087 101.079 78.1235 100.97 78.1495C100.631 78.2329 100.423 78.1548 100.387 78.0818C100.371 78.0454 100.381 77.9985 100.392 77.9673C100.449 77.8058 100.663 77.5766 101.006 77.4204C101.116 77.3683 101.22 77.3266 101.329 77.3006C101.657 77.2277 101.876 77.2902 101.913 77.3683ZM101.527 78.535C101.965 78.3318 102.298 78.0141 102.418 77.6756C102.485 77.4829 102.485 77.3006 102.413 77.1391C102.204 76.6912 101.465 76.5975 100.772 76.9204C100.334 77.1287 100.001 77.4464 99.8813 77.7798C99.8136 77.9673 99.8136 78.1548 99.8865 78.3162C100.058 78.6704 100.527 78.8162 101.095 78.686C101.241 78.6496 101.387 78.5975 101.527 78.535Z" fill="#FF4343"/>
<path d="M25.9907 75.1548C26.7824 75.3735 27.1574 75.7485 27.173 75.837C27.173 75.837 27.1313 75.8787 26.9855 75.9152C26.6886 75.9829 26.2511 75.9516 25.8084 75.8266C25.0116 75.6079 24.647 75.2329 24.6209 75.1495C24.6209 75.1495 24.6626 75.1027 24.8136 75.0714C25.1105 74.9985 25.548 75.0298 25.9907 75.1548ZM27.8605 76.0402C27.897 75.91 27.9074 75.7068 27.772 75.4673C27.5428 75.0558 26.9334 74.6704 26.1886 74.462C25.6209 74.3006 25.0636 74.2693 24.647 74.3683C24.1313 74.4881 23.9803 74.7798 23.9334 74.9464C23.8813 75.1339 23.8709 75.5193 24.397 75.936C24.7043 76.1808 25.1366 76.3891 25.6105 76.5245C26.1782 76.6808 26.7355 76.712 27.147 76.6183C27.6626 76.4933 27.8136 76.2016 27.8605 76.0402Z" fill="#FF4343"/>
<path d="M42.8657 76.8162C42.8605 76.8996 42.6157 77.1704 42.0688 77.3475C42.0011 77.3683 41.9282 77.3944 41.8553 77.41C41.4022 77.5141 41.1522 77.436 41.1261 77.4152C41.1313 77.3423 41.3761 77.0662 41.9178 76.8891C41.9907 76.8631 42.0636 76.8423 42.1313 76.8266C42.5897 76.7173 42.8344 76.7954 42.8657 76.8162ZM42.2303 77.8214C42.5584 77.7173 42.8501 77.561 43.0532 77.3787C43.4022 77.0662 43.3865 76.8006 43.3397 76.6704C43.2042 76.2589 42.5532 76.1444 41.7615 76.41C41.2459 76.5819 40.8344 76.8683 40.6886 77.1652C40.6001 77.3371 40.6157 77.4725 40.6469 77.5662C40.7667 77.9308 41.2876 78.0558 41.9699 77.8944C42.0584 77.8735 42.1417 77.8527 42.2303 77.8214Z" fill="#FF4343"/>
<path d="M69.0063 53.66C69.0063 55.7225 67.3345 57.3943 65.272 57.3943C63.2095 57.3943 61.5376 55.7225 61.5376 53.66" stroke="black" stroke-width="0.692" stroke-miterlimit="10" stroke-linecap="round" stroke-linejoin="round"/>
<path d="M58.7251 58.9725C58.7251 59.8475 57.0585 60.5558 55.0064 60.5558C52.9543 60.5558 51.2928 59.8475 51.2928 58.9725C51.2928 58.0975 52.9543 57.3891 55.0064 57.3891C57.0585 57.3891 58.7251 58.0975 58.7251 58.9725Z" fill="#F9A0A0"/>
<path d="M78.4283 58.9725C78.4283 59.8475 76.7616 60.5558 74.7095 60.5558C72.6574 60.5558 70.996 59.8475 70.996 58.9725C70.996 58.0975 72.6574 57.3891 74.7095 57.3891C76.7616 57.3891 78.4283 58.0975 78.4283 58.9725Z" fill="#F9A0A0"/>
</svg>
