<svg width="128" height="128" viewBox="0 0 128 128" fill="none" xmlns="http://www.w3.org/2000/svg">
<path d="M102.038 40.9196C101.986 40.9196 101.929 40.9301 101.877 40.9405C101.236 41.0603 100.882 41.3988 100.83 41.9405C100.705 43.1801 102.033 44.9926 103.507 45.5863C103.59 45.6228 103.673 45.654 103.757 45.6853C104.059 44.5707 103.809 42.9509 103.246 41.9196C103.038 41.529 102.616 40.9196 102.038 40.9196ZM99.4286 48.6124C98.1473 48.6124 96.8505 48.2946 95.8609 47.6384C95.7151 47.5394 95.6786 47.3467 95.7723 47.2009C95.8661 47.0551 96.064 47.0134 96.2098 47.1124C98.2619 48.4769 101.908 48.1853 103.314 46.5446C103.387 46.4665 103.455 46.3728 103.517 46.2738C103.434 46.2374 103.35 46.2061 103.267 46.1696C101.543 45.4717 100.048 43.3884 100.199 41.878C100.283 41.0499 100.835 40.4926 101.762 40.3155C102.538 40.1696 103.267 40.628 103.798 41.6124C104.455 42.8103 104.715 44.5863 104.356 45.8728C105.46 46.1436 106.434 45.9457 107.205 45.2946C108.746 43.9874 109.314 41.0186 108.58 38.0811C108.543 37.9144 108.642 37.7426 108.814 37.7009C108.981 37.6592 109.153 37.7582 109.194 37.9301C109.981 41.0915 109.33 44.3155 107.611 45.7738C106.923 46.3624 105.783 46.904 104.127 46.4717C104.033 46.6592 103.913 46.8259 103.778 46.9665C102.866 48.0394 101.158 48.6124 99.4286 48.6124Z" fill="#FF9D8F"/>
<path d="M37.7202 93.3936C37.7202 93.3936 36.6838 96.3936 37.2463 97.8936C37.2463 97.8936 40.0119 99.6332 42.3452 97.5759C42.3452 97.5759 43.4806 96.1592 43.1733 93.0811" fill="#FFECD6"/>
<path d="M49.9442 94.4561C49.9442 94.4561 48.7359 97.4561 49.3922 98.9561C49.3922 98.9561 52.6057 100.69 55.3192 98.6384C55.3192 98.6384 56.6369 97.2217 56.2776 94.1436" fill="#FFECD6"/>
<path d="M37.7203 75.1852C37.7203 75.1852 36.6578 91.7113 37.7203 93.3936C37.7203 93.3936 40.9963 95.0759 42.8921 93.3936C44.788 91.7113 46.788 80.9717 47.4182 78.4457C48.0484 75.9196 37.7203 75.1852 37.7203 75.1852Z" fill="#FC8B8B"/>
<path d="M78.2985 93.3936C78.2985 93.3936 77.2568 96.3936 77.8245 97.8936C77.8245 97.8936 80.5901 99.6332 82.9235 97.5759C82.9235 97.5759 84.0589 96.1592 83.7516 93.0811" fill="#FFECD6"/>
<path d="M91.8766 93.3936C91.8766 93.3936 90.8349 96.3936 91.4026 97.8936C91.4026 97.8936 94.163 99.628 96.5016 97.5759C96.5016 97.5759 97.637 96.1592 97.3245 93.0811" fill="#FFECD6"/>
<path d="M78.2984 75.1852C78.2984 75.1852 77.2307 91.7113 78.2984 93.3936C78.2984 93.3936 81.5744 95.0759 83.4651 93.3936C85.3609 91.7061 87.3609 80.9717 87.9911 78.4457C88.6265 75.9196 78.2984 75.1852 78.2984 75.1852Z" fill="#FC8B8B"/>
<path d="M28.7359 64.3415C28.7359 64.3415 33.1525 76.029 47.0484 79.3415C47.0484 79.3415 49.34 80.8415 49.4963 83.9196C49.6525 87.0029 49.4181 93.0759 49.9702 94.2581C50.5223 95.4457 54.6577 96.5082 56.1265 94.9717C56.9181 94.1436 58.6525 85.5759 59.3661 82.9717C60.0744 80.3675 60.2306 80.68 62.8348 81.1592C65.4442 81.6331 76.0171 82.2217 82.7306 79.8727C85.7306 78.7894 87.3869 85.1019 89.2046 88.1019C91.0171 91.1019 91.5744 94.0602 93.1525 94.1436C94.7306 94.2217 96.6994 94.7373 97.3296 93.0811C97.9598 91.4248 97.4911 83.8415 98.9129 78.8675C100.335 73.8936 103.017 59.8415 101.673 51.3936C100.335 42.9509 91.6525 37.5811 81.939 36.0029C72.2306 34.4196 56.9963 32.1123 42.0327 43.1488C28.2723 53.3102 28.7359 64.3415 28.7359 64.3415Z" fill="#FC8B8B"/>
<path d="M22.0223 34.6696C23.4859 38.9613 27.5015 41.4405 28.0171 41.8884C28.0171 41.8884 29.7411 42.6748 29.8296 40.5811C29.9963 35.2842 28.9494 31.8884 27.6994 29.7426C25.3609 30.6905 23.3609 32.3051 22.0223 34.6696Z" fill="#FC8B8B"/>
<path d="M28.4807 40.8103C28.1109 40.4978 24.5588 38.5863 24.3088 33.5967C24.1161 30.128 25.0432 30.8832 25.038 30.8103C25.038 30.7373 28.0797 31.3363 29.1734 39.6957C29.3505 41.1175 28.4807 40.8103 28.4807 40.8103Z" fill="#FFECD6"/>
<path d="M60.6057 34.6696C59.1421 38.9613 55.1265 41.4405 54.6109 41.8884C54.6109 41.8884 52.8869 42.6748 52.7984 40.5811C52.6317 35.2842 53.6786 31.8884 54.9286 29.7426C57.2671 30.6905 59.2671 32.3051 60.6057 34.6696Z" fill="#FC8B8B"/>
<path d="M54.1473 40.805C54.5223 40.4978 58.0692 38.5863 58.3192 33.5967C58.5067 30.128 57.5848 30.8832 57.59 30.8103C57.59 30.7373 54.5483 31.3363 53.4494 39.6957C53.2775 41.1175 54.1473 40.805 54.1473 40.805Z" fill="#FFECD6"/>
<path d="M60.5068 38.6228C60.512 38.4978 62.3453 40.0446 62.5328 34.1123C62.6057 32.0342 62.2359 30.2165 61.6213 28.6384C58.814 27.253 57.2828 28.3623 55.0588 29.6905C55.064 34.8311 60.5068 38.6957 60.5068 38.6228Z" fill="#F9A0A0"/>
<path d="M40.413 71.1071C40.413 71.1071 23.913 70.7582 19.913 60.2373C15.913 49.7113 25.4026 32.0551 41.6109 33.003C57.8192 33.9509 62.5432 44.9717 62.5432 56.4457C62.5432 63.7113 53.1526 70.9978 40.413 71.1071Z" fill="#F9A0A0"/>
<path d="M53.3348 52.6019C53.3348 53.7582 52.6525 54.7009 51.8088 54.7009C50.965 54.7009 50.2827 53.7582 50.2827 52.6019C50.2827 51.4353 50.965 50.4926 51.8088 50.4926C52.6525 50.4926 53.3348 51.4353 53.3348 52.6019Z" fill="black"/>
<path d="M32.439 53.2113C32.439 54.3727 31.7568 55.3155 30.913 55.3155C30.0693 55.3155 29.387 54.3727 29.387 53.2113C29.387 52.0498 30.0693 51.1071 30.913 51.1071C31.7568 51.1071 32.439 52.0498 32.439 53.2113Z" fill="black"/>
<path d="M38.2515 67.18C39.4754 67.404 40.8348 67.529 42.3244 67.529C46.7983 67.529 51.564 65.3571 51.8921 61.154C48.5015 64.779 43.4963 66.7894 38.2515 67.18Z" fill="#FFECD6"/>
<path d="M51.8036 59.5238C50.8714 54.2529 47.6682 53.2738 40.2828 53.3519C40.2828 53.3519 32.0849 53.3206 31.387 59.0394C30.8297 63.5967 33.4443 66.2738 38.2516 67.1748C39.4755 67.404 40.8349 67.5238 42.3245 67.529C46.7984 67.529 51.5641 65.3571 51.8922 61.154C51.9286 60.6384 51.9078 60.0967 51.8036 59.5238Z" fill="#FFECD6"/>
<path d="M39.9546 58.4977C39.5535 57.2269 39.3192 56.7738 38.6056 56.8675C38.6056 56.8675 38.0535 56.9925 37.7254 57.4925C37.5067 57.8259 37.3869 58.3259 37.6004 59.0655C38.1212 60.9352 39.1785 61.2165 39.6629 61.0915C39.6733 61.0915 39.6785 61.0863 39.6837 61.0811C40.1577 60.93 40.3452 59.7477 39.9546 58.4977Z" fill="#FC8B8B"/>
<path d="M44.7932 56.4978C44.6578 56.4873 44.5432 56.4978 44.4391 56.5238C44.0276 56.6436 43.8401 57.1176 43.5693 58.0967C43.2359 59.3207 43.4755 60.4613 43.9391 60.5603C44.038 60.5811 44.1578 60.5811 44.288 60.5551C44.7932 60.4665 45.4963 59.9821 45.8349 58.5551C46.2672 56.7582 44.7932 56.4978 44.7932 56.4978Z" fill="#FC8B8B"/>
<path d="M22.2828 38.6228C22.2828 38.4978 20.4495 40.0446 20.262 34.1123C20.1838 32.0342 20.5588 30.2165 21.1734 28.6384C23.9807 27.253 25.512 28.3623 27.7359 29.6905C27.7307 34.8311 22.288 38.6957 22.2828 38.6228Z" fill="#F9A0A0"/>
</svg>
