<svg width="128" height="128" viewBox="0 0 128 128" fill="none" xmlns="http://www.w3.org/2000/svg">
<path d="M38.4432 45.4947C38.438 45.4947 38.4328 45.4947 38.4328 45.4947C38.6359 45.4478 38.8651 45.3853 39.1151 45.2968C39.1151 45.3072 39.1151 45.3176 39.1203 45.328C38.9172 45.4009 38.6932 45.4582 38.4432 45.4947ZM34.9224 45.4009C35.0057 45.3593 35.0994 45.3332 35.2088 45.328C35.2974 45.3228 35.3859 45.3228 35.464 45.328C35.2505 45.3488 35.0786 45.3384 34.9224 45.4009ZM34.188 46.3593C34.3599 45.9478 34.5578 45.5832 34.8807 45.4218C34.6776 45.5207 34.4797 45.7603 34.188 46.3593ZM36.9015 45.5676C36.3547 45.5311 36.0422 45.4113 35.7869 45.354C36.1619 45.4113 36.5005 45.5103 36.9015 45.5676Z" fill="#0E5E4F"/>
<path d="M81.2506 82.6561C74.2662 79.0103 67.9902 75.9269 68.0058 75.8176L68.3131 79.8749C66.3444 78.8749 65.1152 78.2394 65.1204 78.1874L65.4381 82.3853C64.3079 81.8019 63.6464 81.453 63.6516 81.4165L64.4537 92.0728C74.0631 96.0624 84.6308 99.5988 90.7298 100.448C91.5527 100.562 92.2975 100.63 92.9433 100.64C95.3964 101.021 97.2037 101.015 98.0319 100.469C98.6725 100.052 97.4746 98.9061 95.235 97.3853C95.9121 97.3384 96.4537 97.2134 96.8079 96.9842C97.2975 96.6613 96.6985 95.9061 95.386 94.8905C97.4433 95.1561 98.9537 95.0936 99.6933 94.6092C101.36 93.5155 90.6621 87.5728 81.2506 82.6561Z" fill="#7BBFAD"/>
<path d="M69.8131 71.203C67.3287 60.6665 64.4172 50.8697 64.4172 50.8697C64.4172 50.8697 64.5891 48.2759 64.4172 36.6978C64.3027 29.2186 59.5683 24.8384 53.9485 23.0103C60.4381 31.1249 59.8547 43.2134 60.2714 53.6301C60.5006 60.9322 64.3443 66.6301 69.8131 71.203Z" fill="#7BBFAD"/>
<path d="M73.1568 89.5936C72.7453 84.6405 71.3703 77.7811 69.813 71.203C64.3443 66.6301 60.5005 60.9322 60.2714 53.6301C59.8547 43.2134 60.438 31.1249 53.9484 23.0103C50.8755 22.0155 47.5422 21.7707 44.5474 22.2082C36.0786 23.4374 34.8703 31.1718 35.7349 37.2186C36.5995 43.2655 39.8807 52.7707 39.8807 52.7707C39.2401 54.9009 38.7245 56.9218 38.2818 58.8645C56.5422 59.6301 67.0005 73.302 73.1568 89.5936Z" fill="#8DCEBF"/>
<path d="M38.6673 57.3124C38.0892 59.8697 37.6517 62.2811 37.386 64.5311C32.9902 101.26 68.2506 98.0155 72.5787 94.9738C72.8704 94.7707 73.0944 94.4165 73.2662 93.9478C73.7089 92.7238 73.7558 90.6353 73.5423 88.0415C67.386 71.7447 56.9277 58.078 38.6673 57.3124Z" fill="#FF4343"/>
<path d="M46.1725 91.5051C46.1725 91.5051 42.6308 91.5936 42.9798 95.5259C43.1516 98.5467 44.2923 98.7134 44.5631 98.6301C44.8339 98.5467 44.8339 96.0363 44.8339 96.0363C44.8339 96.0363 45.0058 98.6613 45.6152 98.6457C46.2193 98.6301 46.1725 95.5259 46.1725 95.5259C46.1725 95.5259 46.0423 98.578 47.037 98.6457C48.0318 98.7134 47.5423 95.3384 47.5423 95.3384C47.5423 95.3384 48.9798 95.3488 49.0214 93.8801C49.0683 92.4113 48.2141 91.1561 46.1725 91.5051Z" fill="#FFD41D"/>
<path d="M54.9901 93.4999C54.9901 93.4999 51.4484 93.5936 51.7974 97.5207C51.9693 100.542 53.1099 100.713 53.3807 100.63C53.6568 100.542 53.6568 98.0363 53.6568 98.0363C53.6568 98.0363 53.8286 100.661 54.4328 100.641C55.037 100.63 54.9901 97.5207 54.9901 97.5207C54.9901 97.5207 54.8599 100.573 55.8547 100.641C56.8495 100.713 56.3599 97.3384 56.3599 97.3384C56.3599 97.3384 57.7974 97.3488 57.8443 95.8749C57.8859 94.4061 57.0318 93.1561 54.9901 93.4999Z" fill="#FFD41D"/>
<path d="M34.5839 34.4634C34.5839 34.4634 29.4641 35.1145 28.3547 38.854C27.537 41.604 28.0422 45.5468 30.8286 45.8697C32.0943 45.6718 31.8651 43.2759 33.0943 43.2134C34.3286 43.1457 34.9068 43.927 37.1099 43.1457C39.313 42.3697 39.1203 39.9061 38.7349 37.5728C38.3443 35.2395 36.1151 34.078 34.5839 34.4634Z" fill="#FFD41D"/>
<path d="M32.0682 44.2551C32.0682 44.2551 33.3547 47.1665 36.5943 46.9686C39.8339 46.7759 38.8182 41.2811 38.8182 41.2811C38.8182 41.2811 38.3912 43.0884 36.3287 43.3801C34.2609 43.6665 33.8547 43.1613 33.3495 43.2082C32.8443 43.2655 32.6099 43.1145 32.0682 44.2551Z" fill="#FFBA1F"/>
<path d="M63.1829 84.5363C64.5422 86.7551 65.9068 88.3644 67.011 88.3644C67.2402 88.3644 67.4485 88.3384 67.6568 88.3019C66.0318 87.1509 64.5422 85.8905 63.1829 84.5363Z" fill="#7BBFAD"/>
<path d="M70.1204 89.9165C69.2662 89.4061 68.4485 88.8644 67.6568 88.3019C67.4485 88.3384 67.2402 88.3644 67.011 88.3644C65.9068 88.3644 64.5423 86.7551 63.1829 84.5363C61.8131 83.1613 60.5839 81.6926 59.4798 80.1405C56.6933 76.2499 54.7193 71.8592 53.4745 67.2186C52.2297 62.5728 51.7089 57.6769 51.8183 52.7863C49.037 55.0832 46.5422 58.5155 46.4068 63.4686C46.3391 66.1821 46.7714 69.3853 47.5318 72.6978C48.6152 77.4113 50.36 82.354 52.3027 86.4686C54.7245 91.604 57.4381 95.4478 59.511 95.9426C61.3548 96.1249 61.3391 93.4321 61.1308 91.6665C60.9693 90.7551 60.8912 90.1769 60.8912 90.1769C60.8912 90.1769 61.0318 90.8124 61.1308 91.6665C61.7506 95.1613 63.5839 103.62 66.8287 103.776C69.1933 103.89 69.1985 99.078 68.787 94.9999C69.5787 99.4478 70.9329 104.958 72.761 105.057C74.6412 105.167 74.287 98.9374 73.7297 94.104C74.3287 96.3957 75.3808 98.4999 77.2297 98.354C78.5058 98.2603 79.0735 96.3019 79.2089 93.5519C76.0579 92.7759 73.0058 91.6509 70.1204 89.9165Z" fill="#7BBFAD"/>
<path d="M78.4172 82.8749C77.9224 79.6405 77.287 76.7811 76.7974 75.3592C76.3443 74.0259 75.9276 70.6353 75.1776 66.677C73.4276 57.5103 69.8339 45.3124 59.5214 48.7238C59.5214 48.7238 55.4276 49.7967 51.8183 52.7863C51.7089 57.677 52.2297 62.5728 53.4745 67.2186C54.7193 71.8592 56.6933 76.2499 59.4797 80.1405C60.5839 81.6926 61.813 83.1613 63.1828 84.5363C64.5422 85.8905 66.0318 87.1509 67.6568 88.302C68.4485 88.8645 69.2662 89.4061 70.1203 89.9165C73.0058 91.6509 76.0526 92.7759 79.2089 93.552C79.3547 90.4947 78.9693 86.4582 78.4172 82.8749Z" fill="#8DCEBF"/>
<path d="M61.1308 91.6665C61.0318 90.8124 60.886 90.1769 60.886 90.1769C60.886 90.1769 60.9693 90.7499 61.1308 91.6665Z" fill="#8DCEBF"/>
<path d="M43.1359 34.6926C43.1359 35.4374 42.6828 36.0467 42.1307 36.0467C41.5787 36.0467 41.1307 35.4374 41.1307 34.6926C41.1307 33.9426 41.5787 33.3384 42.1307 33.3384C42.6828 33.3384 43.1359 33.9426 43.1359 34.6926Z" fill="black"/>
<path d="M49.9381 40.0988C49.9381 40.7551 48.3756 41.2863 46.4433 41.2863C44.5162 41.2863 42.9537 40.7551 42.9537 40.0988C42.9537 39.4478 44.5162 38.9165 46.4433 38.9165C48.3756 38.9165 49.9381 39.4478 49.9381 40.0988Z" fill="#FABDC3"/>
</svg>
