<svg width="128" height="128" viewBox="0 0 128 128" fill="none" xmlns="http://www.w3.org/2000/svg">
<path d="M50.1946 98.3373C50.1946 98.3373 49.4238 95.8165 47.6894 95.6498C46.9707 95.5873 46.0853 95.9206 45.0176 97.0248C45.0176 97.0248 41.3717 96.6967 41.6061 100.259C41.6061 100.259 38.7832 102.629 41.4238 105.176C41.4238 105.176 40.3613 107.551 42.804 108.473C42.9811 108.54 43.1738 108.603 43.3926 108.65C43.3926 108.65 44.4082 111.608 47.1113 110.165C47.1113 110.165 49.1269 111.53 49.8821 109.983C49.8821 109.983 52.1061 111.03 52.4394 107.879C52.778 104.723 50.1946 98.3373 50.1946 98.3373Z" fill="#84898C"/>
<path d="M77.5123 83.8373C77.5123 83.8373 87.3613 84.6863 86.3665 97.78C85.9081 103.816 84.8977 106.785 84.8977 106.785C84.8977 106.785 89.2363 104.66 90.0696 109.202C90.9029 113.754 81.6165 112.905 76.9342 110.593C72.2571 108.29 59.7311 82.2956 77.5123 83.8373Z" fill="#84898C"/>
<path d="M81.8144 72.5821L73.3665 75.6394C73.3665 75.6394 77.5383 84.6446 83.8612 83.5352C88.5279 82.7123 88.7154 83.8529 88.9602 84.7019C89.6425 87.0613 93.3456 87.6863 94.2831 82.6342C94.2883 82.6029 94.2883 82.5717 94.2935 82.5404C91.8925 77.8842 87.1217 74.7696 81.8144 72.5821Z" fill="#84898C"/>
<path d="M83.2415 72.0613L81.8145 72.5821C87.1217 74.7644 91.8926 77.8842 94.2936 82.5404C95.4082 75.8529 83.2415 72.0613 83.2415 72.0613Z" fill="#84898C"/>
<path d="M84.2363 90.1446C84.6425 89.1498 85.0175 88.1394 85.3665 87.1134C85.7623 85.9467 86.1217 84.7592 86.4498 83.5613C87.0748 81.2592 87.5748 78.9102 87.9602 76.5248C87.205 81.2436 85.9863 85.8425 84.2363 90.1446ZM81.1894 96.3061C80.7311 97.0821 80.2467 97.8373 79.7415 98.5821C80.2467 97.8373 80.7311 97.0821 81.1894 96.3061ZM84.1842 90.2748C83.3665 92.254 82.4342 94.1707 81.3717 95.9988C82.4342 94.1707 83.3665 92.254 84.1842 90.2748ZM75.6009 103.671C77.0071 102.223 78.2831 100.671 79.429 99.03C78.2831 100.671 77.0071 102.223 75.6009 103.671ZM73.3821 105.77C73.9602 105.27 74.5175 104.749 75.054 104.218C74.5175 104.749 73.9602 105.27 73.3821 105.77ZM88.3092 74.1134C88.0644 72.5248 87.6894 71.0925 87.205 69.6654C87.1946 69.6446 87.1842 69.6134 87.179 69.5925C82.2363 72.0925 79.6321 76.8165 77.7259 82.1863C77.1425 83.8321 76.6269 85.53 76.1269 87.2488C74.7779 91.9415 73.5644 96.7488 71.5592 100.764C70.0748 103.233 69.7779 105.702 70.3352 108.171C71.1738 107.593 71.9654 106.968 72.7363 106.327C71.9654 106.968 71.1738 107.593 70.3352 108.171C70.4811 108.811 70.6842 109.452 70.9394 110.093C71.429 111.572 72.1477 112.863 73.0331 113.994C75.9081 113.514 77.8561 112.889 77.8561 112.889C77.8561 112.889 84.7779 108.384 87.0331 94.4675C88.6894 84.2279 88.9967 78.5509 88.3092 74.1134Z" fill="#E4E5E7"/>
<path d="M46.4237 34.4467C40.3352 29.228 35.7258 28.28 33.0019 28.3634C32.9862 28.9988 33.0696 29.7228 33.2466 30.5144C33.5435 31.7957 34.0956 33.2696 34.9446 34.9155C38.2206 41.2957 46.5175 45.7384 51.0019 47.754C52.3456 48.3582 53.3508 48.7488 53.7675 48.905C54.0019 45.8478 53.2258 40.2748 46.4237 34.4467Z" fill="#E4E5E7"/>
<path d="M87.4967 40.5092C85.0853 38.3373 76.4551 33.2071 68.7624 36.2384C61.0645 39.2696 57.7207 45.0977 57.7207 45.0977C57.7207 45.0977 52.3561 31.8061 43.2624 26.905C37.6426 23.879 34.0488 24.2436 33.1999 27.0665C33.0801 27.4571 33.0124 27.8842 33.002 28.3634C35.7259 28.28 40.3301 29.2279 46.4238 34.4467C53.2259 40.2748 54.002 45.8477 53.7676 48.905C53.8353 48.9311 53.8874 48.9467 53.9238 48.9623C53.9655 48.9779 53.9863 48.9831 53.9863 48.9831C53.9863 48.9831 54.6113 54.9727 57.7207 58.0821C58.0488 58.405 58.304 58.7123 58.528 59.004C59.278 59.2696 59.9655 59.8738 60.054 61.1654C60.2624 64.1706 62.1113 64.0665 63.8301 62.0977C63.8301 62.0977 64.304 65.1029 66.6895 63.9623C66.6895 63.9623 68.1374 65.8269 70.9395 64.2227C70.9395 64.2227 74.0228 65.5196 77.5072 63.1342C77.5072 63.1342 75.0853 67.4363 66.252 69.6602C64.2363 71.7904 61.4186 74.4571 58.653 76.3477C52.9759 80.2384 48.1582 89.6446 49.403 101.072C50.6478 112.504 59.278 114.29 65.6478 114.525C68.3457 114.624 70.9342 114.343 73.0332 113.994C72.1478 112.863 71.429 111.572 70.9395 110.093C69.6947 106.983 69.6947 103.874 71.5592 100.764C76.7051 90.4727 76.6061 74.9363 87.179 69.5925C86.0801 66.4154 83.7676 62.8998 83.7676 62.8998C83.7676 62.8998 89.1113 56.3998 89.9655 50.2592C90.8197 44.1134 89.9082 42.6863 87.4967 40.5092Z" fill="#989DA0"/>
<path d="M77.5071 63.1342C74.0227 65.5196 70.9394 64.2227 70.9394 64.2227C68.1373 65.8269 66.6842 63.9623 66.6842 63.9623C64.304 65.1029 63.83 62.1029 63.83 62.1029C62.1113 64.0665 60.2623 64.1706 60.054 61.1654C59.9655 59.8738 59.278 59.2696 58.528 59.004C60.4394 61.5144 58.9134 62.9206 59.1217 64.379C59.3509 66.0092 61.8405 66.6342 63.0071 65.0821C63.0071 65.0821 64.4082 66.9467 66.1165 65.9727C66.1165 65.9727 67.5957 67.1967 68.9134 66.254C69.5957 65.7748 68.3665 67.4206 66.2519 69.6602C75.0852 67.4415 77.5071 63.1342 77.5071 63.1342Z" fill="#84898C"/>
<path d="M58.1113 20.6863C54.1843 12.2644 48.9291 12.8425 47.0957 16.7123C46.4186 18.129 46.1999 19.9884 46.6843 22.0092C48.4707 29.5509 57.7207 45.0977 57.7207 45.0977C58.7311 43.155 61.1791 40.9988 61.1791 40.9988C61.1791 40.9988 61.8041 39.905 61.9863 37.4675C62.2207 34.3113 61.7103 28.8946 58.1113 20.6863Z" fill="#84898C"/>
<path d="M86.903 110.301C85.3457 105.947 81.4082 108.749 81.4082 108.749C81.4082 108.749 81.929 105.655 81.4082 99.6238C80.804 92.6342 78.0592 90.2436 75.6322 89.5352C73.5176 88.9154 71.6426 89.5665 71.6426 89.5665C59.5124 92.8842 63.0592 114.546 71.752 114.546C72.6999 114.546 73.8561 114.546 75.0957 114.53C80.7103 114.436 88.1738 113.863 86.903 110.301Z" fill="#989DA0"/>
<path d="M80.653 83.7696C87.0488 83.879 90.5957 83.5352 92.028 86.5665C92.1738 86.1654 92.2988 85.7279 92.3926 85.2175C93.6374 78.4727 81.3561 74.6394 81.3561 74.6394L71.6426 78.1602C72.8665 80.2488 75.6374 83.6863 80.653 83.7696Z" fill="#989DA0"/>
<path d="M80.653 83.7696C75.6373 83.6863 72.8665 80.2488 71.6425 78.1602L71.4811 78.2175C71.4811 78.2175 75.653 87.2279 81.9759 86.1133C86.6425 85.2956 86.83 86.4363 87.0748 87.28C87.6894 89.3998 90.7363 90.1081 92.028 86.5665C90.5957 83.5352 87.0488 83.879 80.653 83.7696Z" fill="#989DA0"/>
<path d="M87.0123 51.7019C86.7259 51.7019 86.4915 51.6134 86.3144 51.4415C85.8353 50.9727 86.0436 50.0977 86.0696 49.9988C86.1113 49.8321 86.2832 49.7331 86.4446 49.7748C86.6113 49.8165 86.7155 49.9884 86.6738 50.1498C86.6217 50.3529 86.5748 50.8269 86.7467 50.9988C86.8925 51.129 87.1998 51.0665 87.3717 51.0196C88.5748 50.6811 89.2363 50.1342 89.403 49.9831C89.7571 48.879 89.3717 46.5717 89.3665 46.5509C89.3405 46.3842 89.455 46.2227 89.6217 46.1915C89.7936 46.1654 89.955 46.2748 89.9811 46.4467C89.9967 46.5509 90.4186 49.03 89.9655 50.2592C89.955 50.3009 89.929 50.3373 89.8978 50.3634C89.8665 50.3998 89.1217 51.1706 87.5436 51.6186C87.3509 51.6706 87.1738 51.7019 87.0123 51.7019Z" fill="black"/>
<path d="M88.9394 42.8894C88.9394 42.8894 87.1373 43.3842 86.4238 44.2019C86.2467 44.405 86.1373 44.629 86.1373 44.8634C86.1373 46.0717 88.5592 47.3998 89.7155 47.0404C90.1321 46.9102 90.3821 46.4727 90.5227 46.0144C90.7207 45.3686 90.7207 44.6706 90.7207 44.6706C90.7207 44.6706 90.528 42.3009 88.9394 42.8894Z" fill="black"/>
<path d="M78.7207 46.3998C79.054 47.3738 78.7779 48.3477 78.1061 48.5769C77.4342 48.8061 76.6217 48.2019 76.2936 47.2227C75.9602 46.2488 76.2363 45.2748 76.9082 45.0457C77.58 44.8217 78.3925 45.4259 78.7207 46.3998Z" fill="black"/>
<path d="M81.3144 51.9988C81.455 52.9415 79.8613 53.9623 77.7623 54.2748C75.6581 54.5821 73.8404 54.0717 73.6998 53.129C73.5592 52.1811 75.1529 51.1602 77.2519 50.8529C79.356 50.5404 81.1738 51.0509 81.3144 51.9988Z" fill="#FABDC3"/>
</svg>
