<svg width="128" height="128" viewBox="0 0 128 128" fill="none" xmlns="http://www.w3.org/2000/svg">
<path d="M71.5076 59.799C73.5857 60.4969 75.7992 60.8979 77.9919 60.9344C78.044 60.424 78.0961 59.9031 78.1586 59.3823C78.2315 58.7417 78.3565 58.1115 78.5076 57.5021C77.0544 56.8719 75.6586 56.0438 74.294 55.1584C73.0284 56.5542 72.1274 58.1688 71.5076 59.799Z" fill="#7BBFAD"/>
<path d="M76.4294 53.3094C75.6169 53.8511 74.9137 54.4813 74.2939 55.1636C75.6585 56.0438 77.0544 56.8719 78.5075 57.5021C79.6846 52.7105 82.5179 49.273 76.4294 53.3094Z" fill="#8DCEBF"/>
<path d="M77.9919 60.9344C75.7992 60.898 73.5856 60.4969 71.5075 59.7938C70.9033 61.3615 70.5492 62.924 70.3408 64.2782C72.9554 63.825 75.5023 63.1115 77.8929 62.1011C77.9189 61.7157 77.9554 61.3303 77.9919 60.9344Z" fill="#8DCEBF"/>
<path d="M70.3409 64.2781C69.9763 66.6271 70.0544 68.3511 70.0544 68.3511L77.57 70.1479C77.57 70.1479 77.5179 66.5854 77.8929 62.0959C75.5023 63.1115 72.9554 63.825 70.3409 64.2781Z" fill="#7BBFAD"/>
<path d="M55.0961 60.95C49.9503 60.2729 44.8617 59.1479 40.5701 56.4552C40.768 57.7052 40.919 58.8459 41.0284 59.8875C42.0909 70.1375 39.0544 70.8459 39.0544 70.8459L52.7472 75.9136C54.2315 71.2104 54.8826 67.2573 55.0597 63.9292C55.1222 62.8719 55.1274 61.8823 55.0961 60.95Z" fill="#7BBFAD"/>
<path d="M39.1377 47.1427C39.3044 49.1479 39.6064 51.2938 40.0596 53.6115C40.2575 54.6219 40.4242 55.5646 40.5648 56.4552C44.8617 59.1531 49.9502 60.2729 55.096 60.95C55.0127 57.9396 54.5544 55.5438 54.1064 53.6115C48.6377 52.5594 43.3044 50.6427 39.1377 47.1427Z" fill="#8DCEBF"/>
<path d="M52.9711 47.4917C47.8513 44.4657 43.1899 40.3875 40.2263 35.5386C39.1378 38.6375 38.7524 42.4761 39.1378 47.1427C43.3045 50.6427 48.6378 52.5646 54.1065 53.6167C53.8149 52.3771 53.5284 51.3354 53.3409 50.4552C53.1482 49.5282 53.0232 48.5073 52.9711 47.4917Z" fill="#7BBFAD"/>
<path d="M51.9659 25.5646C51.4607 25.6844 50.9607 25.8198 50.4555 25.9813C45.4347 27.5646 41.9451 30.6271 40.2263 35.5386C43.1899 40.3823 47.8513 44.4656 52.9711 47.4917C52.8305 44.674 53.268 41.9396 54.4451 41.6063C51.8461 36.7156 51.3149 31.1323 51.9659 25.5646Z" fill="#8DCEBF"/>
<path d="M73.1951 35.174C69.8149 27.5542 61.0076 23.4188 51.9659 25.5646C51.3149 31.1323 51.8461 36.7156 54.4451 41.6063C54.6847 41.5386 54.9607 41.5594 55.268 41.7156C66.3305 47.2521 76.5597 42.7573 73.1951 35.174Z" fill="#7BBFAD"/>
<path d="M40.0856 71.5386C40.4346 69.2 41.0179 66.8979 41.8512 64.6792C41.6533 64.6375 41.445 64.6063 41.2471 64.5646C41.2471 64.5646 37.4398 66.0542 34.8929 68.9084C32.5804 71.5021 31.3096 75.2156 34.8721 79.9656C36.0596 81.549 38.0023 82.7886 40.4606 83.7469C39.6012 79.7209 39.4814 75.575 40.0856 71.5386Z" fill="#8DCEBF"/>
<path d="M59.1377 75.9813C58.7835 72.8146 58.6064 69.6323 58.7314 66.4709C55.221 66.325 51.6064 66.0594 47.9814 65.6115C47.6116 68.424 47.4814 71.2938 47.5752 74.1479C47.7054 78.1271 48.2523 82.0854 49.1794 85.8459C52.8304 86.3511 56.8356 86.575 60.8773 86.5906C60.1637 83.0959 59.5387 79.549 59.1377 75.9813Z" fill="#8DCEBF"/>
<path d="M76.8983 74.5229C76.2785 71.7938 75.5389 69.0906 74.7212 66.3927C72.7889 66.4813 70.7212 66.5542 68.5337 66.5854C69.1743 69.5802 69.6535 72.6115 70.0754 75.6531C70.5649 79.1792 70.9816 82.7156 71.4556 86.2156C73.9452 86.0281 76.3254 85.7834 78.5181 85.5021C78.3045 81.7834 77.716 78.1375 76.8983 74.5229Z" fill="#8DCEBF"/>
<path d="M92.0649 69.4292C90.9711 67.0542 89.419 65.3771 87.9867 65.4605C87.268 65.5021 86.0232 65.6167 84.3669 65.7521C85.044 67.7573 85.5857 69.8094 86.0336 71.898C86.8722 75.7938 87.3722 79.8042 87.7836 83.7938C88.1638 83.6896 88.5128 83.5855 88.8253 83.4761C94.6222 81.4813 94.2263 74.1011 92.0649 69.4292Z" fill="#8DCEBF"/>
<path d="M47.9816 65.6063C45.9347 65.3563 43.8826 65.049 41.8514 64.6792C41.0181 66.8979 40.4347 69.1948 40.0858 71.5386C39.4816 75.575 39.6014 79.7209 40.4608 83.7469C42.9243 84.7157 45.9087 85.3875 49.1795 85.8459C48.2524 82.0854 47.7003 78.1271 47.5753 74.1479C47.4816 71.2938 47.6118 68.424 47.9816 65.6063Z" fill="#7BBFAD"/>
<path d="M68.5337 66.5854C65.4452 66.6375 62.1431 66.6115 58.7316 66.4709C58.6066 69.6323 58.7837 72.8146 59.1379 75.9813C59.5389 79.549 60.1639 83.0959 60.8775 86.5906C64.4504 86.6063 68.0545 86.4604 71.4556 86.2156C70.9764 82.7156 70.565 79.1792 70.0754 75.6531C69.6535 72.6115 69.1743 69.5802 68.5337 66.5854Z" fill="#7BBFAD"/>
<path d="M86.0337 71.8927C85.5858 69.8094 85.0441 67.7573 84.367 65.7521C81.9452 65.9552 78.6274 66.2104 74.7212 66.3927C75.5389 69.0906 76.2785 71.7938 76.8931 74.5229C77.716 78.1375 78.3045 81.7834 78.5181 85.5021C82.3774 85.0125 85.6222 84.4031 87.7837 83.7938C87.3722 79.8042 86.8722 75.7938 86.0337 71.8927Z" fill="#7BBFAD"/>
<path d="M33.6586 78.1584C33.6586 78.1584 28.6638 83.0177 29.018 89.3511C29.1274 91.3667 29.7784 93.5281 31.3044 95.7365C32.2888 97.1531 33.7992 98.3302 35.7055 99.3094C35.2211 97.4084 34.8565 95.4344 34.6274 93.4396C34.0544 88.4552 34.393 83.325 36.1794 78.8511C35.3409 78.6271 34.5024 78.4031 33.6586 78.1584Z" fill="#7BBFAD"/>
<path d="M57.1795 82.1792C53.3514 81.95 49.3306 81.5125 45.1483 80.7938C44.2316 86.3667 44.2576 92.0907 45.0858 97.7834C45.3045 99.2886 45.5806 100.799 45.9087 102.299C49.8253 102.929 54.1899 103.237 58.6378 103.304C58.3826 102.054 58.1535 100.799 57.9451 99.5438C57.0024 93.7417 56.6222 87.8875 57.1795 82.1792Z" fill="#7BBFAD"/>
<path d="M67.3306 82.3459C68.617 87.8511 69.4243 93.4605 69.0076 98.9344C68.8983 100.335 68.716 101.731 68.4347 103.112C72.7785 102.882 76.9556 102.481 80.6327 101.992C81.2108 100.122 81.6066 98.2313 81.8618 96.3198C82.5337 91.3146 82.2212 86.2 81.341 81.1688C77.3879 81.7105 72.6587 82.2 67.3306 82.3459Z" fill="#7BBFAD"/>
<path d="M93.4608 79.2209C92.7004 79.2678 91.4087 79.4917 89.6743 79.8042C90.8254 84.2417 91.5858 88.7053 91.5285 93.1063C91.492 95.4709 91.2264 97.8198 90.6483 100.143C91.2004 99.9865 91.6951 99.8355 92.1274 99.6948C96.3254 98.2469 98.0545 94.2678 98.2889 90.1948C98.6066 84.7105 96.2108 79.0594 93.4608 79.2209Z" fill="#7BBFAD"/>
<path d="M57.1795 82.1792C56.6222 87.8875 57.0024 93.7417 57.9451 99.5438C58.1534 100.799 58.3826 102.054 58.6378 103.304C61.8982 103.356 65.2107 103.278 68.4347 103.111C68.7159 101.731 68.8982 100.335 69.0076 98.9344C69.4243 93.4604 68.617 87.8511 67.3253 82.3459C64.1482 82.4292 60.7524 82.3979 57.1795 82.1792Z" fill="#8DCEBF"/>
<path d="M89.6742 79.8042C87.5439 80.1844 84.7314 80.7 81.3408 81.1688C82.221 86.2 82.5387 91.3146 81.8669 96.3198C81.6064 98.2313 81.2106 100.122 80.6377 101.992C84.7471 101.445 88.2419 100.789 90.6481 100.143C91.2262 97.8198 91.4919 95.4709 91.5283 93.1063C91.5856 88.7052 90.8252 84.2417 89.6742 79.8042Z" fill="#8DCEBF"/>
<path d="M45.1482 80.7938C42.2263 80.2886 39.2315 79.6584 36.1795 78.8511C34.393 83.325 34.0545 88.45 34.6222 93.4396C34.8566 95.4344 35.2211 97.4084 35.7055 99.3094C38.4191 100.695 41.9399 101.658 45.9086 102.299C45.5753 100.799 45.3045 99.2886 45.0805 97.7834C44.2524 92.0907 44.2315 86.3667 45.1482 80.7938Z" fill="#8DCEBF"/>
<path d="M64.8097 37.4292C64.8097 38.3667 64.2212 39.1219 63.5024 39.1219C62.7785 39.1219 62.1899 38.3667 62.1899 37.4292C62.1899 36.4969 62.7785 35.7417 63.5024 35.7417C64.2212 35.7417 64.8097 36.4969 64.8097 37.4292Z" fill="#161616"/>
<path d="M58.9139 38.1323C57.5285 43.1636 68.9555 43.5021 71.591 42.3407C72.0128 42.1584 71.6795 41.6115 71.2993 41.6636C67.2264 42.2157 61.0128 42.8042 59.268 38.1323C59.2055 37.9709 58.966 37.95 58.9139 38.1323Z" fill="#161616"/>
<path d="M78.1481 50.8615C78.1481 50.8615 75.7679 50.8511 76.8877 52.45C78.0127 54.0542 80.7523 55.1531 81.1429 53.7209C81.5283 52.2938 78.1481 50.8615 78.1481 50.8615Z" fill="#FFD41D"/>
<path d="M79.1013 50.1792C79.1013 50.1792 77.2784 50.1688 78.1377 51.398C78.9971 52.6219 81.1013 53.4657 81.3981 52.3719C81.695 51.273 79.1013 50.1792 79.1013 50.1792Z" fill="#FFD41D"/>
<path d="M79.9762 49.3979C79.9762 49.3979 78.6637 49.3927 79.2783 50.2729C79.8981 51.1584 81.4085 51.7625 81.6221 50.9761C81.8356 50.1896 79.9762 49.3979 79.9762 49.3979Z" fill="#FFD41D"/>
</svg>
