<svg width="128" height="128" viewBox="0 0 128 128" fill="none" xmlns="http://www.w3.org/2000/svg">
<path d="M87.8971 70.809C87.8971 70.809 92.5585 65.0798 94.5221 59.7881C96.4804 54.4965 97.3814 48.7933 98.22 44.9704C99.0689 41.1423 99.2564 33.3142 95.2043 33.0537C95.2043 33.0537 92.8762 30.8715 90.72 33.0173C90.72 33.0173 88.0689 32.2048 87.9543 35.7881C87.9543 35.7881 85.9231 35.6215 86.345 39.1944C86.5064 40.2465 87.4596 41.5277 87.4596 41.5277C87.4596 41.5277 86.3658 50.2465 80.5481 53.9444C80.5481 53.9444 82.746 68.7412 87.8971 70.809Z" fill="#B76435"/>
<path d="M92.7878 36.809C92.7878 36.809 95.8398 36.9756 96.7617 38.8662C97.6836 40.7569 96.2253 41.835 93.9284 41.4079C91.6419 40.986 90.7253 42.3037 89.7513 41.7829C88.7721 41.2569 88.4284 36.9027 92.7878 36.809Z" fill="#FFECD6"/>
<path d="M95.5378 36.7412C96.1211 36.7777 97.1524 35.361 96.4284 34.5902C95.7097 33.8142 93.6576 36.6215 95.5378 36.7412Z" fill="#FFECD6"/>
<path d="M93.3658 35.7621C93.8919 35.5121 94.1106 33.7777 93.1054 33.4496C92.1002 33.1215 91.6679 36.5694 93.3658 35.7621Z" fill="#FFECD6"/>
<path d="M91.1211 35.7673C91.3972 35.2569 90.543 33.7308 89.5378 34.059C88.5326 34.3923 90.2357 37.4287 91.1211 35.7673Z" fill="#FFECD6"/>
<path d="M88.9075 38.8037C89.1784 38.2881 88.3242 36.7621 87.319 37.0954C86.3138 37.4287 88.0169 40.46 88.9075 38.8037Z" fill="#FFECD6"/>
<path d="M83.4753 30.4287C83.4753 30.4287 88.2618 28.1162 87.8764 23.6892C87.491 19.2621 79.9389 13.6944 75.5535 21.085" fill="#B76435"/>
<path d="M82.496 29.3558C82.496 29.3558 85.9908 27.6683 85.7096 24.4392C85.4283 21.2152 79.9179 17.1527 76.72 22.5381" fill="#FFECD6"/>
<path d="M39.8086 30.9131C39.8086 30.9131 34.3763 28.0746 34.7929 23.6527C35.2044 19.2256 42.7929 13.7048 47.1315 21.1215" fill="#B76435"/>
<path d="M40.1367 29.3506C40.1367 29.3506 36.6471 27.6423 36.9492 24.4131C37.2513 21.1892 42.7877 17.1631 45.9544 22.5746" fill="#FFECD6"/>
<path d="M35.0117 56.2465C39.8294 47.5381 38.6784 44.5225 38.6784 44.5225C38.5429 41.5329 37.3763 35.8454 39.6211 29.9079C41.8659 23.9652 49.1627 19.1162 49.1627 19.1162C49.1315 15.9652 56.1106 17.059 56.1106 17.059C56.1106 17.059 54.7461 16.0277 55.3086 15.0485C55.8711 14.0746 59.0325 16.3402 59.0325 16.3402C59.0325 16.3402 57.3867 14.7308 58.97 14.0954C60.5586 13.4652 63.569 16.1631 63.569 16.1631C63.1211 13.4496 66.2877 15.8819 70.4648 18.0642C74.6367 20.2517 76.7356 21.8142 78.5169 23.46C84.0794 28.585 84.8867 33.7621 84.9492 39.96C85.0065 46.1631 86.6002 53.7048 86.6002 53.7048C86.6002 53.7048 88.8398 63.3715 89.7669 71.0485C90.694 78.7152 90.8919 86.0902 89.1888 94.2308C87.4856 102.371 84.2773 111.439 76.5481 113.168C73.7617 113.793 71.9284 113.21 70.7148 112.205C68.5586 110.408 68.3763 107.262 68.3659 107.111C68.3606 106.908 66.6679 95.8454 66.1679 92.5798C66.0794 92.0121 66.0273 91.6735 66.0273 91.6735C61.3815 92.9704 56.2044 91.5902 55.3346 91.3402C55.2565 91.3142 55.1992 91.2985 55.1992 91.2985C55.1992 91.2985 54.6575 104.137 54.2096 108.319C54.0169 110.132 52.9909 111.877 51.2825 112.741C49.0534 113.866 45.6575 113.486 41.4231 109.788C36.3398 105.34 35.0742 95.1215 34.7825 89.0381C34.6627 86.5485 34.7044 84.7621 34.72 84.3402C34.72 84.2777 34.72 84.2308 34.72 84.2308C33.345 83.7048 32.8554 83.3194 32.8554 83.3194C27.7044 79.6892 30.194 64.9548 35.0117 56.2465Z" fill="#CB7A44"/>
<path d="M67.5638 41.5017C65.8919 37.0017 60.595 36.7152 60.595 36.7152C55.4544 36.3819 53.5273 39.0694 52.5378 42.684C52.293 43.585 52.1003 44.5433 51.9336 45.5329C51.1055 50.4704 58.6107 52.4287 64.6523 50.559C66.2878 50.0537 67.3659 49.486 68.0482 48.8402C69.8919 47.1006 68.7825 44.7829 67.5638 41.5017Z" fill="#FFECD6"/>
<path d="M68.543 38.684C68.5587 39.2933 69.0066 39.7725 69.5378 39.7569C70.0691 39.7412 70.4857 39.2412 70.4701 38.6319C70.4493 38.0277 70.0066 37.5485 69.4753 37.5642C68.9441 37.5746 68.5274 38.0798 68.543 38.684Z" fill="#212121"/>
<path d="M50.0117 38.684C50.0273 39.2933 50.4752 39.7725 51.0012 39.7569C51.5325 39.7412 51.9492 39.2412 51.9335 38.6319C51.9179 38.0277 51.4752 37.5485 50.9439 37.5642C50.4127 37.5746 49.996 38.0798 50.0117 38.684Z" fill="#212121"/>
<path d="M60.2097 41.2152C60.2097 41.2152 62.2722 40.4131 62.1628 39.4548C62.0586 38.4965 58.069 38.2048 58.5065 39.5537C58.944 40.9027 60.0065 41.2985 60.2097 41.2152Z" fill="#212121"/>
<path d="M57.7408 41.8298C57.7304 42.7152 58.7669 42.7308 59.2513 42.4444C59.7044 42.1787 59.9388 41.6631 59.9023 41.0121C59.9023 40.986 59.9336 40.9808 59.9492 40.9652C59.9648 40.9548 59.9752 40.9392 59.9908 40.9287C60.0221 40.9079 60.0481 40.8923 60.0794 40.8871C60.1054 40.8767 60.1211 40.8767 60.1471 40.8715C60.1679 40.8715 60.1888 40.8767 60.2096 40.8819C60.2461 40.8871 60.2773 40.8975 60.3086 40.9183C60.3242 40.9287 60.3346 40.9444 60.3502 40.9548C60.3658 40.9704 60.3867 40.9756 60.3971 40.9965C60.6263 41.3506 60.1627 41.6058 60.9023 42.2412C61.6002 42.835 62.3554 42.3246 62.5742 41.7412C62.6731 41.4808 62.9075 41.4079 62.9127 41.7204C62.9336 42.6319 62.0429 43.0798 61.2356 42.9183C60.8711 42.8454 60.4648 42.559 60.1783 42.1996C59.944 42.5381 59.6054 42.8142 59.2981 42.9287C58.4752 43.2256 57.4648 42.8298 57.4283 41.8662C57.4179 41.5537 57.7461 41.5537 57.7408 41.8298Z" fill="#212121"/>
<path d="M47.8816 73.1944C48.8555 65.4131 51.8868 57.7152 60.0951 57.9496C75.3139 58.3819 76.3868 75.5954 73.9701 87.2204C73.767 88.184 73.5482 89.111 73.3087 89.9808C73.2618 90.1371 68.0222 92.6319 61.017 92.21C54.0066 91.7829 47.9962 88.9548 47.9962 88.9548C47.9962 88.9548 46.8972 81.0329 47.8816 73.1944Z" fill="#FFECD6"/>
<path d="M34.8295 84.0798C38.0743 83.9652 40.1576 80.6006 40.4493 77.7048C40.6628 75.611 40.1784 73.4183 40.1055 71.3246C40.0638 69.9965 40.2409 68.2412 40.8138 67.0121C41.2305 66.1319 41.4597 64.3871 42.1576 63.8246C42.3763 63.6475 42.6941 63.9444 42.4753 64.1423C42.3972 64.2152 41.9597 65.7673 42.0482 65.5173C41.5534 66.9079 40.9128 68.0746 40.7149 69.5954C40.3659 72.2933 40.9857 74.9965 40.9232 77.7048C40.8555 80.7881 38.1159 84.46 34.8295 84.3246C34.6732 84.3194 34.6732 84.085 34.8295 84.0798Z" fill="#B76435"/>
<path d="M36.3346 83.835C36.1888 83.3923 36.2877 82.8662 36.2825 82.4079C36.2773 81.7621 36.1627 81.1423 36.0742 80.5069C36.0377 80.236 36.3867 80.1319 36.4804 80.3923C36.6888 80.9548 36.694 81.5954 36.6992 82.1892C36.7096 82.71 36.7513 83.3871 36.5013 83.8558C36.4596 83.9287 36.3554 83.9079 36.3346 83.835Z" fill="#B76435"/>
<path d="M34.7357 84.2673C34.4701 83.3298 34.3242 82.111 34.4701 81.1423C34.4961 80.9704 34.7722 80.9808 34.8086 81.1423C34.9024 81.585 34.8763 82.0538 34.892 82.5121C34.918 83.085 34.9857 83.6527 35.0326 84.2308C35.043 84.3975 34.7826 84.4235 34.7357 84.2673Z" fill="#B76435"/>
<path d="M33.2826 83.7152C33.0013 83.4548 32.8867 82.9496 32.767 82.5954C32.6003 82.1058 32.418 81.5537 32.4232 81.0277C32.4232 80.8142 32.7097 80.7933 32.7826 80.9808C32.9336 81.4131 32.9909 81.8923 33.1003 82.335C33.2045 82.7621 33.444 83.1944 33.4909 83.6267C33.5013 83.7412 33.3555 83.7777 33.2826 83.7152Z" fill="#B76435"/>
<path d="M50.5899 112.892C50.7774 112.095 50.7201 111.33 50.7617 110.522C50.7722 110.304 51.0742 110.309 51.0951 110.522C51.1784 111.314 51.1419 112.215 50.8607 112.97C50.7982 113.137 50.5482 113.075 50.5899 112.892Z" fill="#B76435"/>
<path d="M48.819 113.127C48.7148 112.752 48.7044 112.33 48.6679 111.944C48.621 111.465 48.5117 110.95 48.6054 110.476C48.6471 110.283 48.9283 110.299 48.9752 110.476C49.0898 110.892 49.069 111.351 49.1002 111.783C49.1315 112.22 49.2044 112.694 49.1158 113.127C49.0846 113.278 48.8606 113.262 48.819 113.127Z" fill="#B76435"/>
<path d="M74.6002 113.278C74.5586 113.429 74.5586 113.101 74.5742 113.028C74.6367 112.757 74.7148 112.491 74.7877 112.226C74.9284 111.736 75.1471 111.179 75.1523 110.663C75.1523 110.325 75.6836 110.325 75.6731 110.663C75.6627 111.028 75.1106 113.528 74.6575 113.382C74.6159 113.366 74.5898 113.325 74.6002 113.278Z" fill="#B76435"/>
<path d="M72.9127 113.283C72.3762 112.387 71.9231 110.84 72.3971 109.845C72.4856 109.653 72.7304 109.773 72.746 109.939C72.871 111.038 72.7044 112.054 73.2356 113.09C73.345 113.304 73.0377 113.486 72.9127 113.283Z" fill="#B76435"/>
<path d="M50.9753 42.7881C50.9753 43.8454 49.4441 44.6996 47.5586 44.6996C45.6732 44.6996 44.142 43.8454 44.142 42.7881C44.142 41.7308 45.6732 40.8715 47.5586 40.8715C49.4441 40.8715 50.9753 41.7308 50.9753 42.7881Z" fill="#F9A0A0"/>
<path d="M76.1472 42.7881C76.1472 43.8454 74.6159 44.6996 72.7305 44.6996C70.8451 44.6996 69.3138 43.8454 69.3138 42.7881C69.3138 41.7308 70.8451 40.8715 72.7305 40.8715C74.6159 40.8715 76.1472 41.7308 76.1472 42.7881Z" fill="#F9A0A0"/>
</svg>
