<svg width="128" height="128" viewBox="0 0 128 128" fill="none" xmlns="http://www.w3.org/2000/svg">
<path d="M90.1874 51.9763C90.276 50.9346 90.4999 50.0075 90.8176 49.1794C89.4999 49.8565 87.8957 50.5388 86.3489 50.8096C84.0572 51.2107 87.5416 51.6898 90.1874 51.9763Z" fill="black"/>
<path d="M89.5363 57.3513C87.8488 57.5961 85.9321 57.393 84.4009 57.1221C84.6665 58.0753 84.9634 59.0492 85.3071 60.07C87.6978 59.0232 92.1613 56.9763 89.5363 57.3513Z" fill="black"/>
<path d="M95.1041 73.5648C93.6041 73.7784 91.9218 73.6482 90.4895 73.4242C90.8385 74.3148 91.151 75.1898 91.4114 76.044C93.8645 74.9554 97.5468 73.2159 95.1041 73.5648Z" fill="black"/>
<path d="M94.1563 64.8721C93.6875 63.8773 93.2188 62.8929 92.7396 61.9242C92.1407 63.4138 91.2344 65.2836 90.0417 66.6638C88.4219 68.5388 91.9167 66.3461 94.1563 64.8721Z" fill="black"/>
<path d="M94.4115 80.8044C92.1667 81.9763 96.4531 81.169 99.0677 80.6221C98.9583 79.57 98.7865 78.5284 98.5781 77.4971C97.4792 78.6378 95.9896 79.9867 94.4115 80.8044Z" fill="black"/>
<path d="M92.9218 92.2784C90.3385 91.919 94.6093 93.8669 97.0364 94.919C97.4374 93.945 97.7968 92.9763 98.078 92.0179C96.5468 92.3044 94.6249 92.5127 92.9218 92.2784Z" fill="black"/>
<path d="M44.0104 68.0336C46.25 67.3773 48.5208 65.8669 49.9479 64.7888C49.7969 61.8044 49.6667 59.9294 49.6667 59.9294L39.6719 58.2367C39.6719 58.2367 39.5521 60.4659 39.4427 63.9502C40.5 64.3929 41.6302 64.7732 42.7292 64.9554C44.9844 65.3304 42.0729 65.82 39.3854 66.1534C39.3333 68.195 39.3021 70.5127 39.2969 73.0075C40.7188 73.8513 42.7604 74.8513 44.8438 75.0909C47.724 75.4294 42.1406 76.1898 39.3125 76.5336C39.3385 78.7575 39.3906 81.0492 39.4896 83.3357C40.9115 84.1742 42.9115 85.1377 44.9583 85.3773C47.7604 85.7054 42.5625 86.4346 39.6719 86.7888C40.2917 96.4554 38.8385 105.784 45.151 106.815C48.7448 107.398 49.7917 100.705 50.2396 91.1638C47.3229 91.1586 42.1302 91.0544 44.8594 90.3982C47.026 89.8773 49.0573 88.5075 50.3646 87.4607C50.4427 84.4971 50.4427 81.445 50.401 78.4971C47.8958 78.5075 41.0625 78.4659 44.1094 77.7315C46.7083 77.1065 49.1198 75.2627 50.3177 74.2211C50.2604 72.2888 50.1979 70.4607 50.1302 68.794C47.7083 68.8461 40.9948 68.919 44.0104 68.0336Z" fill="#FF8724"/>
<path d="M50.13 68.794C50.0675 67.32 50.0102 65.9659 49.9477 64.7888C48.5207 65.8669 46.2498 67.3773 44.0102 68.0336C40.9946 68.919 47.7082 68.8461 50.13 68.794Z" fill="black"/>
<path d="M50.401 78.4971C50.3802 77.0336 50.3489 75.6065 50.3177 74.2211C49.1198 75.2627 46.7083 77.1065 44.1042 77.7315C41.0625 78.4659 47.8958 78.5075 50.401 78.4971Z" fill="black"/>
<path d="M50.2396 91.1638C50.2969 89.9555 50.3386 88.7159 50.3646 87.4607C49.0573 88.5075 47.0261 89.8773 44.8594 90.3982C42.1302 91.0544 47.3229 91.1586 50.2396 91.1638Z" fill="black"/>
<path d="M42.729 64.9555C41.63 64.7732 40.4998 64.393 39.4425 63.9503C39.4269 64.6378 39.4009 65.3773 39.3853 66.1534C42.0728 65.82 44.9842 65.3305 42.729 64.9555Z" fill="black"/>
<path d="M44.8438 75.0909C42.7604 74.8513 40.7188 73.8513 39.2969 73.0075C39.2969 74.1534 39.2969 75.3305 39.3125 76.5336C42.1406 76.1898 47.724 75.4294 44.8438 75.0909Z" fill="black"/>
<path d="M44.9583 85.3773C42.9114 85.1377 40.9114 84.1742 39.4895 83.3357C39.5416 84.4919 39.5989 85.6482 39.6718 86.7888C42.5624 86.4346 47.7603 85.7055 44.9583 85.3773Z" fill="black"/>
<path d="M52.9948 58.3357L44.5937 60.9867C42.4114 84.643 45.0937 100.888 61.8333 106.273C63.9114 101.56 65.1875 96.6638 65.1875 91.3461C67.5416 79.57 63.7708 64.7367 52.9948 58.3357Z" fill="#FFECD6"/>
<path d="M92.9217 92.2784C94.6248 92.5128 96.5467 92.3044 98.078 92.018C99.2498 88.0961 99.4686 84.294 99.0675 80.6221C96.453 81.169 92.1665 81.9711 94.4113 80.8044C95.9894 79.9867 97.479 78.6378 98.578 77.4971C97.6873 73.0753 96.0155 68.8617 94.1561 64.8721C91.9165 66.3513 88.4217 68.5336 90.0415 66.6638C91.2342 65.2784 92.1405 63.4138 92.7394 61.9242C92.6717 61.7888 92.604 61.6482 92.5363 61.5076C90.5103 57.419 89.9738 54.3826 90.1873 51.9711C87.5415 51.6898 84.0571 51.2055 86.3488 50.8096C87.8957 50.5388 89.4998 49.8565 90.8175 49.1794C91.6144 47.0857 92.9425 45.5492 93.8957 44.0544C96.104 40.5909 92.5363 32.5701 86.3644 40.7055C82.6925 45.5388 82.5832 50.5909 84.4009 57.1273C85.9321 57.393 87.8488 57.5961 89.5363 57.3513C92.1613 56.9763 87.6978 59.0232 85.3071 60.0701C86.5728 63.8305 88.3228 68.0701 90.328 73.0023C90.3853 73.143 90.4321 73.2836 90.4894 73.419C91.9217 73.6482 93.604 73.7784 95.104 73.5648C97.5467 73.2159 93.8644 74.9607 91.4113 76.044C94.2759 85.3721 92.104 92.3669 90.1405 96.2419C89.5675 89.1117 88.1561 82.768 86.3644 77.2732C80.2915 78.4971 68.0728 80.7523 73.8957 77.8148C77.5728 75.9607 81.0675 72.9294 83.7186 70.2784C83.1769 69.0388 82.6353 67.8617 82.0832 66.7471C76.0936 69.2055 66.828 72.7523 71.5259 69.0701C74.3748 66.8409 76.9009 63.7523 78.8905 60.919C75.4061 55.1951 72.4946 52.1742 72.4946 52.1742L52.9946 58.3357C63.7707 64.7367 67.5415 79.5701 65.1873 91.3461C65.1873 96.6638 63.9113 101.56 61.8332 106.273C65.8228 107.554 70.6092 108.226 76.3228 108.226C81.3384 108.226 84.5571 106.815 86.6405 105.117L86.3644 106.273C86.3644 106.273 89.479 110.2 96.104 96.9867C96.453 96.294 96.7498 95.6065 97.0363 94.919C94.6092 93.8669 90.3384 91.919 92.9217 92.2784Z" fill="#FF8724"/>
<path d="M71.526 69.07C66.8281 72.7523 76.0937 69.2107 82.0833 66.7471C81.0052 64.57 79.9271 62.6221 78.8906 60.919C76.901 63.7523 74.375 66.8409 71.526 69.07Z" fill="black"/>
<path d="M73.8958 77.8148C68.0781 80.7575 80.2916 78.4971 86.3645 77.2732C85.5468 74.7628 84.651 72.4346 83.7187 70.2784C81.0677 72.9294 77.5729 75.9607 73.8958 77.8148Z" fill="black"/>
<path d="M57.9999 73.2992C60.1666 73.3044 62.5884 72.5596 64.1405 71.9763C64.7968 69.2732 65.177 67.57 65.177 67.57L56.7239 63.4294C56.7239 63.4294 56.0207 65.3773 55.0103 68.4555C55.828 69.1273 56.7395 69.768 57.6718 70.2159C59.5832 71.1482 56.8541 70.8148 54.3749 70.4034C53.7916 72.2107 53.1509 74.268 52.4895 76.4815C53.5312 77.6169 55.0832 79.044 56.8801 79.8044C59.3593 80.8669 54.177 80.07 51.5728 79.6325C51.0103 81.6169 50.453 83.6742 49.9374 85.7367C50.9843 86.8617 52.5103 88.2471 54.2707 88.9971C56.677 90.0284 51.8593 89.3096 49.1926 88.8669C47.1926 97.643 43.4374 105.565 48.7916 108.148C51.8384 109.612 54.5364 103.929 57.4478 95.544C54.8541 94.7732 50.2499 93.3148 52.8593 93.445C54.927 93.5544 57.0989 92.8721 58.5416 92.2836C59.3853 89.6586 60.1926 86.9398 60.9322 84.3044C58.6978 83.6534 52.6197 81.8148 55.5259 81.9659C58.0155 82.0909 60.6405 81.0857 61.9843 80.4711C62.4478 78.7367 62.8749 77.0909 63.2499 75.5909C61.078 74.9919 55.0832 73.2888 57.9999 73.2992Z" fill="#FF8724"/>
<path d="M63.25 75.5909C63.5834 74.2575 63.8907 73.0388 64.1407 71.9763C62.5886 72.5596 60.1667 73.3044 58 73.2992C55.0782 73.2888 61.073 74.9971 63.25 75.5909Z" fill="black"/>
<path d="M60.9322 84.3044C61.2968 82.9971 61.6509 81.7159 61.9843 80.4711C60.6405 81.0857 58.0155 82.0909 55.5259 81.9659C52.6197 81.8148 58.6978 83.6534 60.9322 84.3044Z" fill="black"/>
<path d="M57.4478 95.544C57.8176 94.4867 58.1821 93.3929 58.5415 92.2836C57.0988 92.8721 54.9269 93.5544 52.8592 93.445C50.2499 93.3148 54.854 94.7732 57.4478 95.544Z" fill="black"/>
<path d="M57.6719 70.2159C56.7396 69.7679 55.8281 69.1273 55.0052 68.4554C54.8073 69.0648 54.5938 69.7159 54.375 70.4034C56.8542 70.8148 59.5833 71.1429 57.6719 70.2159Z" fill="black"/>
<path d="M56.88 79.8044C55.0832 79.044 53.5311 77.6169 52.4894 76.4815C52.1821 77.5023 51.88 78.5544 51.5728 79.6325C54.1769 80.07 59.3592 80.8669 56.88 79.8044Z" fill="black"/>
<path d="M54.2708 88.9971C52.5103 88.2471 50.9843 86.8617 49.9374 85.7367C49.677 86.7836 49.427 87.8252 49.1926 88.8617C51.8593 89.3044 56.677 90.0284 54.2708 88.9971Z" fill="black"/>
<path d="M48.8852 25.9503C48.0259 29.8409 43.88 32.2263 39.63 31.2888C35.38 30.3461 32.63 26.4294 33.4946 22.544C34.354 18.6534 38.4998 16.2628 42.7498 17.2055C46.9998 18.1482 49.7446 22.0648 48.8852 25.9503Z" fill="black"/>
<path d="M46.1613 25.3513C45.604 27.8617 42.9269 29.4086 40.1821 28.7992C37.4321 28.1898 35.6561 25.6586 36.2134 23.1481C36.7706 20.6325 39.4477 19.0909 42.1925 19.695C44.9425 20.3044 46.7186 22.8356 46.1613 25.3513Z" fill="#FFECD6"/>
<path d="M81.8281 35.1065C79.6823 38.4606 74.9688 39.2731 71.3021 36.9294C67.6354 34.5804 66.401 29.9606 68.5469 26.6065C70.6927 23.2523 75.4063 22.4398 79.0729 24.7835C82.7448 27.1273 83.974 31.7471 81.8281 35.1065Z" fill="black"/>
<path d="M79.479 33.6013C78.0936 35.7679 75.0467 36.294 72.6769 34.7784C70.3071 33.2679 69.5102 30.2784 70.8956 28.1117C72.2811 25.9398 75.3279 25.4138 77.6977 26.9294C80.0675 28.445 80.8644 31.4346 79.479 33.6013Z" fill="#FFECD6"/>
<path d="M76.0051 48.669C73.3905 60.4867 71.4322 69.32 49.8437 64.5336C30.5051 60.2523 30.2134 50.919 32.8332 39.1013C35.4478 27.2836 47.2395 19.8409 59.1614 22.4867C71.0832 25.1273 78.6249 36.8513 76.0051 48.669Z" fill="#FF8724"/>
<path d="M69.4531 63.3044C69.4531 63.3044 64.375 68.2836 49.7344 65.0388C35.8385 61.9607 33.2188 54.6794 33.2188 54.6794C33.2188 54.6794 43.6354 48.1273 53.3958 50.2888C63.1563 52.4503 69.4531 63.3044 69.3854 63.3513" fill="#FFECD6"/>
<path d="M48.0469 50.1586L55.2917 21.9763C55.2917 21.9763 58.0781 21.5909 62.4167 23.4711L58.5573 52.4815" fill="#FF994D"/>
<path d="M48.0469 50.1586C48.0469 50.1586 53.2969 47.7731 58.5573 52.4815C58.5573 52.4815 56.4375 55.5388 52.5573 54.6794C48.8594 53.8617 48.0469 50.1586 48.0469 50.1586Z" fill="black"/>
<path d="M53.0938 52.2471C53.0938 52.2471 53.0417 53.0805 52.8594 54.3096C52.776 54.9294 52.6615 55.643 52.5208 56.4034C52.4427 56.7836 52.3802 57.1794 52.2917 57.5753C52.2135 57.9763 52.125 58.3773 52.0417 58.7784C51.9479 59.1846 51.8542 59.5857 51.7604 59.9815C51.6719 60.3773 51.5625 60.7628 51.4688 61.1378C51.276 61.8878 51.0781 62.5909 50.901 63.1794C50.5417 64.3721 50.2344 65.1482 50.2344 65.1482C50.2344 65.1482 50.2865 64.3148 50.4688 63.0857C50.5521 62.4711 50.6667 61.7523 50.8073 60.9919C50.8854 60.6117 50.9479 60.2211 51.0365 59.82C51.1198 59.4242 51.2031 59.018 51.2865 58.6169C51.3854 58.2159 51.4792 57.8096 51.5677 57.4138C51.6615 57.018 51.7656 56.6325 51.8594 56.2575C52.0521 55.5075 52.25 54.8096 52.4323 54.2159C52.7917 53.0284 53.0938 52.2471 53.0938 52.2471Z" fill="black"/>
<path d="M48.1978 29.0492C48.1978 29.0492 52.005 25.7159 58.453 27.1482C64.9009 28.5753 66.6821 33.1482 66.6821 33.1482C66.6821 33.1482 60.0884 26.8617 48.1978 29.0492Z" fill="black"/>
<path d="M45.7864 36.0909C45.7864 36.0909 50.177 31.3513 57.1926 32.9086C64.203 34.4606 65.8958 40.544 65.8958 40.544C65.8958 40.544 58.7239 33.7054 45.7864 36.0909Z" fill="black"/>
<path d="M33.2969 37.3565C33.2969 37.3565 35.474 41.393 38.375 43.419C41.276 45.4398 32.0312 42.0128 32.0312 42.0128C32.0312 42.0128 32.9844 38.2888 33.2969 37.3565Z" fill="black"/>
<path d="M31.6145 47.7575C31.6145 47.7575 35.3072 50.4815 38.7968 51.0648C42.2812 51.6534 32.1978 52.2315 32.1978 52.2315C32.1978 52.2315 31.6353 50.7211 31.6145 47.7575Z" fill="black"/>
<path d="M76.3229 46.8878C76.3229 46.8878 72.5104 49.6013 69.0261 50.2055C65.5469 50.8148 75.3698 51.6117 75.3698 51.6117C75.3698 51.6117 76.2136 47.8617 76.3229 46.8878Z" fill="black"/>
<path d="M73.8384 56.8409C73.8384 56.8409 69.6353 58.0857 66.229 57.143C62.8175 56.2055 71.7186 60.9867 71.7186 60.9867C71.7186 60.9867 72.7967 59.7107 73.8384 56.8409Z" fill="black"/>
<path d="M62.0989 53.268C62.0989 53.268 63.078 51.2471 65.3905 51.7575C67.6926 52.268 67.552 55.1534 67.552 55.1534" stroke="black" stroke-width="0.769333" stroke-miterlimit="10" stroke-linecap="round" stroke-linejoin="round"/>
<path d="M44.5938 49.3878C44.5938 49.3878 44.5573 47.143 42.25 46.6273C39.9427 46.1169 38.8594 48.794 38.8594 48.794" stroke="black" stroke-width="0.769333" stroke-miterlimit="10" stroke-linecap="round" stroke-linejoin="round"/>
<path d="M46.1927 56.9659C37.3177 56.0805 28 52.1742 28 52.1742" stroke="black" stroke-width="0.585333" stroke-miterlimit="10" stroke-linecap="round" stroke-linejoin="round"/>
<path d="M46.4842 59.2107L33.0884 58.6013" stroke="black" stroke-width="0.585333" stroke-miterlimit="10" stroke-linecap="round" stroke-linejoin="round"/>
<path d="M45.7707 61.5075L28.979 64.0232" stroke="black" stroke-width="0.585333" stroke-miterlimit="10" stroke-linecap="round" stroke-linejoin="round"/>
<path d="M56.9114 60.5753C65.4739 63.0648 75.578 62.9242 75.578 62.9242" stroke="black" stroke-width="0.585333" stroke-miterlimit="10" stroke-linecap="round" stroke-linejoin="round"/>
<path d="M55.802 62.544L68.453 66.9867" stroke="black" stroke-width="0.585333" stroke-miterlimit="10" stroke-linecap="round" stroke-linejoin="round"/>
<path d="M55.604 64.9502L70.2446 73.5492" stroke="black" stroke-width="0.585333" stroke-miterlimit="10" stroke-linecap="round" stroke-linejoin="round"/>
<path d="M86.927 96.2523C88.7134 95.0336 90.0728 93.0752 90.8592 91.7263C90.5311 90.4138 90.1197 89.1325 89.6249 87.9502C87.0467 88.9033 83.2759 90.195 85.2759 88.8356C86.5728 87.9554 87.6405 86.6794 88.4322 85.5283C86.2447 81.8252 83.1145 79.9763 79.4895 82.82C76.1509 85.4398 72.8592 89.5492 72.9895 95.32C74.4634 95.7575 76.5311 96.1846 78.4634 95.9242C81.2967 95.5388 75.6874 97.7783 73.4165 98.6533C73.8228 100.383 74.5155 102.237 75.578 104.221C75.578 104.221 61.7186 103.726 66.6613 108.825C69.453 111.7 88.9738 111.58 91.2395 102.987C91.8072 100.836 91.8697 98.0856 91.5207 95.2783C88.9426 96.2367 84.8592 97.6533 86.927 96.2523Z" fill="#FF994D"/>
<path d="M85.276 88.8357C83.276 90.195 87.0468 88.9034 89.625 87.9503C89.2708 87.0857 88.8698 86.268 88.4323 85.5284C87.6406 86.6794 86.5729 87.9555 85.276 88.8357Z" fill="black"/>
<path d="M86.927 96.2523C84.8593 97.6534 88.9426 96.2367 91.5208 95.2784C91.3749 94.0909 91.1458 92.8982 90.8593 91.7263C90.0729 93.0752 88.7135 95.0336 86.927 96.2523Z" fill="black"/>
<path d="M78.4635 95.9242C76.5312 96.1846 74.4635 95.7575 72.9895 95.32C73.0103 96.3773 73.151 97.4867 73.4166 98.6534C75.6874 97.7784 81.2968 95.5388 78.4635 95.9242Z" fill="black"/>
</svg>
