<svg width="128" height="128" viewBox="0 0 128 128" fill="none" xmlns="http://www.w3.org/2000/svg">
<path d="M46.2341 69.3183L45.9008 65.485C39.0935 64.4485 27.3904 70.2558 30.3331 77.5162C30.3331 77.5162 22.7237 83.8027 29.2966 86.5058C29.2966 86.5058 22.7966 93.3444 25.7862 97.2714C28.7758 101.199 36.3799 94.8027 39.8383 85.8131C43.2966 76.8235 46.2341 69.3183 46.2341 69.3183Z" fill="#F9DDC0"/>
<path d="M84.5364 50.7245C84.5364 50.7245 90.4427 60.735 98.3124 58.2662C106.182 55.7975 100.135 39.3756 100.135 39.3756L98.3124 33.5006C98.3124 33.5006 102.5 31.2506 102.354 27.9693C102.208 24.6881 96.3333 31.4277 96.3333 31.4277C96.3333 31.4277 91.8385 28.485 85.4427 30.9068C85.4427 30.9068 82.8958 24.3391 80.7968 26.2402C78.6979 28.1412 79.9114 33.6725 79.9114 33.6725C79.9114 33.6725 74.0312 51.1308 67.6354 54.2454C61.2447 57.3547 42.0572 63.2297 38.5989 67.3808C35.1406 71.5266 34.2239 86.3183 38.3697 93.0631C42.5208 99.8027 39.2916 112.667 43.4374 113.011C47.5885 113.36 47.2395 97.8027 46.7239 93.8235L50.0052 93.9954L50.526 110.245C50.526 110.245 52.427 115.605 54.4999 110.938C56.5729 106.271 56.5364 91.9277 56.5364 91.9277C56.5364 91.9277 71.0572 89.6777 77.5572 83.9745C77.5572 83.9745 79.1979 85.6777 77.4374 91.3235C74.4999 100.745 77.4895 101.256 79.3906 101.084C81.2916 100.912 85.0937 89.3287 82.677 81.2089L83.6093 80.8339C83.6093 80.8339 85.6458 89.6829 84.4374 94.0006C83.2291 98.3235 84.3802 100.881 86.9739 98.287C89.5624 95.6933 90.6614 87.9537 89.1041 77.235C87.5468 66.5214 81.9427 54.3547 84.5364 50.7245Z" fill="#FC8B8B"/>
<path d="M79.9113 33.6725L79.5728 29.8391C72.7655 28.8027 61.0676 34.61 64.0103 41.8704C64.0103 41.8704 56.4009 48.1569 62.9686 50.86C62.9686 50.86 56.4738 57.6985 59.4634 61.6256C62.453 65.5475 70.0572 59.1516 73.5155 50.1673C76.9738 41.1777 79.9113 33.6725 79.9113 33.6725Z" fill="#F9DDC0"/>
<path d="M84.9165 29.7193C84.9165 29.7193 86.4321 40.6777 93.229 40.9068C100.021 41.136 97.9061 36.8704 97.9061 36.8704C97.9061 36.8704 99.8228 39.6412 102.359 38.7454C104.89 37.8548 101.318 33.4225 97.9061 31.5787C94.4894 29.7298 89.0675 27.6308 84.9165 29.7193Z" fill="#F9DDC0"/>
<path d="M95.5415 54.7558C95.13 54.4693 94.4113 53.0787 95.0467 52.5839C95.6821 52.0891 96.3852 55.3547 95.5415 54.7558Z" fill="#1E1E1E"/>
<path d="M98.9947 54.2454C99.3593 53.886 99.901 52.3912 99.2135 52.0058C98.526 51.6256 98.2291 54.985 98.9947 54.2454Z" fill="#1E1E1E"/>
<path d="M91.7655 50.5526C91.3749 51.1204 90.2707 51.1724 89.2967 50.6724C88.3228 50.1724 87.8488 49.3078 88.2394 48.7453C88.6301 48.1776 89.7394 48.1256 90.7082 48.6256C91.6821 49.1203 92.1561 49.9849 91.7655 50.5526Z" fill="#F9A0A0"/>
<path d="M91.9009 47.0839C91.9009 47.7454 92.2082 48.2818 92.5936 48.2818C92.979 48.2818 93.2863 47.7454 93.2863 47.0839C93.2863 46.4173 92.979 45.8808 92.5936 45.8808C92.2082 45.8808 91.9009 46.4173 91.9009 47.0839Z" fill="#1E1E1E"/>
<path d="M99.0415 47.0839C99.0415 47.7454 99.354 48.2818 99.7342 48.2818C100.114 48.2818 100.427 47.7454 100.427 47.0839C100.427 46.4173 100.114 45.8808 99.7342 45.8808C99.354 45.8808 99.0415 46.4173 99.0415 47.0839Z" fill="#1E1E1E"/>
<path d="M94.4114 28.6204C94.9635 28.5527 95.4791 28.4433 95.9791 28.3131C96.2291 27.1256 96.5051 25.7714 96.7603 24.3704C95.8958 24.636 94.9999 24.8131 94.0833 24.8704C93.0051 24.9329 91.578 25.0058 90.151 24.912C89.5468 26.1933 89.0103 27.3808 88.5833 28.3391C90.4999 28.7506 92.4999 28.8547 94.4114 28.6204Z" fill="#FFD41D"/>
<path d="M97.6615 18.2922C97.9063 15.7037 97.8021 13.8391 96.9479 14.011C95.9792 14.2089 94.401 16.6464 92.8125 19.5995C93.0781 19.5787 93.3438 19.5579 93.6042 19.5266C95.1198 19.3391 96.4323 18.9068 97.6615 18.2922Z" fill="#FFD41D"/>
<path d="M94 23.9329C95.0781 23.7974 96.0521 23.537 96.9688 23.1777C97.1875 21.9329 97.3802 20.6985 97.5208 19.5422C96.3177 20.0527 95.0313 20.3756 93.6875 20.4589C93.276 20.4849 92.8125 20.511 92.3177 20.5266C91.724 21.6724 91.1302 22.8547 90.5781 24.0058C91.7292 24.0891 92.8802 24.0735 94 23.9329Z" fill="#FFD41D"/>
<path d="M95.7448 29.4068C95.3385 29.4798 94.9167 29.5318 94.5 29.5527C92.8073 29.6568 90.2604 29.7662 88.1771 29.2558C87.8125 30.0943 87.5938 30.6048 87.5938 30.6048C91.0625 34.1464 94.8281 33.4225 95.1094 32.2454C95.1719 31.9798 95.4219 30.912 95.7448 29.4068Z" fill="#FFD41D"/>
<path d="M95.7447 29.4068C95.8228 29.0631 95.901 28.6985 95.9791 28.3131C95.4791 28.4433 94.9635 28.5527 94.4114 28.6204C92.4999 28.8547 90.4999 28.7506 88.5833 28.3391C88.4322 28.6777 88.2968 28.985 88.177 29.2558C90.2603 29.7662 92.8072 29.6568 94.4999 29.5527C94.9166 29.5318 95.3385 29.4797 95.7447 29.4068Z" fill="white"/>
<path d="M96.7603 24.3704C96.8332 23.9745 96.9009 23.5787 96.9738 23.1777C96.0519 23.537 95.078 23.7975 93.9998 23.9329C92.88 24.0735 91.729 24.0891 90.5832 24.0058C90.4373 24.3131 90.2967 24.6152 90.1509 24.912C91.578 25.0058 93.005 24.9329 94.0832 24.8704C94.9998 24.8131 95.8957 24.636 96.7603 24.3704Z" fill="white"/>
<path d="M97.5208 19.5422C97.5728 19.1152 97.6197 18.6933 97.6614 18.2922C96.4322 18.9068 95.1197 19.3391 93.6041 19.5214C93.3437 19.5579 93.078 19.5735 92.8124 19.5943C92.6458 19.9016 92.4791 20.2141 92.3176 20.5266C92.8124 20.511 93.276 20.4849 93.6874 20.4589C95.0312 20.3756 96.3176 20.0527 97.5208 19.5422Z" fill="white"/>
</svg>
