<svg width="128" height="128" viewBox="0 0 128 128" fill="none" xmlns="http://www.w3.org/2000/svg">
<path d="M66.3108 72.328C66.3108 72.328 50.9931 69.7239 43.9775 59.4999C43.9775 59.4999 30.1702 57.578 19.7483 62.0103C24.3629 63.6301 31.4514 65.8072 31.4514 65.8072C31.4514 65.8072 35.0347 67.078 34.9931 71.2343C34.967 73.8905 35.3993 82.828 35.3993 82.828C35.3993 82.828 35.342 85.2551 36.9514 84.0885C38.5608 82.927 41.217 78.0885 41.217 78.0885C41.217 78.0885 44.8108 73.6093 50.1025 75.2916C55.3941 76.9791 56.3733 82.7447 56.8004 84.3124C57.2327 85.8853 57.2795 89.1301 58.5348 89.7499C59.79 90.3749 60.816 85.7447 61.1806 84.4426C61.5504 83.1353 63.7483 80.5989 65.8733 80.8645C66.3785 80.9218 67.1077 81.4114 67.941 82.1458C67.0608 79.0833 66.1441 75.1301 66.3108 72.328Z" fill="#CB7A44"/>
<path d="M87.3213 48.5728C87.3213 48.5728 99.6754 36.2342 112.139 35.3332C112.53 34.8384 112.832 34.4322 113.024 34.1353C114.55 31.7915 112.441 32.0051 112.441 32.0051C112.441 32.0051 90.8421 39.4947 87.6806 40.729C84.5192 41.9582 84.4254 46.4478 81.9879 53.3957C79.5452 60.3384 74.9358 62.4478 74.9358 62.4478C74.8473 58.6092 72.9358 55.1509 71.2536 55.6144C69.5661 56.0728 70.514 60.4009 70.5348 61.3592C70.5556 62.3176 68.9046 62.8957 68.9046 62.8957C68.9046 62.8957 67.1911 63.2394 66.7223 62.4061C66.2483 61.5728 64.8525 57.3697 63.1702 57.828C61.4879 58.2967 61.6077 62.2447 63.4879 65.5884C63.4879 65.5884 58.4463 66.1249 52.8056 61.4009C47.2536 56.7394 44.8629 52.9842 41.5973 53.4009C41.5452 53.4061 41.4983 53.4061 41.4463 53.4113C38.1025 53.9686 15.7067 58.5467 15.7067 58.5467C15.7067 58.5467 13.7796 59.4374 16.29 60.6769C16.6858 60.8749 17.3473 61.1405 18.1702 61.4426C18.6442 61.6197 19.1806 61.8124 19.7483 62.0103C30.165 57.578 43.9775 59.4999 43.9775 59.4999C50.9931 69.7186 66.3108 72.328 66.3108 72.328C66.1494 75.1301 67.0608 79.0832 67.9411 82.1457C69.2848 83.3228 70.8942 85.1405 72.2483 86.8384C73.5713 88.5103 74.6546 90.0624 74.9879 90.7915C75.8838 92.7186 76.8838 95.9374 77.8942 95.6613C78.9046 95.3853 78.1233 92.0988 77.9046 89.9894C77.7171 88.1249 78.7119 80.2967 80.1077 77.5884C78.7119 74.5415 77.0869 71.4061 75.6442 69.7186C75.6442 69.7186 87.8942 60.9582 87.3213 48.5728Z" fill="#B76435"/>
<path d="M103.707 55.1822C103.144 54.177 102.655 53.3072 102.326 52.7603C100.17 49.2082 102.602 46.2916 102.602 46.2916C102.602 46.2916 109.41 38.7863 112.139 35.3332C99.6754 36.2343 87.3212 48.5728 87.3212 48.5728C87.8942 60.9582 75.6442 69.7186 75.6442 69.7186C77.0869 71.4061 78.7119 74.5416 80.1129 77.5884C80.2952 77.2291 80.4879 76.953 80.6806 76.802C82.3785 75.4895 85.5608 76.5416 86.5452 77.4843C87.5296 78.4218 90.764 81.8749 91.5296 80.703C92.29 79.5311 90.6754 76.7134 90.2483 75.1405C89.8108 73.5676 87.7119 68.1093 91.3994 63.9634C95.0869 59.8124 100.472 61.8384 100.472 61.8384C100.472 61.8384 105.222 64.6353 107.207 64.8176C109.181 64.9947 107.894 62.9374 107.894 62.9374C107.894 62.9374 105.472 58.3749 103.707 55.1822Z" fill="#CB7A44"/>
<path d="M66.9046 66.5728C67.0035 66.9218 66.8316 67.2707 66.5296 67.3593C66.2223 67.4426 65.8993 67.2239 65.8004 66.8749C65.7066 66.5259 65.8733 66.177 66.1754 66.0936C66.4775 66.0051 66.8108 66.2239 66.9046 66.5728Z" fill="black"/>
<path d="M73.0139 65.1249C73.1129 65.4687 72.941 65.8228 72.6337 65.9062C72.3316 65.9895 72.0035 65.7759 71.9098 65.427C71.8108 65.078 71.9827 64.7291 72.2848 64.6405C72.592 64.5572 72.915 64.7707 73.0139 65.1249Z" fill="black"/>
<path d="M69.4097 67.953C69.0764 67.8957 68.4566 66.9999 68.7743 66.7603C69.092 66.5259 69.842 68.0311 69.4097 67.953Z" fill="black"/>
<path d="M70.3108 67.7707C70.592 67.5884 70.8108 66.5207 70.4306 66.427C70.0451 66.3332 69.9462 68.0103 70.3108 67.7707Z" fill="black"/>
<path d="M67.5243 67.1093C67.5243 67.1093 69.6649 65.5832 71.5035 66.2499" stroke="black" stroke-width="0.16" stroke-miterlimit="10" stroke-linecap="round" stroke-linejoin="round"/>
<path d="M68.6858 68.6509C68.6858 68.6509 68.7952 69.8228 69.1129 69.7238C69.4306 69.6197 69.5452 68.802 69.5452 68.802" fill="#FFECD6"/>
<path d="M71.6285 67.9999C71.6285 67.9999 71.9097 69.1405 71.5764 69.151C71.2431 69.1614 70.8733 68.4218 70.8733 68.4218" fill="#FFECD6"/>
<path d="M68.4983 68.552C68.4983 68.552 69.8629 69.4738 71.7379 67.7968" stroke="black" stroke-width="0.16" stroke-miterlimit="10" stroke-linecap="round" stroke-linejoin="round"/>
</svg>
