<svg width="128" height="128" viewBox="0 0 128 128" fill="none" xmlns="http://www.w3.org/2000/svg">
<path d="M42.0162 81.105C42.0162 81.1154 42.0422 82.2977 42.9901 84.0998C43.8026 85.6363 45.4849 87.9279 48.8287 90.3706C50.2505 90.5113 51.7141 90.5842 53.1984 90.6206C50.5734 88.5217 48.9224 86.3029 47.9693 84.6883C46.8755 82.8342 46.4537 81.4331 46.3547 81.0633L41.8807 80.9592C41.9537 80.9696 42.0162 81.0269 42.0162 81.105Z" fill="#8FE8F7"/>
<path d="M56.2661 81.2977L46.6827 81.0738C46.9536 81.9905 48.5369 86.6519 53.7192 90.6363C54.9379 90.6571 56.1723 90.6363 57.4119 90.5894C52.3338 85.7561 51.3182 81.7509 51.3077 81.7092C51.2869 81.6207 51.339 81.5373 51.4223 81.5165C51.5109 81.4905 51.589 81.553 51.6098 81.6311C51.6202 81.678 52.6463 85.7144 57.8442 90.5634C59.214 90.5009 60.589 90.3811 61.9692 90.23C57.6046 87.9644 56.2661 81.2977 56.2661 81.2977Z" fill="#8FE8F7"/>
<path d="M28.4224 80.3446C29.3078 80.9904 30.7713 83.6675 32.2661 84.8446C33.3338 85.6936 34.5838 86.4384 35.9588 87.0998C33.0526 84.3602 32.1567 81.1154 32.1411 81.0738C32.1203 80.9852 32.1724 80.9019 32.2557 80.8811C32.3442 80.855 32.4224 80.9071 32.4484 80.9904C32.4588 81.0425 33.4901 84.7717 36.9536 87.5477C38.7036 88.3029 40.6515 88.9123 42.7401 89.3915C38.1567 86.48 36.8807 81.5477 36.8651 81.4904C36.8494 81.4071 36.8963 81.3238 36.9797 81.3029C37.063 81.2769 37.1515 81.3342 37.1724 81.4175C37.188 81.4748 38.5942 86.8915 43.7713 89.6259C45.188 89.9123 46.6672 90.1311 48.1828 90.2977C41.8234 85.4696 41.7036 81.2925 41.7036 81.1102C41.7036 81.0321 41.7609 80.9696 41.839 80.9592L41.4797 80.9488" fill="#8FE8F7"/>
<path d="M107.303 41.1103C107.303 41.1103 96.3078 40.5582 93.1516 52.2353C93.1516 52.2353 89.3026 42.0217 83.662 41.5426C82.0735 45.5634 86.438 56.6051 90.0735 58.5686C90.0735 58.5686 89.8651 59.1467 89.4068 59.9228C87.938 62.3915 83.8964 66.8342 75.8235 60.7457C65.2193 52.7509 35.438 43.9748 26.6932 52.3655C17.9537 60.7613 20.5474 73.9071 25.9901 79.553C26.5162 80.0998 27.5318 80.204 28.011 80.2196C28.1724 80.2301 28.2662 80.2248 28.2662 80.2248C28.3182 80.2509 28.3755 80.303 28.4224 80.3446L41.4797 80.9488L41.8391 80.9592C41.8443 80.954 41.8495 80.9488 41.8547 80.9488H41.8599C41.8651 80.9488 41.8755 80.954 41.8807 80.9592L46.3547 81.0634C46.3391 81.0113 46.3339 80.9801 46.3287 80.9696C46.3078 80.8863 46.3599 80.803 46.4432 80.7821C46.5266 80.7561 46.6151 80.8134 46.636 80.8967C46.636 80.9071 46.6516 80.9748 46.6828 81.0738L56.2662 81.2978C56.2662 81.2978 57.6047 87.9644 61.9693 90.2301C64.8547 89.928 67.7349 89.454 70.5422 88.7769C72.8912 90.9696 75.9641 93.2405 78.5735 93.2405C81.1568 93.2405 80.7349 89.4436 79.7141 85.7509C86.1464 82.9592 91.4537 78.9905 94.2453 73.8394C97.3703 67.6728 96.4693 58.7978 96.4693 58.7978C96.4693 58.7978 107.381 55.053 107.303 41.1103Z" fill="#77DDE8"/>
<path d="M32.4484 80.9904C32.4223 80.9071 32.339 80.855 32.2557 80.8811C32.1723 80.9019 32.1202 80.9852 32.1411 81.0738C32.1567 81.1207 33.0525 84.3602 35.9588 87.0998C36.2817 87.2509 36.615 87.4071 36.9536 87.5477C33.49 84.7717 32.4588 81.0425 32.4484 80.9904Z" fill="white"/>
<path d="M37.1724 81.4175C37.1515 81.3342 37.063 81.2769 36.9797 81.3029C36.8963 81.3237 36.8442 81.4071 36.8651 81.4904C36.8807 81.5529 38.1567 86.48 42.7401 89.3915C43.0838 89.4696 43.4224 89.5529 43.7713 89.6258C38.5942 86.8915 37.188 81.4748 37.1724 81.4175Z" fill="white"/>
<path d="M42.9901 84.0998C42.0422 82.2978 42.0161 81.1155 42.0161 81.105C42.0161 81.0165 41.9432 80.9488 41.8599 80.9488H41.8547C41.7713 80.954 41.7036 81.0217 41.7036 81.1102C41.7036 81.2925 41.8234 85.4696 48.1828 90.2978C48.4015 90.3186 48.6099 90.3498 48.8286 90.3707C45.4849 87.928 43.8026 85.6363 42.9901 84.0998Z" fill="white"/>
<path d="M46.6359 80.8967C46.615 80.8134 46.5265 80.7613 46.4432 80.7821C46.3598 80.803 46.3077 80.8863 46.3286 80.9696C46.3442 81.0373 46.714 82.5634 47.9692 84.6884C48.9223 86.303 50.5786 88.5269 53.1984 90.6207C53.3754 90.6259 53.5421 90.6363 53.714 90.6363C47.9744 86.2144 46.6463 80.954 46.6359 80.8967Z" fill="white"/>
<path d="M51.6099 81.631C51.5891 81.5529 51.5109 81.4956 51.4224 81.5165C51.3391 81.5373 51.287 81.6206 51.3078 81.7092C51.3182 81.7508 52.3339 85.756 57.412 90.5894C57.5578 90.5842 57.6984 90.5738 57.8443 90.5633C52.6411 85.7144 51.6203 81.6779 51.6099 81.631Z" fill="white"/>
<path d="M26.7766 79.954C26.7766 79.954 27.313 79.98 28.2453 80.0217C29.1724 80.0998 30.5109 80.0998 32.0995 80.2144C33.6828 80.3498 35.5474 80.329 37.5214 80.4957C39.5057 80.5582 41.6151 80.7248 43.7297 80.7144C44.787 80.7561 45.8391 80.7978 46.8807 80.8446C47.9172 80.9071 48.9432 80.8915 49.9328 80.8759C50.9224 80.855 51.8807 80.8967 52.7922 80.9227C53.7037 80.9592 54.563 80.9748 55.3599 80.9332C58.5005 80.7769 57.7193 76.5217 58.6516 76.5113C59.5891 76.5217 59.0422 79.178 59.0422 79.178C59.0422 79.178 58.4068 81.2092 56.5422 81.8498C56.0839 82.0061 51.9432 81.704 49.9484 81.7977C48.9484 81.8342 47.9172 81.8707 46.8703 81.829C45.8234 81.8134 44.7609 81.7925 43.6932 81.7717C41.563 81.7405 39.4432 81.5217 37.4484 81.4123C35.4641 81.2092 33.6047 81.053 32.0214 80.8394C28.8547 80.454 26.7557 80.0582 26.7557 80.0582" fill="#302C2B"/>
<path d="M50.9848 77.303C50.9223 77.7196 50.5369 78.0009 50.1203 77.9436C49.7036 77.8811 49.4171 77.4957 49.4796 77.079C49.5421 76.6623 49.9275 76.3759 50.3442 76.4384C50.7609 76.5009 51.0421 76.8863 50.9848 77.303Z" fill="#302C2B"/>
<path d="M48.8234 45.8342C48.8234 45.8342 47.8078 43.1102 42.9797 40.7144C38.1515 38.3238 44.5682 30.6571 47.5422 35.6623C50.5161 40.6727 48.8234 45.8342 48.8234 45.8342Z" fill="#8FE8F7"/>
<path d="M51.7817 47.9644C51.7817 47.9644 52.7973 45.2352 57.6255 42.8446C62.4536 40.454 56.0421 32.7821 53.063 37.7925C50.089 42.7977 51.7817 47.9644 51.7817 47.9644Z" fill="#8FE8F7"/>
</svg>
