<svg width="128" height="128" viewBox="0 0 128 128" fill="none" xmlns="http://www.w3.org/2000/svg">
<path d="M41.9426 67.0726C41.9426 67.0726 38.1249 70.0935 41.9426 71.8174C45.7655 73.5466 50.1978 78.4737 50.078 83.5258C49.953 88.5778 48.1041 92.1508 52.0468 91.4112C55.9947 90.6716 64.0416 80.8122 63.8384 74.0362" fill="#FFD41D"/>
<path d="M66.7136 51.7341C66.7136 51.7341 58.1563 45.9425 59.2292 40.6404C60.3021 35.3435 65.3438 33.255 71.0261 41.63C76.7031 49.9998 78.625 52.2237 78.625 52.2237" fill="#FFD41D"/>
<path d="M69.9166 77.9789C69.9166 77.9789 68.8072 81.1821 66.0936 83.5258C63.3853 85.8643 64.7395 87.9581 70.5311 86.9737C76.3228 85.9893 82.5207 80.3227 82.3801 77.9789C82.2395 75.6404 69.9166 77.9789 69.9166 77.9789Z" fill="black"/>
<path d="M53.2239 54.4633C52.026 54.8226 50.8489 55.1872 49.7291 55.5518C47.6301 60.6247 46.3853 66.0101 47.5885 70.6351C48.2239 70.8122 48.8801 70.9997 49.5833 71.2028C50.3853 71.432 51.2395 71.7237 52.1301 72.0466C50.9114 66.2133 51.1978 59.9997 53.2239 54.4633Z" fill="black"/>
<path d="M83.3438 50.4998C75.1875 48.8435 63.0521 51.505 53.224 54.4633C51.1979 59.9998 50.9063 66.2133 52.1302 72.0466C60.2552 74.9841 71.9011 81.1716 85.5625 81.0623C100.724 80.9373 113.167 69.5987 112.922 66.3956C112.677 63.1925 99.1198 53.7029 83.3438 50.4998Z" fill="#989DA0"/>
<path d="M49.7291 55.5518C42.2968 57.9581 36.8906 60.2341 36.8906 60.2341C33.5624 64.4268 37.9999 68.1247 37.9999 68.1247C37.9999 68.1247 40.8906 68.7445 47.5885 70.6352C46.3854 66.0102 47.6301 60.6247 49.7291 55.5518Z" fill="#989DA0"/>
<path d="M36.8906 60.2341C36.8906 60.2341 23.6979 51.7341 16 50.6248C16 50.6248 15.9427 61.3435 24.9375 66.0258C24.9375 66.0258 20.2552 76.7498 21.3646 83.5258C21.3646 83.5258 37.5833 73.3904 39.5156 68.4789C41.4531 63.5623 36.8906 60.2341 36.8906 60.2341Z" fill="#FF8724"/>
<path d="M102.739 65.4008C102.739 66.3383 102.156 67.0935 101.432 67.0935C100.713 67.0935 100.125 66.3383 100.125 65.4008C100.125 64.4737 100.713 63.7133 101.432 63.7133C102.156 63.7133 102.739 64.4737 102.739 65.4008Z" fill="#161616"/>
<path d="M95.1041 68.2446C93.7187 73.2758 105.141 73.6144 107.781 72.4529C108.203 72.2706 107.87 71.7237 107.495 71.7758C103.417 72.3279 97.2031 72.9164 95.4583 68.2446C95.3958 68.0831 95.1562 68.0571 95.1041 68.2446Z" fill="#161616"/>
</svg>
