<svg width="128" height="128" viewBox="0 0 128 128" fill="none" xmlns="http://www.w3.org/2000/svg">
<path d="M32.4325 47.196C32.4325 47.196 18.6096 51.446 16.3648 42.821C14.1148 34.1908 22.8335 29.8731 27.2033 31.2533C27.2033 31.2533 19.646 35.5397 22.0679 39.6231C24.4846 43.7012 35.62 40.2324 35.62 40.2324L32.6148 46.4668" fill="#CB7A44"/>
<path d="M50.4689 47.196C50.4689 47.196 64.2918 51.446 66.5418 42.821C68.7866 34.1908 60.0679 29.8731 55.6981 31.2533C55.6981 31.2533 63.2554 35.5397 60.8335 39.6231C58.4168 43.7012 47.2866 40.2324 47.2866 40.2324L50.2918 46.4668" fill="#CB7A44"/>
<path d="M47.2866 95.3835L48.8022 95.6283L50.1877 93.248L50.8283 95.9564L53.6981 96.4199L54.37 90.6751C52.3231 90.0814 50.1877 89.7689 48.0991 89.623C47.6512 92.7324 47.2866 95.3835 47.2866 95.3835Z" fill="black"/>
<path d="M49.6095 79.8262C49.4741 80.1283 48.7137 85.3158 48.0991 89.623C50.1877 89.7689 52.3231 90.0814 54.37 90.6751L55.6356 79.8262" fill="#CB7A44"/>
<path d="M55.6357 95.3835L57.1514 95.6283L58.5368 93.248L59.1826 95.9564L62.0524 96.4199L62.7191 90.6751C60.6774 90.0814 58.542 89.7689 56.4482 89.623C56.0055 92.7324 55.6357 95.3835 55.6357 95.3835Z" fill="black"/>
<path d="M57.9587 79.8262C57.8285 80.1283 57.068 85.3158 56.4482 89.623C58.542 89.7689 60.6774 90.0814 62.7243 90.6751L63.9847 79.8262" fill="#CB7A44"/>
<path d="M81.2815 95.3835L82.7971 95.6283L84.1773 93.248L84.8232 95.9564L87.693 96.4199L88.3648 90.6751C86.318 90.0814 84.1825 89.7689 82.0888 89.623C81.6461 92.7324 81.2815 95.3835 81.2815 95.3835Z" fill="black"/>
<path d="M83.5993 79.8262C83.4691 80.1283 82.7087 85.3158 82.0889 89.623C84.1826 89.7689 86.318 90.0814 88.3649 90.6751L89.6305 79.8262" fill="#CB7A44"/>
<path d="M89.6304 95.3835L91.146 95.6283L92.5314 93.248L93.172 95.9564L96.0418 96.4199L96.7137 90.6751C94.6668 90.0814 92.5314 89.7689 90.4429 89.623C90.0002 92.7324 89.6304 95.3835 89.6304 95.3835Z" fill="black"/>
<path d="M91.9533 79.8262C91.8179 80.1283 91.0575 85.3158 90.4429 89.623C92.5314 89.7689 94.6668 90.0814 96.7137 90.6751L97.9793 79.8262" fill="#CB7A44"/>
<path d="M47.2867 51.8209C47.2867 51.8209 45.2294 80.8626 48.5159 86.5657C48.5159 86.5657 51.4534 88.8157 51.7972 82.7636C51.7972 82.7636 55.8232 89.3314 57.094 87.7741C58.3649 86.222 57.7972 81.7272 57.7972 81.7272C57.7972 81.7272 60.9586 88.0813 62.8597 88.0189C64.7607 87.9511 65.4534 81.7272 65.4534 81.7272C65.4534 81.7272 66.8388 88.123 70.1201 87.2584C73.4065 86.3939 73.0576 81.3834 73.0576 81.3834C73.0576 81.3834 75.1357 88.2949 77.5524 87.2584C79.9742 86.222 80.8388 80.8626 80.8388 80.8626C80.8388 80.8626 81.8753 88.123 84.8128 86.9095C87.7503 85.7011 88.9586 80.6907 88.9586 80.6907C88.9586 80.6907 88.9638 89.8105 92.7659 88.0189C96.568 86.222 95.7034 81.0345 95.7034 81.0345C95.7034 81.0345 97.7763 88.6386 99.8492 86.7376C101.922 84.8366 103.136 71.0084 102.792 66.1699C102.443 61.3313 102.443 49.1543 90.8649 48.2428C79.2815 47.3313 59.7086 44.0449 47.2867 51.8209Z" fill="#B76435"/>
<path d="M33.823 41.8001C33.823 41.8001 22.0678 61.1595 29.3282 68.7636C36.5887 76.3678 52.8335 73.6022 55.2553 63.9251C57.6772 54.2428 48.3439 27.623 33.823 41.8001Z" fill="#CB7A44"/>
<path d="M33.2345 42.821C33.2345 42.821 28.2918 50.7897 23.2762 52.6856C18.2658 54.5866 23.2449 59.6335 27.4949 57.196C31.7502 54.7637 33.2345 42.821 33.2345 42.821Z" fill="#CB7A44"/>
<path d="M49.6096 42.821C49.6096 42.821 54.5523 50.7897 59.5627 52.6856C64.5784 54.5866 59.594 59.6335 55.344 57.196C51.094 54.7637 49.6096 42.821 49.6096 42.821Z" fill="#CB7A44"/>
<path d="M97.9793 52.2845C97.9793 52.2845 96.8543 45.6803 102.849 42.8157L103.422 44.6803C103.422 44.6803 99.8491 45.6022 99.2762 53.8991" fill="#B76435"/>
<path d="M102.849 42.821C102.849 42.821 107.573 38.8835 110.453 42.821C113.333 46.7533 110.453 52.3991 110.453 52.3991L108.375 45.7168C108.375 45.7168 108.969 48.7272 107.292 50.3314C105.61 51.9408 105.958 43.9877 103.422 44.6804C100.886 45.3731 102.849 42.821 102.849 42.821Z" fill="#B76435"/>
<path d="M33.5991 60.6595C33.5991 60.6595 35.0679 56.5553 43.2241 58.2741" stroke="black" stroke-width="0.368" stroke-miterlimit="10" stroke-linecap="round"/>
<path d="M46.0785 57.8158C45.8545 58.5866 45.2764 59.097 44.7868 58.9564C44.3025 58.8158 44.0889 58.071 44.3129 57.3001C44.5368 56.5345 45.115 56.0241 45.6045 56.1647C46.0889 56.3106 46.3025 57.0501 46.0785 57.8158Z" fill="black"/>
<path d="M34.8858 56.9928C34.8389 57.8001 34.3858 58.4199 33.8753 58.3939C33.3701 58.3626 33.0003 57.6907 33.0472 56.8887C33.0941 56.0866 33.542 55.4616 34.0524 55.4928C34.5576 55.5241 34.9326 56.1959 34.8858 56.9928Z" fill="black"/>
<path d="M38.0732 61.4616C38.0732 61.4616 35.8024 60.0554 36.969 59.2585C38.1357 58.4564 40.568 58.446 40.5472 59.5866C40.5263 60.7272 38.844 62.0502 38.0732 61.4616Z" fill="black"/>
<path d="M38.4116 60.6595C38.4116 60.6595 38.1355 62.8106 39.7293 63.8522" stroke="black" stroke-width="0.368" stroke-miterlimit="10" stroke-linecap="round"/>
<path d="M37.094 63.8522C37.094 63.8522 40.219 65.3678 41.8127 61.6074" stroke="black" stroke-width="0.368" stroke-miterlimit="10" stroke-linecap="round"/>
<path d="M48.6877 62.2845C48.6877 62.9147 47.5732 63.4303 46.2034 63.4303C44.8284 63.4303 43.719 62.9147 43.719 62.2845C43.719 61.6491 44.8284 61.1387 46.2034 61.1387C47.5732 61.1387 48.6877 61.6491 48.6877 62.2845Z" fill="#F19A94"/>
<path d="M34.8387 62.4355C34.698 63.0605 33.5053 63.3157 32.1668 63.0189C30.823 62.722 29.8491 61.9824 29.9845 61.3626C30.1251 60.7428 31.3178 60.4824 32.6616 60.7845C34.0001 61.0762 34.9741 61.8209 34.8387 62.4355Z" fill="#F19A94"/>
<path d="M34.8856 39.4772C34.8856 39.4772 23.37 44.3678 27.8648 48.3574C32.3595 52.347 34.8856 45.7793 34.8856 45.7793C34.8856 45.7793 35.3231 51.7741 38.396 51.7741C41.4637 51.7741 40.547 44.1647 40.547 44.1647C40.547 44.1647 41.0939 53.0293 45.1929 52.3991C49.297 51.7741 47.2866 45.0813 47.2866 45.0813C47.2866 45.0813 49.7606 53.0449 52.4116 51.3105C55.0523 49.5761 54.5939 42.7845 50.2189 40.1334C45.8387 37.4824 37.7918 38.0865 34.8856 39.4772Z" fill="#B76435"/>
</svg>
