<svg width="128" height="128" viewBox="0 0 128 128" fill="none" xmlns="http://www.w3.org/2000/svg">
<path d="M88.9077 66.3954C88.9077 66.3954 91.939 65.9474 93.6004 61.0412C93.6785 60.8172 93.7515 60.5724 93.8244 60.3224L95.1213 61.9162C95.1213 61.9162 93.2358 67.5308 89.7879 67.8693" fill="#F9DDC0"/>
<path d="M64.2202 32.3954C64.2202 32.3954 63.6681 36.0777 64.2202 41.1923C64.7723 46.3068 64.59 52.9162 65.6629 56.4162C65.6629 56.4162 69.6161 53.9475 70.6994 53.036C71.7827 52.1141 69.9494 45.2027 69.4494 41.3693L67.3661 41.7808L69.1161 39.7027C69.1161 39.7027 71.2827 32.3954 66.6161 27.7704" fill="black"/>
<path d="M68.5223 87.7027C66.2254 87.411 63.9233 86.8589 61.6265 86.3068C61.6838 87.0829 61.7619 88.0308 61.8452 89.0516C63.9858 89.5152 66.215 89.9266 68.4077 90.2339C68.4546 89.3433 68.491 88.4839 68.5223 87.7027Z" fill="black"/>
<path d="M68.0796 94.7339C68.2202 93.2079 68.3296 91.6714 68.4077 90.2339C66.215 89.9266 63.9858 89.5152 61.8452 89.0516C62.0327 91.26 62.2827 93.8902 62.5796 96.2964C64.4129 96.0881 66.2463 95.4631 68.0796 94.7339Z" fill="#F9DDC0"/>
<path d="M62.5796 96.2964C62.6681 97.0152 62.7619 97.7027 62.8608 98.3642C64.4702 97.8798 66.1213 97.0673 67.8921 96.4892C67.9598 95.911 68.0223 95.3225 68.0796 94.7339C66.2463 95.4631 64.4129 96.0881 62.5796 96.2964Z" fill="black"/>
<path d="M64.0327 103.244C64.7358 104.25 66.3244 103.88 66.7567 102.51C67.2619 100.916 67.6265 98.7704 67.8921 96.4891C66.1213 97.0673 64.4702 97.8798 62.8608 98.3641C63.2098 100.734 63.6056 102.635 64.0327 103.244Z" fill="#F9DDC0"/>
<path d="M68.5222 87.7027C68.616 85.0933 68.616 83.2548 68.616 83.2548L61.4597 83.9996C61.4597 83.9996 61.5222 84.9006 61.6264 86.3068C63.9233 86.8589 66.2253 87.411 68.5222 87.7027Z" fill="#F9DDC0"/>
<path d="M80.2983 87.7027C80.392 85.0933 80.392 83.2548 80.392 83.2548L73.241 83.9996C73.241 83.9996 73.2983 84.9006 73.4024 86.3068C73.4597 87.0829 73.5378 88.0308 73.6264 89.0516C73.6368 89.1923 73.6524 89.3433 73.6628 89.4787C75.7305 88.6246 78.0326 88.5048 80.2722 88.3746C80.2826 88.1506 80.2931 87.9162 80.2983 87.7027Z" fill="#F9DDC0"/>
<path d="M79.7514 95.7183C79.7878 95.3902 79.8243 95.0673 79.8556 94.7339C79.9753 93.4423 80.0691 92.1506 80.142 90.911C78.0118 91.4735 76.0066 92.1923 73.8972 92.0516C74.0066 93.161 74.1264 94.2912 74.2566 95.4058C75.9493 95.786 77.9649 95.5256 79.7514 95.7183Z" fill="#F9DDC0"/>
<path d="M79.6681 96.4892C79.6993 96.2339 79.7253 95.9735 79.7514 95.7183C77.9649 95.5256 75.9493 95.786 74.2566 95.4058C74.2931 95.7027 74.3243 96.0048 74.3608 96.2964C74.4076 96.6819 74.4597 97.036 74.5118 97.4058C76.1524 97.9267 77.7983 98.1506 79.4389 98.2392C79.5222 97.6662 79.6003 97.0829 79.6681 96.4892Z" fill="black"/>
<path d="M74.5117 97.4058C74.5534 97.7235 74.5951 98.0569 74.6367 98.3642C74.9857 100.734 75.3815 102.635 75.8138 103.244C76.5169 104.25 78.1003 103.88 78.5326 102.51C78.9076 101.333 79.2044 99.8537 79.4388 98.2392C77.7982 98.1506 76.1523 97.9267 74.5117 97.4058Z" fill="#F9DDC0"/>
<path d="M80.142 90.911C80.1524 90.6923 80.1733 90.4579 80.1837 90.2339C80.2149 89.5933 80.2462 88.9735 80.2722 88.3746C78.0326 88.5048 75.7305 88.6246 73.6628 89.4839C73.7305 90.2964 73.8139 91.1662 73.8972 92.0517C76.0066 92.1923 78.0118 91.4735 80.142 90.911Z" fill="black"/>
<path d="M61.9233 29.7495C61.9233 29.7495 61.9598 29.4318 62.0588 28.911C62.4181 26.9579 63.5744 22.1922 66.4077 21.3849C69.9858 20.3641 68.3452 27.2131 64.2202 32.3954" fill="#F9DDC0"/>
<path d="M50.3503 28.1245C50.3503 28.1245 50.1888 27.8433 49.9597 27.3693C49.0951 25.5829 47.2097 21.0568 49.0117 18.7287C51.2878 15.786 54.0169 22.2756 53.7669 28.8954" fill="#F9DDC0"/>
<path d="M41.8921 27.7704C40.616 27.9891 39.4858 28.2443 38.6213 28.5464C34.6994 29.911 28.34 33.5256 34.6994 41.8433C35.8348 43.3173 38.4702 43.8329 40.6994 44.8589C43.0431 39.4266 43.8088 33.2079 41.8921 27.7704Z" fill="black"/>
<path d="M66.3398 45.4423C66.6003 40.3016 66.7773 35.4579 64.6992 33.1454C64.6992 33.1454 61.6315 27.6923 56.6888 27.1818C52.8346 26.7808 46.4023 27.0048 41.8919 27.7704C43.8086 33.2079 43.043 39.4266 40.6992 44.8589C45.793 47.1923 51.2357 49.3381 51.2357 49.3381C51.2357 49.3381 51.1367 50.5516 51.069 52.4683C56.4232 50.8068 61.7357 48.5412 66.3398 45.4423Z" fill="#F9DDC0"/>
<path d="M66.1734 49.135C61.6213 52.26 56.413 54.4736 51.0015 55.7861C50.9911 57.3069 51.0275 58.9996 51.1109 60.7444C56.3817 60.2183 61.7463 58.7131 66.4702 56.0829C66.1213 53.9788 66.09 51.5881 66.1734 49.135Z" fill="#F9DDC0"/>
<path d="M66.7827 57.635C66.6473 57.1454 66.5588 56.6193 66.4702 56.0829C61.7463 58.7131 56.3817 60.2183 51.1108 60.7443C51.1785 62.1298 51.2931 63.5412 51.4494 64.9371C56.9338 63.7287 62.7619 62.3225 67.5848 59.5152C67.2671 58.9891 66.991 58.3902 66.7827 57.635Z" fill="black"/>
<path d="M69.6941 61.4006C64.9962 66.1141 59.1733 69.7808 53.1003 72.3954C53.142 72.5099 53.1785 72.6349 53.2201 72.7495C53.8555 74.2808 54.3035 75.8329 54.6212 77.3797C62.3712 73.7027 69.3087 68.8589 73.9962 61.9943C72.3816 62.036 70.9076 61.9474 69.6941 61.4006Z" fill="black"/>
<path d="M61.1316 85.8225C59.1889 85.3277 57.2514 85.0621 55.3087 84.7183C55.3087 85.2912 55.3035 85.8433 55.2878 86.3902C57.2358 86.9319 59.1837 87.0256 61.1316 87.5985C61.1316 86.885 61.1316 86.2808 61.1316 85.8225Z" fill="black"/>
<path d="M61.1316 87.5985C59.1837 87.0256 57.2358 86.9319 55.2878 86.3902C55.2201 88.9996 55.017 91.2704 54.991 92.9683H61.1003C61.1212 90.9319 61.1316 89.0412 61.1316 87.5985Z" fill="#F9DDC0"/>
<path d="M61.0952 92.9683H54.991C54.991 93.0777 54.9858 93.2079 54.9858 93.3121C54.9858 93.9683 54.9754 94.7652 54.9702 95.635H61.0483C61.0692 94.7339 61.0848 93.8381 61.0952 92.9683Z" fill="black"/>
<path d="M60.8399 101.536C60.9389 99.7287 61.0066 97.6714 61.0483 95.6349H54.9701C54.9597 96.9683 54.9597 98.4839 55.0014 99.9943C56.8868 100.385 58.892 101.02 60.8399 101.536Z" fill="#F9DDC0"/>
<path d="M55.116 102.38C55.3191 105.333 55.7878 107.807 56.8608 108.135C59.0743 108.817 60.0951 107.114 60.0951 107.114C60.3868 106.614 60.6003 105.02 60.7514 102.906C58.8712 102.812 56.991 102.729 55.116 102.38Z" fill="#F9DDC0"/>
<path d="M60.84 101.536C58.8921 101.02 56.8869 100.385 55.0015 99.9943C55.0223 100.802 55.0588 101.609 55.116 102.38C56.991 102.729 58.866 102.812 60.7515 102.906C60.7827 102.468 60.8088 102.015 60.84 101.536Z" fill="black"/>
<path d="M73.9961 61.9943C69.3086 68.8589 62.3711 73.7027 54.6211 77.3797C55.1471 79.9162 55.3034 82.411 55.3086 84.7183C57.2513 85.062 59.1888 85.3277 61.1315 85.8224C61.1263 85.2131 61.1263 84.8589 61.1263 84.8589C61.1263 84.8589 62.4909 84.661 64.5065 84.4527C71.9544 79.2652 75.4701 70.6922 78.1471 61.8224C76.7096 61.8485 75.3034 61.9631 73.9961 61.9943Z" fill="#F9DDC0"/>
<path d="M78.1472 61.8225C75.4701 70.6923 71.9545 79.2652 64.5066 84.4527C66.6628 84.2235 69.5587 83.9787 72.3399 83.9371C76.3712 77.4058 78.7201 69.7912 80.1681 61.8746C79.491 61.8277 78.8139 61.8121 78.1472 61.8225Z" fill="black"/>
<path d="M84.0378 62.661C83.8555 62.5933 83.6888 62.5204 83.4961 62.4579C82.3971 62.1037 81.2826 61.9475 80.168 61.8746C78.7201 69.7912 76.3711 77.411 72.3398 83.9371C74.4909 83.9006 76.5742 83.9892 78.1836 84.2964C82.6992 78.7652 83.7878 70.4892 84.0378 62.661Z" fill="#F9DDC0"/>
<path d="M84.0378 62.661C83.7878 70.4891 82.6992 78.7652 78.1836 84.2964C79.3503 84.5204 80.2617 84.8589 80.7878 85.3537C85.0846 80.3329 88.6107 74.5048 90.1315 68.1089C89.4648 66.4475 87.8711 64.0673 84.0378 62.661Z" fill="black"/>
<path d="M81.4233 87.2339C83.1003 86.9319 84.8295 86.4944 86.5639 86.0048C86.9128 83.7704 87.3712 83.7652 87.3712 83.7652C87.3712 83.7652 90.9128 75.4162 90.6108 69.9579C90.6108 69.9579 90.5639 69.1819 90.1316 68.1089C88.6108 74.5048 85.0847 80.3329 80.7878 85.3537C81.0014 85.5464 81.1576 85.7652 81.2358 86.0152C81.3295 86.3277 81.3868 86.7444 81.4233 87.2339Z" fill="#F9DDC0"/>
<path d="M86.564 86.0048C84.8296 86.4943 83.1004 86.9318 81.4233 87.2339C81.4442 87.5464 81.4546 87.8954 81.4494 88.2652C83.1108 87.8954 84.7671 87.4579 86.4285 87.0777C86.4702 86.6766 86.5171 86.3173 86.564 86.0048Z" fill="black"/>
<path d="M86.1784 93.1454C86.1784 92.8954 86.1784 92.661 86.1784 92.4266C84.4909 92.5048 82.7826 92.7756 81.1784 92.5308C81.1263 93.0933 81.0586 93.6714 80.9961 94.26C82.6576 94.3381 84.3971 94.26 86.0534 94.3537C86.0951 93.9579 86.1367 93.5621 86.1784 93.1454Z" fill="black"/>
<path d="M86.0535 94.3537C84.3973 94.2599 82.6577 94.3381 80.9963 94.2599C80.8452 95.5412 80.6785 96.8745 80.5171 98.187C82.1265 98.8902 83.7306 99.6297 85.34 100.177C85.5796 98.5412 85.8192 96.6141 86.0535 94.3537Z" fill="#F9DDC0"/>
<path d="M85.3399 100.177C83.7306 99.6298 82.1264 98.8902 80.517 98.1871C80.4024 99.0881 80.293 99.9787 80.1941 100.838C81.7722 101.458 83.3087 102.192 84.9128 102.76C85.0535 101.989 85.1993 101.135 85.3399 100.177Z" fill="black"/>
<path d="M80.1942 100.838C79.6942 105.015 79.4129 108.458 80.2098 108.666C81.6786 109.052 83.3557 111.109 84.9129 102.76C83.314 102.192 81.7723 101.458 80.1942 100.838Z" fill="#F9DDC0"/>
<path d="M81.4493 88.2652C81.4493 89.4579 81.3399 90.9319 81.1785 92.5308C82.7826 92.7756 84.491 92.51 86.1785 92.4267C86.1993 90.0517 86.2931 88.3277 86.4233 87.0777C84.767 87.4579 83.1108 87.9006 81.4493 88.2652Z" fill="#F9DDC0"/>
<path d="M67.5846 59.5152C62.7617 62.3225 56.9336 63.7287 51.4492 64.9371C51.7617 67.6558 52.2773 70.2704 53.1003 72.3954C59.1732 69.7808 64.9961 66.1142 69.694 61.4006C68.8555 61.0256 68.1367 60.4319 67.5846 59.5152Z" fill="#F9DDC0"/>
<path d="M66.34 45.4423C61.7358 48.5412 56.4233 50.8068 51.0692 52.4683C51.0327 53.4162 51.0067 54.5464 51.0015 55.786C56.4129 54.4735 61.6213 52.26 66.1733 49.135C66.215 47.9058 66.2775 46.6662 66.34 45.4423Z" fill="black"/>
<path d="M48.5065 35.9579C48.5065 36.8329 48.0534 37.5464 47.4857 37.5464C46.9232 37.5464 46.4648 36.8329 46.4648 35.9579C46.4648 35.0829 46.9232 34.3798 47.4857 34.3798C48.0534 34.3798 48.5065 35.0829 48.5065 35.9579Z" fill="black"/>
<path d="M36.3712 37.3017C36.2514 37.6923 35.9546 37.9423 35.7046 37.8694C35.4546 37.7912 35.3452 37.411 35.4598 37.0256C35.5796 36.635 35.8817 36.385 36.1317 36.4579C36.3817 36.536 36.491 36.911 36.3712 37.3017Z" fill="#F9DDC0"/>
<path d="M48.3348 43.6193C46.6681 43.76 45.2411 42.9943 45.1525 41.9162C45.064 40.8381 46.3452 39.8537 48.0171 39.7131C49.6838 39.5829 51.1109 40.3433 51.1994 41.4214C51.2879 42.4995 50.0067 43.4839 48.3348 43.6193Z" fill="#F19A94"/>
<path d="M60.1889 22.2964L58.6159 24.7183C58.6159 24.7183 58.4909 23.1402 58.3711 22.0048C54.892 21.6766 51.3191 22.5516 51.017 23.0933C50.5482 23.9423 52.3451 26.9891 52.3451 26.9891V27.3537C59.3347 26.4162 61.9232 29.7496 61.9232 29.7496L63.6316 24.0516C62.7357 23.1662 61.517 22.6141 60.1889 22.2964Z" fill="black"/>
<path d="M94.2253 62.661C94.2253 62.661 90.0222 60.8537 92.0118 58.0777C94.0066 55.3016 93.5586 52.4631 93.5586 52.4631C93.5586 52.4631 100.137 59.9891 94.2253 62.661Z" fill="black"/>
</svg>
