<svg width="128" height="128" viewBox="0 0 128 128" fill="none" xmlns="http://www.w3.org/2000/svg">
<path d="M83.892 89.9333C84.2201 89.5479 84.5326 89.1573 84.8347 88.7562C84.5326 89.1573 84.2201 89.5479 83.892 89.9333ZM82.2358 91.6937C82.5743 91.3656 82.9128 91.0323 83.2358 90.6781C82.9128 91.0323 82.5795 91.3656 82.2358 91.6937ZM78.1003 75.8448C78.1003 75.8448 78.7722 85.1312 79.6681 93.902C80.3243 93.4229 80.9441 92.9073 81.5378 92.3708C81.5118 92.3968 81.4858 92.4229 81.4597 92.4437C80.892 92.9541 80.2931 93.4437 79.6681 93.902C79.9337 96.5218 80.2253 99.0895 80.5222 101.355C81.5483 101.126 82.4858 100.793 83.3347 100.366C84.2931 99.8812 85.1472 99.2718 85.9128 98.5843C85.8868 95.0583 86.2514 90.4698 86.6472 86.1208C86.2358 86.7979 85.7983 87.4489 85.3399 88.0843C85.7983 87.4489 86.2358 86.7979 86.6472 86.1208C87.1212 80.8552 87.6472 75.9437 87.5899 73.6937" fill="#FF8724"/>
<path d="M87.5274 104.662C86.3503 104.631 85.9337 102.152 85.9128 98.5791C85.1472 99.2718 84.2983 99.8812 83.3347 100.366C82.4858 100.793 81.5483 101.126 80.5222 101.355C80.991 104.912 81.4806 107.72 81.9441 108.751C83.6993 112.621 88.3191 110.371 88.767 110.267C89.0274 110.209 89.392 109.944 89.7566 109.563C91.1837 108.079 92.5743 104.777 87.5274 104.662Z" fill="#F9DDC0"/>
<path d="M66.3399 55.5739C66.3399 55.5739 65.6264 56.2875 63.2357 57.626C61.741 58.4645 59.5951 59.5479 56.5378 60.85C51.543 62.9854 47.6368 66.2458 45.1941 69.0895C43.7566 70.7614 42.8243 72.2822 42.4753 73.3447C41.543 76.2145 39.0951 91.4906 42.668 102.756C44.6107 108.892 51.3295 110.136 57.267 110.152C62.2305 110.168 66.6524 109.319 67.2618 109.751C67.7722 110.11 69.392 110.209 71.1732 109.991C69.6159 107.183 69.0535 103.699 69.5378 100.277C69.1941 98.3864 70.1628 95.8031 70.7566 93.9854C79.6055 83.3864 74.6628 71.4958 77.6212 59.9333C78.1368 57.8968 78.8972 55.8708 80.0326 53.8604C80.0743 53.7979 80.116 53.7406 80.1576 53.6833" fill="#FF994D"/>
<path d="M87.9702 57.7197C87.6108 54.7458 87.1837 52.7197 87.1837 52.7197L80.1577 53.6833C80.116 53.7406 80.0743 53.7979 80.0327 53.8604C78.8973 55.8708 78.1368 57.8968 77.6212 59.9333C74.6629 71.4958 79.6056 83.3864 70.7566 93.9906C70.116 95.9385 69.0535 98.7666 69.6316 100.673C69.59 100.548 69.5587 100.412 69.5379 100.277C69.0535 103.699 69.616 107.183 71.1733 109.991C74.0535 109.631 72.3348 109.834 72.0379 107.574C71.5535 103.923 72.2514 104.313 72.2514 104.313L72.8035 102.912L73.7723 100.485C75.1316 96.8239 77.4233 92.3552 81.2358 88.0375C85.0483 83.7197 85.9337 81.1677 87.7775 72.7302C88.8556 67.8187 88.4754 61.8552 87.9702 57.7197Z" fill="#F9DDC0"/>
<path d="M43.8711 97.4541C42.3399 96.8708 41.0586 96.0947 39.9909 95.1677C35.9076 91.6416 34.9388 85.8031 35.5222 78.7458C36.2617 69.8395 41.3034 62.9697 44.2878 57.5479C44.5117 57.1364 44.7253 56.6833 44.9284 56.2093C42.1784 55.7041 39.4909 54.6989 37.1524 53.2614C35.2357 60.0895 29.0013 61.9541 28.0482 78.7979C27.2305 93.35 37.0117 100.647 42.5482 103.59C44.694 104.73 46.2045 105.215 46.2045 105.215" fill="#FF8724"/>
<path d="M44.9493 37.2979C41.4336 33.9385 37.4753 36.9229 37.7097 48.4333C37.7513 50.3447 37.5378 51.902 37.1576 53.2614C39.4961 54.6989 42.1784 55.7041 44.9284 56.2093C47.4232 50.4281 48.2045 40.4072 44.9493 37.2979Z" fill="#FFECD6"/>
<path d="M75.0118 108.949C77.0743 112.668 83.0118 110.465 83.1264 110.017C83.142 109.97 83.1889 109.871 83.2618 109.73C83.866 108.522 86.0899 104.225 80.241 104.423C79.642 104.438 79.1368 103.626 78.7201 102.23C76.9493 102.735 75.1264 103.063 73.3347 103.256C73.9597 106.006 74.5483 108.116 75.0118 108.949Z" fill="#F9DDC0"/>
<path d="M76.6316 66.5947C76.6941 61.5531 74.4389 57.2406 70.0379 59.8291C69.9233 59.8968 69.8139 59.9489 69.6941 60.027C65.0639 63.0583 68.491 76.4749 68.491 76.4749C68.491 76.4749 70.465 89.2093 72.392 98.8239C72.715 100.418 73.0275 101.907 73.3347 103.256C75.1264 103.063 76.9493 102.735 78.7202 102.23C78.5639 101.725 78.4233 101.147 78.2879 100.496C76.5222 91.7927 76.5743 71.2718 76.6316 66.5947Z" fill="#FF994D"/>
<path d="M52.8816 90.0635C52.8816 90.0635 66.8295 76.6625 68.1316 87.8968C69.4337 99.1416 68.7097 103.392 68.7097 103.392C68.7097 103.392 72.8972 102.657 73.5118 106.824C74.1212 110.996 71.4597 110.892 67.1837 110.204C62.9076 109.517 54.8451 116.798 52.8816 90.0635Z" fill="#FF994D"/>
<path d="M53.1472 29.5114C53.1993 37.7406 56.9701 40.7979 56.9701 40.7979C57.1003 39.2614 57.6888 37.8812 58.4961 36.6781C56.6003 32.9177 55.7409 28.527 55.4649 24.1989C54.8399 24.0843 53.1107 24.2406 53.1472 29.5114Z" fill="#FF8724"/>
<path d="M64.9858 31.152C60.1577 26.1312 55.6889 24.2614 55.6889 24.2614C55.6889 24.2614 55.6056 24.225 55.465 24.1989C55.741 28.527 56.6004 32.9177 58.4962 36.6781C60.8348 33.1781 64.9858 31.152 64.9858 31.152Z" fill="#FF8724"/>
<path d="M63.9232 32.3708C59.7982 28.4593 55.9701 27.0062 55.9701 27.0062C55.9701 27.0062 55.8972 26.9802 55.7826 26.9593C56.017 30.3291 56.7461 33.751 58.3711 36.6781C60.3711 33.9489 63.9232 32.3708 63.9232 32.3708Z" fill="#F9DDC0"/>
<path d="M66.8348 27.5062C63.9962 28.777 60.2931 31.0687 58.267 34.8552C57.8973 35.5479 57.5743 36.2875 57.3295 37.0791C57.2566 37.3291 57.1889 37.5739 57.1264 37.8291C56.3608 41.0479 57.5952 40.8812 56.7931 46.2562C56.1733 50.4333 58.7775 55.2406 64.3452 57.3395C65.2306 56.6416 66.2045 56.001 67.1733 55.3447C68.5587 54.402 69.9181 53.4229 70.9545 52.1937C76.1941 43.5427 72.4389 34.7614 66.8348 27.5062Z" fill="#FF994D"/>
<path d="M92.6784 48.8083C79.5482 46.4958 81.2045 33.6312 76.6472 24.85C74.8711 25.0166 72.892 25.4229 70.6784 26.152C70.6784 26.152 69.0118 26.5322 66.8347 27.5062C72.4388 34.7614 76.1941 43.5427 70.9545 52.1937C69.918 53.4229 68.5586 54.402 67.1732 55.3447C66.2045 56.001 65.2305 56.6416 64.3451 57.3395C65.9441 57.9385 67.767 58.3291 69.8399 58.402C78.2409 58.7093 88.4232 56.2458 93.8555 48.9854C93.4493 48.9333 93.0586 48.876 92.6784 48.8083Z" fill="#F9DDC0"/>
<path d="M82.6368 16.001C82.0482 16.0218 81.4232 16.3343 80.767 17.0479C77.5795 20.4802 77.1159 26.2666 77.2618 26.2822C78.6524 26.3968 79.9284 26.7406 81.0847 27.1989C80.7045 23.1989 81.2045 19.5114 82.6368 16.001Z" fill="#FF8724"/>
<path d="M82.6368 16.001C81.2045 19.5114 80.7045 23.1989 81.0847 27.1989C85.1576 28.8083 87.668 31.8812 87.668 31.8812C87.668 31.8812 88.2461 32.527 87.3399 25.7927C86.6159 20.4437 84.9076 15.9229 82.6368 16.001Z" fill="#FF8724"/>
<path d="M81.8243 18.3968C80.9597 21.1625 80.7513 24.1572 81.168 27.4958C84.0586 29.1885 85.918 31.9541 85.918 31.9541C85.918 31.9541 86.3399 32.5375 85.4545 26.8968C84.7565 22.4177 83.392 18.5375 81.8243 18.3968Z" fill="#F9DDC0"/>
<path d="M91.9076 34.7979C90.9753 32.725 87.8972 23.8083 76.6472 24.85C81.3399 33.8864 79.4441 47.2458 93.8503 48.9854C94.4545 48.1833 95.0118 47.3343 95.491 46.4125C96.9545 42.4958 92.9858 37.2041 91.9076 34.7979Z" fill="#FF994D"/>
<path d="M72.0691 47.1729C72.0691 47.1729 63.5795 46.9229 56.5535 51.5114" stroke="#231F20" stroke-width="0.238667" stroke-miterlimit="10" stroke-linecap="round" stroke-linejoin="round"/>
<path d="M72.0743 48.2822C72.0743 48.2822 67.1472 48.225 60.2253 51.9437" stroke="#231F20" stroke-width="0.238667" stroke-miterlimit="10" stroke-linecap="round" stroke-linejoin="round"/>
<path d="M70.8608 49.2979C70.8608 49.2979 63.8348 51.3343 59.2306 55.3135" stroke="#231F20" stroke-width="0.238667" stroke-miterlimit="10" stroke-linecap="round" stroke-linejoin="round"/>
<path d="M85.1785 44.2406C85.1785 44.2406 92.5899 40.0895 100.944 40.9125" stroke="#231F20" stroke-width="0.238667" stroke-miterlimit="10" stroke-linecap="round" stroke-linejoin="round"/>
<path d="M85.6888 45.225C85.6888 45.225 90.0326 42.8968 97.8868 42.9906" stroke="#231F20" stroke-width="0.238667" stroke-miterlimit="10" stroke-linecap="round" stroke-linejoin="round"/>
<path d="M87.2357 45.5635C87.2357 45.5635 94.4076 44.1208 100.329 45.5218" stroke="#231F20" stroke-width="0.238667" stroke-miterlimit="10" stroke-linecap="round" stroke-linejoin="round"/>
<path d="M85.0222 41.1625C85.1941 41.7406 85.7462 42.0791 86.2514 41.9333C86.7566 41.7822 87.0274 41.1937 86.8556 40.6156C86.6837 40.0375 86.1368 39.6937 85.6316 39.8447C85.1212 39.9958 84.8503 40.5843 85.0222 41.1625Z" fill="#212121"/>
<path d="M69.168 45.3395C69.3347 45.9125 69.892 46.2614 70.392 46.1104C70.8972 45.9593 71.168 45.3708 71.0014 44.7927C70.8243 44.2145 70.2774 43.8708 69.7722 44.0218C69.267 44.1729 68.9961 44.7614 69.168 45.3395Z" fill="#212121"/>
<path d="M78.6368 44.9645C78.6368 44.9645 80.4128 43.6677 80.0639 42.7718C79.7149 41.876 75.8087 42.626 76.5743 43.8083C77.3451 44.9958 78.4701 45.0999 78.6368 44.9645Z" fill="#212121"/>
<path d="M76.4284 46.1937C76.6472 47.0479 77.6472 46.7927 78.0378 46.3916C78.4024 46.0218 78.4961 45.4645 78.293 44.85C78.2826 44.8291 78.3138 44.8135 78.3243 44.7979C78.3347 44.777 78.3399 44.7614 78.3555 44.7458C78.3763 44.7197 78.4024 44.6989 78.4284 44.6833C78.4493 44.6677 78.4649 44.6625 78.4909 44.652C78.5118 44.6468 78.5326 44.6468 78.5534 44.6468C78.5899 44.6416 78.6211 44.6468 78.6576 44.6572C78.6732 44.6625 78.6888 44.6729 78.7045 44.6833C78.7253 44.6937 78.7461 44.6937 78.767 44.7093C79.0743 44.9906 78.6941 45.3552 79.5691 45.7718C80.392 46.1625 80.9857 45.475 81.043 44.8656C81.0691 44.5895 81.2774 44.4541 81.3607 44.751C81.6159 45.626 80.8816 46.2822 80.0586 46.3343C79.6941 46.3604 79.2305 46.1937 78.8659 45.9229C78.7253 46.3083 78.4701 46.6572 78.2045 46.8447C77.4909 47.3447 76.418 47.225 76.1368 46.3083C76.0482 46.0114 76.3607 45.9281 76.4284 46.1937Z" fill="#212121"/>
</svg>
