<svg width="128" height="128" viewBox="0 0 128 128" fill="none" xmlns="http://www.w3.org/2000/svg">
<path d="M58.3009 97.4547C58.0197 94.9495 57.4988 92.3141 57.4988 92.3141C57.4988 92.3141 56.4103 91.1214 55.3842 91.8193L55.1134 96.5902L54.9051 100.293C54.9051 100.293 47.1811 100.095 46.3061 101.028C45.4363 101.96 47.228 102.996 47.228 102.996C47.228 102.996 46.1134 103.569 46.3634 104.293C46.7072 105.272 48.0353 105.601 48.0353 105.601C48.0353 105.601 47.129 106.184 47.9363 107.408C48.7488 108.632 52.6082 107.022 54.978 105.403C57.353 103.783 57.9311 103.387 58.3894 101.236C58.5561 100.423 58.4728 98.9652 58.3009 97.4547Z" fill="#FF994D"/>
<path d="M54.9779 101.319C54.9779 101.319 49.5144 101.345 48.655 101.814C47.7956 102.288 47.655 102.814 49.8737 102.595C52.0925 102.371 56.4206 101.293 54.9779 101.319Z" fill="#FF8724"/>
<path d="M55.2227 102.632C55.2227 102.632 50.0717 104.465 49.4154 105.194C48.7592 105.924 48.806 106.47 50.8269 105.522C52.8477 104.58 56.5717 102.132 55.2227 102.632Z" fill="#FF8724"/>
<path d="M70.7175 97.4547C70.431 94.9495 69.9102 92.3141 69.9102 92.3141C69.9102 92.3141 68.8216 91.1214 67.7956 91.8193L67.5248 96.5902L67.3164 100.293C67.3164 100.293 59.5925 100.095 58.7227 101.028C57.8477 101.96 59.6393 102.996 59.6393 102.996C59.6393 102.996 58.5248 103.569 58.78 104.293C59.1185 105.272 60.4466 105.601 60.4466 105.601C60.4466 105.601 59.5404 106.184 60.3529 107.408C61.1602 108.632 65.0196 107.022 67.3946 105.403C69.7643 103.783 70.3477 103.387 70.8008 101.236C70.9675 100.423 70.8893 98.9652 70.7175 97.4547Z" fill="#FF994D"/>
<path d="M67.3946 101.319C67.3946 101.319 61.9258 101.345 61.0664 101.814C60.2071 102.288 60.0716 102.814 62.2904 102.595C64.5091 102.371 68.8321 101.293 67.3946 101.319Z" fill="#FF8724"/>
<path d="M67.6341 102.632C67.6341 102.632 62.4883 104.465 61.8321 105.194C61.1758 105.924 61.2175 106.47 63.2383 105.522C65.2591 104.58 68.9831 102.132 67.6341 102.632Z" fill="#FF8724"/>
<path d="M49.8946 50.9339C49.5144 50.9339 49.155 50.9235 48.8061 50.9027C49.1498 50.9183 49.5144 50.9339 49.8946 50.9339ZM55.7905 50.2985C55.8686 50.2777 55.9519 50.2568 56.0248 50.236C55.9519 50.2568 55.8686 50.2777 55.7905 50.2985ZM53.8998 50.6579C54.03 50.6422 54.155 50.6214 54.2905 50.6006C54.155 50.6214 54.03 50.6422 53.8998 50.6579ZM52.3998 50.8454C52.5144 50.835 52.629 50.8193 52.7436 50.8089C52.629 50.8193 52.5144 50.835 52.3998 50.8454ZM50.7332 50.9339C50.8425 50.9287 50.9467 50.9287 51.0613 50.9235C50.9467 50.9287 50.8425 50.9287 50.7332 50.9339ZM57.353 49.8558C57.4884 49.8089 57.629 49.762 57.7696 49.7152C57.629 49.762 57.4884 49.8089 57.353 49.8558ZM97.0769 70.5641C98.6759 66.5172 96.3478 66.0797 96.3478 66.0797C98.3686 62.1943 95.5248 61.6475 95.5248 61.6475C96.5144 57.71 91.478 58.3662 78.7905 62.7412C66.0978 67.1162 60.03 61.4287 58.6603 59.2412C58.0717 58.2933 58.2176 55.9235 58.6082 53.2672C58.8113 51.9079 59.0769 50.4704 59.3373 49.1058C59.7488 46.9912 60.1498 45.0537 60.3009 43.8714C60.5509 41.9027 61.353 38.7777 61.5196 35.3193C61.6394 32.7152 61.405 29.9287 60.3009 27.2985C58.2228 22.3402 51.478 18.7985 44.754 20.3818C43.1707 20.7568 41.5873 21.4131 40.0665 22.4027C34.0092 26.3402 33.5978 34.085 35.6915 39.3402C36.353 41.0172 37.2696 42.4391 38.3425 43.4079C42.7748 47.3975 47.0092 46.4964 47.0092 46.4964C47.8686 46.1162 48.0613 48.1422 47.1186 50.7725C47.504 50.8141 47.9415 50.8558 48.3998 50.8818C47.9363 50.8558 47.504 50.8141 47.1186 50.7725C46.978 51.1579 46.8165 51.5589 46.629 51.9652C46.1394 53.0172 45.4832 54.1891 44.78 55.3922C43.353 57.8245 41.7384 60.361 40.9415 62.1943C40.2488 63.7777 38.3009 67.6422 37.879 72.96C37.6186 76.2881 37.9519 80.1839 39.5717 84.4547C42.3165 90.4912 46.4363 91.3975 49.4155 92.4964C60.5092 96.5902 72.5196 95.611 79.9519 93.8193C82.1498 93.2881 84.4259 92.2777 88.1967 90.0902C91.9728 87.9027 91.3686 85.9339 91.3686 85.9339C95.6915 82.8141 94.1603 81.335 94.1603 81.335C95.4155 79.9079 95.9415 78.7881 96.129 77.96C96.3998 76.7256 95.9103 76.1422 95.9103 76.1422C99.629 70.9443 97.0769 70.5641 97.0769 70.5641Z" fill="#FFD41D"/>
<path d="M32.2435 47.5537C32.2435 47.5537 33.3373 49.5225 36.7279 48.5381C40.1185 47.5537 42.9102 45.8037 43.181 44.2152C43.4571 42.6318 41.1029 42.5797 41.1029 42.5797" fill="#FF8724"/>
<path d="M40.6134 41.9756C39.9207 41.7672 39.6811 40.9391 39.1342 39.512C38.5873 38.0902 37.0561 37.8193 36.2384 37.9808C35.4154 38.1475 34.8113 39.8975 34.4311 40.9912C34.0509 42.085 33.0092 43.6683 31.8582 44.111C30.7123 44.5485 29.0717 46.0797 30.655 47.4443C32.2436 48.8141 34.879 48.085 36.6342 47.085C38.5665 45.9756 41.4832 43.6683 42.1967 42.5225C42.9102 41.3766 41.0144 42.0954 40.6134 41.9756Z" fill="#FF994D"/>
<path d="M45.9362 36.0641C46.3529 36.7516 46.1654 37.6214 45.5248 38.0068C44.8894 38.387 44.03 38.1422 43.6185 37.4547C43.2071 36.7672 43.3894 35.8975 44.03 35.512C44.6706 35.1318 45.5248 35.3766 45.9362 36.0641Z" fill="black"/>
<path d="M92.4624 66.6787C92.4624 66.6787 93.9936 63.0693 90.4988 63.0693C89.7957 63.0693 88.9832 63.085 88.103 63.0902C87.1186 63.0954 86.0509 63.0902 84.9311 63.0381C83.978 62.9912 82.9988 62.9131 82.0144 62.7829C80.6967 62.6006 79.379 62.3245 78.1342 61.8922C77.4936 61.6683 76.8686 61.4079 76.2749 61.1006C76.2749 61.1006 74.3478 59.8558 71.5717 58.6579C67.2332 56.7829 60.8113 55.0277 56.4728 58.3662C54.2801 60.0537 53.0249 62.7412 52.7384 65.762C52.3269 70.1683 53.9884 75.2881 57.8217 79.0537C59.2176 80.4235 60.8947 81.6058 62.8634 82.5225C63.8061 82.9547 64.8061 83.335 65.8842 83.637C68.004 84.2256 69.9676 84.6214 71.7905 84.8662C75.0405 85.2985 77.8113 85.236 80.0926 84.8922C81.9832 84.6058 83.5457 84.1266 84.7749 83.5745C86.6134 82.7464 87.7176 81.7568 88.0874 81.012C88.0874 81.012 89.6186 81.4495 90.603 78.3818C90.603 78.3818 92.6863 77.7256 92.2436 74.7725C92.2436 74.7725 92.2749 74.7308 92.3165 74.6527C92.5926 74.1787 93.5509 72.335 92.7905 70.8297C92.7905 70.8297 93.7749 67.4443 92.4624 66.6787Z" fill="#FFBA1F"/>
<path d="M52.2592 38.0902C52.7175 38.9443 51.6707 40.3922 49.9259 41.3193C48.1811 42.2412 46.3998 42.2985 45.9467 41.4391C45.4884 40.585 46.5352 39.137 48.28 38.21C50.0248 37.2829 51.8061 37.2308 52.2592 38.0902Z" fill="#F9A0A0"/>
</svg>
