<svg width="128" height="128" viewBox="0 0 128 128" fill="none" xmlns="http://www.w3.org/2000/svg">
<path d="M23.0054 82.9076C23.0054 82.9076 21.271 93.6055 22.4742 94.8087C23.6721 96.0118 28.8804 95.3451 30.8856 94.8087L32.2763 80.9909" fill="#84898C"/>
<path d="M61.0472 33.2722C61.0472 33.2722 11.542 26.3295 9.59926 44.8816C7.65655 63.4389 7.52114 88.267 8.98989 95.2097C8.98989 95.2097 14.8649 96.6784 18.3336 95.2097L18.6045 82.6628C18.6045 82.6628 44.9013 84.3972 56.3805 82.6628C56.3805 82.6628 56.3805 94.7774 57.0472 95.8607C57.0472 95.8607 61.4534 96.5118 65.7191 95.8607V83.1941C65.7191 83.1941 71.4586 80.793 72.2659 82.392C73.0628 83.9962 72.2659 96.1524 72.2659 96.1524C72.2659 96.1524 77.2034 97.2253 80.6722 96.1524C80.6722 96.1524 79.3441 82.5274 80.6722 80.9232C82.0107 79.3243 83.2086 77.3191 86.8128 81.1889C90.417 85.0639 98.693 88.9337 107.104 87.6003C115.516 86.267 119.787 74.6524 119.917 66.7774C119.974 62.2357 119.917 61.168 119.917 61.168C119.917 61.168 116.047 59.6993 113.511 60.9024C113.511 60.9024 114.313 77.5847 104.302 78.6576C94.2868 79.7253 95.792 63.3034 95.792 63.3034C95.792 63.3034 99.4951 40.8764 87.7503 35.6732C76.0003 30.4649 61.0472 33.2722 61.0472 33.2722Z" fill="#989DA0"/>
<path d="M71.0627 40.6107C71.0627 40.6107 53.9741 34.7409 47.5679 45.2826C41.1616 55.8295 44.6304 69.9805 54.9064 72.2462C65.1877 74.517 68.6616 68.2462 70.2606 61.168C71.8648 54.0951 71.0627 40.6107 71.0627 40.6107Z" fill="#84898C"/>
<path d="M79.3284 64.142C79.3284 65.2305 78.693 66.1107 77.9065 66.1107C77.12 66.1107 76.4846 65.2305 76.4846 64.142C76.4846 63.0534 77.12 62.1732 77.9065 62.1732C78.693 62.1732 79.3284 63.0534 79.3284 64.142Z" fill="black"/>
<path d="M72.2659 96.1524C72.2659 96.1524 73.8648 91.6055 75.469 92.1368C77.068 92.6732 76.6669 96.6264 76.6669 96.6264C76.6669 96.6264 77.3388 90.1368 79.3388 91.3347C81.344 92.5378 80.6721 96.1524 80.6721 96.1524C80.6721 96.1524 77.3388 97.3607 72.2659 96.1524Z" fill="#F9DDC0"/>
<path d="M57.0522 96.1524C57.0522 96.1524 58.6512 91.6055 60.2554 92.1368C61.8595 92.6732 61.4585 96.6264 61.4585 96.6264C61.4585 96.6264 62.1252 90.1368 64.1252 91.3347C66.1304 92.5378 65.4637 96.1524 65.4637 96.1524C65.4637 96.1524 62.1252 97.3607 57.0522 96.1524Z" fill="#F9DDC0"/>
<path d="M22.4741 94.8087C22.4741 94.8087 24.0731 90.2618 25.6772 90.7982C27.2762 91.3295 26.8804 95.2826 26.8804 95.2826C26.8804 95.2826 27.547 88.793 29.547 89.9962C31.5522 91.1993 30.8856 94.8087 30.8856 94.8087C30.8856 94.8087 27.547 96.0222 22.4741 94.8087Z" fill="#F9DDC0"/>
<path d="M9.59912 95.7462C9.59912 95.7462 11.1981 91.1993 12.8022 91.7357C14.4012 92.267 14.0002 96.2201 14.0002 96.2201C14.0002 96.2201 14.672 89.7305 16.672 90.9337C18.6772 92.1316 18.0106 95.7462 18.0106 95.7462C18.0106 95.7462 14.672 96.9545 9.59912 95.7462Z" fill="#F9DDC0"/>
<path d="M79.8805 71.8659C79.8805 73.3034 77.9535 74.4701 75.5732 74.4701C73.193 74.4701 71.2607 73.3034 71.2607 71.8659C71.2607 70.4284 73.193 69.267 75.5732 69.267C77.9535 69.267 79.8805 70.4284 79.8805 71.8659Z" fill="#F9A0A0"/>
</svg>
