<svg width="128" height="128" viewBox="0 0 128 128" fill="none" xmlns="http://www.w3.org/2000/svg">
<path d="M37.0441 59.8588C37.0441 59.8588 31.2993 58.0515 29.341 63.3119C27.3879 68.5776 34.3045 83.1661 37.9139 89.1817C37.9139 89.1817 33.1743 91.7911 34.4556 92.739C35.7316 93.6922 37.9139 91.5099 37.9139 91.5099C37.9139 91.5099 34.9087 96.4005 36.4087 96.7755C37.9139 97.1505 40.4712 92.739 40.4712 92.739C40.4712 92.739 40.617 97.0463 42.4243 96.7963C44.2316 96.5463 43.2525 92.0359 43.2525 92.0359C43.2525 92.0359 44.3775 95.8744 46.3358 94.8953C48.2941 93.9161 46.3358 89.7078 46.3358 89.7078" fill="#7BBFAD"/>
<path d="M91.5596 60.1661C91.5596 60.1661 97.3044 58.364 99.2628 63.6244C101.216 68.8901 94.2992 83.4734 90.6898 89.489C90.6898 89.489 95.4242 92.0984 94.1482 93.0515C92.8669 93.9994 90.6898 91.8224 90.6898 91.8224C90.6898 91.8224 93.695 96.7078 92.195 97.0828C90.6898 97.4578 88.1325 93.0515 88.1325 93.0515C88.1325 93.0515 87.9815 97.3536 86.1794 97.1088C84.3721 96.8588 85.3513 92.3484 85.3513 92.3484C85.3513 92.3484 84.2211 96.1817 82.268 95.2078C80.3148 94.2286 82.268 90.0151 82.268 90.0151" fill="#7BBFAD"/>
<path d="M88.0336 46.4734C88.0336 46.4734 94.1481 37.1505 86.57 31.2338C77.4034 25.2182 72.9919 32.4369 72.9919 40.0567C72.9919 40.0567 67.8409 39.4526 64.2992 39.8536C60.7627 39.4526 55.6117 40.0567 55.6117 40.0567C55.6117 32.4369 51.2002 25.2182 42.0336 31.2338C34.4554 37.1505 40.57 46.4734 40.57 46.4734C29.544 59.5047 38.2211 80.3432 44.6898 87.5619C51.1586 94.7807 64.2992 94.0932 64.2992 94.0932C64.2992 94.0932 77.445 94.7807 83.9138 87.5619C90.3773 80.3432 99.0596 59.5047 88.0336 46.4734Z" fill="#8DCEBF"/>
<path d="M48.5181 76.8484L49.7993 91.963C49.7993 91.963 45.3566 94.9682 46.4868 96.0255C47.6118 97.0776 50.7681 93.6192 50.7681 93.6192C50.7681 93.6192 50.6223 98.5047 51.7473 98.5047C52.8775 98.5047 52.9504 94.114 52.9504 94.114C52.9504 94.114 55.8098 98.7286 57.0129 97.9005C58.216 97.0776 56.1275 93.3797 56.1275 93.3797C56.1275 93.3797 59.6431 96.6245 60.3983 95.8745C61.1483 95.1192 57.315 90.9109 57.315 90.9109L53.9296 76.2495" fill="#8DCEBF"/>
<path d="M51.747 98.8067C51.6116 98.8067 51.4137 98.7651 51.221 98.5672C50.57 97.8953 50.471 95.5984 50.4606 94.3692C49.6637 95.1557 48.1637 96.4786 47.0856 96.5203C46.7522 96.5411 46.4918 96.4422 46.2783 96.2442C46.0804 96.0515 45.9814 95.8015 46.0022 95.5203C46.1064 94.2494 48.7627 92.3172 49.4814 91.8119L48.2158 76.8744C48.2002 76.7078 48.3252 76.5619 48.4918 76.5515C48.6793 76.5359 48.7991 76.6609 48.8147 76.8224L50.096 91.9369C50.1064 92.0463 50.0543 92.1505 49.9658 92.213C48.7002 93.0672 46.6689 94.739 46.6064 95.5672C46.596 95.6661 46.622 95.739 46.6897 95.8015C46.7835 95.8901 46.8929 95.9317 47.0595 95.9213C48.0804 95.8797 49.9241 94.0984 50.5491 93.4161C50.6325 93.3224 50.7679 93.2859 50.8825 93.338C51.0022 93.3849 51.0752 93.4994 51.0752 93.6244C51.0283 95.0932 51.1481 97.6244 51.6533 98.1505C51.7106 98.2026 51.7366 98.2026 51.747 98.2026C52.1845 98.2026 52.6168 96.2494 52.6533 94.1036C52.6533 93.9734 52.747 93.8588 52.872 93.8224C53.0022 93.7859 53.1377 93.838 53.2106 93.9526C53.8095 94.9213 55.5804 97.4786 56.5856 97.6922C56.7262 97.7182 56.7991 97.6817 56.8408 97.6557C57.5127 97.1922 56.6741 94.963 55.8668 93.5307C55.7939 93.4005 55.8252 93.239 55.9397 93.1453C56.0595 93.0567 56.221 93.0619 56.3304 93.1609C58.195 94.8744 59.9293 95.9161 60.1845 95.6609C60.4189 95.3172 58.945 93.1453 57.0908 91.1088C57.0543 91.0724 57.0335 91.0255 57.0231 90.9786L53.6377 76.3172C53.6012 76.1505 53.7002 75.989 53.8616 75.9526C54.0335 75.9161 54.1845 76.0151 54.221 76.1765L57.5908 90.7651C59.096 92.4265 61.4293 95.2651 60.6116 96.0828C59.971 96.7234 58.3304 95.6244 57.0647 94.5932C57.6012 95.8432 58.0908 97.5255 57.1845 98.1505C56.9814 98.2911 56.7262 98.3328 56.4606 98.2755C55.3981 98.0567 53.9762 96.1765 53.2158 95.0619C53.1168 96.5411 52.7991 98.8067 51.747 98.8067Z" fill="#7BBFAD"/>
<path d="M49.7992 38.1609C49.7992 40.2599 48.3826 41.9578 46.6378 41.9578C44.893 41.9578 43.4763 40.2599 43.4763 38.1609C43.4763 36.0672 44.893 34.364 46.6378 34.364C48.3826 34.364 49.7992 36.0672 49.7992 38.1609Z" fill="black"/>
<path d="M80.0856 76.8484L78.8044 91.963C78.8044 91.963 83.2471 94.9682 82.1169 96.0255C80.9919 97.0776 77.8304 93.6192 77.8304 93.6192C77.8304 93.6192 77.9815 98.5047 76.8513 98.5047C75.7263 98.5047 75.6481 94.114 75.6481 94.114C75.6481 94.114 72.794 98.7286 71.5908 97.9005C70.3877 97.0776 72.4763 93.3797 72.4763 93.3797C72.4763 93.3797 68.9606 96.6245 68.2054 95.8745C67.4554 95.1192 71.2888 90.9109 71.2888 90.9109L74.6742 76.2495" fill="#8DCEBF"/>
<path d="M76.8514 98.8067C75.8045 98.8067 75.4868 96.5411 75.3879 95.0619C74.6274 96.1765 73.2056 98.0567 72.1431 98.2755C71.8722 98.3328 71.6222 98.2911 71.4191 98.1505C70.5129 97.5255 71.0024 95.8432 71.5389 94.5932C70.2733 95.6244 68.6379 96.7234 67.9972 96.0828C67.1743 95.2651 69.5076 92.4265 71.0129 90.7651L74.3826 76.1765C74.4191 76.0151 74.5754 75.9161 74.742 75.9526C74.9035 75.989 75.0024 76.1505 74.966 76.3172L71.5806 90.9786C71.5701 91.0255 71.5493 91.0724 71.5129 91.1088C69.6587 93.1453 68.1847 95.3172 68.4191 95.6609C68.7056 95.9369 70.5701 94.7286 72.2733 93.1609C72.3774 93.0619 72.5493 93.0567 72.6639 93.1453C72.7785 93.239 72.8097 93.4005 72.7368 93.5307C71.9295 94.963 71.091 97.1922 71.7629 97.6557C71.8045 97.6817 71.8826 97.7182 72.0181 97.6922C73.0233 97.4786 74.7993 94.9213 75.3931 93.9526C75.466 93.838 75.6014 93.7859 75.7316 93.8224C75.8566 93.8588 75.9504 93.9734 75.9504 94.1036C75.9868 96.2494 76.4191 98.2026 76.8514 98.2026C76.867 98.2026 76.8931 98.2026 76.9504 98.1505C77.4608 97.6244 77.5754 95.0932 77.5285 93.6244C77.5285 93.4994 77.6014 93.3849 77.7212 93.338C77.8306 93.2859 77.9712 93.3224 78.0545 93.4161C78.6795 94.0984 80.5233 95.8797 81.5441 95.9213C81.716 95.9317 81.8201 95.8901 81.9139 95.8015C81.9816 95.739 82.0076 95.6661 81.9972 95.5672C81.9347 94.7338 79.9035 93.0672 78.6379 92.213C78.5493 92.1505 78.4972 92.0463 78.5076 91.9369L79.7889 76.8224C79.7993 76.6609 79.9295 76.5359 80.1118 76.5515C80.2785 76.5619 80.4035 76.7078 80.3879 76.8744L79.1222 91.8119C79.841 92.3172 82.4972 94.2494 82.6014 95.5203C82.617 95.8015 82.5233 96.0515 82.3201 96.2442C82.1118 96.4422 81.8618 96.5411 81.5181 96.5203C80.4399 96.4786 78.9399 95.1557 78.1379 94.3692C78.1326 95.5984 78.0285 97.8953 77.3826 98.5672C77.1899 98.7651 76.9868 98.8067 76.8514 98.8067Z" fill="#7BBFAD"/>
<path d="M81.3983 49.6297C81.3983 49.6297 82.492 53.5411 78.2837 54.5932C74.0701 55.6453 54.5337 55.6453 50.3201 54.5932C46.1066 53.5411 47.2056 49.6297 47.2056 49.6297" stroke="black" stroke-width="0.601333" stroke-miterlimit="10" stroke-linecap="round"/>
<path d="M78.8044 38.1609C78.8044 40.2599 80.2211 41.9578 81.9659 41.9578C83.7107 41.9578 85.1222 40.2599 85.1222 38.1609C85.1222 36.0672 83.7107 34.364 81.9659 34.364C80.2211 34.364 78.8044 36.0672 78.8044 38.1609Z" fill="black"/>
<path d="M46.0023 66.5567C46.0023 68.0255 44.5075 69.213 42.6637 69.213C40.82 69.213 39.3252 68.0255 39.3252 66.5567C39.3252 65.0932 40.82 63.9005 42.6637 63.9005C44.5075 63.9005 46.0023 65.0932 46.0023 66.5567Z" fill="#7BBFAD"/>
<path d="M87.1429 76.2495C87.1429 77.713 85.6481 78.9005 83.8044 78.9005C81.9554 78.9005 80.4658 77.713 80.4658 76.2495C80.4658 74.7807 81.9554 73.5932 83.8044 73.5932C85.6481 73.5932 87.1429 74.7807 87.1429 76.2495Z" fill="#7BBFAD"/>
<path d="M47.7524 73.3432C47.7524 74.2234 46.8514 74.937 45.7472 74.937C44.6379 74.937 43.7368 74.2234 43.7368 73.3432C43.7368 72.463 44.6379 71.7495 45.7472 71.7495C46.8514 71.7495 47.7524 72.463 47.7524 73.3432Z" fill="#7BBFAD"/>
<path d="M51.8044 63.9005C51.8044 64.7859 50.9034 65.4942 49.7992 65.4942C48.6899 65.4942 47.7888 64.7859 47.7888 63.9005C47.7888 63.0203 48.6899 62.3067 49.7992 62.3067C50.9034 62.3067 51.8044 63.0203 51.8044 63.9005Z" fill="#7BBFAD"/>
<path d="M89.1482 69.213C89.1482 70.0932 88.2472 70.8067 87.143 70.8067C86.0336 70.8067 85.1326 70.0932 85.1326 69.213C85.1326 68.3276 86.0336 67.614 87.143 67.614C88.2472 67.614 89.1482 68.3276 89.1482 69.213Z" fill="#7BBFAD"/>
</svg>
