<svg width="128" height="128" viewBox="0 0 128 128" fill="none" xmlns="http://www.w3.org/2000/svg">
<path d="M79.0526 16.3289C79.0526 16.3289 74.9432 20.8758 76.5682 22.0945C78.1932 23.3185 80.3599 21.1362 80.3599 21.1362" fill="#B76435"/>
<path d="M79.0526 20.3549C79.0526 20.3549 74.9432 24.9018 76.5682 26.1206C78.1932 27.3445 80.3599 25.1622 80.3599 25.1622" fill="#B76435"/>
<path d="M79.0526 24.381C79.0526 24.381 74.9432 28.9278 76.5682 30.1518C78.1932 31.3758 80.3599 29.1935 80.3599 29.1935" fill="#B76435"/>
<path d="M79.0526 28.4122C79.0526 28.4122 74.9432 32.9591 76.5682 34.1778C78.1932 35.4018 80.3599 33.2195 80.3599 33.2195" fill="#B76435"/>
<path d="M79.0526 32.4383C79.0526 32.4383 74.9432 36.9851 76.5682 38.2091C78.1932 39.4279 80.3599 37.2508 80.3599 37.2508" fill="#B76435"/>
<path d="M79.1722 37.0216C79.1722 37.0216 74.6358 41.1414 76.1306 42.5164C77.6306 43.8914 80.0004 41.9383 80.0004 41.9383" fill="#B76435"/>
<path d="M78.7765 41.032C78.7765 41.032 74.24 45.1518 75.7348 46.5268C77.2348 47.9018 79.6046 45.9435 79.6046 45.9435" fill="#B76435"/>
<path d="M78.7974 45.0945C78.7974 45.0945 73.3442 47.8914 74.4276 49.6101C75.5161 51.3289 78.3182 50.0529 78.3182 50.0529" fill="#B76435"/>
<path d="M78.0837 48.8706C78.0837 48.8706 72.6306 51.6674 73.7243 53.3862C74.8077 55.1049 77.6098 53.8289 77.6098 53.8289" fill="#B76435"/>
<path d="M78.0837 51.5737C78.0837 51.5737 72.6306 54.3758 73.7243 56.0945C74.8077 57.8133 77.6098 56.5372 77.6098 56.5372" fill="#B76435"/>
<path d="M77.0628 55.7039C77.0628 55.7039 71.6149 58.506 72.6982 60.2195C73.7867 61.9383 76.5836 60.6622 76.5836 60.6622" fill="#B76435"/>
<path d="M75.4326 59.3914C75.4326 59.3914 69.9847 62.1883 71.0681 63.907C72.1566 65.6258 74.9587 64.3497 74.9587 64.3497" fill="#B76435"/>
<path d="M35.2973 78.2508C35.2973 78.2508 31.2921 79.3289 28.6931 83.6674L29.9067 84.1779C29.9067 84.1779 33.4223 78.7195 35.8962 79.657" fill="#FDBC2D"/>
<path d="M28.693 83.6674C28.693 83.6674 25.4794 85.1049 26.0732 86.6779C26.6722 88.2456 28.4117 84.9174 28.4117 84.9174C28.4117 84.9174 26.6305 88.2299 27.5055 88.4539C28.3805 88.6726 28.9899 85.506 28.9899 85.506C28.9899 85.506 28.2815 88.6779 29.0211 88.7508C29.7711 88.8185 29.7347 85.9174 29.7347 85.9174C29.7347 85.9174 30.1409 88.9695 31.1201 88.4799C32.0992 87.9904 29.9065 84.1779 29.9065 84.1779C29.9065 84.1779 29.5107 83.9174 28.693 83.6674Z" fill="#B76435"/>
<path d="M46.9899 102.173C46.9899 102.173 46.9222 105.308 46.9743 109.303C47.0368 113.756 47.2399 115.131 47.8284 118.615C49.1774 118.485 50.5264 118.407 51.8753 118.407C52.0472 116.886 52.0368 114.975 52.0889 112.865C52.1514 110.568 52.2451 111.386 52.3337 108.386C52.443 104.621 52.542 101.381 52.542 101.381" fill="#FFBA1F"/>
<path d="M86.4953 13.2039L86.7661 8.42785C86.7661 8.42785 89.1724 6.53202 86.6359 5.2716C84.0943 4.00598 84.1411 7.52681 85.0786 8.38098V13.4799" fill="#B76435"/>
<path d="M81.0733 14.4747L80.3754 9.74556C80.3754 9.74556 82.3389 7.3966 79.5993 6.68306C76.865 5.97472 77.6202 9.40701 78.7087 10.0528L79.74 15.0424" fill="#B76435"/>
<path d="M97.6203 18.0424C99.7661 19.1883 101.594 20.4487 101.834 21.4904C102.068 22.5112 102.178 23.7143 101.797 24.7872C101.329 26.1101 100.12 27.2299 97.4953 27.5633C96.7036 27.6622 95.9744 27.7456 95.2869 27.8237C95.1671 27.0164 95.0994 26.2091 95.0838 25.4122C95.0421 22.6414 95.7348 19.9799 97.6203 18.0424Z" fill="#FFECD6"/>
<path d="M79.2347 52.6414C79.2711 52.6518 79.3076 52.6674 79.3493 52.6779C79.3076 52.6674 79.2711 52.6518 79.2347 52.6414ZM80.5941 53.1987C80.5576 53.1779 80.5211 53.157 80.4795 53.1362C80.5211 53.157 80.5576 53.1779 80.5941 53.1987ZM78.193 52.4695C78.193 52.4695 78.1982 52.4747 78.2034 52.4747C78.1982 52.4747 78.193 52.4695 78.193 52.4695ZM74.8753 59.6987C74.1618 61.5529 73.0628 63.7872 71.4743 65.6154C70.3753 66.881 69.042 67.9487 67.4326 68.5529C66.4586 68.9226 65.2191 69.2456 63.8128 69.5476C61.5055 70.0424 58.7243 70.4747 55.8284 70.9018C54.5472 71.0893 53.2451 71.2768 51.9482 71.4747C49.6253 71.8289 47.3284 72.1935 45.2347 72.6154C41.9013 73.2872 39.0941 74.0945 37.5368 75.1674C37.4013 75.2612 37.2763 75.3497 37.1461 75.4435C33.2555 78.2195 32.7555 80.0529 33.3076 85.0685C33.417 86.0476 33.5628 87.1466 33.7347 88.3966C33.7659 88.6414 33.8024 88.8914 33.8441 89.131C34.1357 91.0737 34.5472 92.9643 35.0107 94.7612C36.3649 100.001 38.1774 104.443 38.9066 106.917C39.6878 109.574 40.3493 115.115 41.042 119.558C42.7295 119.287 44.4326 119.011 46.1461 118.803C46.0472 114.6 45.443 110.282 45.443 110.282L45.0263 102.225C45.0263 102.225 63.6826 101.865 69.0368 100.24C69.0368 100.24 69.318 110.647 70.1566 117.72C71.6618 117.225 73.1982 116.845 74.7503 116.584C75.0368 111.001 75.6305 99.157 75.6305 99.157C75.6305 99.157 79.1357 98.7976 80.6201 98.256V116.209C82.1097 116.266 83.5941 116.449 85.0628 116.756C85.0941 116.423 85.1201 116.084 85.1409 115.751C85.318 112.985 86.6878 96.0945 86.6878 96.0945L87.5368 81.6883C87.7763 80.8549 87.8336 80.0268 87.667 79.4695L88.0732 72.6154L88.1097 71.9799C88.1097 71.9799 89.3441 43.0112 89.9378 29.0112C86.417 30.7195 82.4951 31.7612 78.542 32.2247C78.0941 36.3497 75.193 58.8654 74.8753 59.6987Z" fill="#FFD41D"/>
<path d="M78.0993 19.9851C78.0993 19.9851 72.1201 16.5008 71.8805 12.9539C71.6409 9.40702 75.5055 10.0685 78.0628 13.3758C79.542 15.2924 79.844 14.8758 79.844 14.8758C79.844 14.8758 83.8701 12.8028 87.0368 13.256C87.0368 13.256 88.6409 7.00077 90.7243 7.71952C92.8024 8.44348 90.068 14.6987 90.068 14.6987C90.068 14.6987 94.2399 16.2351 97.6201 18.0424C95.7347 19.9799 95.042 22.6414 95.0836 25.4122C95.0993 26.2091 95.167 27.0164 95.2868 27.8237C91.8909 28.2195 89.917 28.5372 89.7711 30.6883C89.7659 30.7299 89.792 30.9695 89.8284 31.3393C85.8805 30.8758 82.0263 34.2716 78.5055 32.5633C78.318 28.2091 78.1253 20.8445 78.1201 20.7091" fill="#FFD41D"/>
<path d="M45.094 88.756C47.4742 88.157 49.1408 83.3445 49.495 81.9018C49.8544 80.4591 44.5783 78.5372 44.3023 77.8133C44.0263 77.0945 41.8075 77.4383 41.1773 78.6049C41.1773 78.6049 38.2033 83.5841 39.3908 85.1466C40.5783 86.7143 42.719 89.3549 45.094 88.756Z" fill="#FF994D"/>
<path d="M79.516 83.1049C78.4639 81.4435 76.5525 78.6258 74.1358 79.0164C71.7139 79.4122 69.6514 84.0581 69.1723 85.4643C68.6983 86.8758 73.7868 89.2456 74.0004 89.9903C74.2139 90.7299 76.4535 90.5789 77.1879 89.4643C77.1879 89.4643 80.5681 84.7664 79.516 83.1049Z" fill="#FF994D"/>
<path d="M44.3286 73.9643C44.6151 74.4435 48.0838 77.0893 49.5266 77.4383C50.9745 77.782 52.3651 73.9643 52.3651 73.9643C52.7401 73.2039 52.4849 72.2976 51.9484 71.4747C49.6255 71.8289 47.3286 72.1935 45.2349 72.6153C44.6359 73.2664 44.2245 73.7924 44.3286 73.9643Z" fill="#FF994D"/>
<path d="M89.3911 30.9331C88.7036 32.0164 85.089 35.1414 85.3755 35.6258C85.5995 36.0112 87.8807 37.7872 89.5161 38.6518C89.5943 36.0945 89.7974 33.0893 89.8755 30.5164C89.7193 30.532 89.4693 30.8133 89.3911 30.9331Z" fill="#FF994D"/>
<path d="M78.365 64.5841C79.3181 62.6674 76.2348 59.8289 74.8754 59.6987C74.1619 61.5529 73.0629 63.7872 71.4744 65.6154C72.6983 66.5685 74.5629 67.8289 75.5317 68.0581C76.9744 68.4018 78.365 64.5841 78.365 64.5841Z" fill="#FF994D"/>
<path d="M55.5421 76.4904C55.5421 76.4904 52.2192 79.9799 53.5838 81.4226C54.9536 82.8654 56.7348 85.2716 58.3963 84.5476C60.0577 83.8237 61.0109 80.6987 60.5369 79.3758C60.0577 78.0529 56.5525 75.2716 55.5421 76.4904Z" fill="#FF994D"/>
<path d="M87.6671 79.4695L87.5369 81.6883C87.7764 80.8549 87.8337 80.0268 87.6671 79.4695Z" fill="#FF994D"/>
<path d="M82.6514 76.4904C82.6514 76.4904 79.3232 79.9799 80.693 81.4226C82.0576 82.8654 83.8389 85.2716 85.5055 84.5476C86.4691 84.131 87.193 82.907 87.5368 81.6883L87.667 79.4695C87.6618 79.4383 87.6566 79.407 87.6409 79.3758C87.167 78.0529 83.6618 75.2716 82.6514 76.4904Z" fill="#FF994D"/>
<path d="M78.2556 49.1362C79.9223 48.4122 80.8754 45.2872 80.3962 43.9643C80.115 43.1726 78.7504 41.8654 77.4796 41.1987C77.1827 43.8185 76.8598 46.5685 76.5681 48.9591C77.1306 49.2612 77.7035 49.3758 78.2556 49.1362Z" fill="#FF994D"/>
<path d="M80.1098 88.6258C79.2973 90.4435 77.7556 93.0112 79.0368 94.3081C80.3129 95.5997 83.5421 95.3289 84.5733 94.3914C85.6098 93.4539 86.8598 89.1258 85.365 88.631C85.365 88.631 80.9327 86.8081 80.1098 88.6258Z" fill="#FF994D"/>
<path d="M66.8441 89.6362C65.4691 89.8445 62.0837 92.7768 63.0577 94.0164C63.0577 94.0164 65.7816 98.006 67.4483 96.9331C69.1202 95.8654 71.8025 94.5685 71.4327 92.7768C71.0629 90.9851 68.2191 89.4226 66.8441 89.6362Z" fill="#FF994D"/>
<path d="M37.6047 94.8497C38.9484 93.3914 41.2244 91.4539 40.4172 89.8133C39.6099 88.1726 36.4744 87.3914 35.1932 87.9435C34.813 88.1101 34.313 88.5633 33.8442 89.131C34.1359 91.0737 34.5474 92.9643 35.0109 94.7612C35.9849 95.2456 37.0109 95.4956 37.6047 94.8497Z" fill="#FF994D"/>
<path d="M58.042 87.8185C56.7347 86.8966 54.2347 85.9695 52.542 86.2091C50.8493 86.4487 49.8493 89.4226 49.8493 89.4226C49.5368 90.1831 48.5315 92.5841 49.469 93.7872C50.4065 94.9904 51.3857 97.9956 53.2555 97.9956C55.1253 97.9956 58.5159 97.9956 59.3493 96.5529C60.1826 95.1101 60.1826 93.1831 60.1826 91.8601C60.1826 90.5372 59.3493 88.7351 58.042 87.8185Z" fill="#FF994D"/>
<path d="M83.1827 61.157C81.49 61.3966 80.49 64.3706 80.49 64.3706C80.1775 65.131 79.1671 67.532 80.1098 68.7299C81.0473 69.9331 82.0212 72.9383 83.891 72.9383C85.0316 72.9383 86.7296 72.9383 88.0733 72.6101L88.1098 71.9799L88.6306 62.7299C87.3129 61.8237 84.8598 60.9174 83.1827 61.157Z" fill="#FF994D"/>
<path d="M78.2087 59.6935C79.3128 59.6935 81.318 59.6935 81.8076 58.8133C82.2972 57.9331 82.2972 56.756 82.2972 55.9435C82.2972 55.1414 81.8076 54.0372 81.0368 53.4747C80.266 52.9174 78.792 52.3445 77.792 52.4956C76.792 52.6414 76.2035 54.4591 76.2035 54.4591C76.1982 54.4747 76.1878 54.4903 76.1826 54.5008C76.0628 55.4747 75.9847 56.0476 75.9847 56.0476C75.9847 56.0476 75.9326 56.3237 75.8076 56.7872C75.8493 56.907 75.9014 57.0216 75.9743 57.1206C76.5264 57.8549 77.1045 59.6935 78.2087 59.6935Z" fill="#FF994D"/>
<path d="M37.8388 83.6466C38.6722 82.2039 38.6722 80.2768 38.6722 78.9591C38.6722 77.8549 38.0941 76.4226 37.1461 75.4435C33.2555 78.2195 32.7555 80.0528 33.3076 85.0685C35.1045 85.006 37.2086 84.7403 37.8388 83.6466Z" fill="#FF994D"/>
<path d="M63.2922 88.8341C64.0995 88.7456 64.5422 86.3289 64.3651 85.6883C64.188 85.0476 63.3234 83.0216 62.7609 83.6049C62.7609 83.6049 59.8286 86.4018 60.8911 87.3914C61.9588 88.381 62.4953 88.9226 63.2922 88.8341Z" fill="#FF994D"/>
<path d="M44.5682 91.8393C43.6776 92.9956 43.188 93.5737 43.3442 94.3758C43.4953 95.1778 45.9067 95.4331 46.5265 95.2039C47.1463 94.9747 47.6828 93.407 47.063 92.8862C47.063 92.8862 45.464 90.6831 44.5682 91.8393Z" fill="#FF994D"/>
<path d="M71.4848 72.8601C72.1045 72.6258 72.6462 71.0633 72.0264 70.5424C72.0264 70.5424 70.4223 68.3393 69.5316 69.4956C68.6358 70.6466 68.1514 71.2299 68.3025 72.032C68.4535 72.8341 70.865 73.0893 71.4848 72.8601Z" fill="#FF994D"/>
<path d="M82.0212 48.131C81.1305 49.2872 80.641 49.8654 80.792 50.6674C80.9483 51.4747 83.3597 51.7247 83.9795 51.4956C84.5993 51.2664 85.1358 49.6987 84.516 49.1779C84.516 49.1779 82.9118 46.9747 82.0212 48.131Z" fill="#FF994D"/>
<path d="M82.0212 30.0008C81.1305 31.1518 80.641 31.7351 80.792 32.5372C80.9483 33.3393 83.3597 33.5945 83.9795 33.3654C84.5993 33.131 85.1358 31.5685 84.516 31.0476C84.516 31.0476 82.9118 28.8445 82.0212 30.0008Z" fill="#FF994D"/>
<path d="M58.0682 74.2976C61.0109 75.2872 61.0994 75.631 62.9744 74.8289C64.563 74.1414 64.4797 71.4591 63.813 69.5476C61.5057 70.0424 58.7244 70.4747 55.8286 70.9018C55.9901 72.2404 56.5265 73.7768 58.0682 74.2976Z" fill="#FF994D"/>
<path d="M84.2139 45.5112C85.9379 48.1206 85.8024 48.4487 87.766 48.9799C88.2451 49.1049 88.7139 49.0164 89.1566 48.782L89.2191 47.6883C89.2191 47.6883 89.3024 44.8706 89.4118 41.0841C88.1566 40.2612 86.7191 39.6779 85.891 39.657C85.891 39.657 82.4951 42.9018 84.2139 45.5112Z" fill="#FF994D"/>
<path d="M65.5575 82.1414C67.969 82.3237 68.3232 79.8706 68.6773 78.7091C69.0367 77.5424 69.0367 75.0789 66.8961 75.2716C66.8961 75.2716 62.9846 76.9122 62.5315 78.1726C62.0836 79.4383 63.1513 81.9643 65.5575 82.1414Z" fill="#FF994D"/>
<path d="M77.6617 70.5997C75.2971 70.1049 74.6356 72.4904 74.1304 73.5997C73.6304 74.7091 73.3179 77.1518 75.4637 77.2351C75.4637 77.2351 79.5523 76.1206 80.1617 74.9279C80.7658 73.7351 80.0262 71.0893 77.6617 70.5997Z" fill="#FF994D"/>
<path d="M80.7192 41.1726C82.0265 41.4018 84.3026 39.9018 84.063 37.4747C83.8286 35.0424 81.3807 35.1101 80.1828 34.9539C79.6984 34.8914 78.8078 34.9018 78.2036 35.1101C78.1047 36.1414 77.9172 37.1831 77.7817 38.4591C78.5578 39.5216 79.9432 41.032 80.7192 41.1726Z" fill="#FF994D"/>
<path d="M85.3023 53.0841C84.021 53.4226 82.5731 55.7508 83.7919 57.8549C85.0158 59.9643 87.2085 58.8706 88.3596 58.506C88.4533 58.4747 88.5575 58.4331 88.6617 58.3914L88.8908 54.3185C87.7398 53.6726 86.094 52.8706 85.3023 53.0841Z" fill="#FF994D"/>
<path d="M80.62 116.412C80.62 116.412 80.0315 120.923 82.2867 121.22C84.271 121.485 84.8335 119.193 85.0627 116.756C83.594 116.449 82.1096 116.266 80.62 116.209" fill="#B76435"/>
<path d="M71.0578 121.464C72.5994 122.423 74.4432 121.584 74.6828 117.855C74.7036 117.537 74.7244 117.105 74.7505 116.584C73.1984 116.845 71.6619 117.225 70.1567 117.72C70.4067 119.808 70.7036 121.24 71.0578 121.464Z" fill="#B76435"/>
<path d="M97.9119 22.9331C98.1827 22.5685 98.4015 21.3237 97.5577 21.1414C96.7088 20.9643 97.4015 23.631 97.9119 22.9331Z" fill="black"/>
<path d="M99.7867 22.9956C100.172 22.7612 100.849 21.7039 100.136 21.2039C99.4221 20.7091 99.0471 23.4383 99.7867 22.9956Z" fill="black"/>
<path d="M98.5368 25.3862C98.5472 25.3862 98.5681 25.3862 98.5837 25.381C99.1045 25.3237 99.2452 24.4747 99.2712 24.3029C99.2816 24.2039 99.2139 24.1154 99.1202 24.0997C99.0212 24.0841 98.9327 24.157 98.917 24.256C98.8702 24.5633 98.7191 25.006 98.5472 25.0216C98.542 25.0268 98.542 25.0268 98.5368 25.0268C98.4014 25.0268 98.2243 24.6101 98.1566 24.2456C98.1358 24.1466 98.042 24.0841 97.9431 24.0997C97.8493 24.1206 97.7868 24.2143 97.8024 24.3133C97.8389 24.4956 98.0264 25.3862 98.5368 25.3862Z" fill="black"/>
<path d="M47.8286 118.615C48.1724 120.662 48.6515 122.006 49.313 122.006C51.0161 122.006 51.6307 120.615 51.8755 118.407C50.5265 118.407 49.1776 118.485 47.8286 118.615Z" fill="#B76435"/>
<path d="M41.6514 121.792C42.5889 122.303 46.0941 123.449 46.1566 120.204C46.1618 119.829 46.1566 119.35 46.1462 118.803C44.4326 119.011 42.7295 119.287 41.042 119.558C41.2399 120.834 41.443 121.678 41.6514 121.792Z" fill="#B76435"/>
<path d="M86.6045 23.0476C86.6045 23.5789 86.917 24.0164 87.3076 24.0164C87.6982 24.0164 88.0055 23.5789 88.0055 23.0476C88.0055 22.5112 87.6982 22.0737 87.3076 22.0737C86.917 22.0737 86.6045 22.5112 86.6045 23.0476Z" fill="black"/>
<path d="M85.0786 25.2039C85.0786 25.6518 85.7817 26.0164 86.6567 26.0164C87.5317 26.0164 88.2401 25.6518 88.2401 25.2039C88.2401 24.756 87.5317 24.3914 86.6567 24.3914C85.7817 24.3914 85.0786 24.756 85.0786 25.2039Z" fill="#F9A0A0"/>
</svg>
