<svg width="128" height="128" viewBox="0 0 128 128" fill="none" xmlns="http://www.w3.org/2000/svg">
<path d="M44.0193 55.4508C43.8474 56.1904 35.5141 69.055 34.3578 75.6488C33.2068 82.2373 34.8266 91.055 39.3057 92.5758C43.7849 94.0967 44.0193 55.4508 44.0193 55.4508Z" fill="#84898C"/>
<path d="M75.7224 30.3779C75.7224 30.3779 84.8057 28.9404 82.2328 22.8363C79.6547 16.7269 74.2641 20.3727 72.6912 26.5967" fill="#84898C"/>
<path d="M74.9776 29.1227C74.9776 29.1227 79.9985 28.331 78.5714 24.956C77.1495 21.581 74.1703 23.5915 73.3005 27.0342" fill="#F9A0A0"/>
<path d="M50.9515 26.1852C50.9515 26.1852 43.4828 22.43 47.4047 17.8519C51.3265 13.2737 54.988 17.9248 54.6286 23.7529" fill="#84898C"/>
<path d="M51.9463 25.3102C51.9463 25.3102 47.8161 23.2269 49.988 20.7008C52.1546 18.1696 54.1755 20.7425 53.9776 23.9612" fill="#F9A0A0"/>
<path d="M59.4672 100.404C59.4672 100.404 61.7692 89.3675 58.2015 83.3571C54.6286 77.3571 41.8317 75.7217 39.0609 87.2008C36.2849 98.68 39.4724 103.894 39.4724 103.894C39.4724 103.894 35.0297 104.602 35.2901 107.529C35.5505 110.456 54.4672 110.435 59.4672 100.404Z" fill="#84898C"/>
<path d="M43.3265 84.9248C43.462 80.9977 43.9932 77.0654 44.9203 73.0498C46.9411 65.9092 53.6495 58.5446 60.0505 61.3831C73.1234 67.18 76.0974 83.8258 73.1911 98.2737C72.7276 100.602 72.113 102.873 71.3578 105.034C68.3422 105.795 64.712 106.279 60.3265 106.42C53.5765 106.633 48.889 105.211 45.6443 102.904C45.5974 102.737 45.5453 102.571 45.4984 102.399C43.8213 96.4248 43.139 90.68 43.3265 84.9248Z" fill="#D1D1D1"/>
<path d="M60.1651 55.4508C60.1651 55.4508 50.0453 62.0342 42.1234 62.2008C42.6859 59.7373 43.113 58.0967 43.8161 56.279C46.8578 57.154 53.1182 57.5863 60.1651 55.4508Z" fill="#84898C"/>
<path d="M36.1026 42.4769C37.712 37.4612 43.3318 37.2165 43.3318 37.2165C43.3318 37.2165 42.1287 20.8102 65.0453 23.3935C65.0453 23.3935 78.0193 26.5029 79.0714 35.4977C80.1235 44.4925 80.9099 57.2842 80.9099 57.2842C80.9099 57.2842 83.5818 67.1487 84.738 79.0394C85.3214 85.0237 86.1651 91.6956 83.3214 96.956C80.0193 97.8935 76.6078 98.3154 73.1964 98.2737C76.0974 83.831 73.1235 67.18 60.0453 61.3831C53.6495 58.5446 46.9412 65.904 44.9203 73.0498C43.9932 77.0654 43.462 80.9977 43.3266 84.9248C43.1391 90.68 43.8214 96.4248 45.4985 102.394C45.5453 102.571 45.5974 102.737 45.6495 102.904C36.8214 96.6279 38.7641 83.8258 39.3005 79.8258C39.3735 79.2529 39.4255 78.8571 39.4047 78.6904C39.4047 78.6904 40.4047 69.7685 42.1287 62.2008C50.0453 62.0342 60.1651 55.4508 60.1651 55.4508C53.1182 57.5862 46.8578 57.1539 43.8162 56.2789C43.8266 56.2529 43.837 56.2217 43.8474 56.1904C43.8474 56.1904 39.8214 53.1227 39.8214 49.4248C39.8214 49.4248 34.462 47.5758 36.1026 42.4769Z" fill="#989DA0"/>
<path d="M83.3213 96.9561C81.4047 100.498 77.8213 103.404 71.3578 105.034C72.113 102.873 72.7276 100.602 73.1911 98.2738C76.6078 98.3154 80.0192 97.8936 83.3213 96.9561Z" fill="#989DA0"/>
<path d="M84.5348 84.5498C84.6078 84.3102 84.6911 84.0759 84.7588 83.8363C84.6807 83.6748 84.5921 83.5134 84.5036 83.3571C80.9307 77.3571 66.5557 78.0186 63.7796 89.4925C61.0088 100.972 64.1963 106.19 64.1963 106.19C64.1963 106.19 59.7484 106.899 60.0088 109.826C60.0401 110.144 60.3005 110.425 60.7276 110.664C60.6182 110.701 60.5088 110.753 60.3994 110.789C64.2432 112.618 79.3005 111.513 83.6807 102.722C83.6807 102.722 87.0973 90.9456 84.5348 84.5498Z" fill="#989DA0"/>
<path d="M59.7589 39.1019C52.5714 35.4717 46.186 36.4248 43.2068 37.2269C43.2276 37.3154 43.2432 37.404 43.2641 37.4925C46.3214 36.7425 52.6339 35.9404 59.5818 39.4508C59.6287 39.4769 59.6807 39.4769 59.7276 39.4665C59.7745 39.4456 59.8162 39.4144 59.8422 39.3675C59.8943 39.2685 59.8526 39.154 59.7589 39.1019Z" fill="black"/>
<path d="M56.9931 52.2581C56.9931 52.2581 56.0765 54.4821 54.6963 54.3467C53.3108 54.2113 53.7796 50.779 53.7796 50.779C53.7796 50.779 55.8681 52.1071 56.9931 52.2581Z" fill="#FFF9DE"/>
<path d="M43.2328 49.3935C43.2328 49.3935 43.5817 51.7737 44.9567 51.9769C46.3265 52.1852 46.7067 48.7373 46.7067 48.7373C46.7067 48.7373 44.363 49.5237 43.2328 49.3935Z" fill="#FFF9DE"/>
<path d="M61.4359 52.6748C66.514 51.6227 67.7588 45.8206 67.7744 45.7581C67.7953 45.6487 67.7223 45.5446 67.613 45.5185C67.5036 45.4977 67.3942 45.5706 67.3734 45.68C67.363 45.7425 66.0505 51.8623 60.5713 52.3987C56.6598 52.779 54.6546 51.2685 53.0453 50.055C52.3473 49.529 51.6859 49.029 50.9671 48.7581C49.3109 48.1383 48.2015 48.3779 46.5244 48.7529C45.7901 48.9196 44.9567 49.1019 43.9151 49.2477C40.7119 49.7008 39.8526 48.9769 39.8421 48.9717C39.6703 48.8571 39.5765 48.8206 39.5765 48.8206C39.4932 48.8935 39.7901 49.154 39.863 49.2373C39.8994 49.2842 40.8526 50.081 43.9723 49.6487C45.0296 49.5029 45.8734 49.3154 46.613 49.1487C48.2171 48.7946 49.2796 48.555 50.8265 49.1383C51.488 49.3883 52.0973 49.8467 52.8005 50.3779C54.4671 51.6331 56.5401 53.1956 60.613 52.7998C60.8942 52.7737 61.1703 52.7321 61.4359 52.6748Z" fill="black"/>
<path d="M54.337 46.6071C55.0557 46.1748 56.3057 44.1071 55.2016 43.3727C54.0922 42.6331 52.8578 47.4925 54.337 46.6071Z" fill="#1E1E1E"/>
<path d="M44.5192 45.8467C43.8734 45.3154 42.9255 43.0915 44.1286 42.5185C45.3369 41.9508 45.8474 46.9404 44.5192 45.8467Z" fill="#1E1E1E"/>
<path d="M64.5922 42.7425C64.1287 43.6852 65.0922 45.1071 66.7537 45.9248C68.4047 46.7373 70.1235 46.6331 70.587 45.6956C71.0505 44.7529 70.087 43.3258 68.4308 42.5133C66.7745 41.6956 65.061 41.7998 64.5922 42.7425Z" fill="#F9A0A0"/>
<path d="M74.5557 58.029C74.5557 58.029 80.8317 52.9456 81.7067 45.5342C82.8317 35.9821 92.2744 34.8831 94.2067 43.4508C96.1338 52.0238 87.8734 68.1696 75.1546 70.7686C62.4359 73.3623 74.5557 58.029 74.5557 58.029Z" fill="#989DA0"/>
<path d="M63.2693 36.4821C63.2693 37.4717 62.7224 38.2685 62.0557 38.2685C61.3891 38.2685 60.8474 37.4717 60.8474 36.4821C60.8474 35.4977 61.3891 34.6956 62.0557 34.6956C62.7224 34.6956 63.2693 35.4977 63.2693 36.4821Z" fill="#1E1E1E"/>
<path d="M49.1286 34.2581C49.1286 35.2425 48.5869 36.0394 47.9202 36.0394C47.2484 36.0394 46.7119 35.2425 46.7119 34.2581C46.7119 33.2685 47.2484 32.4717 47.9202 32.4717C48.5869 32.4717 49.1286 33.2685 49.1286 34.2581Z" fill="#1E1E1E"/>
</svg>
