<svg width="128" height="128" viewBox="0 0 128 128" fill="none" xmlns="http://www.w3.org/2000/svg">
<path d="M41.3515 59.3534C41.3515 59.3221 41.3463 59.2857 41.3411 59.2544C39.7681 45.3638 37.3567 44.5617 36.4348 49.9107C36.1588 51.494 35.7369 55.4263 36.2213 61.4888C38.2213 61.2076 39.9244 60.4471 41.3515 59.3534Z" fill="#8DCEBF"/>
<path d="M43.5286 71.7545C42.8463 68.9055 42.2994 66.0565 41.8879 63.3482C40.4348 64.6972 38.7161 65.7597 36.7786 66.4628C37.1171 68.843 37.6015 71.4784 38.2369 74.317C39.9921 73.6867 41.8515 72.843 43.5286 71.7545Z" fill="#8DCEBF"/>
<path d="M43.5286 71.7544C41.8515 72.843 39.9921 73.6867 38.2369 74.3169C38.6796 76.3169 39.2161 78.4263 39.8463 80.6451C41.8932 80.0721 43.6119 78.8898 45.0703 77.3169C44.4974 75.4888 43.9765 73.6242 43.5286 71.7544Z" fill="#7BBFAD"/>
<path d="M47.6328 84.0617C46.664 81.9367 45.8151 79.6607 45.0703 77.3169C43.6119 78.8898 41.8932 80.0773 39.8463 80.6451C39.9192 80.9055 39.9765 81.1503 40.0546 81.4107C40.7213 83.6971 41.3828 85.8638 42.0599 87.8951C44.263 86.9732 46.0859 85.6607 47.6328 84.0617Z" fill="#8DCEBF"/>
<path d="M51.3931 90.5565C49.9817 88.6659 48.7265 86.4628 47.6327 84.0565C46.0859 85.6607 44.2629 86.968 42.0598 87.9003C43.1067 91.0253 44.2161 93.8117 45.4921 96.2544C47.9973 95.0044 49.9609 92.9992 51.3931 90.5565Z" fill="#7BBFAD"/>
<path d="M51.3931 90.5565C49.9608 92.9992 47.9973 95.0044 45.4921 96.2544C47.0962 99.3274 48.9816 101.822 51.3827 103.655C54.1171 101.499 56.5337 99.1399 57.7108 96.0253C55.3098 94.8951 53.2108 92.994 51.3931 90.5565Z" fill="#8DCEBF"/>
<path d="M62.19 97.4367C61.341 97.2336 60.4348 96.9992 59.4139 96.6971C58.8254 96.5201 58.2629 96.2857 57.7108 96.0253C56.5337 99.1399 54.1171 101.499 51.3827 103.655C53.7733 105.473 56.69 106.624 60.341 107.041C61.9035 104.051 62.1952 100.775 62.19 97.4367Z" fill="#7BBFAD"/>
<path d="M62.1327 45.5617C61.6171 50.0357 61.0389 59.093 62.2681 73.0201C62.8827 79.968 64.0858 84.9263 65.4087 88.4576C70.2369 74.4784 67.6119 59.3898 62.1327 45.5617Z" fill="#FFECD6"/>
<path d="M88.591 69.5148C86.5077 54.968 79.9712 36.5721 79.9712 36.5721L80.0233 32.0513C78.5858 21.8117 65.4972 17.218 61.4712 21.7388C57.4452 26.2648 62.6222 42.2544 62.6222 42.2544C62.6222 42.2544 62.3879 43.3638 62.1327 45.5617C67.6118 59.3898 70.2368 74.4784 65.4087 88.4576C68.0441 95.4732 71.1691 96.8273 71.1691 96.8273C71.1691 96.8273 70.8202 99.5096 62.19 97.4367C62.1952 100.775 61.9035 104.051 60.341 107.041C62.8931 107.327 65.7889 107.275 69.1535 106.807C88.5441 104.083 90.6743 84.0565 88.591 69.5148Z" fill="#8DCEBF"/>
<path d="M41.888 63.3482C41.6744 61.9732 41.4974 60.6399 41.3515 59.3534C39.9244 60.4524 38.2213 61.2076 36.2213 61.4888C36.3411 63.0096 36.5286 64.6763 36.7838 66.4628C38.7109 65.7649 40.4349 64.6971 41.888 63.3482Z" fill="#7BBFAD"/>
<path d="M63.914 50.3951C63.914 50.3951 58.8515 54.5826 53.8359 54.8221C53.8359 54.8221 50.7838 49.7284 50.0859 50.2336C49.3879 50.7492 51.2421 54.7909 51.2421 54.7909C51.2421 54.7909 47.1275 51.7909 46.4348 52.2857C45.7369 52.7805 49.1536 56.2753 49.1536 56.2753C49.1536 56.2753 45.6796 56.7544 46.2734 58.4888C46.8619 60.2284 49.6484 58.5305 49.6484 58.5305C49.6484 58.5305 47.164 64.0201 48.7265 63.4367C50.289 62.8586 51.3671 59.369 51.3671 59.369C51.3671 59.369 59.8098 61.9263 65.9036 57.8482C71.9973 53.7648 72.44 45.3013 63.914 50.3951Z" fill="#8DCEBF"/>
<path d="M70.0962 78.6399C70.0962 78.6399 62.6067 74.2336 59.2733 78.5149C55.94 82.8013 57.9556 85.3326 57.9556 85.3326C57.9556 85.3326 53.5806 77.7596 53.0389 79.4836C52.5025 81.2076 55.7369 85.6919 55.7369 85.6919C55.7369 85.6919 51.966 82.7805 51.4348 83.8846C50.9035 84.994 55.2004 87.1138 55.2004 87.1138C55.2004 87.1138 50.5389 86.7857 52.591 88.6763C54.6431 90.5669 57.9139 89.3742 57.9139 89.3742C57.9139 89.3742 59.1066 93.3638 63.6223 91.3482C68.1431 89.3326 71.5389 90.8846 73.7733 86.2649C76.0077 81.6451 70.0962 78.6399 70.0962 78.6399Z" fill="#8DCEBF"/>
<path d="M73.8932 33.1971C73.888 33.9836 73.1432 34.6086 72.2369 34.5982C71.3307 34.5878 70.6015 33.9419 70.6119 33.1607C70.6171 32.3742 71.3619 31.744 72.2682 31.7544C73.1744 31.7648 73.9036 32.4107 73.8932 33.1971Z" fill="black"/>
<path d="M63.1431 20.5669C63.1431 20.5669 63.0598 33.9992 66.3463 34.0409C67.164 34.0461 67.7317 33.8742 68.1119 33.6086" stroke="black" stroke-width="0.692" stroke-miterlimit="10" stroke-linecap="round" stroke-linejoin="round"/>
<path d="M79.5546 36.9419C79.5546 36.9419 85.4191 38.718 84.6587 40.6034C83.8931 42.4888 80.9139 41.7336 80.9139 41.7336" fill="#FFECD6"/>
<path d="M81.1432 41.8742C81.1432 41.8742 87.0078 43.6503 86.2526 45.5305C85.4869 47.4159 82.5026 46.6659 82.5026 46.6659" fill="#FFECD6"/>
<path d="M82.8983 47.1659C82.8983 47.1659 88.7681 48.9419 88.0025 50.8274C87.2421 52.7076 84.2577 51.9576 84.2577 51.9576" fill="#FFECD6"/>
<path d="M84.2577 52.6711C84.2577 52.6711 90.0962 54.5513 89.2994 56.4211C88.5025 58.2909 85.5337 57.4888 85.5337 57.4888" fill="#FFECD6"/>
<path d="M85.4452 57.9055C85.4452 57.9055 90.815 60.8534 89.6796 62.5409C88.5441 64.2284 85.7837 62.8742 85.7837 62.8742" fill="#FFECD6"/>
<path d="M85.9817 63.0565C85.9817 63.0565 91.3515 66.0096 90.2161 67.6919C89.0806 69.3794 86.3202 68.0253 86.3202 68.0253" fill="#FFECD6"/>
<path d="M86.6014 68.5982C86.6014 68.5982 91.9764 71.5461 90.841 73.2336C89.7004 74.9211 86.94 73.5669 86.94 73.5669" fill="#FFECD6"/>
<path d="M86.7942 74.2701C86.7942 74.2701 92.1119 77.3169 90.9452 78.9836C89.7838 80.645 87.0442 79.244 87.0442 79.244" fill="#FFECD6"/>
<path d="M87.8098 79.7805C87.8098 79.7805 91.9712 84.2805 90.3566 85.5253C88.7473 86.7597 86.5546 84.6034 86.5546 84.6034" fill="#FFECD6"/>
<path d="M77.5703 91.1503C78.5807 91.2336 79.2578 92.9315 79.0859 94.9419C78.9088 96.9471 77.9505 98.5044 76.9453 98.4159C75.9296 98.3326 75.2525 96.6346 75.4296 94.6242C75.6015 92.619 76.5598 91.0617 77.5703 91.1503Z" fill="#7BBFAD"/>
<path d="M81.8307 70.3274C82.8411 70.4107 83.5182 72.1138 83.3463 74.119C83.1692 76.1294 82.2109 77.6867 81.2057 77.5982C80.1901 77.5096 79.513 75.8117 79.6849 73.8065C79.8619 71.7961 80.8203 70.2388 81.8307 70.3274Z" fill="#7BBFAD"/>
<path d="M75.2577 85.3794C75.8098 85.4263 76.1796 86.3482 76.0859 87.4472C75.9921 88.5461 75.4661 89.3899 74.9192 89.343C74.3671 89.2961 73.9973 88.369 74.0911 87.2753C74.1848 86.1815 74.7056 85.3326 75.2577 85.3794Z" fill="#7BBFAD"/>
<path d="M78.6223 78.4367C79.2577 78.4888 79.6796 79.5565 79.5702 80.8169C79.4661 82.0721 78.8619 83.0513 78.2317 82.994C77.5963 82.9419 77.1692 81.8794 77.2786 80.619C77.3879 79.3586 77.9869 78.3794 78.6223 78.4367Z" fill="#7BBFAD"/>
<path d="M75.1848 77.5305C75.8202 77.5878 76.2473 78.6555 76.1379 79.9107C76.0285 81.1711 75.4296 82.1503 74.7941 82.093C74.1587 82.0409 73.7369 80.9732 73.8462 79.718C73.9556 78.4523 74.5546 77.4784 75.1848 77.5305Z" fill="#7BBFAD"/>
<path d="M80.0858 86.1503C80.5286 86.1867 80.8202 86.9315 80.7473 87.8065C80.6692 88.6815 80.2525 89.3638 79.8098 89.3221C79.3671 89.2857 79.0702 88.5461 79.1483 87.6711C79.2213 86.7909 79.6431 86.1138 80.0858 86.1503Z" fill="#7BBFAD"/>
<path d="M77.4765 72.7857C77.9192 72.8221 78.2161 73.5617 78.138 74.4419C78.0598 75.3169 77.6432 75.9992 77.2005 75.9576C76.7577 75.9211 76.4661 75.1815 76.539 74.3013C76.6171 73.4263 77.0338 72.744 77.4765 72.7857Z" fill="#7BBFAD"/>
<path d="M72.6744 91.5513C73.1171 91.5878 73.414 92.3326 73.3358 93.2076C73.2577 94.0826 72.841 94.7648 72.3983 94.7284C71.9556 94.6867 71.664 93.9471 71.7369 93.0721C71.815 92.1919 72.2317 91.5148 72.6744 91.5513Z" fill="#7BBFAD"/>
</svg>
