<svg width="128" height="128" viewBox="0 0 128 128" fill="none" xmlns="http://www.w3.org/2000/svg">
<path d="M51.9497 94.1513C62.0625 88.7285 87.1251 88.4546 94.5982 91.0065C94.2899 97.5106 85.9406 101.306 70.9934 102.49C62.6135 103.154 52.812 98.6513 51.9497 94.1513Z" fill="#96B32F"/>
<path d="M92.6934 90.7715C89.1905 91.7663 83.9053 97.6601 71.936 99.4831C65.3827 100.481 57.2323 98.3279 53.2685 93.5102C52.8055 93.715 52.365 93.929 51.9497 94.1513C52.812 98.6513 62.6135 103.154 70.9934 102.49C85.9406 101.306 94.2899 97.5107 94.5982 91.0066C94.1073 90.8391 93.5397 90.6841 92.9059 90.5415C92.8407 90.6212 92.795 90.7425 92.6934 90.7715Z" fill="#8BA822"/>
<path d="M84.6708 98.5321C77.8457 105.431 66.4236 108.877 56.8764 108.751C47.087 108.62 44.1447 94.5194 54.0272 95.1066C58.2666 95.3684 65.4584 94.4213 69.5835 93.3379C72.8177 92.4871 78.7284 90.4063 79.4514 86.4695C80.3993 81.3001 72.0467 79.0701 68.4271 78.399C67.9724 78.3149 67.5186 78.2375 67.0633 78.1646C58.7184 76.8434 50.174 77.4695 41.7422 77.037C40.5832 76.9786 39.4271 76.8988 38.2732 76.7918C33.8855 76.3851 29.2438 75.6817 25.3361 73.5137C23.5098 72.5008 21.8632 71.1696 20.6392 69.4637C19.8816 68.4075 17.4482 63.4006 20.4907 65.3265C21.3824 65.8912 22.2672 67.9424 23.1553 68.7383C24.5701 70.0064 28.6151 74.29 42.1035 72.9923C43.2294 72.8838 44.362 72.7528 45.5 72.6069C54.1176 71.5022 63.0248 69.5716 71.6104 70.5717C72.5732 70.684 73.5371 70.8367 74.491 71.0347C79.7451 72.1249 84.7179 74.5867 87.7987 79.1763C92.0778 85.5511 89.761 93.3886 84.6708 98.5321Z" fill="#ACC944"/>
<path d="M53.3624 96.7079C57.6019 96.9697 81.4743 103.106 86.2132 87.1865C87.9292 81.424 79.8822 74.0123 71.8486 73.5614C63.5203 73.0943 57.3475 73.7823 52.0051 74.4705C46.6692 75.1582 42.1615 75.8457 37.1614 75.382C32.7741 74.9745 22.6201 72.7898 20.3696 65.6202C21.4892 66.704 22.2673 67.9424 23.1548 68.7383C24.5696 70.0064 28.6149 74.29 42.1031 72.9923C51.7594 72.0627 61.8914 69.4402 71.6102 70.5717C77.8766 71.3018 84.1575 73.7535 87.7985 79.1763C92.0777 85.5511 89.7602 93.3886 84.6706 98.5321C77.8455 105.431 66.4243 108.877 56.8762 108.751C47.0868 108.62 43.4806 96.1213 53.3624 96.7079Z" fill="#CBED50"/>
<path d="M61.3992 97.2247C62.0982 96.8657 62.7097 99.8329 62.7423 100.152C62.7785 100.515 62.6875 103.896 61.8759 103.596C61.8415 103.584 61.1561 97.3497 61.3992 97.2247Z" fill="#9CBA30"/>
<path d="M70.0036 97.4426C70.6495 97.0252 71.1934 99.9201 71.2156 100.158C71.2557 100.599 71.3642 102.955 70.5872 103.03C70.383 103.05 69.4928 97.768 70.0036 97.4426Z" fill="#9CBA30"/>
<path d="M77.8927 95.4959C78.5475 94.7113 81.1163 100.159 79.689 100.331C79.2435 100.385 77.5785 95.8715 77.8927 95.4959Z" fill="#9CBA30"/>
<path d="M84.5436 92.2177C84.5839 91.5134 86.3861 92.7741 86.5598 92.9401C86.8823 93.2483 88.4555 95.197 87.7793 95.7244C87.3688 96.0454 86.7821 94.9071 86.5142 94.5671C86.181 94.1459 84.5284 92.7412 84.5436 92.2177Z" fill="#9CBA30"/>
<path d="M86.4448 86.8216C86.4487 85.8784 90.652 86.2365 89.7953 87.9054C89.5098 88.46 88.9953 87.6934 88.5589 87.528C88.2569 87.4136 86.4428 87.3582 86.4448 86.8216Z" fill="#9CBA30"/>
<path d="M85.1967 81.4552C84.4393 81.0408 87.7563 78.4758 88.4013 80.0602C88.6032 80.5567 87.9217 80.5378 87.5983 80.6448C87.1531 80.7927 85.6117 81.6828 85.1967 81.4552Z" fill="#9CBA30"/>
<path d="M80.1993 76.0226C79.5211 76.0247 80.1774 74.633 80.2791 74.5002C80.5144 74.1907 81.8036 73.2671 82.2482 73.8445C82.6155 74.3212 81.1586 75.1802 80.8049 75.4891C80.6395 75.6331 80.4552 76.0209 80.1993 76.0226Z" fill="#9CBA30"/>
<path d="M72.8852 73.8446C72.5861 73.847 72.611 73.1602 72.8713 72.4743C73.1629 71.7047 73.7493 70.9352 74.5052 71.1356C75.2427 71.3307 74.6394 71.7388 74.2988 72.1547C74.0089 72.5077 73.3722 73.8411 72.8852 73.8446Z" fill="#9CBA30"/>
<path d="M43.7395 75.4746C43.1626 75.6658 43.3734 73.6824 43.4522 73.5122C43.5296 73.3468 44.3554 72.318 44.5546 72.7247C44.5463 72.7078 44.2419 73.4046 43.9867 74.1018C43.7217 74.8257 43.5103 75.549 43.7395 75.4746Z" fill="#9CBA30"/>
<path d="M37.0592 75.5445C36.7023 75.9278 36.2837 74.0814 36.6276 73.6193C36.6555 73.5822 37.4113 72.8711 37.5009 73.2339C37.5347 73.3771 36.9688 74.0876 36.9294 74.3046C36.8953 74.491 37.1526 75.4443 37.0592 75.5445Z" fill="#9CBA30"/>
<path d="M29.7957 74.2901C29.4456 74.668 29.1545 73.142 29.2256 72.9105C29.3492 72.5092 30.6079 71.7989 30.5186 72.2373C30.4836 72.4226 29.8567 72.7442 29.7509 73.0623C29.6765 73.2861 29.9024 74.1733 29.7957 74.2901Z" fill="#9CBA30"/>
<path d="M67.0635 78.1646C66.2501 78.0357 65.4343 77.9257 64.6177 77.8309C66.3488 76.3944 68.047 74.9443 69.645 73.4622C70.3629 73.4865 71.0969 73.5191 71.8489 73.5615C72.0499 73.573 72.2518 73.589 72.4536 73.6086C70.8746 75.2849 68.8939 76.9134 67.0635 78.1646ZM74.4912 71.0348C74.0896 70.9512 73.6867 70.8762 73.283 70.8086C73.6867 70.8762 74.0896 70.9512 74.4912 71.0348Z" fill="#95B72F"/>
<path d="M72.4536 73.6086C72.2518 73.589 72.0499 73.573 71.8489 73.5615C71.0969 73.5191 70.363 73.4865 69.645 73.4622C70.63 72.5492 71.5765 71.6244 72.4687 70.6826C72.7406 70.7212 73.0121 70.7629 73.283 70.8086C73.6868 70.8762 74.0896 70.9512 74.4912 71.0348C74.4738 71.0626 74.4554 71.0917 74.4373 71.1195C74.3789 71.1092 74.3211 71.1038 74.2642 71.1038C73.6254 71.1038 73.1313 71.7889 72.8716 72.4742C72.748 72.7991 72.6774 73.1237 72.6691 73.3756C72.5986 73.4539 72.5265 73.5312 72.4536 73.6086Z" fill="#AFD837"/>
<path d="M72.6689 73.3757C72.6772 73.1237 72.7478 72.7991 72.8714 72.4742C73.1311 71.7889 73.6252 71.1039 74.264 71.1039C74.3209 71.1039 74.3787 71.1092 74.4371 71.1196C73.9682 71.8589 73.3617 72.6207 72.6689 73.3757Z" fill="#87AA21"/>
<path d="M42.341 77.066C42.1412 77.0568 41.9417 77.0476 41.7422 77.037C41.7786 76.9883 41.8187 76.94 41.8605 76.8899C42.2989 76.3662 42.699 75.8898 43.0645 75.4564C43.2199 75.4472 43.3746 75.4381 43.5299 75.4277C43.5676 75.4662 43.6123 75.4876 43.6648 75.4876C43.6882 75.4876 43.7128 75.4837 43.7395 75.4745C43.7285 75.4784 43.7184 75.4798 43.7095 75.4798C43.6778 75.4798 43.6583 75.4585 43.6488 75.4191C43.735 75.4137 43.821 75.4078 43.9073 75.401C43.3784 75.9518 42.8558 76.5067 42.341 77.066Z" fill="#95B72F"/>
<path d="M43.0645 75.4566C43.1756 75.3252 43.2835 75.1969 43.3881 75.0733C43.4163 75.2304 43.4614 75.357 43.5298 75.4278C43.3745 75.4382 43.2198 75.4474 43.0645 75.4566ZM43.6487 75.4192C43.6161 75.2858 43.7009 74.9464 43.8298 74.5519C44.5237 73.7355 45.0665 73.1047 45.4999 72.607C45.9469 72.5492 46.3945 72.4902 46.8433 72.4286C46.4452 72.8216 46.056 73.2088 45.6762 73.5912C45.0813 74.1908 44.4908 74.7932 43.9072 75.4011C43.8209 75.4079 43.735 75.4139 43.6487 75.4192Z" fill="#AFD837"/>
<path d="M43.6647 75.4876C43.6123 75.4876 43.5675 75.4662 43.5299 75.4277C43.4614 75.3568 43.4163 75.2303 43.3882 75.0732C43.542 74.8918 43.6891 74.7181 43.8299 74.5518C43.7009 74.9463 43.6161 75.2857 43.6487 75.4191C43.6582 75.4585 43.6778 75.4799 43.7095 75.4799C43.7184 75.4799 43.7285 75.4784 43.7394 75.4745C43.7128 75.4837 43.6882 75.4876 43.6647 75.4876Z" fill="#87AA21"/>
<path d="M68.2352 94.7622C68.3861 95.2394 67.5407 96.182 66.5969 96.4808C65.6522 96.779 64.9678 96.3216 64.816 95.8441C64.6648 95.3669 65.3075 94.737 66.2524 94.4388C67.1963 94.14 68.084 94.2849 68.2352 94.7622Z" fill="#A4BF41"/>
<path d="M80.8012 92.9675C81.0108 93.63 79.8384 94.9369 78.5285 95.351C77.2195 95.7654 76.2695 95.1302 76.0593 94.4686C75.8498 93.8061 76.7414 92.9334 78.0513 92.519C79.3603 92.1049 80.5919 92.3059 80.8012 92.9675Z" fill="#A4BF41"/>
<path d="M82.7981 83.9152C83.2564 84.1165 83.4076 85.3736 83.0092 86.2807C82.6114 87.1874 81.8155 87.4006 81.3569 87.1996C80.898 86.9983 80.8494 86.0998 81.2469 85.1931C81.6447 84.2863 82.339 83.7142 82.7981 83.9152Z" fill="#A4BF41"/>
<path d="M100.856 101.274C98.5021 105.894 92.049 110.041 87.6385 111.807C81.772 114.154 75.4007 115.188 69.1461 115.188C68.7145 115.188 68.2252 115.187 67.6886 115.186C67.5855 115.184 67.4791 115.183 67.3729 115.183C67.2819 115.183 67.1886 115.182 67.0952 115.181C58.7289 115.103 42.3868 114.163 44.5344 102.801C44.787 101.467 45.1542 100.166 45.6587 98.9949C46.8699 96.1759 48.8702 94.1095 51.9494 94.1513C55.3648 94.1985 64.588 108.93 85.2816 95.8368C88.5287 93.7817 92.6842 91.0066 94.5979 91.0066C95.4531 91.0066 98.7822 92.9485 99.9605 94.561C101.384 96.5061 101.946 99.1378 100.856 101.274Z" fill="#ACC944"/>
<path d="M100.856 101.274C98.5021 105.894 92.049 110.041 87.6385 111.807C81.772 114.154 75.4007 115.188 69.1461 115.188C68.7145 115.188 68.2252 115.187 67.6886 115.186C67.5855 115.184 67.4791 115.183 67.3729 115.182C67.2819 115.182 67.1886 115.182 67.0952 115.181C58.7289 115.103 42.3868 114.163 44.5344 102.801C44.787 101.467 45.1542 100.166 45.6587 98.9948C50.221 100.374 70.5654 119.437 99.9605 94.5609C101.384 96.506 101.946 99.1377 100.856 101.274Z" fill="#CBED50"/>
<path d="M48.5403 100.477C49.9186 100.527 46.9885 107.612 45.8398 106.268C45.8938 106.331 48.1368 100.462 48.5403 100.477Z" fill="#9CBA30"/>
<path d="M55.9388 104.874C56.967 104.811 54.9155 111.079 53.6029 109.981C53.4248 109.832 55.5338 104.898 55.9388 104.874Z" fill="#9CBA30"/>
<path d="M63.7715 107.036C64.7906 106.647 64.2327 112.704 62.9738 112.131C62.5967 111.961 63.1653 107.266 63.7715 107.036Z" fill="#9CBA30"/>
<path d="M71.1761 107.428C72.0019 106.137 73.7959 112.907 72.0876 112.131C71.8039 111.999 70.9849 107.747 71.1761 107.428Z" fill="#9CBA30"/>
<path d="M78.456 106.268C79.3672 105.495 80.7565 110.381 79.1472 110.223C78.7328 110.182 78.314 106.385 78.456 106.268Z" fill="#9CBA30"/>
<path d="M85.5761 103.332C86.7129 102.026 88.5356 108.069 86.9429 107.428C86.7484 107.35 85.4531 103.471 85.5761 103.332Z" fill="#9CBA30"/>
<path d="M91.8934 100.477C92.3389 98.633 96.0641 104.671 94.1311 104.222C93.9263 104.175 91.8214 100.775 91.8934 100.477Z" fill="#9CBA30"/>
<path d="M97.3133 96.7148C97.7595 94.8708 101.484 100.909 99.551 100.46C99.3462 100.413 97.241 97.0136 97.3133 96.7148Z" fill="#9CBA30"/>
<path d="M62.3554 103.893C62.3258 103.213 63.7685 102.277 65.1122 102.218C66.457 102.161 67.1939 103.003 67.2227 103.683C67.2523 104.363 66.1867 104.961 64.8421 105.019C63.4981 105.077 62.3842 104.573 62.3554 103.893Z" fill="#A4BF41"/>
<path d="M90.904 95.7731C91.2553 96.4596 90.2095 98.1065 88.8513 98.8001C87.4931 99.4944 86.335 98.9729 85.9843 98.2861C85.633 97.5987 86.4503 96.4794 87.8088 95.7852C89.1676 95.0916 90.5534 95.0854 90.904 95.7731Z" fill="#A4BF41"/>
<path d="M58.4694 101.767C57.9447 102.756 54.9612 101.932 53.0048 100.896C51.0487 99.8587 49.8882 98.2165 50.4126 97.227C50.937 96.2372 53.2283 95.8116 55.1844 96.8491C57.1405 97.8863 58.9938 100.778 58.4694 101.767Z" fill="#A4BF41"/>
<path d="M74.0227 103.022C73.8437 102.049 76.3615 100.983 78.2853 100.629C80.2082 100.274 81.9132 100.775 82.0922 101.748C82.2722 102.72 80.9184 104.271 78.9955 104.626C77.0717 104.981 74.2026 103.995 74.0227 103.022Z" fill="#A4BF41"/>
<path d="M99.4916 114.599C87.549 121.549 72.2453 124.598 58.5221 123.903C45.06 123.222 30.9648 116.349 31.0576 101.01C31.1267 89.5491 38.0677 81.2534 45.6763 73.5911C52.2996 66.921 61.9944 58.6351 64.7049 48.8582C65.3226 46.6296 65.5775 44.3241 65.3499 41.942C65.1116 39.4396 64.2054 36.9268 63.7714 34.5291C63.21 31.4222 63.4412 28.5075 66.9449 26.0519C71.5852 22.8002 77.3645 20.9526 79.3117 26.2082C79.5705 26.9071 79.8147 27.6153 80.0433 28.33C80.7271 30.4678 81.2711 32.672 81.6671 34.9105C81.9914 36.735 82.2167 38.582 82.3418 40.4335C82.6121 44.4669 82.3996 48.5214 81.665 52.4087C80.5668 58.2133 78.3042 63.6488 74.7376 68.0942C68.251 76.1804 57.0305 82.8855 50.2311 90.6271C47.2156 94.0603 44.1627 99.3654 45.6549 104.059C46.3257 106.171 47.9092 107.628 49.8968 108.641C51.8997 109.661 54.3144 110.232 56.6223 110.57C58.3484 110.824 60.0155 110.948 61.4063 111.033C64.9127 111.247 70.526 111.341 77.023 109.918H77.0239C79.5578 109.364 82.2264 108.579 84.9559 107.48C89.0045 105.85 93.1888 103.531 97.2714 100.252C98.9916 98.8707 105.535 94.1362 108.33 103.498C109.852 108.595 103.369 112.342 99.4916 114.599Z" fill="#ACC944"/>
<path d="M103.696 111.958C103.521 112.083 103.344 112.208 103.166 112.33C101.893 113.204 100.587 113.961 99.4916 114.599C97.8601 115.548 96.1663 116.425 94.4219 117.229L93.9218 117.456C91.1764 118.695 88.3108 119.755 85.3742 120.639C85.0828 120.726 84.7905 120.813 84.4976 120.897C82.1277 121.58 79.7149 122.148 77.2842 122.604C76.9655 122.664 76.6451 122.723 76.3264 122.778C73.5703 123.261 70.7952 123.6 68.0384 123.796C67.7485 123.818 67.4586 123.837 67.1696 123.854C64.2487 124.031 61.3517 124.047 58.5221 123.903C57.8575 123.871 57.1908 123.821 56.5254 123.757C56.2346 123.729 55.9441 123.699 55.6533 123.664C52.0174 123.24 48.4114 122.354 45.1267 120.96C44.8596 120.848 44.5946 120.731 44.3323 120.611C41.564 119.345 39.0488 117.705 36.9709 115.66C36.6941 115.388 36.4237 115.108 36.1629 114.821C34.2332 112.7 32.7519 110.185 31.8938 107.248C31.8247 107.013 31.7598 106.775 31.6993 106.535C31.2698 104.831 31.0457 102.99 31.0576 101.01C31.062 100.296 31.0934 99.5937 31.1498 98.9024C31.1744 98.5959 31.2043 98.2915 31.2393 97.9903C31.4856 95.8505 31.9747 93.8226 32.6609 91.8885C32.7487 91.6389 32.8406 91.3908 32.9354 91.1447C35.5161 84.442 40.4382 78.8675 45.6763 73.5912C53.8098 65.401 66.5738 54.7733 65.3499 41.9421C64.8018 36.1986 60.7372 30.4023 66.9449 26.052C71.5852 22.8002 71.3969 25.2303 73.3435 30.4853C78.4444 44.2218 75.5792 55.8585 65.7035 64.3036C56.8245 71.8983 42.4275 78.1656 37.1509 91.153C37.0246 91.4628 36.9045 91.7755 36.7895 92.0927C36.1451 93.8653 35.6696 95.7601 35.3966 97.7968V97.7977C35.3711 97.9895 35.3474 98.1824 35.3252 98.3766C35.0685 100.632 35.0575 103.057 35.3379 105.68C35.3456 105.748 35.353 105.816 35.3634 105.883V105.885C35.6797 108.21 37.1618 110.66 39.618 112.89L39.6361 112.907C39.7383 112.999 39.8415 113.091 39.947 113.182V113.182C41.6245 114.643 43.722 115.999 46.1843 117.155C46.3385 117.228 46.4944 117.299 46.6521 117.37C52.031 119.795 59.0728 121.266 67.2286 120.81C67.4806 120.797 67.7349 120.781 67.9898 120.763C70.5471 120.584 73.2107 120.215 75.9645 119.629C76.1604 119.587 76.3576 119.544 76.555 119.5C79.1045 118.93 81.7288 118.173 84.4149 117.205L84.4158 117.204C84.5297 117.165 84.6435 117.122 84.7579 117.081C87.4239 116.105 90.1495 114.922 92.9238 113.51L92.9353 113.504C93.0711 113.435 93.2054 113.366 93.3411 113.295H93.342C95.9464 111.95 98.5932 110.401 101.271 108.632C101.498 108.483 101.724 108.332 101.951 108.179C104.061 106.759 106.188 105.202 108.33 103.498C109.361 106.952 106.717 109.787 103.696 111.958Z" fill="#CBED50"/>
<path d="M73.5024 52.5964C73.8279 53.614 62.8119 53.6534 63.7717 51.3861C64.894 51.8755 73.2291 51.7418 73.5024 52.5964Z" fill="#9CBA30"/>
<path d="M68.6369 60.4557C68.9615 61.4733 58.2615 61.5127 59.2216 59.2445C60.1085 59.7066 68.3636 59.6011 68.6369 60.4557Z" fill="#9CBA30"/>
<path d="M62.055 66.672C62.5186 68.1221 52.5923 67.1442 53.6031 65.6203C53.6218 65.5921 61.993 66.4778 62.055 66.672Z" fill="#9CBA30"/>
<path d="M52.8251 72.9446C53.0907 74.3577 46.201 73.6966 47.1403 72.2373C47.2459 72.0734 52.8397 73.0214 52.8251 72.9446Z" fill="#9CBA30"/>
<path d="M45.2101 79.0663C45.6447 80.4328 40.4015 79.7279 41.1307 78.4097C41.2383 78.2141 45.0773 78.649 45.2101 79.0663Z" fill="#9CBA30"/>
<path d="M40.1646 85.6309C40.1842 86.8217 35.0762 86.4482 36.2035 84.8152C37.0368 84.8152 40.0084 85.1401 40.1646 85.6309Z" fill="#9CBA30"/>
<path d="M37.1511 91.153C37.0248 91.4628 36.9047 91.7755 36.7897 92.0927C35.6295 92.4347 33.4896 92.3482 32.6611 91.8884C32.7489 91.6389 32.8408 91.3907 32.9356 91.1447C33.9601 91.1083 36.2689 91.0727 37.1511 91.153Z" fill="#9CBA30"/>
<path d="M35.3253 98.3765C34.755 99.0707 32.4112 99.2234 31.1499 98.9023C31.1745 98.5958 31.2044 98.2914 31.2394 97.9902C32.6711 97.8097 35.3476 97.698 35.3704 97.7412C35.3808 97.7602 35.3891 97.7786 35.3968 97.7967V97.7976C35.4949 98.0205 35.459 98.2134 35.3253 98.3765Z" fill="#9CBA30"/>
<path d="M35.3633 105.883V105.885C35.186 106.48 33.1635 107.454 31.8937 107.248C31.8246 107.013 31.7597 106.775 31.6992 106.535C32.8268 106.116 35.0633 105.278 35.3378 105.68C35.3787 105.74 35.3864 105.809 35.3633 105.883Z" fill="#9CBA30"/>
<path d="M36.9711 115.66C36.6943 115.388 36.4239 115.108 36.1631 114.821C37.5652 114.094 39.6932 113.081 39.6363 112.907C39.6336 112.9 39.6277 112.895 39.6182 112.89C39.7913 112.969 39.8971 113.069 39.9472 113.182V113.182C40.2448 113.868 38.4814 115.079 36.9711 115.66Z" fill="#9CBA30"/>
<path d="M45.1269 120.96C44.8599 120.847 44.5949 120.731 44.3325 120.61C44.7552 119.685 45.8283 117.494 46.1846 117.155C46.216 117.125 46.2415 117.11 46.2613 117.111C46.4573 117.118 46.5842 117.213 46.6523 117.37C46.9814 118.11 46.0337 120.227 45.1269 120.96Z" fill="#9CBA30"/>
<path d="M56.5254 123.757C56.2346 123.729 55.9441 123.698 55.6533 123.664C55.7811 122.71 57.1763 120.463 57.1013 120.467C58.5692 120.389 57.4662 122.817 56.5254 123.757Z" fill="#9CBA30"/>
<path d="M68.0384 123.796C67.7485 123.818 67.4586 123.837 67.1696 123.854C67.0208 123.087 67.0457 121.511 67.2286 120.81C67.4806 120.797 67.7349 120.78 67.9898 120.763C68.3458 121.436 68.3512 122.981 68.0384 123.796Z" fill="#9CBA30"/>
<path d="M77.2844 122.604C76.9658 122.664 76.6453 122.723 76.3267 122.778C76.1432 122.294 75.8562 120.294 75.9647 119.629L76.5552 119.5C77.0529 120.086 77.5432 121.819 77.2844 122.604Z" fill="#9CBA30"/>
<path d="M85.3744 120.639C85.083 120.726 84.7907 120.813 84.4978 120.897C84.205 119.993 84.3318 117.288 84.4151 117.205L84.416 117.204C84.5396 117.105 84.6543 117.068 84.7581 117.081C85.4547 117.166 85.6992 119.508 85.3744 120.639Z" fill="#9CBA30"/>
<path d="M94.422 117.228C94.8325 116.315 94.1987 113.342 93.3421 113.295H93.3412C93.2063 113.287 93.0658 113.353 92.9238 113.509L92.9354 113.504C93.1061 113.504 93.4612 117.266 93.9219 117.456L94.422 117.228Z" fill="#9CBA30"/>
<path d="M103.697 111.958C103.522 112.083 103.344 112.208 103.167 112.33C103.097 112.314 101.685 109.741 101.271 108.632C101.499 108.483 101.725 108.332 101.951 108.179C102.738 108.979 103.785 111.08 103.697 111.958Z" fill="#9CBA30"/>
<path d="M81.2654 32.8807C81.1667 32.4301 81.062 31.9807 80.9512 31.5337C80.955 31.5278 80.9595 31.5195 80.9624 31.5127C81.0982 32.0575 81.1963 32.5105 81.2654 32.8807Z" fill="#DCE8B1"/>
<path d="M75.7582 41.2229C75.6883 40.1741 75.5647 39.1094 75.3862 38.0271C77.8617 36.0808 79.7125 33.8734 80.951 31.5337C81.0618 31.9807 81.1665 32.4301 81.2652 32.8806C81.2658 32.8806 81.2658 32.8815 81.2658 32.8815C79.893 35.8828 77.9367 38.7566 75.7582 41.2229Z" fill="#95B72F"/>
<path d="M64.7051 48.8581C65.2985 46.7182 65.5573 44.5063 65.375 42.2245C65.7242 42.1447 66.0633 42.0635 66.3935 41.9799C69.0714 41.3032 72.8437 39.8142 73.6473 39.2825C74.2582 38.8772 74.8371 38.459 75.3864 38.0271C75.5648 39.1093 75.6884 40.1741 75.7584 41.2228C72.1334 45.3274 67.8922 48.3035 64.7051 48.8581Z" fill="#AFD837"/>
<path d="M81.665 52.4087C81.0677 53.0243 80.4479 53.3605 79.8862 53.2633C78.2366 52.9778 77.7161 49.0692 78.2805 45.8091C78.8443 42.5499 80.6382 40.1376 82.2881 40.4228C82.3053 40.4266 82.3237 40.4296 82.3418 40.4335C82.6121 44.4669 82.3996 48.5214 81.665 52.4087Z" fill="#A4BF41"/>
<path d="M51.9493 80.5204C50.9418 79.5125 53.0588 76.1902 55.0514 74.1977C57.0439 72.2048 59.4764 71.4065 60.4839 72.4144C61.4918 73.4219 61.1532 76.3693 59.1607 78.3612C57.1681 80.3541 52.9571 81.5279 51.9493 80.5204Z" fill="#A4BF41"/>
<path d="M64.1223 73.8425C63.3573 73.0175 64.1692 70.294 65.7992 68.7816C67.4292 67.2693 69.2587 67.5402 70.0238 68.3651C70.7886 69.1892 70.0875 71.0833 68.4584 72.5957C66.8284 74.1086 64.8871 74.6665 64.1223 73.8425Z" fill="#A4BF41"/>
<path d="M53.933 114.35C54.1286 113.333 56.9921 113.252 59.0042 113.638C61.0163 114.025 62.489 115.164 62.293 116.181C62.0977 117.199 60.186 118.197 58.1739 117.811C56.1618 117.423 53.7374 115.368 53.933 114.35Z" fill="#A4BF41"/>
<path d="M56.6223 110.57C56.0777 111.361 54.6365 111.968 52.9199 112.041C50.6988 112.137 48.8586 111.304 48.8103 110.18C48.789 109.696 49.2209 109.132 49.8967 108.641C51.8996 109.661 54.3143 110.232 56.6223 110.57Z" fill="#A4BF41"/>
<path d="M66.5237 115.827C66.4751 114.704 68.8595 113.156 71.0806 113.059C73.3017 112.964 74.5197 114.356 74.5683 115.48C74.6166 116.603 72.8556 117.592 70.6336 117.688C68.4125 117.783 66.5723 116.951 66.5237 115.827Z" fill="#A4BF41"/>
<path d="M94.5985 106.919C94.2268 105.857 96.0611 103.685 98.1591 102.951C100.258 102.216 101.826 103.198 102.198 104.258C102.57 105.32 101.169 106.775 99.0712 107.511C96.9723 108.245 94.9696 107.98 94.5985 106.919Z" fill="#A4BF41"/>
<path d="M71.9918 62.972C71.2125 62.4778 71.3744 60.8282 72.3517 59.2883C73.329 57.7481 74.7533 56.9003 75.532 57.3945C76.3113 57.8892 76.1497 59.5382 75.1721 61.0784C74.1948 62.6189 72.7705 63.4667 71.9918 62.972Z" fill="#A4BF41"/>
<path d="M40.512 101.897C41.8495 101.405 43.9781 104.721 44.9518 107.365C45.9256 110.01 45.6306 112.552 44.2935 113.044C42.956 113.537 40.4225 111.995 39.4487 109.35C38.4753 106.706 39.1745 102.39 40.512 101.897Z" fill="#A4BF41"/>
<path d="M82.11 113.066C79.3678 113.71 76.8793 113.108 76.5533 111.722C76.4326 111.205 76.6102 110.559 77.0228 109.918H77.0237C79.5575 109.364 82.2262 108.579 84.9557 107.48C86.5715 107.861 87.9 108.567 88.077 109.323C88.4025 110.711 84.854 112.421 82.11 113.066Z" fill="#A4BF41"/>
<path d="M42.7103 98.7385C41.6405 98.3917 41.3293 96.3959 42.0149 94.2812C42.7008 92.1654 44.1239 90.7321 45.1934 91.079C46.2632 91.4255 46.5745 93.4213 45.8888 95.5372C45.2029 97.6519 43.7801 99.0854 42.7103 98.7385Z" fill="#A4BF41"/>
<path d="M42.5719 89.9753C41.7929 89.4814 41.9541 87.8316 42.9317 86.2919C43.9093 84.7514 45.333 83.9039 46.112 84.3978C46.891 84.8925 46.7301 86.5415 45.7522 88.082C44.7749 89.6225 43.3509 90.47 42.5719 89.9753Z" fill="#A4BF41"/>
<path d="M27.5853 43.1251C27.575 42.7563 22.9072 41.996 22.1807 39.161C26.1332 40.7623 31.8601 43.7058 38.9149 40.2818C40.2966 41.0368 41.0922 41.3092 43.141 41.8519C29.5245 45.8661 26.4918 45.5193 23.3432 45.2113C24.9235 43.8332 27.6014 43.7081 27.5853 43.1251Z" fill="#D67267"/>
<path d="M37.417 42.1798C32.3316 42.7543 26.3933 41.6281 26.6705 41.9263C26.9476 42.2245 29.2488 42.786 29.1681 43.2457C29.1438 43.3839 27.0923 44.617 27.1139 44.7142C27.1353 44.8105 36.6807 42.7904 37.417 42.1798Z" fill="#D68C67"/>
<path d="M53.352 16.835C51.7527 20.2186 47.7656 24.0949 45.2569 22.9087C42.7486 21.7236 42.3149 16.4277 43.5143 12.8943C44.8212 9.04465 48.15 5.43718 52.3924 7.26908C54.9399 8.36851 54.9512 13.4522 53.352 16.835Z" fill="#82A112"/>
<path d="M73.6471 39.2825C72.8435 39.8143 69.0712 41.3032 66.3934 41.98C59.4763 43.7271 48.0486 44.7515 43.861 42.0066C28.5926 40.3046 23.075 29.5859 26.2016 23.8718C27.4629 21.5671 28.889 21.1939 30.5374 21.2849C33.2847 21.4366 36.6491 22.8784 40.8953 18.8094C45.3772 14.5131 49.9176 7.47481 55.825 4.99493C62.6255 2.14008 72.0648 5.661 78.2168 12.5908C85.5441 20.8441 84.2952 32.2273 73.6471 39.2825Z" fill="#ACC944"/>
<path d="M66.3934 41.98C59.4763 43.7272 48.0486 44.7516 43.861 42.0067C28.5926 40.3047 23.075 29.586 26.2016 23.8718C27.4629 21.5671 28.889 21.1939 30.5374 21.285C25.2169 23.8947 28.8674 28.4584 34.9016 29.4099C40.874 30.3508 38.3535 37.2965 49.2533 40.9677C51.1258 41.5991 55.6196 44.2293 66.3934 41.98Z" fill="#CBED50"/>
<path d="M55.795 34.639C55.8397 34.6502 55.8531 34.7679 55.8388 34.976C55.8317 35.0797 55.8175 35.2072 55.797 35.3545C55.7712 35.5004 55.7312 35.6643 55.6874 35.8478C55.6633 35.9388 55.6453 36.0375 55.6112 36.1347C55.5786 36.2325 55.5445 36.3351 55.5089 36.4412C55.4716 36.5458 55.4384 36.6582 55.3921 36.7691C55.3447 36.8799 55.2958 36.9937 55.2454 37.1105C55.1505 37.3489 55.0154 37.5818 54.8855 37.832C54.8538 37.8952 54.8162 37.955 54.7779 38.0167C54.7397 38.0772 54.7015 38.1388 54.6626 38.2011C54.5841 38.3247 54.5085 38.4536 54.416 38.5743C53.7221 39.5676 52.7166 40.5292 51.5715 41.2234C50.4312 41.9262 49.1874 42.3937 48.0877 42.637C47.5375 42.7601 47.0499 42.8291 46.6221 42.8671C46.4072 42.8801 46.2095 42.8958 46.0234 42.8952C45.9306 42.8952 45.842 42.8967 45.7566 42.8952C45.6706 42.8914 45.5885 42.8884 45.5097 42.8846C44.8786 42.849 44.4603 42.7366 44.1932 42.6121C44.1283 42.5849 44.069 42.5484 44.021 42.5173C43.9727 42.4862 43.9339 42.4565 43.9025 42.4278C43.8367 42.3626 43.8046 42.3077 43.7925 42.2591C43.7691 42.1622 43.8206 42.0893 43.8616 42.0066C43.9022 41.9239 43.9374 41.8441 44.0124 41.7887C44.0495 41.7608 44.0957 41.7386 44.1529 41.7258C44.1847 41.7167 44.2223 41.7098 44.2632 41.7045C44.305 41.6992 44.3483 41.6992 44.4064 41.6932C44.624 41.6826 44.969 41.6885 45.5147 41.6559C45.5829 41.652 45.654 41.6476 45.7281 41.6431C45.8028 41.6369 45.8805 41.6301 45.9614 41.6227C46.123 41.6126 46.2987 41.5862 46.4876 41.5673C46.8661 41.5172 47.3004 41.4466 47.7936 41.3366C48.7807 41.1188 49.9044 40.7325 50.9526 40.1619C51.0815 40.0875 51.2143 40.0184 51.3415 39.9402C51.4681 39.8605 51.5946 39.781 51.7209 39.7019C51.843 39.6162 51.9649 39.5305 52.0864 39.4455C52.1484 39.4046 52.2065 39.3589 52.264 39.3127C52.3221 39.267 52.3799 39.2217 52.4377 39.176C52.4949 39.1298 52.5551 39.0865 52.6099 39.0388C52.6647 38.9902 52.7193 38.9424 52.7735 38.8938C52.8817 38.7975 52.9944 38.7056 53.0928 38.6024C53.1944 38.5014 53.2952 38.402 53.3948 38.3033C53.4885 38.1987 53.581 38.0961 53.6723 37.9945C53.7674 37.8952 53.8472 37.7867 53.9308 37.6826C53.9723 37.6311 54.0135 37.5795 54.0544 37.5285C54.0956 37.4778 54.1365 37.4268 54.1717 37.3732C54.3164 37.1612 54.4699 36.9647 54.587 36.7608C54.6496 36.6597 54.7106 36.5627 54.7696 36.4679C54.8286 36.373 54.8757 36.2749 54.9276 36.1839C54.9789 36.0914 55.0281 36.0025 55.0752 35.9177C55.125 35.8332 55.1597 35.747 55.2009 35.6672C55.2789 35.5063 55.3554 35.3622 55.4194 35.2339C55.4778 35.104 55.5317 34.9932 55.5801 34.9031C55.6764 34.7231 55.7505 34.6277 55.795 34.639Z" fill="#738C15"/>
<path d="M64.0088 32.27C65.0347 33.6706 65.0454 35.665 63.9756 36.9058C63.1088 37.9104 61.6134 38.2922 60.305 37.8422C55.6873 36.2525 57.9884 29.1647 62.4025 31.0019C63.0739 31.2821 63.6134 31.7303 64.0088 32.27Z" fill="#FAA9A0"/>
<path d="M37.4248 33.2541C37.3712 33.9143 36.5151 34.7529 35.1587 34.642C33.8026 34.532 32.4283 33.9 32.482 33.2396C32.5353 32.5804 33.4468 32.1236 35.0736 31.7691C36.4031 31.4792 37.4785 32.5946 37.4248 33.2541Z" fill="#9DBA36"/>
<path d="M77.6784 19.7317C76.7159 19.9433 75.9141 18.8507 75.4967 16.9489C75.0784 15.0464 75.2044 13.0559 76.1657 12.8452C77.1273 12.6335 78.9841 14.2081 79.4015 16.1097C79.8188 18.0112 78.6397 19.5206 77.6784 19.7317Z" fill="#9DBA36"/>
<path d="M79.2992 28.1062C78.4577 28.1062 77.4644 26.9626 77.2222 25.3349C76.9679 23.6222 77.6434 22.0218 78.5093 21.8935C78.5472 21.8875 78.5866 21.8843 78.6261 21.8843C79.5017 21.8843 80.8549 23.2072 81.0982 24.8455C81.3526 26.5583 80.297 27.9681 79.4306 28.097C79.3873 28.1032 79.3431 28.1062 79.2992 28.1062Z" fill="#C4E54D"/>
<path d="M75.6392 24.3309C75.0983 24.3309 74.5517 23.519 74.3931 22.4519C74.2271 21.3341 74.5511 20.3592 75.1164 20.275C75.143 20.2711 75.1688 20.2697 75.1952 20.2697C75.7362 20.2697 76.2828 21.0816 76.4414 22.1478C76.6074 23.2662 76.2834 24.2405 75.7181 24.3247C75.6914 24.3286 75.6656 24.3309 75.6392 24.3309Z" fill="#C0E04C"/>
<path d="M51.015 11.7683C50.8916 11.7683 50.7749 11.7463 50.6684 11.6968C50.463 11.602 50.3172 11.4108 50.2431 11.1209C50.2057 10.9753 50.1962 10.8138 50.2016 10.627C50.2033 10.5328 50.217 10.4403 50.233 10.3401C50.2502 10.2408 50.2694 10.1344 50.2994 10.0291C50.4141 9.60407 50.6343 9.13661 50.9512 8.67893C51.2678 8.22155 51.6822 7.77751 52.1701 7.38979C53.1474 6.61108 54.216 6.21951 55.0398 6.13769C55.1495 6.12643 55.2559 6.12109 55.3576 6.12109C55.4468 6.12109 55.5321 6.12465 55.6131 6.13088C55.7877 6.14748 55.9445 6.18156 56.079 6.22958C56.3494 6.32652 56.5349 6.48836 56.6191 6.69704C56.7869 7.12034 56.5338 7.65093 56.0782 8.21236C55.6199 8.77527 54.9506 9.36871 54.211 9.95918C53.4667 10.5473 52.7953 11.0254 52.2033 11.3547C52.1277 11.3956 52.0593 11.436 51.9863 11.4715C51.9155 11.508 51.8405 11.54 51.7744 11.5711C51.6398 11.6331 51.4996 11.6802 51.373 11.7152C51.2506 11.7493 51.13 11.7683 51.015 11.7683Z" fill="#EFF5DC"/>
<path d="M58.6752 7.2122C58.5163 7.2122 58.3672 7.20242 58.2318 7.18167C58.0592 7.15914 57.9093 7.11586 57.7931 7.05124C57.6774 6.99047 57.5959 6.90866 57.5615 6.80462C57.5272 6.70146 57.5438 6.58526 57.606 6.46551C57.6691 6.34783 57.7782 6.22481 57.9264 6.10654C58.2241 5.87503 58.685 5.66724 59.2274 5.58306C59.397 5.55638 59.5636 5.54333 59.7231 5.54333C60.074 5.54333 60.3915 5.6041 60.6328 5.70577C60.7208 5.74312 60.7988 5.78403 60.8658 5.82731C60.9325 5.87444 60.9882 5.92365 61.0321 5.97374C61.1195 6.07541 61.1589 6.18242 61.148 6.29091C61.137 6.39941 61.0771 6.4996 60.9855 6.58763C60.9396 6.6315 60.8856 6.67271 60.8255 6.71065C60.7635 6.75156 60.695 6.7895 60.6209 6.82359C60.3233 6.9632 59.9282 7.07318 59.4708 7.1455C59.1928 7.18878 58.9224 7.2122 58.6752 7.2122Z" fill="#EFF5DC"/>
<path d="M57.6828 28.956C47.0641 30.4351 48.2625 13.1715 57.8868 12.5484C68.1021 11.8882 66.4021 27.7412 57.6828 28.956Z" fill="#82A112"/>
<path d="M55.0858 29.8379C54.6279 29.6989 54.2007 29.4828 53.8169 29.1953C52.7432 28.3908 52.0475 27.1927 51.805 25.7304C51.3803 23.1708 52.3884 20.2581 53.5759 18.5069C54.785 16.7236 56.6545 15.6991 58.4553 15.8325C58.8377 15.8616 59.2044 15.9283 59.5438 16.0308C60.696 16.3797 61.5897 17.1555 62.1277 18.2724C63.2902 20.6856 62.438 23.7527 62.018 24.9594C61.4877 26.4806 60.7143 27.7944 59.8959 28.563C58.5596 29.8175 56.6717 30.3175 55.0858 29.8379Z" fill="white"/>
<path d="M61.2775 25.6491C60.8291 26.9368 60.1834 28.0673 59.5141 28.6958C58.3151 29.8213 56.4023 30.2431 55.0701 29.245C52.4598 27.2895 53.6698 22.7631 55.162 20.5625C56.022 19.2938 57.4166 18.3473 58.8946 18.4576C62.2961 18.711 62.334 22.6152 61.2775 25.6491Z" fill="black"/>
<path d="M55.1418 23.8323C54.9506 24.6033 54.2075 25.0509 53.4821 24.8309C52.7568 24.6116 52.3237 23.808 52.5149 23.037C52.7064 22.2654 53.4492 21.8184 54.1746 22.0377C54.9002 22.2577 55.3333 23.0604 55.1418 23.8323Z" fill="white"/>
</svg>
