<svg width="120" height="120" viewBox="0 0 120 120" fill="none" xmlns="http://www.w3.org/2000/svg">
<path d="M57.7469 78.0025C53.7493 89.4631 47.1665 95.1365 49.2114 97.4691C51.2563 99.8015 50.1848 102.836 44.0649 99.3295C40.2335 97.1336 31.4928 92.4845 24.6917 84.7974C20.6311 80.2086 17.2616 74.5371 16.0395 67.658C13.3772 52.6724 15.4278 47.1881 15.4278 47.1881C15.4278 47.1881 17.021 31.7301 32.5053 19.317C33.7087 18.3525 34.7508 17.2025 35.5909 15.9099C36.2608 14.8765 37.1409 13.606 38.0528 12.5215C38.3005 12.2275 38.6153 12.0156 38.9755 11.8775C41.6214 10.8586 46.6684 13.8105 44.6924 17.266C42.4479 21.1916 58.2214 28.4021 60.5719 51.2525C60.5719 51.2525 61.7438 66.5416 57.7469 78.0025Z" fill="#B1335F"/>
<path d="M40.842 11.724C40.7764 11.7147 40.7104 11.7061 40.6455 11.699C40.7104 11.7061 40.776 11.7147 40.842 11.724Z" fill="#D1808B"/>
<path d="M46.5416 100.245C46.2756 100.245 45.9756 100.212 45.6397 100.143C45.157 99.924 44.6326 99.6545 44.0647 99.3295C40.2816 97.1611 31.7143 92.6022 24.9521 85.0891C24.865 84.9926 24.7781 84.8955 24.6914 84.7975C25.1125 85.016 25.5652 85.2301 26.0463 85.4301C27.6531 86.0986 29.5738 86.6106 31.6877 86.6106C36.4441 86.6106 42.1807 84.0205 47.5355 74.7981C59.7557 53.7516 48.1412 31.8006 43.6445 26.574C39.1486 21.3475 40.7332 18.3215 42.1836 15.9631C43.6346 13.6045 38.9752 11.8776 38.9752 11.8776C39.3361 11.7385 39.7422 11.6736 40.1686 11.6736C40.3252 11.6736 40.4846 11.682 40.6457 11.699C40.7105 11.7061 40.7766 11.7147 40.8422 11.724C42.615 12.7051 43.873 14.5586 42.7137 16.5861C40.4691 20.5121 56.2426 27.7221 58.5932 50.5725C58.5932 50.5725 58.907 54.6695 58.6557 60.2115C58.2451 61.5391 57.7301 63.3147 57.215 65.384C56.6436 67.6816 56.0717 70.341 55.6422 73.1551C55.332 75.185 55.0961 77.2955 54.9891 79.409C50.9797 89.4816 45.3156 94.6025 47.2326 96.7891C48.6082 98.3576 48.574 100.245 46.5416 100.245Z" fill="#A7315D"/>
<path d="M60.5711 51.2525L59.9006 51.3041V51.3051C59.9041 51.356 60.0586 53.4135 60.0586 56.5535C60.0586 59.2736 59.9426 62.806 59.515 66.5465C59.0881 70.2871 58.3475 74.2361 57.1105 77.781C56.252 80.242 55.2721 82.4346 54.284 84.3846C53.5426 85.8465 52.7961 87.173 52.092 88.3746C51.5641 89.276 51.0596 90.107 50.598 90.8746C49.9061 92.0266 49.3109 93.032 48.877 93.9285C48.66 94.3771 48.4826 94.7986 48.3561 95.2041C48.2305 95.6099 48.1535 96.0016 48.1531 96.3906C48.1531 96.6641 48.1926 96.9371 48.284 97.1971C48.375 97.457 48.5186 97.701 48.7045 97.9125C48.9715 98.2166 49.1715 98.5295 49.3 98.817C49.3645 98.9611 49.4115 99.0986 49.4416 99.2246C49.4715 99.3506 49.4846 99.465 49.4846 99.5631C49.4846 99.6861 49.4645 99.782 49.435 99.8566C49.4125 99.9125 49.385 99.957 49.349 99.9974C49.3221 100.029 49.29 100.057 49.2484 100.086C49.1859 100.128 49.1006 100.169 48.9805 100.2C48.8615 100.231 48.708 100.252 48.5195 100.252C48.126 100.252 47.5801 100.16 46.8916 99.9215C46.2031 99.684 45.3721 99.3031 44.399 98.7455C43.6285 98.3041 42.6711 97.7695 41.5746 97.134C39.6561 96.0224 37.3145 94.6025 34.8375 92.849C31.1215 90.2201 27.1037 86.8416 23.7613 82.6471C22.0898 80.5496 20.5869 78.249 19.3709 75.735C18.1551 73.2215 17.2258 70.4951 16.701 67.5406C15.659 61.676 15.3457 57.2885 15.3457 54.134C15.3457 51.7035 15.5314 50.0045 15.7135 48.924C15.8043 48.384 15.8941 47.9986 15.9594 47.7531C15.992 47.6305 16.0184 47.543 16.0355 47.4885C16.0443 47.4615 16.0506 47.4426 16.0543 47.432C16.0562 47.4266 16.0574 47.423 16.0578 47.4221L16.058 47.4215L15.9611 47.3861L16.058 47.4215L15.9611 47.3861L16.058 47.4215L15.6936 47.2875L16.0576 47.4225L16.058 47.4215L15.6936 47.2875L16.0576 47.4225L15.5742 47.243L16.0574 47.423L16.0576 47.4225L15.5742 47.243L16.0574 47.423H16.0576L15.4404 47.193L16.0572 47.424L16.0576 47.423L15.4404 47.193L16.0572 47.424C16.0768 47.3711 16.0904 47.3131 16.0961 47.257L15.5264 47.1986L16.0961 47.258V47.257L15.5264 47.1986L16.0961 47.258C16.0961 47.258 16.0975 47.2455 16.1008 47.217C16.1521 46.782 16.665 42.892 19.0119 37.6381C20.1854 35.0111 21.8168 32.0426 24.0779 28.9916C26.3391 25.9396 29.2299 22.8051 32.9254 19.8426C34.1844 18.8336 35.2756 17.6295 36.1545 16.276C36.485 15.7666 36.867 15.199 37.2775 14.6271C37.6875 14.0555 38.126 13.4791 38.5676 12.9545C38.652 12.8541 38.7471 12.7686 38.8551 12.6941C39.0166 12.582 39.208 12.4955 39.4291 12.4361C39.65 12.3766 39.8996 12.3455 40.1676 12.3461C40.6305 12.3455 41.1475 12.4391 41.6535 12.6166C42.0336 12.749 42.4064 12.9275 42.7484 13.1426C43.2625 13.4646 43.7031 13.8686 44.0031 14.3055C44.1535 14.524 44.2695 14.75 44.3475 14.9805C44.4256 15.2105 44.4666 15.4445 44.4666 15.6865C44.4666 15.8781 44.441 16.0756 44.3836 16.2826C44.3266 16.4891 44.2371 16.7055 44.1076 16.932C44.0051 17.1111 43.927 17.301 43.876 17.4961C43.825 17.6916 43.8006 17.892 43.801 18.091C43.801 18.4441 43.8746 18.791 43.9965 19.134C44.1109 19.4555 44.268 19.775 44.4586 20.1025C44.816 20.7156 45.2926 21.358 45.858 22.0641C46.8465 23.298 48.109 24.7236 49.4781 26.4305C51.5305 28.99 53.8215 32.1771 55.758 36.241C57.6936 40.3051 59.2766 45.2455 59.902 51.3215L60.5711 51.2525L59.9006 51.3041L60.5711 51.2525L61.2406 51.1836C60.685 45.7811 59.3859 41.2295 57.749 37.3846C55.2945 31.6166 52.0801 27.4385 49.5061 24.3385C48.8625 23.5635 48.2596 22.8566 47.7189 22.21C46.909 21.242 46.2406 20.408 45.7939 19.708C45.5711 19.359 45.4035 19.0441 45.2975 18.7721C45.191 18.4996 45.1461 18.2736 45.1465 18.091C45.1465 17.999 45.1576 17.9166 45.1781 17.8371C45.199 17.7576 45.2301 17.6811 45.276 17.6C45.457 17.2836 45.5916 16.9625 45.6805 16.6416C45.7695 16.3211 45.8125 16 45.8125 15.6865C45.8125 15.3346 45.7586 14.9926 45.6605 14.6686C45.4891 14.1006 45.1859 13.59 44.8061 13.1451C44.5205 12.8115 44.1906 12.5131 43.832 12.2521C43.2939 11.86 42.692 11.5506 42.068 11.3355C41.4439 11.1211 40.798 11.0006 40.1676 11C39.674 11 39.1881 11.0746 38.735 11.248C38.509 11.335 38.2916 11.4471 38.0895 11.5865C37.8875 11.7266 37.701 11.8941 37.5375 12.0881C37.0666 12.648 36.609 13.2496 36.184 13.8426C35.7586 14.4355 35.3656 15.0201 35.0256 15.543C34.2252 16.776 33.2312 17.8725 32.0838 18.7926C28.1637 21.9346 25.1191 25.273 22.7598 28.5125C19.2203 33.3721 17.2223 38.0076 16.1076 41.4346C14.9932 44.8615 14.7615 47.081 14.7576 47.1191L15.427 47.1881L14.7967 46.9525C14.7648 47.0371 13.9998 49.1365 14 54.134C14 57.3775 14.3221 61.8435 15.376 67.7756C16.2105 72.4756 18.0275 76.6221 20.3711 80.2426C23.8877 85.6746 28.5834 89.9291 32.9703 93.1611C35.1641 94.7766 37.2814 96.1365 39.1375 97.257C40.9936 98.3775 42.5895 99.2596 43.7295 99.9131C44.76 100.504 45.6621 100.92 46.4525 101.194C47.2436 101.466 47.9234 101.596 48.5195 101.597C48.858 101.597 49.1711 101.554 49.4564 101.462C49.6701 101.394 49.8686 101.296 50.0439 101.171C50.1756 101.078 50.2936 100.968 50.3945 100.846C50.5461 100.663 50.6576 100.454 50.7281 100.236C50.799 100.017 50.8305 99.79 50.8305 99.5631C50.8301 99.3465 50.802 99.1285 50.7506 98.9125C50.6725 98.5875 50.5436 98.265 50.3695 97.949C50.1955 97.6326 49.977 97.3224 49.7166 97.0256C49.6381 96.9355 49.5891 96.8496 49.5535 96.7506C49.5189 96.6516 49.499 96.5361 49.4984 96.3906C49.4984 96.2685 49.5135 96.1266 49.5471 95.9646C49.6086 95.6611 49.7359 95.2906 49.925 94.866C50.2545 94.1221 50.7686 93.215 51.3984 92.1576C52.3436 90.5695 53.5484 88.6385 54.7859 86.3301C56.0246 84.0215 57.2965 81.334 58.3811 78.224C59.6641 74.5441 60.4166 70.508 60.852 66.6996C61.2871 62.8916 61.4041 59.3121 61.4041 56.5535C61.4041 53.3191 61.243 51.2146 61.242 51.201L61.2406 51.1836L60.5711 51.2525Z" fill="#661B2B"/>
<path d="M33.1593 27.2026C33.1593 27.2026 25.4144 31.8436 21.4021 46.0926C17.3898 60.3421 24.915 77.0157 28.4425 75.0381C31.9702 73.0606 44.0509 19.093 33.1593 27.2026Z" fill="#BF4061"/>
<path d="M42.5053 60.008C42.1618 60.008 41.9047 59.8881 41.9047 59.8881C41.3518 59.6576 42.2393 57.733 42.1198 57.4435C42.0303 57.225 42.1698 57.0099 42.5088 57.0099C42.6198 57.0099 42.7528 57.033 42.9057 57.0871C43.5258 57.3051 44.3938 58.1724 43.7037 59.2896C43.3463 59.8691 42.8752 60.008 42.5053 60.008Z" fill="#B8395F"/>
<path d="M41.4925 59.8042L42.0851 56.901C42.0851 56.901 40.6896 56.2942 40.1185 57.6042C39.547 58.9147 39.8745 59.8706 41.4925 59.8042Z" fill="#B1335F"/>
<path d="M42.1012 57.5945C42.4586 57.6676 42.6731 58.0935 42.5811 58.5461C42.4887 58.9986 42.124 59.306 41.7666 59.233C41.4096 59.1605 41.1945 58.7346 41.2871 58.282C41.3797 57.8295 41.7442 57.5215 42.1012 57.5945Z" fill="#80223C"/>
<path d="M39.2829 78.3225C39.0738 78.3222 38.9288 78.2641 38.9288 78.2641C38.3948 78.0821 39.0259 75.5552 38.8868 75.2212C38.7693 74.9376 38.9208 74.6052 39.3333 74.6052C39.4068 74.6052 39.4888 74.6157 39.5788 74.6391C40.1738 74.7931 41.0628 75.7001 40.5349 77.1987C40.1999 78.1487 39.6448 78.3225 39.2829 78.3225Z" fill="#B8395F"/>
<path d="M38.5394 78.2366L38.8009 74.5612C38.8009 74.5612 37.4499 74.0711 37.0509 75.7856C36.6519 77.5006 37.0488 78.6147 38.5394 78.2366Z" fill="#B1335F"/>
<path d="M38.8843 75.4106C39.2224 75.4346 39.4628 75.918 39.4218 76.491C39.3814 77.0641 39.0744 77.509 38.7369 77.4846C38.3988 77.4606 38.1583 76.9772 38.1988 76.4041C38.2398 75.8311 38.5464 75.3862 38.8843 75.4106Z" fill="#80223C"/>
<path d="M32.9987 42.3356C32.8188 42.3356 32.6952 42.2831 32.6952 42.2831C32.2303 42.1151 32.7918 39.7481 32.6723 39.4366C32.5706 39.1711 32.7055 38.8586 33.0676 38.8586C33.1309 38.8586 33.2012 38.868 33.2782 38.8891C33.7963 39.0305 34.5672 39.8747 34.1002 41.2792C33.8026 42.1737 33.3141 42.3356 32.9987 42.3356Z" fill="#BF4061"/>
<path d="M32.3556 42.2586L32.6003 38.8202C32.6003 38.8202 31.4245 38.3676 31.0687 39.9731C30.7128 41.5792 31.0542 42.6196 32.3556 42.2586Z" fill="#B1335F"/>
<path d="M32.6692 39.6135C32.9635 39.6346 33.1713 40.0861 33.1333 40.6221C33.095 41.158 32.8254 41.5756 32.5309 41.5551C32.2366 41.534 32.0288 41.0826 32.067 40.5465C32.1051 40.01 32.3747 39.5926 32.6692 39.6135Z" fill="#80223C"/>
<path d="M25.8508 61.3031C25.592 61.3031 25.4098 61.2426 25.4098 61.2426C24.7792 61.0625 25.4774 58.7055 25.3084 58.3906C25.1668 58.126 25.334 57.8211 25.8065 57.8211C25.8969 57.8211 25.9987 57.832 26.1118 57.857C26.8137 58.0115 27.8737 58.876 27.2788 60.2715C26.9088 61.1391 26.2762 61.3031 25.8508 61.3031Z" fill="#BF4061"/>
<path d="M24.9514 61.2096L25.1964 57.7706C25.1964 57.7706 23.6003 57.2885 23.1604 58.8881C22.7204 60.4881 23.2065 61.5385 24.9514 61.2096Z" fill="#B1335F"/>
<path d="M25.3091 58.5676C25.7066 58.5961 25.9978 59.0536 25.9595 59.5897C25.9214 60.1256 25.5683 60.5372 25.1708 60.509C24.7736 60.4805 24.4824 60.0231 24.5204 59.4872C24.5587 58.951 24.9116 58.5397 25.3091 58.5676Z" fill="#80223C"/>
<path d="M43.6421 35.7311C43.5066 35.7311 43.4156 35.7051 43.4156 35.7051C42.948 35.5961 43.3136 33.5705 43.1726 33.317C43.0466 33.0906 43.1716 32.8026 43.5685 32.8026C43.6161 32.8026 43.6675 32.8067 43.723 32.8156C44.2406 32.8986 45.0605 33.5541 44.712 34.7656C44.4716 35.6016 43.945 35.7311 43.6421 35.7311Z" fill="#B8395F"/>
<path d="M43.0813 35.708L43.0537 32.8041C43.0537 32.8041 41.8688 32.5055 41.6453 33.8781C41.4213 35.2506 41.8361 36.1006 43.0813 35.708Z" fill="#B1335F"/>
<path d="M43.1832 33.4661C43.473 33.4632 43.7111 33.8282 43.715 34.2805C43.7195 34.7331 43.4881 35.1026 43.1986 35.1051C42.9091 35.1077 42.6707 34.743 42.6666 34.2907C42.6621 33.8376 42.8935 33.4686 43.1832 33.4661Z" fill="#80223C"/>
<path d="M51.3088 81.7026C51.3088 81.7026 51.7709 82.0327 52.1633 81.0971C52.5553 80.1622 52.2273 79.5376 51.9638 79.41C51.6998 79.2827 51.5508 79.5292 51.5834 79.7497C51.6164 79.9706 51.0763 81.56 51.3088 81.7026Z" fill="#B1335F"/>
<path d="M51.1284 81.666L51.6067 79.3225C51.6067 79.3225 51.0218 78.943 50.6692 80.0225C50.3163 81.1026 50.3942 81.8362 51.1284 81.666Z" fill="#952D59"/>
<path d="M51.5833 79.7497C51.8026 79.7946 51.9057 80.1946 51.8141 80.6442C51.7221 81.093 51.4708 81.4211 51.2512 81.3766C51.0321 81.3317 50.9292 80.9311 51.0208 80.4821C51.1122 80.0331 51.3641 79.7051 51.5833 79.7497Z" fill="#80223C"/>
<path d="M54.7955 46.8237C54.7955 46.8237 55.5785 47.2186 56.0924 46.3086C56.6065 45.3981 56.0024 44.7176 55.5639 44.5541C55.125 44.3906 54.916 44.6246 54.9955 44.8551C55.0754 45.0856 54.4049 46.6487 54.7955 46.8237Z" fill="#B1335F"/>
<path d="M54.5023 46.7635L54.9804 44.4201C54.9804 44.4201 53.9949 43.9586 53.5619 45.0221C53.1289 46.0856 53.3449 46.8475 54.5023 46.7635Z" fill="#952D59"/>
<path d="M54.9954 44.8551C55.3528 44.9281 55.5678 45.3516 55.4762 45.8006C55.3848 46.2496 55.0207 46.5551 54.6633 46.482C54.3063 46.409 54.0909 45.9856 54.1829 45.5365C54.2743 45.0875 54.6383 44.782 54.9954 44.8551Z" fill="#80223C"/>
<path d="M42.1287 92.7305C42.1287 92.7305 42.5912 93.0606 42.9832 92.1256C43.3752 91.1901 43.047 90.5661 42.7836 90.4381C42.5201 90.3106 42.3707 90.5571 42.4037 90.7776C42.4361 90.9987 41.8961 92.5881 42.1287 92.7305Z" fill="#B1335F"/>
<path d="M41.9481 92.6942L42.4266 90.3507C42.4266 90.3507 41.8417 89.9712 41.4891 91.0511C41.136 92.1305 41.2141 92.8647 41.9481 92.6942Z" fill="#952D59"/>
<path d="M42.4036 90.7775C42.6225 90.8225 42.7255 91.2231 42.634 91.6721C42.5424 92.1215 42.2905 92.449 42.0715 92.4045C41.8524 92.36 41.7489 91.9596 41.8405 91.51C41.9325 91.0611 42.1844 90.733 42.4036 90.7775Z" fill="#80223C"/>
<path d="M55.1575 65.9705C55.1575 65.9705 55.989 66.3756 56.521 65.4692C57.0536 64.5625 56.4081 63.8731 55.9431 63.7045C55.4775 63.5356 55.2595 63.768 55.346 64C55.4331 64.2317 54.7431 65.7906 55.1575 65.9705Z" fill="#B1335F"/>
<path d="M54.8473 65.907L55.3252 63.5635C55.3252 63.5635 54.2793 63.09 53.8342 64.151C53.3893 65.2121 53.6262 65.9781 54.8473 65.907Z" fill="#952D59"/>
<path d="M55.3457 64.0001C55.7242 64.0772 55.9563 64.5036 55.8643 64.9532C55.7727 65.4022 55.3922 65.7042 55.0143 65.6266C54.6358 65.5497 54.4037 65.1231 54.4957 64.6737C54.5873 64.2247 54.9678 63.9225 55.3457 64.0001Z" fill="#80223C"/>
<path d="M98.5995 85.6161C90.5065 102.464 69.9325 106.861 63.0956 108.595C56.2585 110.329 56.042 107.118 58.6385 105.42C60.9145 103.932 57.493 98.1881 56.0944 88.6311C55.8979 87.2881 55.7415 85.8696 55.646 84.3766C54.8745 72.2631 60.11 57.851 60.11 57.851C67.718 42.5836 104.59 51.7987 104.688 66.0631C104.688 66.0631 104.757 66.8791 104.5 68.6186C104.071 71.5291 102.724 77.0272 98.5995 85.6161Z" fill="#B1335F"/>
<path d="M62.5704 66.026C62.5704 66.026 56.6689 87.0272 63.3144 91.7266C69.9603 96.4266 75.4308 74.259 76.1859 70.6535" fill="#BF4061"/>
<path d="M57.7591 107.711C57.7521 107.676 57.7485 107.637 57.7479 107.594C57.7479 107.503 57.7671 107.391 57.814 107.263C57.8835 107.071 58.0175 106.846 58.2161 106.619C58.4146 106.393 58.6761 106.165 58.9905 105.959C59.1786 105.836 59.346 105.687 59.4851 105.516C59.589 105.388 59.6774 105.249 59.7501 105.103C59.8585 104.883 59.9315 104.648 59.9774 104.403C60.0235 104.159 60.0431 103.905 60.0431 103.639C60.0425 103.192 59.988 102.712 59.897 102.189C59.737 101.276 59.4636 100.23 59.1364 99.0362C58.6456 97.2462 58.0331 95.126 57.4931 92.6741C57.4806 92.6171 57.4681 92.56 57.4556 92.5032C58.4075 94.6747 59.8979 97.2987 62.0479 99.0907C63.5511 100.344 65.3774 101.191 67.5665 101.191C69.2146 101.191 71.0675 100.712 73.145 99.5651C85.8536 92.551 91.5565 76.5296 91.5565 76.5296L98.3149 66.001L101.715 66.0317C101.894 66.3786 102.101 66.784 102.329 67.2391C101.899 70.1497 100.553 75.6481 96.428 84.2366C88.3351 101.084 67.761 105.481 60.9239 107.215C59.646 107.54 58.5989 107.691 57.7591 107.711Z" fill="#A7315D"/>
<path d="M60.1101 57.851C67.7181 42.5836 104.591 51.7987 104.688 66.0631C104.082 85.3416 54.321 78.4786 60.1101 57.851Z" fill="#F4B110"/>
<path d="M78.3292 75.0671C74.7936 74.3266 71.4981 73.1346 68.8002 71.6202C65.9471 70.0186 63.8512 68.1366 62.5708 66.026C61.1547 63.6921 60.8067 61.1276 61.5366 58.4016C62.3292 56.8661 63.5051 55.5581 65.0342 54.5122C66.5436 53.4792 68.3971 52.6965 70.5426 52.1866C74.6116 51.2186 79.6471 51.2706 84.7211 52.3331C89.7571 53.3876 94.3991 55.3282 97.7917 57.7981C100.224 59.568 103.127 62.434 103.166 66.0446C103.079 68.5817 101.981 70.6956 99.9047 72.3286C97.7071 74.0571 94.4631 75.2202 90.5231 75.6921C86.6901 76.151 82.4731 75.935 78.3292 75.0671Z" fill="#F9DD43"/>
<path d="M78.7365 73.1202C75.3971 72.4206 72.2976 71.3022 69.7736 69.8856C67.223 68.4536 65.3721 66.8081 64.2717 64.9942C63.1682 63.176 62.8836 61.2545 63.4047 59.1266C64.0426 57.967 64.9676 56.968 66.157 56.1541C67.465 55.259 69.0951 54.5756 71.0025 54.1215C74.7932 53.2202 79.5201 53.276 84.3137 54.2801C89.0801 55.2782 93.4512 57.0987 96.6207 59.4061C98.6717 60.8991 101.121 63.2555 101.176 66.0225C101.098 67.9516 100.279 69.5036 98.6752 70.7651C96.7646 72.268 93.8637 73.2885 90.2865 73.7166C86.6656 74.1506 82.6717 73.9442 78.7365 73.1202Z" fill="#F7AD0C"/>
<path d="M79.0225 71.7532C78.6959 71.685 78.6299 70.4606 78.309 70.384C77.9844 70.3067 77.7539 69.9501 77.4353 69.8647C77.1129 69.7776 76.5014 70.7487 76.1859 70.6536C75.8654 70.5571 75.608 70.2596 75.2959 70.1551C74.9785 70.0487 74.8014 69.5706 74.4934 69.4567C74.1789 69.3397 73.9648 69.0212 73.6613 68.8962C73.351 68.7686 73.0385 68.7077 72.7398 68.5715C72.434 68.4327 71.6863 69.2247 71.3939 69.0772C71.0934 68.9256 70.6309 69.0251 70.3459 68.8657C70.0264 68.6862 70.235 67.609 69.9414 67.4241C69.6305 67.2282 69.484 66.843 69.2029 66.6411C68.9039 66.426 67.9139 67.1055 67.6484 66.884C67.366 66.6475 68.008 65.4135 67.7639 65.1702C67.5029 64.909 66.168 65.6167 65.952 65.3481C65.7209 65.0612 66.101 64.2885 65.9215 63.993C65.7299 63.6772 66.3555 63.0436 66.2305 62.7225C66.0988 62.3856 65.3969 62.3087 65.3385 61.9606C65.2805 61.6141 64.5853 61.2616 64.5988 60.8987C64.6113 60.5555 64.6193 60.0026 64.6949 59.6397C64.8603 59.3671 65.2055 58.9657 65.4164 58.7171C65.6209 58.4756 66.7385 59.1317 66.984 58.9135C67.2193 58.7046 66.6119 57.4036 66.8844 57.2171C67.1879 57.0096 67.9488 57.4686 68.2965 57.2872C68.6225 57.1176 69.0295 57.1356 69.393 56.9891C69.7344 56.8516 69.8424 55.9965 70.2164 55.8801C70.5684 55.7706 70.9129 55.4327 71.293 55.3421C71.626 55.2631 72.0529 55.443 72.402 55.3801C72.7389 55.3186 73.1648 55.7087 73.5154 55.6626C73.8559 55.618 74.2705 56.3596 74.6225 56.3292C74.9648 56.2997 75.2754 56.1337 75.6273 56.1176C75.9715 56.1016 76.2914 55.4671 76.6434 55.4635C76.9879 55.4606 77.3289 55.7635 77.6809 55.7725C78.026 55.7817 78.3344 56.3006 78.6853 56.3215C79.0299 56.3421 79.3853 56.0026 79.7353 56.034C80.0795 56.0657 80.4689 55.6411 80.8174 55.6837C81.1609 55.7251 81.5193 55.6897 81.866 55.7417C82.2084 55.7936 82.6004 55.6022 82.9455 55.6641C83.2863 55.7256 83.4385 56.751 83.7809 56.8231C84.1244 56.8952 84.6305 56.2087 84.9689 56.2891C85.3103 56.3706 85.7795 55.9901 86.1154 56.0801C86.4555 56.1712 86.5568 57.1171 86.8898 57.2167C87.2273 57.3176 87.6875 57.0192 88.017 57.1282C88.3514 57.2385 88.7125 57.2876 89.0385 57.4067C89.3693 57.5276 89.6135 57.8817 89.935 58.0106C90.2625 58.1421 90.9139 57.5337 91.2309 57.6737C91.5539 57.8161 91.7059 58.3731 92.017 58.5241C92.3353 58.6782 92.3398 59.4465 92.6443 59.6087C92.9568 59.7756 93.7625 59.0715 94.06 59.2465C94.366 59.4266 94.3629 60.1317 94.6514 60.3196C94.9488 60.5135 95.6309 60.1817 95.909 60.3837C96.208 60.601 96.1914 61.2561 96.4564 61.4751C96.7434 61.7122 96.285 62.7317 96.5314 62.968C96.8019 63.2282 97.7994 62.7391 98.0193 62.9971C98.2654 63.285 98.7184 63.4581 98.8994 63.7407C99.1055 64.0631 98.8504 64.6501 98.9684 64.9612C99.1039 65.3186 98.3014 65.6657 98.3148 66.001C98.2978 66.3301 99.516 66.7487 99.4379 67.0401C99.3559 67.3481 99.4904 67.8936 99.3363 68.168C99.1875 68.4337 98.9059 68.8221 98.6853 69.0641C98.4853 69.2837 98.0228 69.3965 97.7603 69.6032C97.5109 69.7991 97.3684 70.3196 97.0754 70.4965C96.8035 70.6612 96.2484 70.4581 95.9404 70.6055C95.6529 70.743 95.2715 70.7612 94.9539 70.8837C94.6555 70.9987 94.226 70.7911 93.9019 70.8921C93.5959 70.9876 93.5068 71.9702 93.1789 72.0532C92.867 72.1317 92.1949 70.6782 91.8644 70.7452C91.5484 70.8087 91.2359 70.7551 90.9035 70.8081C90.5844 70.8587 90.4625 72.36 90.1289 72.4001C89.7689 72.443 89.3475 72.0837 88.9799 72.1131C88.6184 72.1421 88.227 71.7776 87.859 71.7936C87.4965 71.8096 87.142 72.5676 86.7738 72.5712C86.4103 72.5741 86.0545 71.3192 85.6863 71.31C85.3228 71.301 84.9529 71.7337 84.5859 71.7131C84.2225 71.6926 83.8125 72.251 83.4465 72.2192C83.0834 72.1872 82.6619 72.5327 82.2975 72.4897C81.9359 72.4465 81.5594 72.3296 81.1969 72.2756C80.8359 72.2221 80.5738 71.4901 80.2129 71.4256C79.8539 71.3612 79.3814 71.8286 79.0225 71.7532Z" fill="#FABB09"/>
<path d="M60.1102 57.851L59.5053 57.6311C59.4998 57.6461 58.3578 60.7907 57.2146 65.384C56.6432 67.6817 56.0713 70.3411 55.6418 73.1551C55.2123 75.9692 54.9248 78.9375 54.9248 81.8555C54.9248 82.7157 54.9498 83.5711 55.0037 84.417C55.3127 89.2696 56.2633 93.3455 57.1297 96.5866C57.5627 98.2067 57.9748 99.6186 58.2742 100.806C58.4242 101.399 58.5457 101.936 58.6287 102.411C58.7123 102.886 58.7557 103.299 58.7553 103.639C58.7557 103.819 58.7438 103.978 58.7213 104.115C58.7043 104.218 58.6816 104.309 58.6553 104.388C58.6146 104.507 58.5652 104.599 58.5066 104.677C58.4477 104.755 58.3793 104.82 58.2857 104.882C57.7467 105.235 57.3047 105.65 56.9848 106.105C56.8252 106.333 56.6957 106.572 56.6047 106.82C56.5137 107.069 56.4607 107.329 56.4607 107.594C56.4607 107.748 56.4787 107.903 56.5172 108.056C56.5848 108.322 56.7172 108.577 56.9043 108.793C57.0441 108.955 57.2133 109.096 57.4047 109.215C57.6928 109.393 58.0297 109.522 58.4158 109.608C58.8018 109.694 59.2377 109.737 59.7316 109.737C60.6768 109.737 61.8348 109.578 63.2537 109.219C64.1027 109.003 65.1752 108.744 66.4133 108.424C68.5807 107.863 71.2582 107.113 74.1678 106.071C78.5316 104.508 83.4207 102.288 87.9047 99.0461C90.1467 97.4256 92.2873 95.5491 94.2066 93.3715C96.1262 91.1946 97.8242 88.7157 99.1793 85.8952C102.054 79.9096 103.594 75.4022 104.415 72.2045C105.237 69.0067 105.339 67.118 105.339 66.3737C105.339 66.1471 105.33 66.0266 105.328 66.008L104.687 66.0631L105.331 66.0586C105.322 64.8371 105.063 63.651 104.596 62.5231C104.187 61.535 103.62 60.5911 102.923 59.6946C101.703 58.126 100.086 56.7032 98.1973 55.443C95.3627 53.5536 91.9107 52.0305 88.2316 50.9737C84.5522 49.918 80.6453 49.3295 76.8982 49.3295C75.0262 49.3295 73.1941 49.4766 71.4502 49.7875C68.8348 50.2545 66.4143 51.0907 64.3623 52.3657C63.3367 53.0032 62.4043 53.751 61.5908 54.6161C60.7768 55.4811 60.0828 56.4631 59.5342 57.5635C59.5223 57.5881 59.5143 57.6061 59.5053 57.6311L60.1102 57.851L60.6861 58.1381C61.3418 56.8231 62.2236 55.7032 63.2957 54.7541C64.0998 54.0426 65.0111 53.4282 66.0127 52.9061C67.5146 52.1231 69.2203 51.5496 71.0588 51.1731C72.8973 50.7965 74.8682 50.6166 76.8982 50.6166C80.0432 50.6166 83.3293 51.0487 86.4822 51.8366C88.8467 52.4282 91.1367 53.2192 93.2367 54.1756C94.8117 54.8926 96.2797 55.7022 97.5928 56.5875C99.5627 57.9151 101.181 59.4141 102.297 61.0141C102.856 61.8141 103.289 62.6385 103.584 63.4817C103.88 64.3246 104.037 65.1856 104.043 66.0676L104.046 66.118L104.468 66.0821L104.046 66.1157V66.118L104.468 66.0821L104.046 66.1157C104.046 66.1211 104.052 66.2061 104.052 66.3737C104.052 66.9996 103.966 68.7795 103.168 71.884C102.371 74.9885 100.862 79.4176 98.0188 85.3375C96.0373 89.4625 93.2922 92.8272 90.1727 95.5881C85.4941 99.7295 79.9691 102.506 74.9713 104.403C72.4727 105.351 70.1066 106.081 68.0447 106.654C65.9828 107.227 64.2271 107.644 62.9373 107.971C61.5941 108.312 60.5313 108.45 59.7316 108.45C59.3072 108.45 58.9582 108.411 58.6828 108.348C58.4758 108.301 58.3107 108.241 58.1842 108.177C58.0887 108.129 58.0152 108.079 57.9588 108.031C57.8736 107.958 57.8268 107.891 57.7953 107.824C57.7646 107.757 57.7482 107.685 57.7477 107.594C57.7477 107.503 57.7668 107.391 57.8137 107.263C57.8832 107.071 58.0172 106.846 58.2158 106.619C58.4143 106.393 58.6758 106.165 58.9902 105.959C59.1783 105.836 59.3457 105.687 59.4848 105.516C59.5887 105.388 59.6771 105.249 59.7498 105.103C59.8582 104.883 59.9313 104.648 59.9771 104.403C60.0232 104.159 60.0428 103.905 60.0428 103.639C60.0422 103.192 59.9877 102.712 59.8967 102.189C59.7367 101.276 59.4633 100.23 59.1361 99.0362C58.6453 97.2461 58.0328 95.126 57.4928 92.6741C56.9527 90.2221 56.4857 87.4407 56.2883 84.3356C56.2361 83.5192 56.2117 82.6907 56.2117 81.8555C56.2117 79.0221 56.4918 76.1141 56.9143 73.3491C57.5473 69.201 58.4992 65.3746 59.2922 62.5897C59.6887 61.1965 60.0453 60.0641 60.3027 59.2811C60.4313 58.8897 60.5348 58.5856 60.6057 58.3801C60.6418 58.2776 60.6691 58.1996 60.6877 58.1471C60.6967 58.1211 60.7037 58.1016 60.7088 58.0891C60.7107 58.0827 60.7127 58.0776 60.7137 58.0746L60.7146 58.0715L60.7152 58.0705L60.1102 57.851L60.6861 58.1381L60.1102 57.851Z" fill="#661B2B"/>
<path d="M79.3305 60.2237C79.6702 60.5237 79.885 60.7266 79.9632 60.2801C80.0436 59.818 79.6872 59.0466 79.9206 58.3452C80.1706 57.5962 80.7661 56.5096 81.1716 56.3247C81.619 56.1206 81.7751 57.1481 81.9436 58.3036C82.0837 59.2612 82.5577 60.0327 82.7266 60.5276C82.9462 61.1706 83.2962 60.885 84.5247 60.0821C84.9757 59.7872 85.6157 59.276 86.2757 59.0635C86.8641 58.8741 87.8167 60.0442 88.4241 59.9382C89.1161 59.8176 89.6407 59.4446 90.1641 59.4561C91.1497 59.4776 91.1702 58.8196 90.5116 59.4362C90.0805 59.8407 90.011 60.7567 89.4141 61.0612C88.793 61.3782 88.5091 62.318 88.0247 62.5721C87.1831 63.0132 86.4796 62.5567 87.3815 62.9962C87.8622 63.2301 88.4731 63.0296 89.1552 63.1007C89.7456 63.1622 90.327 63.7491 90.9462 63.7792C91.5971 63.8106 92.2991 63.3641 92.852 63.4567C93.5917 63.5796 93.8661 64.3366 94.1516 64.7737C94.7716 65.7221 94.6136 65.8647 93.3555 66.0587C92.7136 66.1577 91.8686 66.5782 90.7796 66.4702C89.7962 66.3725 89.1077 65.9831 88.5831 65.8481C87.3882 65.5407 87.2782 65.4801 87.3587 66.8071C87.4032 67.5391 87.8815 68.5292 87.7081 69.1741C87.4296 70.2112 85.7257 71.0081 85.1776 70.1696C84.8096 69.6071 84.6622 68.676 84.4452 68.0192C84.1382 67.0882 84.3782 66.0001 83.9786 65.9167C83.4837 65.8126 83.377 66.0276 82.5587 66.8696C82.2501 67.1866 81.0427 66.9657 80.5491 67.6116C80.0981 68.2026 79.9805 68.5516 79.4952 68.7651C78.7792 69.0792 78.5952 69.1716 78.1876 68.8491C77.7667 68.5161 77.9376 68.5491 78.344 67.7731C78.7481 67.0022 79.2366 66.476 79.5966 65.9876C80.1866 65.1876 79.8376 63.6907 78.3751 63.6167C77.7956 63.5872 77.0876 63.9522 76.3981 63.9821C75.7667 64.01 75.1421 65.1981 74.5011 65.2116C73.8261 65.2257 73.2241 63.7811 72.6302 63.7087C71.9032 63.6202 70.9462 64.3811 70.4946 64.0436C69.5821 63.3612 70.4901 62.8296 71.4421 62.5112C72.1106 62.2872 72.8372 61.2952 73.5286 61.2507C74.1386 61.2116 74.8886 61.085 75.4417 61.1202C76.4081 61.1821 77.435 61.4846 76.7792 60.7817C76.3542 60.3266 75.6622 59.8647 75.2167 59.3731C74.5802 58.6712 73.9305 58.6237 75.0622 58.5157C75.7815 58.4466 76.8526 58.1221 77.5436 58.6141C78.2161 59.0926 78.8366 59.7872 79.3305 60.2237Z" fill="#F7AD0C"/>
<path d="M74.1453 93.0647C73.9549 93.0647 73.7248 93.0251 73.4617 92.9221C72.7379 92.6391 72.9812 92.343 72.9812 92.343C72.9978 92.3196 73.0428 92.3096 73.1068 92.3096C73.2732 92.3096 73.5719 92.3766 73.8498 92.443C74.1283 92.51 74.3863 92.5772 74.4719 92.5772C74.4758 92.5772 74.4793 92.5772 74.4828 92.5766C74.4937 92.5756 74.5049 92.5751 74.5164 92.5751C74.6754 92.5751 74.8367 92.6772 74.7504 92.8362C74.6914 92.9442 74.4789 93.0647 74.1453 93.0647Z" fill="#B8395F"/>
<path d="M73.0056 92.2256L74.8101 92.6035C74.8101 92.6035 75.0896 92.2285 74.2556 91.967C73.4211 91.7061 72.8611 91.7375 73.0056 92.2256Z" fill="#952D59"/>
<path d="M74.4825 92.5766C74.4524 92.7196 74.1479 92.7772 73.802 92.7045C73.4559 92.6321 73.2 92.4576 73.2299 92.3141C73.2594 92.1711 73.5645 92.1141 73.9104 92.1862C74.2565 92.2586 74.5125 92.4336 74.4825 92.5766Z" fill="#80223C"/>
<path d="M60.9618 73.0626C60.9618 73.0626 60.7182 73.3581 61.4422 73.6417C62.1663 73.9251 62.6383 73.7257 62.7307 73.5552C62.8233 73.385 62.6317 73.2802 62.4633 73.2962C62.2948 73.3116 61.0668 72.9132 60.9618 73.0626Z" fill="#BF4061"/>
<path d="M60.9865 72.9452L62.7912 73.3231C62.7912 73.3231 63.0707 72.9481 62.2365 72.6866C61.4025 72.425 60.8422 72.4571 60.9865 72.9452Z" fill="#B1335F"/>
<path d="M62.4639 73.2961C62.4338 73.4391 62.1294 73.4961 61.7835 73.4237C61.4374 73.3516 61.1813 73.1766 61.2114 73.0336C61.2415 72.8907 61.546 72.8331 61.8919 72.9055C62.2379 72.9782 62.4938 73.1526 62.4639 73.2961Z" fill="#80223C"/>
<path d="M73.478 101.032C73.478 101.032 73.2339 101.328 73.9585 101.611C74.6825 101.895 75.1544 101.695 75.247 101.525C75.3394 101.355 75.148 101.25 74.9794 101.266C74.8109 101.281 73.5825 100.883 73.478 101.032Z" fill="#B1335F"/>
<path d="M73.5028 100.915L75.3073 101.293C75.3073 101.293 75.5868 100.918 74.7522 100.657C73.9182 100.395 73.3579 100.427 73.5028 100.915Z" fill="#952D59"/>
<path d="M74.9799 101.266C74.9501 101.409 74.645 101.466 74.2989 101.394C73.9536 101.321 73.6969 101.147 73.727 101.004C73.7569 100.86 74.062 100.803 74.4081 100.876C74.7536 100.948 75.01 101.123 74.9799 101.266Z" fill="#80223C"/>
<path d="M83.7111 94.5975C83.7111 94.5975 83.4239 94.9455 84.2765 95.2791C85.129 95.6125 85.6845 95.3782 85.7935 95.1776C85.9025 94.9776 85.6771 94.8541 85.4786 94.8721C85.28 94.8907 83.8341 94.4215 83.7111 94.5975Z" fill="#B1335F"/>
<path d="M83.7397 94.459L85.8638 94.9041C85.8638 94.9041 86.1929 94.4625 85.2108 94.1551C84.2288 93.8471 83.5692 93.8846 83.7397 94.459Z" fill="#952D59"/>
<path d="M85.4789 94.8721C85.4434 95.0407 85.0848 95.1081 84.6774 95.0231C84.2703 94.9376 83.9688 94.7321 84.0043 94.5635C84.0393 94.3952 84.3983 94.3276 84.8053 94.4126C85.2123 94.4981 85.5139 94.7036 85.4789 94.8721Z" fill="#80223C"/>
<path d="M80.3665 86.9795C80.0706 86.9795 79.7206 86.9156 79.3255 86.7506C78.1681 86.2656 78.5761 85.7135 78.5761 85.7135C78.606 85.666 78.6896 85.6461 78.8085 85.6461C79.0845 85.6461 79.5521 85.7531 79.9865 85.8596C80.4216 85.966 80.823 86.0725 80.9675 86.0725C80.9771 86.0725 80.9851 86.0721 80.9925 86.0711C81.0156 86.068 81.0386 86.0666 81.062 86.0666C81.3136 86.0666 81.5576 86.2442 81.413 86.533C81.3091 86.741 80.9386 86.9795 80.3665 86.9795Z" fill="#B8395F"/>
<path d="M78.6214 85.4981L81.5214 86.1051C81.5214 86.1051 81.9904 85.4067 80.654 84.9676C79.3175 84.5282 78.4099 84.6126 78.6214 85.4981Z" fill="#952D59"/>
<path d="M80.8427 86.0461C80.8038 86.2331 80.4052 86.3077 79.9532 86.2131C79.5012 86.1186 79.1667 85.8901 79.2057 85.7032C79.2446 85.5161 79.6432 85.4411 80.0952 85.5362C80.5471 85.6305 80.8817 85.859 80.8427 86.0461Z" fill="#80223C"/>
<path d="M66.7498 79.9766C66.7498 79.9766 66.3422 80.5285 67.4998 81.0131C68.6572 81.4975 69.4293 81.1111 69.5873 80.7955C69.7447 80.4801 69.4396 80.2975 69.1662 80.3336C68.8931 80.3701 66.9261 79.699 66.7498 79.9766Z" fill="#BF4061"/>
<path d="M66.7951 79.7606L69.6951 80.3681C69.6951 80.3681 70.164 79.6696 68.8281 79.2302C67.4916 78.7911 66.5842 78.8751 66.7951 79.7606Z" fill="#B1335F"/>
<path d="M69.0166 80.3086C68.9776 80.4956 68.5797 80.5706 68.1276 80.4756C67.6756 80.3811 67.3407 80.1526 67.3801 79.9657C67.4192 79.7786 67.8172 79.7042 68.2692 79.7987C68.7211 79.893 69.0561 80.1215 69.0166 80.3086Z" fill="#80223C"/>
<path d="M91.169 84.0686C91.169 84.0686 90.8831 84.4555 91.6944 84.7955C92.5065 85.1356 93.0485 84.8647 93.159 84.643C93.2694 84.4221 93.0555 84.2936 92.8639 84.3191C92.6725 84.3445 91.2924 83.874 91.169 84.0686Z" fill="#B1335F"/>
<path d="M91.2007 83.917L93.2347 84.343C93.2347 84.343 93.5638 83.8532 92.6263 83.5452C91.6888 83.2372 91.0522 83.2961 91.2007 83.917Z" fill="#952D59"/>
<path d="M92.7581 84.3016C92.7306 84.4327 92.4517 84.485 92.1347 84.4186C91.8177 84.3526 91.5827 84.192 91.6101 84.0612C91.6376 83.9301 91.9167 83.8776 92.2341 83.9436C92.5511 84.01 92.7857 84.1706 92.7581 84.3016Z" fill="#80223C"/>
<path d="M59.5069 86.3375C59.2995 86.3375 59.054 86.2926 58.777 86.1772C57.9649 85.8372 58.251 85.4497 58.251 85.4497C58.2725 85.4161 58.3309 85.4026 58.4139 85.4026C58.6081 85.4026 58.936 85.4772 59.2405 85.5522C59.5456 85.6266 59.827 85.701 59.9286 85.701C59.935 85.701 59.9411 85.701 59.946 85.7C59.962 85.6981 59.9786 85.6971 59.995 85.6971C60.1716 85.6971 60.3424 85.8215 60.2411 86.0247C60.1684 86.1702 59.9081 86.3375 59.5069 86.3375Z" fill="#B8395F"/>
<path d="M58.2826 85.2986L60.3172 85.724C60.3172 85.724 60.6461 85.234 59.7086 84.926C58.7711 84.618 58.1346 84.6772 58.2826 85.2986Z" fill="#952D59"/>
<path d="M59.8413 85.6827C59.8137 85.8141 59.5342 85.8667 59.2172 85.8001C58.9002 85.7337 58.6651 85.5737 58.6926 85.4421C58.7202 85.3112 58.9997 85.2587 59.3166 85.3251C59.6336 85.3917 59.8686 85.5516 59.8413 85.6827Z" fill="#80223C"/>
<path d="M65.799 97.5952C65.5916 97.5952 65.3461 97.55 65.069 97.434C64.257 97.0942 64.543 96.7071 64.543 96.7071C64.5645 96.6737 64.6231 96.6596 64.7061 96.6596C64.9 96.6596 65.2281 96.7346 65.5326 96.809C65.8375 96.884 66.119 96.9586 66.2205 96.9586C66.227 96.9586 66.233 96.9586 66.2381 96.9577C66.2541 96.9555 66.2705 96.9545 66.2865 96.9545C66.4635 96.9545 66.6346 97.0791 66.533 97.2817C66.4606 97.4276 66.2006 97.5952 65.799 97.5952Z" fill="#B8395F"/>
<path d="M64.5751 96.5555L66.6095 96.9816C66.6095 96.9816 66.9386 96.4916 66.0011 96.1836C65.0636 95.8756 64.427 95.9346 64.5751 96.5555Z" fill="#952D59"/>
<path d="M66.1335 96.9401C66.106 97.0712 65.8265 97.1237 65.5095 97.0571C65.1925 96.9911 64.9576 96.8305 64.9851 96.6997C65.0126 96.5686 65.2921 96.5161 65.6091 96.5821C65.9261 96.6487 66.1611 96.809 66.1335 96.9401Z" fill="#80223C"/>
</svg>
