<svg width="128" height="128" viewBox="0 0 128 128" fill="none" xmlns="http://www.w3.org/2000/svg">
<path d="M73.2448 111.76C52.9167 111.76 36.375 95.2188 36.375 74.8854C36.375 54.5573 52.9167 38.0156 73.2448 38.0156C93.5781 38.0156 110.12 54.5573 110.12 74.8854C110.12 95.2188 93.5781 111.76 73.2448 111.76Z" fill="#F2D17E"/>
<path d="M73.2448 110.708C68.875 110.708 64.6823 109.922 60.8073 108.49C61.5729 107.281 62.2292 106 62.7708 104.656C66.0521 105.812 69.5781 106.443 73.2448 106.443C90.6458 106.443 104.802 92.2865 104.802 74.8854C104.802 57.4896 90.6458 43.3333 73.2448 43.3333C70.1146 43.3333 67.0833 43.7917 64.2239 44.6458V40.2135C67.1042 39.4687 70.1302 39.0677 73.2448 39.0677C93.0312 39.0677 109.068 55.1042 109.068 74.8854C109.068 94.6719 93.0312 110.708 73.2448 110.708Z" fill="#C2A765"/>
<path d="M73.2448 36.9635C52.3333 36.9635 35.3229 53.9739 35.3229 74.8854C35.3229 95.8021 52.3333 112.812 73.2448 112.812C94.1614 112.812 111.172 95.8021 111.172 74.8854C111.172 53.9739 94.1614 36.9635 73.2448 36.9635ZM73.2448 39.0677C93.0312 39.0677 109.068 55.1042 109.068 74.8854C109.068 94.6719 93.0312 110.708 73.2448 110.708C53.4635 110.708 37.4271 94.6719 37.4271 74.8854C37.4271 55.1042 53.4635 39.0677 73.2448 39.0677Z" fill="#5D5D5D"/>
<path d="M73.2448 105.479C56.375 105.479 42.6562 91.7552 42.6562 74.8854C42.6562 58.0208 56.375 44.2969 73.2448 44.2969C90.1146 44.2969 103.839 58.0208 103.839 74.8854C103.839 91.7552 90.1146 105.479 73.2448 105.479Z" fill="#F2D17E"/>
<path d="M73.2448 104.516C69.7969 104.516 66.4896 103.927 63.4115 102.844C63.5313 102.458 63.6406 102.062 63.7448 101.661C64.2396 101.687 64.7396 101.703 65.2448 101.703C82.1146 101.703 95.8386 87.9792 95.8386 71.1094C95.8386 66.6979 94.8958 62.4948 93.2031 58.7031L96.0208 55.9323C100.297 61.0677 102.875 67.6771 102.875 74.8854C102.875 91.25 89.6094 104.516 73.2448 104.516ZM91.1146 54.8021C89.3906 52.0781 87.2396 49.6406 84.7656 47.5833C87.8333 48.8802 90.6354 50.6771 93.0729 52.875L91.1146 54.8021Z" fill="#C2A765"/>
<path d="M73.2448 43.3333C55.849 43.3333 41.6927 57.4896 41.6927 74.8854C41.6927 92.2865 55.849 106.443 73.2448 106.443C90.6458 106.443 104.802 92.2865 104.802 74.8854C104.802 57.4896 90.6458 43.3333 73.2448 43.3333ZM73.2448 45.2604C89.6094 45.2604 102.875 58.526 102.875 74.8854C102.875 91.25 89.6094 104.516 73.2448 104.516C56.8854 104.516 43.6198 91.25 43.6198 74.8854C43.6198 58.526 56.8854 45.2604 73.2448 45.2604Z" fill="#5D5D5D"/>
<path d="M93.3177 52.6302L48.9375 96.375C49.8802 97.4271 50.8958 98.4219 51.974 99.3437L96.3333 55.6198C95.3958 54.5573 94.3906 53.5625 93.3177 52.6302Z" fill="#5D5D5D"/>
<path d="M40.4948 118.49C28.0156 118.49 17.8646 108.339 17.8646 95.8594V55.3021C17.8646 42.8229 28.0156 32.6719 40.4948 32.6719H40.7813C53.2552 32.6719 63.4063 42.8229 63.4063 55.3021V95.8594C63.4063 108.339 53.2552 118.49 40.7813 118.49H40.4948Z" fill="#E07187"/>
<path d="M40.7812 117.438H40.4948C33.7604 117.438 27.75 114.354 23.7917 109.521C25.8437 110.141 28.0156 110.49 30.2708 110.49H30.5573C43.0364 110.49 53.1875 100.339 53.1875 87.8594V67.1406H62.3542V95.8646C62.3542 107.776 52.6979 117.438 40.7812 117.438Z" fill="#9C4F5E"/>
<path d="M40.7813 31.6198H40.4948C27.4375 31.6198 16.8125 42.2448 16.8125 55.3021V95.8646C16.8125 108.922 27.4375 119.542 40.4948 119.542H40.7813C53.8385 119.542 64.4635 108.922 64.4635 95.8646V55.3021C64.4635 42.2448 53.8385 31.6198 40.7813 31.6198ZM40.7813 33.7239C52.6979 33.7239 62.3542 43.3854 62.3542 55.3021V95.8646C62.3542 107.776 52.6979 117.437 40.7813 117.437H40.4948C28.5781 117.437 18.9167 107.776 18.9167 95.8646V55.3021C18.9167 43.3854 28.5781 33.7239 40.4948 33.7239H40.7813Z" fill="#5D5D5D"/>
<path d="M18.1042 67.1406C17.5208 67.1406 17.0521 66.6719 17.0521 66.0885V33.4896C17.0521 20.5625 27.5625 10.0521 40.4896 10.0521H40.7865C53.7083 10.0521 64.224 20.5625 64.224 33.4896V66.0885C64.224 66.6719 63.75 67.1406 63.1719 67.1406H18.1042Z" fill="white"/>
<path d="M64.2239 38.0469V33.4896C64.2239 20.5625 53.7083 10.0521 40.7864 10.0521H40.4896C38.0312 10.0521 35.6614 10.4323 33.4323 11.1354C33.3177 11.1042 33.2031 11.0729 33.0885 11.0417C35.4167 10.2656 37.901 9.82812 40.4896 9.82812H40.7864C53.7083 9.82812 64.2239 20.3438 64.2239 33.2656V38.0469Z" fill="#CCCCCC"/>
<path d="M63.1719 66.9219H50.4531C50.5781 66.7448 50.6719 66.5417 50.6719 66.3125V33.7083C50.6719 22.9375 43.3489 13.8646 33.4323 11.1354C35.6614 10.4323 38.0312 10.0521 40.4896 10.0521H40.7864C53.7083 10.0521 64.2239 20.5625 64.2239 33.4896V65.8698C64.2239 66.4479 63.75 66.9219 63.1719 66.9219Z" fill="#CCCCCC"/>
<path d="M40.7865 9H40.4896C26.9844 9 16 19.9844 16 33.4896V66.0885C16 67.2552 16.9427 68.1979 18.1042 68.1979H63.1719C64.3333 68.1979 65.276 67.2552 65.276 66.0885V33.4896C65.276 19.9844 54.2917 9 40.7865 9ZM40.7865 11.1042C53.151 11.1042 63.1719 21.125 63.1719 33.4896V66.0885H18.1042V33.4896C18.1042 21.125 28.125 11.1042 40.4896 11.1042H40.7865Z" fill="#5D5D5D"/>
<path d="M38.1198 70.2344H20.7865V93.3438L25.0104 73.7865L38.1198 70.2344Z" fill="white"/>
<path d="M82.7865 59.3437L67.0104 73.5677V52.6771L70.1198 65.5677L82.7865 59.3437Z" fill="white"/>
</svg>
