<svg width="128" height="128" viewBox="0 0 128 128" fill="none" xmlns="http://www.w3.org/2000/svg">
<path d="M44.9466 108.998C40.4768 108.998 36.0644 108.547 32.0295 107.118C31.7394 107.015 31.4289 106.89 31.271 106.626C30.8623 105.941 31.7743 105.241 32.5201 104.959C34.7578 104.113 37.0742 103.405 39.4363 102.82C41.9287 105.105 45.0828 106.639 48.3845 106.639C48.6964 106.639 49.0087 106.626 49.3228 106.598C53.5387 106.221 56.9323 103.511 60.0611 100.495C62.6639 100.542 65.275 100.73 67.8846 100.917C70.9093 101.134 73.9309 101.351 76.9356 101.351C78.1671 101.351 79.3964 101.314 80.6211 101.227C83.1905 101.042 87.2892 99.6769 90.7127 99.6769C93.1354 99.6769 95.2196 100.361 96.1827 102.632C94.6339 104.064 92.8141 104.384 90.7384 104.645C80.6537 105.909 70.564 107.179 60.4308 107.985C55.5333 108.375 50.1999 108.998 44.9466 108.998Z" fill="#E3E2DD"/>
<path d="M56.2393 23.3742C50.4881 26.0373 45.5318 30.2428 41.042 34.7475C27.3139 48.5213 27.9516 67.7553 31.7122 85.636C32.7441 90.543 33.9449 95.5496 36.7519 99.7049C39.5584 103.86 44.3283 107.043 49.3227 106.598C55.0557 106.086 59.2681 101.259 63.3622 97.2129C70.6024 90.0587 79.2343 84.4592 86.684 77.5241C94.1342 70.589 100.589 61.7534 101.505 51.6166C102.508 40.5249 95.9102 30.4872 86.6899 24.9162C78.918 20.22 66.3181 19.3135 57.9546 22.6365C57.3753 22.8668 56.8037 23.113 56.2393 23.3742Z" fill="#F2CE36"/>
<path d="M82.813 65.0809C82.4745 65.0809 82.1309 65.0533 81.7843 64.9953C81.1325 64.8872 80.4844 64.6645 79.9775 64.2404C78.1617 62.7211 79.0528 59.829 79.9114 57.6226C82.388 51.2554 83.314 44.2918 82.5881 37.4988C82.0155 32.1414 83.5924 29.5087 85.7866 29.5087C87.7291 29.5087 90.1555 31.5725 92.003 35.6364C95.2508 42.7824 95.0431 51.408 91.4553 58.3897C89.7042 61.7969 86.5085 65.0813 82.813 65.0809Z" fill="#F4D554"/>
<path d="M48.2189 104.521C47.0688 104.521 45.8907 104.182 44.9041 103.62C43.2073 102.654 41.973 101.136 40.8664 99.6017C35.8951 92.711 32.4613 85.2368 33.0551 76.8529C33.0723 76.6135 33.0999 76.3564 33.2692 76.1745C33.4258 76.0066 33.6629 75.9454 33.9078 75.9454C34.039 75.9454 34.1721 75.9631 34.2966 75.9912C36.3998 76.4659 37.1221 78.824 37.6915 80.7588C38.9488 85.03 41.2629 89.0309 44.4044 92.367C47.1634 95.2966 50.7059 97.9819 51.5206 101.796C51.612 102.223 51.6627 102.68 51.4816 103.082C51.311 103.46 50.9544 103.741 50.5742 103.951C49.8582 104.345 49.0458 104.521 48.2189 104.521Z" fill="#EEC739"/>
<path d="M80.1142 24.8094C79.1294 24.8094 78.0124 24.5745 77.2959 24.3269C76.6044 24.0879 75.9644 23.5923 75.7286 22.8994C75.6906 22.7885 75.6643 22.6645 75.7096 22.5568C75.7607 22.4341 75.8902 22.3653 76.0137 22.3169C76.3441 22.1866 76.6813 22.1354 77.023 22.1354C78.1866 22.1354 79.4041 22.7301 80.6103 22.8311C81.0312 22.8664 81.4634 22.841 81.8671 22.9646C82.5863 23.1836 82.6411 23.5566 82.3989 23.9046C82.1989 24.192 81.7961 24.4627 81.3973 24.6166C81.0421 24.7537 80.5935 24.8094 80.1142 24.8094Z" fill="#EDC539"/>
<path d="M80.7369 23.4475C81.6041 22.6138 82.1047 19.8706 80.7365 19.1723C80.5627 19.0831 80.3631 19.0623 80.1685 19.0451C79.7535 19.008 79.3158 18.9831 78.9397 19.1623C78.0526 19.585 78.3893 21.4248 78.1264 22.2436C78.0725 22.4115 78.0178 22.5876 78.0467 22.7618C78.0888 23.0153 78.2979 23.2085 78.5201 23.3371C79.5932 23.9589 80.2834 23.8834 80.7369 23.4475Z" fill="#C67640"/>
<path d="M73.5968 28.0572C66.5942 32.4048 58.1913 34.2161 49.9518 33.9903C41.7128 33.764 33.6154 31.5806 26 28.427C35.0714 27.7874 43.5589 23.9558 52.2777 21.3714C58.2293 19.6077 64.6137 18.4219 70.8246 19.2922C72.4187 19.5158 78.2974 20.2467 78.8971 22.0662C79.5937 24.1789 74.9609 27.2099 73.5968 28.0572Z" fill="#849A31"/>
<path d="M78.8772 22.0843C80.3296 23.7191 74.5762 27.4489 73.5968 28.0572C66.5942 32.4048 58.1914 34.2161 49.9518 33.9903C41.8694 33.7685 33.5679 31.7626 26.1783 28.4935C27.7837 29.2032 29.614 28.765 31.299 28.9117C33.2646 29.0828 35.2325 29.2403 37.204 29.3317C46.4248 29.7608 55.8003 27.9988 64.577 25.1334C66.8921 24.3776 69.1713 23.505 71.5208 22.8569C72.7369 22.5215 73.9716 22.2427 75.2243 22.0843C75.8847 22.0005 78.307 21.5276 78.8193 22.0241C78.8397 22.044 78.8587 22.0639 78.8772 22.0843Z" fill="#7E912F"/>
</svg>
