<svg width="128" height="128" viewBox="0 0 128 128" fill="none" xmlns="http://www.w3.org/2000/svg">
<path d="M76.1622 88.2329C76.1622 88.2329 77.5855 96.1276 85.4054 95.08C94.6952 93.8351 108.387 84.4415 117.399 87.8584C125.117 90.7851 127.233 98.9701 124.525 107.093C121.818 115.216 111.61 118.11 104.14 118.421C94.9285 118.919 87.335 119.604 84.0358 121.222C80.7367 122.841 76.8612 124.49 76.1622 123.525C75.2594 122.281 76.5666 119.884 81.484 117.239C85.2808 114.998 95.5178 113.841 102.273 113.255C110.489 112.508 119.639 109.645 119.888 101.429C119.453 94.5819 115.656 92.2165 109.867 93.6483C104.079 95.08 96.2982 98.5033 92.5009 99.8105C88.7041 101.117 76.6625 103.857 72.1641 97.072C76.1622 88.2329 76.1622 88.2329 76.1622 88.2329Z" fill="#F7B5C0"/>
<path d="M117.398 87.8584C108.387 84.4415 94.6946 93.8351 85.4048 95.0797C94.1578 93.8113 96.6259 92.585 103.613 89.9315C111.18 87.0573 122.181 85.7814 125.326 97.2363C124.469 93.0319 121.88 89.5578 117.398 87.8584Z" fill="#FFF3F6"/>
<path d="M116.31 109.614C119.755 106.794 120.915 101.841 119.337 98.1803C119.623 99.1228 119.81 100.203 119.888 101.429C119.64 109.645 110.49 112.508 102.273 113.255C95.518 113.841 85.281 114.998 81.4842 117.239C78.1898 119.011 76.5177 120.671 76.043 121.948C79.4767 117.041 87.3029 116.043 90.1436 115.426C92.676 114.876 95.2796 114.693 97.9165 114.422C109.313 113.252 112.948 112.228 116.31 109.614Z" fill="#F2F2F2"/>
<path d="M92.5009 99.8105C96.2982 98.5032 104.079 95.0796 109.867 93.6483C115.023 92.3731 119.723 94.3108 119.795 101.475C120.76 98.6015 118.076 92.4532 114.739 91.8729C108.39 90.5657 102.183 93.1975 96.3599 94.7758C88.3473 96.9473 81.1215 96.3144 75.1887 89.9314C74.8596 90.6591 72.5725 96.1687 72.1641 97.0719C76.6625 103.856 88.7041 101.117 92.5009 99.8105Z" fill="#E59EAD"/>
<path d="M123.397 92.5197C125.323 98.2833 124.949 108.549 118.737 112.498C111.367 117.184 106.497 116.637 97.0115 117.47C93.4422 117.783 87.2689 118.076 82.7875 120.009C80.7804 120.874 76.4651 123.362 76.0804 121.848C75.8021 122.521 75.8479 123.093 76.1618 123.525C76.8608 124.49 80.7363 122.84 84.0354 121.222C87.3346 119.604 94.9281 118.919 104.14 118.421C111.61 118.11 121.817 115.216 124.525 107.093C125.808 103.244 126.497 96.4003 123.397 92.5197Z" fill="#E59EAD"/>
<mask id="mask0_25_100" style="mask-type:alpha" maskUnits="userSpaceOnUse" x="71" y="86" width="55" height="38">
<path d="M71.9219 86.9009H125.848V124H71.9219V86.9009Z" fill="black"/>
</mask>
<g mask="url(#mask0_25_100)">
<path d="M112.88 93.0589C114.505 93.0589 115.881 93.4668 116.991 94.2801C118.821 95.6212 119.858 98.0222 120.075 101.417C119.96 105.23 117.969 108.215 114.158 110.307C111.18 111.941 107.186 112.996 102.29 113.441C91.3963 114.386 84.4282 115.717 81.5782 117.399C78.4397 119.088 76.4555 120.874 76.1284 122.302C76.0293 122.736 76.0911 123.11 76.3127 123.416C76.5897 123.798 77.9504 123.999 83.9534 121.054C87.435 119.346 95.7082 118.69 104.13 118.235C112.212 117.898 121.767 114.779 124.348 107.034C127.241 98.3565 124.421 90.7209 117.332 88.0326C111.716 85.9036 104.291 88.7973 97.1091 91.5961C92.8784 93.2449 88.8826 94.802 85.4296 95.265C84.9383 95.3306 84.4702 95.3616 84.0267 95.3616C78.4346 95.3619 76.5766 90.4537 76.1098 88.8011L72.3769 97.0536C76.5161 103.129 87.2957 101.404 92.4401 99.6336C93.6346 99.2224 95.2083 98.6073 97.0303 97.8956C100.959 96.3604 105.849 94.4495 109.822 93.4668C110.922 93.1947 111.943 93.0589 112.88 93.0589ZM76.9514 124C76.4012 124 76.1514 123.829 76.0107 123.635C75.7268 123.244 75.6421 122.754 75.7645 122.219C76.1204 120.663 78.1202 118.836 81.3952 117.074C84.2867 115.367 91.3077 114.018 102.257 113.069C107.033 112.635 111.087 111.566 113.979 109.979C117.665 107.956 119.591 105.077 119.702 101.423C119.493 98.1616 118.507 95.8539 116.77 94.5812C115.113 93.3668 112.806 93.1135 109.912 93.8293C105.962 94.8063 101.085 96.712 97.1658 98.2435C95.34 98.9568 93.7634 99.5731 92.5615 99.9866C87.2986 101.799 76.2301 103.542 72.0084 97.1747L71.9512 97.0886L76.2386 87.6098L76.3453 88.1996C76.3491 88.2191 76.7127 90.1631 78.0096 91.9502C79.7355 94.3279 82.2148 95.3187 85.3802 94.8948C88.7889 94.4378 92.7641 92.8886 96.9735 91.2479C104.22 88.4236 111.714 85.5029 117.464 87.6836C124.754 90.4477 127.663 98.2714 124.702 107.152C122.061 115.077 112.353 118.266 104.148 118.608C95.7679 119.061 87.5392 119.711 84.1178 121.39C79.9591 123.43 77.9559 124 76.9514 124Z" fill="#844557"/>
</g>
<path d="M80.8424 101.542C77.9889 98.3303 81.288 94.6856 81.3219 94.6487L81.5964 94.902C81.468 95.041 78.4938 98.3363 81.1215 101.294L80.8424 101.542Z" fill="#844557"/>
<path d="M85.3377 101.494C84.1694 100.945 83.4303 100.154 83.1408 99.1425C82.585 97.1994 83.8851 95.1589 83.9406 95.0734L84.2545 95.2762C84.2417 95.2958 82.9904 97.2629 83.5004 99.0417C83.7594 99.9439 84.4307 100.655 85.4962 101.155L85.3377 101.494Z" fill="#844557"/>
<path d="M90.2377 100.637C86.0008 99.4119 87.2039 94.7733 87.2165 94.7267L87.5771 94.8246C87.5296 95.0009 86.4591 99.1556 90.3415 100.279L90.2377 100.637Z" fill="#844557"/>
<path d="M95.584 98.8378C92.1802 98.4794 91.4331 96.3238 91.2903 95.0707C91.2271 94.517 91.2513 93.3884 91.5208 93.2953L91.6423 93.6486C91.6987 93.629 91.7297 93.5877 91.7384 93.5682C91.68 93.6999 91.3802 95.2278 92.1473 96.5541C92.7789 97.6467 93.9485 98.2901 95.6231 98.4663L95.584 98.8378Z" fill="#844557"/>
<path d="M98.0462 97.795C96.7724 97.3905 95.8989 96.6872 95.449 95.7045C94.6471 93.9503 95.4855 91.9568 95.5215 91.8729L95.8646 92.0199C95.8565 92.0389 95.056 93.9494 95.7897 95.5511C96.1938 96.433 96.991 97.0681 98.1593 97.4388L98.0462 97.795Z" fill="#844557"/>
<path d="M101.898 96.3692C98.2921 94.798 99.2181 90.5068 99.2278 90.4636L99.592 90.5462C99.5551 90.7102 98.7266 94.5798 102.047 96.0265L101.898 96.3692Z" fill="#844557"/>
<path d="M105.383 95.1296C101.725 93.4914 103.524 88.9267 103.543 88.8809L103.889 89.0207C103.819 89.1948 102.207 93.2983 105.536 94.7886L105.383 95.1296Z" fill="#844557"/>
<path d="M109.091 93.9828C107.988 93.3169 107.314 92.448 107.085 91.3996C106.668 89.49 107.876 87.6878 107.928 87.6125L108.237 87.8227C108.225 87.8396 107.067 89.5713 107.45 91.3225C107.657 92.2655 108.273 93.053 109.284 93.6629L109.091 93.9828Z" fill="#844557"/>
<path d="M111.869 93.397C109.435 90.169 112.629 87.0131 112.662 86.9818L112.922 87.2499C112.798 87.3693 109.933 90.2094 112.167 93.172L111.869 93.397Z" fill="#844557"/>
<path d="M115.287 93.7591C113.44 90.3835 116.851 87.5994 116.886 87.5714L117.119 87.8633C116.988 87.9684 113.919 90.4809 115.614 93.5801L115.287 93.7591Z" fill="#844557"/>
<path d="M117.457 95.1079C117.361 91.4751 121.142 89.9463 121.18 89.9314L121.317 90.2787C121.282 90.2928 117.741 91.7296 117.831 95.0983L117.457 95.1079Z" fill="#844557"/>
<path d="M119.341 97.7332L118.994 97.5964C120.373 94.0913 124.845 95.2483 124.89 95.2605L124.793 95.6211C124.623 95.5758 120.597 94.5391 119.341 97.7332Z" fill="#844557"/>
<path d="M120.054 101.515L119.722 101.343C120.261 100.3 121.018 99.6359 121.971 99.3682C123.792 98.8565 125.663 99.9753 125.742 100.023L125.548 100.342C125.53 100.332 123.733 99.2598 122.07 99.7282C121.222 99.9672 120.544 100.568 120.054 101.515Z" fill="#844557"/>
<path d="M124.97 105.199C124.859 105.091 122.225 102.568 119.287 105.018L119.048 104.731C122.249 102.061 125.202 104.904 125.231 104.933L124.97 105.199Z" fill="#844557"/>
<path d="M122.783 110.266C122.778 110.244 122.236 108.135 120.678 107.322C119.878 106.904 118.938 106.895 117.884 107.297L117.751 106.948C118.91 106.506 119.954 106.521 120.853 106.992C122.56 107.884 123.122 110.083 123.145 110.175L122.783 110.266Z" fill="#844557"/>
<path d="M120.075 113.431L119.702 113.418C119.819 109.952 116.082 109.006 116.044 108.997L116.132 108.634C116.173 108.644 120.203 109.664 120.075 113.431Z" fill="#844557"/>
<path d="M115.848 115.915L115.477 115.87C115.955 111.905 112.618 111.114 112.476 111.082L112.557 110.718C112.596 110.726 116.366 111.619 115.848 115.915Z" fill="#844557"/>
<path d="M111.146 117.509L110.785 117.415C111.714 113.827 109.254 112.189 109.229 112.173L109.432 111.86C109.459 111.877 112.142 113.663 111.146 117.509Z" fill="#844557"/>
<path d="M106.058 118.354L105.698 118.256C106.098 116.786 106.024 115.58 105.479 114.674C104.812 113.566 103.649 113.292 103.637 113.289L103.719 112.925C103.772 112.936 105.044 113.231 105.795 114.476C106.398 115.474 106.487 116.779 106.058 118.354Z" fill="#844557"/>
<path d="M101.586 118.606L101.217 118.551C101.835 114.433 98.7657 113.804 98.6348 113.78L98.7029 113.413C98.739 113.419 102.259 114.125 101.586 118.606Z" fill="#844557"/>
<path d="M96.9105 118.966L96.5555 118.851C97.6116 115.583 95.1588 114.218 95.0537 114.162L95.2299 113.833C95.2584 113.848 98.0648 115.394 96.9105 118.966Z" fill="#844557"/>
<path d="M91.9901 119.462L91.6317 119.357C92.0126 118.057 91.9579 116.999 91.4707 116.212C90.8459 115.203 89.7137 114.99 89.7026 114.988L89.7683 114.62C89.8213 114.63 91.0769 114.867 91.7881 116.015C92.3337 116.896 92.4018 118.056 91.9901 119.462Z" fill="#844557"/>
<path d="M87.739 120.134L87.3688 120.086C87.8381 116.467 85.408 115.969 85.3042 115.949L85.3715 115.582C85.4007 115.587 88.2559 116.153 87.739 120.134Z" fill="#844557"/>
<path d="M83.0072 121.853L82.6475 121.752C82.941 120.707 82.8818 119.825 82.4704 119.13C81.8714 118.117 80.7111 117.836 80.6997 117.834L80.7836 117.47C80.837 117.482 82.1066 117.785 82.7895 118.936C83.2571 119.723 83.3299 120.705 83.0072 121.853Z" fill="#844557"/>
<path d="M36.9304 100.923C36.9304 100.923 33.7457 102.527 28.4808 102.34C25.0691 102.219 20.4774 103.018 19.3776 108.533C18.7369 111.841 23.1433 110.431 23.1433 110.431C22.977 112.358 25.1988 112.694 27.6733 112.409C30.7458 112.056 35.4765 110.37 37.8122 110.014C42.5116 109.298 49.9549 109.252 50.8419 106.418C51.5421 103.771 48.8343 101.857 48.8343 101.857L36.9304 100.923Z" fill="#F7B5C0"/>
<path d="M48.8343 101.857L36.9304 100.923C36.9304 100.923 36.1293 101.427 34.0721 101.848C34.9948 104.733 41.1385 104.622 43.0334 104.577C45.2563 104.526 44.5067 106.218 43.7571 106.93C41.9197 108.469 34.814 108.55 29.7306 110.1C26.1311 111.198 22.4819 110.596 24.1994 107.567C22.4417 109.532 18.6853 109.566 20.5965 106.207C20.2556 106.868 19.5555 107.641 19.3776 108.533C18.7369 111.841 23.1433 110.431 23.1433 110.431C22.977 112.358 25.1988 112.694 27.6733 112.409C30.7458 112.056 35.4765 110.37 37.8122 110.014C42.5116 109.298 49.9549 109.252 50.8419 106.418C51.5421 103.771 48.8343 101.857 48.8343 101.857Z" fill="#E59EAD"/>
<path d="M23.347 110.176L23.3237 110.446C23.2828 110.92 23.3927 111.292 23.6601 111.583C24.1002 112.063 24.9948 112.317 26.2471 112.317H26.2472C26.6761 112.317 27.1489 112.288 27.6526 112.23C29.3801 112.031 31.6804 111.395 33.7099 110.834C35.2798 110.401 36.7626 109.991 37.785 109.835C38.8063 109.68 39.9383 109.558 41.1367 109.429C45.2932 108.98 50.0041 108.473 50.6683 106.368C51.279 104.046 49.089 102.277 48.7683 102.033L36.9654 101.107C36.5663 101.298 33.8037 102.536 29.3303 102.536C29.0477 102.536 28.7596 102.531 28.4743 102.521C28.2702 102.514 28.0666 102.51 27.8692 102.51C23.1541 102.51 20.3567 104.548 19.555 108.568C19.4294 109.217 19.5012 109.711 19.7691 110.036C20.0498 110.376 20.5533 110.549 21.2657 110.549C22.1718 110.549 23.0791 110.261 23.0882 110.258L23.347 110.176ZM26.2472 112.679H26.2471C24.8713 112.679 23.9113 112.392 23.3933 111.828C23.11 111.519 22.9628 111.132 22.954 110.673C22.6085 110.764 21.9446 110.91 21.2657 110.91C20.4401 110.91 19.8428 110.694 19.49 110.266C19.1501 109.854 19.0525 109.259 19.1999 108.498C19.6756 106.113 20.8445 104.373 22.6743 103.327C24.0425 102.544 25.7904 102.148 27.8692 102.148C28.0709 102.148 28.2788 102.152 28.4871 102.159C28.7682 102.169 29.0518 102.174 29.3303 102.174C33.9815 102.174 36.821 100.776 36.8491 100.761L36.8941 100.739L36.9446 100.743L48.8984 101.68L48.9391 101.709C48.9674 101.729 49.647 102.214 50.2471 103.038C51.0512 104.143 51.3176 105.328 51.0169 106.465L51.0148 106.472C50.6838 107.529 49.4966 108.306 47.3853 108.849C45.5717 109.314 43.3368 109.555 41.1754 109.788C39.981 109.917 38.853 110.039 37.8395 110.193C36.8384 110.345 35.3655 110.752 33.8062 111.183C31.7641 111.748 29.4495 112.387 27.694 112.589C27.1765 112.648 26.6899 112.679 26.2472 112.679Z" fill="#844557"/>
<path d="M19.4957 108.96L19.1611 108.793C19.8358 105.999 22.4248 104.603 23.9759 104.457C22.1718 105.217 20.314 106.077 19.4957 108.96Z" fill="#844557"/>
<path d="M22.9304 110.63C22.8452 108.957 23.8298 107.522 25.0349 106.512C26.2333 105.499 27.6214 105.53 27.6214 105.53C25.8156 105.852 23.1725 108.043 23.3033 110.612L22.9304 110.63Z" fill="#844557"/>
<path d="M73.0724 100.891C73.0724 100.891 76.2571 102.495 81.5218 102.308C84.9336 102.187 89.5254 102.987 90.6252 108.501C91.2657 111.809 86.8593 110.399 86.8593 110.399C87.0258 112.326 84.804 112.662 82.3292 112.378C79.2567 112.025 74.5263 110.339 72.1905 109.983C67.4909 109.267 60.0477 109.221 59.1606 106.387C58.4603 103.739 61.1681 101.825 61.1681 101.825L73.0724 100.891Z" fill="#F7B5C0"/>
<path d="M61.1681 101.825L73.0724 100.891C73.0724 100.891 73.8735 101.395 75.9305 101.817C75.008 104.701 68.8643 104.59 66.9695 104.546C64.7463 104.494 65.4961 106.186 66.2455 106.898C68.0828 108.438 75.1888 108.518 80.2722 110.069C83.8716 111.167 87.5209 110.564 85.8033 107.535C87.5608 109.5 91.3173 109.534 89.406 106.175C89.747 106.836 90.4473 107.609 90.6252 108.501C91.2657 111.809 86.8593 110.399 86.8593 110.399C87.0258 112.326 84.804 112.662 82.3292 112.378C79.2567 112.025 74.5263 110.339 72.1905 109.983C67.4909 109.267 60.0477 109.221 59.1606 106.387C58.4603 103.739 61.1681 101.825 61.1681 101.825Z" fill="#E59EAD"/>
<path d="M86.914 110.227C86.9232 110.23 87.8305 110.517 88.7367 110.517C89.4489 110.517 89.9524 110.344 90.2329 110.004C90.5011 109.679 90.5731 109.185 90.4472 108.536C89.6453 104.516 86.8483 102.478 82.133 102.478C81.9355 102.478 81.7318 102.482 81.5277 102.489C81.2425 102.5 80.9545 102.505 80.672 102.505C76.1986 102.504 73.4358 101.266 73.0367 101.076L61.2337 102.001C60.913 102.245 58.723 104.015 59.3342 106.337C59.9981 108.441 64.709 108.949 68.8655 109.397C70.0638 109.526 71.1958 109.648 72.2171 109.804C73.2398 109.959 74.7224 110.369 76.2922 110.803C78.3218 111.364 80.622 111.999 82.3496 112.198C82.8531 112.256 83.3259 112.285 83.7551 112.285C85.0072 112.285 85.9019 112.032 86.3421 111.552C86.6093 111.26 86.7194 110.888 86.6788 110.415L86.655 110.144L86.914 110.227ZM82.3084 112.557C80.553 112.356 78.2379 111.716 76.1961 111.152C74.6369 110.721 73.1638 110.314 72.1629 110.161C71.1492 110.007 70.0211 109.885 68.8266 109.756C66.6653 109.523 64.4303 109.282 62.6172 108.817C60.5056 108.275 59.3182 107.498 58.9877 106.441L58.9852 106.433C58.6849 105.296 58.9508 104.111 59.7549 103.007C60.3552 102.183 61.0346 101.698 61.0631 101.677L61.1036 101.649L73.0576 100.711L73.108 100.707L73.1529 100.73C73.1812 100.744 76.0207 102.142 80.672 102.142C80.9503 102.142 81.2341 102.138 81.5149 102.128C81.7234 102.12 81.9314 102.117 82.133 102.117C84.2116 102.117 85.9595 102.513 87.3278 103.295C89.1578 104.341 90.3265 106.081 90.8023 108.466C90.9497 109.228 90.8522 109.823 90.512 110.234C90.1596 110.662 89.5619 110.879 88.7367 110.879C88.0577 110.879 87.3938 110.732 87.0482 110.641C87.0392 111.1 86.8923 111.487 86.6088 111.796C86.0907 112.361 85.1308 112.647 83.7551 112.647C83.3123 112.647 82.8256 112.617 82.3084 112.557Z" fill="#844557"/>
<path d="M90.5069 108.929L90.8411 108.761C90.1668 105.968 87.5777 104.572 86.0264 104.426C87.8305 105.185 89.6886 106.045 90.5069 108.929Z" fill="#844557"/>
<path d="M87.0203 110.564C87.1053 108.891 86.1505 107.396 84.9454 106.386C83.7469 105.373 82.3291 105.463 82.3291 105.463C84.1349 105.786 86.7783 107.977 86.6475 110.546L87.0203 110.564Z" fill="#844557"/>
<path d="M51.9623 53.8199C45.0445 55.4101 41.7855 60.1377 40.1048 69.2097C38.4243 78.2818 38.5176 78.9354 36.8371 81.2694C35.1565 83.6036 29.3678 91.4467 33.3825 100.783C35.81 106.105 47.3873 103.584 49.3483 102.837C51.3087 102.09 55.1369 101.11 58.8248 102.557C62.5129 104.004 73.0011 104.829 76.6734 100.285C80.3456 95.7414 77.1712 88.6454 75.7706 86.1246C74.3702 83.6036 70.1374 78.9354 69.8265 77.7526C69.6087 76.9266 67.1577 55.4309 57.8209 54.0765C55.5334 53.6097 54.2033 53.5864 51.9623 53.8199Z" fill="#BBBCBE"/>
<path d="M39.004 89.4532C37.3968 81.3165 40.1392 71.4692 40.3534 68.603C38.6959 77.5608 38.5097 78.9459 36.8366 81.2693C35.2397 83.4875 29.9339 90.6803 32.8552 99.4021C32.1714 92.1936 32.9694 88.4148 38.0271 81.433C38.0737 83.6154 37.7002 86.6616 39.004 89.4532Z" fill="#F2F2F2"/>
<path d="M75.7704 86.1246C74.37 83.6036 70.1372 78.9354 69.8263 77.7526C69.7391 77.4218 68.2695 67.8249 65.7343 62.099C68.8927 69.443 68.8927 77.9242 69.6704 79.5424C71.5212 83.3913 71.7727 88.3344 70.2545 90.865C71.5601 89.5091 72.0825 86.1482 71.5601 83.6739C78.5595 92.069 77.1561 99.2411 71.7727 101.516C67.5083 103.119 60.3341 101.702 56.3812 100.075C48.9479 100.075 38.6576 106.374 33.2754 100.526C33.3108 100.611 33.3452 100.697 33.3823 100.783C35.8098 106.105 47.3871 103.584 49.3481 102.837C51.3085 102.09 55.1367 101.11 58.8246 102.557C62.5127 104.004 73.0009 104.829 76.6732 100.285C80.3454 95.7414 77.171 88.6454 75.7704 86.1246Z" fill="#A0A0A0"/>
<path d="M51.9928 54.0046C45.4029 55.5233 42.0119 59.9395 40.2883 69.244C40.0459 70.5517 39.8406 71.6849 39.6614 72.6731C38.5891 78.5871 38.4514 79.3468 36.9885 81.3788L36.9234 81.469C35.1198 83.9713 29.6312 91.587 33.5539 100.709C34.7978 103.436 38.5835 103.952 41.537 103.899C44.864 103.843 48.2226 103.066 49.2816 102.663C50.8566 102.063 54.9458 100.835 58.893 102.383C62.384 103.753 72.8866 104.673 76.5278 100.168C80.3807 95.4007 76.4373 87.7088 75.6074 86.2151C74.9275 84.9918 73.5397 83.2139 72.3155 81.6452C70.973 79.9253 69.8141 78.4402 69.6459 77.8006C69.6248 77.7205 69.5938 77.5243 69.5256 77.0893C67.3528 63.1508 63.1867 55.0438 57.7941 54.2617C55.6269 53.8194 54.3259 53.7623 51.9928 54.0046ZM41.1548 104.276C36.9754 104.276 34.2333 103.099 33.2125 100.861C29.2044 91.54 34.7862 83.7956 36.6205 81.2509L36.6853 81.1606C38.099 79.1972 38.235 78.447 39.294 72.6063C39.4732 71.6179 39.6787 70.4844 39.921 69.1758C41.6775 59.695 45.1539 55.1932 51.9203 53.6382L51.9428 53.6344C54.3277 53.3857 55.6543 53.4441 57.8584 53.8936C61.5138 54.4239 64.5608 58.0034 66.9042 64.5313C68.7458 69.6613 69.6107 75.2088 69.895 77.0317C69.9501 77.385 69.9898 77.6405 70.0068 77.7053C70.1554 78.2707 71.3475 79.7982 72.6099 81.4152C73.8427 82.9948 75.2396 84.7846 75.9336 86.0339C76.7838 87.5644 80.822 95.449 76.818 100.403C74.7356 102.98 70.7452 103.702 67.7642 103.854C64.0284 104.045 60.4759 103.406 58.7565 102.731C54.9309 101.23 50.9489 102.427 49.4142 103.012C48.3345 103.423 44.9166 104.215 41.5434 104.273C41.4126 104.275 41.2828 104.276 41.1548 104.276Z" fill="#4F565B"/>
<path d="M46.0654 98.5439C46.0654 98.5439 49.0769 102.277 55.1878 102.339C61.2989 102.401 65.9768 98.5193 65.9768 98.5193L46.0654 98.5439Z" fill="#BBBCBE"/>
<path d="M46.0654 98.5439C46.0654 98.5439 49.0769 102.277 55.1878 102.339C61.2989 102.401 65.9768 98.5193 65.9768 98.5193C65.9768 98.5193 61.5933 101.128 55.4794 101.219C49.3047 101.31 46.0654 98.5439 46.0654 98.5439Z" fill="#A0A0A0"/>
<path d="M55.3374 102.527C55.2869 102.527 55.2366 102.526 55.1861 102.526C52.4297 102.498 50.2565 101.746 48.6968 100.923C46.7915 99.9189 46.0654 98.5439 46.0654 98.5439C46.0964 98.5795 49.2404 102.092 55.19 102.152C61.1596 102.208 65.9293 98.5565 65.9768 98.5193C65.9768 98.5193 64.756 99.9283 62.4921 100.923C60.5893 101.76 58.0933 102.527 55.3374 102.527Z" fill="#4F565B"/>
<path d="M70.2544 90.8649C73.0445 87.2758 70.7399 80.853 69.8724 78.4349C69.6814 77.9024 69.6094 77.6637 69.5962 77.5382L69.9685 77.4972C69.9774 77.5831 70.0842 77.9195 70.224 78.3092C70.7916 79.8918 71.9621 83.1536 71.9638 86.2803C71.9638 89.5479 70.2544 90.8649 70.2544 90.8649Z" fill="#4F565B"/>
<path d="M37.8356 84.2279C37.758 81.8095 37.9491 79.3411 38.2756 77.7776L38.6413 77.8539C38.054 80.6654 37.9081 86.438 39.0045 89.4532C39.0045 89.4532 38.0975 88.3421 37.8356 84.2279Z" fill="#4F565B"/>
<path d="M66.9012 75.3876C69.7636 86.0198 69.2632 97.3793 54.2035 97.0485C42.8749 96.7995 40.8208 87.0272 41.6922 76.3326C42.6214 64.9294 47.1072 54.9093 54.0167 54.9093C60.9262 54.9093 63.9267 64.3398 66.9012 75.3876Z" fill="#F2F2F2"/>
<path d="M51.7392 55.2922C46.1263 57.2248 42.5149 66.2355 41.6921 76.3327C41.3799 80.165 41.4436 83.8794 42.1748 87.0788C41.7249 78.9815 43.6626 60.3867 51.7392 55.2922Z" fill="#F2F2F2"/>
<path d="M66.9009 75.3876C65.6966 70.915 64.488 66.7077 63.0176 63.2832C65.3205 71.6183 67.9163 83.6238 61.3609 89.8513C56.3378 94.5398 46.8581 93.3139 42.2178 87.2601C43.5584 92.8936 47.0115 96.8905 54.2032 97.0485C69.2629 97.3793 69.7633 86.0197 66.9009 75.3876Z" fill="#E2E0DE"/>
<path d="M54.0164 55.0962C50.8418 55.0962 47.9922 57.2872 45.7763 61.433C43.735 65.2506 42.3507 70.5479 41.8781 76.3479C41.2203 84.4207 42.3629 89.9667 45.3709 93.3026C47.4249 95.5807 50.3978 96.7779 54.207 96.8618C59.5869 96.9842 63.4507 95.588 65.6958 92.724C68.5009 89.1461 68.8458 83.3295 66.7204 75.436C63.7242 64.3076 60.7005 55.0962 54.0164 55.0962ZM54.8318 97.2422C54.623 97.2422 54.412 97.2396 54.1989 97.2354C50.2826 97.149 47.2191 95.9103 45.0936 93.553C42.0128 90.1365 40.8393 84.4986 41.5059 76.3175C41.9825 70.4673 43.3821 65.1189 45.4467 61.2567C47.732 56.9821 50.6953 54.7225 54.0164 54.7225C60.9649 54.7225 64.0441 64.0594 67.081 75.3388C69.2384 83.3519 68.8711 89.2786 65.9897 92.9543C63.7581 95.8011 60.0062 97.2422 54.8318 97.2422Z" fill="#4F565B"/>
<path d="M47.6309 55.4024C47.6309 55.4024 41.1941 54.2866 37.0548 55.5939C34.285 56.2162 30.7683 55.9053 30.7683 55.9053C30.7683 55.9053 27.7494 52.3885 22.2097 51.1434C18.5063 50.3343 17.6347 49.0893 16.7011 46.9106C12.873 47.0043 12.873 47.0043 12.873 47.0043L13.1843 50.5211C16.2965 51.8593 21.9345 61.8578 29.2744 61.8494C31.5153 63.4366 40.2185 65.0862 40.4363 68.4784C40.6542 71.8708 47.6309 55.4024 47.6309 55.4024Z" fill="#BBBCBE"/>
<path d="M18.6678 50.6343C20.0082 51.4161 21.5816 51.6983 22.9068 52.0817C26.2003 53.034 31.0014 55.4795 31.1882 57.7611C31.2205 57.1273 31.1172 56.957 31.1098 56.6873C33.5773 56.9719 36.2197 56.5564 38.1684 55.9878C39.4676 55.6087 43.3266 54.7225 47.2757 55.829L47.6306 55.4024C47.6306 55.4024 41.1939 54.2866 37.0546 55.5939C34.2847 56.2162 30.7681 55.9053 30.7681 55.9053C30.7681 55.9053 27.7492 52.3885 22.2095 51.1434C18.506 50.3343 17.6344 49.0893 16.7008 46.9106C16.5667 46.9141 16.4384 46.9174 16.3135 46.9204C16.5076 48.5505 17.4303 49.8607 18.6678 50.6343Z" fill="#F2F2F2"/>
<path d="M39.7546 65.8643C39.0076 64.557 37.3971 63.5922 35.9033 63.2188C34.4095 62.8452 32.371 62.0827 32.1718 61.6105C32.0986 61.375 32.5772 60.6823 32.5772 60.3087C27.722 61.8027 23.3922 58.7684 20.2178 55.5938C17.5611 53.2694 15.4939 50.5029 12.9683 48.0802L13.1842 50.5211C16.2964 51.8593 21.9344 61.8578 29.2743 61.8494C31.3427 63.3147 39.0022 64.6947 40.4362 68.4784C40.6207 67.6439 40.2556 66.7408 39.7546 65.8643Z" fill="#A0A0A0"/>
<path d="M40.0528 68.4903C39.9129 66.3109 36.0376 64.8261 32.8568 63.6332C31.3087 63.0524 29.9672 62.5492 29.2156 62.0362C24.2774 62.0064 20.0694 57.4998 16.9931 54.2053C15.4497 52.5528 14.1167 51.1252 13.1106 50.6927L13.0082 50.6487L12.6694 46.8226L16.8228 46.7208L16.8726 46.8373C17.7402 48.8619 18.5351 50.1496 22.2493 50.9607C27.3932 52.1169 30.4275 55.2563 30.8573 55.7247C31.3727 55.7638 34.5222 55.9718 37.0139 55.4116C41.1338 54.11 46.8332 55.089 46.8905 55.0987L47.8232 55.2516L47.4263 55.5629L46.8259 55.4667C46.7697 55.4567 41.158 54.4938 37.111 55.7717C34.3295 56.3979 30.7873 56.0942 30.7517 56.0912L30.6761 56.0845L30.6266 56.0269C30.5966 55.9921 27.5787 52.5413 22.1686 51.3256C18.3511 50.4915 17.4758 49.1682 16.5794 47.1004L13.0765 47.186L13.3606 50.3962C14.4218 50.905 15.7434 52.3198 17.2659 53.9502C20.3055 57.2052 24.4683 61.6626 29.2651 61.6626C29.2682 61.6626 29.2709 61.6626 29.2742 61.6626H29.3337L29.3822 61.6968C30.084 62.1942 31.4298 62.6991 32.9879 63.2832C36.2696 64.5143 40.2808 66.0579 40.4362 68.4784L40.0528 68.4903Z" fill="#4F565B"/>
<path d="M31.1884 57.761C31.188 57.748 31.1505 56.4733 30.3706 55.754L30.6236 55.4795C31.5223 56.3077 31.1884 57.761 31.1884 57.761Z" fill="#4F565B"/>
<path d="M29.0144 62.032L29.0073 61.6584C29.997 61.6398 31.4133 61.1937 31.4275 61.1891C31.4275 61.1891 30.3707 62.013 29.0144 62.032Z" fill="#4F565B"/>
<path d="M16.2499 45.417C15.9408 44.9011 14.1564 44.7096 13.7447 43.9852C10.6324 38.3368 6.95993 38.0877 6.33759 38.9747C5.71508 39.8618 7.7691 40.6865 8.56271 41.402C9.35632 42.1178 10.8658 44.7944 10.7724 45.1056C8.56585 42.0116 4.78148 40.4374 4.20563 41.4956C3.56773 42.6627 5.20161 43.8454 6.21299 44.2652C7.22452 44.6855 9.66757 46.8017 9.66757 46.8017L9.46536 47.4868C9.46536 47.4868 9.46536 47.4868 8.93618 47.0042C6.71106 45.0434 3.76994 44.8723 3.27203 45.9303C2.77412 46.9885 4.60657 47.543 5.35716 47.7201C6.05463 47.8841 7.52022 48.6224 7.52022 48.6224C7.52022 48.6224 8.11146 50.2406 10.2901 51.1747C13.3781 52.7184 15.5298 51.5437 15.7209 51.4326L15.7169 51.4348C16.037 51.2756 18.452 49.1842 16.2499 45.417Z" fill="#F7B5C0"/>
<path d="M8.93601 47.0043C6.71089 45.0435 4.49455 45.0104 3.70325 45.5103C3.60695 45.5713 3.35808 45.7924 3.37429 45.9478C5.41425 45.1409 8.1386 46.9107 9.57408 47.9379C9.36922 47.6308 9.22046 47.3796 9.0664 47.123C9.02653 47.0869 8.98416 47.048 8.93601 47.0043Z" fill="#FFF3F6"/>
<path d="M4.20546 41.4957C4.15897 41.5808 4.12604 41.6655 4.10254 41.7507C6.33742 40.9043 9.34059 44.3898 10.6945 45.5102C10.6149 45.1125 10.4332 44.7486 10.2222 44.4037C7.98785 41.7808 4.73581 40.5209 4.20546 41.4957Z" fill="#FFF3F6"/>
<path d="M13.869 44.9503C13.869 44.6808 13.8683 44.4111 13.8638 44.1417C13.8177 44.092 13.776 44.0407 13.7445 43.9853C10.6323 38.3369 7.39846 38.3526 6.97716 38.6258C6.72647 38.7287 6.68014 38.8697 6.6626 38.9096C9.20063 38.5346 12.2571 42.2637 13.869 44.9503Z" fill="#FFF3F6"/>
<path d="M11.6281 45.5102C9.79797 39.6348 6.22159 39.6128 6.65348 38.7286C6.51465 38.7935 6.40626 38.8764 6.33742 38.9747C5.71491 39.8618 7.76893 40.6865 8.56254 41.402C9.17595 41.9552 10.2164 43.6794 10.6144 44.5778C10.9449 44.9291 11.2798 45.2488 11.6281 45.5102Z" fill="#E59EAD"/>
<path d="M4.115 41.7067C3.76287 42.8024 5.26256 43.8704 6.21304 44.2652C7.22457 44.6855 9.66762 46.8018 9.66762 46.8018C9.66762 46.8018 9.8508 47.0437 10.2979 47.2843C9.52763 44.3274 4.54804 43.254 4.115 41.7067Z" fill="#E59EAD"/>
<path d="M16.8714 46.748C16.8728 47.108 16.5034 47.4732 16.3921 47.9536C16.1561 48.9716 15.9031 49.978 15.363 50.4589C13.9851 51.6849 9.66509 50.6498 8.45382 48.498C7.87814 47.2843 3.70375 47.0043 3.35824 45.7924C3.32498 45.836 3.29503 45.8814 3.27203 45.9304C2.77412 46.9886 4.60657 47.5431 5.35716 47.7201C6.05463 47.8841 7.52022 48.6224 7.52022 48.6224C7.52022 48.6224 8.11146 50.2406 10.2901 51.1747C13.3781 52.7184 15.5298 51.5437 15.7209 51.4327L15.7169 51.4348C15.9969 51.2955 17.882 49.676 16.8714 46.748Z" fill="#E59EAD"/>
<path d="M4.80581 45.4734C4.59285 45.4734 4.39594 45.4921 4.21971 45.529C3.82489 45.6107 3.54838 45.7813 3.44083 46.0102C3.35677 46.1889 3.35246 46.3512 3.42775 46.5071C3.62086 46.9074 4.35821 47.2928 5.39986 47.5385C6.11057 47.7058 7.5434 48.4251 7.60397 48.4557L7.66999 48.4891L7.69547 48.5586C7.70093 48.5734 8.2925 50.1154 10.3634 51.0032C13.3398 52.4906 15.3819 51.4129 15.6233 51.2736C15.6246 51.2727 15.6258 51.2719 15.6269 51.2714L15.684 51.3697L15.6334 51.2679C15.7357 51.2171 16.4889 50.6246 16.8217 49.5091C17.1814 48.304 16.9348 46.9595 16.0891 45.5124C15.9809 45.3332 15.5387 45.1676 15.1112 45.0071C14.486 44.7728 13.8395 44.5305 13.5822 44.0776C11.5004 40.2994 9.08925 38.8634 7.52636 38.7787C6.94307 38.7474 6.60782 38.9147 6.49017 39.082C6.41901 39.1836 6.39518 39.2789 6.41521 39.3818C6.49215 39.7788 7.17523 40.2223 7.77788 40.6133C8.12471 40.8387 8.45235 41.0513 8.68782 41.2636C9.39935 41.9058 11.0888 44.7 10.9512 45.1595L10.8415 45.5247L10.6202 45.2143C8.83856 42.7158 6.06838 41.2872 4.85943 41.3564C4.60857 41.3716 4.44376 41.4488 4.36963 41.5851C4.2303 41.8398 4.2111 42.101 4.31072 42.3845C4.57945 43.1482 5.63831 43.8248 6.28448 44.0933C7.31191 44.5199 9.6891 46.5736 9.7897 46.6608L9.88055 46.7396L9.5597 47.8258L8.81027 47.142C7.50948 45.9961 5.93401 45.4734 4.80581 45.4734ZM13.4124 52.1534C12.5289 52.1534 11.4401 51.9585 10.2064 51.3417C8.22333 50.492 7.51842 49.0936 7.37363 48.7585C7.08901 48.6175 5.90241 48.0405 5.31415 47.902C4.6281 47.7402 3.42709 47.3652 3.09135 46.6698C2.96575 46.4096 2.96972 46.1343 3.10293 45.8508C3.26393 45.5086 3.624 45.271 4.14392 45.163C5.30786 44.9215 7.34252 45.3514 9.05963 46.8642L9.37056 47.148L9.45412 46.865C9.0037 46.4808 7.00545 44.7969 6.14118 44.4382C5.29313 44.0857 4.24817 43.3317 3.95843 42.5081C3.82357 42.1247 3.85153 41.754 4.04166 41.4059C4.13763 41.2297 4.35374 41.0127 4.83676 40.9836C6.09518 40.9103 8.38252 42.0981 10.1218 44.006C9.65203 43.1318 8.92957 41.9846 8.43746 41.5411C8.22416 41.3483 7.9086 41.1436 7.57451 40.9268C6.87688 40.4739 6.15558 40.0055 6.04852 39.4531C6.00897 39.2493 6.05481 39.0524 6.18454 38.8677C6.41455 38.5397 6.91179 38.3716 7.54655 38.4059C9.20939 38.496 11.7537 39.9855 13.908 43.8954C14.0973 44.2284 14.7056 44.4564 15.2424 44.6576C15.7752 44.8575 16.2355 45.0299 16.41 45.321L16.4109 45.3226C17.3115 46.8634 17.5699 48.3075 17.1796 49.6158C16.8347 50.7715 16.0585 51.4688 15.8056 51.5992C15.6345 51.6972 14.764 52.1534 13.4124 52.1534Z" fill="#844557"/>
<path d="M13.6453 46.1185C13.334 44.8735 13.4797 43.9076 13.6508 43.6429C13.822 43.3786 14.1799 42.8182 13.9153 41.3398C13.6508 39.8618 14.9891 36.8585 16.3739 37.4497C16.9498 37.6832 15.9538 39.8928 16.5763 41.3398C17.1987 42.7872 18.0073 45.7085 16.9731 48.6149C15.5492 46.5888 14.4599 46.5888 13.6453 46.1185Z" fill="#F7B5C0"/>
<path d="M16.5578 38.0525C16.5733 37.7365 16.5354 37.5154 16.3739 37.4497C14.9891 36.8585 13.6508 39.8618 13.9153 41.3398C14.1799 42.8182 13.822 43.3786 13.6508 43.6429C13.4797 43.9076 13.334 44.8735 13.6453 46.1185C13.6453 46.1185 13.3572 44.7152 14.0864 43.8142C14.4885 43.3176 14.5468 42.2756 14.4548 41.4805C14.3059 40.1948 14.4288 39.5971 15.5668 37.9768C15.5668 37.9768 16.0278 37.3734 16.5578 38.0525Z" fill="#FFF3F6"/>
<path d="M16.5766 41.3399C16.1098 40.2545 16.5531 38.7406 16.5613 37.9526C16.1448 38.1343 15.1294 40.1418 16.063 42.4451C16.6083 43.7895 16.7484 44.9431 16.67 45.8839C16.6233 46.7209 16.5042 47.3699 16.3316 48.2113L16.9735 48.6149C18.0077 45.7085 17.199 42.7873 16.5766 41.3399Z" fill="#E59EAD"/>
<path d="M17.3286 48.8064L16.9732 48.6149C17.9791 45.7878 17.0501 42.9144 16.4048 41.414C16.0503 40.5896 16.1857 39.5696 16.2942 38.7499C16.351 38.3225 16.4365 37.6768 16.3038 37.623C16.0141 37.4994 15.7104 37.563 15.3984 37.8112C14.5794 38.4626 13.9117 40.2597 14.0992 41.3073C14.3777 42.8636 13.9927 43.4588 13.8077 43.7447C13.6993 43.9117 13.3304 44.8597 13.6453 46.1186C13.6453 46.1186 12.7483 44.9968 13.4941 43.5418C13.6531 43.2956 13.9841 42.7843 13.7315 41.3728C13.5211 40.1965 14.2448 38.2516 15.1657 37.5189C15.5875 37.1834 16.0305 37.1003 16.4473 37.2782C16.8449 37.4392 16.7693 38.0094 16.6646 38.799C16.562 39.5734 16.434 40.5367 16.7478 41.2661C17.4148 42.8169 18.3774 45.859 17.3286 48.8064Z" fill="#844557"/>
<path d="M11.2762 43.3956C11.2762 43.3956 9.20096 45.7091 8.77734 48.4404L9.85457 48.2647L11.6169 45.382L11.2762 43.3956Z" fill="#F7B5C0"/>
<path d="M8.77697 48.4404C8.77697 48.4404 8.59362 47.5644 8.8832 46.7177C9.17543 45.9421 9.53053 45.2625 9.86578 44.7106C10.4413 43.7625 11.2758 43.3956 11.2758 43.3956C11.2566 43.4165 9.34305 45.5421 8.77697 48.4404Z" fill="#844557"/>
<path d="M58.2646 54.3488C58.2646 54.3488 68.2698 53.96 75.1793 62.8143C77.3579 64.8685 78.7898 65.553 78.7898 65.553C78.7898 65.553 84.6408 67.1712 89.8067 76.819C91.1139 78.5621 91.1139 78.5621 91.1139 78.5621L88.6553 79.9936C88.6553 79.9936 79.7235 76.4458 75.3661 70.4702C72.6276 70.5948 69.9355 68.2916 65.9204 67.965L64.9403 62.1764L58.2646 54.3488Z" fill="#BBBCBE"/>
<path d="M89.8064 76.819C84.6405 67.1712 78.7895 65.553 78.7895 65.553C78.7895 65.553 77.3577 64.8685 75.1791 62.8143C73.0938 60.1414 70.7257 58.3109 68.436 57.058C73.6059 61.003 74.1599 63.8801 77.1866 65.0786C76.8939 65.1875 76.6342 65.2789 76.2997 65.584C82.2004 66.6596 87.2856 73.4733 90.2873 79.0434L91.1136 78.5621C91.1136 78.5621 91.1136 78.5621 89.8064 76.819Z" fill="#A0A0A0"/>
<path d="M75.1166 67.7317C74.3584 68.5484 74.2295 69.4587 72.5024 68.7424C70.4789 67.9028 68.4642 66.3778 65.9552 66.296C65.9403 66.6227 65.9199 67.965 65.9199 67.965C69.935 68.2916 72.627 70.5949 75.3656 70.4702C79.723 76.4458 88.6548 79.9936 88.6548 79.9936L89.7431 79.3598C85.6811 77.8945 77.2952 72.9255 75.1166 67.7317Z" fill="#A0A0A0"/>
<path d="M88.6705 80.2006L88.5858 80.1672C88.4964 80.1316 79.634 76.5624 75.2738 70.6606C73.9139 70.6932 72.5469 70.1526 71.1029 69.5804C69.6045 68.9869 67.9067 68.3142 65.9052 68.1511L65.9353 67.7787C67.9923 67.9465 69.718 68.6298 71.2402 69.2331C72.7443 69.829 74.044 70.3411 75.3572 70.284L75.4571 70.2794L75.5165 70.3603C79.5696 75.9184 87.7253 79.4074 88.6404 79.786L90.838 78.5062L89.6418 76.9071C84.58 67.4556 78.7969 65.7492 78.7393 65.7332L78.7083 65.7212C78.6491 65.6929 77.2257 65.0008 75.0509 62.9501L75.0319 62.9292C68.2595 54.2506 58.3704 54.5338 58.2712 54.5357L58.2568 54.1626C58.3584 54.1583 68.429 53.872 75.3175 62.6883C77.3296 64.5834 78.7083 65.3031 78.8566 65.3782C79.282 65.5013 84.9113 67.2899 89.9642 76.7186L91.3887 78.6177L88.6705 80.2006Z" fill="#4F565B"/>
<path d="M79.1743 65.8893C77.8315 65.4276 76.9186 65.3975 76.9092 65.3975C76.9092 65.3975 77.8932 65.054 79.2955 65.5365L79.1743 65.8893Z" fill="#4F565B"/>
<path d="M75.3379 70.746C74.7899 70.0501 75.005 69.176 75.005 69.176C75.0063 69.1833 75.1423 69.8942 75.6311 70.5147L75.3379 70.746Z" fill="#4F565B"/>
<path d="M94.226 78.1577L90.1958 76.4614C88.8652 76.4496 87.5813 77.6166 87.0678 78.8654C85.6441 82.0633 88.655 85.0044 89.612 85.4242C90.4291 86.7548 90.4367 89.9759 91.1136 90.0929C93.6503 90.7227 91.8995 84.6075 91.5025 83.9539C93.5334 84.6541 94.187 89.8124 95.4942 89.6493C98.1436 88.2489 94.1014 82.4522 94.1636 81.9544C95.9688 84.1326 99.1432 88.023 99.6724 86.4048C100.699 83.9772 94.226 78.1577 94.226 78.1577Z" fill="#F7B5C0"/>
<path d="M89.2836 77.0927C89.5813 76.9553 90.4789 76.816 90.801 76.7156L90.196 76.4614C88.8654 76.4496 87.5815 77.6166 87.068 78.8654C86.4161 80.3295 86.6947 81.7392 87.2799 82.8783C86.4427 79.0937 88.1898 78.0572 89.1666 77.213C89.2136 77.1612 89.2374 77.1359 89.2836 77.0927Z" fill="#FFF3F6"/>
<path d="M89.869 84.7239C88.9353 84.2337 87.9873 83.437 87.1846 82.6859C87.8648 84.1346 89.0691 85.1857 89.6122 85.4242C90.4293 86.7547 90.4369 89.9758 91.1139 90.0928C91.654 90.2267 92.1721 89.9504 92.3665 89.3222C91.8883 89.5031 91.3045 89.509 91.1763 88.8905C90.9542 87.5833 90.8491 85.2377 89.869 84.7239Z" fill="#E59EAD"/>
<path d="M93.79 81.363C93.9779 81.6443 94.1739 81.9251 94.3735 82.2078C96.2043 84.4185 99.1631 87.9621 99.6724 86.4048C99.8278 86.0377 99.8105 85.5924 99.6711 85.1019C99.2055 87.0467 96.3928 83.0901 94.8406 81.7481C94.5679 81.5121 94.0363 81.6091 93.79 81.363Z" fill="#E59EAD"/>
<path d="M95.2611 88.2603C94.444 86.7883 93.7747 85.004 92.8164 83.8255L91.1763 83.4172C91.2876 83.6027 91.4007 83.7887 91.5138 83.9747C91.5105 83.9683 91.5062 83.9593 91.5027 83.9539C93.5336 84.6541 94.1872 89.8124 95.4945 89.6493C95.8529 89.4595 96.3028 89.1423 96.3579 88.2956C95.9728 88.7038 95.5178 88.7271 95.2611 88.2603Z" fill="#E59EAD"/>
<path d="M90.1579 76.6478C88.8692 76.6584 87.6959 77.8288 87.2405 78.9362C86.7704 79.9927 86.7576 81.1059 87.2003 82.2504C87.8218 83.8572 89.1476 85.0167 89.6873 85.2534L89.7406 85.2768L89.7712 85.3267C90.1821 85.9961 90.3923 87.0962 90.5773 88.0667C90.7146 88.7846 90.9218 89.87 91.1453 89.9085C91.6626 90.0364 91.8727 89.845 91.9868 89.6899C92.8009 88.5834 91.6588 84.5705 91.3432 84.0508L91.0747 83.609L91.5635 83.7773C92.7153 84.1746 93.4198 85.8266 94.0403 87.2843C94.4995 88.361 94.9736 89.4676 95.44 89.4662C97.2462 88.4563 95.3904 84.8738 94.4953 83.1465C94.0951 82.3734 93.9574 82.0975 93.9786 81.9311L94.0318 81.5023L94.4432 81.9989C95.8224 83.6646 98.3861 86.7627 99.274 86.5963C99.3376 86.584 99.4299 86.5451 99.4948 86.3469C100.297 84.4494 95.9123 79.9295 94.1242 78.3173L90.1579 76.6478ZM91.4538 90.3245C91.3381 90.3245 91.2102 90.3093 91.0687 90.2741C90.6032 90.194 90.4388 89.3312 90.2104 88.1367C90.036 87.2211 89.8381 86.1867 89.481 85.569C88.8477 85.2564 87.5011 84.0632 86.8516 82.3851C86.3718 81.1444 86.3873 79.935 86.8975 78.7892C87.399 77.5692 88.7177 76.2745 90.1758 76.2745C90.1829 76.2745 90.1897 76.2745 90.1973 76.2745L90.2342 76.275L94.3272 77.9974L94.3509 78.0186C94.6189 78.2597 100.911 83.9563 99.8443 86.4773C99.7332 86.8192 99.51 86.9313 99.3435 86.9631C98.4488 87.1309 96.7764 85.3555 94.9189 83.1524C95.9636 85.1734 97.7072 88.6907 95.5815 89.8141L95.5509 89.8301L95.5171 89.8344C94.7614 89.9305 94.2915 88.8262 93.6968 87.4309C93.196 86.2557 92.6391 84.9472 91.8744 84.3673C92.3252 85.6458 93.1181 88.7827 92.2874 89.911C92.1388 90.1131 91.8812 90.3245 91.4538 90.3245Z" fill="#844557"/>
<path d="M89.0171 76.9432C89.5537 76.1909 91.1292 75.7375 91.9226 75.7845C92.7164 75.8312 93.5565 75.2474 94.4668 75.1542C96.0151 74.9209 97.3381 73.6534 97.5947 73.6602C97.8557 73.6675 98.972 75.0844 96.9878 76.4497C95.8791 77.2198 94.8442 77.8256 94.397 78.5969C93.9302 79.4023 92.7009 80.0978 91.4947 79.67C90.9005 79.459 89.8842 77.5349 89.0171 76.9432Z" fill="#F7B5C0"/>
<path d="M97.5947 73.6602C97.3381 73.6534 96.0151 74.9209 94.4668 75.1542C93.5565 75.2474 92.7164 75.8312 91.9226 75.7845C91.1292 75.7375 89.5537 76.1909 89.0171 76.9432L89.1662 77.2131C89.1662 77.2131 90.0058 76.2138 91.5803 76.2282C92.755 76.3289 93.8678 75.6859 94.3385 75.621C94.9561 75.5355 95.2844 75.4225 95.8356 75.1594C96.4184 74.8815 96.9899 74.5302 97.5401 74.0648C97.6829 73.9466 97.8456 73.9754 97.976 74.049C97.8472 73.8081 97.6778 73.6627 97.5947 73.6602Z" fill="#FFF3F6"/>
<path d="M97.7988 73.7597C97.7417 73.7579 97.8362 73.8474 97.6828 73.9465C98.1839 74.6873 97.3689 75.7142 96.2333 76.2745C93.1833 77.4416 94.3346 79.2466 91.4946 79.6699C92.7008 80.0976 93.9301 79.4021 94.3969 78.5968C94.8441 77.8255 95.879 77.2197 96.9877 76.4496C98.9719 75.0843 98.0598 73.7665 97.7988 73.7597Z" fill="#E59EAD"/>
<path d="M91.4947 79.6699C92.6118 80.0664 93.8042 79.2471 94.2356 78.5033C94.6282 77.825 95.4169 77.2912 96.3298 76.6729C96.5098 76.5509 96.6945 76.4258 96.8813 76.2962C97.8502 75.6296 97.9963 74.9923 97.9484 74.5755C97.9023 74.1736 97.6696 73.9045 97.5803 73.8507C97.5214 73.8765 97.3253 74.0082 97.1507 74.1257C96.5666 74.5176 95.5881 75.1742 94.4947 75.3388C94.0931 75.3803 93.7026 75.521 93.3248 75.6574C92.8396 75.8328 92.3823 75.9981 91.9115 75.9709C91.1652 75.9256 89.5025 76.2631 89.017 76.9431L88.7129 76.7261C89.3055 75.896 91.124 75.5506 91.9337 75.5981C92.3263 75.6206 92.7499 75.4685 93.198 75.3062C93.5967 75.1623 94.0094 75.0135 94.4477 74.9682C95.45 74.8169 96.3844 74.1901 96.9429 73.8151C97.3087 73.5694 97.4537 73.4695 97.5998 73.4738C97.8353 73.4801 98.1399 73.8406 98.264 74.2613C98.4052 74.7378 98.4411 75.676 97.0936 76.6034C96.9063 76.7334 96.7208 76.8592 96.5394 76.9821C95.6643 77.5747 94.9085 78.0865 94.5582 78.691C94.3125 79.1146 93.85 79.5581 93.2862 79.8423C92.2145 80.3124 91.4947 79.6699 91.4947 79.6699Z" fill="#844557"/>
<path d="M90.645 84.5855C92.1387 84.8655 94.4037 83.2334 94.987 81.6693L94.0157 81.2229L90.7091 83.2994L90.645 84.5855Z" fill="#F7B5C0"/>
<path d="M90.645 84.5854C91.9811 84.8337 94.4157 83.2006 94.987 81.6693C94.987 81.6693 94.9561 82.6165 94.4703 83.1232C93.8449 83.8009 93.0015 84.4054 92.1662 84.7316C91.1914 85.0509 90.645 84.5854 90.645 84.5854Z" fill="#844557"/>
<path d="M65.7341 62.099C65.7341 62.099 65.4406 66.2046 65.8208 68.3036C66.539 68.3617 67.4959 68.4494 68.0092 68.6302L65.7341 62.099Z" fill="#BBBCBE"/>
<path d="M67.8079 68.7424C66.8263 64.8783 65.745 62.1265 65.7344 62.099C65.7344 62.099 66.5553 63.2004 67.1551 65.1469C67.4626 66.1445 67.8448 67.3382 68.1794 68.6552L67.8079 68.7424Z" fill="#4F565B"/>
<path d="M66.188 18.8288C66.188 18.8288 68.5534 19.0156 71.479 15.032C74.4044 11.0482 78.388 2.76961 85.4835 4.45048C92.5795 6.13103 91.7263 18.1442 91.0235 21.1942C90.4101 23.8545 87.289 33.9368 71.1054 33.5721C66.4994 25.9246 66.188 18.8288 66.188 18.8288Z" fill="#BBBCBE"/>
<path d="M70.9487 17.3948C74.1228 14.0335 75.2503 9.64998 79.1285 6.44444C81.71 4.31033 85.8975 4.04094 88.5361 6.1949C87.7354 5.3639 86.7331 4.74619 85.4835 4.45048C78.388 2.76961 74.4044 11.0482 71.479 15.032C68.5534 19.0156 66.188 18.8288 66.188 18.8288L67.0713 19.9793C69.2656 19.5286 69.4324 19.0368 70.9487 17.3948Z" fill="#F2F2F2"/>
<path d="M87.8004 25.5625C84.2665 31.2837 75.1089 32.6689 69.7354 30.6499C69.9748 31.0893 70.8372 33.1277 71.105 33.572C87.2886 33.9367 90.4097 23.8544 91.0232 21.1941C91.2502 20.2079 92.7113 12.7423 89.1894 6.97766C91.6518 14.3447 89.6951 22.4951 87.8004 25.5625Z" fill="#A0A0A0"/>
<path d="M71.2124 33.3873C86.3123 33.6928 89.9694 24.9358 90.8411 21.1521C91.3893 18.7749 92.6547 6.34057 85.4406 4.63223C79.5757 3.24275 75.8249 8.89118 73.0859 13.0149C72.5726 13.788 72.0876 14.5184 71.6292 15.1424C69.1438 18.5267 67.0486 18.9629 66.3873 19.0117C66.4785 20.1867 67.1482 26.5947 71.2124 33.3873ZM71.9608 33.7686C71.677 33.7686 71.3906 33.7651 71.1008 33.7588L70.9984 33.7563L70.945 33.6681C66.3675 26.0681 66.0044 18.9083 66.0015 18.8371L65.9922 18.6258L66.2018 18.6427C66.2382 18.644 68.5228 18.7413 71.3279 14.9212C71.7813 14.3045 72.2636 13.5775 72.7746 12.8083C75.5746 8.59299 79.4109 2.82029 85.5266 4.26868C93.039 6.04785 91.7668 18.7991 91.205 21.236C90.8335 22.8487 89.797 25.9571 87.0333 28.6513C83.5482 32.0487 78.4801 33.7686 71.9608 33.7686Z" fill="#4F565B"/>
<path d="M69.7354 29.3148C69.7354 29.3148 72.419 28.1083 73.7262 24.5318C75.0335 20.9552 78.8334 7.03365 84.3632 7.93597C89.3325 8.76963 90.0273 13.4845 89.7781 16.5611C89.5291 19.6377 88.4709 30.0439 77.205 32.0924C69.7977 33.1447 69.7354 29.3148 69.7354 29.3148Z" fill="#F7B5C0"/>
<path d="M79.4081 19.3273C80.3419 16.3395 80.2697 11.7501 83.283 10.0841C85.2433 8.99964 87.0276 10.3175 89.1454 11.6815C88.4133 9.89352 86.9828 8.37564 84.3632 7.93597C78.8334 7.03365 75.0335 20.9552 73.7262 24.5318C72.419 28.1083 69.7354 29.3148 69.7354 29.3148C69.7354 29.3148 69.7388 29.5249 69.8396 29.8337C71.1139 29.7384 72.3826 29.5011 73.6195 29.0373C77.5409 27.5432 78.4745 23.0619 79.4081 19.3273Z" fill="#E59EAD"/>
<path d="M69.9337 29.4257C69.9706 29.6938 70.135 30.381 70.8581 30.9934C71.6934 31.7013 73.4684 32.4345 77.1792 31.9071C82.3472 30.9676 88.703 27.5385 89.5923 16.5463C89.7737 14.3082 89.6236 9.00763 84.3327 8.12019C79.6472 7.35637 76.1757 17.8022 74.5066 22.8223C74.2703 23.5337 74.0656 24.1479 73.9021 24.596C72.7258 27.8147 70.4844 29.1406 69.9337 29.4257ZM74.8116 32.4635C72.9452 32.4635 71.5367 32.0643 70.6061 31.2696C69.5783 30.3924 69.55 29.3608 69.5495 29.3176L69.5474 29.1949L69.6592 29.1444C69.6855 29.1325 72.2891 27.9219 73.5513 24.4678C73.7132 24.025 73.9165 23.4129 74.152 22.7047C75.854 17.5861 79.3985 6.93656 84.3938 7.75152C90.1471 8.71706 90.1125 14.75 89.9651 16.5762C89.0563 27.8049 82.543 31.3116 77.2389 32.2761C76.3591 32.4011 75.5496 32.4635 74.8116 32.4635Z" fill="#4F565B"/>
<path d="M81.2605 9.21735L80.9961 8.95391C81.2215 8.72771 82.7867 7.2277 84.8357 6.98826C86.1464 6.87822 87.0279 7.67166 87.0279 7.67166C84.6934 6.66724 82.3043 8.17056 81.2605 9.21735Z" fill="#4F565B"/>
<path d="M39.5608 18.788C39.5608 18.788 37.1956 18.9743 34.27 14.9912C31.3446 11.0076 27.361 2.72884 20.2652 4.40938C13.1694 6.09026 14.0224 18.1031 14.7255 21.1531C15.3387 23.8138 18.46 33.8961 34.6435 33.531C39.2496 25.8835 39.5608 18.788 39.5608 18.788Z" fill="#BBBCBE"/>
<path d="M24.0332 4.44549C22.8828 4.13192 21.6318 4.08575 20.2652 4.40942C13.1694 6.0903 14.0224 18.1032 14.7255 21.1532C15.0268 22.4607 15.9341 25.5604 18.6995 28.3321C14.2696 22.4104 14.2477 16.4269 15.7443 10.7199C17.2693 4.90468 21.6333 4.39122 24.0332 4.44549Z" fill="#F2F2F2"/>
<path d="M23.105 4.1875C29.1792 5.78912 32.1825 12.1484 34.2701 14.9912C37.1957 18.9744 39.561 18.788 39.561 18.788L38.6393 20.9615C32.1258 18.3767 30.8334 6.937 23.105 4.1875Z" fill="#A0A0A0"/>
<path d="M39.3614 18.971C38.7 18.9224 36.6049 18.486 34.1197 15.1012C33.6615 14.4772 33.1763 13.747 32.6629 12.9739C29.9238 8.8505 26.1732 3.20207 20.3083 4.59105C13.0943 6.29989 14.3595 18.7337 14.9076 21.1111C15.7795 24.8948 19.4364 33.6516 34.5367 33.3467C38.6005 26.5537 39.2702 20.146 39.3614 18.971ZM18.7155 28.6103C15.9517 25.9161 14.9154 22.808 14.5436 21.195C13.9819 18.7584 12.7099 6.00717 20.2223 4.22767C26.3377 2.77928 30.174 8.55182 32.974 12.7676C33.4849 13.5369 33.9676 14.2635 34.4207 14.8807C37.226 18.7003 39.5105 18.6028 39.5469 18.6017L39.7565 18.5851L39.7474 18.7961C39.7443 18.8676 39.3812 26.0274 34.8036 33.6275L34.7505 33.7157L34.6479 33.7178C34.3583 33.7246 34.072 33.7276 33.7881 33.7276C27.2686 33.7276 22.2005 32.0076 18.7155 28.6103Z" fill="#4F565B"/>
<path d="M36.0134 29.2737C36.0134 29.2737 33.3299 28.0676 32.0226 24.491C30.7156 20.9145 26.9156 6.99258 21.386 7.89523C16.4164 8.72889 15.7217 13.4437 15.9707 16.5204C16.2198 19.5972 17.2778 30.0031 28.5441 32.0513C35.9511 33.1039 36.0134 29.2737 36.0134 29.2737Z" fill="#F7B5C0"/>
<path d="M26.3401 19.2862C25.4065 16.2985 25.4785 11.7094 22.4654 10.0429C20.5047 8.95856 18.7204 10.2764 16.603 11.6409C17.3347 9.85278 18.7658 8.33456 21.3854 7.89523C26.915 6.99258 30.7149 20.9145 32.022 24.491C33.3292 28.0676 36.0127 29.2737 36.0127 29.2737C36.0127 29.2737 36.0092 29.4842 35.9086 29.793C34.6343 29.6977 33.3656 29.46 32.1289 28.9962C28.2075 27.5025 27.2737 23.0208 26.3401 19.2862Z" fill="#E59EAD"/>
<path d="M31.8468 24.555C31.6832 24.1073 31.4788 23.493 31.2423 22.7813C29.5731 17.7612 26.1016 7.31569 21.4162 8.07952C16.1254 8.96695 15.9753 14.2676 16.1565 16.5051C17.0457 27.4975 23.4016 30.9266 28.5696 31.8665C32.2807 32.3935 34.0552 31.6606 34.8909 30.9529C35.614 30.3403 35.7781 29.6531 35.8152 29.3845C35.2643 29.0996 33.0232 27.7736 31.8468 24.555ZM28.5101 32.2351C23.2058 31.2706 16.6925 27.7639 15.784 16.5357C15.6362 14.7094 15.6015 8.67588 21.3553 7.71101C26.3503 6.89589 29.8949 17.5451 31.5968 22.6635C31.8324 23.3722 32.0358 23.984 32.1976 24.4271C33.4599 27.8807 36.0632 29.0915 36.0896 29.1034L36.2014 29.1542L36.1994 29.2766C36.1988 29.3202 36.1703 30.3512 35.143 31.2286C34.2123 32.0233 32.8036 32.4228 30.9372 32.4228C30.1992 32.4228 29.3897 32.3601 28.5101 32.2351Z" fill="#4F565B"/>
<path d="M24.4888 9.1766L24.7532 8.91267C24.5278 8.68647 22.9628 7.18645 20.9135 6.94718C19.603 6.83747 18.7212 7.63092 18.7212 7.63092C21.0559 6.62649 23.4451 8.12982 24.4888 9.1766Z" fill="#4F565B"/>
<path d="M71.7274 32.2732C71.2927 31.0659 71.5884 26.5392 69.7211 21.5287C67.7958 16.362 59.9658 10.5522 52.8708 10.9237C45.7807 10.5631 37.9626 16.3666 36.0387 21.5292C34.1713 26.5395 34.467 31.0664 34.0323 32.2737C33.192 34.6082 29.8574 36.0227 30.6666 42.7448C31.3432 48.3658 37.5115 55.5452 52.8678 56.2365V56.2374C52.8703 56.2374 52.8727 56.2369 52.8754 56.2369C52.8813 56.2374 52.8868 56.2377 52.8923 56.2377V56.236C68.2482 55.5447 74.4169 48.3653 75.0933 42.7445C75.9025 36.0222 72.5679 34.6077 71.7274 32.2732Z" fill="#BBBCBE"/>
<path d="M34.7326 32.8185C35.2297 32.3982 34.7478 26.0458 37.2433 21.2199C40.0267 15.8371 46.118 12.1538 50.9425 11.7598C57.7461 11.0202 64.0829 14.2855 68.1863 18.7749C65.0559 14.5065 58.7158 10.6174 52.8708 10.9237C45.7807 10.5631 37.9626 16.3666 36.0387 21.5292C34.1713 26.5396 34.467 31.0664 34.0323 32.2737C33.192 34.6082 29.8574 36.0227 30.6666 42.7449C30.8335 44.1327 31.4018 46.3528 32.9124 48.0802C30.006 42.9944 30.3533 38.1242 34.7326 32.8185Z" fill="#F2F2F2"/>
<path d="M71.7277 32.2732C71.293 31.0659 71.5887 26.5392 69.7214 21.5287C69.4104 20.6947 68.9441 19.8437 68.3532 19.0049C71.0714 25.7492 69.8503 34.0168 70.5305 34.3591C74.4519 37.3468 73.6199 42.864 71.0058 46.7854C67.8313 51.4535 63.8163 53.0073 58.588 53.9409C49.436 55.3613 37.7777 54.3151 32.5317 47.5427C35.4068 51.808 41.7124 55.7345 52.8681 56.2365V56.2374C52.8705 56.2374 52.873 56.2369 52.8757 56.2369C52.8816 56.2374 52.8871 56.2377 52.8926 56.2377V56.236C68.2485 55.5447 74.4172 48.3653 75.0936 42.7445C75.9028 36.0222 72.5682 34.6077 71.7277 32.2732Z" fill="#A0A0A0"/>
<path d="M52.2329 11.0944C49.1432 11.0944 45.7563 12.2237 42.621 14.3105C39.5457 16.3577 37.1507 19.0808 36.2137 21.5945C34.9608 24.9567 34.6892 28.0909 34.5097 30.165C34.4213 31.1855 34.3575 31.923 34.2082 32.3373C33.9618 33.0214 33.5069 33.6331 33.0252 34.2803C31.8022 35.9244 30.28 37.97 30.8521 42.7226C31.071 44.542 32.0794 48.0604 36.3724 51.1884C40.3138 54.0605 46.0207 55.7413 52.8759 56.0501L52.884 56.0498C59.7394 55.741 65.4462 54.06 69.388 51.188C73.6809 48.0601 74.6894 44.5411 74.908 42.7221C75.4804 37.9695 73.9579 35.9239 72.7348 34.28C72.2532 33.6326 71.7983 33.0209 71.5522 32.3368H71.5517C71.4031 31.9225 71.3391 31.185 71.2506 30.165C71.071 28.0906 70.7995 24.9562 69.5463 21.594C68.6084 19.0778 66.2104 16.3528 63.1311 14.305C59.7775 12.0743 56.1382 10.9398 52.8807 11.1101L52.8713 11.1106L52.8615 11.1101C52.6535 11.0995 52.4439 11.0944 52.2329 11.0944ZM53.0793 56.4319L52.8835 56.4243L52.6904 56.431L52.6896 56.4153C45.836 56.0832 40.1206 54.3815 36.1525 51.4903C31.7451 48.279 30.7076 44.6465 30.4814 42.7674C29.8915 37.8666 31.463 35.7545 32.7256 34.0576C33.2104 33.4056 33.6292 32.843 33.8569 32.2106C33.9895 31.842 34.0548 31.0877 34.1376 30.1327C34.3191 28.0385 34.5933 24.8736 35.8639 21.4641C37.8236 16.2053 45.6783 10.3764 52.8709 10.7364C60.0723 10.3654 67.9333 16.1959 69.8963 21.4636C71.1672 24.8731 71.4412 28.0385 71.6225 30.1327C71.7054 31.0877 71.7708 31.8416 71.9033 32.2102C72.1309 32.8427 72.5497 33.4051 73.0344 34.0571C74.2976 35.7542 75.8687 37.8663 75.2792 42.7669C75.053 44.6462 74.0151 48.2787 69.6077 51.49C65.6415 54.3798 59.9287 56.0811 53.0793 56.4145V56.4319Z" fill="#4F565B"/>
<path d="M45.0459 52.7717C47.5939 53.7546 48.9011 59.4297 52.8923 59.4281L52.8915 59.4272C57.1873 59.4284 58.3854 53.941 60.6025 52.8298L45.0459 52.7717Z" fill="#BBBCBE"/>
<path d="M52.8711 58.0326C48.8155 58.0742 48.6909 52.8298 45.0504 52.7717H45.0459C47.5939 53.7546 48.9011 59.4297 52.8923 59.4281L52.8915 59.4272C57.1873 59.4284 58.3854 53.941 60.6025 52.8298C57.234 52.643 56.9505 57.9911 52.8711 58.0326Z" fill="#A0A0A0"/>
<path d="M59.2877 53.5356C58.9135 53.9952 58.5445 54.5421 58.1535 55.1216C56.8294 57.085 55.3251 59.3111 52.8969 59.2404L52.3975 59.2268C50.2363 59.0218 48.8443 56.9584 47.6069 55.1233C47.2164 54.5443 46.8479 53.9977 46.4743 53.5385C46.4743 53.5382 46.4738 53.5377 46.4734 53.5372C46.4729 53.5369 46.4724 53.5364 46.4724 53.536H46.4721C45.89 52.8922 45.0459 52.7717 45.0459 52.7717C45.4856 53.0391 45.8782 53.384 46.1807 53.7694L46.1827 53.772C46.5462 54.2185 46.9109 54.7594 47.2973 55.3318C48.6532 57.3429 50.1868 59.617 52.7478 59.617C52.7975 59.617 52.8483 59.616 52.8988 59.6144H52.9046C55.5361 59.6792 57.0882 57.3689 58.4633 55.3304C58.8492 54.7581 59.2139 54.2176 59.5774 53.7715C59.9951 53.2581 60.3508 52.9433 60.6965 52.7807C60.6965 52.7807 59.9416 52.6938 59.2877 53.5356Z" fill="#4F565B"/>
<path d="M48.2036 38.3762C51.3044 36.4051 54.4509 36.1836 57.556 38.3754C54.6819 37.1076 49.9619 37.5168 48.2036 38.3762Z" fill="#F2F2F2"/>
<path d="M48.2036 38.3762C48.2036 38.3762 49.0381 37.2791 50.8363 36.9156C51.4087 36.7999 52.061 36.7241 52.7879 36.7241C52.8162 36.7241 52.8441 36.7246 52.8721 36.7246C53.7182 36.7165 54.4633 36.8093 55.1004 36.9503C56.797 37.3253 57.556 38.3754 57.556 38.3754C57.5391 38.3623 55.8316 37.0643 52.8865 37.0978C49.934 37.0774 48.2205 38.3631 48.2036 38.3762Z" fill="#4F565B"/>
<path d="M52.8803 47.2899L42.3022 44.0811C42.3022 44.0811 42.6669 46.329 45.6183 48.5081C48.4261 50.4771 48.7746 56.342 52.8667 56.6059V56.608C52.8705 56.608 52.874 56.6072 52.8778 56.6072C52.8833 56.6076 52.8884 56.6084 52.8939 56.6089V56.6054C56.9855 56.3416 57.3345 50.4766 60.1422 48.5078C63.0936 46.3287 63.4583 44.0806 63.4583 44.0806L52.8803 47.2899Z" fill="#6D1111"/>
<path d="M56.7989 53.8486C55.4502 55.4613 55.0383 56.2814 53.0177 56.5945C50.9127 56.5945 50.4396 55.6205 49.187 54.1378C49.187 51.9195 50.5901 48.0802 52.6949 48.0802C54.7999 48.0802 56.7989 51.6301 56.7989 53.8486Z" fill="#2E0000"/>
<path d="M49.9775 55.0521C50.7074 55.9146 51.6103 56.525 52.867 56.6059V56.6081C52.8708 56.6081 52.8743 56.6072 52.8781 56.6072C52.8836 56.6076 52.8887 56.6084 52.8942 56.6089V56.6054C54.1523 56.5242 55.0559 55.9124 55.7861 55.0486C53.4986 53.733 51.1799 54.4756 49.9775 55.0521Z" fill="#F9AFAF"/>
<path d="M50.3155 55.1238C51.0627 55.9277 51.8828 56.3352 52.8762 56.4004L52.881 56.4001C53.8832 56.3352 54.7088 55.9227 55.4612 55.1059C53.471 54.0803 51.4774 54.6158 50.3155 55.1238ZM52.6703 56.7957C51.5716 56.6787 50.6375 56.15 49.8204 55.1852L49.6479 54.9818L49.8881 54.8666C51.1089 54.2812 53.5116 53.503 55.8889 54.8699L56.1029 54.9932L55.9435 55.1814C55.1281 56.1459 54.1961 56.6749 53.0999 56.7941L52.8724 56.8134L52.6703 56.7957Z" fill="#B56262"/>
<path d="M42.5976 44.386C42.8251 45.0794 43.5633 46.7349 45.7409 48.3425C46.9088 49.1614 47.6675 50.6381 48.4016 52.0661C49.5067 54.2168 50.551 56.248 52.8761 56.4004L52.8809 56.4C55.209 56.2496 56.2533 54.2176 57.3593 52.0656C58.0933 50.6376 58.852 49.1609 60.0242 48.3392C62.1977 46.7341 62.9357 45.0794 63.1631 44.3852L52.8804 47.505L42.5976 44.386ZM52.6703 56.796C50.2366 56.5385 49.1179 54.3616 48.0352 52.2546C47.2912 50.8071 46.589 49.4401 45.5003 48.6767C42.5115 46.4702 42.1146 44.2093 42.0992 44.114L42.0464 43.7883L52.8804 47.0746L63.7143 43.7878L63.6613 44.1137C63.6461 44.209 63.2491 46.4697 60.2643 48.6733C59.1719 49.4397 58.4691 50.8067 57.7256 52.2538C56.6443 54.3583 55.5267 56.5323 53.0998 56.7944L52.8723 56.8134L52.6703 56.796Z" fill="#4F565B"/>
<path d="M52.8928 46.5956V46.5899L52.8814 46.5929L52.8683 46.5896V46.5964L50.2783 47.2435C50.2783 47.2435 50.558 53.1064 52.8822 52.6138C55.2031 53.0996 55.4825 47.2432 55.4825 47.2432L52.8928 46.5956Z" fill="white"/>
<path d="M55.0907 47.1455C54.9394 48.5128 54.1298 52.6139 52.8717 51.235C52.4092 51.947 51.6712 51.7798 50.979 50.9626C51.3632 51.729 51.4925 52.6139 52.8823 52.6139C55.2032 53.0997 55.4825 47.2433 55.4825 47.2433L55.0907 47.1455Z" fill="#E4ECF4"/>
<path d="M50.4737 47.3869C50.5263 48.1261 50.818 51.3311 51.9873 52.2326C52.2474 52.4328 52.527 52.4974 52.8426 52.4308L52.8811 52.4227L52.9197 52.4308C53.2344 52.4969 53.5139 52.4317 53.7732 52.2308C54.9416 51.3276 55.2333 48.1247 55.2855 47.3864L52.8806 46.7854L50.4737 47.3869ZM52.6088 52.8298C52.3041 52.8298 52.019 52.729 51.7589 52.5281C50.3056 51.4069 50.0992 47.4216 50.0913 47.2525L50.084 47.0996L52.6808 46.4503V46.358L52.8785 46.4012L53.0675 46.354L53.0721 46.4482L55.6757 47.0993L55.6684 47.2522C55.6599 47.4211 55.4541 51.4031 54.0019 52.5265C53.6665 52.7858 53.2899 52.8789 52.8815 52.804C52.7891 52.8214 52.6981 52.8298 52.6088 52.8298Z" fill="#94A1B2"/>
<path d="M53.0685 52.6138L52.6948 52.6133L52.7054 46.5896L53.0791 46.5904L53.0685 52.6138Z" fill="#94A1B2"/>
<path d="M42.9487 44.8393C43.8123 46.4265 46.5667 48.9241 48.6674 49.0643C50.4403 49.1826 51.0464 48.0177 52.8842 47.9909C54.7145 48.0215 55.3224 49.1816 57.0923 49.064C59.193 48.9236 61.9473 46.4262 62.8111 44.8388L63.2244 43.6333H42.7847L42.9487 44.8393Z" fill="#BBBCBE"/>
<path d="M42.8594 44.1802L42.9491 44.8393C43.8127 46.4265 46.5671 48.9241 48.6678 49.0643C50.4407 49.1826 51.0468 48.0177 52.8846 47.9909C54.7149 48.0215 55.3228 49.1816 57.0927 49.064C59.1934 48.9236 61.9477 46.4261 62.8115 44.8388L62.9801 44.3478C61.6283 46.3868 59.3086 47.766 57.1405 48.037C55.8646 48.1967 54.5324 47.1699 53.0793 47.1268C51.6488 47.0844 50.1056 48.2477 48.6678 48.1074C46.2562 47.8714 43.7084 46.2033 42.8594 44.1802Z" fill="#A0A0A0"/>
<path d="M48.914 49.2592C48.8301 49.2592 48.7437 49.2567 48.6548 49.2503C46.9137 49.1346 44.7967 47.5042 43.5548 46.0248C43.2313 45.6395 42.9672 45.2642 42.7847 44.9286L43.1126 44.7502C43.9668 46.3197 46.6807 48.7446 48.6798 48.8779C49.5469 48.9342 50.1226 48.6683 50.7317 48.3853C51.332 48.1062 51.9525 47.8176 52.8815 47.804C53.811 47.8194 54.4294 48.107 55.0275 48.3848C55.6366 48.6678 56.2112 48.9347 57.0799 48.8774C59.079 48.7441 61.7926 46.3194 62.6471 44.7499L62.9749 44.9283C62.0913 46.5519 59.2997 49.1036 57.1046 49.2499C56.1412 49.3151 55.4952 49.014 54.8703 48.7237C54.3074 48.4619 53.7254 48.1917 52.8812 48.1777C52.0378 48.1901 51.454 48.4614 50.8889 48.7237C50.3216 48.9876 49.737 49.2592 48.914 49.2592Z" fill="#4F565B"/>
<path d="M52.8771 38.8626C50.6048 38.8604 47.6404 39.5005 47.6637 41.5249C47.687 43.5541 51.6025 45.3501 52.889 45.2594C54.1938 45.3327 58.0731 43.5443 58.096 41.5245C58.1193 39.4975 55.1494 38.865 52.8771 38.8626Z" fill="#F7B5C0"/>
<path d="M57.0166 39.7698C58.0965 41.7773 54.785 43.9844 52.6484 43.9657C50.6841 43.9483 47.9615 43.0693 47.6875 41.2076C47.6718 41.3097 47.6624 41.4147 47.6637 41.5248C47.687 43.554 51.6025 45.35 52.889 45.2593C54.1938 45.3327 58.0731 43.5442 58.096 41.5245C58.1049 40.75 57.6762 40.1795 57.0166 39.7698Z" fill="#E59EAD"/>
<path d="M52.8655 39.0493C51.2851 39.0493 49.2737 39.3798 48.3557 40.3074C48.0152 40.6518 47.8452 41.0607 47.8503 41.5228C47.8568 42.0629 48.1867 42.6495 48.8048 43.2193C50.0566 44.3728 52.1038 45.1252 52.8761 45.0736L52.8875 45.0726L52.8994 45.0731C53.6733 45.1184 55.702 44.3898 56.9813 43.1943C57.5825 42.6327 57.903 42.0543 57.9095 41.5223C57.9146 41.0615 57.7455 40.6536 57.4066 40.3109C56.2539 39.1433 53.6479 39.0502 52.8769 39.0493C52.8731 39.0493 52.8693 39.0493 52.8655 39.0493ZM52.7889 45.4497C51.7853 45.4497 49.7854 44.6307 48.5518 43.4938C47.8462 42.8436 47.4843 42.1819 47.4767 41.527C47.4704 40.961 47.6768 40.4625 48.0901 40.0448C49.3452 38.7765 52.0505 38.676 52.8672 38.676C52.8706 38.676 52.8739 38.676 52.8769 38.676C53.6853 38.677 56.4184 38.7781 57.6727 40.0481C58.084 40.465 58.2891 40.9624 58.2826 41.5266C58.275 42.1721 57.923 42.8249 57.2363 43.4671C55.9774 44.6435 53.8694 45.4896 52.89 45.4467C52.8579 45.4488 52.824 45.4497 52.7889 45.4497Z" fill="#844557"/>
<path d="M42.2731 46.6776C42.2731 46.6776 42.9232 45.1658 44.4469 45.4488C44.4469 45.4488 42.6919 42.5636 41.8516 43.3223C41.0114 44.0805 42.2731 46.6776 42.2731 46.6776Z" fill="#BBBCBE"/>
<path d="M42.2734 46.6777C42.2734 46.6777 42.2941 45.8619 42.9357 45.4497C43.6727 45.0028 44.4473 45.4489 44.4473 45.4489C43.022 45.3031 42.2807 46.6641 42.2734 46.6777Z" fill="#4F565B"/>
<path d="M63.487 46.6777C63.487 46.6777 62.9138 45.2053 61.313 45.4484C61.313 45.4484 62.9048 43.0498 63.714 43.4854C64.5232 43.9212 63.487 46.6777 63.487 46.6777Z" fill="#BBBCBE"/>
<path d="M63.487 46.6777C63.4569 46.6214 62.7296 45.3047 61.313 45.4484C61.313 45.4484 62.0891 45.0761 62.8027 45.4356C63.5826 45.9198 63.487 46.6777 63.487 46.6777Z" fill="#4F565B"/>
<path d="M46.6679 31.3486C46.5451 35.9989 44.457 39.7169 42.0034 39.6522C39.5499 39.5878 37.66 35.7651 37.7825 31.1143C37.9049 26.4638 39.9932 22.7458 42.4468 22.8107C44.9003 22.875 46.7904 26.6976 46.6679 31.3486Z" fill="#A0A0A0"/>
<path d="M46.6458 32.2097C46.5361 36.3848 44.4575 39.7169 42.0033 39.6522C39.5493 39.5878 37.6491 36.1506 37.7589 31.9759C37.8688 27.8008 39.9473 24.4687 42.4014 24.5334C44.8554 24.5978 46.756 28.0346 46.6458 32.2097Z" fill="black"/>
<path d="M46.477 32.4804C46.3711 36.5034 44.368 39.7144 42.0031 39.6522C39.6383 39.5898 37.807 36.278 37.9131 32.255C38.019 28.2315 40.0219 25.021 42.3866 25.0829C44.7516 25.1451 46.5829 28.4574 46.477 32.4804Z" fill="white"/>
<path d="M38.1787 35.1158C38.7625 37.7388 40.2331 39.6056 42.003 39.6523C44.3679 39.7145 46.371 36.5035 46.4769 32.4805C46.4836 32.2149 46.4815 31.9523 46.4722 31.6934C45.0075 34.4652 41.1794 35.5097 38.1787 35.1158Z" fill="#E2E1E0"/>
<path d="M42.3811 25.2891C40.1335 25.2299 38.2213 28.3573 38.1185 32.2602C38.0158 36.1634 39.7609 39.3869 42.0085 39.4463C44.2561 39.5051 46.1685 36.378 46.2711 32.475C46.374 28.5718 44.6289 25.3485 42.3811 25.2891ZM41.9976 39.8584C39.5233 39.7932 37.5988 36.3798 37.7075 32.2496C37.8162 28.1189 39.9177 24.8117 42.3921 24.8769C44.8664 24.9418 46.7913 28.3553 46.6825 32.4859C46.5736 36.6161 44.4721 39.9237 41.9976 39.8584Z" fill="black"/>
<path d="M44.9353 33.8406C44.8676 36.4154 43.5857 38.4707 42.0721 38.4305C40.5587 38.3906 39.3868 36.2712 39.4545 33.6961C39.5223 31.1214 40.8042 29.0665 42.3176 29.1064C43.8312 29.1461 45.0031 31.2658 44.9353 33.8406Z" fill="#0092FF"/>
<path d="M39.4902 34.6862C39.7014 36.7931 40.7576 38.3961 42.0716 38.4305C43.5215 38.469 44.7581 36.5843 44.9191 34.1621C44.5463 36.0502 40.5678 36.9965 39.4902 34.6862Z" fill="#005DCC"/>
<path d="M44.0918 34.0554C44.0448 35.8379 43.1574 37.2609 42.1096 37.2333C41.0618 37.2053 40.2504 35.7379 40.2974 33.9554C40.3442 32.1728 41.2316 30.7504 42.2796 30.7779C43.3273 30.8055 44.1386 32.2729 44.0918 34.0554Z" fill="black"/>
<path d="M42.3122 29.3126C40.9144 29.2758 39.7247 31.2446 39.66 33.7016C39.5953 36.1585 40.6798 38.1877 42.0775 38.2246C43.4753 38.2614 44.6652 36.2921 44.7299 33.8351C44.7944 31.3782 43.7099 29.3495 42.3122 29.3126ZM42.0668 38.6367C40.4423 38.594 39.1783 36.3755 39.2489 33.691C39.3196 31.0067 40.6986 28.8572 42.3231 28.9C43.9475 28.9427 45.2116 31.1617 45.1409 33.846C45.0703 36.5305 43.691 38.6795 42.0668 38.6367Z" fill="#003084"/>
<path d="M35.2295 37.8602C37.2368 36.0862 42.2017 38.7121 45.3692 38.0416L43.5789 40.9412L35.2295 37.8602Z" fill="#BBBCBE"/>
<path d="M43.7246 38.3287C42.7951 38.214 41.8339 38.0077 40.8923 37.8056C38.5744 37.3087 36.385 36.8393 35.2295 37.8602C35.2295 37.8602 35.6038 36.7863 37.6418 36.8905C38.6546 36.944 39.7967 37.1887 40.9706 37.4404C42.4656 37.7611 44.0107 38.0927 45.3692 38.0416C45.3692 38.0416 44.8705 38.4342 43.7246 38.3287Z" fill="#4F565B"/>
<path d="M43.9965 16.5615C40.6861 17.5138 38.9868 22.4103 38.9868 22.4103C38.9868 22.4103 42.7528 17.7273 45.961 18.8561C45.7153 18.1377 45.0984 16.9689 43.9965 16.5615Z" fill="black"/>
<path d="M59.0921 31.3488C59.2145 35.9988 61.3033 39.7165 63.7572 39.6516C66.2112 39.5872 68.1014 35.765 67.979 31.115C67.8565 26.4646 65.7677 22.7474 63.3138 22.8117C60.8598 22.8766 58.9696 26.6984 59.0921 31.3488Z" fill="#A0A0A0"/>
<path d="M59.1144 32.2093C59.2244 36.3844 61.3031 39.7165 63.7571 39.6517C66.211 39.5873 68.1113 36.1501 68.0016 31.9754C67.8916 27.8003 65.8129 24.4682 63.359 24.533C60.905 24.5974 59.0045 28.0341 59.1144 32.2093Z" fill="black"/>
<path d="M59.2837 32.4799C59.3896 36.5031 61.3925 39.7139 63.7574 39.6517C66.122 39.5895 67.9533 36.2777 67.8474 32.2545C67.7415 28.2312 65.7386 25.0202 63.3737 25.0824C61.0091 25.1447 59.1778 28.4569 59.2837 32.4799Z" fill="white"/>
<path d="M59.6294 35.1153C60.2132 37.7384 61.6839 39.6053 63.4538 39.6518C65.8184 39.714 67.8213 36.5031 67.9272 32.48C67.9343 32.2141 67.9322 31.9518 67.9229 31.693C66.4581 34.4642 62.6299 35.5093 59.6294 35.1153Z" fill="#E2E1E0"/>
<path d="M59.4892 32.4744C59.5921 36.3776 61.5041 39.5047 63.7519 39.4453C65.9995 39.3866 67.7448 36.1628 67.6419 32.2596C67.5389 28.357 65.6267 25.2293 63.3791 25.2888C61.1315 25.348 59.3866 28.5712 59.4892 32.4744ZM59.0781 32.4855C58.9693 28.3548 60.8939 24.9414 63.3685 24.8766C65.8428 24.8114 67.9444 28.1185 68.0529 32.2491C68.1616 36.3793 66.2372 39.7928 63.7628 39.858C61.2882 39.9232 59.1867 36.6157 59.0781 32.4855Z" fill="black"/>
<path d="M60.8373 33.8406C60.9051 36.4154 62.1874 38.4707 63.7005 38.4305C65.214 38.3906 66.3861 36.2712 66.3184 33.6961C66.2506 31.1214 64.9688 29.0665 63.4552 29.1064C61.9416 29.1461 60.7694 31.2658 60.8373 33.8406Z" fill="#0092FF"/>
<path d="M66.2726 33.0327C66.3874 35.4329 62.3224 37.2218 60.9351 34.8847C61.269 36.9481 62.3987 38.4647 63.7004 38.4305C65.214 38.3906 66.3861 36.2712 66.3184 33.6961C66.3124 33.4707 66.2967 33.2492 66.2726 33.0327Z" fill="#005DCC"/>
<path d="M61.6606 34.0554C61.7076 35.8379 62.5951 37.2609 63.643 37.2333C64.6906 37.2053 65.5019 35.7379 65.4553 33.9554C65.4083 32.1728 64.5208 30.7504 63.4727 30.7779C62.4251 30.8055 61.6136 32.2729 61.6606 34.0554Z" fill="black"/>
<path d="M61.0436 33.8351C61.108 36.2921 62.2979 38.2614 63.6958 38.2246C65.0934 38.1877 66.1777 36.1585 66.1134 33.7016C66.0487 31.2446 64.8587 29.2758 63.4611 29.3126C62.0632 29.3495 60.9789 31.3782 61.0436 33.8351ZM60.6322 33.846C60.5616 31.1617 61.8256 28.9427 63.4502 28.9C65.0747 28.8572 66.4536 31.0067 66.5242 33.691C66.595 36.3755 65.331 38.594 63.7064 38.6367C62.0823 38.6795 60.703 36.5305 60.6322 33.846Z" fill="#003084"/>
<path d="M70.5307 37.8598C68.5231 36.0857 63.6999 38.6401 60.3911 38.0406L63.6766 41.2449L70.5307 37.8598Z" fill="#BBBCBE"/>
<path d="M60.3911 38.0407C61.7492 38.0936 63.2945 37.7607 64.7894 37.44C66.0515 37.1698 67.276 36.9072 68.3436 36.8817C70.0718 36.8814 70.5307 37.8598 70.5307 37.8598C69.375 36.8385 67.1858 37.3083 64.8678 37.8052C64.2357 37.9407 63.5953 38.0784 62.9607 38.1886C61.14 38.4906 60.3911 38.0407 60.3911 38.0407Z" fill="#4F565B"/>
<path d="M61.7641 16.561C65.0746 17.5133 66.7737 22.4099 66.7737 22.4099C66.7737 22.4099 63.0078 17.7268 59.7998 18.8558C60.0455 18.1373 60.6623 16.9681 61.7641 16.561Z" fill="black"/>
<path d="M64.001 31.1968C64.001 31.8433 63.4766 32.3677 62.8301 32.3677C62.1832 32.3677 61.6592 31.8433 61.6592 31.1968C61.6592 30.5499 62.1832 30.0259 62.8301 30.0259C63.4766 30.0259 64.001 30.5499 64.001 31.1968Z" fill="white"/>
<path d="M62.5509 33.243C62.5509 33.5332 62.3155 33.7687 62.0252 33.7687C61.7346 33.7687 61.4995 33.5332 61.4995 33.243C61.4995 32.9524 61.7346 32.7173 62.0252 32.7173C62.3155 32.7173 62.5509 32.9524 62.5509 33.243Z" fill="white"/>
<path d="M42.8012 31.1134C42.8012 31.7602 42.277 32.2846 41.6304 32.2846C40.9837 32.2846 40.4595 31.7602 40.4595 31.1134C40.4595 30.4669 40.9837 29.9425 41.6304 29.9425C42.277 29.9425 42.8012 30.4669 42.8012 31.1134Z" fill="white"/>
<path d="M41.2223 33.1103C41.2223 33.4004 40.9868 33.636 40.6966 33.636C40.4062 33.636 40.1709 33.4004 40.1709 33.1103C40.1709 32.8201 40.4062 32.5846 40.6966 32.5846C40.9868 32.5846 41.2223 32.8201 41.2223 33.1103Z" fill="white"/>
<path d="M54.177 39.8594C54.177 40.1 53.3002 40.2952 52.2186 40.2952C51.1368 40.2952 50.2598 40.1 50.2598 39.8594C50.2598 39.6186 51.1368 39.4238 52.2186 39.4238C53.3002 39.4238 54.177 39.6186 54.177 39.8594Z" fill="white"/>
</svg>
