<svg width="120" height="120" viewBox="0 0 120 120" fill="none" xmlns="http://www.w3.org/2000/svg">
<path d="M63.3275 46.2387C58.6435 40.5009 53.4185 38.4149 49.4256 37.7473C45.4927 37.0903 41.5908 39.1313 39.9267 42.7544C37.9381 47.086 36.349 53.6016 40.3834 59.6778C47.0357 69.6962 63.7357 79.2829 81.5767 81.4712C82.6162 81.5989 83.4759 80.6634 83.2552 79.6286C80.5595 66.9993 72.4529 57.4169 63.3275 46.2387Z" fill="#C16A44"/>
<path d="M70.9983 79.298C57.4112 75.3948 45.6944 67.6761 40.3835 59.6773C36.3487 53.6015 37.9378 47.0855 39.9265 42.7546C40.0655 42.4523 40.2253 42.1652 40.394 41.8851C39.1987 41.6159 38.6687 41.2441 38.6687 41.2441L38.7171 42.9831C36.2823 43.0503 34.1288 40.6734 34.1288 40.6734L32.8046 43.146C31.0179 41.455 30.6128 39.3781 30.6128 39.3781L28.2355 41.532C28.2284 41.2585 28.2405 40.9906 28.2644 40.7277C25.9675 44.7398 24.4905 52.9495 31.6409 64.0609C36.1671 71.0933 43.6425 76.0437 50.9101 79.3941C51.5323 80.8491 52.0952 82.3792 52.3683 83.6757C53.169 87.482 54.9366 88.4773 54.9366 88.4773L55.5745 86.3714C55.5745 86.3714 56.6562 87.7335 58.4144 88.3812L58.7237 86.9808L60.1339 87.6378C60.1339 87.6378 60.1858 84.9859 60.544 83.0605C63.0085 83.8187 65.2292 84.3738 67.0179 84.748C69.3218 85.2296 71.453 83.357 71.2499 81.0124C71.2046 80.487 71.1233 79.9148 70.9983 79.298Z" fill="#7D3D1A"/>
<path d="M97.6137 86.5824C95.4477 85.561 93.3562 84.3821 91.3605 83.0574C87.9586 80.8 85.3023 77.9145 82.2559 75.8317C82.6418 77.0692 82.9785 78.3321 83.2555 79.6281C83.4762 80.6633 82.6164 81.5989 81.577 81.4715C77.9793 81.0301 74.4301 80.2836 70.9984 79.2981C71.1238 79.9153 71.2051 80.4871 71.2504 81.0121C71.4535 83.3571 69.3223 85.2297 67.0184 84.7481C65.2301 84.3742 63.0094 83.8188 60.5445 83.0606C60.4918 83.3438 60.4465 83.6434 60.4062 83.9473C62.9258 87.9414 66.0859 91.2852 66.0859 91.2852L67.4762 88.8278C69.2914 91.5621 71.0687 92.9051 72.5996 94.034C72.7625 92.7602 72.7172 91.1024 72.723 90.1032C75.0258 92.677 78.952 93.4457 82.4055 93.4899C81.5613 92.5774 80.9031 90.9145 80.5926 89.7114C84.3305 91.1141 88.3367 91.9989 91.132 90.9352C89.9508 89.7973 88.3523 88.6004 87.6184 87.2285C91.2414 87.5407 94.0535 87.3235 97.6137 86.5824Z" fill="#C16A44"/>
<path d="M50.9106 79.3942C47.9212 78.0161 44.8997 76.3622 42.0591 74.4091C42.1614 75.2649 42.3798 76.1083 42.7294 76.9094C43.397 78.4438 44.013 80.0848 44.3028 81.4622C45.1036 85.268 46.8712 86.2634 46.8712 86.2634L47.5091 84.1575C47.5091 84.1575 48.5911 85.52 50.3489 86.1677L50.6587 84.7669L52.0688 85.4239C52.0688 85.4239 52.0907 84.3063 52.2036 82.9962C51.9005 81.861 51.4274 80.6028 50.9106 79.3942Z" fill="#7D3D1A"/>
<path d="M38.6691 41.2441C38.6691 41.2441 39.1988 41.6156 40.3937 41.8855C41.6449 39.8125 43.6773 38.3813 45.9769 37.8539C45.814 37.5625 45.6562 37.2398 45.5093 36.8793L48.9777 36.4355C48.9777 36.4355 46.1574 35.1215 45.0468 32.7156C45.0468 32.7156 46.7855 32.668 48.1574 31.9336C48.1574 31.9336 45.6941 30.9578 44.2456 28.9094C44.2456 28.9094 46.332 28.852 47.3566 28.1273C47.3566 28.1273 44.1878 26.823 43.4351 24.7551C44.8261 24.7172 45.8312 23.2969 45.8312 23.2969C45.8312 23.2969 44.7878 23.3254 42.9722 20.5914C41.157 17.8574 36.457 17.8125 36.457 17.8125C31.3773 17.9523 29.6597 20.6738 29.1371 21.925C29.0007 22.2508 29.1234 22.625 29.4289 22.802C30.0546 23.1645 31.107 23.9156 31.6105 25.0813C32.0765 26.159 33.3433 26.5309 34.2242 26.6586C34.7113 26.7293 34.9804 27.2516 34.7671 27.6949C34.2656 28.7375 33.1765 30.2895 31.057 30.6219C30.6906 30.6793 30.4492 31.0316 30.4925 31.3996C30.6218 32.5008 30.6738 34.7195 29.5019 36.9727C29.5019 36.9727 28.1683 39.0973 28.2359 41.5316L30.6128 39.3781C30.6128 39.3781 31.0179 41.4551 32.8046 43.1461L34.1285 40.6734C34.1285 40.6734 36.2824 43.0504 38.7171 42.9832L38.6691 41.2441Z" fill="#E3E4E5"/>
<path d="M49.6411 98.3684C49.6411 98.3684 47.5239 99.3797 47.0395 101.497C46.9079 102.072 47.5665 102.498 48.0391 102.146C49.1173 101.34 50.8126 100.166 52.1133 99.6926C51.3704 97.9727 49.6411 98.3684 49.6411 98.3684Z" fill="#F4DBCE"/>
<path d="M49.6411 98.3683C48.8977 96.6488 47.1778 97.3921 47.1778 97.3921C47.1778 97.3921 45.2942 98.2617 44.6661 100.155C44.5505 100.503 44.8805 100.837 45.2341 100.739L47.6977 100.05C48.4966 98.9179 49.6411 98.3683 49.6411 98.3683Z" fill="#F4DBCE"/>
<path d="M47.1782 97.3922C46.7918 96.0106 45.4102 96.3965 45.4102 96.3965C45.4102 96.3965 44.0211 96.9028 43.1688 98.2449C42.9078 98.6563 43.2391 99.1871 43.7223 99.1254L45.327 98.9199C46.1215 97.8801 47.1782 97.3922 47.1782 97.3922Z" fill="#F4DBCE"/>
<path d="M43.9642 97.3128C43.1838 95.7914 41.5748 96.1546 41.5748 96.1546C41.5748 96.1546 39.4584 97.1656 38.9736 99.2828C38.842 99.8578 39.5006 100.284 39.9732 99.9316C40.9377 99.2113 42.3939 98.2 43.622 97.6543C43.7342 97.53 43.849 97.4168 43.9642 97.3128Z" fill="#F4DBCE"/>
<path d="M41.5752 96.1543C40.8318 94.4348 39.1119 95.1781 39.1119 95.1781C39.1119 95.1781 37.2283 96.0481 36.6002 97.9414C36.4846 98.2891 36.8146 98.6238 37.1681 98.525L39.6322 97.8363C40.4306 96.7043 41.5752 96.1543 41.5752 96.1543Z" fill="#F4DBCE"/>
<path d="M39.1121 95.1782C38.7261 93.797 37.3445 94.1829 37.3445 94.1829C37.3445 94.1829 35.9554 94.6888 35.1031 96.0309C34.8418 96.4423 35.173 96.9735 35.6566 96.9114L37.2613 96.7063C38.0558 95.6661 39.1121 95.1782 39.1121 95.1782Z" fill="#F4DBCE"/>
<path d="M34.2246 26.6585C33.3437 26.5312 32.0769 26.1589 31.6109 25.0812C31.1074 23.9155 30.055 23.1647 29.4293 22.8019C29.2078 22.6729 29.0843 22.4409 29.0839 22.1987C27.4714 22.3187 22.7261 23.1124 22.5003 28.3292C22.4886 28.5987 22.7765 28.7815 23.0128 28.6519C23.7558 28.2433 25.3035 27.6272 27.6835 27.7995C30.0722 27.9718 32.7777 27.8089 34.789 27.1151C34.7 26.8835 34.4988 26.6983 34.2246 26.6585Z" fill="#F9BD55"/>
<path d="M34.7672 27.6949C34.8605 27.5012 34.8574 27.2949 34.7883 27.1152C32.777 27.809 30.0719 27.9723 27.6832 27.8C26.1977 27.6922 25.0391 27.8926 24.1953 28.157C24.2227 28.1645 27.9766 29.1238 30.518 31.1117C30.5895 30.8637 30.7895 30.6637 31.057 30.6219C33.1766 30.2895 34.2656 28.7375 34.7672 27.6949Z" fill="#F9BD55"/>
<path d="M60.3983 94.9017C59.6886 94.3778 58.6108 93.9337 57.1862 94.3321C57.1862 94.3321 59.9796 91.6446 59.5015 87.3435L58.7237 86.981L58.4144 88.3813C56.6562 87.7337 55.5749 86.3716 55.5749 86.3716L55.0698 88.0384C55.2483 89.8579 55.0542 92.2247 53.3503 93.8872C52.9722 94.2563 52.4354 94.4173 51.9155 94.3282L50.9167 94.1567C50.9167 94.1567 47.0815 93.9142 45.4097 96.3966C45.4097 96.3966 46.7913 96.0106 47.1776 97.3919C47.1776 97.3919 48.8972 96.6485 49.6405 98.3685C49.6405 98.3685 51.3698 97.9728 52.1132 99.6923C52.1132 99.6923 53.13 100.479 54.9296 97.6017C55.1171 97.3021 55.4112 97.0782 55.7538 96.9915C56.4858 96.8063 57.7901 96.6192 58.9401 97.197C59.4515 97.4544 60.0659 97.3739 60.4589 96.9583L60.5651 96.8462C61.1022 96.2782 61.0272 95.3661 60.3983 94.9017Z" fill="#F9BD55"/>
<path d="M43.9642 97.3129C44.6872 96.6622 45.4099 96.3965 45.4099 96.3965C47.0821 93.9141 50.9169 94.1567 50.9169 94.1567L51.9153 94.3282C52.1946 94.3758 52.4778 94.3497 52.7392 94.2602C52.9786 93.7196 52.8376 93.0602 52.3329 92.6875C51.6228 92.1637 50.5454 91.72 49.1204 92.118C49.1204 92.118 51.9138 89.4305 51.436 85.1293L50.6583 84.7668L50.3489 86.1676C48.5907 85.52 47.5091 84.1575 47.5091 84.1575L47.004 85.8243C47.1825 87.6438 46.9884 90.011 45.2845 91.6735C44.9063 92.0426 44.37 92.2032 43.8497 92.1145L42.8509 91.943C42.8509 91.943 39.0157 91.7004 37.3442 94.1829C37.3442 94.1829 38.7255 93.7969 39.1118 95.1782C39.1118 95.1782 40.8313 94.4348 41.5747 96.1547C41.5747 96.1547 43.1837 95.7915 43.9642 97.3129Z" fill="#F9BD55"/>
<path d="M34.8351 24.259C34.3718 24.259 33.9952 23.884 33.9937 23.4203C33.9917 22.7848 34.2374 22.1864 34.6855 21.7352C35.1335 21.284 35.7304 21.0348 36.3663 21.0328H36.3749C37.0073 21.0328 37.6023 21.2785 38.0515 21.7242C38.5023 22.1727 38.7519 22.7692 38.7538 23.4051C38.7554 23.8699 38.3796 24.2477 37.9151 24.2492H37.9128C37.4491 24.2492 37.073 23.8739 37.0714 23.4106C37.071 23.2242 36.9976 23.0492 36.8655 22.918C36.7339 22.7875 36.5597 22.7153 36.3741 22.7153H36.3718C36.1851 22.716 36.0105 22.7891 35.8788 22.9211C35.7476 23.0531 35.6757 23.2285 35.6765 23.4149C35.6776 23.8793 35.3023 24.2571 34.8378 24.259H34.8351Z" fill="black"/>
<path d="M27.7595 25.5516C27.2946 25.5516 26.9165 25.175 26.9165 24.7105C26.9165 24.2457 27.2911 23.8691 27.756 23.8691H27.7595C28.2239 23.8691 28.6005 24.2457 28.6005 24.7105C28.6005 25.175 28.2239 25.5516 27.7595 25.5516Z" fill="black"/>
<path d="M82.7279 78.2906C82.701 78.2906 82.6736 78.2894 82.6463 78.2867C66.1201 76.6996 52.5596 63.6054 51.9904 63.0488C51.6584 62.7242 51.6522 62.1918 51.9768 61.8597C52.3018 61.5277 52.8342 61.5218 53.1666 61.8457C53.3018 61.9781 66.8822 75.0832 82.8072 76.6121C83.2697 76.6566 83.6088 77.0671 83.5643 77.5296C83.5221 77.9648 83.1561 78.2906 82.7279 78.2906Z" fill="black"/>
<path d="M81.3738 74.1203C81.2867 74.1203 81.1981 74.1067 81.1106 74.0774C68.6305 69.9633 59.4418 61.07 59.0566 60.6934C58.7246 60.3688 58.7188 59.8364 59.0434 59.5039C59.368 59.1723 59.9008 59.166 60.2328 59.4903C60.3246 59.5801 69.5391 68.4914 81.6371 72.4797C82.0781 72.625 82.3184 73.1008 82.1727 73.5418C82.0559 73.8957 81.7273 74.1203 81.3738 74.1203Z" fill="black"/>
<path d="M78.5494 67.993C78.4103 67.993 78.2693 67.9586 78.1392 67.8863C70.5896 63.6641 65.6568 58.8762 65.4501 58.6746C65.1181 58.3496 65.1123 57.8172 65.4373 57.4848C65.7619 57.1531 66.2947 57.1469 66.6267 57.4711C66.6755 57.5191 71.6162 62.3106 78.9607 66.4176C79.3662 66.6445 79.5107 67.1574 79.2845 67.5629C79.1302 67.8379 78.8439 67.993 78.5494 67.993Z" fill="black"/>
</svg>
