<svg width="128" height="128" viewBox="0 0 128 128" fill="none" xmlns="http://www.w3.org/2000/svg">
<path d="M124.774 81.003L75.5699 68.9056L119.502 94.3062L74.2063 71.4679L111.381 106.134L72.3034 73.6597L100.875 115.811L69.926 75.4001L88.5288 122.88L67.2277 76.5678L74.9037 127.023L64.3846 77.0933L60.6658 128L61.5036 76.9608L46.6285 125.757L58.6337 76.1636L33.4311 120.441L56.0914 74.7915L21.6933 112.258L53.9145 72.8737L12.0944 101.67L52.1877 70.4776L5.07795 89.2243L51.0313 67.7559L0.967016 75.4944L50.5099 64.8904L0 61.1424L50.6414 61.9868L2.22592 46.997L51.4301 59.0944L7.49772 33.696L52.7937 56.5321L15.6193 21.8659L54.6966 54.3403L26.125 12.1917L57.0718 52.5999L38.4712 5.12009L59.7723 51.4344L52.0963 0.976859L62.6154 50.909L66.3342 0L65.4964 51.0392L80.3715 2.24341L68.3663 51.8364L93.5689 7.55887L70.9086 53.2108L105.307 15.7443L73.0855 55.1263L114.906 26.3325L74.8123 57.5224L121.922 38.7757L75.9687 60.2441L126.033 52.5079L76.4901 63.1096L127 66.8576L76.3586 66.0132" fill="#FFC400"/>
<path d="M95 64.5011C95 81.8975 80.897 96 63.5 96C46.103 96 32 81.8975 32 64.5011C32 47.1025 46.103 33 63.5 33C80.897 33 95 47.1025 95 64.5011Z" fill="#FFC400"/>
<path d="M95 64.5011C95 81.8975 80.897 96 63.5 96C46.103 96 32 81.8975 32 64.5011C32 47.1025 46.103 33 63.5 33C80.897 33 95 47.1025 95 64.5011Z" stroke="#FBF5F2" stroke-width="13.8853" stroke-miterlimit="10"/>
</svg>
