<svg width="128" height="128" viewBox="0 0 128 128" fill="none" xmlns="http://www.w3.org/2000/svg">
<path d="M75.257 77.1051C76.5855 76.8152 99.816 74.6883 110.162 73.75C112.327 68.1699 113.515 62.1031 113.515 55.7582C113.515 46.7211 111.106 38.2473 106.895 30.943C97.9734 30.5371 90.2969 30.132 91.0402 29.9691C91.7133 29.8223 98.0055 29.2043 105.396 28.5082C96.507 14.9531 81.1781 6 63.7574 6C36.2773 6 14 28.277 14 55.7582C14 59.6371 14.4441 63.4121 15.284 67.0359C27.5949 67.5531 43.2434 68.2621 42.1961 68.491C41.1832 68.7133 27.4418 70.0012 16.384 71.0172C22.8262 91.0332 41.6004 105.515 63.7574 105.515C82.9246 105.515 99.5598 94.6781 107.871 78.7961C95.443 78.2902 74.0379 77.3723 75.257 77.1051Z" fill="#FF4545"/>
<path d="M100.388 112.523C100.388 118.116 84.7192 122.651 65.3903 122.651C46.0614 122.651 30.3922 118.116 30.3922 112.523C30.3922 106.929 46.0614 102.395 65.3903 102.395C84.7192 102.395 100.388 106.929 100.388 112.523Z" fill="#E0D6C1"/>
<path d="M79.4125 68.7281C79.4871 68.7821 79.5676 68.8461 79.6586 68.9153C78.4922 70.8199 74.8699 76.309 67.952 83.2653C63.0192 88.225 56.8449 92.1141 52.4684 94.5383C60.5473 85.7742 70.2262 73.784 72.1199 71.425C72.7512 71.2852 73.3719 71.0981 73.9981 70.9481C75.8703 70.4192 77.6895 69.6699 79.4125 68.7281Z" fill="#F67D21"/>
<path d="M68.9204 71.9543C68.9259 71.9492 68.9368 71.9492 68.9474 71.9492C65.0364 76.7699 55.636 88.2032 48.5095 95.6293L48.595 92.034C48.6001 92.0071 48.595 91.9801 48.595 91.9543C48.5896 91.8731 48.1935 83.8641 48.0599 77.0051C47.9689 72.2813 49.8255 70.5102 50.6814 69.943C51.6177 70.3281 52.581 70.6699 53.5544 70.9481C54.3946 71.152 55.229 71.4141 56.0798 71.5531L57.3587 71.7723C57.7814 71.8422 58.2095 71.9223 58.6372 71.9543C59.4935 72.0242 60.3493 72.1422 61.2056 72.1742L63.779 72.211L66.347 72.1742C67.2032 72.1422 68.0591 72.0242 68.9204 71.9543Z" fill="#FEDBC8"/>
<path d="M50.3984 70.2871C50.3984 70.2871 53.6145 76.2641 68.6641 74.582C83.7137 72.9012 79.9688 67.627 79.9688 67.627C79.9688 67.627 75.8414 72.282 66.975 71.2543C58.109 70.2262 50.3984 70.2871 50.3984 70.2871Z" fill="#D8B09E"/>
<path d="M73.9844 70.793C73.3117 70.973 72.6508 71.1832 71.9785 71.3512C71.55 71.9301 70.7445 73.016 69.6641 74.4582C73.3387 73.9402 75.8648 73.191 77.5848 72.3562C78.7625 70.5859 79.5602 69.2371 80.0078 68.4383C79.9109 68.3582 79.8254 68.2832 79.7457 68.2223C77.9164 69.3121 75.9789 70.1793 73.9844 70.793Z" fill="#D6671D"/>
<path d="M79.097 99.7223C76.8442 99.8449 74.6614 100.043 72.4786 100.172C70.3009 100.316 68.1341 100.407 65.9618 100.455C63.795 100.498 61.6282 100.487 59.4454 100.434C57.2571 100.391 55.0688 100.279 52.8161 100.241C54.8813 101.151 57.0645 101.718 59.2794 102.103C61.4997 102.478 63.752 102.638 66.0048 102.595C68.2571 102.553 70.5044 102.301 72.7087 101.841C74.9075 101.37 77.0692 100.712 79.097 99.7223ZM90.5786 107.234C90.9692 109.171 90.6321 110.749 89.5618 112.06C86.7208 115.522 78.6579 117.282 65.6032 117.282C52.5485 117.282 44.486 115.522 41.645 112.06C40.5747 110.749 40.2376 109.171 40.6282 107.234C41.661 102.05 46.3263 100.006 47.7282 99.5032C47.9528 99.4231 48.1294 99.2782 48.2524 99.091C50.6228 98.016 61.4462 92.836 69.4661 84.7742C76.0845 78.1231 79.7177 72.8531 81.1888 70.5153C81.7505 71.2692 82.2911 72.243 82.6653 73.4582C81.8575 75.4961 80.7556 77.4602 79.5302 79.359C78.2356 81.3711 76.7372 83.2699 75.2017 85.1371C73.6556 86.9992 72.0075 88.7813 70.3118 90.5199C68.6157 92.2532 66.8661 93.9492 65.0415 95.5602C66.9786 94.0883 68.8513 92.5211 70.681 90.9102C72.5052 89.2891 74.2978 87.6199 75.9938 85.8543C77.6896 84.0782 79.3536 82.2641 80.8411 80.2852C81.6544 79.209 82.4247 78.0961 83.1415 76.9352C83.1415 76.9621 83.1415 76.984 83.1415 77.0051C83.0134 83.8641 82.6118 91.8731 82.6118 91.9543C82.6067 91.9801 82.6067 92.0071 82.6067 92.034L82.6868 95.1262C82.7403 97.4063 83.9013 99.4602 85.7954 100.621C87.5931 101.729 89.8884 103.778 90.5786 107.234Z" fill="#F67D21"/>
<path d="M56.1493 50.9762C56.8825 50.6012 57.4817 50.002 57.8938 49.3063C57.0806 49.4672 56.4114 49.6922 55.7106 49.793C55.0313 49.916 54.3677 50.002 53.6938 50.034C53.0196 50.0723 52.3349 50.082 51.6231 50.066L49.3653 50.007C49.911 50.6281 50.6333 51.0242 51.3876 51.2973C52.1474 51.5641 52.9661 51.682 53.7849 51.634C54.6087 51.602 55.427 51.3723 56.1493 50.9762ZM58.3161 41.2699C58.4716 40.8531 58.2575 40.393 57.8403 40.2383C55.9141 39.5262 53.7099 39.6652 51.8427 40.4949C50.9114 40.9121 50.0501 41.4793 49.3708 42.2172C48.6911 42.95 48.1563 43.8121 47.9153 44.759C48.6591 44.1332 49.3708 43.582 50.1251 43.127C50.8739 42.6781 51.6391 42.2922 52.4415 42.041C54.047 41.527 55.7481 41.484 57.4013 41.784H57.4177C57.7974 41.8543 58.177 41.6449 58.3161 41.2699ZM67.1602 62.832C68.1126 62.1371 68.8349 61.157 69.0599 60.0391C68.1126 60.6332 67.2407 61.0723 66.363 61.3551C65.4962 61.6551 64.6458 61.7672 63.779 61.7781C62.9122 61.7621 62.0563 61.6551 61.1946 61.3551C60.3173 61.0723 59.4454 60.6332 58.4931 60.0391C58.7177 61.157 59.4399 62.1371 60.3923 62.832C61.3446 63.5442 62.5751 63.9133 63.779 63.918C64.9774 63.9133 66.2134 63.5442 67.1602 62.832ZM78.1872 50.007L75.9349 50.066C75.2231 50.082 74.5384 50.0723 73.8642 50.034C73.1849 50.002 72.5212 49.916 71.8419 49.793C71.1462 49.6922 70.4774 49.4672 69.6642 49.3063C70.0708 50.002 70.6755 50.6012 71.4083 50.9762C72.1309 51.3723 72.9493 51.602 73.7681 51.634C74.5919 51.682 75.4106 51.5641 76.17 51.2973C76.9247 51.0242 77.6415 50.6281 78.1872 50.007ZM79.6427 44.759C79.4017 43.8121 78.8614 42.95 78.1821 42.2172C77.5024 41.4793 76.6462 40.9121 75.7102 40.4949C73.8431 39.6652 71.6438 39.5262 69.7177 40.2383C69.354 40.3723 69.1345 40.7461 69.204 41.1371C69.2845 41.575 69.7017 41.8641 70.1403 41.784H70.1513C71.8099 41.484 73.511 41.527 75.1161 42.041C75.9188 42.2922 76.6786 42.6781 77.4329 43.127C78.1872 43.582 78.8989 44.1332 79.6427 44.759ZM94.0884 42.6992C94.6286 45.877 92.8364 47.8992 91.7181 48.825C90.4126 49.9 89.0485 50.3391 88.2673 50.3871C88.0802 49.2692 87.8071 48.1621 87.3845 47.0652C87.0153 48.7711 86.9188 50.4352 86.8868 52.0942C86.8763 53.7531 86.8923 55.4109 86.7583 57.011C86.7157 57.402 86.6837 57.8031 86.6087 58.161C86.5817 58.3543 86.5337 58.5043 86.4907 58.6531C86.4696 58.793 86.3681 58.9692 86.2981 59.1352C86.1751 59.461 85.9505 59.793 85.7794 60.1192C85.5599 60.4402 85.3673 60.7723 85.1267 61.077C84.1958 62.3242 83.0774 63.4582 81.8255 64.432C81.5259 64.6832 81.1888 64.8973 80.8731 65.1332L80.3915 65.4801L79.8833 65.7961C79.5407 65.9992 79.2091 66.2133 78.8669 66.411L77.802 66.957C77.4544 67.15 77.0903 67.3051 76.7212 67.4551L75.6192 67.9262C74.8649 68.182 74.1102 68.461 73.3454 68.6852L72.179 68.9852C71.7884 69.0922 71.4032 69.2043 71.0071 69.268L69.8196 69.493C69.4235 69.568 69.0274 69.6543 68.6263 69.686C67.8184 69.766 67.0212 69.8942 66.2134 69.9371L63.779 70.0711L61.3446 69.9371C60.5368 69.8942 59.7341 69.766 58.9317 69.686C58.5251 69.6543 58.129 69.568 57.7384 69.493L56.5509 69.268C56.1493 69.2043 55.7641 69.0922 55.379 68.9852L54.2126 68.6852C53.4423 68.461 52.6931 68.182 51.9388 67.9262L50.8368 67.4551C50.4677 67.3051 50.0981 67.15 49.7505 66.957L48.6911 66.411C48.3434 66.2133 48.0118 65.9992 47.6747 65.7961L47.1665 65.4801L46.6849 65.1332C46.3692 64.8973 46.0321 64.6832 45.727 64.432C44.4751 63.4582 43.3622 62.3242 42.4259 61.077C42.1852 60.7723 41.9981 60.4402 41.7786 60.1192C41.6075 59.793 41.3774 59.461 41.2544 59.1352C41.1899 58.9692 41.0884 58.793 41.0618 58.6531C41.0188 58.5043 40.9708 58.3543 40.9493 58.161C40.8743 57.8031 40.8423 57.402 40.7942 57.011C40.6657 55.4109 40.6817 53.7531 40.6712 52.0942C40.6391 50.4352 40.5427 48.7711 40.1735 47.0652C39.7509 48.1621 39.4778 49.2692 39.2852 50.3871C38.504 50.3391 37.1454 49.9 35.8399 48.825C34.7216 47.8992 32.9294 45.877 33.4696 42.6992C34.2079 38.3652 37.236 38.1242 38.3489 38.1891C38.4934 38.8949 38.713 39.5961 39.1036 40.243C39.4298 38.8359 39.5743 37.5199 39.7028 36.209C39.7294 35.941 39.7563 35.6742 39.7829 35.4063C39.9489 33.8332 40.2806 32.282 40.7993 30.8109C41.3184 29.334 42.0141 27.9383 42.8809 26.6641C43.7474 25.391 44.7962 24.2512 45.9837 23.2723C47.177 22.3043 48.504 21.5012 49.9005 20.832C50.6173 20.5223 51.3235 20.1961 52.0673 19.9602C52.8001 19.677 53.5653 19.484 54.3196 19.275C57.3642 18.4621 60.5688 18.2 63.779 18.109C66.9837 18.2 70.1888 18.4621 73.2329 19.275C73.9927 19.484 74.7579 19.677 75.4852 19.9602C76.2345 20.1961 76.9352 20.5223 77.6524 20.832C79.054 21.5012 80.3809 22.3043 81.5739 23.2723C82.7563 24.2512 83.8102 25.391 84.677 26.6641C85.5438 27.9383 86.2341 29.334 86.7532 30.8109C87.2774 32.282 87.6036 33.8332 87.7696 35.4063C87.7962 35.6742 87.8231 35.941 87.8497 36.209C87.9837 37.5199 88.1282 38.8359 88.4544 40.243C88.845 39.6012 89.0591 38.9 89.2087 38.1942C89.7974 38.1731 91.0118 38.2371 92.0712 38.9859C93.1145 39.7242 93.7942 40.9711 94.0884 42.6992Z" fill="#FEDBC8"/>
<path d="M78.1821 42.2172C78.8614 42.95 79.4016 43.8121 79.6426 44.759C78.8989 44.1332 78.1872 43.582 77.4329 43.127C76.6786 42.6781 75.9188 42.2922 75.1161 42.041C73.511 41.527 71.8098 41.484 70.1512 41.784H70.1403C69.7016 41.8641 69.2844 41.575 69.204 41.1371C69.1344 40.7461 69.354 40.3723 69.7176 40.2383C71.6438 39.5262 73.843 39.6652 75.7102 40.4949C76.6462 40.9121 77.5024 41.4793 78.1821 42.2172Z" fill="black"/>
<path d="M72.4785 100.172C74.6614 100.043 76.8442 99.8449 79.0969 99.7223C77.0692 100.712 74.9074 101.37 72.7086 101.841C70.5043 102.301 68.2571 102.553 66.0047 102.595C63.752 102.638 61.4996 102.478 59.2793 102.103C57.0645 101.718 54.8813 101.151 52.816 100.241C55.0688 100.279 57.2571 100.391 59.4453 100.434C61.6282 100.487 63.7949 100.498 65.9617 100.455C68.134 100.407 70.3008 100.316 72.4785 100.172Z" fill="black"/>
<path d="M76.1699 51.2973C75.4105 51.5641 74.5918 51.6821 73.768 51.634C72.9492 51.602 72.1309 51.3723 71.4082 50.9762C70.6754 50.6012 70.0707 50.002 69.6641 49.3063C70.4773 49.4672 71.1461 49.6922 71.8418 49.793C72.5211 49.916 73.1848 50.002 73.8641 50.034C74.5383 50.0723 75.223 50.0821 75.9348 50.066L78.1871 50.0071C77.6414 50.6281 76.9246 51.0242 76.1699 51.2973Z" fill="black"/>
<path d="M69.0598 60.0391C68.8348 61.157 68.1126 62.1371 67.1602 62.832C66.2134 63.5441 64.9774 63.9133 63.779 63.918C62.5751 63.9133 61.3446 63.5441 60.3923 62.832C59.4399 62.1371 58.7177 61.157 58.493 60.0391C59.4454 60.6332 60.3173 61.0723 61.1946 61.3551C62.0563 61.6551 62.9122 61.7621 63.779 61.7781C64.6458 61.7672 65.4962 61.6551 66.363 61.3551C67.2407 61.0723 68.1126 60.6332 69.0598 60.0391Z" fill="black"/>
<path d="M57.8403 40.2383C58.2575 40.393 58.4715 40.8531 58.3161 41.2699C58.177 41.6449 57.7973 41.8543 57.4176 41.784H57.4012C55.7481 41.484 54.0469 41.527 52.4415 42.041C51.6391 42.2922 50.8739 42.6781 50.125 43.127C49.3708 43.582 48.659 44.1332 47.9153 44.759C48.1563 43.8121 48.6911 42.95 49.3708 42.2172C50.05 41.4793 50.9114 40.9121 51.8426 40.4949C53.7098 39.6652 55.9141 39.5262 57.8403 40.2383Z" fill="black"/>
<path d="M53.7848 51.634C52.966 51.6821 52.1473 51.5641 51.3875 51.2973C50.6332 51.0242 49.9109 50.6281 49.3652 50.0071L51.623 50.066C52.3348 50.0821 53.0195 50.0723 53.6938 50.034C54.3676 50.002 55.0313 49.916 55.7105 49.793C56.4113 49.6922 57.0805 49.4672 57.8938 49.3063C57.4816 50.002 56.8824 50.6012 56.1492 50.9762C55.427 51.3723 54.6086 51.602 53.7848 51.634Z" fill="black"/>
<path d="M81.4606 22.2281C75.5298 16.827 63.8446 17.6422 63.8446 17.6422C63.8446 17.6422 52.1594 16.827 46.2282 22.2281C40.2973 27.6293 38.9887 34.2371 39.1692 40.6723C39.1692 40.6723 41.8716 38.9672 42.3305 34.4949C42.7887 30.0242 51.0438 25.8973 55.5149 28.7633C55.5598 28.7922 55.6044 28.8199 55.6489 28.8481C60.6454 32.0043 67.0438 32.0043 72.0403 28.8481C72.0848 28.8199 72.1294 28.7922 72.1743 28.7633C76.6454 25.8973 84.9001 30.0242 85.3587 34.4949C85.8176 38.9672 88.52 40.6723 88.52 40.6723C88.7005 34.2371 87.3915 27.6293 81.4606 22.2281Z" fill="#BABBB7"/>
<path d="M86.6012 58.4031C86.3738 58.7242 86.1746 59.0551 85.9258 59.366C84.9629 60.607 83.8117 61.7473 82.5168 62.7152C82.2012 62.9672 81.8527 63.1813 81.5262 63.416L81.0281 63.7692L80.5023 64.0793C80.1535 64.2832 79.8105 64.502 79.4508 64.6949L78.3551 65.2402C77.9898 65.4332 77.6137 65.5883 77.2316 65.7383L76.0914 66.209C75.3113 66.4711 74.5363 66.7492 73.7395 66.9742L72.5332 67.2742C72.1348 67.375 71.7363 67.493 71.3211 67.552L70.0926 67.7762C69.6828 67.857 69.2789 67.9371 68.8586 67.9692C68.0281 68.0492 67.198 68.1781 66.3625 68.2262L63.8445 68.3543L61.3266 68.2262C60.4906 68.1781 59.6605 68.0492 58.8305 67.9692C58.4102 67.9371 58.0059 67.857 57.5965 67.7762L56.368 67.552C55.9527 67.493 55.5543 67.375 55.1559 67.2742L53.9496 66.9742C53.1523 66.7492 52.3777 66.4711 51.5977 66.209L50.4574 65.7383C50.0754 65.5883 49.6992 65.4332 49.3395 65.2402L48.2383 64.6949C47.8785 64.502 47.5355 64.2832 47.1867 64.0793L46.6609 63.7692L46.1629 63.416C45.8363 63.1813 45.4875 62.9672 45.1723 62.7152C43.8828 61.7473 42.7262 60.607 41.7633 59.366C41.5141 59.0551 41.3148 58.7242 41.0879 58.4031C41.0445 58.3223 40.9973 58.2422 40.9492 58.1609C40.9684 58.3063 40.9867 58.4512 41.0148 58.5852C41.0414 58.7832 41.0844 58.932 41.1324 59.077C41.1539 59.2211 41.2555 59.3981 41.3199 59.5582C41.448 59.8902 41.673 60.2172 41.8441 60.543C42.0637 60.8641 42.2563 61.1961 42.4969 61.5063C43.4277 62.7473 44.5461 63.8871 45.7926 64.8551C46.0977 65.107 46.4348 65.3211 46.7504 65.5563L47.232 65.909L47.7402 66.2199C48.0773 66.4231 48.409 66.6422 48.7566 66.8352L49.8215 67.3813C50.1691 67.5731 50.5328 67.7281 50.9023 67.8781L52.0043 68.3492C52.7586 68.611 53.5078 68.8891 54.2781 69.1141L55.4445 69.4141C55.8297 69.5152 56.2148 69.6332 56.6164 69.6922L57.8039 69.9172C58.2 69.9973 58.5906 70.077 58.9973 70.109C59.7996 70.1891 60.6023 70.318 61.4102 70.366L63.8445 70.4942L66.2789 70.366C67.0867 70.318 67.8895 70.1891 68.6918 70.109C69.0984 70.077 69.4891 69.9973 69.8852 69.9172L71.0727 69.6922C71.4738 69.6332 71.8594 69.5152 72.2445 69.4141L73.4109 69.1141C74.1813 68.8891 74.9305 68.611 75.6848 68.3492L76.7867 67.8781C77.1559 67.7281 77.5199 67.5731 77.873 67.3813L78.9324 66.8352C79.2801 66.6422 79.6117 66.4231 79.9488 66.2199L80.457 65.909L80.9387 65.5563C81.2543 65.3211 81.5914 65.107 81.8965 64.8551C83.1484 63.8871 84.2613 62.7473 85.1922 61.5063C85.4328 61.1961 85.6254 60.8641 85.8449 60.543C86.016 60.2172 86.2406 59.8902 86.3691 59.5582C86.4332 59.3981 86.5352 59.2211 86.5617 59.077C86.6047 58.932 86.6473 58.7832 86.6742 58.5852C86.7023 58.4512 86.7207 58.3063 86.7398 58.1609C86.6918 58.2422 86.6445 58.3223 86.6012 58.4031Z" fill="#D8B09E"/>
<path d="M40.4712 106.886C40.4712 106.886 39.8899 114.453 66.0637 114.453C92.2372 114.453 91.32 106.886 91.32 106.886C91.32 106.886 93.1544 111.396 87.0395 114.453C80.9251 117.51 65.9442 119.346 54.8614 117.282C43.779 115.217 39.4563 114.759 40.4712 106.886Z" fill="#D6671D"/>
<path d="M68.9473 71.9492C68.9367 71.9492 68.9258 71.9492 68.9203 71.9543C68.059 72.0242 67.2032 72.1422 66.3469 72.1742L63.7789 72.2109L61.2055 72.1742C60.3492 72.1422 59.4934 72.0242 58.6371 71.9543C58.2094 71.9223 57.7813 71.8422 57.3586 71.7723L56.0797 71.5531C55.2289 71.4141 54.3946 71.152 53.5543 70.948C52.5809 70.6699 51.6176 70.3281 50.6813 69.943C49.8254 70.5102 47.9688 72.2812 48.0598 77.0051C48.1934 83.8641 48.5895 91.873 48.595 91.9543C48.595 91.9801 48.6 92.007 48.595 92.034L48.5094 95.6293C55.636 88.2031 65.0364 76.7699 68.9473 71.9492ZM79.6586 68.9152C79.5676 68.8461 79.4871 68.782 79.4125 68.7281C77.6895 69.6699 75.8703 70.4191 73.9981 70.948C73.3719 71.098 72.7512 71.2852 72.12 71.425C70.2262 73.784 60.5473 85.7742 52.4684 94.5383C56.845 92.1141 63.0192 88.225 67.952 83.2652C74.87 76.309 78.4922 70.8199 79.6586 68.9152ZM96.1961 42.3402C96.7258 45.4383 95.5864 48.4019 93.0825 50.473C91.6485 51.6551 89.9364 52.3883 88.5239 52.5062C88.6418 54.0312 88.6418 55.5723 88.6254 57.1293C88.5989 57.573 88.5828 58.0012 88.5078 58.4723C88.4918 58.691 88.4328 58.9422 88.3688 59.2051C88.3153 59.4723 88.2137 59.6652 88.1332 59.8949C87.9731 60.35 87.743 60.7293 87.545 61.1473C87.3039 61.527 87.0848 61.9223 86.8227 62.2812C85.8008 63.7422 84.5914 65.0422 83.2379 66.1652C82.6332 66.6582 82.002 67.1121 81.3547 67.5461C82.9864 68.9801 85.3832 71.9543 85.2817 77.048C85.1532 83.6871 84.7789 91.3973 84.7465 92.023L84.8215 95.0781C84.859 96.6242 85.6403 98.0211 86.9137 98.802C89.0805 100.129 91.836 102.601 92.6758 106.817C93.1895 109.385 92.7024 111.605 91.2153 113.414C87.9032 117.458 79.5246 119.422 65.6032 119.422C51.6821 119.422 43.3035 117.458 39.9914 113.414C38.5039 111.605 38.0117 109.385 38.5254 106.817C39.6438 101.231 44.1539 98.6793 46.3157 97.759L46.4547 92.023C46.4278 91.3973 46.0481 83.6871 45.925 77.048C45.8395 72.618 47.284 70.2102 48.5465 68.9473C47.0539 68.1609 45.6309 67.2352 44.32 66.1652C42.9664 65.0422 41.7571 63.7422 40.7301 62.2812C40.4731 61.9223 40.2535 61.527 40.0129 61.1473C39.8149 60.7293 39.5797 60.35 39.4242 59.8949C39.3387 59.6652 39.2426 59.4723 39.1891 59.2051C39.1196 58.9422 39.066 58.691 39.0446 58.4723C38.975 58.0012 38.959 57.573 38.9321 57.1293C38.911 55.5723 38.916 54.0312 39.0336 52.5062C37.616 52.3883 35.9094 51.6551 34.4754 50.473C31.966 48.4019 30.8317 45.4383 31.3563 42.3402C31.752 40.034 32.7258 38.3172 34.2508 37.2359C35.6524 36.241 37.1879 36.0543 38.1457 36.0543L39.7028 36.209C39.5742 37.5199 39.4297 38.8359 39.1035 40.243C38.7129 39.5961 38.4934 38.8949 38.3489 38.1891C37.236 38.1242 34.2078 38.3652 33.4696 42.6992C32.9293 45.8769 34.7215 47.8992 35.8399 48.825C37.1453 49.9 38.5039 50.3391 39.2852 50.3871C39.4778 49.2691 39.7508 48.1621 40.1735 47.0652C40.5426 48.7711 40.6391 50.4352 40.6711 52.0941C40.6817 53.7531 40.6657 55.4109 40.7942 57.0109C40.8422 57.402 40.8742 57.8031 40.9492 58.1609C40.9707 58.3543 41.0188 58.5043 41.0617 58.6531C41.0883 58.793 41.1899 58.9691 41.2543 59.1352C41.3774 59.4609 41.6075 59.793 41.7785 60.1191C41.9981 60.4402 42.1852 60.7723 42.4258 61.077C43.3621 62.3242 44.475 63.4582 45.727 64.432C46.0321 64.6832 46.3692 64.8973 46.6848 65.1332L47.1664 65.4801L47.6746 65.7961C48.0117 65.9992 48.3434 66.2133 48.691 66.4109L49.7504 66.957C50.0981 67.15 50.4676 67.3051 50.8367 67.4551L51.9387 67.9262C52.693 68.182 53.4422 68.4609 54.2125 68.6852L55.3789 68.9852C55.7641 69.0922 56.1492 69.2043 56.5508 69.268L57.7383 69.493C58.1289 69.568 58.525 69.6543 58.9317 69.6859C59.734 69.766 60.5367 69.8941 61.3446 69.9371L63.7789 70.0711L66.2133 69.9371C67.0211 69.8941 67.8184 69.766 68.6262 69.6859C69.0274 69.6543 69.4235 69.568 69.8196 69.493L71.0071 69.268C71.4032 69.2043 71.7883 69.0922 72.1789 68.9852L73.3453 68.6852C74.1102 68.4609 74.8649 68.182 75.6192 67.9262L76.7211 67.4551C77.0903 67.3051 77.4543 67.15 77.802 66.957L78.8668 66.4109C79.209 66.2133 79.5407 65.9992 79.8832 65.7961L80.3914 65.4801L80.8731 65.1332C81.1887 64.8973 81.5258 64.6832 81.8254 64.432C83.0774 63.4582 84.1957 62.3242 85.1266 61.077C85.3672 60.7723 85.5598 60.4402 85.7793 60.1191C85.9504 59.793 86.175 59.4609 86.2981 59.1352C86.368 58.9691 86.4696 58.793 86.4907 58.6531C86.5336 58.5043 86.5817 58.3543 86.6086 58.1609C86.6836 57.8031 86.7157 57.402 86.7582 57.0109C86.8922 55.4109 86.8762 53.7531 86.8868 52.0941C86.9188 50.4352 87.0153 48.7711 87.3844 47.0652C87.8071 48.1621 88.0801 49.2691 88.2672 50.3871C89.0485 50.3391 90.4125 49.9 91.718 48.825C92.8364 47.8992 94.6285 45.8769 94.0883 42.6992C93.7942 40.9711 93.1145 39.7242 92.0711 38.9859C91.0118 38.2371 89.7973 38.173 89.2086 38.1941C89.059 38.9 88.845 39.6012 88.4543 40.243C88.1282 38.8359 87.9836 37.5199 87.8496 36.209L89.4121 36.0543C90.3645 36.0543 91.9 36.241 93.3071 37.2359C94.8321 38.3172 95.8059 40.034 96.1961 42.3402ZM75.2016 85.1371C76.7371 83.2699 78.2356 81.3711 79.5301 79.359C80.7555 77.4602 81.8575 75.4961 82.6653 73.4582C82.291 72.243 81.7504 71.2691 81.1887 70.5152C79.7176 72.8531 76.0844 78.123 69.466 84.7742C61.4461 92.8359 50.6227 98.016 48.2524 99.091C48.1293 99.2781 47.9528 99.4231 47.7282 99.5031C46.3262 100.006 41.661 102.05 40.6282 107.234C40.2375 109.171 40.5746 110.749 41.645 112.06C44.486 115.522 52.5485 117.282 65.6032 117.282C78.6578 117.282 86.7207 115.522 89.5618 112.06C90.6321 110.749 90.9692 109.171 90.5785 107.234C89.8883 103.778 87.593 101.729 85.7953 100.621C83.9012 99.4602 82.7403 97.4063 82.6868 95.1262L82.6067 92.034C82.6067 92.007 82.6067 91.9801 82.6118 91.9543C82.6118 91.873 83.0133 83.8641 83.1414 77.0051C83.1414 76.984 83.1414 76.9621 83.1414 76.9352C82.4246 78.0961 81.6543 79.209 80.841 80.2852C79.3535 82.2641 77.6895 84.0781 75.9938 85.8543C74.2977 87.6199 72.5051 89.2891 70.6809 90.9102C68.8512 92.5211 66.9785 94.0883 65.0414 95.5602C66.866 93.9492 68.6157 92.2531 70.3117 90.5199C72.0075 88.7813 73.6555 86.9992 75.2016 85.1371Z" fill="black"/>
<path d="M89.4122 36.0543L87.8497 36.209C87.8231 35.941 87.7961 35.6742 87.7696 35.4063C87.6036 33.8332 87.2774 32.282 86.7532 30.8109C86.234 29.334 85.5438 27.9383 84.677 26.6641C83.8102 25.391 82.7563 24.2512 81.5739 23.2723C80.3809 22.3043 79.054 21.5012 77.6524 20.832C76.9352 20.5223 76.2344 20.1961 75.4852 19.9602C74.7579 19.677 73.9926 19.484 73.2329 19.275C70.1887 18.4621 66.9836 18.2 63.779 18.109C60.5688 18.2 57.3641 18.4621 54.3196 19.275C53.5653 19.484 52.8001 19.677 52.0672 19.9602C51.3235 20.1961 50.6172 20.5223 49.9004 20.832C48.504 21.5012 47.177 22.3043 45.9836 23.2723C44.7961 24.2512 43.7473 25.391 42.8809 26.6641C42.0141 27.9383 41.3184 29.334 40.7993 30.8109C40.2805 32.282 39.9489 33.8332 39.7829 35.4063C39.7563 35.6742 39.7293 35.941 39.7028 36.209L38.1458 36.0543C38.1458 35.7922 38.1563 35.5352 38.1723 35.2731C38.2743 33.582 38.5469 31.891 39.0446 30.243C39.9915 26.9481 41.9282 23.882 44.5606 21.5922C45.893 20.4633 47.3696 19.5383 48.9157 18.7621C49.6969 18.4031 50.4782 18.0391 51.2969 17.777C52.0938 17.4621 52.9231 17.2531 53.7418 17.0231C54.5657 16.793 55.4059 16.6699 56.2352 16.493C57.0751 16.375 57.9098 16.2633 58.7497 16.1609C59.5895 16.1082 60.4243 16.0332 61.2645 15.9902L63.779 15.9691L66.2883 15.9902C67.1282 16.0332 67.9684 16.1082 68.8083 16.1609C69.643 16.2633 70.4829 16.375 71.3176 16.493C72.152 16.6699 72.9922 16.793 73.8106 17.0231C74.6348 17.2531 75.4586 17.4621 76.261 17.777C77.0743 18.0391 77.861 18.4031 78.6418 18.7621C80.1829 19.5383 81.6649 20.4633 82.9918 21.5922C85.6243 23.882 87.561 26.9481 88.5133 30.243C89.0055 31.891 89.2836 33.582 89.3801 35.2731C89.4016 35.5352 89.4067 35.7922 89.4122 36.0543Z" fill="black"/>
<path d="M55.32 78.0711C55.0907 77.918 49.8513 70.766 49.8513 70.766C49.8513 70.766 42.8087 76.4859 40.9493 85.791C38.8872 96.109 44.6962 98.7082 45.1548 99.0141C45.6134 99.3192 57.4603 102.224 57.4603 102.224L64.1099 102.602L63.4708 101.392L59.6767 98.0199L61.3583 94.5383L59.5239 93.2813L52.8161 95.2692L48.5943 91.5231L55.32 78.0711Z" fill="#FEDBC8"/>
<path d="M49.8512 70.766C49.275 71.2762 48.6633 71.907 48.1098 72.5262C47.5473 73.152 47.0157 73.8082 46.5047 74.4793C45.4836 75.8199 44.5723 77.2449 43.8032 78.7371C42.2512 81.7141 41.2825 84.9711 41.0399 88.2801C40.9821 89.1082 40.9586 89.9383 40.995 90.7672C41.0121 91.182 41.0246 91.5973 41.0743 92.0102L41.134 92.6301C41.1567 92.841 41.1782 92.9871 41.218 93.1641C41.4942 94.5242 42.4454 95.7102 43.7004 96.6402C44.959 97.5742 46.4731 98.2723 48.0426 98.832C49.6168 99.393 51.2649 99.8133 52.9344 100.154C56.2747 100.843 59.7164 101.22 63.1493 101.379L63.4707 101.392L63.5512 101.395C63.5625 101.395 63.5321 101.393 63.5247 101.394C63.5024 101.401 63.4668 101.398 63.4391 101.412C63.3067 101.447 63.2039 101.549 63.1661 101.646C63.1215 101.74 63.1161 101.884 63.1813 102.009C63.1938 102.039 63.2149 102.066 63.2309 102.086C63.2379 102.097 63.2469 102.107 63.2571 102.114C63.2719 102.126 63.2313 102.089 63.2207 102.078L63.0086 101.88C62.4286 101.358 61.7692 100.89 61.0707 100.471C60.72 100.261 60.3645 100.066 59.9911 99.8762C59.7618 99.759 59.5286 99.627 59.2864 99.4582C59.0454 99.282 58.7872 99.086 58.5321 98.7281C58.4082 98.5551 58.2852 98.3172 58.2207 98.0383C58.1536 97.759 58.1622 97.4383 58.2336 97.1731C58.3856 96.632 58.6625 96.3422 58.8875 96.109C59.3559 95.6641 59.7872 95.4223 60.2094 95.1832L60.3102 95.127C60.325 95.1211 60.3321 95.1102 60.3446 95.1051C60.3622 95.0891 60.3797 95.0762 60.3914 95.061C60.4161 95.032 60.4336 94.9981 60.4454 94.9512C60.4707 94.8582 60.4348 94.727 60.3852 94.6742C60.361 94.6449 60.3379 94.627 60.2973 94.6102C60.2762 94.5992 60.2559 94.5973 60.2141 94.5883L59.9274 94.55C59.5457 94.5063 59.1688 94.4902 58.8051 94.5102C58.0766 94.55 57.4086 94.734 56.8774 95.093C56.7395 95.1891 56.6321 95.2762 56.4868 95.4031C56.2672 95.5961 56.0336 95.7781 55.7778 95.9231C55.2704 96.2199 54.7008 96.4141 54.1157 96.4723C53.5321 96.5262 52.9332 96.4711 52.3817 96.2711C52.1055 96.1731 51.8407 96.0461 51.5946 95.891C51.468 95.8192 51.3547 95.7281 51.2391 95.641L50.9789 95.4223C50.3082 94.859 49.6625 94.2633 49.0184 93.6641L47.0864 91.868C46.4414 91.2699 45.7961 90.6731 45.2692 89.918C46.1414 90.2133 46.895 90.6652 47.6497 91.1172L49.9149 92.4692C50.67 92.9192 51.4235 93.3723 52.152 93.8582C52.2395 93.9152 52.3434 93.9871 52.4184 94.0301C52.4864 94.0621 52.5434 94.111 52.6125 94.1371C52.743 94.2043 52.8805 94.2551 53.0207 94.291C53.2989 94.368 53.5918 94.3883 53.8762 94.3481C54.1618 94.3152 54.4375 94.2172 54.6821 94.0699C54.8067 93.9992 54.9176 93.907 55.0258 93.8121C55.2067 93.6481 55.436 93.4563 55.6586 93.302C56.5766 92.668 57.661 92.384 58.6719 92.3211C59.1809 92.2883 59.6809 92.3051 60.1684 92.3563L60.5321 92.4012C60.7059 92.427 60.9012 92.4692 61.0829 92.541C61.4512 92.677 61.7997 92.916 62.0606 93.2172C62.5879 93.825 62.7856 94.6301 62.6348 95.393C62.5586 95.775 62.3895 96.1492 62.1403 96.461C62.0164 96.618 61.8731 96.7551 61.7211 96.877C61.6438 96.9332 61.5661 96.993 61.4852 97.0402L61.302 97.1473C60.9633 97.3352 60.6391 97.5512 60.477 97.716C60.3969 97.7902 60.3875 97.8551 60.4289 97.741C60.4454 97.6883 60.4493 97.5922 60.4329 97.525C60.4188 97.4582 60.3903 97.4223 60.3957 97.425C60.4016 97.4551 60.7063 97.6891 61.0192 97.8332C61.427 98.0352 61.8414 98.2563 62.2434 98.491C63.0493 98.9641 63.8297 99.502 64.5575 100.142L64.8274 100.389L64.9082 100.467L65.0434 100.618C65.1293 100.721 65.2071 100.844 65.2711 100.969C65.5336 101.487 65.5274 102.108 65.3036 102.601C65.0875 103.098 64.6301 103.517 64.0754 103.672C63.9403 103.705 63.7989 103.737 63.6664 103.74L63.4762 103.745L63.393 103.742L63.0586 103.732C59.5039 103.602 55.9653 103.253 52.445 102.566C50.6879 102.209 48.9387 101.759 47.2172 101.145C45.5008 100.526 43.7946 99.7551 42.2371 98.602C41.4661 98.018 40.7274 97.341 40.1223 96.5102C39.5161 95.686 39.045 94.7102 38.8329 93.6742C38.7762 93.425 38.7352 93.136 38.7125 92.9141L38.6469 92.2281C38.5942 91.7723 38.5793 91.3121 38.5614 90.8531C38.5231 89.9352 38.5496 89.0141 38.6157 88.0981C38.7442 86.2633 39.1016 84.4492 39.6418 82.6992C40.177 80.9481 40.8864 79.257 41.7485 77.6551C42.6036 76.0492 43.6043 74.5281 44.7196 73.1012C45.2766 72.3871 45.8692 71.7012 46.4883 71.0391C47.1184 70.3711 47.7356 69.752 48.4836 69.1199L49.8512 70.766Z" fill="black"/>
<path d="M90.4043 85.791C89.4992 81.2633 87.3672 77.5871 85.4164 75.002L84.8231 90.4141L82.186 92.8422L81.5856 92.9109C81.0426 93.275 80.4899 93.627 79.9848 94.0223C79.9528 94.0473 79.9188 94.0563 79.8856 94.073L78.5371 95.2691L71.8293 93.2813L69.9953 94.5383L71.6766 98.0199L67.8828 101.392L67.2438 102.602L73.8934 102.224C73.8934 102.224 85.7403 99.3191 86.1989 99.0141C86.6574 98.7082 92.4664 96.109 90.4043 85.791Z" fill="#FEDBC8"/>
<path d="M82.7555 69.1199C83.5036 69.752 84.1204 70.3711 84.7505 71.0391C85.37 71.7012 85.9626 72.3871 86.5196 73.1012C87.6344 74.5281 88.6356 76.0492 89.4903 77.6551C90.3524 79.257 91.0622 80.9481 91.5969 82.6992C92.1372 84.4492 92.4946 86.2633 92.6231 88.0981C92.6891 89.0141 92.7157 89.9352 92.6778 90.8531C92.6594 91.3121 92.6446 91.7723 92.5919 92.2281L92.5262 92.9141C92.5036 93.136 92.4626 93.425 92.4059 93.6742C92.1938 94.7102 91.7227 95.686 91.1165 96.5102C90.5114 97.341 89.7731 98.018 89.0016 98.602C87.4442 99.7551 85.738 100.526 84.0215 101.145C82.3001 101.759 80.5508 102.209 78.7938 102.566C75.2735 103.253 71.7348 103.602 68.1801 103.732L67.8462 103.742L67.7626 103.745L67.5727 103.74C67.4399 103.737 67.2985 103.705 67.1633 103.672C66.6087 103.517 66.1512 103.098 65.9352 102.601C65.7114 102.108 65.7051 101.487 65.9676 100.969C66.0321 100.844 66.1094 100.721 66.1954 100.618L66.3305 100.467L66.4118 100.389L66.6813 100.142C67.409 99.502 68.1899 98.9641 68.9954 98.491C69.3973 98.2563 69.8118 98.0352 70.22 97.8332C70.5325 97.6891 70.8376 97.4551 70.843 97.425C70.8485 97.4223 70.82 97.4582 70.8063 97.525C70.7895 97.5922 70.7934 97.6883 70.8098 97.741C70.8516 97.8551 70.8422 97.7902 70.7618 97.716C70.5997 97.5512 70.2754 97.3352 69.9372 97.1473L69.754 97.0402C69.6727 96.993 69.595 96.9332 69.5176 96.877C69.3657 96.7551 69.2223 96.618 69.0985 96.461C68.8493 96.1492 68.6801 95.775 68.604 95.393C68.4532 94.6301 68.6512 93.825 69.1782 93.2172C69.4391 92.916 69.7876 92.677 70.1559 92.541C70.3379 92.4692 70.5329 92.427 70.7067 92.4012L71.0704 92.3563C71.5583 92.3051 72.0579 92.2883 72.5669 92.3211C73.5778 92.384 74.6622 92.668 75.5801 93.302C75.8028 93.4563 76.0321 93.6481 76.213 93.8121C76.3212 93.907 76.4321 93.9992 76.5567 94.0699C76.8012 94.2172 77.077 94.3152 77.3626 94.3481C77.6469 94.3883 77.9399 94.368 78.218 94.291C78.3583 94.2551 78.4958 94.2043 78.6262 94.1371C78.6958 94.111 78.7524 94.0621 78.8208 94.0301C78.8954 93.9871 78.9993 93.9152 79.0868 93.8582C79.8153 93.3723 80.5688 92.9192 81.3239 92.4692L83.5895 91.1172C84.3438 90.6652 85.0977 90.2133 85.9696 89.918C85.4426 90.6731 84.7973 91.2699 84.1524 91.868L82.2204 93.6641C81.5762 94.2633 80.9305 94.859 80.2598 95.4223L79.9997 95.641C79.884 95.7281 79.7708 95.8192 79.6442 95.891C79.3981 96.0461 79.1333 96.1731 78.8571 96.2711C78.3055 96.4711 77.7067 96.5262 77.1231 96.4723C76.538 96.4141 75.9684 96.2199 75.4614 95.9231C75.2051 95.7781 74.9719 95.5961 74.752 95.4031C74.6067 95.2762 74.4993 95.1891 74.3614 95.093C73.8301 94.734 73.1622 94.55 72.4337 94.5102C72.07 94.4902 71.693 94.5063 71.3114 94.55L71.0247 94.5883C70.9829 94.5973 70.9626 94.5992 70.9415 94.6102C70.9008 94.627 70.8778 94.6449 70.8536 94.6742C70.804 94.727 70.768 94.8582 70.7934 94.9512C70.8051 94.9981 70.8227 95.032 70.8473 95.061C70.8594 95.0762 70.8766 95.0891 70.8942 95.1051C70.9071 95.1102 70.9137 95.1211 70.9286 95.127L71.0297 95.1832C71.4516 95.4223 71.8833 95.6641 72.3512 96.109C72.5766 96.3422 72.8532 96.632 73.0051 97.1731C73.077 97.4383 73.0852 97.759 73.018 98.0383C72.9536 98.3172 72.8309 98.5551 72.7067 98.7281C72.4516 99.086 72.1938 99.282 71.9524 99.4582C71.7102 99.627 71.477 99.759 71.2477 99.8762C70.8743 100.066 70.5188 100.261 70.168 100.471C69.47 100.89 68.8102 101.358 68.2305 101.88L68.018 102.078C68.0079 102.089 67.9669 102.126 67.9817 102.114C67.9919 102.107 68.0008 102.097 68.0079 102.086C68.0239 102.066 68.045 102.039 68.0575 102.009C68.1227 101.884 68.1176 101.74 68.0731 101.646C68.0348 101.549 67.9321 101.447 67.7997 101.412C67.7723 101.398 67.7364 101.401 67.7141 101.394C67.7067 101.393 67.6762 101.395 67.6879 101.395L67.768 101.392L68.0895 101.379C71.5223 101.22 74.9641 100.843 78.3044 100.154C79.9739 99.8133 81.6219 99.393 83.1962 98.832C84.7657 98.2723 86.2797 97.5742 87.5383 96.6402C88.7934 95.7102 89.7446 94.5242 90.0208 93.1641C90.0606 92.9871 90.0821 92.841 90.1047 92.6301L90.1645 92.0102C90.2141 91.5973 90.2266 91.182 90.2442 90.7672C90.2801 89.9383 90.2567 89.1082 90.1993 88.2801C89.9563 84.9711 88.9876 81.7141 87.4356 78.7371C86.6665 77.2449 85.7551 75.8199 84.7344 74.4793C84.2231 73.8082 83.6915 73.152 83.129 72.5262C82.5755 71.907 81.9641 71.2762 81.3876 70.766L82.7555 69.1199Z" fill="black"/>
</svg>
