<svg width="120" height="120" viewBox="0 0 120 120" fill="none" xmlns="http://www.w3.org/2000/svg">
<path d="M93 82.1707L89 82V82.8293L93 83V82.1707Z" fill="#61152E"/>
<path d="M103.518 72L100 81C104.735 79.788 104.287 73.9331 103.518 72Z" fill="#61152E"/>
<path d="M56 32.3592C56.9044 31.4399 57.7768 30.4659 58.6919 29.5338C59.6081 28.604 60.5617 27.6941 61.6551 26.9752C62.205 26.6198 62.7923 26.3146 63.4266 26.1398C64.0555 25.9581 64.7475 25.9464 65.3839 26.1468C66.0267 26.3425 66.598 26.7399 67.071 27.2164C67.5462 27.6964 67.9509 28.2452 68.2905 28.8301C68.6322 29.4115 68.9493 30.015 69.1863 30.6616C69.4298 31.3036 69.6156 31.9666 69.763 32.6377C70.0502 33.9811 70.1794 35.3501 70.2445 36.7144C70.3759 39.4455 70.2307 42.1683 70.2552 44.8761C70.2638 45.553 70.2851 46.2288 70.3374 46.8999C70.3866 47.571 70.4709 48.2374 70.6193 48.8829C70.7688 49.5237 70.9877 50.1541 71.354 50.6609C71.5377 50.9125 71.7587 51.1269 72.0107 51.2877C72.2616 51.4485 72.5435 51.5534 72.8329 51.6116C73.1255 51.6699 73.4266 51.6839 73.7299 51.6594C73.8804 51.6559 74.031 51.6268 74.1805 51.6104C74.331 51.5813 74.4816 51.5569 74.629 51.5196C75.2248 51.3693 75.8324 51.1829 76.4304 51.0081C77.6284 50.6446 78.8201 50.2601 79.9819 49.7859C80.5606 49.5482 81.1319 49.2895 81.6786 48.9819C82.2232 48.672 82.7592 48.3225 83.1746 47.8495C83.3796 47.6141 83.5569 47.3485 83.6605 47.0513C83.7651 46.7542 83.7865 46.4303 83.7374 46.1146C83.6882 45.7977 83.574 45.4913 83.4373 45.1988C83.2835 44.9122 83.1202 44.6314 82.9258 44.3716C82.7368 44.1083 82.5318 43.8589 82.3182 43.6143L81.999 43.2379C81.8922 43.1109 81.7939 42.9746 81.6925 42.8441C81.4982 42.5703 81.3102 42.2918 81.1565 41.9877C80.9952 41.6883 80.8617 41.3702 80.7721 41.0347C80.676 40.7003 80.6236 40.3484 80.629 39.9954C80.6354 39.6435 80.7005 39.2917 80.8212 38.9631C81.07 38.3095 81.4982 37.7607 82.0395 37.3681L82.1356 37.5452C81.6434 37.9063 81.228 38.4388 81.0038 39.0435C80.7827 39.654 80.7849 40.3414 80.9685 40.9671C81.0582 41.2829 81.1842 41.5858 81.3401 41.8724C81.4907 42.1625 81.6733 42.4317 81.8623 42.695C81.9637 42.822 82.0566 42.9536 82.1634 43.0771L82.4805 43.4453C82.6962 43.6935 82.9087 43.9475 83.1031 44.2189C83.306 44.4846 83.48 44.777 83.6391 45.0788C83.7897 45.3876 83.9125 45.7185 83.9701 46.0726C84.0267 46.4245 84.0054 46.8032 83.8847 47.1422C83.7705 47.4848 83.574 47.7795 83.3519 48.0347C82.9034 48.5485 82.3545 48.9085 81.7993 49.2301C81.2387 49.5482 80.6599 49.8138 80.0748 50.0573C78.9045 50.5432 77.7074 50.9358 76.5072 51.3075C75.9029 51.4881 75.3102 51.6745 74.692 51.8342C74.5393 51.8726 74.3802 51.9006 74.2243 51.9309C74.0662 51.9507 73.9071 51.981 73.7459 51.9868C73.4287 52.0136 73.1009 52.0008 72.7817 51.9378C72.4592 51.8773 72.142 51.7607 71.8548 51.579C71.5676 51.3984 71.3156 51.1537 71.1084 50.8753C70.6984 50.3113 70.4656 49.6391 70.3043 48.9703C70.1484 48.298 70.0587 47.6141 70.0043 46.9313C69.9488 46.2474 69.9242 45.5647 69.9135 44.8819C69.8729 42.1544 70.0064 39.4373 69.8644 36.7366C69.7939 35.3885 69.6573 34.0428 69.3721 32.739C69.228 32.0877 69.0443 31.4481 68.8094 30.8352C68.5798 30.2212 68.2712 29.6422 67.937 29.0817C67.6092 28.519 67.2216 28.004 66.7806 27.5636C66.3406 27.1255 65.8302 26.7771 65.2664 26.6094C64.709 26.4381 64.1079 26.4462 63.5366 26.6152C62.9621 26.7771 62.4132 27.0626 61.8932 27.4051C60.8521 28.0961 59.9199 28.9897 59.0208 29.9148C58.1185 30.8422 57.2515 31.8186 56.3385 32.7565L56 32.3592Z" fill="#5E142E"/>
<path d="M54.979 33.012C54.3985 32.9045 54.0324 33.5522 54.0324 33.5522L53 34.3722L53.8437 36C54.4376 35.7201 54.5739 35.5772 54.9399 35.6725C55.306 35.7678 55.9743 34.4003 55.9991 34.0325C56.0238 33.6634 55.5577 33.1196 54.979 33.012Z" fill="#EF7C57"/>
<path d="M53.1638 33.0049C54.0532 32.7785 54.3526 32.3915 54.6265 32.2922C54.9711 32.1675 55.6544 32.0276 55.8733 32.0006C56.0186 31.9823 56.107 32.3852 55.7477 32.5401C55.303 32.73 54.9162 32.7133 54.8631 32.8349C54.8072 32.9557 54.5009 33.7932 53.634 33.9791C52.7671 34.165 52.9831 33.051 53.1638 33.0049Z" fill="#F9AB89"/>
<path d="M7 47.2316L6.91232 47L5 47.3771L5.01841 48.84L5.27883 49L5.17536 47.681L7 47.2316Z" fill="#3F1D27"/>
<path d="M3 57L3.0395 52.372L5.43243 52L6.5447 52.6616L7 56.5041L3 57Z" fill="#F18117"/>
<path d="M7 56.1182C7 54.3959 6.10511 53 5.0012 53C3.89489 53 3 54.3959 3 56.1182C3 56.4251 3.03003 56.7206 3.08288 57L6.98198 56.5397C6.99399 56.4022 7 56.2614 7 56.1182Z" fill="#F1B627"/>
<path d="M6 55.5594C6 54.6982 5.5514 54 4.99883 54C4.4486 54 4 54.6982 4 55.5594C4 55.7118 4.01519 55.8598 4.04206 56L5.98832 55.7696C5.99416 55.7004 6 55.6312 6 55.5594Z" fill="#FCD487"/>
<path d="M4 49.4996C4 49.7758 4.2225 50 4.49959 50C4.77502 50 5 49.7758 5 49.4996C5 49.2233 4.77502 49 4.49959 49C4.2225 49 4 49.2233 4 49.4996Z" fill="#6A222B"/>
<path d="M3 51.8142L3.03092 50.8925L4.76698 49L6.90613 50.7779L7 52L3 51.8142Z" fill="#6A222B"/>
<path d="M3 52L3.06793 57L3.86141 56.8868L4 52.1698L3 52Z" fill="#6A222B"/>
<path d="M3.17818 56.2694C3.25342 56.2215 7.64561 56 7.64561 56L8 56.7967L3 57L3.17818 56.2694Z" fill="#981B29"/>
<path d="M3.0703 51.8718L7 52L6.83626 51L3 51.0965L3.0703 51.8718Z" fill="#981B29"/>
<path d="M110.719 52.3071C109.944 52.1218 109.852 51.8714 110.176 50.8503C110.5 49.8281 111.365 47.2538 111.667 47.0142C111.966 46.7757 112.981 49.6059 112.998 50.472C113.016 51.3381 112.884 52.6128 112.562 52.9337C112.238 53.2545 110.719 52.3071 110.719 52.3071Z" fill="#E1CD9C"/>
<path d="M85 62.3225C86.7202 61.4769 87.7252 63.6987 90.1129 63.979C92.5298 64.2628 96.4196 61.5746 96.4196 61.5746L110 51.687C110 51.687 106.903 47.0247 101.195 49.9829C101.195 49.9829 95.216 49.6967 92.4875 56.9228C90.7651 61.4873 88.3232 60.8755 87.3595 60.7475C85.8672 60.5474 85 62.3225 85 62.3225Z" fill="#A21A35"/>
<path d="M105.319 49C105.342 50.8612 103.079 53.1812 99.8337 54.4717C97.3141 55.4745 94.8632 55.5933 93.3689 54.9306C93.2992 55.0529 93.2295 55.1751 93.1632 55.3021C93.5582 56.0195 93.7813 56.8185 93.7813 57.6629C93.7813 60.5129 91.2574 62.8632 88 63.2068C88.5801 63.5574 89.2375 63.8823 90.057 63.979C92.4808 64.2632 96.3814 61.5716 96.3814 61.5716L110 51.6718C110 51.6718 108.378 49.2353 105.319 49Z" fill="#7E1432"/>
<path d="M102 74C101.175 80.8619 99.4907 84.5758 98.5074 86.4646C97.524 88.3533 96.3041 91.0599 96.1294 91.6271C95.9514 92.1932 95.2339 95.2787 95.3349 96.3484C95.4315 97.4193 91 100 91 100C91 100 91.4776 97.923 92.4034 96.0966C93.3281 94.2714 93.4811 91.3753 93.7307 89.4866C93.9815 87.5978 95.604 84.1993 95.4065 82.0575C95.209 79.9169 96.3128 77.5257 98.0797 76.0147C99.8499 74.5037 102 74 102 74Z" fill="#C99671"/>
<path d="M93 88.9127C93.8889 88.2011 94.8019 87.8926 95.6412 88.1163C96.1334 88.2478 96.5603 88.5551 96.9159 89C97.3029 88.2429 97.7249 87.4575 98.1083 86.7753C99.204 84.8395 101.081 81.0329 102 74C102 74 99.6043 74.5162 97.6318 76.0649C95.663 77.6136 94.4331 80.0644 94.6532 82.2584C94.8418 84.1254 93.5599 86.9265 93 88.9127Z" fill="#B17650"/>
<path d="M77.5078 100C75.4656 96.9376 75.4132 93.1247 75.0988 92.0622C74.7845 90.9996 72.8985 86.6868 73.0043 85.7495C73.1081 84.8123 74.9417 82.9377 74.9417 82.9377L75.6741 75.9998L84 74C83.9476 80.0621 82.5351 81.6246 81.8541 82.3751C81.173 83.1245 76.4066 86.0627 76.5124 87.7493C76.6151 89.4371 77.0362 92.2501 78.083 93.75C79.1298 95.2498 80.0718 96.9376 80.1262 97.4376C80.1776 97.9375 77.5078 100 77.5078 100Z" fill="#C99671"/>
<path d="M77.4877 84.6998C77.9642 84.5255 78.4619 84.4798 78.9626 84.5453C80.2058 83.5413 81.5186 82.6565 81.8541 82.2926C82.5351 81.5494 83.9476 80.0023 84 74L75.6742 75.9801L74.9418 82.8496C74.9418 82.8496 73.1082 84.7057 73.0044 85.6337C72.9329 86.2528 73.7479 88.3546 74.3927 90C74.7101 87.3493 75.8032 85.313 77.4877 84.6998Z" fill="#B17650"/>
<path d="M70.9884 83C80.0729 78.8135 88.4994 84.3017 96.5207 82.1627C104.539 80.0225 103.23 73.5117 103.066 71.558C102.902 69.6043 104.866 60.3025 109.203 59.9308C113.54 59.559 115.096 50.9081 108.795 51.0007C102.494 51.0934 95.5372 57.1398 93.82 61.0472C92.1007 64.9534 83.2628 66.3489 79.9092 64.6743C76.5535 62.9997 70.4153 64.2099 69.2712 67.0936C68.1239 69.9772 70.9884 83 70.9884 83Z" fill="#E1CD9C"/>
<path d="M94.0102 60.6459C92.2501 64.5378 83.2026 65.9283 79.7695 64.2598C77.9235 63.3636 75.2554 63.2982 73 63.8742C74.0455 68.8645 81.1535 76 87.5265 76C94.6517 76 98.2653 70.9887 100.312 62.777C101.049 59.8116 102.356 51.3464 96.8845 56.7796C95.5532 58.1151 94.5388 59.4763 94.0102 60.6459Z" fill="#EEDBB4"/>
<path d="M90.2089 82C88.7976 74.0131 95 72 95 72L93.9277 81.4512L90.2089 82Z" fill="#D6AD86"/>
<path d="M107.856 52.0007C104.681 52.0457 103.848 62.4948 101.644 68.5829C100.603 71.458 98.5685 74.1348 97.0703 75.9159C94.5831 78.8741 89.1699 80.7059 82.9504 79.8517C75.0938 78.7715 69.1776 74.038 69.7383 69.278C69.9508 67.4842 71.0529 65.9441 72.7637 64.7774C71.1052 65.3019 69.7564 66.1919 69.2759 67.3632C68.1086 70.198 71.023 83 71.023 83C80.2657 78.8844 88.8388 84.2796 96.9998 82.1769C105.158 80.073 103.826 73.6726 103.659 71.752C103.493 69.8314 105.532 61.206 109.944 60.8394C114.356 60.4739 114.267 51.9085 107.856 52.0007Z" fill="#D6AD86"/>
<path d="M110 59.5847L105.147 56C105.147 56 104.3 60.0378 106.677 63C107.473 61.8051 108.441 60.934 109.58 60.7395L110 59.5847Z" fill="#B17650"/>
<path d="M54.5147 84.0003C56.6983 85.65 59.2766 84.9433 60.0056 84.1185C60.7346 83.2925 63.5361 80.2273 63.4261 77.8698C63.3129 75.5124 61.126 71.1497 60.7346 69.441C60.342 67.7311 60.6785 65.0794 63.3129 64.2534C65.9462 63.4286 66.8434 63.9001 67.7405 65.9633C68.6377 68.0265 72 63.3695 72 63.3695C68.3563 63.3695 62.3046 62.3675 60.5103 62.0141C58.7159 61.6608 53.336 68.0265 53.1678 69.9715C52.9985 71.9166 52.8335 74.8636 53.336 75.3351C53.8407 75.8066 57.148 77.9289 57.4844 79.1661C57.8187 80.4045 57.4273 82.7029 56.9798 83.3516C56.5322 84.0003 54.5147 84.0003 54.5147 84.0003Z" fill="#A21A35"/>
<path d="M64.402 64C62.891 64 61.4449 64.2655 60.1024 64.7495C60.283 65.7153 59.1608 67.1892 59.1608 68.2763C59.1608 73.2562 65.3469 80.4955 58.0529 84.1064C57.348 84.4549 55 84.0201 55 84.0201C57.2302 85.6371 59.8634 84.9444 60.6079 84.1359C61.3524 83.3263 64.2137 80.3218 64.1013 78.011C63.9857 75.7002 61.7522 71.424 61.3524 69.7491C60.9515 68.0731 61.2952 65.4739 63.9857 64.6643C66.6751 63.8558 67.5914 64.3179 68.5077 66.3403C68.9615 67.3421 70.033 66.727 71 65.8519C69.0804 64.6774 66.8216 64 64.402 64Z" fill="#7E1432"/>
<path d="M79.9487 80C82.3439 72.36 79.897 67 79.897 67L76 78.6061L79.9487 80Z" fill="#D6AD86"/>
<path d="M64.9635 101C63.8878 96.1885 64.7584 93.9689 64.7584 92.365C64.7584 90.7612 63.6838 87.739 64.0929 86.8747C64.5041 86.0116 65.8341 85.8261 66.2955 84.2841C66.7579 82.7421 67.6788 76.2662 67.0133 74.4151C66.3487 72.5652 66.1949 69.3575 68.7564 66.4578C71.3189 63.5593 73.1635 62.9423 74.393 63.0041C75.6225 63.0659 79.8245 66.7669 79.9783 68.8641C80.1322 70.9614 79.4666 76.9439 77.9799 79.3502C76.4931 81.7553 69.5767 84.8393 68.1412 87.3063C66.7076 89.7744 65.9879 93.1664 66.3487 94.5847C66.7076 96.0043 67.6788 96.991 67.9361 97.8542C68.1915 98.7173 64.9635 101 64.9635 101Z" fill="#E1CD9C"/>
<path d="M74.4505 63.0008C73.0936 63.0244 71.2023 63.8257 68.3789 66.754C66.0628 69.1568 65.763 71.7681 66.1323 73.6606C67.3675 76.8423 69.7585 79 72.5124 79C76.5254 79 80.9555 77.3019 81 69.1697C81.0022 68.6053 78.8773 62.923 74.4505 63.0008Z" fill="#EEDBB4"/>
<path d="M68.6548 80.7631C67.996 80.2996 67.4584 79.6587 67.042 78.8877C66.8333 80.7513 66.5253 82.4919 66.3137 83.2014C65.8486 84.7647 64.5081 84.9527 64.0938 85.8277C63.7122 86.6378 64.6095 89.3149 64.7476 91C65.47 88.5274 66.5969 86.9145 67.8658 86.8352C67.9652 86.6413 68.0665 86.4509 68.1738 86.2653C69.6206 83.7643 76.5913 80.6378 78.0898 78.1994C78.4376 77.6318 78.7406 76.8656 79 76C75.9832 80.7205 71.613 82.8443 68.6548 80.7631Z" fill="#D6AD86"/>
<path d="M100.626 81.2856C102.317 75.0162 97.7254 72 97.7254 72L97 83L100.626 81.2856Z" fill="#C99671"/>
<path d="M94.0553 84.7645C92.1592 83.0309 90.3783 78.6048 91.21 76.7513C92.0394 74.8978 94.4112 70.7713 96.1898 71.0099C97.9684 71.2497 99.5108 73.8212 99.5108 75.5548C99.5108 77.2896 98.5616 79.5615 101.052 80.7579C103.544 81.9543 106.152 81.6547 106.803 82.4327C107.457 83.2096 106.268 86.7978 106.33 88.2329C106.388 89.6679 106.094 90.8044 105.618 90.9842C105.144 91.1629 102.653 89.7878 103.246 88.6513C103.839 87.5148 104.729 85.0631 103.959 84.3461C103.334 83.7648 95.2669 85.8728 94.0553 84.7645Z" fill="#D6AD86"/>
<path d="M99.8662 79.0117C99.7883 78.2118 99.9319 77.3608 100 76.5718C99.9939 76.3371 99.9842 76.1001 99.9659 75.8618C99.938 75.4679 99.8942 75.0825 99.8406 74.7057C99.3552 73.0389 98.0036 71.2372 96.4901 71.0318C94.5935 70.7752 92.0642 72.0286 91.0994 76.4004C90.8026 77.7486 91.1736 80.8365 92.17 82.8801C93.1518 84.2745 94.3879 85.0842 95.6775 84.993C97.7736 84.8447 99.3954 82.3683 99.8662 79.0117Z" fill="#E1CD9C"/>
<path d="M96.2644 77.6394C96.3445 77.0461 96.5879 76.4259 96.7737 75.8277C96.811 75.6438 96.8473 75.4575 96.8772 75.2675C96.9295 74.9513 96.9701 74.6375 97 74.3261C96.9562 72.8968 96.2869 71.2665 95.2268 71.0422C93.9585 70.775 92.1874 71.7409 91.2149 74.9549C90.9416 75.8571 90.8999 77.8944 91.2608 79.2574C91.6568 80.2062 92.2365 80.8461 92.9422 80.976C94.1357 81.1966 95.4424 79.8814 96.2644 77.6394Z" fill="#EEDBB4"/>
<path d="M104.004 85.3678C104.109 86.2675 103.535 87.679 103.048 88.5531C103.016 88.8672 103 89.1888 103 89.5158C103 89.5575 103.004 89.5981 103.004 89.6398C103.543 90.4347 105.115 91.11 105.497 90.985C106.014 90.8151 106.335 89.7413 106.271 88.3853C106.208 87.0807 107.399 83.8933 106.859 83C105.709 83.2383 104.703 84.1113 104.004 85.3678Z" fill="#E1CD9C"/>
<path d="M100.281 89C99.2156 92.8635 101.458 94.6148 102.355 94.9768C103.253 95.3387 106 91.3542 106 91.3542L103.476 89.1804C101.963 89.121 100.281 89 100.281 89Z" fill="#F3E5C7"/>
<path d="M95 102C94.8514 102 90 102 90 102C90.3249 98.9303 92.1684 96.7297 92.6886 96.3825C93.2098 96.0352 94.0911 95.812 94.3569 96.2179C94.6246 96.6237 95 102 95 102Z" fill="#DBC69E"/>
<path d="M78.1584 101H83C81.9946 99.1257 80.9909 97.3914 80.0303 97.0635C79.0715 96.7356 78.1136 97.7662 78.0213 98.1411C77.9308 98.516 78.1584 101 78.1584 101Z" fill="#DBC69E"/>
<path d="M64 101H69C68.4108 99.125 67.7902 97.3917 66.8792 97.0636C65.9673 96.7354 64.7288 97.7666 64.5448 98.1414C64.3598 98.5162 64 101 64 101Z" fill="#F3E5C7"/>
<mask id="mask0_25_100" style="mask-type:alpha" maskUnits="userSpaceOnUse" x="104" y="50" width="13" height="18">
<path d="M104.354 50.3619H117V67.6192H104.354V50.3619Z" fill="black"/>
</mask>
<g mask="url(#mask0_25_100)">
<path d="M106.263 51.3708C104.458 52.8213 104.191 57.4099 104.48 58.4245C104.771 59.438 108.251 61.651 109.825 62.3425C109.825 62.3425 110.695 66.7672 111.152 67.0438C111.606 67.3205 112.975 66.9974 112.975 66.9974C112.975 66.9974 112.85 67.4123 113.43 67.5506C114.01 67.6889 116.455 67.1822 116.579 66.5824C116.703 65.9839 117.283 63.1724 116.829 62.296C116.371 61.4197 115.046 60.2214 114.755 59.3462C114.467 58.4698 113.43 53.2606 112.809 52.3854C112.187 51.5091 108.499 49.5739 106.263 51.3708Z" fill="#E1CD9C"/>
</g>
<path d="M115 58.667C114.548 56.6897 113.85 53.5229 113.381 52.8426C112.746 51.9218 108.99 49.8883 106.711 51.7764C105.791 52.5398 105.261 54.1299 105 55.6602C105.064 55.8653 105.13 56.0693 105.205 56.2732C106.813 60.7908 110.223 63.9014 112.732 62.7644C113.957 62.2087 114.687 60.4586 115 58.667Z" fill="#EEDBB4"/>
<path d="M111.718 62.0968C111.236 61.654 110.75 62.8349 111.145 63.5233C111.496 64.1386 112.19 65.3269 112.18 67.6242C112.511 67.5745 112.792 67.4914 112.792 67.4914C112.792 67.4914 112.717 67.8139 113 68C112.774 66.54 112.113 62.459 111.718 62.0968Z" fill="#B17650"/>
<mask id="mask1_25_100" style="mask-type:alpha" maskUnits="userSpaceOnUse" x="110" y="58" width="7" height="10">
<path d="M110.614 58.0978H117V67.9166H110.614V58.0978Z" fill="black"/>
</mask>
<g mask="url(#mask1_25_100)">
<path d="M116.579 66.5824C116.704 65.9838 117.284 63.1723 116.829 62.2959C116.372 61.4196 115.046 60.2213 114.755 59.3461C114.69 59.1427 114.581 58.7046 114.448 58.1432C114.342 58.1583 114.239 58.1827 114.135 58.2152C112.323 58.7929 109.529 59.3089 111.329 61.9194C112.11 63.0491 112.383 67.7644 113.417 67.7272C114.116 67.8086 116.461 67.1565 116.579 66.5824Z" fill="#EEDBB4"/>
</g>
<path d="M115.686 64.9771C115.984 64.0584 116.162 62.9166 115.791 62.6906C115.416 62.4637 114.425 61.8522 114.049 62.033C113.674 62.2147 115.584 65.2944 115.686 64.9771Z" fill="#B17650"/>
<path d="M110.918 55.572C108.639 57.0326 108.736 54.3088 109.45 54.0326C110.167 53.7565 111.318 55.3158 110.918 55.572Z" fill="#784C36"/>
<path d="M109 54.0651C111.619 53.5766 112.014 55.9626 112 57C111.228 55.1579 110.179 54.3445 109 54.0651Z" fill="#B17650"/>
<path d="M108.939 52.3491C108.133 52.1833 107.97 51.9352 108.004 50.902C108.036 49.8678 108.165 47.2636 108.39 47.0154C108.617 46.7673 110.39 49.579 110.649 50.4464C110.907 51.3149 111.134 52.5972 110.907 52.9277C110.683 53.2581 108.939 52.3491 108.939 52.3491Z" fill="#F2E5C5"/>
<path d="M108.625 52.565C108.087 52.4548 107.981 52.2895 108.003 51.6002C108.022 50.9119 108.109 49.1756 108.259 49.0103C108.41 48.845 109.595 50.7185 109.766 51.2976C109.938 51.8757 110.089 52.7303 109.938 52.9518C109.788 53.1722 108.625 52.565 108.625 52.565Z" fill="#D6AD86"/>
<path d="M48.6323 58.3159L48.2907 58L48 59L51 58.9124C50.5012 58.491 48.6323 58.3159 48.6323 58.3159Z" fill="#E3D3A0"/>
<path d="M44 59H51L50.9194 63.6782L44 66V59Z" fill="#3F1D26"/>
<path d="M44.3252 59.3893V65.5492L50.6011 63.4632L50.6728 59.3893H44.3252ZM44.1621 66C44.1278 66 44.0935 65.9862 44.0644 65.9598C44.0239 65.9234 44 65.8656 44 65.8053V59.1947C44 59.0867 44.0748 59 44.1621 59H50.8379C50.8805 59 50.9231 59.0213 50.9522 59.059C50.9844 59.0954 51 59.1469 51 59.1984L50.92 63.6164C50.92 63.7031 50.8722 63.7772 50.8037 63.801L44.2047 65.9937L44.1621 66Z" fill="#D94E1F"/>
<path d="M34.3118 45C32.0617 43.8793 31.8557 40.2142 32.0617 40.0101C32.2677 39.806 32.8297 42.7599 34.0163 43.4043C35.1996 44.0487 36 43.8793 36 43.8793L34.3118 45Z" fill="#9E1837"/>
<path d="M46.2724 19.1035C43.6419 19.5323 43.854 21.0756 44.2076 22L50 21.2396C49.7227 19.7395 49.0444 18.6512 46.2724 19.1035Z" fill="#5E142E"/>
<path d="M46.8271 19.1171C46.568 19.169 46.3402 19.2363 46.1377 19.3147C46.0526 19.4502 46 19.5949 46 19.7478C46 20.4396 46.9901 21 48.2091 21C48.9471 21 49.6001 20.7942 50 20.4783C49.6163 19.3738 48.7993 18.7197 46.8271 19.1171Z" fill="#7D133A"/>
<path d="M44.0145 22C43.9884 21.5106 43.994 21.0019 44.0609 20.5087C44.6936 20.4623 45.3558 20.381 46.035 20.2573C46.052 20.2553 46.0667 20.2515 46.0837 20.2476C46.2753 20.4429 46.4998 20.6054 46.7459 20.7273C45.6925 21.0387 44.9555 21.6054 44.0145 22ZM49.8118 20.6441C49.6281 20.6441 49.4217 20.6325 49.2074 20.617C49.4716 20.4545 49.7007 20.2456 49.8843 20C49.9274 20.205 49.9649 20.4197 50 20.6402C49.9388 20.6441 49.8775 20.6441 49.8118 20.6441Z" fill="#9B192C"/>
<path d="M46.6969 21C46.4379 20.9196 46.2017 20.8125 46 20.6837C47.3819 20.5255 48.6706 20.287 49.7888 20C49.8711 20.162 49.9379 20.3367 50 20.5204C49.8067 20.6824 49.5656 20.8202 49.2876 20.9273C49.1838 20.9235 49.08 20.9184 48.9726 20.9133C48.6313 20.898 48.2768 20.8827 47.9463 20.8827C47.7112 20.8827 47.4857 20.8903 47.29 20.912C47.0823 20.9362 46.8866 20.9656 46.6969 21Z" fill="#C82040"/>
<path d="M44.2643 23.9981C41.8375 24.072 43.0643 21.942 46.579 21.3671C50.0909 20.7907 50.833 20.9441 50.9857 21.4738C51.1392 22.005 50.1359 23.8188 44.2643 23.9981Z" fill="#3C1C25"/>
<path d="M54.7928 37.7011C55.0017 37.5235 55.0194 37.1575 54.8311 36.9511C53.8661 35.8843 53.5906 35.2171 54.4437 34.4587C55.39 33.6176 56 32.6972 56 32.6972L55.2998 32C55.2998 32 53.6533 33.158 53.1365 34.5223C52.6168 35.8867 53.7181 37.9327 54.1476 37.9963C54.3515 38.0263 54.5947 37.8715 54.7928 37.7011Z" fill="#5E142E"/>
<path d="M48.6605 29C48.8718 31.2876 48.7671 34.1416 48.9505 34.1982C49.1348 34.2548 52.3364 32.573 52.5736 32.573C52.8107 32.573 54.0752 35.1438 53.9965 35.4558C53.9178 35.7657 48.5429 38.0822 47.8315 37.9977C47.119 37.9133 46 36.6557 46 34.8478C46 33.04 48.6605 29 48.6605 29Z" fill="#B61B35"/>
<path d="M52.0767 32.5471C51.8594 32.5471 48.9252 34.2168 48.7562 34.1605C48.5882 34.1043 48.6841 31.2711 48.4905 29C48.4905 29 48.3453 30.2199 48.1416 31.0748C47.8823 31.7601 47.948 35.9129 48.6001 35.9978C49.0439 36.055 51.4758 35.0038 53 34.2316C52.663 33.4392 52.2046 32.5471 52.0767 32.5471Z" fill="#D41A3D"/>
<path d="M50 23.0007C50 22.4478 49.5508 22 49.0007 22C48.4462 22 48 22.4478 48 23.0007C48 23.5522 48.4462 24 49.0007 24C49.5508 24 50 23.5522 50 23.0007Z" fill="#502527"/>
<path d="M20.1366 98.8777L20.2341 98.4818C20.4171 98.4736 20.5807 98.3373 20.6305 98.1306L22.4436 90.7041C22.4935 90.4974 22.4133 90.2871 22.2606 90.1767L22.3992 89.6058C22.5021 89.6246 22.6072 89.6375 22.7155 89.6375C23.0069 89.6375 23.2841 89.5588 23.5332 89.4214L23.6914 89.7256C23.5701 89.876 23.5397 90.1015 23.634 90.2871L27.0804 96.9629C27.1746 97.1485 27.3653 97.2331 27.5462 97.1908L27.8429 97.7688C26.3645 98.7449 24.6597 99.3158 22.8541 99.3569C21.914 99.3346 21.002 99.1702 20.1366 98.8777ZM25.342 76.0111L25.172 76.7018C24.9889 76.7112 24.8254 76.8474 24.7756 77.0542L22.9624 84.4794C22.9126 84.6862 22.9928 84.8964 23.1455 85.0069L23.0545 85.3875C22.9321 85.3652 22.8076 85.3558 22.6765 85.3616C22.422 85.3745 22.1804 85.4439 21.9617 85.559L21.6595 84.9728C21.7819 84.8224 21.8122 84.5969 21.7147 84.4113L18.2715 77.7367C18.174 77.5511 17.9856 77.4653 17.8047 77.5076L17.7354 77.3737C19.1943 76.3564 20.897 75.7315 22.735 75.6457C22.8216 75.641 22.904 75.6434 22.9874 75.641C23.7997 75.6622 24.5871 75.789 25.342 76.0111ZM20.4919 88.6602C20.3565 88.5227 20.1539 88.4898 19.9872 88.5956L13.9792 92.4227C13.873 92.4908 13.8037 92.6001 13.7766 92.7223C13.1603 91.2833 12.7888 89.681 12.7368 87.9835C12.7033 86.971 12.7834 85.9795 12.9665 85.0268C13.0141 85.0727 13.0693 85.1091 13.1332 85.1279L19.8182 87.1413C20.0045 87.1977 20.1929 87.1084 20.2926 86.9381L20.8915 87.1178C20.8666 87.2705 20.8526 87.4267 20.858 87.5865C20.8634 87.852 20.9165 88.1045 21.002 88.336L20.4919 88.6602ZM32.7754 90.2801L32.4201 90.1732C32.4147 89.9711 32.2902 89.7879 32.1039 89.7315L25.4222 87.7181C25.2337 87.6617 25.0453 87.751 24.9445 87.9213L24.5871 87.8132C24.6012 87.711 24.612 87.6076 24.612 87.5007C24.6153 87.1801 24.5568 86.877 24.4485 86.6056L24.7702 86.4001C24.9066 86.5375 25.1092 86.5704 25.2749 86.4647L31.284 82.6363C31.4497 82.5306 31.5277 82.3192 31.4887 82.1195L31.8656 81.8798C32.6454 83.5526 33.0862 85.4674 33.0743 87.5101C33.0722 88.4663 32.9639 89.3932 32.7754 90.2801ZM23.4975 85.1126C23.6805 85.1032 23.8441 84.9669 23.8939 84.7602L25.707 77.3349C25.7579 77.1282 25.6767 76.9179 25.5251 76.8075L25.6908 76.1215C28.2448 76.9825 30.385 78.9372 31.6945 81.5251L31.3089 81.7694C31.1724 81.632 30.9699 81.5991 30.8041 81.706L24.7951 85.5331C24.6293 85.64 24.5514 85.8515 24.5904 86.05L24.2708 86.252C24.0575 85.9079 23.7585 85.6412 23.4033 85.4932L23.4975 85.1126ZM17.4917 77.7085C17.3671 77.8589 17.3368 78.0844 17.4332 78.27L20.8775 84.9458C20.9749 85.1314 21.1634 85.216 21.3432 85.1737L21.6486 85.7669C21.354 86.0089 21.1244 86.3437 20.9912 86.7301L20.3868 86.5481C20.3782 86.3448 20.2568 86.1616 20.0705 86.1064L13.3878 84.093C13.3185 84.0706 13.2491 84.0718 13.1831 84.0883C13.8958 81.4182 15.4121 79.1181 17.431 77.5945L17.4917 77.7085ZM21.9086 90.0722C21.7255 90.0804 21.562 90.2166 21.5122 90.4234L19.699 97.8498C19.6492 98.0566 19.7294 98.2668 19.8821 98.3772L19.79 98.752C17.3617 97.8228 15.3287 95.8904 14.0756 93.3789C14.1979 93.4341 14.3366 93.4318 14.459 93.3542L20.467 89.5271C20.6338 89.4214 20.7107 89.2088 20.6728 89.0102L21.1688 88.6942C21.3822 89.056 21.6898 89.338 22.0505 89.4966L21.9086 90.0722ZM27.9177 96.4284L24.4734 89.7538C24.377 89.5682 24.1853 89.4825 24.0076 89.5247L23.8441 89.2088C24.1409 88.9574 24.3716 88.6097 24.4983 88.2056L24.8503 88.3113C24.859 88.5145 24.9814 88.6978 25.1666 88.7541L31.8515 90.7676C32.0378 90.824 32.2263 90.7347 32.3259 90.5632L32.6866 90.6712C31.9739 93.5716 30.3243 96.0091 28.1527 97.5573L27.8592 96.9899C27.9837 96.8407 28.0141 96.614 27.9177 96.4284ZM23.0848 73.0062C22.8021 72.998 22.5184 72.9968 22.2303 73.0097C15.163 73.3398 9.75612 80.1636 10.0085 88.0916C10.2576 95.8423 15.8475 102 22.6353 102C22.7382 102 22.8379 101.994 22.9408 101.992C23.0426 101.994 23.1455 102 23.2506 102C30.1911 102 35.9608 95.5897 35.9998 87.5125C36.0388 79.3343 30.2106 72.8218 23.0848 73.0062Z" fill="#2D1D21"/>
<path d="M31 76H19L19.1378 82.6818L31 86V76Z" fill="#2D1D21"/>
<path d="M29.3808 86H24.6181C24.2786 86 24 86.356 24 86.7961V87.2039C24 87.644 24.2786 88 24.6181 88H29.3808C29.7214 88 30 87.644 30 87.2039V86.7961C30 86.356 29.7214 86 29.3808 86Z" fill="#2D1D21"/>
<path d="M23.8688 85H20.1327C19.5078 85 19 85.3891 19 85.8693V88.1307C19 88.6109 19.5078 89 20.1327 89H23.8688C24.4922 89 25 88.6109 25 88.1307V85.8693C25 85.3891 24.4922 85 23.8688 85Z" fill="#1D1919"/>
<path d="M11.3519 60.0566C11.1895 59.9995 9.21517 59.9438 9.05357 60.1137C8.89115 60.2835 9.14988 62.7174 9.14988 62.7174L9.83139 63L9.53838 60.6233C9.53838 60.6233 10.9634 60.6789 11.0932 60.736C11.223 60.7931 11.3838 62.8301 11.3838 62.8301L12 63C12 63 11.5136 60.1137 11.3519 60.0566Z" fill="#EE9412"/>
<path d="M16.0255 65.0888C15.6378 64.1759 14.2452 62.6109 11.4953 63.0887C8.74543 63.5677 7.04042 66.0018 7.00038 66.8709C6.96327 67.7399 9.67509 74 9.67509 74L18 73.1737C18 73.1737 16.4131 66.0018 16.0255 65.0888Z" fill="#6A222B"/>
<path d="M11.9631 62.3605C11.6427 62.3605 11.3017 62.3895 10.939 62.4521C8.04452 62.955 6.35496 65.5219 6.31983 66.2821C6.29089 66.9136 7.93912 70.9719 9.08512 73.6199L17.598 72.7763C17.3283 71.5618 15.926 65.3156 15.5633 64.4662C15.2058 63.619 14.0711 62.3605 11.9631 62.3605ZM8.89188 74L8.84435 73.8888C8.54777 73.2073 5.95815 67.2022 6.00051 66.2635C6.04495 65.2426 7.93912 62.6085 10.8884 62.0963C13.849 61.5818 15.4021 63.2459 15.8547 64.3109C16.267 65.282 17.8863 72.5839 17.9545 72.8933L18 73.0984L8.89188 74Z" fill="#D03923"/>
<path d="M13.8449 65.0888C13.422 64.1759 11.9007 62.6109 8.90082 63.0887C5.90093 63.5677 4.04411 66.0018 4.00043 66.8709C3.95889 67.7399 6.9151 74 6.9151 74L16 73.1737C16 73.1737 14.2678 66.0018 13.8449 65.0888Z" fill="#941B2A"/>
<path d="M13 65.082C13 64.6379 12.9425 64.2075 12.8391 63.7978C12.0231 63.242 10.7416 62.8175 8.90078 63.0793C5.90093 63.5076 4.04413 65.6848 4.00045 66.4622C3.98874 66.6759 4.20499 67.2562 4.52351 67.9826C5.3768 69.205 6.75422 70 8.30848 70C10.8993 70 13 67.7983 13 65.082Z" fill="#BF2027"/>
<path d="M4.26019 68L14 66.2222C13.906 65.7819 13.8171 65.369 13.7346 65L4 67.1399C4.07837 67.4047 4.16301 67.6941 4.26019 68Z" fill="#6A222B"/>
<path d="M9.96099 62.3602C9.64374 62.3602 9.3017 62.3892 8.94002 62.4518C6.04555 62.9547 4.35496 65.5216 4.32086 66.2819C4.29192 66.9134 5.94015 70.9718 7.08512 73.6199L15.598 72.7762C15.3283 71.5617 13.926 65.3154 13.5633 64.4659C13.2037 63.6188 12.0722 62.3602 9.96099 62.3602ZM6.89188 74L6.84435 73.8887C6.54777 73.2073 3.95815 67.202 4.00051 66.2633C4.04598 65.2423 5.94015 62.6082 8.88939 62.096C11.85 61.5826 13.4021 63.2456 13.8547 64.3106C14.267 65.2817 15.8863 72.5838 15.9556 72.8933L16 73.0984L6.89188 74Z" fill="#EE9412"/>
<path d="M4.05445 67L4 66.672L13.9456 65L14 65.328L4.05445 67Z" fill="#EE9412"/>
<path d="M4.05309 68L4 67.8255L13.948 67L14 67.175L4.05309 68Z" fill="#EE9412"/>
<path d="M8 66.2385L8.59639 68L10 67.9103L9.05422 66L8 66.2385Z" fill="#EE9412"/>
<path d="M43.7437 88.8788L29.2458 89L24.3958 79.2632L17.7504 78.6582L15.805 73.3975L19.5077 72.9126C16.8402 64.4464 14.2771 54.928 13.8312 50.9001C13.8312 50.9001 12.6644 51.2375 12.348 50.6577C11.8162 49.6902 12.0522 46.9683 12.0522 46.9683C19.9416 44.187 33.911 44.5439 48 46.8471L44.1787 88.1526L43.7437 88.8788Z" fill="#3F1D26"/>
<path d="M17.9846 78.3967L24.4626 78.9868C24.5208 78.9924 24.5704 79.0276 24.5973 79.0809L29.3548 88.6471L43.5229 88.5279L43.8849 87.9254L47.6512 47.1473C32.7258 44.7177 19.564 44.7552 12.3803 47.2483C12.3415 47.7669 12.223 49.898 12.6561 50.69C12.863 51.0645 13.671 50.9261 13.9382 50.8489C13.9856 50.8342 14.0351 50.8432 14.0761 50.8727C14.117 50.9011 14.1418 50.9465 14.1482 50.9976C14.6136 55.2008 17.3027 64.9802 19.7633 72.8068C19.7795 72.8567 19.7741 72.9112 19.7461 72.9554C19.7191 73.0008 19.675 73.0303 19.6254 73.0371L16.1726 73.4888L17.9846 78.3967ZM29.2536 89C29.1922 89 29.1351 88.9637 29.1038 88.9058L24.3409 79.3306L17.8521 78.7382C17.7886 78.7326 17.7336 78.6894 17.711 78.6259L15.7804 73.4059C15.761 73.3549 15.7664 73.2981 15.7944 73.2516C15.8192 73.2051 15.8655 73.1733 15.9161 73.1665L19.3819 72.7126C16.9719 65.0234 14.3605 55.5253 13.839 51.2347C13.4641 51.313 12.6615 51.4061 12.3663 50.8671C11.8201 49.8696 12.0431 47.2142 12.055 47.1019C12.0604 47.0327 12.1045 46.9725 12.1681 46.951C19.4013 44.3955 32.7452 44.3478 47.8581 46.8239C47.9464 46.8386 48.0078 46.9226 47.9992 47.0156L44.2124 88.0003C44.2102 88.0275 44.2016 88.0547 44.1876 88.0774L43.7577 88.798C43.7276 88.8479 43.6748 88.8797 43.6166 88.8797L29.2557 89H29.2536Z" fill="#D94E1F"/>
<path d="M15.7973 74.8002L11.9187 73L11 73.2177L16 76L15.7973 74.8002Z" fill="#352022"/>
<path d="M17.6156 72L6 73.2816L6.32847 74L18 72.8202L17.6156 72Z" fill="#EE9412"/>
<path d="M41 89H36V90H41V89Z" fill="#D81F26"/>
<path d="M39.8939 95L39.8669 94.9988L37.0677 94.8906C36.5818 94.8727 36.1874 94.3518 36.1691 93.7059L36.0002 87.4783C35.9933 87.2237 36.1387 87.0096 36.3259 87.0001C36.5131 86.9942 36.6689 87.1892 36.675 87.4438L36.8448 93.6714C36.8491 93.8296 36.9588 93.9628 37.086 93.9676L39.8852 94.0758C40.0097 94.0877 40.1098 93.9664 40.115 93.8166L40.324 87.9469C40.3327 87.6924 40.4894 87.4961 40.6783 87.508C40.8655 87.5199 41.0083 87.7364 40.9996 87.9921L40.7898 93.8617C40.768 94.5064 40.3754 95 39.8939 95Z" fill="#EE9412"/>
<path d="M42 83H48L47.9311 86.3416L42 88V83Z" fill="#61152E"/>
<path d="M42.3192 83.279V87.6708L47.6196 86.1925L47.6818 83.279H42.3192ZM42.1601 88C42.1254 88 42.0948 87.991 42.0653 87.9731C42.0245 87.9471 42 87.9058 42 87.861V83.139C42 83.0619 42.0714 83 42.1601 83H47.8409C47.8858 83 47.9245 83.0152 47.9561 83.0413C47.9847 83.0682 48 83.105 48 83.1417L47.9347 86.2975C47.9327 86.3567 47.8878 86.4096 47.8225 86.4275L42.207 87.9937L42.1601 88Z" fill="#EE9412"/>
<path d="M42.638 88.8788L28.1276 89L22.8288 79.2632L16.1491 78.6582L13.9614 73.3975L17.6464 72.9126C14.594 64.4464 11.5972 54.928 10.9667 50.9001C10.9667 50.9001 9.81569 51.2375 9.4694 50.6577C8.89225 49.6902 9.00986 46.9683 9.00986 46.9683C16.7818 44.187 30.788 44.5439 45 46.8471L43.042 88.1526L42.638 88.8788Z" fill="#771334"/>
<path d="M34.6798 84.881L32 69.1426L42 69L41.2162 85L34.6798 84.881Z" fill="#97163D"/>
<path d="M22.1694 73.0059C21.8671 72.998 21.5636 72.9969 21.2555 73.0093C18.968 73.1053 16.8436 73.7746 15 74.8672L16.1154 77.417L16.18 77.5243L16.1687 77.5367L16.2955 77.8256L17.2173 77.9046L17.0146 77.5513C16.9127 77.373 16.7077 77.2906 16.5163 77.3312L16.3272 77.0039C17.8152 76.1438 19.5161 75.619 21.3461 75.5422C22.4706 75.4948 23.5578 75.6212 24.5871 75.8932L24.4071 76.5569C24.21 76.566 24.0334 76.6969 23.9813 76.8956L23.4615 78.8042L24.1863 80.0729L24.9778 77.1653C25.0333 76.9667 24.9461 76.7646 24.7808 76.6585L24.9608 75.9993C27.6979 76.8267 29.9911 78.7049 31.3908 81.1915L30.9797 81.4263C30.8348 81.2942 30.6173 81.2626 30.4373 81.3653L26.2881 83.7357L26.8022 84.6307L30.9503 82.2593C31.1303 82.1577 31.2141 81.9545 31.1711 81.7626L31.5765 81.5324C32.4088 83.1397 32.8811 84.9795 32.8697 86.9424C32.8697 87.2991 32.8493 87.6524 32.8176 88L35.9545 87.9752C35.9805 87.6354 35.9998 87.2923 35.9998 86.9446C36.0439 79.0864 29.802 72.8287 22.1694 73.0059Z" fill="#61152E"/>
<path d="M10.9667 50.5085C11.117 51.4065 11.4045 52.6002 11.7922 54C16.8907 52.3045 22.7199 51.3414 28.9117 51.3414C34.5536 51.3414 39.8928 52.14 44.6537 53.5644L45 46.7245C30.788 44.5741 16.7818 44.241 9.00986 46.8377C9.00986 46.8377 8.89225 49.3789 9.4694 50.2822C9.81569 50.8235 10.9667 50.5085 10.9667 50.5085Z" fill="#61152E"/>
<path d="M46.843 58L46.2788 58.2047L46 59L50 58.872C49.3336 58.2561 46.843 58 46.843 58Z" fill="#EFE5C3"/>
<path d="M44.1826 59.0526L50 59L49.933 63.6277L44 66L44.1826 59.0526Z" fill="#771334"/>
<path d="M44.4852 59.4337L44.3255 65.5365L49.6203 63.4239L49.6776 59.3877L44.4852 59.4337ZM44.1577 66C44.1239 66 44.0892 65.9863 44.0636 65.9615C44.0216 65.9242 43.9981 65.8633 44.0001 65.7999L44.171 59.2361C44.1761 59.133 44.2437 59.0497 44.3307 59.0485L49.8404 59C49.8874 59.0025 49.9243 59.0199 49.9529 59.0572C49.9836 59.0932 50 59.1442 50 59.1963L49.9345 63.5681C49.9345 63.6501 49.8895 63.7234 49.8271 63.7483L44.2079 65.9901L44.1577 66Z" fill="#EE9412"/>
<path d="M16.3645 78.3955L22.8823 78.9868C22.9373 78.9924 22.9869 79.0242 23.015 79.0753L28.2146 88.6471L42.3958 88.5279L42.727 87.9322L44.6569 47.1484C29.6008 44.7177 16.4249 44.754 9.34181 47.246C9.32778 47.7737 9.30621 49.8934 9.77547 50.6855C10.002 51.0645 10.7884 50.9317 11.0732 50.8489C11.1174 50.8353 11.1671 50.8432 11.2091 50.8705C11.2469 50.8966 11.2749 50.9408 11.2836 50.9896C11.9373 55.194 15.0754 64.9723 17.892 72.7988C17.9082 72.8499 17.906 72.9066 17.878 72.9532C17.8532 72.9986 17.8057 73.0292 17.7561 73.0371L14.3267 73.4876L16.3645 78.3955ZM28.1175 89C28.0571 89 28.0021 88.966 27.9718 88.9115L22.7658 79.3306L16.2372 78.7382C16.1768 78.7326 16.1218 78.6917 16.097 78.6327L13.9287 73.4128C13.9092 73.3617 13.9125 73.3027 13.9373 73.255C13.9643 73.2062 14.0117 73.1733 14.0646 73.1665L17.5026 72.7149C14.741 65.02 11.6946 55.5162 10.9826 51.2325C10.618 51.3062 9.80891 51.4027 9.49068 50.8716C8.89952 49.8764 9.00524 47.2233 9.01063 47.111C9.01279 47.0383 9.05702 46.9748 9.1239 46.951C16.2544 44.3955 29.6116 44.3478 44.8565 46.8239C44.9417 46.8375 45.0021 46.9169 44.9999 47.0066L43.0582 87.9923C43.0582 88.0207 43.0496 88.0479 43.0366 88.0729L42.6386 88.7923C42.6084 88.8468 42.5533 88.8797 42.4951 88.8797L28.1175 89Z" fill="#EE9412"/>
<path d="M19.9077 85.0017C18.2384 85.0478 16.9492 85.9881 17.0015 87.0821C17.0489 88.1509 18.3634 89 19.9685 89C21.6075 89 22.9828 88.1158 22.9997 87.0019C23.0217 85.8618 21.621 84.9556 19.9077 85.0017Z" fill="#CF5620"/>
<path d="M19.9501 100.289C13.8183 100.289 8.7663 94.8585 8.54537 88.0236C8.3147 81.0313 13.1967 75.0139 19.5851 74.7238C26.1187 74.4254 31.4999 80.2197 31.4642 87.5127C31.4306 94.6354 26.2194 100.289 19.9501 100.289ZM19.5288 73.0124C12.2881 73.3425 6.7509 80.1656 7.00864 88.0929C7.26422 95.8428 12.9888 102 19.9425 102C27.0511 102 32.9619 95.5903 32.9998 87.5138C33.0388 79.2459 26.9395 72.6753 19.5288 73.0124Z" fill="#C09A62"/>
<path d="M19.9543 99.4061C14.2931 99.4061 9.62987 94.3498 9.42295 87.9862C9.21388 81.4775 13.7219 75.8754 19.6148 75.6042C25.6489 75.3272 30.6149 80.7218 30.5837 87.5111C30.5514 94.1424 25.7394 99.4061 19.9543 99.4061ZM19.5652 74.0115C12.8802 74.3181 7.77083 80.6711 8.00793 88.0522C8.24287 95.267 13.5279 101 19.9457 101C26.5067 101 31.9632 95.0312 31.9998 87.5123C32.0386 79.8141 26.4044 73.698 19.5652 74.0115Z" fill="#352022"/>
<path d="M19.9543 99.4061C14.2931 99.4061 9.62987 94.3498 9.42619 87.9862C9.21388 81.4775 13.7219 75.8754 19.618 75.6042C25.6489 75.3272 30.6171 80.7218 30.5848 87.5111C30.5514 94.1424 25.7394 99.4061 19.9543 99.4061ZM19.5652 74.0115C12.8802 74.3181 7.77083 80.6711 8.00793 88.0522C8.24287 95.267 13.529 101 19.9457 101C26.5089 101 31.9642 95.0312 31.9998 87.5123C32.0386 79.8141 26.4044 73.698 19.5652 74.0115Z" fill="#CF5620"/>
<path d="M19.9479 100.289C13.8183 100.289 8.7663 94.8585 8.54212 88.0236C8.3147 81.0313 13.1967 75.0139 19.584 74.7238C26.1187 74.4254 31.4999 80.2197 31.4642 87.5127C31.4284 94.6354 26.2161 100.289 19.9479 100.289ZM19.5288 73.0124C12.2881 73.3425 6.7509 80.1656 7.00864 88.0929C7.26097 95.8428 12.9888 102 19.9425 102C27.0478 102 32.9587 95.5903 32.9998 87.5138C33.0388 79.2459 26.9374 72.6753 19.5288 73.0124Z" fill="#E8C79D"/>
<path d="M19.4553 86.0013C18.6208 86.0349 17.9784 86.7408 18.0006 87.5607C18.0252 88.3638 18.6836 89 19.4836 89C20.3057 89 20.99 88.3374 20.9998 87.5018C21.0121 86.6459 20.3094 85.9665 19.4553 86.0013Z" fill="#E8C79D"/>
<path d="M19 89.1038L18.752 89L17 98.8973L17.248 99L19 89.1038Z" fill="#CF5620"/>
<path d="M18.7704 90.0506L18.698 90.018C18.5326 89.9438 18.3627 90.1059 18.3177 90.3797L17.0109 98.3212C16.966 98.5951 17.0635 98.8764 17.2296 98.9505L17.2997 98.982C17.4674 99.0561 17.6373 98.8953 17.6823 98.6214L18.9891 90.68C19.034 90.4061 18.9365 90.1247 18.7704 90.0506Z" fill="#E8C79D"/>
<path d="M23 76.1027L22.508 76L19 85.8985L19.492 86L23 76.1027Z" fill="#CF5620"/>
<path d="M22.538 76.0494L22.3978 76.018C22.0656 75.9438 21.7228 76.1059 21.6329 76.3797L19.0228 84.32C18.9299 84.5939 19.1295 84.8765 19.4601 84.9506L19.6003 84.982C19.9325 85.0562 20.2753 84.8941 20.3652 84.6203L22.9783 76.68C23.0682 76.4061 22.8701 76.1235 22.538 76.0494Z" fill="#E8C79D"/>
<path d="M17.9056 87L18 86.7534L9.09238 85L9 85.2466L17.9056 87Z" fill="#CF5620"/>
<path d="M16.9552 86.7703L16.9842 86.6994C17.0501 86.5333 16.9038 86.3625 16.6615 86.3176L9.60441 85.0112C9.36214 84.9655 9.10982 85.0638 9.04395 85.23L9.01604 85.3008C8.95017 85.467 9.09308 85.6377 9.33646 85.6827L16.3958 86.989C16.6381 87.034 16.8904 86.9365 16.9552 86.7703Z" fill="#E8C79D"/>
<path d="M30.8985 90L31 89.63L21.1027 87L21 87.3711L30.8985 90Z" fill="#CF5620"/>
<path d="M29.9608 89.6545L29.9862 89.5494C30.0438 89.2991 29.9158 89.0431 29.7038 88.9757L23.5289 87.0168C23.3159 86.9482 23.0961 87.0957 23.0385 87.3448L23.014 87.4511C22.9564 87.7002 23.0814 87.9562 23.2934 88.0248L29.4704 89.9837C29.6833 90.0511 29.9031 89.9037 29.9608 89.6545Z" fill="#E8C79D"/>
<path d="M18 88.3124L17.8273 88L10 92.6866L10.1697 93L18 88.3124Z" fill="#CF5620"/>
<path d="M16.9501 88.3474L16.9061 88.2476C16.8026 88.012 16.5754 87.9302 16.394 88.0649L11.1868 91.9815C11.0091 92.1174 10.9477 92.4179 11.0485 92.6535L11.0933 92.7533C11.196 92.9889 11.4241 93.0695 11.6046 92.9348L16.8118 89.0182C16.9904 88.8835 17.0537 88.583 16.9501 88.3474Z" fill="#E8C79D"/>
<path d="M30 82.3124L29.8058 82L21 86.6876L21.1942 87L30 82.3124Z" fill="#CF5620"/>
<path d="M28.9503 83.2781L28.9054 83.1973C28.8028 83.0088 28.5746 82.9444 28.3941 83.0521L23.1889 86.1855C23.0074 86.2932 22.9469 86.5336 23.0505 86.7221L23.0926 86.8019C23.1953 86.9904 23.4253 87.0558 23.604 86.9481L28.8119 83.8138C28.9897 83.7061 29.0539 83.4657 28.9503 83.2781Z" fill="#E8C79D"/>
<path d="M18.6886 86L19 85.7854L14.3135 76L14 76.2146L18.6886 86Z" fill="#CF5620"/>
<path d="M18.652 84.9505L18.753 84.9066C18.9875 84.8039 19.0704 84.5748 18.9346 84.3952L15.0164 79.1887C14.8818 79.0091 14.5824 78.9468 14.3455 79.0494L14.247 79.0934C14.0101 79.196 13.9308 79.426 14.0654 79.6047L17.9812 84.8122C18.1158 84.9909 18.4176 85.0532 18.652 84.9505Z" fill="#E8C79D"/>
<path d="M24.6857 99L25 98.7854L20.3133 89L20 89.2146L24.6857 99Z" fill="#CF5620"/>
<path d="M24.6515 97.9255L24.7525 97.8595C24.9893 97.7056 25.0699 97.3619 24.934 97.0925L21.0193 89.2821C20.8834 89.0126 20.5816 88.9205 20.3484 89.0745L20.2462 89.1405C20.0129 89.2944 19.93 89.6381 20.0646 89.9061L23.983 97.7179C24.1153 97.9874 24.417 98.0795 24.6515 97.9255Z" fill="#E8C79D"/>
<path d="M47.7001 46.6677L48 44.9946C31.0261 42.379 14.2961 42.109 5.01152 45.5514C5.01152 45.5514 4.98357 46.1887 5.01474 47C14.8551 44.1288 30.9626 44.3819 47.7001 46.6677Z" fill="#EE9412"/>
<path d="M5 46.395C5 46.5606 5 46.7693 5.01406 47C14.9135 45.052 31.1177 45.2238 47.9557 46.7746L48 46.4602C31.0983 44.7923 14.6421 44.278 5 46.395Z" fill="#DE4720"/>
<path d="M50.9623 43.5558C50.5072 42.963 43.2766 40 43.2766 40L41 44.3851L47.2199 45.3926C47.2199 45.3926 46.5247 52.297 47.283 57.9854L47.5995 58C47.5995 58 51.4175 44.1476 50.9623 43.5558Z" fill="#EFE5C3"/>
<path d="M48.5162 57.3254C49.1432 51.814 51 43.7777 51 43.7777L48.1825 41.7908C45.9243 40.8887 43.522 40 43.522 40L41 44.3851L47.8902 45.3926C47.8902 45.3926 47.1201 52.297 47.9601 57.9854L48.3107 58C48.3107 58 48.3859 57.7523 48.5162 57.3254Z" fill="#E3D3A0"/>
<path d="M48.6042 40C49.3439 40.8678 49.8609 41.7887 49.9793 42.3673C50.0978 42.9472 49.6687 45 49.6687 45L48 43.1834L48.6042 40Z" fill="#F9AB89"/>
<path d="M49.9505 43.5123C49.4502 42.9268 41.5025 40 41.5025 40L39 44.3315L45.8368 45.3266C45.8368 45.3266 45.7317 52.3801 46.5662 58L47.0234 57.7587C47.0234 57.7587 50.4487 44.0968 49.9505 43.5123Z" fill="#EFE5C3"/>
<path d="M48 44.4776L44.1303 43.1172L45.6234 41.4623C43.5548 40.6874 41.6101 40 41.6101 40L39 44.3315L46.1309 45.3266C46.1309 45.3266 46.0213 52.3801 46.8917 58L47.3686 57.7587C47.3686 57.7587 47.43 57.5251 47.5341 57.1222C47.4354 51.6207 48 44.4776 48 44.4776Z" fill="#E3D3A0"/>
<path d="M30 41.6067C31.3953 44.7236 34.0697 44.9642 36.4735 45.7308C38.8753 46.4985 40.8139 45.443 41.5487 44.8204C42.2845 44.1965 43.9905 41.464 44.1459 41.464C44.3003 41.464 45.6565 41.3673 45.6565 41.3673C45.6565 41.3673 46.9747 33.8868 47.2844 32.8313C47.5952 31.777 48.2928 29.1872 47.8648 27.7968C47.4398 26.4063 43.758 23.0971 43.4101 23.0016C43.0593 22.9061 43.0222 27.0774 43.0222 27.0774C40.851 29.2827 40.3478 30.9621 39.5202 35.6931C39.3804 36.496 37.6343 40.9356 37.3236 41.5595C37.0138 42.1822 35.5032 43.9087 34.2622 43.6693C33.0242 43.4287 30 41.6067 30 41.6067Z" fill="#D41A3D"/>
<path d="M41.718 30C40.8054 31.4805 40.3877 33.2344 39.8138 36.3773C39.6726 37.1563 37.9077 41.4641 37.5936 42.0695C37.4978 42.256 37.2854 42.5446 37 42.8473C37.637 44.1858 38.4765 45 39.397 45C41.3862 45 43 41.1954 43 36.5016C43 33.8925 42.5012 31.5591 41.718 30Z" fill="#B61B35"/>
<path d="M44.5982 37C44.7507 37.0773 47 38.2423 47 38.2423L46.7433 39L44 37.7381L44.5982 37Z" fill="#9E1837"/>
<path d="M44.9075 32.7844C44.9595 31.715 41.347 31.5816 40.9917 33.3829C40.1024 37.9216 38.9792 44.7303 34.9664 44.7303C33.0448 44.7303 31.2988 43.8546 30 42.4267C31.5265 44.8126 34.0853 45.0632 36.4041 45.7417C38.9138 46.4783 40.9396 45.4657 41.7075 44.8683C42.4763 44.2698 44.2591 41.6473 44.4214 41.6473C44.5828 41.6473 46 41.5556 46 41.5556C46 41.5556 44.6011 39.1836 44.9075 32.7844Z" fill="#9E1837"/>
<path d="M47.223 31.8586C47.5853 31.6474 47.843 31.1927 48 30.5656C47.9874 30.1989 47.9719 29.8297 47.9525 29.463C47.9651 28.972 47.9273 28.5159 47.8208 28.1402C47.3993 26.6502 43.7487 23.1041 43.4038 23.0018C43.1083 22.9137 42.9668 26.1359 43.0066 27.3525C44.2002 30.6887 46.0497 32.544 47.223 31.8586Z" fill="#B61B35"/>
<path d="M47.6244 32C47.5764 26.9582 44 25.6052 44 25.6052L44.0835 24C44.0835 24 47.1964 25.3458 47.7768 26.5405C48.3562 27.7364 47.6244 32 47.6244 32Z" fill="#9E1837"/>
<path d="M20.0754 68.8094L41.3871 69L42 50.0755C31.7371 48.3557 22.0735 48.7142 16 51.0378L20.0754 68.8094Z" fill="#4C1A2B"/>
<path d="M20.7607 67.8378L40.4342 68L41 51.9151C31.5274 50.452 22.6086 50.7569 17 52.7328L20.7607 67.8378Z" fill="#2D1D21"/>
<path d="M31.9705 62.2601C30.8353 60.5926 30.0159 58.7898 29.5053 57C29.4996 57.0635 29.4927 57.1259 29.4848 57.1883C28.9799 61.1598 27.2555 64.683 25 66.8859L37 67C35.2004 66.0245 33.435 64.417 31.9705 62.2601Z" fill="#7D1336"/>
<path d="M28.7314 51C24.1536 51.1302 20.1131 51.6915 17 52.6726L20.991 67C28.1542 66.0537 29.7216 57.0406 28.7314 51Z" fill="#A21A35"/>
<path d="M40.5186 67L41 51.9223C37.529 51.3301 34.1434 51.0254 31 51C31.6924 57.5069 34.5936 64.4628 40.5186 67Z" fill="#A21A35"/>
<path d="M25.7816 54.0475C23.5453 54.5762 22.429 59.385 23.2916 64.7879C23.4147 65.5579 23.5712 66.2976 23.7554 67C27.258 65.7485 28.7436 60.8631 29 56.0814C28.0068 54.5853 26.8627 53.7915 25.7816 54.0475Z" fill="#D6193E"/>
<path d="M34.9371 52C33.4341 52 32.0605 52.9387 31 54.4885C32.416 59.7127 35.3985 64.6216 40.3526 67C40.7658 65.6012 41 64.023 41 62.3496C41 56.6343 38.2858 52 34.9371 52Z" fill="#D6193E"/>
<path d="M30.2721 56H29L30.7279 68H32L30.2721 56Z" fill="#2D1D21"/>
<path d="M20.7445 68.1074L41.7197 68.2839L42.3231 50.7092C32.2227 49.1119 22.7127 49.4442 16.7349 51.6029L20.7445 68.1074ZM42.0413 69H42.0391L20.4832 68.8178C20.3315 68.8167 20.1992 68.7067 20.1637 68.5508L16.0111 51.4631C15.967 51.2844 16.0584 51.101 16.2208 51.0392C22.3363 48.7257 32.2399 48.3579 42.7167 50.0526C42.8845 50.0801 43.0082 50.2371 42.9996 50.4181L42.3747 68.6563C42.3693 68.8476 42.2209 69 42.0413 69Z" fill="#EE9412"/>
<path d="M41.6961 86H41.6858L34.9656 85.7523C34.8147 85.7476 34.6846 85.6226 34.6588 85.4531L29.0047 49.4263C28.9747 49.2288 29.0915 49.0407 29.2661 49.0056C29.4406 48.9706 29.607 49.1026 29.6359 49.3001L35.2455 85.0371L41.3841 85.2626L42.3573 50.2794C42.3624 50.0819 42.505 49.9276 42.6775 49.9276H42.6879C42.8656 49.9335 43.005 50.1018 42.9999 50.3016L42.0164 85.6483C42.0133 85.7453 41.9761 85.8364 41.9162 85.9018C41.8552 85.9649 41.7757 86 41.6961 86Z" fill="#EE9412"/>
<path d="M87.7908 70L46 83.4426L46.533 85L88 71.2836L87.7908 70Z" fill="#61152E"/>
<path d="M44 84.5C44 85.3283 44.6715 86 45.4983 86C46.3263 86 47 85.3283 47 84.5C47 83.6717 46.3263 83 45.4983 83C44.6715 83 44 83.6717 44 84.5Z" fill="#EE9412"/>
<path d="M45 84.5C45 84.7761 45.2241 85 45.4988 85C45.7759 85 46 84.7761 46 84.5C46 84.2239 45.7759 84 45.4988 84C45.2241 84 45 84.2239 45 84.5Z" fill="#3F1D26"/>
<path d="M89.8171 64L87.5191 64.2772C87.5191 64.2772 86.1429 68.9685 87.872 73.7646L88.2513 73.9963C89.7958 74.0732 91.3221 72.9353 90.9408 70.9507C90.3749 67.9902 89.8171 64 89.8171 64Z" fill="#D6AD86"/>
<path d="M88.3316 72.0536L87.0021 72C87.0021 72 86.8634 79.3358 88.8634 82.9228L90 83C88.0573 78.8862 88.3316 72.0536 88.3316 72.0536Z" fill="#61152E"/>
<path d="M102.916 70.6645C102.916 70.6645 93.1817 68.3834 89.5379 69.162L89 70.0528C95.6684 69.162 103 72 103 72L102.916 70.6645Z" fill="#61152E"/>
<path d="M89.3841 64L87.5924 64.2484C87.5924 64.2484 86.3368 68.4716 87.4815 72.7877L87.7677 72.9967C88.9611 73.0663 90.1907 72.0424 89.9753 70.2547C89.6553 67.5917 89.3841 64 89.3841 64Z" fill="#A21A35"/>
<path d="M44 28C45.1737 30.3399 46 32 46 32C46 32 45.0117 31.1408 44.5471 29.9544C44.0805 28.7695 44 28 44 28Z" fill="#9E1837"/>
<path d="M44.8409 30.6959C45.2023 32.4582 44.5514 36.0104 44.5514 36.3624C44.5514 36.7155 47.1875 38.3445 47.9794 38.7853C48.1614 38.8853 47.0782 42 47.0782 42C47.0782 42 41.8189 40.341 41.1945 39.0496C40.5674 37.7571 41.6159 30.7548 42.0956 29.7565C42.5781 28.7583 44.3821 28.4562 44.8409 30.6959Z" fill="#D41A3D"/>
<path d="M42 41.3802L40.1241 40C40.1241 40 39.9315 40.6673 40.0262 40.9289C40.1241 41.1906 41.263 42.0235 41.4863 41.9995C41.712 41.9755 42 41.3802 42 41.3802Z" fill="#B61B35"/>
<path d="M42.4658 37.7679C41.8629 36.7713 42.1471 32.2127 42.5098 30C42.3605 30.1239 42.2352 30.2667 42.1519 30.4211C41.6476 31.3652 40.5451 37.9874 41.2045 39.2098C41.861 40.4311 47.3904 42 47.3904 42C47.3904 42 47.7234 41.1357 48 40.3282C46.3932 39.8315 43.0314 38.6994 42.4658 37.7679Z" fill="#B61B35"/>
<path d="M46.8913 25.9973C45.8695 25.8713 45.8043 25.1362 45.8043 25.1362C45.8043 25.1362 44.8209 25.2931 44.6626 24.6141C44.6626 24.6141 43.415 23.8561 44.3437 22.7603C45.2736 21.6634 47.1031 21.8993 47.7409 22.5519C48.3787 23.2046 47.7409 26.1015 46.8913 25.9973Z" fill="#502527"/>
<path d="M47.3487 34C46.8023 32.377 47.3362 29.4852 46.5145 27.499C46.3849 27.1895 46.0423 26.6561 46 26.5784C46.1595 25.9902 46.3176 25.3438 46.4688 25C46.9764 25.3107 47.8619 25.1816 47.8619 25.1816C47.9846 27.6109 48.2647 30.1944 47.3487 34Z" fill="#E2C48F"/>
<path d="M47.4106 32.2674C47.2676 32.2674 47.1311 32.2218 47 32.1394C47.0284 32.8461 47.0779 33.5037 47.3657 34C47.6645 33.2801 47.8662 32.6182 48 32C47.8185 32.171 47.6196 32.2674 47.4106 32.2674Z" fill="#EFE5C3"/>
<path d="M47.9437 29L47.7484 29.0129C47.8405 30.2119 47.2863 32.2245 47 33.1665C47.0344 33.4274 47.1548 33.7988 47.2925 34C47.4055 33.767 47.5726 33.4174 47.6132 33.1526C47.9376 32.0741 48.0912 30.4778 47.9437 29Z" fill="#5E142E"/>
<path d="M46.5023 26.7524C46.368 26.17 45.6415 25.1261 46.2217 24.8126C47.2632 24.2489 46.7211 22.9068 46.9101 22.6966C47.2359 22.3349 49.716 21.6515 49.9205 22.214C50.1215 22.7764 49.9205 27.7564 49.552 27.9572C49.1869 28.158 46.7068 27.6354 46.5023 26.7524Z" fill="#F9AB89"/>
<path d="M49.421 23.9077C49.6161 23.9077 49.8076 23.9247 49.9907 23.9545C50.0145 23.1048 49.9931 22.3805 49.9205 22.1935C49.716 21.6848 47.2351 22.3029 46.9093 22.6301C46.7202 22.8202 47.2625 24.0341 46.2207 24.5439C45.7402 24.7797 46.16 25.4711 46.3919 26C46.7119 24.802 47.944 23.9077 49.421 23.9077Z" fill="#EF7C57"/>
<path d="M46 24.8387C46.2638 25.6098 46.6384 27.8413 46.9221 28.1998C47.2081 28.5583 49.6254 29.1363 49.8016 28.9709C49.9778 28.8056 50 25.9683 50 25.9683C50 25.9683 49.6852 25.7946 49.2851 25.7752C48.67 25.7446 47.8354 25.8182 47.5173 25.4167C46.9897 24.7553 47.4497 22 47.4497 22C47.4497 22 46.4622 22.2209 46.3968 22.3585C46.3292 22.496 46 24.8387 46 24.8387Z" fill="#6B2827"/>
<path d="M46.5711 27.7334C46.5711 26.7141 46.7125 25.7845 46.9434 25.0801C46.7531 24.1229 47 22 47 22C47 22 46.3188 22.2196 46.2737 22.3564C46.2271 22.4931 46 24.8218 46 24.8218C46.1644 25.5124 46.3891 27.3743 46.5749 28C46.5734 27.9116 46.5711 27.8232 46.5711 27.7334Z" fill="#502527"/>
<path d="M41.5191 87H36.4809C36.2168 87 36 87.448 36 88C36 88.552 36.2168 89 36.4809 89H41.5191C41.7841 89 42 88.552 42 88C42 87.448 41.7841 87 41.5191 87Z" fill="#EE9412"/>
<path d="M21 65.5985L21.1048 67C25.5255 64.9566 27 59 27 59C27 59 24.578 64.0806 21 65.5985Z" fill="#A21A35"/>
<path d="M34.0124 52.3547L33.0348 52C32.623 55.3159 36 58 36 58C36 58 33.5861 54.9991 34.0124 52.3547Z" fill="#A21A35"/>
<path d="M27.9965 52L26.6018 52.3873C27.3003 55.9135 24 62 24 62C24 62 28.1371 56.6382 27.9965 52Z" fill="#A21A35"/>
<path d="M40.6792 66L41 64.5945C37.6616 63.636 34 58 34 58C34 58 36.6533 64.0527 40.6792 66Z" fill="#A21A35"/>
<path d="M20 61.8835L20.44 63C23.5797 61.0004 25 57 25 57C25 57 22.6465 61.0473 20 61.8835Z" fill="#A21A35"/>
<path d="M41 60.9779L40.9588 63C38.4281 60.306 37 54 37 54C37 54 39.0119 59.7361 41 60.9779Z" fill="#A21A35"/>
<path d="M41 69.5004C41 69.7767 41.2233 70 41.4989 70C41.776 70 42 69.7767 42 69.5004C42 69.224 41.776 69 41.4989 69C41.2233 69 41 69.224 41 69.5004Z" fill="#EE9412"/>
<path d="M32 69.4996C32 69.776 32.2233 70 32.4989 70C32.7767 70 33 69.776 33 69.4996C33 69.224 32.7767 69 32.4989 69C32.2233 69 32 69.224 32 69.4996Z" fill="#EE9412"/>
<path d="M49.9947 23.5C50.0346 23.2232 49.8433 23 49.5642 23C49.3011 23 49.046 23.2232 49.0062 23.5C48.9623 23.7768 49.1576 24 49.4327 24C49.6998 24 49.9549 23.7768 49.9947 23.5Z" fill="#3C1C25"/>
<path d="M49.0073 23C49.308 23.7214 50.1617 24.907 49.9731 24.9513C49.782 24.9969 48.0416 25.0424 48.0034 24.9286C47.9702 24.8159 48.1919 24.4666 48.1919 24.4666L48.7449 24.5793L49.0073 23Z" fill="#EF7C57"/>
<path d="M49.0792 23.7987C49.4695 24.1343 49.8572 23.9825 49.9167 23.8291C49.9762 23.6773 50.0459 23.1291 49.9594 23.0732C49.8728 23.0173 49.2084 22.9709 49.0895 23.0221C48.9667 23.0748 48.9771 23.7092 49.0792 23.7987Z" fill="#6B2827"/>
<path d="M48.9369 25.9972C48.9369 25.9972 48.7364 25.6582 48.5291 25.5349C48.3409 25.4239 48.1494 25.5349 48.0457 25.4763C48.0175 25.4609 47.9969 25.3407 48.0004 25.2113C48.0038 25.0787 48.0299 24.9863 48.0601 25.0017C48.2778 25.125 48.9514 25.5226 48.9514 25.5226C49.0248 25.5657 49.0111 26.0404 48.9369 25.9972Z" fill="#3C1C25"/>
<path d="M55.7918 34C55.4488 34 55.1945 33.6412 55.0506 33.5132C54.9184 33.3959 55.0614 32.9877 55.2932 33.0003C55.5266 33.0129 55.914 33.2437 55.9801 33.4492C56.047 33.6548 55.9357 34 55.7918 34Z" fill="#F9AB89"/>
<path d="M55.5865 35C54.9009 35 54.3896 34.6412 54.1013 34.5132C53.8365 34.3949 54.1231 33.9877 54.5874 34.0003C55.0551 34.0129 55.8279 34.2437 55.9603 34.4483C56.0927 34.6538 55.8748 35 55.5865 35Z" fill="#F9AB89"/>
<path d="M54.7933 36C54.4479 36 54.1948 35.2825 54.0507 35.0265C53.9182 34.7918 54.0616 33.9754 54.2937 34.0006C54.5276 34.0258 54.9139 34.4893 54.9802 34.8985C55.0464 35.3077 54.9374 36 54.7933 36Z" fill="#F9AB89"/>
<path d="M88.9424 70.9216C89.1267 70.1262 88.8538 69.2933 88.3331 69.0603C87.8116 68.8286 87.2422 69.2848 87.0579 70.0791C86.8728 70.8733 87.1466 71.7062 87.6655 71.9391C88.1862 72.1721 88.7573 71.7158 88.9424 70.9216Z" fill="#61152E"/>
<path d="M87 66.9626C87.2054 66.9872 87.4164 67 87.6312 67C88.5612 67 89.4024 66.7663 90 66.3917C89.845 65.0427 89.7423 64 89.7423 64L87.6144 64.2284C87.6144 64.2284 87.1914 65.3319 87 66.9626Z" fill="#E11643"/>
<path d="M88.9418 70.2808C89.1275 69.7505 88.854 69.1968 88.3323 69.0404C87.8123 68.8856 87.2433 69.189 87.0559 69.7192C86.8752 70.2495 87.147 70.8047 87.6654 70.9596C88.1888 71.1144 88.7594 70.811 88.9418 70.2808Z" fill="#A21A35"/>
</svg>
