<svg width="120" height="120" viewBox="0 0 120 120" fill="none" xmlns="http://www.w3.org/2000/svg">
<g clip-path="url(#clip0_25_100)">
<path d="M85.2271 88.6381C87.2554 88.9151 92.6545 90.3414 97.3858 93.4963C101.122 95.9878 103.832 99.235 104.422 101.928C103.182 103.234 97.7468 104.769 97.7468 104.769L82.9434 101.627L85.2271 88.6381Z" fill="#BCBBB9"/>
<path d="M96.9093 100.471C94.0238 96.7078 86.641 97.4369 84.0524 95.3213L83.1523 100.44C87.6494 100.208 92.4152 100.281 96.9093 100.471Z" fill="#999899"/>
<path d="M97.386 93.4963C92.6547 90.3414 87.2555 88.9151 85.2272 88.6381L85.0078 89.8865C87.9678 89.6244 96.3685 92.7525 100.89 96.3385C99.8792 95.3361 98.6958 94.3698 97.386 93.4963Z" fill="#DFDFDD"/>
<path d="M104.422 101.928C104.031 100.141 102.706 98.1108 100.768 96.2188C101.92 97.4079 102.913 100.537 101.643 103.45C102.826 102.977 103.94 102.435 104.422 101.928Z" fill="#999899"/>
<path d="M83.0407 101.562L97.7444 104.683C98.1017 104.581 103.103 103.131 104.331 101.902C103.724 99.2299 101.051 96.0404 97.3399 93.5659C92.4798 90.3251 87.0814 88.9935 85.2961 88.7325L83.0407 101.562ZM97.7502 104.856L97.73 104.851L82.8477 101.692L85.1593 88.5446L85.2389 88.5553C86.255 88.6941 88.1236 89.1226 90.3217 89.9093C92.9147 90.8373 95.3736 92.0539 97.4326 93.4267C101.199 95.9377 103.908 99.1881 104.504 101.91L104.513 101.953L104.483 101.985C103.242 103.294 97.993 104.787 97.7702 104.85L97.7502 104.856Z" fill="#4C4D4E"/>
<path d="M45.1834 60.7296C46.6995 60.1497 49.6909 58.9761 55.373 59.6261C61.0553 60.2762 69.9052 57.7146 76.2615 63.5652C82.6175 69.4159 85.2347 83.1939 85.7248 89.2146C80.9905 92.3459 47.9093 92.4182 47.9093 92.4182L37.46 90.1789L40.9031 66.3435L45.1834 60.7296Z" fill="#BCBBB9"/>
<path d="M76.2614 63.5651C74.4323 61.8818 72.397 60.8947 70.2898 60.3273C70.3798 60.4441 68.8401 64.7344 68.8736 64.8348C71.1168 66.2092 73.5412 70.8545 75.0863 75.2074C75.1198 75.3747 76.3013 86.371 75.7478 91.2602C80.4842 90.7924 84.3314 90.1357 85.7246 89.2146C85.2345 83.1938 82.6174 69.4158 76.2614 63.5651Z" fill="#999899"/>
<path d="M37.554 90.1136L47.9179 92.3345C48.2357 92.3336 56.4082 92.3058 65.0383 91.907C70.1815 91.6694 74.4782 91.3482 77.8093 90.9531C81.9095 90.4662 84.5427 89.867 85.6374 89.1714C85.3852 86.1268 84.5915 81.1767 83.1131 76.3506C81.3357 70.5508 78.9471 66.1511 76.2049 63.6267C71.5999 59.3882 65.7516 59.5862 60.5918 59.7616C58.6997 59.8258 56.9125 59.8863 55.3633 59.7091C49.7594 59.068 46.8322 60.1882 45.2597 60.7897L45.2356 60.7991L40.9828 66.3769L37.554 90.1136ZM47.9005 92.5018L47.8919 92.4999L37.3662 90.2445L40.8235 66.31L45.1312 60.6599L45.2001 60.6335C45.9576 60.3438 47.1025 59.9054 48.7524 59.6255C50.7163 59.2922 52.947 59.2643 55.3824 59.5431C56.9191 59.7188 58.7004 59.6585 60.586 59.5943C63.0767 59.5099 65.8996 59.414 68.611 59.876C71.7209 60.406 74.242 61.5927 76.3181 63.5036C77.81 64.8769 79.1925 66.7787 80.427 69.1559C81.4897 71.2022 82.4472 73.6064 83.2729 76.3015C84.7635 81.1666 85.5598 86.1585 85.8081 89.2076L85.812 89.2568L85.7709 89.2842C84.6798 90.0059 82.0079 90.6232 77.8287 91.1191C74.4936 91.5152 70.1929 91.8363 65.0454 92.0743C56.283 92.4791 47.9923 92.5016 47.9095 92.5018H47.9005Z" fill="#4C4D4E"/>
<path d="M30.6463 86.2064C28.4071 86.2426 24.7899 86.2969 23.0228 87.0975C20.0466 88.4455 19.1076 91.4068 16.8745 92.6106C15.9355 90.468 14.1779 87.603 9.26637 87.94C3.63171 88.3267 0.923832 90.2994 -0.376323 93.7064C-1.67635 97.1131 -0.671172 101.842 2.65737 106.322C6.41329 111.379 10.6691 112.569 13.8168 112.39C17.3019 112.191 19.4146 109.952 20.3897 107.063C22.5325 105.66 25.588 107.55 27.5393 107.406C28.66 105.889 30.6463 86.2064 30.6463 86.2064Z" fill="#BCBBB9"/>
<path d="M17.1665 93.2587C20.115 91.4814 20.3537 89.0357 23.2851 87.7077C24.9113 86.971 28.4126 86.7806 30.5594 87.0439C30.6151 86.5099 30.6458 86.2064 30.6458 86.2064C28.4066 86.2426 24.7894 86.2969 23.0223 87.0975C20.0461 88.4455 19.1071 91.4068 16.874 92.6106C16.9076 92.5926 17.1341 93.2785 17.1665 93.2587Z" fill="#DFDFDD"/>
<path d="M30.6463 86.2064C26.8743 87.9349 26.7291 96.1432 24.1654 98.3737C22.187 100.095 19.1325 98.608 16.8745 92.6106C15.9355 90.468 14.1779 87.603 9.26637 87.94C3.63171 88.3267 0.923832 90.2994 -0.376323 93.7064C-1.67635 97.1131 -0.671172 101.842 2.65737 106.322C6.41329 111.379 10.6691 112.569 13.8168 112.39C17.3019 112.191 19.4146 109.952 20.3897 107.063C22.5325 105.66 25.588 107.55 27.5393 107.406C28.66 105.889 30.6463 86.2064 30.6463 86.2064Z" fill="#999899"/>
<path d="M10.051 87.9962C9.80047 87.9962 9.54104 88.0048 9.27181 88.0236C4.02335 88.3835 1.07186 90.1454 -0.29848 93.7362C-1.6351 97.2389 -0.505239 101.925 2.72424 106.273C6.85747 111.837 11.445 112.441 13.8118 112.306C16.915 112.129 19.2228 110.258 20.3101 107.036L20.3193 107.009L20.3435 106.993C21.7363 106.081 23.5152 106.532 25.0846 106.93C25.968 107.154 26.8033 107.366 27.4931 107.325C28.552 105.685 30.4034 87.7572 30.5532 86.2915C28.3732 86.3269 24.7834 86.3915 23.057 87.1734C21.435 87.9085 20.434 89.1159 19.466 90.284C18.6766 91.2365 17.9311 92.1362 16.9139 92.6846L16.834 92.7274L16.7976 92.6445C15.8379 90.4543 14.2042 87.9962 10.051 87.9962ZM13.2047 112.491C11.5794 112.491 9.97586 112.123 8.42921 111.395C6.27797 110.382 4.31336 108.692 2.58988 106.372C0.972792 104.195 -0.156937 101.864 -0.676973 99.6305C-1.18525 97.448 -1.1084 95.3893 -0.45466 93.6763C0.231489 91.8786 1.2879 90.5516 2.77495 89.6198C4.36433 88.6237 6.48578 88.047 9.2603 87.8566C11.4508 87.706 13.2513 88.1851 14.6123 89.2802C15.8025 90.2381 16.4679 91.4891 16.9138 92.4935C17.8628 91.9566 18.5795 91.0917 19.3372 90.1772C20.3174 88.9948 21.3308 87.772 22.988 87.0212C24.7614 86.2178 28.4215 86.1586 30.6083 86.1234L30.7386 86.1215L30.7291 86.2148C30.6479 87.0195 28.7276 105.938 27.6062 107.456L27.5834 107.486L27.5451 107.489C26.8206 107.543 25.9574 107.324 25.0434 107.092C23.5167 106.705 21.7874 106.267 20.4592 107.117C19.3447 110.391 16.9883 112.293 13.8213 112.473C13.6155 112.485 13.4099 112.491 13.2047 112.491Z" fill="#4C4D4E"/>
<path d="M19.1141 102.249C18.7419 98.3417 17.6332 94.6325 16.7969 92.6432L16.9511 92.5786C17.6135 94.1541 18.4459 96.8023 18.952 99.7747C19.2116 101.385 19.1141 102.249 19.1141 102.249Z" fill="#4C4D4E"/>
<path d="M20.4537 107.132L20.2988 107.069C20.4919 106.595 20.6537 105.391 20.6552 105.378C20.6552 105.378 20.773 106.119 20.4537 107.132Z" fill="#4C4D4E"/>
<path d="M16.6682 92.1604C17.1802 91.378 16.3083 88.5178 14.1897 87.5307C12.0708 86.5437 10.0133 87.2701 9.77163 87.9162C9.52985 88.5622 9.87985 90.0468 12.1311 91.4912C14.3102 92.8896 16.3504 92.6455 16.6682 92.1604Z" fill="#EAE7D8"/>
<path d="M14.7884 87.8796C15.7993 89.5073 15.1302 92.5413 12.6621 91.8019C14.6325 92.8478 16.3767 92.6058 16.6684 92.1603C17.1291 91.4562 16.4691 89.07 14.7884 87.8796Z" fill="#CAC4B1"/>
<path d="M12.0456 87.1299C11.4602 87.1299 10.9466 87.2397 10.5602 87.3976C10.1872 87.5501 9.92193 87.7553 9.8507 87.9456C9.71687 88.3033 9.80666 88.8339 10.091 89.3649C10.474 90.0799 11.1953 90.7908 12.1771 91.4209C13.1142 92.0221 14.1536 92.3871 15.1039 92.4487C15.9078 92.5006 16.4645 92.32 16.599 92.1145C16.7755 91.8448 16.7706 91.2764 16.5866 90.6303C16.2863 89.5764 15.4898 88.2283 14.155 87.6067C13.415 87.2618 12.6873 87.1299 12.0456 87.1299ZM15.3744 92.6247C15.2829 92.6247 15.1889 92.6217 15.093 92.6157C14.115 92.5525 13.0472 92.178 12.0866 91.5618C9.68354 90.0197 9.47077 88.4837 9.694 87.887C9.78261 87.6502 10.0752 87.4154 10.4969 87.2427C11.3394 86.8981 12.7615 86.7726 14.2257 87.4548C15.6115 88.1006 16.4371 89.4951 16.7475 90.5845C16.9474 91.2864 16.9442 91.8923 16.739 92.2061C16.5687 92.4661 16.0373 92.6247 15.3744 92.6247Z" fill="#6D6A60"/>
<path d="M8.89556 87.968C8.78983 87.0535 6.74118 85.7216 4.1329 86.6353C1.88703 87.4222 1.49456 89.8219 1.87606 90.3849C2.25742 90.9477 3.84929 91.0578 5.76332 90.3596C7.58417 89.6954 9.00195 88.8877 8.89556 87.968Z" fill="#EAE7D8"/>
<path d="M8.89566 87.968C8.79869 87.1288 7.06514 85.938 4.76465 86.4543C5.41917 86.4603 6.0137 86.7779 6.49832 87.2322C7.17663 87.9384 7.23426 88.9074 7.07455 89.8165C8.215 89.2705 8.9746 88.6502 8.89566 87.968Z" fill="#CAC4B1"/>
<path d="M5.88321 86.4136C5.32083 86.4136 4.73532 86.5129 4.16065 86.7143C2.68393 87.2316 2.14886 88.4247 1.98732 88.9135C1.77063 89.5696 1.80213 90.1268 1.94537 90.3382C2.29171 90.8491 3.83888 90.9726 5.73474 90.281C7.8639 89.5044 8.8994 88.7295 8.81248 87.9777C8.77524 87.6549 8.46026 87.2717 7.99067 86.9777C7.3934 86.6036 6.66059 86.4136 5.88321 86.4136ZM3.31361 90.9294C3.29009 90.9294 3.26683 90.9294 3.24369 90.9287C2.52683 90.9177 2.01647 90.7414 1.80683 90.4319C1.61 90.1415 1.61889 89.4954 1.82853 88.861C1.99778 88.3488 2.55846 87.0984 4.10524 86.5564C5.52171 86.0603 7.00745 86.1646 8.07941 86.8359C8.5988 87.161 8.93508 87.5806 8.97873 87.9587C9.07701 88.8092 8.03472 89.6202 5.79199 90.4382C4.92117 90.7561 4.04433 90.9294 3.31361 90.9294Z" fill="#6D6A60"/>
<path d="M0.71825 91.6468C-0.30457 91.241 -1.51951 92.8516 -1.83253 94.6333C-2.08882 96.0924 -1.7413 97.8138 -0.884072 97.8124C-0.026712 97.8114 0.659438 96.5715 1.06877 95.0303C1.47798 93.4896 1.35761 91.9007 0.71825 91.6468Z" fill="#EAE7D8"/>
<path d="M-1.869 94.873C-2.04949 96.2742 -1.69478 97.8137 -0.884212 97.8124C-0.243675 97.8117 0.301324 97.119 0.706741 96.126C-0.494348 96.751 -1.51482 96.3428 -1.869 94.873Z" fill="#CAC4B1"/>
<path d="M0.387249 91.6668C0.222312 91.6668 0.0503171 91.7162 -0.126775 91.8153C-0.862066 92.2262 -1.52979 93.3908 -1.75053 94.6476C-1.94631 95.762 -1.77563 96.9813 -1.35348 97.4831C-1.21638 97.646 -1.05889 97.7287 -0.88533 97.7287C-0.885068 97.7287 -0.884937 97.7287 -0.884545 97.7287C-0.164546 97.7277 0.535327 96.7109 0.987401 95.0088C1.39256 93.4835 1.25219 91.9488 0.686933 91.7243C0.589957 91.6858 0.489976 91.6668 0.387249 91.6668ZM-0.88546 97.896C-1.11065 97.896 -1.31113 97.7933 -1.48156 97.5908C-1.93978 97.0458 -2.1221 95.7959 -1.91534 94.6187C-1.68649 93.3159 -0.984527 92.1031 -0.208329 91.669C0.12037 91.4858 0.45129 91.4509 0.748621 91.569C1.48927 91.8631 1.53318 93.6057 1.14907 95.0521C0.669289 96.8584 -0.0718829 97.895 -0.884415 97.896C-0.884676 97.896 -0.885068 97.896 -0.88546 97.896Z" fill="#6D6A60"/>
<path d="M12.7104 99.4023C14.2695 102.467 14.0466 105.707 12.213 106.64C10.3793 107.573 7.62897 105.845 6.07004 102.78C4.51111 99.7161 4.73381 96.4756 6.56746 95.5428C8.40112 94.6101 11.1515 96.3378 12.7104 99.4023Z" fill="#BCBBB9"/>
<path d="M12.7104 99.4024C12.6729 99.3288 12.6343 99.2557 12.5954 99.1836C13.6474 102.204 13.1397 104.982 11.517 105.489C9.98998 105.967 7.80554 104.908 6.36828 102.083C4.96749 99.3297 5.12746 96.4222 6.70182 95.4807C6.6566 95.5001 6.61164 95.5206 6.56746 95.5429C4.73381 96.4757 4.51111 99.7162 6.07004 102.781C7.62897 105.845 10.3793 107.573 12.213 106.64C14.0466 105.707 14.2695 102.467 12.7104 99.4024Z" fill="#999899"/>
<path d="M7.66102 95.3726C7.28266 95.3726 6.9273 95.4536 6.60526 95.6175C4.81565 96.5279 4.60889 99.7241 6.14456 102.743C7.40094 105.213 9.44083 106.81 11.1212 106.81C11.4944 106.81 11.8497 106.731 12.175 106.566C13.9646 105.655 14.1713 102.459 12.6358 99.4405C11.8885 97.9716 10.845 96.7654 9.69738 96.0445C8.98797 95.5988 8.29254 95.3726 7.66102 95.3726ZM11.1195 106.978C10.4563 106.978 9.73084 106.743 8.99398 106.28C7.82099 105.543 6.75609 104.314 5.99544 102.819C5.23466 101.323 4.86806 99.7386 4.96295 98.3567C5.05901 96.9592 5.61538 95.9334 6.52946 95.4682C7.44354 95.0032 8.60019 95.1574 9.78638 95.9029C10.9592 96.6397 12.0241 97.8692 12.7849 99.3644C13.5456 100.86 13.9123 102.445 13.8173 103.826C13.7212 105.224 13.165 106.25 12.2508 106.715C11.9047 106.891 11.5236 106.978 11.1195 106.978Z" fill="#4C4D4E"/>
<path d="M25.6596 91.986C24.8013 90.2695 22.6051 88.8272 21.0625 88.4755L21.0997 88.3123C21.8908 88.4929 22.8305 88.9453 23.6778 89.5539C24.0294 89.8065 24.4461 90.1441 24.8401 90.5593C25.5745 91.3252 25.6596 91.986 25.6596 91.986Z" fill="#4C4D4E"/>
<path d="M25.252 89.5964C25.2428 89.5837 24.3097 88.323 23.0791 87.7077C23.0791 87.7077 23.4615 87.688 24.2658 88.3123C24.9575 88.8489 25.252 89.5964 25.252 89.5964Z" fill="#4C4D4E"/>
<path d="M26.8425 90.492C26.7558 89.2974 25.9572 87.5572 24.6475 86.6859L24.7401 86.5468C25.5651 87.0954 26.194 87.9773 26.5798 88.862C27.0073 89.8196 26.8425 90.492 26.8425 90.492Z" fill="#4C4D4E"/>
<path d="M45.4384 60.6403C43.7592 61.2361 40.134 62.278 38.2058 66.7768C36.5375 70.6697 35.417 76.0243 33.792 79.4912C32.1669 82.9578 29.3502 85.9372 27.8335 91.0833C26.3167 96.2295 26.9183 102.861 26.4566 105.095C25.7945 108.297 23.134 112.245 23.0257 113.437C22.9174 114.629 25.5175 117.193 32.0903 117.843C38.6631 118.493 41.408 116.832 42.3469 115.062C43.2861 113.292 42.7443 110.042 42.7443 110.042L43.647 84.6899C44.3035 82.9891 45.4334 78.8481 45.5293 74.7919C45.5494 73.9385 45.5213 73.1334 45.3554 72.275L45.4384 60.6403Z" fill="#BCBBB9"/>
<path d="M41.7121 84.9738C40.8359 87.3162 39.8011 90.7858 39.4347 94.7937C38.9936 99.6167 38.9927 104.657 39.0937 107.775C39.2864 113.72 38.8514 115.973 36.46 117.921C39.9626 117.625 41.6509 116.373 42.3469 115.062C43.286 113.292 42.7443 110.042 42.7443 110.042L43.647 84.6898C44.3035 82.989 45.4334 78.848 45.5293 74.7918C45.5494 73.9384 45.5213 73.1333 45.3553 72.2749C45.0636 77.0052 43.2217 80.9401 41.7121 84.9738Z" fill="#999899"/>
<path d="M28.681 91.2472C30.1979 86.1011 33.1436 83.2381 34.7687 79.7712C36.3937 76.3043 37.3847 71.1842 39.0529 67.2913C40.6382 63.5927 43.5253 62.003 45.435 61.2234L45.439 60.6403C43.7598 61.2361 40.1346 62.278 38.2065 66.7768C36.5382 70.6697 35.4177 76.0243 33.7926 79.4912C32.1676 82.9578 29.3508 85.9372 27.8341 91.0833C26.3174 96.2295 26.919 102.861 26.4572 105.095C25.7951 108.297 23.1347 112.245 23.0264 113.437C23.4281 112.828 26.6026 108.424 27.2647 105.221C27.7266 102.988 27.1643 96.3935 28.681 91.2472Z" fill="#DFDFDD"/>
<path d="M34.821 118.07C33.9681 118.07 33.0547 118.022 32.0822 117.926C28.411 117.563 26.2097 116.632 25.0095 115.915C23.6882 115.125 22.8767 114.15 22.9422 113.429C22.989 112.915 23.4768 111.942 24.0946 110.71C24.9398 109.025 25.9918 106.928 26.3745 105.077C26.5352 104.3 26.5654 103.005 26.6037 101.365C26.6722 98.4293 26.766 94.4083 27.7531 91.0595C28.7261 87.7583 30.2608 85.3 31.6151 83.1313C32.3953 81.8817 33.1323 80.701 33.7163 79.4556C34.5603 77.6549 35.2546 75.3866 35.9897 72.9849C36.6475 70.8355 37.3276 68.6129 38.1287 66.7439C39.9678 62.453 43.3217 61.2877 45.1237 60.6617C45.2244 60.6265 45.3201 60.5934 45.4105 60.5613L45.4663 60.7189C45.3756 60.7509 45.2797 60.7844 45.1786 60.8195C43.4009 61.4372 40.0922 62.5868 38.2825 66.8098C37.4853 68.6705 36.806 70.8887 36.1496 73.0338C35.4128 75.4413 34.7166 77.7152 33.8678 79.5266C33.2796 80.7813 32.5399 81.9656 31.7569 83.22C30.4085 85.3798 28.8802 87.8276 27.9135 91.1071C26.9328 94.4345 26.8392 98.4424 26.771 101.369C26.7325 103.017 26.702 104.319 26.5382 105.111C26.1511 106.984 25.0938 109.092 24.2441 110.786C23.6585 111.953 23.1527 112.961 23.1088 113.445C23.0045 114.592 25.608 117.118 32.0985 117.76C35.0853 118.055 37.5097 117.894 39.3044 117.281C40.7189 116.797 41.7458 116.017 42.2732 115.023C43.1879 113.299 42.6669 110.088 42.6616 110.056L42.6601 110.048L42.6605 110.039L43.5639 84.6727L43.5689 84.6594C44.197 83.0324 45.8732 77.2645 45.3552 72.275C45.3552 72.275 45.6186 72.6503 45.6173 73.994C45.6396 76.0406 45.371 78.0427 45.107 79.4951C44.6931 81.7743 44.1254 83.6788 43.7301 84.7066L42.8278 110.037C42.8647 110.26 43.3475 113.355 42.4207 115.101C41.8732 116.133 40.8143 116.942 39.3583 117.439C38.128 117.859 36.6083 118.07 34.821 118.07Z" fill="#4C4D4E"/>
<path d="M39.094 92.4844C36.5662 90.5342 32.8223 90.943 31.8506 91.6433C31.8506 91.6433 32.0209 91.197 33.2588 90.9915C33.7664 90.9102 34.3378 90.8768 34.9171 90.9019C35.9934 90.9488 37.0179 91.1866 37.9118 91.5888C38.8909 92.0445 39.094 92.4844 39.094 92.4844Z" fill="#4C4D4E"/>
<path d="M36.4426 94.058C35.7146 94.0024 34.8387 93.9087 33.9978 93.7518C33.0389 93.5836 32.7422 93.2773 32.7422 93.2773C34.8721 93.9398 38.1024 93.9713 38.1349 93.9716C38.1349 93.9716 37.4115 94.132 36.4426 94.058Z" fill="#4C4D4E"/>
<path d="M34.759 96.2826C34.2314 96.2826 33.7095 96.2381 33.233 96.1468C32.2822 95.9731 32.0352 95.5713 32.0352 95.5713C32.7766 95.9805 33.9975 96.1792 35.3003 96.1026C36.5962 96.0263 37.7073 95.6961 38.2731 95.2194C38.2731 95.2194 38.135 95.5857 37.2554 95.9235C36.5296 96.1595 35.6366 96.2826 34.759 96.2826Z" fill="#4C4D4E"/>
<path d="M27.7686 109.86C27.7686 109.86 27.9029 109.365 28.9822 108.825C29.8126 108.423 30.8332 108.149 31.9269 108.048C33.2487 107.926 34.5587 108.065 35.7525 108.444C37.087 108.871 37.4173 109.368 37.4173 109.368C35.8598 108.442 33.9153 108.032 31.9422 108.214C30.185 108.376 28.6249 108.992 27.7686 109.86Z" fill="#4C4D4E"/>
<path d="M21.8345 114.448C21.7783 113.606 22.7012 111.487 24.4106 111.703C26.1201 111.92 27.8638 115.607 27.1415 116.726C26.595 117.573 21.9308 115.893 21.8345 114.448Z" fill="#EAE7D8"/>
<path d="M25.1693 112.013C26.4849 113.51 25.9396 116.575 24.5703 116.542C25.7356 116.966 26.8865 117.122 27.1413 116.726C27.7559 115.774 26.5852 112.963 25.1693 112.013Z" fill="#CAC4B1"/>
<path d="M21.9177 114.443C21.9732 115.276 23.7472 116.285 25.3691 116.704C26.2607 116.935 26.9129 116.926 27.071 116.681C27.3661 116.224 27.2324 115.232 26.7304 114.154C26.2573 113.138 25.3632 111.908 24.4 111.786C23.8434 111.716 23.3335 111.894 22.8847 112.317C22.2041 112.958 21.8858 113.964 21.9177 114.443ZM26.4629 117.037C26.0526 117.037 25.5887 116.934 25.3273 116.866C23.9256 116.504 21.8197 115.486 21.7508 114.454C21.7117 113.866 22.0902 112.836 22.7701 112.195C23.2501 111.743 23.821 111.544 24.421 111.62C25.4518 111.751 26.391 113.029 26.882 114.083C27.3004 114.981 27.6067 116.159 27.2116 116.772C27.0828 116.971 26.7899 117.037 26.4629 117.037Z" fill="#6D6A60"/>
<path d="M27.5405 116.94C27.6261 115.831 29.3278 113.455 31.9463 113.744C34.5644 114.033 35.8395 116.72 35.6849 117.969C35.6059 118.608 33.391 118.75 31.2599 118.547C29.1809 118.35 27.4835 117.677 27.5405 116.94Z" fill="#EAE7D8"/>
<path d="M32.4688 113.837C34.4562 115.015 33.9787 118.025 33.3119 118.63C34.6178 118.603 35.6322 118.398 35.6854 117.969C35.8293 116.806 34.7338 114.397 32.4688 113.837Z" fill="#CAC4B1"/>
<path d="M27.6236 116.946C27.5732 117.598 29.1739 118.265 31.2676 118.464C33.5954 118.685 35.5398 118.459 35.6016 117.959C35.6732 117.38 35.4119 116.329 34.6684 115.389C34.1706 114.759 33.2927 113.977 31.9366 113.827C30.6055 113.68 29.6122 114.241 29.0132 114.737C28.1582 115.445 27.667 116.385 27.6236 116.946ZM33.0096 118.714C32.3733 118.714 31.7408 118.677 31.2518 118.631C29.315 118.446 27.3895 117.804 27.4568 116.934C27.5028 116.337 28.0156 115.346 28.9066 114.608C29.5304 114.091 30.5656 113.508 31.9551 113.661C33.3683 113.817 34.2823 114.63 34.7999 115.285C35.5769 116.268 35.8459 117.347 35.7676 117.98C35.6966 118.552 34.3452 118.714 33.0096 118.714Z" fill="#6D6A60"/>
<path d="M36.2202 117.94C36.0005 117.175 36.7499 114.906 38.3267 114.321C39.6537 113.829 41.8646 114.523 42.2143 115.292C42.5643 116.061 41.3604 117.242 39.8437 117.867C38.3267 118.492 36.405 118.583 36.2202 117.94Z" fill="#EAE7D8"/>
<path d="M42.214 115.292C41.9017 114.606 40.1085 113.98 38.7832 114.202C40.179 114.567 41.5952 116.017 41.1125 117.164C41.9513 116.557 42.4568 115.826 42.214 115.292Z" fill="#CAC4B1"/>
<path d="M39.3669 114.241C38.9891 114.241 38.6415 114.294 38.3554 114.399C37.4471 114.736 36.9124 115.609 36.6745 116.099C36.3048 116.861 36.2064 117.59 36.3001 117.917C36.3271 118.012 36.4065 118.091 36.5353 118.153C37.1429 118.447 38.6127 118.284 39.8112 117.79C40.9321 117.328 41.8605 116.574 42.1211 115.914C42.2087 115.693 42.2144 115.495 42.1379 115.327C41.9813 114.982 41.3833 114.624 40.6145 114.414C40.1902 114.299 39.7619 114.241 39.3669 114.241ZM37.3978 118.463C37.013 118.463 36.6851 118.411 36.4627 118.304C36.289 118.22 36.1802 118.105 36.1392 117.963C36.0177 117.54 36.1759 116.744 36.524 116.026C36.7728 115.513 37.3339 114.6 38.2972 114.243C38.9141 114.014 39.7971 114.018 40.6586 114.253C41.4857 114.479 42.1111 114.864 42.2901 115.258C42.386 115.469 42.3817 115.71 42.2766 115.976C42.0004 116.675 41.035 117.466 39.875 117.944C39.0651 118.278 38.1289 118.463 37.3978 118.463Z" fill="#6D6A60"/>
<path d="M53.8537 80.1024C51.0097 79.9718 45.9344 80.3559 43.1634 84.5289C39.7812 89.6221 39.2776 96.6079 39.6025 102.241C39.9274 107.875 41.6612 113.834 49.7182 115.514C57.5036 117.136 71.5954 116.109 77.6633 111.558C83.7312 107.008 86.6598 97.5825 85.6815 88.8038L53.8537 80.1024Z" fill="#BCBBB9"/>
<path d="M43.6529 85.2916C46.4239 81.1188 50.5285 80.5741 53.8537 80.1024C51.0097 79.9718 45.9344 80.3559 43.1634 84.5289C39.7812 89.6221 39.2776 96.6079 39.6025 102.241C39.6681 103.376 39.7906 104.524 40.0104 105.647C39.435 99.5447 40.271 90.385 43.6529 85.2916Z" fill="#DFDFDD"/>
<path d="M85.6813 88.8039L74.9764 85.8772C74.9633 86.0389 63.0239 110.553 61.4828 110.754C53.567 114.659 42.5262 112.013 40.0791 105.983C41.0056 110.305 43.4457 114.206 49.718 115.514C57.5034 117.136 71.5952 116.109 77.6631 111.559C83.731 107.008 86.6596 97.5825 85.6813 88.8039Z" fill="#999899"/>
<path d="M57.7873 116.32C54.8177 116.32 52.0066 116.076 49.701 115.596C47.7727 115.193 46.1025 114.52 44.737 113.593C43.5014 112.754 42.4763 111.681 41.6894 110.404C40.4096 108.327 39.72 105.735 39.5186 102.246C39.329 98.9542 39.4605 95.9002 39.9101 93.169C40.4752 89.7353 41.5462 86.8127 43.0937 84.4824C44.3203 82.6351 46.0989 81.3386 48.38 80.629C49.367 80.3222 50.3597 80.1485 51.2958 80.0518C53.2467 79.8337 53.8794 80.1024 53.8794 80.1024C50.5842 80.1024 45.8951 80.5661 43.2331 84.575C39.7606 89.8038 39.3876 97.0656 39.6859 102.237C39.9639 107.06 41.3086 113.675 49.7351 115.432C52.0296 115.91 54.8293 116.153 57.7864 116.153C59.927 116.153 62.1496 116.026 64.3247 115.768C70.1346 115.079 74.8539 113.561 77.6129 111.492C83.4159 107.139 86.6248 98.0254 85.598 88.8131L85.7642 88.7948C86.0082 90.9805 86.0125 93.2135 85.7777 95.4315C85.5437 97.6413 85.0781 99.7817 84.3939 101.793C82.9531 106.028 80.6428 109.428 77.7133 111.625C74.9313 113.712 70.1833 115.242 64.3445 115.934C62.1641 116.192 59.934 116.32 57.7873 116.32Z" fill="#4C4D4E"/>
<path d="M65.2781 73.8284C64.5139 74.8026 63.9077 76.8887 64.0883 79.2364C64.2687 81.5838 64.6661 83.2089 64.5458 85.4961C64.4598 87.1295 63.6909 95.5723 63.2214 99.8338C62.752 104.095 61.9936 106.792 61.3435 108.887C60.6934 110.981 58.5508 114.183 58.5508 115.291C58.5508 116.422 61.1631 118.761 68.2438 118.601C75.1633 118.445 77.6431 115.989 78.0287 115.026C78.4137 114.063 78.51 112.629 78.0287 111.275C78.0287 109.151 80.4861 100.725 80.4861 93.3042C80.4861 85.0748 79.57 79.0909 76.4105 75.2075L65.2781 73.8284Z" fill="#BCBBB9"/>
<path d="M64.1793 100.264C64.6491 96.0026 65.3872 87.2483 65.4732 85.6152C65.5937 83.3277 65.0961 81.5664 64.9154 79.219C64.7351 76.8716 64.6886 75.084 65.2781 73.8284C64.5139 74.8026 63.9077 76.8887 64.0883 79.2364C64.2687 81.5838 64.6661 83.2089 64.5458 85.4961C64.4598 87.1295 63.6909 95.5723 63.2214 99.8338C62.752 104.095 61.9936 106.792 61.3435 108.887C60.6934 110.981 58.5508 114.183 58.5508 115.291C58.5508 114.183 61.1612 111.4 62.0213 109.383C62.9394 107.229 63.71 104.526 64.1793 100.264Z" fill="#DFDFDD"/>
<path d="M80.4863 93.3042C80.4863 85.0748 79.5701 79.0905 76.4107 75.2075C76.4107 75.2075 75.0206 75.0031 75.0346 75.0372C76.9535 79.7584 78.7588 84.5218 78.4383 92.6858C78.1074 101.117 75.8453 106.56 75.5331 109.214C75.2776 111.386 77.0136 115.237 73.541 117.885C76.5194 117.044 77.7648 115.685 78.0284 115.026C78.4139 114.063 78.5102 112.629 78.0284 111.275C78.0284 109.151 80.4863 100.725 80.4863 93.3042Z" fill="#999899"/>
<path d="M67.5563 118.693C65.4859 118.693 63.6749 118.473 62.1646 118.039C60.4685 117.551 59.5625 116.911 59.1011 116.46C58.6919 116.06 58.4668 115.644 58.4668 115.291C58.4668 114.677 59.0669 113.511 59.7619 112.161C60.3527 111.014 60.9637 109.827 61.2632 108.862C61.9711 106.581 62.6881 103.907 63.1378 99.8244C63.6086 95.5525 64.3751 87.1376 64.4618 85.4917C64.541 83.9829 64.3915 82.7411 64.2332 81.427C64.1506 80.7431 64.0656 80.0357 64.0044 79.2428C63.8819 77.6505 64.1379 76.1486 64.5354 75.0164C64.8648 74.0943 65.2777 73.8284 65.2777 73.8284C64.6012 74.8809 63.9966 76.9593 64.1714 79.2297C64.2319 80.0194 64.3168 80.7246 64.3992 81.4069C64.5584 82.7284 64.7089 83.9771 64.6287 85.5005C64.542 87.1479 63.7752 95.569 63.3041 99.8429C62.8528 103.939 62.1334 106.623 61.4231 108.911C61.119 109.891 60.5047 111.084 59.9105 112.238C59.254 113.513 58.6341 114.718 58.6341 115.291C58.6341 115.595 58.8469 115.977 59.2182 116.34C59.6659 116.778 60.5485 117.4 62.2107 117.878C63.8699 118.356 65.899 118.57 68.2419 118.517C75.1124 118.362 77.5797 115.922 77.9503 114.995C78.2862 114.156 78.4622 112.745 77.9493 111.304L77.9443 111.29V111.275C77.9443 110.527 78.2484 108.993 78.6336 107.051C79.38 103.286 80.4022 98.1305 80.4022 93.3042C80.4022 84.2317 79.2458 78.9889 76.4102 75.2075C76.4102 75.2075 76.882 75.4608 77.6241 76.7643C78.5763 78.4525 79.2739 80.4112 79.741 82.6984C80.3061 85.4657 80.5694 88.8356 80.5694 93.3042C80.5694 98.147 79.5453 103.312 78.7979 107.083C78.417 109.004 78.1156 110.524 78.112 111.261C78.6342 112.742 78.4518 114.192 78.1058 115.057C77.8861 115.607 77.1182 116.456 75.623 117.191C73.7464 118.114 71.2641 118.616 68.2455 118.685C68.0126 118.69 67.7831 118.693 67.5563 118.693Z" fill="#4C4D4E"/>
<path d="M76.9377 94.5033C74.7997 92.6267 70.9597 92.1927 69.083 93.0717C69.083 93.0717 69.365 92.7026 70.6008 92.5132C71.3174 92.4364 72.1204 92.4591 72.9341 92.5882C73.9549 92.7504 74.9081 93.0593 75.7282 93.4862C76.6756 93.9907 76.9377 94.5033 76.9377 94.5033Z" fill="#4C4D4E"/>
<path d="M72.6609 98.0466C72.6452 98.0466 72.6298 98.0466 72.6137 98.0466C71.4073 98.0391 70.1908 97.7427 69.2593 97.2603C68.4664 96.8681 68.3135 96.3806 68.3135 96.3806C69.1733 97.2666 70.9022 97.8688 72.6148 97.8793C72.6305 97.8793 72.6459 97.8793 72.6613 97.8793C74.2068 97.8793 75.526 97.4075 76.3801 96.5487C76.3801 96.5487 76.2493 97.0019 75.5514 97.373C74.752 97.8124 73.7614 98.0466 72.6609 98.0466Z" fill="#4C4D4E"/>
<path d="M76.4233 95.5881C73.7493 95.0369 71.0405 95.3153 71.0137 95.3183C71.0137 95.3183 71.2523 95.1072 72.6447 95.0787C73.3263 95.0755 74.1651 95.1025 75.0548 95.2036C75.9905 95.3123 76.4233 95.5881 76.4233 95.5881Z" fill="#4C4D4E"/>
<path d="M74.1289 110.135C72.1796 108.784 69.8776 108.695 68.2894 108.858C66.4804 109.045 64.8559 109.641 64.1865 110.134C64.1865 110.134 64.3695 109.744 65.5502 109.294C66.318 109.024 67.2683 108.795 68.2723 108.692C69.5224 108.563 71.2083 108.588 72.8297 109.246C73.7712 109.655 74.1289 110.135 74.1289 110.135Z" fill="#4C4D4E"/>
<path d="M77.9501 111.304C77.5981 110.324 76.8878 109.452 76.8809 109.443C76.8809 109.443 77.7457 110.241 78.1077 111.247L77.9501 111.304Z" fill="#4C4D4E"/>
<path d="M58.1475 115.188C58.3559 114.451 59.9958 113.061 61.3528 113.563C62.7432 114.078 63.3067 116.994 62.6928 117.716C62.0788 118.439 60.7207 118.294 59.4296 117.536C58.4814 116.979 57.913 116.019 58.1475 115.188Z" fill="#EAE7D8"/>
<path d="M61.5049 113.631C62.3731 114.986 62.2778 117.939 60.0273 117.841C61.1211 118.318 62.1734 118.328 62.693 117.716C63.2841 117.021 62.7837 114.293 61.5049 113.631Z" fill="#CAC4B1"/>
<path d="M58.1475 115.188L58.2281 115.211C58.011 115.98 58.5226 116.906 59.4721 117.464C60.1007 117.833 60.7576 118.058 61.321 118.098C61.8999 118.139 62.3522 117.988 62.6291 117.662C62.9032 117.34 62.9333 116.499 62.7029 115.618C62.4368 114.602 61.9212 113.863 61.3236 113.642C60.6924 113.408 60.0505 113.618 59.6233 113.835C58.8876 114.209 58.3362 114.829 58.2281 115.211L58.1475 115.188ZM61.4946 118.273C60.8767 118.273 60.1386 118.049 59.3875 117.608C58.372 117.012 57.8294 116.007 58.0672 115.166C58.2037 114.682 58.84 114.046 59.5474 113.686C60.0044 113.454 60.6937 113.23 61.3819 113.485C62.0307 113.725 62.585 114.506 62.8648 115.576C63.1119 116.521 63.0685 117.404 62.7567 117.771C62.4713 118.106 62.0277 118.273 61.4946 118.273Z" fill="#6D6A60"/>
<path d="M64.3048 118.3C64.4373 117.218 65.846 114.809 68.0126 114.665C70.1794 114.52 72.2695 117.037 72.3525 118.126C72.4235 119.057 71.1306 119.854 68.446 119.913C66.2043 119.964 64.174 119.371 64.3048 118.3Z" fill="#EAE7D8"/>
<path d="M72.3523 118.126C72.2764 117.128 70.5134 114.93 68.5508 114.682C70.8038 116.04 70.5194 118.549 69.4348 119.852C71.4472 119.641 72.4139 118.934 72.3523 118.126Z" fill="#CAC4B1"/>
<mask id="mask0_25_100" style="mask-type:alpha" maskUnits="userSpaceOnUse" x="64" y="114" width="9" height="6">
<path d="M64.2129 114.56H72.4435V120H64.2129V114.56Z" fill="black"/>
</mask>
<g mask="url(#mask0_25_100)">
<path d="M68.1973 114.742C68.1374 114.742 68.0778 114.744 68.0179 114.748C66.8418 114.827 65.9773 115.573 65.4595 116.185C64.804 116.959 64.4487 117.81 64.3874 118.31C64.3614 118.524 64.4319 118.724 64.5965 118.906C65.1408 119.508 66.6511 119.87 68.4439 119.83C70.1934 119.79 71.4577 119.437 72.0038 118.834C72.1985 118.619 72.2879 118.383 72.2688 118.132C72.1948 117.16 70.2957 114.742 68.1973 114.742ZM68.1795 120C66.4578 120 65.0201 119.623 64.4724 119.018C64.2737 118.799 64.1894 118.554 64.2215 118.29L64.3044 118.3L64.2215 118.29C64.2857 117.765 64.6537 116.877 65.3316 116.077C65.8706 115.44 66.7723 114.664 68.0066 114.581C69.3269 114.492 70.4617 115.352 71.0208 115.872C71.8088 116.604 72.3906 117.529 72.4354 118.119C72.4582 118.418 72.3548 118.696 72.1279 118.947C71.5504 119.584 70.2435 119.957 68.4475 119.997C68.3575 119.999 68.2682 120 68.1795 120Z" fill="#6D6A60"/>
</g>
<path d="M73.0931 118.083C72.7649 117.41 73.3096 115.146 74.6459 114.52C75.94 113.914 77.9067 114.666 78.3427 115.485C78.7419 116.236 77.8482 117.287 76.4998 118.012C75.1735 118.723 73.4193 118.755 73.0931 118.083Z" fill="#EAE7D8"/>
<path d="M78.3421 115.485C77.952 114.752 76.3349 114.073 75.0723 114.373C76.6173 114.487 77.7629 116.32 77.2561 117.536C78.1564 116.873 78.6602 116.083 78.3421 115.485Z" fill="#CAC4B1"/>
<path d="M75.7289 114.384C75.3418 114.384 74.9828 114.455 74.681 114.596C74.1092 114.864 73.6113 115.498 73.3153 116.336C73.0763 117.012 73.0141 117.731 73.1677 118.047C73.2393 118.194 73.4002 118.311 73.6331 118.386C74.3534 118.619 75.5422 118.43 76.4599 117.938C77.8538 117.189 78.6143 116.174 78.2683 115.524C78.065 115.141 77.4851 114.758 76.7915 114.548C76.4292 114.439 76.0681 114.384 75.7289 114.384ZM74.3491 118.651C74.0651 118.651 73.8027 118.617 73.5819 118.546C73.3041 118.456 73.1091 118.309 73.0174 118.12C72.8404 117.757 72.8966 117.017 73.1572 116.28C73.4684 115.401 73.9981 114.731 74.6101 114.445C75.961 113.812 77.97 114.608 78.4163 115.446C78.8137 116.193 78.0418 117.278 76.5389 118.085C75.8628 118.448 75.0407 118.651 74.3491 118.651Z" fill="#6D6A60"/>
<path d="M96.9094 100.471C95.9402 99.883 94.9026 99.3012 93.596 98.9141C91.9325 98.4209 89.9036 98.1272 87.2738 98.1272C84.0204 98.1272 81.8566 98.4035 81.2788 99.2571C80.701 100.11 79.4538 105.582 79.7886 109.636C80.1232 113.69 81.9387 116.402 83.0846 116.759C84.2081 117.11 85.5163 116.374 86.1904 115.351C87.7074 115.026 90.2352 115.026 94.6774 113.726C99.1196 112.426 101.984 110.411 103.441 107.803C104.813 105.347 104.729 103.024 104.356 101.664L96.9094 100.471Z" fill="#BCBBB9"/>
<path d="M96.909 100.471C95.9398 99.883 94.9022 99.3012 93.5956 98.9141C91.9322 98.4209 89.9032 98.1272 87.2734 98.1272C84.02 98.1272 81.8562 98.4035 81.2784 99.2571C81.2089 99.36 81.1293 99.5307 81.0439 99.7575C82.3133 99.0205 84.7136 98.8198 87.4772 98.8086C90.5537 98.796 94.0349 99.2101 96.909 100.471Z" fill="#DFDFDD"/>
<path d="M83.0846 116.759C84.2081 117.11 85.5163 116.374 86.1905 115.351C87.7074 115.026 90.2352 115.026 94.6774 113.726C99.1196 112.426 101.984 110.411 103.441 107.803C104.813 105.347 104.729 103.024 104.356 101.664L102.198 101.318C101.988 103.387 100.881 105.613 98.1058 107.207C92.7864 110.261 88.2022 108.363 87.3883 104.856C87.5452 107.27 87.0426 111.155 83.5717 112.244C82.2049 112.673 81.0594 112.5 80.2246 112.192C80.9182 114.806 82.2006 116.483 83.0846 116.759Z" fill="#999899"/>
<path d="M83.6806 116.933C83.467 116.933 83.2589 116.901 83.0595 116.839C82.4244 116.641 81.6763 115.812 81.0578 114.622C80.5471 113.639 79.8977 111.977 79.7051 109.643C79.3688 105.57 80.6151 100.088 81.2092 99.2102C81.7557 98.4033 83.6259 98.0436 87.2735 98.0436C89.5065 98.0436 91.4019 98.2519 93.0685 98.6812C93.8256 98.8762 94.5302 99.1138 95.2094 99.4049C96.5374 100.022 96.9091 100.471 96.9091 100.471C94.3318 98.9077 91.3601 98.2109 87.2735 98.2109C83.7357 98.2109 81.8526 98.5581 81.3478 99.3039C81.0872 99.689 80.6344 101.172 80.2735 103.261C80.0393 104.618 79.6753 107.25 79.8717 109.629C80.2012 113.621 81.9952 116.332 83.1094 116.68C84.2436 117.034 85.5073 116.236 86.1202 115.305L86.1393 115.276L86.1728 115.269C86.6294 115.171 87.1876 115.101 87.8339 115.02C89.4002 114.824 91.5451 114.555 94.6537 113.646C98.9584 112.386 101.89 110.406 103.368 107.762C104.97 104.895 104.449 102.311 104.256 101.61L104.437 101.641C104.592 102.209 104.753 103.137 104.636 104.331C104.517 105.542 104.14 106.724 103.514 107.844C102.014 110.527 99.0491 112.533 94.7005 113.806C91.5792 114.72 89.4266 114.989 87.8547 115.186C87.2023 115.268 86.6834 115.333 86.241 115.426C85.892 115.944 85.3966 116.376 84.8422 116.646C84.4501 116.836 84.057 116.933 83.6806 116.933Z" fill="#4C4D4E"/>
<path d="M86.2637 115.392L86.1172 115.31C87.0038 113.713 87.5314 111.235 87.5649 108.512C87.5984 105.795 87.136 103.3 86.2965 101.666C86.2965 101.666 86.7802 102.029 87.1988 103.64C87.5652 105.056 87.7539 106.739 87.7322 108.514C87.6983 111.264 87.163 113.771 86.2637 115.392Z" fill="#4C4D4E"/>
<path d="M81.6636 98.2446C80.9536 98.1273 80.1157 98.8295 79.732 101.086C79.3803 103.151 79.6999 104.326 80.1468 104.396C80.7608 104.493 82.4097 103.606 82.8135 101.916C83.301 99.8757 82.3072 98.351 81.6636 98.2446Z" fill="#EAE7D8"/>
<path d="M79.5865 102.465C79.5492 103.67 79.8128 104.344 80.1476 104.396C80.7616 104.493 82.4105 103.606 82.8143 101.916C82.8461 101.783 82.8714 101.652 82.8912 101.522C82.297 103.054 79.9385 103.42 79.5865 102.465Z" fill="#CAC4B1"/>
<path d="M81.5128 98.3158C81.203 98.3158 80.9045 98.4902 80.6416 98.8265C80.2682 99.3043 79.9902 100.069 79.8145 101.1C79.5237 102.809 79.7111 103.819 79.9597 104.165C80.0226 104.253 80.0899 104.303 80.1601 104.314C80.4157 104.354 80.9467 104.198 81.5078 103.76C82.1255 103.278 82.5604 102.616 82.732 101.897C83.1222 100.266 82.5212 99.1878 82.3275 98.8968C82.1141 98.5749 81.8608 98.3621 81.6504 98.3272C81.6041 98.3196 81.5584 98.3158 81.5128 98.3158ZM80.2474 104.487C80.2077 104.487 80.1699 104.485 80.1341 104.479C80.0183 104.461 79.9139 104.388 79.8238 104.263C79.5435 103.873 79.3504 102.83 79.6498 101.072C79.8299 100.013 80.1193 99.2233 80.5097 98.7235C80.8464 98.2925 81.2612 98.0934 81.6775 98.1623C81.9368 98.2052 82.2244 98.4391 82.467 98.804C83.0087 99.6198 83.1687 100.79 82.895 101.936C82.7143 102.692 82.2583 103.386 81.6105 103.892C81.1398 104.259 80.6111 104.487 80.2474 104.487Z" fill="#6D6A60"/>
<path d="M79.9266 105.075C79.2203 105.134 78.7686 106.282 78.7145 108.426C78.6603 110.569 79.4729 111.743 80.0869 111.647C80.8039 111.534 81.9649 110.365 82.0419 108.468C82.1249 106.421 80.4961 105.027 79.9266 105.075Z" fill="#EAE7D8"/>
<path d="M78.7676 109.515C78.9554 110.96 79.5873 111.725 80.0876 111.647C80.8046 111.534 81.9656 110.365 82.0425 108.468C82.0559 108.134 82.0237 107.817 81.9578 107.521C81.737 109.587 80.1477 110.962 78.7676 109.515Z" fill="#CAC4B1"/>
<path d="M79.9333 105.158C79.2629 105.214 78.849 106.406 78.7979 108.428C78.757 110.045 79.2177 111.035 79.6242 111.392C79.7778 111.527 79.9331 111.586 80.0736 111.564C80.4403 111.507 80.8856 111.167 81.2362 110.678C81.5417 110.251 81.9151 109.521 81.9579 108.465C82.0202 106.931 81.1048 105.93 80.8227 105.66C80.4399 105.294 80.1 105.144 79.9333 105.158ZM80.015 111.736C79.8494 111.736 79.6777 111.662 79.5138 111.518C79.0591 111.119 78.5884 110.096 78.6306 108.424C78.6851 106.276 79.1428 105.056 79.9196 104.991H79.9194C80.1726 104.97 80.563 105.18 80.9384 105.539C81.2332 105.822 82.1901 106.868 82.1252 108.472C82.0479 110.377 80.8785 111.607 80.0996 111.729C80.0715 111.734 80.0434 111.736 80.015 111.736Z" fill="#6D6A60"/>
<path d="M80.291 112.434C79.8747 112.645 79.6553 114.033 80.4864 115.64C81.3265 117.263 82.6393 117.649 83.0727 117.287C83.506 116.927 83.9697 115.011 83.3738 113.834C82.6223 112.35 80.8457 112.155 80.291 112.434Z" fill="#EAE7D8"/>
<path d="M83.3741 113.834C83.1663 113.424 82.8798 113.112 82.5628 112.882C83.8866 114.87 82.7715 117.155 80.8975 116.295C81.7052 117.363 82.7056 117.594 83.073 117.288C83.5063 116.927 83.97 115.011 83.3741 113.834Z" fill="#CAC4B1"/>
<path d="M80.3283 112.509C80.2367 112.556 80.1537 112.681 80.0948 112.864C79.9258 113.385 79.9465 114.415 80.5602 115.602C81.1246 116.692 81.8998 117.197 82.4372 117.305C82.6843 117.355 82.8966 117.325 83.0187 117.223C83.4081 116.899 83.8809 115.022 83.2987 113.872C82.8945 113.074 82.2236 112.713 81.7318 112.552C81.1397 112.358 80.5775 112.384 80.3283 112.509ZM82.6627 117.496C82.5814 117.496 82.4947 117.487 82.404 117.469C81.8286 117.353 81.0031 116.821 80.4116 115.678C79.7743 114.446 79.7568 113.365 79.9356 112.812C80.0094 112.584 80.1192 112.428 80.253 112.36C80.8533 112.057 82.683 112.286 83.4479 113.797C83.8146 114.521 83.7581 115.412 83.6915 115.879C83.5948 116.559 83.3672 117.151 83.1257 117.352C83.0113 117.447 82.8514 117.496 82.6627 117.496Z" fill="#6D6A60"/>
<path d="M76.028 63.9195C75.3417 66.0143 77.2214 69.3527 78.2669 72.0093C80.0486 76.5358 80.3394 80.5233 82.7091 81.0018C85.2734 81.5193 88.5597 77.21 92.7851 75.7652C97.0104 74.3205 101.85 74.8622 103.728 74.1041C105.606 73.3457 106.437 71.2147 107.881 70.7814C109.326 70.348 113.082 70.5288 115.574 69.1201C118.066 67.7116 119.785 64.68 119.42 61.5721C118.39 58.069 116.73 56.1224 117 50.3262C117.271 44.5302 118.517 38.5175 115.809 34.4006C113.1 30.2836 104.812 28.4419 98.4746 28.2793C92.1365 28.1168 81.7362 34.9422 81.7362 34.9422L76.028 63.9195Z" fill="#F68195"/>
<path d="M92.7854 75.7652C97.0108 74.3205 101.85 74.8622 103.728 74.1041C105.606 73.3457 106.437 71.2147 107.881 70.7814C109.326 70.348 113.082 70.5288 115.574 69.1201C118.066 67.7116 119.785 64.68 119.42 61.5721C118.391 58.069 116.73 56.1224 117.001 50.3262C117.272 44.5302 118.518 38.5175 115.809 34.4006C113.1 30.2836 104.812 28.4419 98.4749 28.2793C92.1369 28.1168 81.7366 34.9422 81.7366 34.9422L79.2988 47.3169L83.1839 46.5139C83.1839 46.5139 86.9091 44.1161 88.9166 41.0045C90.924 37.8929 93.2882 35.9747 97.3366 34.2683C101.385 32.562 105.5 33.0304 108.712 34.2683C111.924 35.5063 113.596 38.4436 113.889 42.9543C114.056 45.5183 113.831 50.3951 113.965 53.8412C114.099 57.2874 115.817 59.674 115.951 62.1944C116.045 63.9704 116.084 66.321 112.46 67.7597C110.123 68.6873 107.827 67.9418 106.174 68.8341C104.798 69.5776 103.973 71.7189 102.054 72.5108C100.93 72.9749 95.4185 73.0686 92.6415 73.7043C89.8645 74.34 87.868 76.6261 86.5966 77.9644C85.3567 79.2697 83.6078 81.1286 81.7162 80.5136C82.0038 80.7582 82.3298 80.9252 82.7094 81.0018C85.2737 81.5193 88.56 77.21 92.7854 75.7652Z" fill="#EE6274"/>
<path d="M81.8117 34.9929L76.1091 63.9407L76.1078 63.9454C75.5751 65.5709 76.6086 67.9411 77.6077 70.2329C77.874 70.8435 78.1254 71.4203 78.3452 71.9784C78.8731 73.3205 79.275 74.6286 79.6293 75.7826C80.4865 78.5749 81.1057 80.5929 82.7258 80.9197C82.8644 80.9478 83.0051 80.9609 83.1481 80.9609C84.4247 80.9612 85.8949 79.9025 87.5706 78.6957C89.1032 77.5924 90.84 76.3416 92.7585 75.6859C95.2003 74.8512 97.8635 74.6758 100.003 74.5349C101.564 74.4322 102.912 74.3432 103.697 74.0264C104.647 73.6426 105.316 72.9102 105.962 72.2019C106.566 71.5415 107.135 70.9178 107.857 70.7013C108.344 70.5551 109.085 70.4781 109.943 70.3891C111.698 70.2068 113.883 69.9799 115.533 69.0471C118.115 67.5877 119.679 64.5217 119.338 61.5888C119.066 60.6663 118.747 59.8415 118.438 59.0439C117.553 56.7584 116.717 54.5997 116.917 50.3224C116.972 49.1547 117.067 47.9639 117.159 46.8124C117.533 42.1319 117.887 37.7111 115.739 34.4462C114.52 32.5938 112.009 31.0342 108.478 29.9369C105.499 29.011 101.945 28.4519 98.4725 28.3629C95.2157 28.2803 90.8538 30.09 87.7679 31.6237C84.6095 33.1933 82.1086 34.8003 81.8117 34.9929ZM83.1484 81.1285C82.9944 81.1285 82.8425 81.1141 82.693 81.0836C81.8974 80.923 81.2801 80.3754 80.7495 79.3596C80.271 78.4439 79.8995 77.2334 79.4693 75.8318C79.1156 74.6805 78.7152 73.3756 78.1895 72.0399C77.9707 71.4842 77.7202 70.9091 77.4545 70.2998C76.4437 67.9816 75.3985 65.584 75.9472 63.8983L81.6612 34.8916L81.6906 34.8722C81.7167 34.8552 84.3338 33.1437 87.6916 31.4749C89.6647 30.4943 91.5045 29.7196 93.1594 29.1723C95.2324 28.4871 97.0217 28.1582 98.4768 28.1956C101.964 28.285 105.534 28.8467 108.528 29.7772C110.22 30.3028 111.688 30.9359 112.892 31.6582C114.222 32.4561 115.227 33.3633 115.879 34.3546C116.872 35.8645 117.406 37.6907 117.559 40.101C117.694 42.2216 117.515 44.4579 117.326 46.8257C117.234 47.9761 117.139 49.1654 117.084 50.3301C116.886 54.5723 117.715 56.7149 118.594 58.9837C118.905 59.7863 119.226 60.6168 119.5 61.5485L119.503 61.5622C119.68 63.0725 119.383 64.6146 118.642 66.0222C117.938 67.3618 116.862 68.4878 115.615 69.193C113.934 70.1426 111.731 70.3715 109.96 70.5555C109.111 70.6438 108.377 70.72 107.905 70.8616C107.227 71.0651 106.673 71.6719 106.086 72.3146C105.458 73.0033 104.745 73.7835 103.76 74.1812C102.95 74.5085 101.589 74.5981 100.014 74.7019C97.8842 74.842 95.2334 75.0168 92.8124 75.8442C90.9177 76.4922 89.1916 77.7348 87.6686 78.8316C85.9696 80.0548 84.4783 81.1282 83.1484 81.1285Z" fill="#611C21"/>
<path d="M43.2157 51.0803C42.9153 53.1641 40.7679 55.5175 39.3119 57.5367C36.8306 60.9771 35.3621 64.4244 33.876 64.078C32.2677 63.7033 31.834 58.8058 29.9359 56.1474C28.0377 53.4892 25.1449 52.3952 24.3393 51.1104C23.5338 49.8256 23.7652 47.6626 23.0964 46.8077C22.4276 45.9526 20.261 44.8905 19.3236 42.8286C18.3864 40.7662 18.414 37.5141 19.6358 34.8726C21.36 32.0963 22.9291 30.9078 24.6741 25.6717C26.4192 20.4355 27.6881 14.6894 30.5553 11.9144C33.4226 9.13939 38.6758 10.201 42.2853 12.1195C45.8947 14.038 49.4971 23.4851 49.4971 23.4851L43.2157 51.0803Z" fill="#F68195"/>
<path d="M29.9359 56.1474C28.0377 53.4892 25.1449 52.3952 24.3394 51.1104C23.5338 49.8256 23.7652 47.6626 23.0964 46.8077C22.4276 45.9526 20.261 44.8905 19.3236 42.8286C18.3864 40.7662 18.414 37.5141 19.6358 34.8726C21.36 32.0963 22.9291 30.9078 24.6741 25.6717C26.4192 20.4355 27.688 14.6894 30.5553 11.9144C33.4226 9.13939 38.6758 10.201 42.2853 12.1195C45.8947 14.038 49.4971 23.4851 49.4971 23.4851L46.8148 35.2694L44.8974 33.2917C44.8974 33.2917 43.5917 29.9496 43.4838 26.5326C43.376 23.1154 44.2907 26.8346 42.5777 24.0014C40.8643 21.1682 39.4354 15.0929 35.4726 15.6643C33.2871 15.9796 30.474 16.2258 28.8329 20.1367C27.9001 22.3593 26.4299 26.764 25.2268 29.7813C24.0239 32.7985 22.279 34.3594 21.3789 36.5545C20.7448 38.1013 19.9533 40.176 21.5163 42.6334C22.5238 44.2177 24.0565 44.3033 24.6915 45.6337C25.2206 46.7418 24.9828 48.9125 25.8001 50.2401C26.2791 51.0184 29.3411 52.8951 30.6913 54.3635C32.0414 55.8319 32.4135 58.5122 32.6889 60.115C32.9575 61.6778 33.3302 63.8981 34.593 63.9676C34.3517 64.0911 34.1141 64.1336 33.876 64.078C32.2677 63.7033 31.834 58.8058 29.9359 56.1474Z" fill="#EE6274"/>
<path d="M47.1981 18.575C45.9686 16.2081 44.1133 13.1812 42.2588 12.1944C40.2811 11.1432 38.1042 10.4831 36.1293 10.3359C33.7886 10.1612 31.8694 10.7291 30.5791 11.978C28.3054 14.1785 27.0568 18.2203 25.735 22.4988C25.4097 23.5518 25.0734 24.6405 24.722 25.6954C23.4341 29.5595 22.2585 31.2046 21.0139 32.9467C20.5795 33.5547 20.1304 34.1834 19.6761 34.9145C18.5248 37.408 18.3988 40.6405 19.3701 42.7771C19.9908 44.1425 21.1422 45.0549 22.0675 45.7883C22.5198 46.1465 22.9103 46.456 23.1357 46.7442C23.47 47.1717 23.5856 47.9112 23.7076 48.6938C23.8389 49.5335 23.9744 50.4019 24.3819 51.0515C24.7186 51.5886 25.4459 52.1061 26.2881 52.7054C27.4426 53.527 28.8795 54.5496 29.9766 56.0859C30.8384 57.2928 31.4036 58.9691 31.9025 60.4476C32.4479 62.065 32.9264 63.4835 33.6427 63.899C33.7229 63.9455 33.8063 63.9796 33.893 63.9998C34.909 64.2367 35.9172 62.646 37.312 60.4449C37.8889 59.5351 38.5422 58.5039 39.2776 57.4842C39.5838 57.06 39.9133 56.6293 40.2627 56.1736C41.5735 54.4632 42.9292 52.6944 43.1624 51.0777L43.1632 51.0726L49.4379 23.506C49.3341 23.2379 48.4569 20.9969 47.1981 18.575ZM31.8032 60.5365C31.3074 59.0667 30.7456 57.4008 29.8945 56.209C28.8068 54.6858 27.3765 53.6679 26.2273 52.8503C25.3774 52.2453 24.6433 51.723 24.296 51.169C23.8734 50.4948 23.7289 49.57 23.6015 48.754C23.4825 47.9918 23.3702 47.2721 23.0563 46.871C22.8379 46.5916 22.4511 46.2851 22.0034 45.9305C21.07 45.1908 19.9083 44.2703 19.2763 42.8798C18.8071 41.8472 18.5724 40.4972 18.6154 39.0783C18.6606 37.5871 18.9983 36.1205 19.592 34.8368L19.5981 34.8255C20.0568 34.087 20.5089 33.4543 20.9461 32.8424C22.1815 31.1133 23.3484 29.4802 24.6256 25.6479C24.9762 24.5957 25.3122 23.5083 25.6371 22.4567C26.3057 20.2919 26.9374 18.2473 27.7069 16.4078C28.5817 14.3167 29.4789 12.8687 30.5307 11.8508C31.221 11.1827 32.0818 10.704 33.0889 10.4282C34.0011 10.1783 35.0321 10.0943 36.1537 10.1779C38.1381 10.3259 40.3249 10.9886 42.3109 12.0445C43.1397 12.4846 44.0364 13.3592 44.9753 14.6426C45.7247 15.6674 46.5036 16.9542 47.2899 18.4671C48.6278 21.0425 49.5361 23.4142 49.5453 23.438L49.5552 23.4648L43.2679 51.088C43.024 52.7636 41.6529 54.5529 40.3268 56.283C39.9787 56.7377 39.6493 57.167 39.3449 57.5892C38.6129 58.6043 37.9607 59.6331 37.3857 60.5405C36.6857 61.6453 36.0811 62.5995 35.5129 63.2573C34.8826 63.9867 34.3567 64.2724 33.8578 64.1561C33.7641 64.1343 33.6741 64.0978 33.5878 64.0476C32.8414 63.6146 32.3559 62.1757 31.8032 60.5365Z" fill="#611C21"/>
<path d="M49.8502 14.2859L46.5323 18.048L44.6773 20.1514C44.6773 20.1514 44.1332 19.1774 43.255 17.9043C41.8163 15.819 39.4806 12.9305 37.1707 12.2058C32.2732 10.6695 29.8199 12.8264 27.9194 19.9875C27.696 20.8296 27.4802 21.6282 27.2694 22.3858C25.0845 30.2426 23.4582 33.6544 19.6768 34.9145C19.7607 34.5109 19.9333 34.0431 20.1656 33.5176C21.3162 30.9122 23.9262 26.8781 24.4113 22.09C24.8068 18.1844 25.4097 13.125 28.6615 9.79249C30.1339 8.28348 32.1503 7.12853 34.9367 6.59595C35.0622 6.57151 35.1896 6.54877 35.3185 6.52733C44.6104 4.97886 49.8502 14.2859 49.8502 14.2859Z" fill="#BCBBB9"/>
<path d="M43.7759 17.0428C43.7759 17.0428 44.5203 17.188 43.2541 17.9044C41.8155 15.819 39.4798 12.9305 37.1699 12.2058C32.2724 10.6695 29.8191 12.8265 27.9186 19.9875C27.6951 20.8296 27.4794 21.6283 27.2686 22.3858C27.3385 20.8742 27.6442 18.9727 28.1768 16.7471C29.335 11.907 33.0016 10.3941 36.2863 10.8294C41.1239 11.4708 43.7759 17.0428 43.7759 17.0428Z" fill="#999899"/>
<path d="M28.661 9.79248C24.413 17.0428 26.2115 20.6131 24.722 25.6953C24.2435 27.3275 21.3785 36.5545 20.165 33.5176C21.3157 30.9122 23.9257 26.8781 24.4108 22.09C24.8063 18.1844 25.4092 13.1249 28.661 9.79248Z" fill="#999899"/>
<path d="M49.85 14.2859L46.5321 18.048C45.8966 13.4823 43.2749 10.3881 40.1075 8.38255C38.5744 7.41201 36.6599 6.8823 34.9365 6.59595C35.062 6.57151 35.1894 6.54877 35.3183 6.52733C44.6102 4.97886 49.85 14.2859 49.85 14.2859Z" fill="#DFDFDD"/>
<path d="M37.3617 6.44001C36.7089 6.44001 36.0324 6.4932 35.3315 6.60991C25.9037 8.18152 25.0211 16.8933 24.4938 22.0983C24.1173 25.8152 22.4352 29.1402 21.2069 31.568C20.562 32.8427 20.0001 33.9534 19.7912 34.7862C21.765 34.0907 23.1268 32.7961 24.3249 30.486C25.5553 28.1131 26.5812 24.7017 27.8378 19.966C28.9906 15.6223 30.3218 13.2346 32.1543 12.2248C33.4796 11.4945 35.0812 11.463 37.1947 12.1262C38.7546 12.6154 40.5008 14.1089 42.3847 16.5654C43.5879 18.1342 44.4634 19.6137 44.6914 20.0085L49.7465 14.2758C49.5381 13.9232 48.2422 11.812 46.0093 9.88579C44.0982 8.23733 41.1455 6.44001 37.3617 6.44001ZM19.5645 35.0395L19.5941 34.8973C19.7746 34.0285 20.3693 32.8534 21.0576 31.4923C22.3481 28.9418 23.954 25.7673 24.3274 22.0816C24.5804 19.5832 24.9629 15.8078 26.5236 12.6943C27.3361 11.0729 28.4132 9.74163 29.7247 8.73685C31.2325 7.58189 33.1098 6.81066 35.3041 6.44498C37.4377 6.08935 39.5348 6.27873 41.5369 7.00775C43.1372 7.59065 44.68 8.51741 46.1226 9.76267C48.5764 11.881 49.9091 14.2216 49.9222 14.2447L49.9512 14.2966L44.6612 20.2957L44.6037 20.1923C44.5943 20.1755 43.6428 18.4806 42.2505 16.6657C40.9705 14.9965 39.0454 12.882 37.1445 12.2857C35.0776 11.6374 33.5177 11.6644 32.2352 12.3715C30.446 13.3574 29.1396 15.7128 27.9996 20.0089C26.74 24.7555 25.7108 28.1766 24.4734 30.5628C23.8492 31.7666 23.175 32.6972 22.4127 33.4071C21.6441 34.1231 20.7576 34.6421 19.7023 34.9936L19.5645 35.0395Z" fill="#4C4D4E"/>
<path d="M36.1802 48.1594C36.1802 50.0555 35.7725 51.7612 35.1226 53.687C34.4726 55.6132 32.8593 59.297 35.315 61.1509C37.7709 63.0048 42.0083 61.6564 43.814 60.7417C45.9811 62.5113 50.601 63.3293 54.3356 64.2085C59.7046 65.4726 67.3484 68.3503 74.1734 65.642C80.9989 62.9334 84.2383 55.5409 85.2979 49.0404C86.1628 43.7316 85.3701 38.5189 85.948 36.2316C87.3441 35.1242 91.7037 31.6379 97.1747 30.6087C102.646 29.5795 110.083 31.3458 113.209 34.5632C116.958 38.4218 115.977 42.6392 115.827 44.5862C115.684 46.4234 115.249 49.9434 115.502 53.4103C115.754 56.8773 116.82 59.2608 117.795 60.3983C118.77 61.5359 119.29 61.6982 119.42 61.5721C119.637 61.3616 118.571 57.1302 118.788 53.5549C119.005 49.9792 120.341 44.7427 121.063 41.1312C121.785 37.5197 122.52 32.5238 118.932 28.1298C115.05 23.3741 108.583 21.3887 102.175 20.7627C95.8913 20.1488 89.6795 21.6654 87.5128 22.1709C85.9961 20.7989 81.4656 15.387 71.1194 11.812C60.7733 8.23671 50.2788 10.7949 45.5836 14.0453C41.8146 16.6548 39.336 20.1849 39.408 23.1343C39.0228 24.8436 38.0358 27.2271 38.0358 27.2271C35.6041 27.6845 32.426 29.4902 32.4018 34.3537C32.0891 38.9766 36.1802 48.1594 36.1802 48.1594Z" fill="#BCBBB9"/>
<path d="M38.7942 29.4932C41.0967 30.448 42.8751 28.5574 44.1293 26.5308C45.6561 24.0636 47.2002 18.8553 44.7185 18.1526C43.4696 17.799 41.2791 19.0449 39.6444 21.3655C39.4761 21.9695 39.3941 22.5627 39.4078 23.1342C39.0227 24.8436 38.0357 27.2271 38.0357 27.2271C37.7914 27.2729 37.5396 27.3328 37.2842 27.4078C37.4034 28.3569 37.8787 29.1138 38.7942 29.4932Z" fill="#999899"/>
<path d="M46.0187 20.2701C45.9695 19.2142 45.5958 18.4012 44.7178 18.1526C44.3315 18.0432 43.8547 18.087 43.332 18.2684C44.0038 18.1526 44.5977 18.2 45.0779 18.5346C45.565 18.8743 45.8554 19.5132 46.0187 20.2701Z" fill="#4C4D4E"/>
<path d="M70.2911 12.5876C80.4612 16.085 84.8738 20.9915 86.3953 22.4797C86.4225 22.5065 85.1825 22.9134 85.0018 23.0318C87.4994 22.561 95.6582 20.8287 101.942 21.4425C108.35 22.069 114.119 23.9362 118.002 28.6919C121.589 33.0859 120.933 37.817 120.21 41.4283C119.488 45.0398 118.471 49.9712 118.787 53.5549C119.004 49.9792 120.341 44.7427 121.063 41.1312C121.785 37.5197 122.519 32.5238 118.932 28.1298C115.049 23.3741 108.583 21.3887 102.175 20.7627C95.8907 20.1488 89.6789 21.6654 87.5122 22.1709C85.9955 20.7989 81.465 15.387 71.1188 11.812C60.7727 8.23671 50.2782 10.7949 45.583 14.0453C50.417 11.4945 60.4319 9.19693 70.2911 12.5876Z" fill="#DFDFDD"/>
<path d="M116.742 54.5772C116.385 52.079 116.603 49.6252 117.155 46.3131C117.707 43.0008 119.185 37.9486 115.638 33.7664C112.454 30.0114 105.173 26.9587 96.935 28.1926C87.8098 29.5601 84.3883 33.3147 83.3846 34.6697C82.3812 36.0248 82.247 42.5323 81.6113 46.38C80.5106 53.0442 77.5238 58.7652 72.6559 60.9229C67.7878 63.0809 62.9887 61.9012 58.4474 61.0901C53.9061 60.2794 49.0457 59.2306 48.1591 58.5364C48.7084 58.2295 50.2194 57.651 50.8889 57.7915C49.2799 56.8744 47.434 57.5912 45.393 58.45C43.6693 59.1753 41.7629 60.3545 39.2425 60.8178C37.6205 61.1159 35.2145 61.1789 34.2393 59.7207C34.4403 60.2591 34.7815 60.7482 35.3149 61.1508C37.7708 63.0047 42.0082 61.6563 43.8139 60.7416C45.9809 62.5112 50.6009 63.3292 54.3355 64.2084C59.7044 65.4725 67.3483 68.3503 74.1733 65.6419C80.9987 62.9333 84.2381 55.5408 85.2978 49.0403C86.1626 43.7315 85.37 38.5188 85.9479 36.2315C87.344 35.1241 91.7036 31.6379 97.1746 30.6086C102.646 29.5794 110.083 31.3458 113.209 34.5631C116.958 38.4217 115.977 42.6391 115.827 44.5861C115.684 46.4233 115.249 49.9433 115.502 53.4102C115.754 56.8772 116.82 59.2607 117.795 60.3982C118.77 61.5358 119.29 61.6981 119.42 61.572C119.489 61.5044 119.427 61.0226 119.317 60.2818C118.222 59.7465 117.09 57.0089 116.742 54.5772Z" fill="#999899"/>
<mask id="mask1_25_100" style="mask-type:alpha" maskUnits="userSpaceOnUse" x="32" y="9" width="90" height="58">
<path d="M32.2939 9.97046H121.742V66.8825H32.2939V9.97046Z" fill="black"/>
</mask>
<g mask="url(#mask1_25_100)">
<path d="M43.8241 60.6421L43.8663 60.6766C45.6981 62.1725 49.3929 63.0043 52.6523 63.7384C53.2438 63.8716 53.8022 63.997 54.3539 64.1271C55.2055 64.3276 56.1095 64.5671 57.0664 64.8211C62.1262 66.163 68.4234 67.8333 74.1421 65.5642C82.2261 62.3562 84.5786 52.9304 85.2146 49.0268C85.6917 46.0992 85.663 43.1627 85.6399 40.8032C85.6212 38.8935 85.6051 37.2444 85.8661 36.2111L85.873 36.1837L85.9309 36.1375C87.3612 35.0034 91.7131 31.5508 97.1588 30.5263C99.7945 30.0304 103.05 30.171 106.09 30.9121C109.206 31.6715 111.755 32.9473 113.268 34.5048C114.726 36.005 115.637 37.7465 115.976 39.6811C116.263 41.3201 116.1 42.7961 115.982 43.8734C115.953 44.1336 115.926 44.3796 115.91 44.5927C115.885 44.9076 115.853 45.2636 115.816 45.6758C115.64 47.6117 115.375 50.5371 115.584 53.4042C115.902 57.7524 117.405 59.8151 117.858 60.344C118.591 61.1989 119.084 61.5144 119.302 61.5242C119.334 61.5257 119.349 61.5197 119.357 61.5154C119.4 61.3987 119.296 60.7068 119.186 59.9746C118.939 58.3238 118.566 55.8289 118.704 53.5494C118.866 50.8798 119.648 47.2988 120.337 44.1397C120.573 43.0573 120.796 42.0352 120.981 41.1148C121.561 38.2113 122.642 32.8068 118.867 28.1829C115.508 24.0689 109.89 21.6004 102.167 20.8455C96.0781 20.251 90.0125 21.6713 87.7293 22.2059L87.4884 22.2625L87.456 22.2331C87.2692 22.0641 87.0434 21.8407 86.7577 21.5576C84.7824 19.6022 80.1561 15.0232 71.0913 11.8908C65.1953 9.85369 59.7621 9.98373 56.2427 10.4519C52.056 11.0086 48.188 12.3433 45.6308 14.1138C43.7715 15.4009 42.2131 16.9209 41.1236 18.5095C40.021 20.1176 39.4565 21.7158 39.491 23.1321L39.4913 23.1425L39.4889 23.1524C39.1065 24.8491 38.1222 27.2351 38.1124 27.2591L38.095 27.301L38.0506 27.3093C36.3861 27.6225 32.5116 28.9357 32.4848 34.3539L32.4846 34.3593C32.3574 36.2383 32.9683 39.2131 34.2518 42.9616C35.223 45.7992 36.2458 48.1024 36.2559 48.1255L36.2632 48.1416V48.1593C36.2632 49.8694 35.9554 51.4784 35.2009 53.7137C35.1417 53.8893 35.0748 54.079 35.0036 54.2801C34.6412 55.3049 34.1905 56.58 34.0985 57.831C33.9911 59.2954 34.4054 60.3594 35.3649 61.0838C36.1615 61.6854 37.2395 61.9928 38.5253 61.9928C38.9291 61.9928 39.3534 61.9628 39.7964 61.9015C41.3593 61.6857 42.8765 61.1223 43.7756 60.6669L43.8241 60.6421ZM67.8773 66.8502C64.0642 66.8506 60.2881 65.8486 57.0236 64.9826C56.0677 64.7293 55.165 64.4898 54.3159 64.2898C53.7647 64.1603 53.2067 64.0344 52.6155 63.9012C49.3624 63.169 45.6786 62.3398 43.8026 60.8402C42.8862 61.2975 41.3746 61.8527 39.8192 62.0671C37.9224 62.3291 36.3473 62.035 35.2642 61.2177C34.2555 60.4561 33.8199 59.3443 33.9319 57.8187C34.0252 56.5452 34.4803 55.2584 34.846 54.2243C34.9169 54.0238 34.9838 53.8344 35.0427 53.6601C35.7881 51.4512 36.0936 49.861 36.0959 48.177C36.0022 47.9649 35.0244 45.7353 34.0938 43.0172C33.1941 40.389 32.156 36.7525 32.3175 34.3505C32.3289 32.1447 32.9811 30.3714 34.2557 29.0792C34.9279 28.3978 36.1174 27.5131 37.9749 27.1534C38.1071 26.8289 38.9707 24.6846 39.3237 23.1258C39.2909 21.6766 39.8657 20.0479 40.9859 18.4149C42.0866 16.8095 43.6598 15.2748 45.5355 13.9763C46.7437 13.1399 48.3117 12.3676 50.0706 11.7433C51.9822 11.0648 54.0512 10.5746 56.2206 10.2859C59.7582 9.81552 65.2191 9.6847 71.1461 11.7327C80.2467 14.8773 84.8918 19.4751 86.8754 21.4388C87.1435 21.7038 87.3582 21.9166 87.5358 22.0796L87.6911 22.0434C89.9821 21.5067 96.067 20.0818 102.183 20.6793C105.716 21.0246 108.862 21.7446 111.532 22.82C114.669 24.0833 117.18 25.852 118.997 28.0769C120.61 30.0525 121.493 32.2903 121.697 34.9176C121.868 37.1145 121.532 39.21 121.145 41.1475C120.96 42.0697 120.737 43.0925 120.501 44.1754C119.812 47.3286 119.032 50.9028 118.871 53.5597C118.734 55.8215 119.106 58.3062 119.352 59.9502C119.543 61.2267 119.578 61.5351 119.478 61.6321C119.447 61.6616 119.391 61.6954 119.295 61.6914C118.962 61.6763 118.392 61.2246 117.731 60.4527C117.269 59.9144 115.738 57.8153 115.417 53.4162C115.208 50.5356 115.473 47.6019 115.649 45.6606C115.686 45.2488 115.719 44.8935 115.743 44.5797C115.759 44.3641 115.787 44.1169 115.816 43.8553C116.055 41.6755 116.458 38.0273 113.148 34.6212C111.657 33.0862 109.136 31.8264 106.051 31.0747C103.033 30.339 99.8033 30.1991 97.1895 30.6909C91.7847 31.7074 87.4573 35.1405 86.0349 36.2687L86.0216 36.2793C85.773 37.2938 85.7887 38.9206 85.8071 40.8015C85.8303 43.1674 85.859 46.1121 85.3795 49.0536C84.9653 51.5955 84.0375 55.3508 81.9691 58.806C79.9728 62.141 77.3601 64.467 74.2039 65.7197C72.1389 66.5388 70.0019 66.8502 67.8773 66.8502Z" fill="#4C4D4E"/>
</g>
<path d="M83.9453 37.1639C83.9564 37.1601 85.0518 36.7751 85.8979 36.1641L85.9959 36.2996C85.1294 36.9256 83.9453 37.1639 83.9453 37.1639Z" fill="#4C4D4E"/>
<path d="M85.002 23.0318C85.002 23.0318 86.0114 22.472 87.4916 22.09L87.5334 22.2519C86.0625 22.6317 85.0123 23.0278 85.002 23.0318Z" fill="#4C4D4E"/>
<path d="M43.8475 60.8178L43.7793 60.6653C43.9506 60.5883 44.3046 60.3963 44.7526 60.1527C45.9273 59.5146 47.8161 58.4892 49.3116 57.9612C50.4394 57.5717 50.8885 57.7915 50.8885 57.7915C49.5521 57.7351 46.4821 59.4035 44.8326 60.2996C44.3635 60.5546 44.0249 60.7386 43.8475 60.8178Z" fill="#4C4D4E"/>
<path d="M39.8772 48.9681C39.829 50.7497 38.9621 52.375 38.1619 53.8435C37.5663 54.9356 36.1092 56.817 37.3853 57.7802C38.9842 58.987 43.0012 57.7066 46.1971 54.5118C48.8657 51.8444 51.2532 48.1734 51.47 44.4539C49.9892 44.9956 39.8772 48.9681 39.8772 48.9681Z" fill="#521415"/>
<path d="M50.8311 47.5117C50.1047 47.0644 49.2449 46.8058 48.3228 46.8058C45.7211 46.8058 43.6123 48.8644 43.6123 51.4039C43.6123 52.9323 44.3761 54.286 45.5512 55.122C45.7696 54.9273 45.9855 54.724 46.1976 54.5118C48.1274 52.5829 49.91 50.1291 50.8311 47.5117Z" fill="#391415"/>
<path d="M37.3853 57.7802C38.9842 58.9871 43.0013 57.7067 46.1972 54.5118C46.5267 54.1826 46.8516 53.838 47.169 53.48C46.1084 52.6288 44.1843 52.1734 41.9596 52.8205C39.912 53.4161 37.3619 54.7527 36.9072 57.0546C36.9654 57.3273 37.1129 57.5745 37.3853 57.7802Z" fill="#F89CAA"/>
<path d="M43.8615 52.5173C44.9408 53.1386 44.3552 55.0875 42.9835 56.2167C41.3387 57.5709 38.6925 58.1907 37.3037 57.714C37.3295 57.7364 37.3565 57.7585 37.385 57.7802C38.9839 58.9871 43.001 57.7066 46.1969 54.5118C46.5263 54.1826 46.8513 53.8379 47.1687 53.48C46.4257 52.8837 45.2583 52.4822 43.8615 52.5173Z" fill="#EC7E8B"/>
<path d="M36.993 57.0538C37.0535 57.3182 37.1987 57.5344 37.4359 57.7133C38.196 58.2868 39.5551 58.2885 41.1647 57.7176C42.8708 57.1128 44.6373 55.9531 46.1386 54.4525C46.4491 54.1421 46.7546 53.8189 47.0477 53.491C46.0835 52.7602 44.2714 52.2356 41.9834 52.9007C40.6562 53.2868 37.5176 54.4632 36.993 57.0538ZM38.9883 58.3106C38.3114 58.3106 37.7447 58.1557 37.3351 57.8469C37.0631 57.6417 36.8918 57.3811 36.8257 57.0723L36.8223 57.0553L36.8253 57.0385C37.0354 55.9748 37.6956 55.03 38.7869 54.23C39.8605 53.4434 41.0925 52.9857 41.9366 52.7401C44.3419 52.0405 46.2441 52.6298 47.2217 53.4146L47.2903 53.4695L47.232 53.5354C46.9189 53.8884 46.5907 54.2371 46.2568 54.571C44.7385 56.0886 42.9498 57.2623 41.2207 57.8753C40.4023 58.1654 39.6437 58.3106 38.9883 58.3106Z" fill="#B44F5A"/>
<path d="M39.9592 49.026C39.8927 50.8434 38.9745 52.5277 38.2354 53.8837C38.1445 54.0503 38.034 54.235 37.9169 54.4304C37.2823 55.49 36.413 56.9412 37.4359 57.7133C38.196 58.2868 39.5551 58.2885 41.1647 57.7176C42.8708 57.1128 44.6373 55.9531 46.1386 54.4525C49.2452 51.3473 51.1489 47.7563 51.3784 44.577C49.6276 45.2294 40.7221 48.7262 39.9592 49.026ZM38.9883 58.3106C38.3114 58.3106 37.7447 58.1557 37.3351 57.8469C36.1922 56.9843 37.106 55.4585 37.7734 54.3448C37.8895 54.1507 37.9993 53.9673 38.0887 53.8034C38.8267 52.4494 39.7455 50.7641 39.794 48.9657L39.7953 48.9106L39.8468 48.8901C39.9482 48.8506 49.9768 44.9109 51.4417 44.3753L51.5611 44.3314L51.5538 44.4586C51.4517 46.2098 50.8705 48.0467 49.8263 49.9182C48.9313 51.5227 47.6967 53.1313 46.2567 54.571C44.7384 56.0886 42.9498 57.2623 41.2207 57.8752C40.4022 58.1654 39.6437 58.3106 38.9883 58.3106Z" fill="#4C4D4E"/>
<path d="M58.9154 38.782C58.1113 36.871 59.1609 32.8342 60.8341 30.5878C62.7232 28.0521 65.6878 25.0573 68.9534 26.5729C72.1877 28.0738 71.2843 33.726 69.9882 36.9669C68.865 39.7768 67.4635 41.2388 65.6488 41.4912C63.2448 41.825 59.6023 40.4148 58.9154 38.782Z" fill="#999899"/>
<path d="M68.953 26.573C67.984 26.123 67.0412 26.0704 66.1455 26.2853C67.0318 26.2133 68.138 26.4155 68.9389 26.8657C69.7607 27.3275 70.3023 27.9147 70.9347 29.1674C70.6325 28.0093 70.0166 27.0665 68.953 26.573Z" fill="#4C4D4E"/>
<path d="M58.9147 38.7821C58.1107 36.8711 59.1101 33.1856 60.7833 30.9392C62.6723 28.4035 65.7077 27.3249 68.1498 28.6321C70.8039 30.0526 70.6892 34.2797 69.659 37.1246C68.6285 39.9696 67.4628 41.2389 65.6481 41.4913C63.2441 41.8251 59.6017 40.4149 58.9147 38.7821Z" fill="#100F0D"/>
<path d="M58.9093 38.8561C58.1203 36.9961 59.1087 33.5064 60.7512 31.32C62.6051 28.8521 65.4078 27.9211 67.7937 29.2135C70.105 30.4654 70.466 34.4741 69.4549 37.243C68.4438 40.0117 67.2995 41.247 65.5183 41.4922C63.1587 41.8175 59.5834 40.4449 58.9093 38.8561Z" fill="white"/>
<path d="M58.8235 35.6136C58.5591 36.8466 58.5535 38.017 58.9091 38.8561C59.5832 40.4449 63.1585 41.8175 65.5181 41.4922C66.8346 41.3109 67.8032 40.5886 68.6276 39.1057C64.8481 41.4564 59.2724 39.2867 58.8235 35.6136Z" fill="#E4E4E3"/>
<path d="M58.9861 38.8232C59.2915 39.543 60.2732 40.287 61.6121 40.814C62.9462 41.3393 64.4018 41.5618 65.5067 41.4096C67.2549 41.1687 68.3758 39.9531 69.3761 37.2143C69.8797 35.8352 70.0335 34.1374 69.7877 32.673C69.5153 31.0526 68.7929 29.8498 67.7536 29.2871C65.4701 28.0502 62.6832 28.8873 60.8179 31.3702C59.2768 33.4219 58.173 36.9061 58.9861 38.8232ZM64.7636 41.6251C62.3907 41.6251 59.4404 40.3226 58.8321 38.8885C58.4527 37.9941 58.4544 36.6806 58.8371 35.1898C59.1995 33.7788 59.8727 32.3502 60.6841 31.2699C61.6152 30.0305 62.7782 29.1687 64.0479 28.7768C65.3461 28.376 66.6553 28.5019 67.8334 29.1399C68.9187 29.7278 69.6715 30.973 69.9526 32.6455C70.2031 34.1372 70.0463 35.8665 69.5333 37.2715C68.5081 40.0779 67.3485 41.3246 65.5295 41.5752C65.2842 41.609 65.0272 41.6251 64.7636 41.6251Z" fill="#100F0D"/>
<path d="M68.0504 37.8336C67.3098 39.4617 65.7929 40.3647 64.6621 39.8504C63.5312 39.3362 63.2142 37.5994 63.9548 35.9713C64.6948 34.3433 66.2117 33.4406 67.343 33.9549C68.4739 34.469 68.7907 36.2058 68.0504 37.8336Z" fill="#4D1F1A"/>
<path d="M68.0504 37.8336C67.3098 39.4617 65.7929 40.3646 64.6621 39.8503C63.5312 39.3362 63.2142 37.5994 63.9548 35.9713C64.1236 38.2497 66.3988 39.1196 68.0504 37.8336Z" fill="#A53F3E"/>
<path d="M67.3572 37.9939C66.8434 39.1241 65.7905 39.7507 65.0053 39.3937C64.2199 39.0367 64.0001 37.8313 64.514 36.701C65.028 35.5708 66.0811 34.9438 66.8661 35.3008C67.6514 35.6582 67.8711 36.8636 67.3572 37.9939Z" fill="#100F0D"/>
<path d="M66.327 35.4477C66.327 35.8017 66.0402 36.0885 65.6866 36.0885C65.3326 36.0885 65.0459 35.8017 65.0459 35.4477C65.0459 35.094 65.3326 34.8073 65.6866 34.8073C66.0402 34.8073 66.327 35.094 66.327 35.4477Z" fill="white"/>
<path d="M66.3077 38.7955C66.3077 38.9159 66.2101 39.0137 66.0892 39.0137C65.9689 39.0137 65.8711 38.9159 65.8711 38.7955C65.8711 38.6748 65.9689 38.577 66.0892 38.577C66.2101 38.577 66.3077 38.6748 66.3077 38.7955Z" fill="white"/>
<path d="M66.6618 33.8936C66.3034 33.8936 65.9223 34.007 65.5452 34.2315C64.92 34.6039 64.3819 35.2338 64.031 36.0061C63.68 36.778 63.5585 37.5973 63.689 38.3134C63.8178 39.0184 64.1756 39.5372 64.6968 39.7742C65.2184 40.0114 65.8444 39.9401 66.4604 39.5735C67.0857 39.2014 67.6234 38.571 67.9743 37.7991C68.3256 37.0272 68.4468 36.2075 68.3162 35.4916C68.1878 34.7866 67.8298 34.268 67.3086 34.0308C67.1064 33.9391 66.8887 33.8936 66.6618 33.8936ZM65.3438 40.0792C65.0936 40.0792 64.8524 40.0288 64.6275 39.9263C64.0551 39.6661 63.6632 39.104 63.5244 38.3435C63.3879 37.5943 63.5137 36.7395 63.8787 35.9369C64.2438 35.1339 64.8052 34.4774 65.4596 34.0877C66.1238 33.6926 66.8053 33.6182 67.3777 33.8785C67.9506 34.1389 68.3424 34.7013 68.4809 35.4614C68.6174 36.2109 68.4919 37.0657 68.1269 37.8684C67.7618 38.671 67.2001 39.3279 66.5457 39.7172C66.1421 39.9576 65.732 40.0792 65.3438 40.0792Z" fill="#201312"/>
<path d="M64.9766 21.3525C65.8917 20.8948 68.4438 20.2929 70.2014 21.4967C71.959 22.7005 73.2349 25.3972 73.4755 26.312C73.8129 24.6025 73.4691 19.9171 70.6708 18.8846C67.1798 17.5965 64.9766 21.3525 64.9766 21.3525Z" fill="#6A6B6D"/>
<path d="M64.9766 21.3526C65.8917 20.8949 68.4438 20.2929 70.2014 21.4968C71.959 22.7006 73.2349 25.3972 73.4755 26.3121C73.3299 24.7663 72.8964 21.0682 70.0699 20.1156C67.1228 19.1223 64.9766 21.3526 64.9766 21.3526Z" fill="#434244"/>
<path d="M67.6451 20.7071C68.4238 20.7071 69.4078 20.852 70.2486 21.4279C71.8288 22.5101 73.0376 24.8121 73.4475 25.9483C73.6729 24.0533 73.219 19.9139 70.6417 18.9629C69.223 18.4396 67.852 18.688 66.5661 19.701C65.8969 20.2287 65.4283 20.8355 65.202 21.1608C65.6842 20.9678 66.429 20.7677 67.2681 20.7182C67.3866 20.7111 67.513 20.7071 67.6451 20.7071ZM73.4873 26.6853L73.3947 26.3334C73.154 25.4186 71.8796 22.7477 70.1538 21.566C69.2097 20.9189 68.0684 20.8386 67.2779 20.8851C66.2911 20.9434 65.4416 21.2134 65.0141 21.4272L64.7617 21.5533L64.9047 21.3101C64.9274 21.2713 65.4744 20.3484 66.4627 19.5699C67.3802 18.8469 68.8601 18.1271 70.6996 18.806C72.2685 19.3848 72.9958 21.0384 73.33 22.3235C73.7275 23.8529 73.7265 25.4716 73.5575 26.3284L73.4873 26.6853Z" fill="#21201F"/>
<path d="M43.8875 19.6137C42.5656 19.2159 39.8049 20.4148 38.1391 23.6902C36.8911 26.1444 36.8366 28.6815 38.7943 29.4932C41.0967 30.4481 42.8751 28.5575 44.1294 26.5309C45.6562 24.0636 45.8157 20.1939 43.8875 19.6137Z" fill="#100F0D"/>
<path d="M43.5974 20.1488C42.3219 19.7647 39.715 20.7446 38.1079 23.9045C36.9038 26.2719 36.8513 28.7194 38.74 29.5023C40.9609 30.4234 42.6763 28.5996 43.8861 26.6446C45.3589 24.2648 45.4569 20.7086 43.5974 20.1488Z" fill="white"/>
<path d="M37.6225 25.0372C36.9366 27.0106 37.1528 28.8441 38.7401 29.5022C40.5575 30.256 42.0367 29.1713 43.1773 27.6807C40.7371 29.7481 37.2351 28.4161 37.6225 25.0372Z" fill="#E4E4E3"/>
<path d="M43.0067 20.1514C42.4135 20.1514 41.7081 20.3665 41.019 20.7697C40.2246 21.2345 39.0877 22.1619 38.182 23.9426C37.3693 25.5409 37.128 27.0679 37.5209 28.1318C37.745 28.7387 38.1659 29.1741 38.7715 29.425C39.7506 29.8308 40.717 29.7157 41.6449 29.0827C42.383 28.5792 43.093 27.7671 43.8149 26.6004C44.8204 24.9758 45.1894 22.724 44.6738 21.3623C44.4493 20.7701 44.0686 20.3779 43.5727 20.2288C43.4007 20.1769 43.2104 20.1514 43.0067 20.1514ZM39.9114 29.8308C39.5136 29.8308 39.1118 29.7472 38.7076 29.5795C38.0569 29.3099 37.6048 28.8421 37.3639 28.1897C36.9551 27.0823 37.199 25.5064 38.0331 23.8666C39.6819 20.6245 42.3421 19.6837 43.6212 20.0684C44.1686 20.2334 44.5865 20.6603 44.8302 21.3031C45.3715 22.7317 45.0041 24.9965 43.9571 26.6885C43.2225 27.8755 42.4971 28.704 41.7392 29.2209C41.1436 29.6275 40.5321 29.8308 39.9114 29.8308Z" fill="#100F0D"/>
<path d="M43.1644 26.8517C42.5557 28.0654 41.4885 28.7618 40.7801 28.4068C40.0721 28.0518 39.9912 26.78 40.5998 25.5661C41.2084 24.352 42.2757 23.6558 42.984 24.0107C43.692 24.3657 43.7729 25.6378 43.1644 26.8517Z" fill="#4D1F1A"/>
<path d="M43.1644 26.8517C42.5557 28.0654 41.4885 28.7618 40.7801 28.4068C40.0721 28.0519 39.9912 26.7801 40.5998 25.5662C40.659 27.3926 42.2874 27.6436 43.1644 26.8517Z" fill="#A53F3E"/>
<path d="M42.7271 26.842C42.3157 27.6626 41.5943 28.1331 41.1158 27.8932C40.6371 27.6534 40.5826 26.7938 40.9937 25.973C41.4053 25.1526 42.1266 24.6823 42.6051 24.9221C43.0838 25.162 43.1384 26.0215 42.7271 26.842Z" fill="#100F0D"/>
<path d="M42.1726 25.1303C42.1726 25.3708 41.9777 25.5662 41.7368 25.5662C41.4959 25.5662 41.3008 25.3708 41.3008 25.1303C41.3008 24.8893 41.4959 24.6943 41.7368 24.6943C41.9777 24.6943 42.1726 24.8893 42.1726 25.1303Z" fill="white"/>
<path d="M42.5776 24.0014C42.3387 24.0014 42.0731 24.0921 41.8001 24.2701C41.3622 24.5562 40.9622 25.0296 40.6746 25.6037C40.3865 26.1775 40.2463 26.7814 40.2794 27.3034C40.3115 27.8089 40.5026 28.1742 40.8174 28.3322C41.1323 28.4901 41.5394 28.4245 41.9636 28.1476C42.4016 27.8617 42.8015 27.3884 43.0892 26.8142C43.377 26.2401 43.5175 25.6365 43.4844 25.1145C43.4522 24.609 43.2612 24.2437 42.9463 24.0857C42.8339 24.0295 42.7098 24.0014 42.5776 24.0014ZM41.1857 28.5838C41.0278 28.5838 40.8786 28.55 40.7424 28.4818C40.3724 28.296 40.1485 27.8815 40.1125 27.3137C40.0777 26.7627 40.2238 26.1287 40.5249 25.5288C40.8258 24.9285 41.246 24.4316 41.7088 24.1303C42.1849 23.8195 42.6509 23.7505 43.0213 23.9362C43.3913 24.1219 43.6152 24.5365 43.6513 25.1038C43.6861 25.6549 43.5395 26.2889 43.2388 26.8892C42.938 27.4894 42.5174 27.9859 42.055 28.2877C41.7542 28.4841 41.4572 28.5838 41.1857 28.5838Z" fill="#201312"/>
<path d="M43.1455 17.0427C44.3554 15.8751 46.7463 15.1206 48.3281 15.2731C49.9532 15.4294 50.4046 16.3384 50.3684 17.0427C51.0185 16.0132 51.6385 13.5517 49.4476 13.1783C47.2012 12.7959 43.9101 15.586 43.1455 17.0427Z" fill="#6A6B6D"/>
<path d="M43.1455 17.0428C44.3554 15.8751 46.7463 15.1206 48.3281 15.2732C49.9532 15.4295 50.4046 16.3385 50.3684 17.0428C50.7294 16.2231 50.618 14.595 48.8782 14.316C47.1843 14.0446 44.1161 15.6547 43.1455 17.0428Z" fill="#434244"/>
<path d="M47.8989 15.1698C48.0492 15.1698 48.1953 15.1762 48.3366 15.1899C49.7572 15.3267 50.3437 16.0381 50.44 16.747C50.782 16.0762 51.0928 14.9681 50.7338 14.1634C50.5161 13.6742 50.0784 13.3708 49.434 13.2611C48.1251 13.0379 46.5884 13.9348 45.7891 14.4896C44.8647 15.1307 44.0094 15.9391 43.5073 16.6286C44.6509 15.7737 46.4599 15.1698 47.8989 15.1698ZM42.8311 17.4631L43.0719 17.004C43.8747 15.4743 47.201 12.7106 49.4621 13.0962C50.165 13.2159 50.6445 13.5522 50.8867 14.0955C51.3217 15.0708 50.8432 16.4482 50.4397 17.0873L50.269 17.3576L50.2855 17.0385C50.3222 16.3204 49.8255 15.5014 48.3205 15.3565C46.6905 15.1996 44.3476 15.9993 43.2041 17.103L42.8311 17.4631Z" fill="#21201F"/>
<path d="M46.6747 24.992C45.0547 25.0589 42.3925 26.6248 40.4489 28.1177C38.5053 29.6107 36.1579 31.5247 33.4491 32.8249C30.7406 34.1251 25.3008 33.9899 21.7119 32.1748C17.5467 30.068 15.9336 25.2018 15.9697 21.1237C16.0043 17.21 17.7393 13.6839 19.5451 11.9867C21.3508 10.2893 23.9872 8.84464 25.2511 8.68232C26.5152 8.51973 26.9995 9.22431 28.5556 9.26012C30.1267 9.29632 31.0451 8.44615 30.9935 7.59859C30.9032 6.11808 28.3389 5.07082 27.8695 3.84294C27.4 2.61506 27.1473 0.700894 25.9735 0.213401C24.7997 -0.274353 23.2288 0.664823 22.8315 2.32596C21.4772 3.75263 15.8721 5.74468 11.8166 11.1562C7.89208 16.3927 6.6161 21.1237 7.9884 29.7482C9.47898 39.1157 16.7886 47.0734 27.0747 49.4013C38.7222 52.0378 47.3171 48.2818 51.6509 44.815L46.6747 24.992Z" fill="#BCBBB9"/>
<path d="M33.711 33.4095C36.8812 31.8872 38.9328 30.0768 40.8764 28.5838C42.8204 27.0909 45.0788 25.5776 46.6747 24.9921C45.0547 25.059 42.3925 26.6248 40.4489 28.1178C38.5053 29.6107 36.1579 31.5247 33.4491 32.8249C30.7406 34.1252 25.3008 33.9899 21.7119 32.1748C25.0556 34.5621 31.0026 34.71 33.711 33.4095Z" fill="#DFDFDD"/>
<path d="M12.4205 11.4165C16.4499 6.03979 21.3632 4.55327 22.7547 3.13535C22.7638 3.12634 22.8713 3.81314 23.0513 4.10119C22.9926 1.62935 24.485 0.344881 25.6588 0.832374C26.8326 1.32026 26.774 2.83985 27.2982 4.16719C27.7811 5.38971 30.644 6.34196 30.9934 7.59859C30.9032 6.11808 28.3389 5.07082 27.8695 3.84294C27.4 2.61506 27.1473 0.700894 25.9735 0.213401C24.7997 -0.274353 23.2288 0.664823 22.8315 2.32596C21.4772 3.75263 15.8721 5.74468 11.8166 11.1562C7.89208 16.3927 6.6161 21.1237 7.9884 29.7482C7.00035 22.1565 8.49615 16.653 12.4205 11.4165Z" fill="#DFDFDD"/>
<path d="M28.4628 8.38295C27.2584 8.21971 26.6226 7.71105 25.3512 7.59865C23.4686 7.43266 20.259 9.23939 18.4533 10.9367C16.6475 12.6345 14.7032 15.8106 14.6837 21.1304C14.6653 26.138 16.9812 30.1864 21.7111 32.1748C17.5459 30.068 15.9328 25.2018 15.9688 21.1238C16.0035 17.2101 17.7384 13.6839 19.5443 11.9867C21.3499 10.2894 23.9863 8.8447 25.2503 8.68237C26.5144 8.51979 26.9986 9.22436 28.5548 9.26018C30.1259 9.29638 31.0443 8.44621 30.9925 7.59865C30.7357 8.40974 29.7593 8.5586 28.4628 8.38295Z" fill="#999899"/>
<path d="M49.8498 43.6004C43.7929 47.25 35.77 49.3421 26.5181 47.0539C17.9935 44.9458 11.4125 39.9947 7.98828 29.7482C9.47886 39.1157 16.7885 47.0734 27.0746 49.4013C38.722 52.0378 47.3169 48.2818 51.6508 44.815L49.8498 43.6004Z" fill="#999899"/>
<path d="M34.772 50.374C32.2577 50.374 29.68 50.0772 27.0555 49.483C22.0547 48.3511 17.5997 45.8578 14.1721 42.2724C12.5164 40.5407 11.1388 38.5921 10.0775 36.4812C9.0066 34.3506 8.27562 32.0898 7.9051 29.7612C7.21843 25.4465 7.19582 22.0789 7.83374 19.1637C8.43951 16.3957 9.647 13.9105 11.7488 11.1061C14.547 7.37212 18.0995 5.24924 20.4503 3.84426C21.5014 3.21601 22.3344 2.71806 22.7548 2.28455C22.9737 1.39647 23.5513 0.639357 24.3036 0.255898C24.88 -0.037513 25.4843 -0.0802503 26.0048 0.136181C26.9352 0.522647 27.3067 1.75994 27.6344 2.85163C27.7381 3.19693 27.836 3.52275 27.9469 3.8129C28.1436 4.32744 28.7299 4.81494 29.3507 5.33118C30.1729 6.01511 31.0231 6.72204 31.0762 7.59365C31.0985 7.95894 30.9519 8.32502 30.6633 8.62444C30.2039 9.10187 29.4348 9.36391 28.5531 9.34379C27.7977 9.3264 27.2843 9.15206 26.8315 8.99823C26.3332 8.82885 25.9029 8.68273 25.2612 8.76533C24.0735 8.91785 21.4571 10.3034 19.6017 12.0475C17.8607 13.6843 16.0881 17.1255 16.0526 21.1244C16.0181 25.0201 17.4966 29.9492 21.749 32.1003C25.484 33.9892 30.8935 33.9585 33.4123 32.7493C35.8196 31.594 37.9084 29.977 39.7512 28.55C39.9714 28.3797 40.1865 28.213 40.3974 28.0515C41.7768 26.9918 43.5501 25.8499 45.0781 25.2457C46.225 24.8248 46.674 24.992 46.674 24.992C44.9831 25.1463 42.2907 26.8078 40.499 28.184C40.2889 28.3456 40.0735 28.5122 39.8537 28.6825C38.0041 30.1141 35.908 31.7372 33.4845 32.9002C32.1472 33.5423 30.114 33.8524 27.9062 33.7518C25.5933 33.646 23.3797 33.1124 21.6734 32.2494C20.667 31.7402 19.764 31.047 18.9896 30.1888C18.2781 29.4001 17.6721 28.4697 17.1888 27.4238C16.3288 25.5625 15.8659 23.3252 15.8853 21.123C15.9016 19.2943 16.2923 17.4159 17.0155 15.6918C17.6594 14.1561 18.5371 12.8187 19.487 11.9258C20.3406 11.1235 21.4317 10.3282 22.5592 9.68608C23.6297 9.07678 24.6066 8.68064 25.2399 8.59935C25.92 8.51165 26.3889 8.67097 26.8853 8.83957C27.3484 8.99679 27.8272 9.15977 28.5569 9.1765C29.392 9.19597 30.1157 8.95196 30.5428 8.50864C30.7984 8.24307 30.9286 7.92182 30.9093 7.60397C30.8605 6.80438 30.0386 6.12084 29.2437 5.46005C28.6056 4.9293 28.003 4.42821 27.7906 3.87276C27.6776 3.57699 27.5788 3.24803 27.4742 2.89986C27.1571 1.84358 26.7979 0.646676 25.9406 0.290401C25.466 0.0933129 24.9115 0.13422 24.3795 0.405152C23.6641 0.76953 23.1155 1.49489 22.9122 2.34545L22.9069 2.36754L22.8915 2.38348C22.4604 2.83752 21.6111 3.34514 20.536 3.9879C18.1966 5.38608 14.6611 7.49889 11.8828 11.2061C7.76539 16.7002 6.76766 21.5489 8.0703 29.7351C9.60244 39.3637 17.0691 47.0513 27.0925 49.32C29.8533 49.9448 32.4102 50.2037 34.7483 50.2037C43.9212 50.2037 49.7551 46.2239 51.5981 44.7496L51.7024 44.8802C49.1288 46.9392 45.7275 48.5722 42.125 49.4779C39.7503 50.0756 37.2931 50.374 34.772 50.374Z" fill="#4C4D4E"/>
<path d="M49.8496 43.6005C50.4328 43.925 50.9744 44.4142 51.3301 45.0034C51.6403 45.517 51.8798 46.2128 51.9841 47.054C53.8384 43.7882 52.6419 43.0367 49.8496 43.6005Z" fill="#BCBBB9"/>
<path d="M51.9841 47.054C51.5656 45.1428 50.9623 44.4174 49.8496 43.6005C49.8496 43.6005 50.2139 43.6449 50.7843 44.1676C51.207 44.5931 51.5305 45.0799 51.7911 45.7716C52.0662 46.447 51.9841 47.054 51.9841 47.054Z" fill="#4C4D4E"/>
<path d="M22.749 2.30823L22.9125 2.34404C22.6932 3.34216 23.047 4.09392 23.0505 4.10123C23.0505 4.10123 22.5167 3.36555 22.749 2.30823Z" fill="#4C4D4E"/>
<path d="M22.4382 9.92932C21.6816 9.83025 20.9955 9.57906 20.4467 9.31544C19.6467 8.93068 19.2363 8.38293 19.2363 8.38293C19.2503 8.39431 20.6493 9.52613 22.4599 9.76334L22.4382 9.92932Z" fill="#4C4D4E"/>
<path d="M16.156 14.1861C14.8627 14.2102 14.3076 13.8368 14.3076 13.8368C14.3293 13.8415 16.4884 14.2949 18.0479 13.7391L18.1041 13.8968C17.4846 14.1175 16.7857 14.1861 16.156 14.1861Z" fill="#4C4D4E"/>
<path d="M10.4961 23.6946C13.9177 23.6039 15.4454 21.1103 15.9435 20.0424L16.0951 20.1129C15.8057 20.7332 15.2742 21.6346 14.3851 22.4038C13.8522 22.8649 13.2613 23.2179 12.617 23.4613C11.2954 23.9254 10.4961 23.6946 10.4961 23.6946Z" fill="#4C4D4E"/>
<path d="M14.7656 33.4114C16.5567 32.5656 17.7601 30.5872 17.7601 28.4884H17.9274C17.9274 29.9884 17.3297 31.429 16.3465 32.4622C15.3698 33.4114 14.7656 33.4114 14.7656 33.4114Z" fill="#4C4D4E"/>
<path d="M24.5992 40.7672C25.7789 38.5258 25.6927 35.0719 24.4111 33.2248L24.5485 33.1294C25.1879 34.0508 25.5611 35.3668 25.5994 36.8349C25.6155 37.4491 25.5718 38.0558 25.4726 38.6352C25.193 40.182 24.5992 40.7672 24.5992 40.7672Z" fill="#4C4D4E"/>
<path d="M36.5312 41.3045C36.7339 39.033 36.3194 37.0553 35.3327 35.5845C34.5518 34.4209 33.4252 33.6028 32.2422 33.3409L32.2784 33.1776C33.5029 33.4489 34.667 34.2921 35.4715 35.4916C36.1745 36.5391 36.5934 37.836 36.7129 39.3081C36.8768 40.5667 36.5312 41.3045 36.5312 41.3045Z" fill="#4C4D4E"/>
<path d="M45.7804 35.7753C44.3186 31.1326 41.4871 29.538 39.3691 29.0174L39.409 28.8551C40.7988 29.1967 42.0365 29.876 43.0866 30.8743C43.9241 31.6703 44.6301 32.6613 45.1968 33.8343C45.7804 35.0823 45.7804 35.7753 45.7804 35.7753Z" fill="#4C4D4E"/>
<path d="M51.3907 32.2123C49.9449 27.7233 46.5095 26.077 43.7764 26.0329L43.779 25.866C45.4234 25.8921 46.9936 26.4304 48.3196 27.4218C49.1996 28.0796 49.953 28.9317 50.5546 29.9399C51.3907 31.2791 51.3907 32.2123 51.3907 32.2123Z" fill="#4C4D4E"/>
</g>
<defs>
<clipPath id="clip0_25_100">
<rect width="120" height="120" fill="white"/>
</clipPath>
</defs>
</svg>
